%TF.GenerationSoftware,KiCad,Pcbnew,9.0.7*%
%TF.CreationDate,2026-01-26T23:56:31-03:00*%
%TF.ProjectId,parlaV0SMD,7061726c-6156-4305-934d-442e6b696361,rev?*%
%TF.SameCoordinates,Original*%
%TF.FileFunction,Copper,L1,Top*%
%TF.FilePolarity,Positive*%
%FSLAX46Y46*%
G04 Gerber Fmt 4.6, Leading zero omitted, Abs format (unit mm)*
G04 Created by KiCad (PCBNEW 9.0.7) date 2026-01-26 23:56:31*
%MOMM*%
%LPD*%
G01*
G04 APERTURE LIST*
G04 Aperture macros list*
%AMRoundRect*
0 Rectangle with rounded corners*
0 $1 Rounding radius*
0 $2 $3 $4 $5 $6 $7 $8 $9 X,Y pos of 4 corners*
0 Add a 4 corners polygon primitive as box body*
4,1,4,$2,$3,$4,$5,$6,$7,$8,$9,$2,$3,0*
0 Add four circle primitives for the rounded corners*
1,1,$1+$1,$2,$3*
1,1,$1+$1,$4,$5*
1,1,$1+$1,$6,$7*
1,1,$1+$1,$8,$9*
0 Add four rect primitives between the rounded corners*
20,1,$1+$1,$2,$3,$4,$5,0*
20,1,$1+$1,$4,$5,$6,$7,0*
20,1,$1+$1,$6,$7,$8,$9,0*
20,1,$1+$1,$8,$9,$2,$3,0*%
G04 Aperture macros list end*
%TA.AperFunction,ComponentPad*%
%ADD10RoundRect,0.250001X0.949999X-0.949999X0.949999X0.949999X-0.949999X0.949999X-0.949999X-0.949999X0*%
%TD*%
%TA.AperFunction,ComponentPad*%
%ADD11C,2.400000*%
%TD*%
%TA.AperFunction,SMDPad,CuDef*%
%ADD12RoundRect,0.250000X-0.550000X1.050000X-0.550000X-1.050000X0.550000X-1.050000X0.550000X1.050000X0*%
%TD*%
%TA.AperFunction,SMDPad,CuDef*%
%ADD13RoundRect,0.250000X-1.500000X-0.550000X1.500000X-0.550000X1.500000X0.550000X-1.500000X0.550000X0*%
%TD*%
%TA.AperFunction,SMDPad,CuDef*%
%ADD14RoundRect,0.250000X-0.312500X-0.625000X0.312500X-0.625000X0.312500X0.625000X-0.312500X0.625000X0*%
%TD*%
%TA.AperFunction,ComponentPad*%
%ADD15RoundRect,0.249999X0.850001X-0.850001X0.850001X0.850001X-0.850001X0.850001X-0.850001X-0.850001X0*%
%TD*%
%TA.AperFunction,ComponentPad*%
%ADD16C,2.200000*%
%TD*%
%TA.AperFunction,SMDPad,CuDef*%
%ADD17RoundRect,0.250000X1.050000X0.550000X-1.050000X0.550000X-1.050000X-0.550000X1.050000X-0.550000X0*%
%TD*%
%TA.AperFunction,ComponentPad*%
%ADD18RoundRect,0.250001X0.949999X0.949999X-0.949999X0.949999X-0.949999X-0.949999X0.949999X-0.949999X0*%
%TD*%
%TA.AperFunction,SMDPad,CuDef*%
%ADD19RoundRect,0.250000X-0.550000X1.250000X-0.550000X-1.250000X0.550000X-1.250000X0.550000X1.250000X0*%
%TD*%
%TA.AperFunction,SMDPad,CuDef*%
%ADD20RoundRect,0.140000X0.140000X0.170000X-0.140000X0.170000X-0.140000X-0.170000X0.140000X-0.170000X0*%
%TD*%
%TA.AperFunction,ComponentPad*%
%ADD21RoundRect,0.250000X-0.550000X-0.550000X0.550000X-0.550000X0.550000X0.550000X-0.550000X0.550000X0*%
%TD*%
%TA.AperFunction,ComponentPad*%
%ADD22C,1.600000*%
%TD*%
%TA.AperFunction,Conductor*%
%ADD23C,0.200000*%
%TD*%
G04 APERTURE END LIST*
D10*
%TO.P,RV1,1,1*%
%TO.N,/Vin*%
X133500000Y-60000000D03*
D11*
%TO.P,RV1,2,2*%
%TO.N,Net-(C3-Pad1)*%
X133500000Y-56500000D03*
%TO.P,RV1,3,3*%
%TO.N,GND*%
X133500000Y-53000000D03*
%TD*%
D12*
%TO.P,C2,1*%
%TO.N,Net-(U1--)*%
X110000000Y-66200000D03*
%TO.P,C2,2*%
%TO.N,GND*%
X110000000Y-69800000D03*
%TD*%
D13*
%TO.P,C5,1*%
%TO.N,Net-(C4-Pad1)*%
X131300000Y-76500000D03*
%TO.P,C5,2*%
%TO.N,Net-(C5-Pad2)*%
X136700000Y-76500000D03*
%TD*%
D14*
%TO.P,R1,1*%
%TO.N,Net-(C4-Pad2)*%
X104037500Y-85000000D03*
%TO.P,R1,2*%
%TO.N,GND*%
X106962500Y-85000000D03*
%TD*%
D15*
%TO.P,LS1,1,1*%
%TO.N,Net-(C5-Pad2)*%
X134000000Y-85540000D03*
D16*
%TO.P,LS1,2,2*%
%TO.N,GND*%
X134000000Y-83000000D03*
%TD*%
D17*
%TO.P,C3,1*%
%TO.N,Net-(C3-Pad1)*%
X115800000Y-61000000D03*
%TO.P,C3,2*%
%TO.N,Net-(U1-+)*%
X112200000Y-61000000D03*
%TD*%
D18*
%TO.P,J2,1,Pin_1*%
%TO.N,+6V*%
X124500000Y-57500000D03*
D11*
%TO.P,J2,2,Pin_2*%
%TO.N,GND*%
X121000000Y-57500000D03*
%TD*%
D19*
%TO.P,C7,1*%
%TO.N,Net-(U1-BYPASS)*%
X123500000Y-82300000D03*
%TO.P,C7,2*%
%TO.N,GND*%
X123500000Y-86700000D03*
%TD*%
D13*
%TO.P,C6,1*%
%TO.N,+6V*%
X104800000Y-77000000D03*
%TO.P,C6,2*%
%TO.N,GND*%
X110200000Y-77000000D03*
%TD*%
D18*
%TO.P,J1,1,Pin_1*%
%TO.N,/Vin*%
X106750000Y-57332500D03*
D11*
%TO.P,J1,2,Pin_2*%
%TO.N,GND*%
X103250000Y-57332500D03*
%TD*%
D20*
%TO.P,C1,1*%
%TO.N,Net-(U1-+)*%
X114460000Y-71500000D03*
%TO.P,C1,2*%
%TO.N,GND*%
X113500000Y-71500000D03*
%TD*%
%TO.P,C4,1*%
%TO.N,Net-(C4-Pad1)*%
X119000000Y-79500000D03*
%TO.P,C4,2*%
%TO.N,Net-(C4-Pad2)*%
X118040000Y-79500000D03*
%TD*%
D21*
%TO.P,U1,1,GAIN*%
%TO.N,unconnected-(U1-GAIN-Pad1)*%
X117195000Y-67190000D03*
D22*
%TO.P,U1,2,-*%
%TO.N,Net-(U1--)*%
X117195000Y-69730000D03*
%TO.P,U1,3,+*%
%TO.N,Net-(U1-+)*%
X117195000Y-72270000D03*
%TO.P,U1,4,GND*%
%TO.N,GND*%
X117195000Y-74810000D03*
%TO.P,U1,5*%
%TO.N,Net-(C4-Pad1)*%
X124815000Y-74810000D03*
%TO.P,U1,6,V+*%
%TO.N,+6V*%
X124815000Y-72270000D03*
%TO.P,U1,7,BYPASS*%
%TO.N,Net-(U1-BYPASS)*%
X124815000Y-69730000D03*
%TO.P,U1,8,GAIN*%
%TO.N,unconnected-(U1-GAIN-Pad8)*%
X124815000Y-67190000D03*
%TD*%
D23*
%TO.N,GND*%
X108662500Y-86700000D02*
X119200000Y-86700000D01*
X123500000Y-86700000D02*
X127200000Y-83000000D01*
X113500000Y-71500000D02*
X111700000Y-71500000D01*
X103250000Y-65750000D02*
X103000000Y-66000000D01*
X123500000Y-86700000D02*
X119200000Y-86700000D01*
X106962500Y-85000000D02*
X108662500Y-86700000D01*
X106200000Y-66000000D02*
X110000000Y-69800000D01*
X102962500Y-89000000D02*
X106962500Y-85000000D01*
X110200000Y-77000000D02*
X105200000Y-82000000D01*
X102000000Y-82000000D02*
X102000000Y-89000000D01*
X103000000Y-66000000D02*
X106200000Y-66000000D01*
X103250000Y-57332500D02*
X103250000Y-65750000D01*
X105200000Y-82000000D02*
X102000000Y-82000000D01*
X111700000Y-71500000D02*
X110000000Y-69800000D01*
X102000000Y-89000000D02*
X102962500Y-89000000D01*
X127200000Y-83000000D02*
X134000000Y-83000000D01*
%TO.N,Net-(U1-+)*%
X119500000Y-69965000D02*
X117195000Y-72270000D01*
X114460000Y-71500000D02*
X116425000Y-71500000D01*
X118000000Y-65000000D02*
X119500000Y-66500000D01*
X114200000Y-65000000D02*
X118000000Y-65000000D01*
X116425000Y-71500000D02*
X117195000Y-72270000D01*
X119500000Y-66500000D02*
X119500000Y-69965000D01*
X112200000Y-63000000D02*
X114200000Y-65000000D01*
X112200000Y-61000000D02*
X112200000Y-63000000D01*
%TO.N,Net-(U1--)*%
X117195000Y-69730000D02*
X113530000Y-69730000D01*
X113530000Y-69730000D02*
X110000000Y-66200000D01*
%TO.N,Net-(C3-Pad1)*%
X117800000Y-63000000D02*
X115800000Y-61000000D01*
X123000000Y-63000000D02*
X117800000Y-63000000D01*
X129500000Y-56500000D02*
X123000000Y-63000000D01*
X133500000Y-56500000D02*
X129500000Y-56500000D01*
%TO.N,Net-(C4-Pad2)*%
X118040000Y-79500000D02*
X109537500Y-79500000D01*
X109537500Y-79500000D02*
X104037500Y-85000000D01*
%TO.N,Net-(C4-Pad1)*%
X124815000Y-74810000D02*
X129610000Y-74810000D01*
X119000000Y-79500000D02*
X120125000Y-79500000D01*
X120125000Y-79500000D02*
X124815000Y-74810000D01*
X129610000Y-74810000D02*
X131300000Y-76500000D01*
%TO.N,Net-(C5-Pad2)*%
X134000000Y-86000000D02*
X137000000Y-89000000D01*
X137000000Y-89000000D02*
X139000000Y-89000000D01*
X139000000Y-89000000D02*
X139000000Y-78800000D01*
X134000000Y-85540000D02*
X134000000Y-86000000D01*
X139000000Y-78800000D02*
X136700000Y-76500000D01*
%TO.N,+6V*%
X104800000Y-77000000D02*
X108300000Y-73500000D01*
X124815000Y-72270000D02*
X123730000Y-72270000D01*
X108300000Y-73500000D02*
X122500000Y-73500000D01*
X123730000Y-72270000D02*
X122500000Y-73500000D01*
%TO.N,Net-(U1-BYPASS)*%
X133500000Y-74000000D02*
X129230000Y-69730000D01*
X133500000Y-77500000D02*
X133500000Y-74000000D01*
X129230000Y-69730000D02*
X124815000Y-69730000D01*
X123500000Y-82300000D02*
X126800000Y-79000000D01*
X126800000Y-79000000D02*
X132000000Y-79000000D01*
X132000000Y-79000000D02*
X133500000Y-77500000D01*
%TD*%
M02*
