%TF.GenerationSoftware,KiCad,Pcbnew,9.0.7*%
%TF.CreationDate,2026-01-26T23:56:31-03:00*%
%TF.ProjectId,parlaV0SMD,7061726c-6156-4305-934d-442e6b696361,rev?*%
%TF.SameCoordinates,Original*%
%TF.FileFunction,Copper,L2,Bot*%
%TF.FilePolarity,Positive*%
%FSLAX46Y46*%
G04 Gerber Fmt 4.6, Leading zero omitted, Abs format (unit mm)*
G04 Created by KiCad (PCBNEW 9.0.7) date 2026-01-26 23:56:31*
%MOMM*%
%LPD*%
G01*
G04 APERTURE LIST*
G04 Aperture macros list*
%AMRoundRect*
0 Rectangle with rounded corners*
0 $1 Rounding radius*
0 $2 $3 $4 $5 $6 $7 $8 $9 X,Y pos of 4 corners*
0 Add a 4 corners polygon primitive as box body*
4,1,4,$2,$3,$4,$5,$6,$7,$8,$9,$2,$3,0*
0 Add four circle primitives for the rounded corners*
1,1,$1+$1,$2,$3*
1,1,$1+$1,$4,$5*
1,1,$1+$1,$6,$7*
1,1,$1+$1,$8,$9*
0 Add four rect primitives between the rounded corners*
20,1,$1+$1,$2,$3,$4,$5,0*
20,1,$1+$1,$4,$5,$6,$7,0*
20,1,$1+$1,$6,$7,$8,$9,0*
20,1,$1+$1,$8,$9,$2,$3,0*%
G04 Aperture macros list end*
%TA.AperFunction,ComponentPad*%
%ADD10RoundRect,0.250001X0.949999X-0.949999X0.949999X0.949999X-0.949999X0.949999X-0.949999X-0.949999X0*%
%TD*%
%TA.AperFunction,ComponentPad*%
%ADD11C,2.400000*%
%TD*%
%TA.AperFunction,ComponentPad*%
%ADD12RoundRect,0.249999X0.850001X-0.850001X0.850001X0.850001X-0.850001X0.850001X-0.850001X-0.850001X0*%
%TD*%
%TA.AperFunction,ComponentPad*%
%ADD13C,2.200000*%
%TD*%
%TA.AperFunction,ComponentPad*%
%ADD14RoundRect,0.250001X0.949999X0.949999X-0.949999X0.949999X-0.949999X-0.949999X0.949999X-0.949999X0*%
%TD*%
%TA.AperFunction,ComponentPad*%
%ADD15RoundRect,0.250000X-0.550000X-0.550000X0.550000X-0.550000X0.550000X0.550000X-0.550000X0.550000X0*%
%TD*%
%TA.AperFunction,ComponentPad*%
%ADD16C,1.600000*%
%TD*%
%TA.AperFunction,Conductor*%
%ADD17C,0.200000*%
%TD*%
G04 APERTURE END LIST*
D10*
%TO.P,RV1,1,1*%
%TO.N,/Vin*%
X133500000Y-60000000D03*
D11*
%TO.P,RV1,2,2*%
%TO.N,Net-(C3-Pad1)*%
X133500000Y-56500000D03*
%TO.P,RV1,3,3*%
%TO.N,GND*%
X133500000Y-53000000D03*
%TD*%
D12*
%TO.P,LS1,1,1*%
%TO.N,Net-(C5-Pad2)*%
X134000000Y-85540000D03*
D13*
%TO.P,LS1,2,2*%
%TO.N,GND*%
X134000000Y-83000000D03*
%TD*%
D14*
%TO.P,J2,1,Pin_1*%
%TO.N,+6V*%
X124500000Y-57500000D03*
D11*
%TO.P,J2,2,Pin_2*%
%TO.N,GND*%
X121000000Y-57500000D03*
%TD*%
D14*
%TO.P,J1,1,Pin_1*%
%TO.N,/Vin*%
X106750000Y-57332500D03*
D11*
%TO.P,J1,2,Pin_2*%
%TO.N,GND*%
X103250000Y-57332500D03*
%TD*%
D15*
%TO.P,U1,1,GAIN*%
%TO.N,unconnected-(U1-GAIN-Pad1)*%
X117195000Y-67190000D03*
D16*
%TO.P,U1,2,-*%
%TO.N,Net-(U1--)*%
X117195000Y-69730000D03*
%TO.P,U1,3,+*%
%TO.N,Net-(U1-+)*%
X117195000Y-72270000D03*
%TO.P,U1,4,GND*%
%TO.N,GND*%
X117195000Y-74810000D03*
%TO.P,U1,5*%
%TO.N,Net-(C4-Pad1)*%
X124815000Y-74810000D03*
%TO.P,U1,6,V+*%
%TO.N,+6V*%
X124815000Y-72270000D03*
%TO.P,U1,7,BYPASS*%
%TO.N,Net-(U1-BYPASS)*%
X124815000Y-69730000D03*
%TO.P,U1,8,GAIN*%
%TO.N,unconnected-(U1-GAIN-Pad8)*%
X124815000Y-67190000D03*
%TD*%
D17*
%TO.N,GND*%
X121000000Y-57500000D02*
X117832500Y-54332500D01*
X117832500Y-54332500D02*
X117750000Y-54332500D01*
%TO.N,+6V*%
X124500000Y-57500000D02*
X124500000Y-59000000D01*
X124500000Y-59000000D02*
X127500000Y-62000000D01*
%TO.N,GND*%
X130500000Y-83000000D02*
X134000000Y-83000000D01*
X122310000Y-74810000D02*
X130500000Y-83000000D01*
X103250000Y-57332500D02*
X106250000Y-54332500D01*
X117750000Y-54332500D02*
X120282500Y-51800000D01*
X134000000Y-83000000D02*
X134000000Y-71500000D01*
X106250000Y-54332500D02*
X117750000Y-54332500D01*
X136500000Y-69000000D02*
X136500000Y-55000000D01*
X136500000Y-55000000D02*
X134500000Y-53000000D01*
X120282500Y-51800000D02*
X132300000Y-51800000D01*
X117195000Y-74810000D02*
X122310000Y-74810000D01*
X132300000Y-51800000D02*
X133500000Y-53000000D01*
X134000000Y-71500000D02*
X136500000Y-69000000D01*
X134500000Y-53000000D02*
X133500000Y-53000000D01*
%TO.N,+6V*%
X127500000Y-62000000D02*
X127500000Y-71000000D01*
X126230000Y-72270000D02*
X124815000Y-72270000D01*
X127500000Y-71000000D02*
X126230000Y-72270000D01*
%TO.N,/Vin*%
X121000000Y-71500000D02*
X121000000Y-64000000D01*
X128291000Y-73709000D02*
X123209000Y-73709000D01*
X133500000Y-60000000D02*
X133500000Y-68500000D01*
X121000000Y-64000000D02*
X114332500Y-57332500D01*
X114332500Y-57332500D02*
X106750000Y-57332500D01*
X133500000Y-68500000D02*
X128291000Y-73709000D01*
X123209000Y-73709000D02*
X121000000Y-71500000D01*
%TD*%
M02*
