%TF.GenerationSoftware,KiCad,Pcbnew,9.0.2*%
%TF.CreationDate,2026-02-04T14:32:47-03:00*%
%TF.ProjectId,parlav1,7061726c-6176-4312-9e6b-696361645f70,rev?*%
%TF.SameCoordinates,Original*%
%TF.FileFunction,Copper,L2,Bot*%
%TF.FilePolarity,Positive*%
%FSLAX46Y46*%
G04 Gerber Fmt 4.6, Leading zero omitted, Abs format (unit mm)*
G04 Created by KiCad (PCBNEW 9.0.2) date 2026-02-04 14:32:47*
%MOMM*%
%LPD*%
G01*
G04 APERTURE LIST*
G04 Aperture macros list*
%AMRoundRect*
0 Rectangle with rounded corners*
0 $1 Rounding radius*
0 $2 $3 $4 $5 $6 $7 $8 $9 X,Y pos of 4 corners*
0 Add a 4 corners polygon primitive as box body*
4,1,4,$2,$3,$4,$5,$6,$7,$8,$9,$2,$3,0*
0 Add four circle primitives for the rounded corners*
1,1,$1+$1,$2,$3*
1,1,$1+$1,$4,$5*
1,1,$1+$1,$6,$7*
1,1,$1+$1,$8,$9*
0 Add four rect primitives between the rounded corners*
20,1,$1+$1,$2,$3,$4,$5,0*
20,1,$1+$1,$4,$5,$6,$7,0*
20,1,$1+$1,$6,$7,$8,$9,0*
20,1,$1+$1,$8,$9,$2,$3,0*%
G04 Aperture macros list end*
%TA.AperFunction,ComponentPad*%
%ADD10R,1.700000X1.700000*%
%TD*%
%TA.AperFunction,ComponentPad*%
%ADD11R,3.000000X3.000000*%
%TD*%
%TA.AperFunction,ComponentPad*%
%ADD12C,3.000000*%
%TD*%
%TA.AperFunction,ComponentPad*%
%ADD13C,1.700000*%
%TD*%
%TA.AperFunction,ComponentPad*%
%ADD14RoundRect,0.250000X-0.950000X-0.550000X0.950000X-0.550000X0.950000X0.550000X-0.950000X0.550000X0*%
%TD*%
%TA.AperFunction,ComponentPad*%
%ADD15O,2.400000X1.600000*%
%TD*%
%TA.AperFunction,ViaPad*%
%ADD16C,0.500000*%
%TD*%
%TA.AperFunction,Conductor*%
%ADD17C,0.500000*%
%TD*%
G04 APERTURE END LIST*
D10*
%TO.P,H2,1,1*%
%TO.N,Net-(H2-Pad1)*%
X80240366Y-52059175D03*
%TD*%
D11*
%TO.P,LS1,1,1*%
%TO.N,Net-(C5-Pad2)*%
X63363808Y-86092743D03*
D12*
%TO.P,LS1,2,2*%
%TO.N,GND*%
X68443808Y-86092743D03*
%TD*%
D11*
%TO.P,J2,1,Pin_1*%
%TO.N,Net-(D1-A)*%
X86123257Y-61417090D03*
D12*
%TO.P,J2,2,Pin_2*%
%TO.N,GND*%
X86123257Y-56337090D03*
%TD*%
D10*
%TO.P,POT1,1,1*%
%TO.N,GND*%
X52000000Y-62920000D03*
D13*
%TO.P,POT1,2,2*%
%TO.N,Net-(C3-Pad1)*%
X52000000Y-65460000D03*
%TO.P,POT1,3,3*%
%TO.N,/Vin*%
X52000000Y-68000000D03*
%TD*%
D11*
%TO.P,J1,1,Pin_1*%
%TO.N,/Vin*%
X66540000Y-54000000D03*
D12*
%TO.P,J1,2,Pin_2*%
%TO.N,GND*%
X61460000Y-54000000D03*
%TD*%
D10*
%TO.P,H1,1,1*%
%TO.N,Net-(H1-Pad1)*%
X71302034Y-52037321D03*
%TD*%
D14*
%TO.P,U1,1,GAIN*%
%TO.N,Net-(H1-Pad1)*%
X67190000Y-66190000D03*
D15*
%TO.P,U1,2,-*%
%TO.N,Net-(U1--)*%
X67190000Y-68730000D03*
%TO.P,U1,3,+*%
%TO.N,Net-(U1-+)*%
X67190000Y-71270000D03*
%TO.P,U1,4,GND*%
%TO.N,GND*%
X67190000Y-73810000D03*
%TO.P,U1,5*%
%TO.N,Net-(C4-Pad1)*%
X74810000Y-73810000D03*
%TO.P,U1,6,V+*%
%TO.N,VCC*%
X74810000Y-71270000D03*
%TO.P,U1,7,BYPASS*%
%TO.N,Net-(U1-BYPASS)*%
X74810000Y-68730000D03*
%TO.P,U1,8,GAIN*%
%TO.N,Net-(H2-Pad1)*%
X74810000Y-66190000D03*
%TD*%
D16*
%TO.N,Net-(U1-+)*%
X57500000Y-68000000D03*
%TD*%
D17*
%TO.N,Net-(U1-+)*%
X57500000Y-70500000D02*
X57500000Y-68000000D01*
X67190000Y-71270000D02*
X58270000Y-71270000D01*
X58270000Y-71270000D02*
X57500000Y-70500000D01*
%TD*%
%TA.AperFunction,Conductor*%
%TO.N,GND*%
G36*
X70241030Y-50520185D02*
G01*
X70286785Y-50572989D01*
X70296729Y-50642147D01*
X70267704Y-50705703D01*
X70217325Y-50740682D01*
X70209703Y-50743524D01*
X70209698Y-50743527D01*
X70094489Y-50829773D01*
X70094486Y-50829776D01*
X70008240Y-50944985D01*
X70008236Y-50944992D01*
X69957942Y-51079838D01*
X69951535Y-51139437D01*
X69951535Y-51139444D01*
X69951534Y-51139456D01*
X69951534Y-52935191D01*
X69951535Y-52935197D01*
X69957942Y-52994804D01*
X70008236Y-53129649D01*
X70008240Y-53129656D01*
X70094486Y-53244865D01*
X70094489Y-53244868D01*
X70209698Y-53331114D01*
X70209705Y-53331118D01*
X70344551Y-53381412D01*
X70344550Y-53381412D01*
X70351478Y-53382156D01*
X70404161Y-53387821D01*
X72199906Y-53387820D01*
X72259517Y-53381412D01*
X72394365Y-53331117D01*
X72509580Y-53244867D01*
X72595830Y-53129652D01*
X72646125Y-52994804D01*
X72652534Y-52935194D01*
X72652533Y-51139449D01*
X72646125Y-51079838D01*
X72595830Y-50944990D01*
X72595829Y-50944989D01*
X72595827Y-50944985D01*
X72509581Y-50829776D01*
X72509578Y-50829773D01*
X72394369Y-50743527D01*
X72394364Y-50743524D01*
X72386743Y-50740682D01*
X72330810Y-50698810D01*
X72306393Y-50633346D01*
X72321245Y-50565073D01*
X72370650Y-50515668D01*
X72430077Y-50500500D01*
X79170917Y-50500500D01*
X79237956Y-50520185D01*
X79283711Y-50572989D01*
X79293655Y-50642147D01*
X79264630Y-50705703D01*
X79214250Y-50740682D01*
X79148037Y-50765377D01*
X79148030Y-50765381D01*
X79032821Y-50851627D01*
X79032818Y-50851630D01*
X78946572Y-50966839D01*
X78946568Y-50966846D01*
X78896274Y-51101692D01*
X78889867Y-51161291D01*
X78889867Y-51161298D01*
X78889866Y-51161310D01*
X78889866Y-52957045D01*
X78889867Y-52957051D01*
X78896274Y-53016658D01*
X78946568Y-53151503D01*
X78946572Y-53151510D01*
X79032818Y-53266719D01*
X79032821Y-53266722D01*
X79148030Y-53352968D01*
X79148037Y-53352972D01*
X79282883Y-53403266D01*
X79282882Y-53403266D01*
X79289810Y-53404010D01*
X79342493Y-53409675D01*
X81138238Y-53409674D01*
X81197849Y-53403266D01*
X81332697Y-53352971D01*
X81447912Y-53266721D01*
X81534162Y-53151506D01*
X81584457Y-53016658D01*
X81590866Y-52957048D01*
X81590865Y-51161303D01*
X81584457Y-51101692D01*
X81584130Y-51100816D01*
X81534163Y-50966846D01*
X81534159Y-50966839D01*
X81447913Y-50851630D01*
X81447910Y-50851627D01*
X81332701Y-50765381D01*
X81332694Y-50765377D01*
X81266482Y-50740682D01*
X81210548Y-50698811D01*
X81186131Y-50633347D01*
X81200983Y-50565074D01*
X81250388Y-50515668D01*
X81309815Y-50500500D01*
X84934108Y-50500500D01*
X84997294Y-50500500D01*
X85002702Y-50500617D01*
X85386771Y-50517386D01*
X85397506Y-50518326D01*
X85775971Y-50568152D01*
X85786597Y-50570025D01*
X86159284Y-50652648D01*
X86169710Y-50655442D01*
X86533765Y-50770227D01*
X86543911Y-50773920D01*
X86896578Y-50920000D01*
X86906369Y-50924566D01*
X86987585Y-50966844D01*
X87244942Y-51100816D01*
X87254309Y-51106223D01*
X87340768Y-51161304D01*
X87576244Y-51311318D01*
X87585105Y-51317523D01*
X87887930Y-51549889D01*
X87896217Y-51556843D01*
X88177635Y-51814715D01*
X88185284Y-51822364D01*
X88443156Y-52103782D01*
X88450110Y-52112069D01*
X88682476Y-52414894D01*
X88688681Y-52423755D01*
X88893775Y-52745689D01*
X88899183Y-52755057D01*
X89075430Y-53093623D01*
X89080002Y-53103427D01*
X89226075Y-53456078D01*
X89229775Y-53466244D01*
X89344554Y-53830278D01*
X89347354Y-53840727D01*
X89429971Y-54213389D01*
X89431849Y-54224042D01*
X89481671Y-54602473D01*
X89482614Y-54613249D01*
X89499382Y-54997297D01*
X89499500Y-55002706D01*
X89499500Y-84997293D01*
X89499382Y-85002702D01*
X89482614Y-85386750D01*
X89481671Y-85397526D01*
X89431849Y-85775957D01*
X89429971Y-85786610D01*
X89347354Y-86159272D01*
X89344554Y-86169721D01*
X89229775Y-86533755D01*
X89226075Y-86543921D01*
X89080002Y-86896572D01*
X89075430Y-86906376D01*
X88899183Y-87244942D01*
X88893775Y-87254310D01*
X88688681Y-87576244D01*
X88682476Y-87585105D01*
X88450110Y-87887930D01*
X88443156Y-87896217D01*
X88185284Y-88177635D01*
X88177635Y-88185284D01*
X87896217Y-88443156D01*
X87887930Y-88450110D01*
X87585105Y-88682476D01*
X87576244Y-88688681D01*
X87254310Y-88893775D01*
X87244942Y-88899183D01*
X86906376Y-89075430D01*
X86896572Y-89080002D01*
X86543921Y-89226075D01*
X86533755Y-89229775D01*
X86169721Y-89344554D01*
X86159272Y-89347354D01*
X85786610Y-89429971D01*
X85775957Y-89431849D01*
X85397526Y-89481671D01*
X85386750Y-89482614D01*
X85002703Y-89499382D01*
X84997294Y-89499500D01*
X55002706Y-89499500D01*
X54997297Y-89499382D01*
X54613249Y-89482614D01*
X54602473Y-89481671D01*
X54224042Y-89431849D01*
X54213389Y-89429971D01*
X53840727Y-89347354D01*
X53830278Y-89344554D01*
X53466244Y-89229775D01*
X53456078Y-89226075D01*
X53103427Y-89080002D01*
X53093623Y-89075430D01*
X52755057Y-88899183D01*
X52745689Y-88893775D01*
X52423755Y-88688681D01*
X52414894Y-88682476D01*
X52112069Y-88450110D01*
X52103782Y-88443156D01*
X51822364Y-88185284D01*
X51814715Y-88177635D01*
X51556843Y-87896217D01*
X51549889Y-87887930D01*
X51317523Y-87585105D01*
X51311318Y-87576244D01*
X51106224Y-87254310D01*
X51100816Y-87244942D01*
X50924569Y-86906376D01*
X50919997Y-86896572D01*
X50773920Y-86543911D01*
X50770224Y-86533755D01*
X50754462Y-86483763D01*
X50655442Y-86169710D01*
X50652648Y-86159284D01*
X50570025Y-85786597D01*
X50568152Y-85775971D01*
X50518326Y-85397506D01*
X50517386Y-85386771D01*
X50500618Y-85002702D01*
X50500500Y-84997293D01*
X50500500Y-84544878D01*
X61363308Y-84544878D01*
X61363308Y-87640613D01*
X61363309Y-87640619D01*
X61369716Y-87700226D01*
X61420010Y-87835071D01*
X61420014Y-87835078D01*
X61506260Y-87950287D01*
X61506263Y-87950290D01*
X61621472Y-88036536D01*
X61621479Y-88036540D01*
X61756325Y-88086834D01*
X61756324Y-88086834D01*
X61763252Y-88087578D01*
X61815935Y-88093243D01*
X64911680Y-88093242D01*
X64971291Y-88086834D01*
X65106139Y-88036539D01*
X65221354Y-87950289D01*
X65307604Y-87835074D01*
X65357899Y-87700226D01*
X65364308Y-87640616D01*
X65364307Y-85961648D01*
X66443808Y-85961648D01*
X66443808Y-86223837D01*
X66478028Y-86483752D01*
X66478030Y-86483763D01*
X66545883Y-86736998D01*
X66646212Y-86979214D01*
X66646217Y-86979225D01*
X66777296Y-87206259D01*
X66777302Y-87206267D01*
X66863888Y-87319108D01*
X67758575Y-86424420D01*
X67770305Y-86452738D01*
X67853478Y-86577215D01*
X67959336Y-86683073D01*
X68083813Y-86766246D01*
X68112128Y-86777974D01*
X67217441Y-87672660D01*
X67217441Y-87672661D01*
X67330283Y-87759248D01*
X67330291Y-87759254D01*
X67557325Y-87890333D01*
X67557336Y-87890338D01*
X67799552Y-87990667D01*
X68052787Y-88058520D01*
X68052798Y-88058522D01*
X68312713Y-88092742D01*
X68312728Y-88092743D01*
X68574888Y-88092743D01*
X68574902Y-88092742D01*
X68834817Y-88058522D01*
X68834828Y-88058520D01*
X69088063Y-87990667D01*
X69330279Y-87890338D01*
X69330290Y-87890333D01*
X69557324Y-87759254D01*
X69557342Y-87759242D01*
X69670173Y-87672662D01*
X69670173Y-87672660D01*
X68775487Y-86777974D01*
X68803803Y-86766246D01*
X68928280Y-86683073D01*
X69034138Y-86577215D01*
X69117311Y-86452738D01*
X69129039Y-86424422D01*
X70023725Y-87319108D01*
X70023727Y-87319108D01*
X70110307Y-87206277D01*
X70110319Y-87206259D01*
X70241398Y-86979225D01*
X70241403Y-86979214D01*
X70341732Y-86736998D01*
X70409585Y-86483763D01*
X70409587Y-86483752D01*
X70443807Y-86223837D01*
X70443808Y-86223823D01*
X70443808Y-85961662D01*
X70443807Y-85961648D01*
X70409587Y-85701733D01*
X70409585Y-85701722D01*
X70341732Y-85448487D01*
X70241403Y-85206271D01*
X70241398Y-85206260D01*
X70110319Y-84979226D01*
X70110307Y-84979208D01*
X70088004Y-84950143D01*
X70088001Y-84950140D01*
X70033191Y-84878711D01*
X83149500Y-84878711D01*
X83149500Y-85121288D01*
X83181161Y-85361785D01*
X83243947Y-85596104D01*
X83336773Y-85820205D01*
X83336776Y-85820212D01*
X83458064Y-86030289D01*
X83458066Y-86030292D01*
X83458067Y-86030293D01*
X83605733Y-86222736D01*
X83605739Y-86222743D01*
X83777256Y-86394260D01*
X83777262Y-86394265D01*
X83969711Y-86541936D01*
X84179788Y-86663224D01*
X84403900Y-86756054D01*
X84638211Y-86818838D01*
X84818586Y-86842584D01*
X84878711Y-86850500D01*
X84878712Y-86850500D01*
X85121289Y-86850500D01*
X85169388Y-86844167D01*
X85361789Y-86818838D01*
X85596100Y-86756054D01*
X85820212Y-86663224D01*
X86030289Y-86541936D01*
X86222738Y-86394265D01*
X86394265Y-86222738D01*
X86541936Y-86030289D01*
X86663224Y-85820212D01*
X86756054Y-85596100D01*
X86818838Y-85361789D01*
X86850500Y-85121288D01*
X86850500Y-84878712D01*
X86818838Y-84638211D01*
X86756054Y-84403900D01*
X86663224Y-84179788D01*
X86541936Y-83969711D01*
X86394265Y-83777262D01*
X86394260Y-83777256D01*
X86222743Y-83605739D01*
X86222736Y-83605733D01*
X86030293Y-83458067D01*
X86030292Y-83458066D01*
X86030289Y-83458064D01*
X85820212Y-83336776D01*
X85820205Y-83336773D01*
X85596104Y-83243947D01*
X85361785Y-83181161D01*
X85121289Y-83149500D01*
X85121288Y-83149500D01*
X84878712Y-83149500D01*
X84878711Y-83149500D01*
X84638214Y-83181161D01*
X84403895Y-83243947D01*
X84179794Y-83336773D01*
X84179785Y-83336777D01*
X83969706Y-83458067D01*
X83777263Y-83605733D01*
X83777256Y-83605739D01*
X83605739Y-83777256D01*
X83605733Y-83777263D01*
X83458067Y-83969706D01*
X83336777Y-84179785D01*
X83336773Y-84179794D01*
X83243947Y-84403895D01*
X83181161Y-84638214D01*
X83149500Y-84878711D01*
X70033191Y-84878711D01*
X70023726Y-84866376D01*
X70023725Y-84866376D01*
X69129039Y-85761063D01*
X69117311Y-85732748D01*
X69034138Y-85608271D01*
X68928280Y-85502413D01*
X68803803Y-85419240D01*
X68775485Y-85407510D01*
X69670173Y-84512823D01*
X69557332Y-84426237D01*
X69557324Y-84426231D01*
X69330290Y-84295152D01*
X69330279Y-84295147D01*
X69088063Y-84194818D01*
X68834828Y-84126965D01*
X68834817Y-84126963D01*
X68574902Y-84092743D01*
X68312713Y-84092743D01*
X68052798Y-84126963D01*
X68052787Y-84126965D01*
X67799552Y-84194818D01*
X67557336Y-84295147D01*
X67557325Y-84295152D01*
X67330279Y-84426239D01*
X67217441Y-84512822D01*
X67217441Y-84512823D01*
X68112129Y-85407511D01*
X68083813Y-85419240D01*
X67959336Y-85502413D01*
X67853478Y-85608271D01*
X67770305Y-85732748D01*
X67758576Y-85761064D01*
X66863888Y-84866376D01*
X66863887Y-84866376D01*
X66777304Y-84979214D01*
X66646217Y-85206260D01*
X66646212Y-85206271D01*
X66545883Y-85448487D01*
X66478030Y-85701722D01*
X66478028Y-85701733D01*
X66443808Y-85961648D01*
X65364307Y-85961648D01*
X65364307Y-84544871D01*
X65357899Y-84485260D01*
X65307604Y-84350412D01*
X65307603Y-84350411D01*
X65307601Y-84350407D01*
X65221355Y-84235198D01*
X65221352Y-84235195D01*
X65106143Y-84148949D01*
X65106136Y-84148945D01*
X64971290Y-84098651D01*
X64971291Y-84098651D01*
X64911691Y-84092244D01*
X64911689Y-84092243D01*
X64911681Y-84092243D01*
X64911672Y-84092243D01*
X61815937Y-84092243D01*
X61815931Y-84092244D01*
X61756324Y-84098651D01*
X61621479Y-84148945D01*
X61621472Y-84148949D01*
X61506263Y-84235195D01*
X61506260Y-84235198D01*
X61420014Y-84350407D01*
X61420010Y-84350414D01*
X61369716Y-84485260D01*
X61363309Y-84544859D01*
X61363309Y-84544866D01*
X61363308Y-84544878D01*
X50500500Y-84544878D01*
X50500500Y-70573920D01*
X56749499Y-70573920D01*
X56778340Y-70718907D01*
X56778343Y-70718917D01*
X56834914Y-70855492D01*
X56867812Y-70904727D01*
X56867813Y-70904730D01*
X56917046Y-70978414D01*
X56917052Y-70978421D01*
X57513167Y-71574534D01*
X57687048Y-71748415D01*
X57687049Y-71748416D01*
X57791584Y-71852951D01*
X57791585Y-71852952D01*
X57914498Y-71935080D01*
X57914511Y-71935087D01*
X58051082Y-71991656D01*
X58051087Y-71991658D01*
X58051091Y-71991658D01*
X58051092Y-71991659D01*
X58196079Y-72020500D01*
X58196082Y-72020500D01*
X65664582Y-72020500D01*
X65731621Y-72040185D01*
X65764900Y-72071615D01*
X65798028Y-72117212D01*
X65798032Y-72117217D01*
X65942786Y-72261971D01*
X66097749Y-72374556D01*
X66108390Y-72382287D01*
X66180424Y-72418990D01*
X66201629Y-72429795D01*
X66252425Y-72477770D01*
X66269220Y-72545591D01*
X66246682Y-72611726D01*
X66201629Y-72650765D01*
X66108650Y-72698140D01*
X65943105Y-72818417D01*
X65943104Y-72818417D01*
X65798417Y-72963104D01*
X65798417Y-72963105D01*
X65678140Y-73128650D01*
X65585244Y-73310970D01*
X65522009Y-73505586D01*
X65513391Y-73560000D01*
X66874314Y-73560000D01*
X66869920Y-73564394D01*
X66817259Y-73655606D01*
X66790000Y-73757339D01*
X66790000Y-73862661D01*
X66817259Y-73964394D01*
X66869920Y-74055606D01*
X66874314Y-74060000D01*
X65513391Y-74060000D01*
X65522009Y-74114413D01*
X65585244Y-74309029D01*
X65678140Y-74491349D01*
X65798417Y-74656894D01*
X65798417Y-74656895D01*
X65943104Y-74801582D01*
X66108650Y-74921859D01*
X66290968Y-75014755D01*
X66485582Y-75077990D01*
X66687683Y-75110000D01*
X66940000Y-75110000D01*
X66940000Y-74125686D01*
X66944394Y-74130080D01*
X67035606Y-74182741D01*
X67137339Y-74210000D01*
X67242661Y-74210000D01*
X67344394Y-74182741D01*
X67435606Y-74130080D01*
X67440000Y-74125686D01*
X67440000Y-75110000D01*
X67692317Y-75110000D01*
X67894417Y-75077990D01*
X68089031Y-75014755D01*
X68271349Y-74921859D01*
X68436894Y-74801582D01*
X68436895Y-74801582D01*
X68581582Y-74656895D01*
X68581582Y-74656894D01*
X68701859Y-74491349D01*
X68794755Y-74309029D01*
X68857990Y-74114413D01*
X68866609Y-74060000D01*
X67505686Y-74060000D01*
X67510080Y-74055606D01*
X67562741Y-73964394D01*
X67590000Y-73862661D01*
X67590000Y-73757339D01*
X67562741Y-73655606D01*
X67510080Y-73564394D01*
X67505686Y-73560000D01*
X68866609Y-73560000D01*
X68857990Y-73505586D01*
X68794755Y-73310970D01*
X68701859Y-73128650D01*
X68581582Y-72963105D01*
X68581582Y-72963104D01*
X68436895Y-72818417D01*
X68271349Y-72698140D01*
X68178370Y-72650765D01*
X68127574Y-72602790D01*
X68110779Y-72534969D01*
X68133316Y-72468835D01*
X68178370Y-72429795D01*
X68178920Y-72429515D01*
X68271610Y-72382287D01*
X68292770Y-72366913D01*
X68437213Y-72261971D01*
X68437215Y-72261968D01*
X68437219Y-72261966D01*
X68581966Y-72117219D01*
X68581968Y-72117215D01*
X68581971Y-72117213D01*
X68652236Y-72020500D01*
X68702287Y-71951610D01*
X68795220Y-71769219D01*
X68858477Y-71574534D01*
X68890500Y-71372352D01*
X68890500Y-71167648D01*
X68858477Y-70965466D01*
X68795220Y-70770781D01*
X68795218Y-70770778D01*
X68795218Y-70770776D01*
X68761503Y-70704607D01*
X68702287Y-70588390D01*
X68652236Y-70519500D01*
X68581971Y-70422786D01*
X68437213Y-70278028D01*
X68271614Y-70157715D01*
X68265006Y-70154348D01*
X68178917Y-70110483D01*
X68128123Y-70062511D01*
X68111328Y-69994690D01*
X68133865Y-69928555D01*
X68178917Y-69889516D01*
X68271610Y-69842287D01*
X68292770Y-69826913D01*
X68437213Y-69721971D01*
X68437215Y-69721968D01*
X68437219Y-69721966D01*
X68581966Y-69577219D01*
X68581968Y-69577215D01*
X68581971Y-69577213D01*
X68634732Y-69504590D01*
X68702287Y-69411610D01*
X68795220Y-69229219D01*
X68858477Y-69034534D01*
X68890500Y-68832352D01*
X68890500Y-68627648D01*
X68873199Y-68518414D01*
X68858477Y-68425465D01*
X68795218Y-68230776D01*
X68731787Y-68106287D01*
X68702287Y-68048390D01*
X68694556Y-68037749D01*
X68581971Y-67882786D01*
X68437219Y-67738034D01*
X68437211Y-67738028D01*
X68343547Y-67669978D01*
X68300882Y-67614649D01*
X68294903Y-67545036D01*
X68327508Y-67483240D01*
X68377426Y-67451955D01*
X68459334Y-67424814D01*
X68608656Y-67332712D01*
X68732712Y-67208656D01*
X68824814Y-67059334D01*
X68879999Y-66892797D01*
X68890500Y-66790009D01*
X68890499Y-66087648D01*
X73109500Y-66087648D01*
X73109500Y-66292351D01*
X73141522Y-66494534D01*
X73204781Y-66689223D01*
X73256135Y-66790009D01*
X73281853Y-66840484D01*
X73297715Y-66871613D01*
X73418028Y-67037213D01*
X73562786Y-67181971D01*
X73714477Y-67292179D01*
X73728390Y-67302287D01*
X73792428Y-67334916D01*
X73821080Y-67349515D01*
X73871876Y-67397490D01*
X73888671Y-67465311D01*
X73866134Y-67531446D01*
X73821080Y-67570485D01*
X73728386Y-67617715D01*
X73562786Y-67738028D01*
X73418028Y-67882786D01*
X73297715Y-68048386D01*
X73204781Y-68230776D01*
X73141522Y-68425465D01*
X73109500Y-68627648D01*
X73109500Y-68832351D01*
X73141522Y-69034534D01*
X73204781Y-69229223D01*
X73297715Y-69411613D01*
X73418028Y-69577213D01*
X73562786Y-69721971D01*
X73717749Y-69834556D01*
X73728390Y-69842287D01*
X73819840Y-69888883D01*
X73821080Y-69889515D01*
X73871876Y-69937490D01*
X73888671Y-70005311D01*
X73866134Y-70071446D01*
X73821080Y-70110485D01*
X73728386Y-70157715D01*
X73562786Y-70278028D01*
X73418028Y-70422786D01*
X73297715Y-70588386D01*
X73204781Y-70770776D01*
X73141522Y-70965465D01*
X73109500Y-71167648D01*
X73109500Y-71372351D01*
X73141522Y-71574534D01*
X73204781Y-71769223D01*
X73297715Y-71951613D01*
X73418028Y-72117213D01*
X73562786Y-72261971D01*
X73717749Y-72374556D01*
X73728390Y-72382287D01*
X73819840Y-72428883D01*
X73821080Y-72429515D01*
X73871876Y-72477490D01*
X73888671Y-72545311D01*
X73866134Y-72611446D01*
X73821080Y-72650485D01*
X73728386Y-72697715D01*
X73562786Y-72818028D01*
X73418028Y-72962786D01*
X73297715Y-73128386D01*
X73204781Y-73310776D01*
X73141522Y-73505465D01*
X73109500Y-73707648D01*
X73109500Y-73912351D01*
X73141522Y-74114534D01*
X73204781Y-74309223D01*
X73297715Y-74491613D01*
X73418028Y-74657213D01*
X73562786Y-74801971D01*
X73717749Y-74914556D01*
X73728390Y-74922287D01*
X73844607Y-74981503D01*
X73910776Y-75015218D01*
X73910778Y-75015218D01*
X73910781Y-75015220D01*
X74015137Y-75049127D01*
X74105465Y-75078477D01*
X74206557Y-75094488D01*
X74307648Y-75110500D01*
X74307649Y-75110500D01*
X75312351Y-75110500D01*
X75312352Y-75110500D01*
X75514534Y-75078477D01*
X75709219Y-75015220D01*
X75891610Y-74922287D01*
X75984590Y-74854732D01*
X76057213Y-74801971D01*
X76057215Y-74801968D01*
X76057219Y-74801966D01*
X76201966Y-74657219D01*
X76201968Y-74657215D01*
X76201971Y-74657213D01*
X76254732Y-74584590D01*
X76322287Y-74491610D01*
X76415220Y-74309219D01*
X76478477Y-74114534D01*
X76510500Y-73912352D01*
X76510500Y-73707648D01*
X76502257Y-73655606D01*
X76478477Y-73505465D01*
X76415218Y-73310776D01*
X76322419Y-73128650D01*
X76322287Y-73128390D01*
X76314556Y-73117749D01*
X76201971Y-72962786D01*
X76057213Y-72818028D01*
X75891614Y-72697715D01*
X75885006Y-72694348D01*
X75798917Y-72650483D01*
X75748123Y-72602511D01*
X75731328Y-72534690D01*
X75753865Y-72468555D01*
X75798917Y-72429516D01*
X75891610Y-72382287D01*
X75912770Y-72366913D01*
X76057213Y-72261971D01*
X76057215Y-72261968D01*
X76057219Y-72261966D01*
X76201966Y-72117219D01*
X76201968Y-72117215D01*
X76201971Y-72117213D01*
X76272236Y-72020500D01*
X76322287Y-71951610D01*
X76415220Y-71769219D01*
X76478477Y-71574534D01*
X76510500Y-71372352D01*
X76510500Y-71167648D01*
X76478477Y-70965466D01*
X76415220Y-70770781D01*
X76415218Y-70770778D01*
X76415218Y-70770776D01*
X76381503Y-70704607D01*
X76322287Y-70588390D01*
X76272236Y-70519500D01*
X76201971Y-70422786D01*
X76057213Y-70278028D01*
X75891614Y-70157715D01*
X75885006Y-70154348D01*
X75798917Y-70110483D01*
X75748123Y-70062511D01*
X75731328Y-69994690D01*
X75753865Y-69928555D01*
X75798917Y-69889516D01*
X75891610Y-69842287D01*
X75912770Y-69826913D01*
X76057213Y-69721971D01*
X76057215Y-69721968D01*
X76057219Y-69721966D01*
X76201966Y-69577219D01*
X76201968Y-69577215D01*
X76201971Y-69577213D01*
X76254732Y-69504590D01*
X76322287Y-69411610D01*
X76415220Y-69229219D01*
X76478477Y-69034534D01*
X76510500Y-68832352D01*
X76510500Y-68627648D01*
X76493199Y-68518414D01*
X76478477Y-68425465D01*
X76415218Y-68230776D01*
X76351787Y-68106287D01*
X76322287Y-68048390D01*
X76314556Y-68037749D01*
X76201971Y-67882786D01*
X76057213Y-67738028D01*
X75891614Y-67617715D01*
X75885006Y-67614348D01*
X75798917Y-67570483D01*
X75748123Y-67522511D01*
X75731328Y-67454690D01*
X75753865Y-67388555D01*
X75798917Y-67349516D01*
X75891610Y-67302287D01*
X75924568Y-67278342D01*
X76057213Y-67181971D01*
X76057215Y-67181968D01*
X76057219Y-67181966D01*
X76201966Y-67037219D01*
X76201968Y-67037215D01*
X76201971Y-67037213D01*
X76306892Y-66892799D01*
X76322287Y-66871610D01*
X76415220Y-66689219D01*
X76478477Y-66494534D01*
X76510500Y-66292352D01*
X76510500Y-66087648D01*
X76493199Y-65978414D01*
X76478477Y-65885465D01*
X76415218Y-65690776D01*
X76363865Y-65589991D01*
X76322287Y-65508390D01*
X76306892Y-65487200D01*
X76201971Y-65342786D01*
X76057213Y-65198028D01*
X75891613Y-65077715D01*
X75891612Y-65077714D01*
X75891610Y-65077713D01*
X75827339Y-65044965D01*
X75709223Y-64984781D01*
X75514534Y-64921522D01*
X75339995Y-64893878D01*
X75312352Y-64889500D01*
X74307648Y-64889500D01*
X74283329Y-64893351D01*
X74105465Y-64921522D01*
X73910776Y-64984781D01*
X73728386Y-65077715D01*
X73562786Y-65198028D01*
X73418028Y-65342786D01*
X73297715Y-65508386D01*
X73204781Y-65690776D01*
X73141522Y-65885465D01*
X73109500Y-66087648D01*
X68890499Y-66087648D01*
X68890499Y-65589992D01*
X68888077Y-65566286D01*
X68879999Y-65487203D01*
X68879998Y-65487200D01*
X68824814Y-65320666D01*
X68732712Y-65171344D01*
X68608656Y-65047288D01*
X68459334Y-64955186D01*
X68292797Y-64900001D01*
X68292795Y-64900000D01*
X68190010Y-64889500D01*
X66189998Y-64889500D01*
X66189981Y-64889501D01*
X66087203Y-64900000D01*
X66087200Y-64900001D01*
X65920668Y-64955185D01*
X65920663Y-64955187D01*
X65771342Y-65047289D01*
X65647289Y-65171342D01*
X65555187Y-65320663D01*
X65555186Y-65320666D01*
X65500001Y-65487203D01*
X65500001Y-65487204D01*
X65500000Y-65487204D01*
X65489500Y-65589983D01*
X65489500Y-66790001D01*
X65489501Y-66790018D01*
X65500000Y-66892796D01*
X65500001Y-66892799D01*
X65525547Y-66969890D01*
X65555186Y-67059334D01*
X65647288Y-67208656D01*
X65771344Y-67332712D01*
X65920666Y-67424814D01*
X66002570Y-67451954D01*
X66060015Y-67491727D01*
X66086838Y-67556243D01*
X66074523Y-67625018D01*
X66036451Y-67669978D01*
X65942787Y-67738028D01*
X65942782Y-67738032D01*
X65798028Y-67882786D01*
X65677715Y-68048386D01*
X65584781Y-68230776D01*
X65521522Y-68425465D01*
X65489500Y-68627648D01*
X65489500Y-68832351D01*
X65521522Y-69034534D01*
X65584781Y-69229223D01*
X65677715Y-69411613D01*
X65798028Y-69577213D01*
X65942786Y-69721971D01*
X66097749Y-69834556D01*
X66108390Y-69842287D01*
X66199840Y-69888883D01*
X66201080Y-69889515D01*
X66251876Y-69937490D01*
X66268671Y-70005311D01*
X66246134Y-70071446D01*
X66201080Y-70110485D01*
X66108386Y-70157715D01*
X65942786Y-70278028D01*
X65798032Y-70422782D01*
X65798028Y-70422787D01*
X65764900Y-70468385D01*
X65709571Y-70511051D01*
X65664582Y-70519500D01*
X58632229Y-70519500D01*
X58565190Y-70499815D01*
X58544548Y-70483181D01*
X58286819Y-70225451D01*
X58253334Y-70164128D01*
X58250500Y-70137770D01*
X58250500Y-67926079D01*
X58221659Y-67781092D01*
X58221658Y-67781091D01*
X58221658Y-67781087D01*
X58203824Y-67738032D01*
X58165087Y-67644511D01*
X58165080Y-67644498D01*
X58082951Y-67521584D01*
X58082948Y-67521580D01*
X57978419Y-67417051D01*
X57978415Y-67417048D01*
X57855501Y-67334919D01*
X57855488Y-67334912D01*
X57718917Y-67278343D01*
X57718907Y-67278340D01*
X57573920Y-67249500D01*
X57573918Y-67249500D01*
X57426082Y-67249500D01*
X57426080Y-67249500D01*
X57281092Y-67278340D01*
X57281082Y-67278343D01*
X57144511Y-67334912D01*
X57144498Y-67334919D01*
X57021584Y-67417048D01*
X57021580Y-67417051D01*
X56917051Y-67521580D01*
X56917048Y-67521584D01*
X56834919Y-67644498D01*
X56834912Y-67644511D01*
X56778343Y-67781082D01*
X56778340Y-67781092D01*
X56749500Y-67926079D01*
X56749500Y-67926082D01*
X56749500Y-70573918D01*
X56749500Y-70573920D01*
X56749499Y-70573920D01*
X50500500Y-70573920D01*
X50500500Y-68538226D01*
X50520185Y-68471187D01*
X50572989Y-68425432D01*
X50642147Y-68415488D01*
X50705703Y-68444513D01*
X50742431Y-68499908D01*
X50748444Y-68518414D01*
X50844951Y-68707820D01*
X50969890Y-68879786D01*
X51120213Y-69030109D01*
X51292179Y-69155048D01*
X51292181Y-69155049D01*
X51292184Y-69155051D01*
X51481588Y-69251557D01*
X51683757Y-69317246D01*
X51893713Y-69350500D01*
X51893714Y-69350500D01*
X52106286Y-69350500D01*
X52106287Y-69350500D01*
X52316243Y-69317246D01*
X52518412Y-69251557D01*
X52707816Y-69155051D01*
X52873695Y-69034534D01*
X52879786Y-69030109D01*
X52879788Y-69030106D01*
X52879792Y-69030104D01*
X53030104Y-68879792D01*
X53030106Y-68879788D01*
X53030109Y-68879786D01*
X53155048Y-68707820D01*
X53155047Y-68707820D01*
X53155051Y-68707816D01*
X53251557Y-68518412D01*
X53317246Y-68316243D01*
X53350500Y-68106287D01*
X53350500Y-67893713D01*
X53317246Y-67683757D01*
X53251557Y-67481588D01*
X53155051Y-67292184D01*
X53155049Y-67292181D01*
X53155048Y-67292179D01*
X53030109Y-67120213D01*
X52879786Y-66969890D01*
X52707820Y-66844951D01*
X52707115Y-66844591D01*
X52699054Y-66840485D01*
X52648259Y-66792512D01*
X52631463Y-66724692D01*
X52653999Y-66658556D01*
X52699054Y-66619515D01*
X52707816Y-66615051D01*
X52873695Y-66494534D01*
X52879786Y-66490109D01*
X52879788Y-66490106D01*
X52879792Y-66490104D01*
X53030104Y-66339792D01*
X53030106Y-66339788D01*
X53030109Y-66339786D01*
X53155048Y-66167820D01*
X53155047Y-66167820D01*
X53155051Y-66167816D01*
X53251557Y-65978412D01*
X53317246Y-65776243D01*
X53350500Y-65566287D01*
X53350500Y-65353713D01*
X53317246Y-65143757D01*
X53251557Y-64941588D01*
X53155051Y-64752184D01*
X53155049Y-64752181D01*
X53155048Y-64752179D01*
X53030109Y-64580213D01*
X52916181Y-64466285D01*
X52882696Y-64404962D01*
X52887680Y-64335270D01*
X52929552Y-64279337D01*
X52960529Y-64262422D01*
X53092086Y-64213354D01*
X53092093Y-64213350D01*
X53207187Y-64127190D01*
X53207190Y-64127187D01*
X53293350Y-64012093D01*
X53293354Y-64012086D01*
X53343596Y-63877379D01*
X53343598Y-63877372D01*
X53349999Y-63817844D01*
X53350000Y-63817827D01*
X53350000Y-63170000D01*
X52433012Y-63170000D01*
X52465925Y-63112993D01*
X52500000Y-62985826D01*
X52500000Y-62854174D01*
X52465925Y-62727007D01*
X52433012Y-62670000D01*
X53350000Y-62670000D01*
X53350000Y-62022172D01*
X53349999Y-62022155D01*
X53343598Y-61962627D01*
X53343596Y-61962620D01*
X53293354Y-61827913D01*
X53293350Y-61827906D01*
X53207190Y-61712812D01*
X53207187Y-61712809D01*
X53092093Y-61626649D01*
X53092086Y-61626645D01*
X52957379Y-61576403D01*
X52957372Y-61576401D01*
X52897844Y-61570000D01*
X52250000Y-61570000D01*
X52250000Y-62486988D01*
X52192993Y-62454075D01*
X52065826Y-62420000D01*
X51934174Y-62420000D01*
X51807007Y-62454075D01*
X51750000Y-62486988D01*
X51750000Y-61570000D01*
X51102155Y-61570000D01*
X51042627Y-61576401D01*
X51042620Y-61576403D01*
X50907913Y-61626645D01*
X50907906Y-61626649D01*
X50792812Y-61712809D01*
X50723766Y-61805042D01*
X50667832Y-61846912D01*
X50598140Y-61851896D01*
X50536817Y-61818410D01*
X50503333Y-61757086D01*
X50500500Y-61730730D01*
X50500500Y-59869225D01*
X84122757Y-59869225D01*
X84122757Y-62964960D01*
X84122758Y-62964966D01*
X84129165Y-63024573D01*
X84179459Y-63159418D01*
X84179463Y-63159425D01*
X84265709Y-63274634D01*
X84265712Y-63274637D01*
X84380921Y-63360883D01*
X84380928Y-63360887D01*
X84515774Y-63411181D01*
X84515773Y-63411181D01*
X84522701Y-63411925D01*
X84575384Y-63417590D01*
X87671129Y-63417589D01*
X87730740Y-63411181D01*
X87865588Y-63360886D01*
X87980803Y-63274636D01*
X88067053Y-63159421D01*
X88117348Y-63024573D01*
X88123757Y-62964963D01*
X88123756Y-59869218D01*
X88117348Y-59809607D01*
X88067053Y-59674759D01*
X88067052Y-59674758D01*
X88067050Y-59674754D01*
X87980804Y-59559545D01*
X87980801Y-59559542D01*
X87865592Y-59473296D01*
X87865585Y-59473292D01*
X87730739Y-59422998D01*
X87730740Y-59422998D01*
X87671140Y-59416591D01*
X87671138Y-59416590D01*
X87671130Y-59416590D01*
X87671121Y-59416590D01*
X84575386Y-59416590D01*
X84575380Y-59416591D01*
X84515773Y-59422998D01*
X84380928Y-59473292D01*
X84380921Y-59473296D01*
X84265712Y-59559542D01*
X84265709Y-59559545D01*
X84179463Y-59674754D01*
X84179459Y-59674761D01*
X84129165Y-59809607D01*
X84122758Y-59869206D01*
X84122758Y-59869213D01*
X84122757Y-59869225D01*
X50500500Y-59869225D01*
X50500500Y-55002706D01*
X50500618Y-54997297D01*
X50505796Y-54878711D01*
X53149500Y-54878711D01*
X53149500Y-55121288D01*
X53181161Y-55361785D01*
X53243947Y-55596104D01*
X53304518Y-55742335D01*
X53336776Y-55820212D01*
X53458064Y-56030289D01*
X53458066Y-56030292D01*
X53458067Y-56030293D01*
X53605733Y-56222736D01*
X53605739Y-56222743D01*
X53777256Y-56394260D01*
X53777262Y-56394265D01*
X53969711Y-56541936D01*
X54179788Y-56663224D01*
X54403900Y-56756054D01*
X54638211Y-56818838D01*
X54818586Y-56842584D01*
X54878711Y-56850500D01*
X54878712Y-56850500D01*
X55121289Y-56850500D01*
X55169388Y-56844167D01*
X55361789Y-56818838D01*
X55596100Y-56756054D01*
X55820212Y-56663224D01*
X56030289Y-56541936D01*
X56222738Y-56394265D01*
X56394265Y-56222738D01*
X56407112Y-56205995D01*
X84123257Y-56205995D01*
X84123257Y-56468184D01*
X84157477Y-56728099D01*
X84157479Y-56728110D01*
X84225332Y-56981345D01*
X84325661Y-57223561D01*
X84325666Y-57223572D01*
X84456745Y-57450606D01*
X84456751Y-57450614D01*
X84543337Y-57563455D01*
X85438024Y-56668767D01*
X85449754Y-56697085D01*
X85532927Y-56821562D01*
X85638785Y-56927420D01*
X85763262Y-57010593D01*
X85791577Y-57022321D01*
X84896890Y-57917007D01*
X84896890Y-57917008D01*
X85009732Y-58003595D01*
X85009740Y-58003601D01*
X85236774Y-58134680D01*
X85236785Y-58134685D01*
X85479001Y-58235014D01*
X85732236Y-58302867D01*
X85732247Y-58302869D01*
X85992162Y-58337089D01*
X85992177Y-58337090D01*
X86254337Y-58337090D01*
X86254351Y-58337089D01*
X86514266Y-58302869D01*
X86514277Y-58302867D01*
X86767512Y-58235014D01*
X87009728Y-58134685D01*
X87009739Y-58134680D01*
X87236773Y-58003601D01*
X87236791Y-58003589D01*
X87349622Y-57917009D01*
X87349622Y-57917007D01*
X86454936Y-57022321D01*
X86483252Y-57010593D01*
X86607729Y-56927420D01*
X86713587Y-56821562D01*
X86796760Y-56697085D01*
X86808488Y-56668769D01*
X87703174Y-57563455D01*
X87703176Y-57563455D01*
X87789756Y-57450624D01*
X87789768Y-57450606D01*
X87920847Y-57223572D01*
X87920852Y-57223561D01*
X88021181Y-56981345D01*
X88089034Y-56728110D01*
X88089036Y-56728099D01*
X88123256Y-56468184D01*
X88123257Y-56468170D01*
X88123257Y-56206009D01*
X88123256Y-56205995D01*
X88089036Y-55946080D01*
X88089034Y-55946069D01*
X88021181Y-55692834D01*
X87920852Y-55450618D01*
X87920847Y-55450607D01*
X87789768Y-55223573D01*
X87789762Y-55223565D01*
X87703175Y-55110723D01*
X87703174Y-55110723D01*
X86808488Y-56005409D01*
X86796760Y-55977095D01*
X86713587Y-55852618D01*
X86607729Y-55746760D01*
X86483252Y-55663587D01*
X86454934Y-55651857D01*
X87349622Y-54757170D01*
X87236781Y-54670584D01*
X87236773Y-54670578D01*
X87009739Y-54539499D01*
X87009728Y-54539494D01*
X86767512Y-54439165D01*
X86514277Y-54371312D01*
X86514266Y-54371310D01*
X86254351Y-54337090D01*
X85992162Y-54337090D01*
X85732247Y-54371310D01*
X85732236Y-54371312D01*
X85479001Y-54439165D01*
X85236785Y-54539494D01*
X85236774Y-54539499D01*
X85009728Y-54670586D01*
X84896890Y-54757169D01*
X84896890Y-54757170D01*
X85791578Y-55651858D01*
X85763262Y-55663587D01*
X85638785Y-55746760D01*
X85532927Y-55852618D01*
X85449754Y-55977095D01*
X85438025Y-56005411D01*
X84543337Y-55110723D01*
X84543336Y-55110723D01*
X84456753Y-55223561D01*
X84325666Y-55450607D01*
X84325661Y-55450618D01*
X84225332Y-55692834D01*
X84157479Y-55946069D01*
X84157477Y-55946080D01*
X84123257Y-56205995D01*
X56407112Y-56205995D01*
X56541936Y-56030289D01*
X56663224Y-55820212D01*
X56756054Y-55596100D01*
X56818838Y-55361789D01*
X56850500Y-55121288D01*
X56850500Y-54878712D01*
X56849253Y-54869243D01*
X56836517Y-54772498D01*
X56818838Y-54638211D01*
X56756054Y-54403900D01*
X56663224Y-54179788D01*
X56541936Y-53969711D01*
X56519398Y-53940339D01*
X56519398Y-53940338D01*
X56464585Y-53868905D01*
X59460000Y-53868905D01*
X59460000Y-54131094D01*
X59494220Y-54391009D01*
X59494222Y-54391020D01*
X59562075Y-54644255D01*
X59662404Y-54886471D01*
X59662409Y-54886482D01*
X59793488Y-55113516D01*
X59793494Y-55113524D01*
X59880080Y-55226365D01*
X60774767Y-54331677D01*
X60786497Y-54359995D01*
X60869670Y-54484472D01*
X60975528Y-54590330D01*
X61100005Y-54673503D01*
X61128320Y-54685231D01*
X60233633Y-55579917D01*
X60233633Y-55579918D01*
X60346475Y-55666505D01*
X60346483Y-55666511D01*
X60573517Y-55797590D01*
X60573528Y-55797595D01*
X60815744Y-55897924D01*
X61068979Y-55965777D01*
X61068990Y-55965779D01*
X61328905Y-55999999D01*
X61328920Y-56000000D01*
X61591080Y-56000000D01*
X61591094Y-55999999D01*
X61851009Y-55965779D01*
X61851020Y-55965777D01*
X62104255Y-55897924D01*
X62346471Y-55797595D01*
X62346482Y-55797590D01*
X62573516Y-55666511D01*
X62573534Y-55666499D01*
X62686365Y-55579919D01*
X62686365Y-55579917D01*
X61791679Y-54685231D01*
X61819995Y-54673503D01*
X61944472Y-54590330D01*
X62050330Y-54484472D01*
X62133503Y-54359995D01*
X62145231Y-54331679D01*
X63039917Y-55226365D01*
X63039919Y-55226365D01*
X63126499Y-55113534D01*
X63126511Y-55113516D01*
X63257590Y-54886482D01*
X63257595Y-54886471D01*
X63357924Y-54644255D01*
X63425777Y-54391020D01*
X63425779Y-54391009D01*
X63459999Y-54131094D01*
X63460000Y-54131080D01*
X63460000Y-53868919D01*
X63459999Y-53868905D01*
X63425779Y-53608990D01*
X63425777Y-53608979D01*
X63357924Y-53355744D01*
X63257595Y-53113528D01*
X63257590Y-53113517D01*
X63126511Y-52886483D01*
X63126505Y-52886475D01*
X63039918Y-52773633D01*
X63039917Y-52773633D01*
X62145231Y-53668320D01*
X62133503Y-53640005D01*
X62050330Y-53515528D01*
X61944472Y-53409670D01*
X61819995Y-53326497D01*
X61791677Y-53314767D01*
X62654310Y-52452135D01*
X64539500Y-52452135D01*
X64539500Y-55547870D01*
X64539501Y-55547876D01*
X64545908Y-55607483D01*
X64596202Y-55742328D01*
X64596206Y-55742335D01*
X64682452Y-55857544D01*
X64682455Y-55857547D01*
X64797664Y-55943793D01*
X64797671Y-55943797D01*
X64932517Y-55994091D01*
X64932516Y-55994091D01*
X64939444Y-55994835D01*
X64992127Y-56000500D01*
X68087872Y-56000499D01*
X68147483Y-55994091D01*
X68282331Y-55943796D01*
X68397546Y-55857546D01*
X68483796Y-55742331D01*
X68534091Y-55607483D01*
X68540500Y-55547873D01*
X68540499Y-54000000D01*
X68540499Y-52452129D01*
X68540498Y-52452123D01*
X68540497Y-52452116D01*
X68534091Y-52392517D01*
X68483796Y-52257669D01*
X68483795Y-52257668D01*
X68483793Y-52257664D01*
X68397547Y-52142455D01*
X68397544Y-52142452D01*
X68282335Y-52056206D01*
X68282328Y-52056202D01*
X68147482Y-52005908D01*
X68147483Y-52005908D01*
X68087883Y-51999501D01*
X68087881Y-51999500D01*
X68087873Y-51999500D01*
X68087864Y-51999500D01*
X64992129Y-51999500D01*
X64992123Y-51999501D01*
X64932516Y-52005908D01*
X64797671Y-52056202D01*
X64797664Y-52056206D01*
X64682455Y-52142452D01*
X64682452Y-52142455D01*
X64596206Y-52257664D01*
X64596202Y-52257671D01*
X64545908Y-52392517D01*
X64542550Y-52423755D01*
X64539501Y-52452123D01*
X64539500Y-52452135D01*
X62654310Y-52452135D01*
X62686365Y-52420080D01*
X62573524Y-52333494D01*
X62573516Y-52333488D01*
X62346482Y-52202409D01*
X62346471Y-52202404D01*
X62104255Y-52102075D01*
X61851020Y-52034222D01*
X61851009Y-52034220D01*
X61591094Y-52000000D01*
X61328905Y-52000000D01*
X61068990Y-52034220D01*
X61068979Y-52034222D01*
X60815744Y-52102075D01*
X60573528Y-52202404D01*
X60573517Y-52202409D01*
X60346471Y-52333496D01*
X60233633Y-52420079D01*
X60233633Y-52420080D01*
X61128321Y-53314768D01*
X61100005Y-53326497D01*
X60975528Y-53409670D01*
X60869670Y-53515528D01*
X60786497Y-53640005D01*
X60774768Y-53668321D01*
X59880080Y-52773633D01*
X59880079Y-52773633D01*
X59793496Y-52886471D01*
X59662409Y-53113517D01*
X59662404Y-53113528D01*
X59562075Y-53355744D01*
X59494222Y-53608979D01*
X59494220Y-53608990D01*
X59460000Y-53868905D01*
X56464585Y-53868905D01*
X56394266Y-53777263D01*
X56394260Y-53777256D01*
X56222743Y-53605739D01*
X56222736Y-53605733D01*
X56030293Y-53458067D01*
X56030292Y-53458066D01*
X56030289Y-53458064D01*
X55820212Y-53336776D01*
X55820205Y-53336773D01*
X55596104Y-53243947D01*
X55361785Y-53181161D01*
X55121289Y-53149500D01*
X55121288Y-53149500D01*
X54878712Y-53149500D01*
X54878711Y-53149500D01*
X54638214Y-53181161D01*
X54403895Y-53243947D01*
X54179794Y-53336773D01*
X54179785Y-53336777D01*
X53969706Y-53458067D01*
X53777263Y-53605733D01*
X53777256Y-53605739D01*
X53605739Y-53777256D01*
X53605733Y-53777263D01*
X53458067Y-53969706D01*
X53336777Y-54179785D01*
X53336773Y-54179794D01*
X53243947Y-54403895D01*
X53181161Y-54638214D01*
X53149500Y-54878711D01*
X50505796Y-54878711D01*
X50506209Y-54869244D01*
X50506209Y-54869243D01*
X50506299Y-54867170D01*
X50517386Y-54613228D01*
X50518326Y-54602495D01*
X50568152Y-54224025D01*
X50570025Y-54213405D01*
X50652649Y-53840709D01*
X50655440Y-53830295D01*
X50770230Y-53466227D01*
X50773917Y-53456095D01*
X50920003Y-53103412D01*
X50924561Y-53093638D01*
X51100822Y-52755045D01*
X51106217Y-52745700D01*
X51311325Y-52423744D01*
X51317511Y-52414909D01*
X51549905Y-52112048D01*
X51556834Y-52103791D01*
X51814726Y-51822352D01*
X51822352Y-51814726D01*
X52103791Y-51556834D01*
X52112060Y-51549896D01*
X52414905Y-51317515D01*
X52423744Y-51311325D01*
X52745700Y-51106217D01*
X52755045Y-51100822D01*
X53093638Y-50924561D01*
X53103412Y-50920003D01*
X53456095Y-50773917D01*
X53466227Y-50770230D01*
X53830295Y-50655440D01*
X53840709Y-50652649D01*
X54213405Y-50570025D01*
X54224025Y-50568152D01*
X54602495Y-50518326D01*
X54613226Y-50517386D01*
X54997297Y-50500617D01*
X55002706Y-50500500D01*
X55065892Y-50500500D01*
X70173991Y-50500500D01*
X70241030Y-50520185D01*
G37*
%TD.AperFunction*%
%TD*%
M02*
