%TF.GenerationSoftware,KiCad,Pcbnew,9.0.2*%
%TF.CreationDate,2026-02-04T14:32:47-03:00*%
%TF.ProjectId,parlav1,7061726c-6176-4312-9e6b-696361645f70,rev?*%
%TF.SameCoordinates,Original*%
%TF.FileFunction,Legend,Top*%
%TF.FilePolarity,Positive*%
%FSLAX46Y46*%
G04 Gerber Fmt 4.6, Leading zero omitted, Abs format (unit mm)*
G04 Created by KiCad (PCBNEW 9.0.2) date 2026-02-04 14:32:47*
%MOMM*%
%LPD*%
G01*
G04 APERTURE LIST*
%ADD10C,0.000000*%
%ADD11C,0.150000*%
%ADD12C,0.120000*%
G04 APERTURE END LIST*
D10*
G36*
X55913490Y-85410872D02*
G01*
X55923564Y-85411372D01*
X55933346Y-85412175D01*
X55942834Y-85413282D01*
X55952029Y-85414693D01*
X55960929Y-85416407D01*
X55969534Y-85418426D01*
X55977843Y-85420748D01*
X55985855Y-85423374D01*
X55993569Y-85426305D01*
X56000985Y-85429538D01*
X56008101Y-85433076D01*
X56014918Y-85436918D01*
X56021433Y-85441063D01*
X56027647Y-85445513D01*
X56033559Y-85450266D01*
X56039168Y-85455323D01*
X56039169Y-85455587D01*
X56044446Y-85460920D01*
X56049363Y-85466502D01*
X56053920Y-85472333D01*
X56058115Y-85478415D01*
X56061950Y-85484748D01*
X56065423Y-85491333D01*
X56068534Y-85498171D01*
X56071282Y-85505262D01*
X56073668Y-85512607D01*
X56075691Y-85520208D01*
X56077350Y-85528064D01*
X56078645Y-85536177D01*
X56079576Y-85544547D01*
X56080142Y-85553175D01*
X56080343Y-85562063D01*
X56080179Y-85571210D01*
X56079705Y-85579587D01*
X56078877Y-85587754D01*
X56077696Y-85595708D01*
X56076161Y-85603451D01*
X56074273Y-85610982D01*
X56072031Y-85618299D01*
X56069436Y-85625404D01*
X56066487Y-85632295D01*
X56063185Y-85638972D01*
X56059529Y-85645435D01*
X56055520Y-85651683D01*
X56051158Y-85657716D01*
X56046442Y-85663533D01*
X56041372Y-85669135D01*
X56035949Y-85674520D01*
X56030173Y-85679689D01*
X56024139Y-85684579D01*
X56017846Y-85689128D01*
X56011292Y-85693337D01*
X56004480Y-85697205D01*
X55997408Y-85700735D01*
X55990078Y-85703925D01*
X55982490Y-85706776D01*
X55974644Y-85709290D01*
X55966540Y-85711465D01*
X55958180Y-85713302D01*
X55949563Y-85714803D01*
X55940690Y-85715966D01*
X55931561Y-85716793D01*
X55922176Y-85717284D01*
X55912537Y-85717440D01*
X55902643Y-85717260D01*
X55892759Y-85716761D01*
X55883148Y-85715957D01*
X55873812Y-85714851D01*
X55864751Y-85713440D01*
X55855965Y-85711725D01*
X55847457Y-85709707D01*
X55839226Y-85707384D01*
X55831273Y-85704758D01*
X55823599Y-85701828D01*
X55816205Y-85698594D01*
X55809092Y-85695057D01*
X55802260Y-85691215D01*
X55795710Y-85687070D01*
X55789443Y-85682620D01*
X55783459Y-85677867D01*
X55777760Y-85672810D01*
X55772387Y-85667483D01*
X55767379Y-85661921D01*
X55762738Y-85656121D01*
X55758462Y-85650085D01*
X55754552Y-85643812D01*
X55751008Y-85637301D01*
X55747830Y-85630552D01*
X55745018Y-85623565D01*
X55742571Y-85616339D01*
X55740491Y-85608874D01*
X55738776Y-85601169D01*
X55737428Y-85593225D01*
X55736445Y-85585040D01*
X55735828Y-85576615D01*
X55735577Y-85567948D01*
X55735692Y-85559040D01*
X55736172Y-85550612D01*
X55737018Y-85542396D01*
X55738228Y-85534390D01*
X55739801Y-85526595D01*
X55741737Y-85519011D01*
X55744035Y-85511638D01*
X55746695Y-85504475D01*
X55749714Y-85497524D01*
X55753094Y-85490783D01*
X55756832Y-85484253D01*
X55760929Y-85477934D01*
X55765382Y-85471826D01*
X55770193Y-85465929D01*
X55775359Y-85460242D01*
X55780880Y-85454766D01*
X55786755Y-85449502D01*
X55792943Y-85444513D01*
X55799309Y-85439866D01*
X55805865Y-85435560D01*
X55812623Y-85431597D01*
X55819592Y-85427976D01*
X55826785Y-85424699D01*
X55834214Y-85421765D01*
X55841888Y-85419174D01*
X55849819Y-85416928D01*
X55858019Y-85415026D01*
X55866499Y-85413469D01*
X55875270Y-85412258D01*
X55884344Y-85411392D01*
X55893731Y-85410872D01*
X55903443Y-85410699D01*
X55913490Y-85410872D01*
G37*
G36*
X53170339Y-87566841D02*
G01*
X53190698Y-87567988D01*
X53210871Y-87569767D01*
X53230861Y-87572176D01*
X53250672Y-87575210D01*
X53270305Y-87578869D01*
X53289702Y-87583121D01*
X53308805Y-87587939D01*
X53327616Y-87593314D01*
X53346140Y-87599241D01*
X53364378Y-87605714D01*
X53382334Y-87612727D01*
X53400011Y-87620273D01*
X53417412Y-87628345D01*
X53425979Y-87632615D01*
X53434416Y-87636990D01*
X53442724Y-87641470D01*
X53450902Y-87646056D01*
X53458952Y-87650747D01*
X53466874Y-87655544D01*
X53474668Y-87660446D01*
X53482334Y-87665453D01*
X53489873Y-87670566D01*
X53497286Y-87675784D01*
X53504572Y-87681108D01*
X53511732Y-87686537D01*
X53518766Y-87692072D01*
X53525676Y-87697712D01*
X53532460Y-87703457D01*
X53539121Y-87709308D01*
X53397832Y-87885256D01*
X53387799Y-87876872D01*
X53377546Y-87868785D01*
X53367075Y-87860997D01*
X53356391Y-87853506D01*
X53345496Y-87846312D01*
X53334393Y-87839416D01*
X53323086Y-87832818D01*
X53311577Y-87826518D01*
X53299944Y-87820527D01*
X53288261Y-87814855D01*
X53276529Y-87809500D01*
X53264746Y-87804458D01*
X53252914Y-87799726D01*
X53241033Y-87795301D01*
X53229102Y-87791180D01*
X53217120Y-87787359D01*
X53211195Y-87785592D01*
X53205327Y-87783960D01*
X53199514Y-87782463D01*
X53193759Y-87781101D01*
X53188061Y-87779871D01*
X53182421Y-87778774D01*
X53176839Y-87777809D01*
X53171315Y-87776975D01*
X53165851Y-87776271D01*
X53160445Y-87775696D01*
X53155099Y-87775250D01*
X53149814Y-87774933D01*
X53144588Y-87774742D01*
X53139424Y-87774677D01*
X53134320Y-87774738D01*
X53129279Y-87774924D01*
X53120859Y-87775496D01*
X53112665Y-87776222D01*
X53104700Y-87777110D01*
X53096968Y-87778166D01*
X53089471Y-87779394D01*
X53082213Y-87780803D01*
X53075196Y-87782398D01*
X53068425Y-87784185D01*
X53065139Y-87785152D01*
X53061926Y-87786169D01*
X53058787Y-87787236D01*
X53055721Y-87788352D01*
X53052729Y-87789518D01*
X53049808Y-87790733D01*
X53046960Y-87791998D01*
X53044183Y-87793313D01*
X53041478Y-87794677D01*
X53038844Y-87796091D01*
X53036280Y-87797554D01*
X53033786Y-87799067D01*
X53031363Y-87800630D01*
X53029008Y-87802242D01*
X53026723Y-87803904D01*
X53024506Y-87805616D01*
X53022363Y-87807414D01*
X53020300Y-87809239D01*
X53018314Y-87811091D01*
X53016407Y-87812971D01*
X53014575Y-87814880D01*
X53012818Y-87816820D01*
X53011134Y-87818792D01*
X53009523Y-87820797D01*
X53007983Y-87822836D01*
X53006514Y-87824910D01*
X53005113Y-87827020D01*
X53003781Y-87829169D01*
X53002514Y-87831355D01*
X53001314Y-87833582D01*
X53000178Y-87835850D01*
X52999104Y-87838160D01*
X52998103Y-87840513D01*
X52997181Y-87842909D01*
X52996338Y-87845348D01*
X52995574Y-87847829D01*
X52994887Y-87850352D01*
X52994277Y-87852917D01*
X52993743Y-87855522D01*
X52993284Y-87858169D01*
X52992899Y-87860855D01*
X52992588Y-87863582D01*
X52992350Y-87866348D01*
X52992184Y-87869153D01*
X52992089Y-87871997D01*
X52992065Y-87874879D01*
X52992111Y-87877800D01*
X52992226Y-87880758D01*
X52992418Y-87883523D01*
X52992696Y-87886265D01*
X52993061Y-87888982D01*
X52993511Y-87891676D01*
X52994047Y-87894346D01*
X52994667Y-87896994D01*
X52995372Y-87899619D01*
X52996161Y-87902222D01*
X52997034Y-87904803D01*
X52997990Y-87907363D01*
X52999029Y-87909902D01*
X53000151Y-87912421D01*
X53001355Y-87914919D01*
X53002640Y-87917398D01*
X53004007Y-87919857D01*
X53005455Y-87922297D01*
X53006980Y-87924700D01*
X53008579Y-87927048D01*
X53010251Y-87929342D01*
X53011995Y-87931582D01*
X53013810Y-87933770D01*
X53015695Y-87935906D01*
X53017651Y-87937990D01*
X53019676Y-87940024D01*
X53021768Y-87942009D01*
X53023929Y-87943945D01*
X53026155Y-87945832D01*
X53028448Y-87947673D01*
X53030806Y-87949467D01*
X53033229Y-87951215D01*
X53035714Y-87952918D01*
X53038263Y-87954577D01*
X53043806Y-87957405D01*
X53050115Y-87960335D01*
X53057187Y-87963371D01*
X53065018Y-87966516D01*
X53073606Y-87969772D01*
X53082948Y-87973143D01*
X53093040Y-87976632D01*
X53103879Y-87980241D01*
X53115562Y-87983900D01*
X53128188Y-87987538D01*
X53141756Y-87991157D01*
X53156266Y-87994760D01*
X53171720Y-87998351D01*
X53188116Y-88001933D01*
X53205454Y-88005508D01*
X53223735Y-88009080D01*
X53247685Y-88014451D01*
X53270720Y-88020048D01*
X53292844Y-88025875D01*
X53314059Y-88031934D01*
X53334368Y-88038228D01*
X53353775Y-88044762D01*
X53372283Y-88051537D01*
X53389894Y-88058558D01*
X53398365Y-88062182D01*
X53406613Y-88065912D01*
X53414639Y-88069748D01*
X53422442Y-88073689D01*
X53430024Y-88077735D01*
X53437384Y-88081886D01*
X53444524Y-88086144D01*
X53451443Y-88090506D01*
X53458142Y-88094974D01*
X53464621Y-88099547D01*
X53470881Y-88104226D01*
X53476922Y-88109010D01*
X53482744Y-88113900D01*
X53488348Y-88118895D01*
X53493734Y-88123995D01*
X53498903Y-88129201D01*
X53498903Y-88128937D01*
X53503585Y-88133011D01*
X53508108Y-88137196D01*
X53512471Y-88141492D01*
X53516676Y-88145899D01*
X53520725Y-88150415D01*
X53524619Y-88155042D01*
X53528358Y-88159778D01*
X53531944Y-88164622D01*
X53535378Y-88169575D01*
X53538661Y-88174637D01*
X53541795Y-88179806D01*
X53544780Y-88185082D01*
X53547618Y-88190465D01*
X53550310Y-88195955D01*
X53552857Y-88201551D01*
X53555260Y-88207253D01*
X53557529Y-88213048D01*
X53559675Y-88218923D01*
X53563594Y-88230912D01*
X53567017Y-88243218D01*
X53569944Y-88255837D01*
X53572374Y-88268766D01*
X53574309Y-88282001D01*
X53575748Y-88295541D01*
X53576691Y-88309382D01*
X53577069Y-88321325D01*
X53577013Y-88333144D01*
X53576523Y-88344838D01*
X53575600Y-88356407D01*
X53574242Y-88367851D01*
X53572449Y-88379168D01*
X53570223Y-88390359D01*
X53567563Y-88401424D01*
X53564469Y-88412361D01*
X53560940Y-88423171D01*
X53556978Y-88433853D01*
X53552581Y-88444406D01*
X53547750Y-88454831D01*
X53542485Y-88465127D01*
X53536786Y-88475293D01*
X53530653Y-88485330D01*
X53524093Y-88495224D01*
X53517209Y-88504864D01*
X53510002Y-88514251D01*
X53502471Y-88523384D01*
X53494617Y-88532265D01*
X53486438Y-88540894D01*
X53477934Y-88549270D01*
X53469105Y-88557396D01*
X53459950Y-88565270D01*
X53450470Y-88572893D01*
X53440663Y-88580266D01*
X53430530Y-88587389D01*
X53420069Y-88594262D01*
X53409281Y-88600886D01*
X53398165Y-88607261D01*
X53386720Y-88613388D01*
X53375006Y-88619226D01*
X53363081Y-88624737D01*
X53350944Y-88629919D01*
X53338595Y-88634774D01*
X53326034Y-88639301D01*
X53313260Y-88643502D01*
X53300273Y-88647377D01*
X53287072Y-88650926D01*
X53273657Y-88654149D01*
X53260028Y-88657047D01*
X53246184Y-88659620D01*
X53232125Y-88661869D01*
X53217851Y-88663793D01*
X53203361Y-88665395D01*
X53188654Y-88666672D01*
X53173731Y-88667628D01*
X53155304Y-88668418D01*
X53137130Y-88668807D01*
X53119210Y-88668794D01*
X53101541Y-88668380D01*
X53084123Y-88667566D01*
X53066956Y-88666353D01*
X53050038Y-88664742D01*
X53033369Y-88662733D01*
X53016948Y-88660327D01*
X53000775Y-88657525D01*
X52984848Y-88654327D01*
X52969166Y-88650735D01*
X52953730Y-88646750D01*
X52938537Y-88642371D01*
X52923588Y-88637600D01*
X52908882Y-88632438D01*
X52894461Y-88626925D01*
X52880369Y-88621102D01*
X52866606Y-88614969D01*
X52853171Y-88608526D01*
X52840065Y-88601773D01*
X52827287Y-88594710D01*
X52814839Y-88587337D01*
X52802718Y-88579654D01*
X52790927Y-88571660D01*
X52779464Y-88563357D01*
X52768330Y-88554744D01*
X52757525Y-88545820D01*
X52747048Y-88536587D01*
X52736899Y-88527043D01*
X52727080Y-88517189D01*
X52717589Y-88507026D01*
X52883748Y-88347747D01*
X52891980Y-88355201D01*
X52900305Y-88362382D01*
X52908725Y-88369292D01*
X52917238Y-88375929D01*
X52925846Y-88382296D01*
X52934549Y-88388391D01*
X52943347Y-88394216D01*
X52952242Y-88399771D01*
X52961232Y-88405056D01*
X52970319Y-88410071D01*
X52979502Y-88414818D01*
X52988783Y-88419296D01*
X52998162Y-88423506D01*
X53007639Y-88427448D01*
X53017214Y-88431123D01*
X53026888Y-88434530D01*
X53036602Y-88437640D01*
X53046298Y-88440520D01*
X53055978Y-88443170D01*
X53065641Y-88445589D01*
X53075289Y-88447777D01*
X53084922Y-88449734D01*
X53094540Y-88451459D01*
X53104146Y-88452952D01*
X53113740Y-88454212D01*
X53123321Y-88455239D01*
X53132892Y-88456033D01*
X53142453Y-88456594D01*
X53152004Y-88456920D01*
X53161547Y-88457012D01*
X53171083Y-88456868D01*
X53180611Y-88456490D01*
X53188064Y-88455994D01*
X53195344Y-88455295D01*
X53202451Y-88454393D01*
X53209384Y-88453282D01*
X53216143Y-88451961D01*
X53222728Y-88450425D01*
X53229141Y-88448673D01*
X53235379Y-88446701D01*
X53238427Y-88445634D01*
X53241419Y-88444517D01*
X53244354Y-88443350D01*
X53247232Y-88442133D01*
X53250053Y-88440864D01*
X53252816Y-88439543D01*
X53255520Y-88438171D01*
X53258167Y-88436746D01*
X53260754Y-88435268D01*
X53263282Y-88433738D01*
X53265751Y-88432154D01*
X53268159Y-88430516D01*
X53270507Y-88428823D01*
X53272794Y-88427077D01*
X53275019Y-88425275D01*
X53277184Y-88423417D01*
X53279333Y-88421520D01*
X53281414Y-88419597D01*
X53283427Y-88417649D01*
X53285374Y-88415674D01*
X53287254Y-88413674D01*
X53289067Y-88411646D01*
X53290815Y-88409592D01*
X53292497Y-88407510D01*
X53294114Y-88405400D01*
X53295666Y-88403261D01*
X53297154Y-88401094D01*
X53298578Y-88398898D01*
X53299939Y-88396673D01*
X53301236Y-88394417D01*
X53302470Y-88392132D01*
X53303642Y-88389815D01*
X53304696Y-88387465D01*
X53305676Y-88385077D01*
X53306580Y-88382650D01*
X53307408Y-88380183D01*
X53308161Y-88377676D01*
X53308837Y-88375128D01*
X53309436Y-88372539D01*
X53309959Y-88369906D01*
X53310404Y-88367230D01*
X53310771Y-88364510D01*
X53311059Y-88361745D01*
X53311269Y-88358934D01*
X53311400Y-88356077D01*
X53311452Y-88353172D01*
X53311423Y-88350220D01*
X53311314Y-88347218D01*
X53310880Y-88341789D01*
X53310174Y-88336515D01*
X53309194Y-88331396D01*
X53307941Y-88326432D01*
X53306416Y-88321623D01*
X53304618Y-88316969D01*
X53303616Y-88314700D01*
X53302546Y-88312470D01*
X53301408Y-88310278D01*
X53300202Y-88308126D01*
X53298928Y-88306012D01*
X53297585Y-88303937D01*
X53296175Y-88301901D01*
X53294696Y-88299903D01*
X53291533Y-88296024D01*
X53288097Y-88292300D01*
X53284389Y-88288732D01*
X53280408Y-88285318D01*
X53276153Y-88282059D01*
X53271626Y-88278956D01*
X53266120Y-88276153D01*
X53259918Y-88273300D01*
X53253023Y-88270398D01*
X53245433Y-88267447D01*
X53237148Y-88264445D01*
X53228169Y-88261394D01*
X53218495Y-88258294D01*
X53208127Y-88255144D01*
X53197002Y-88251969D01*
X53185063Y-88248797D01*
X53172310Y-88245632D01*
X53158749Y-88242476D01*
X53144381Y-88239333D01*
X53129211Y-88236205D01*
X53113240Y-88233096D01*
X53096472Y-88230008D01*
X53071073Y-88224663D01*
X53046665Y-88218949D01*
X53023250Y-88212869D01*
X53000826Y-88206427D01*
X52979395Y-88199625D01*
X52958956Y-88192466D01*
X52939509Y-88184954D01*
X52921054Y-88177091D01*
X52912174Y-88172989D01*
X52903492Y-88168818D01*
X52895009Y-88164579D01*
X52886724Y-88160270D01*
X52878638Y-88155891D01*
X52870750Y-88151442D01*
X52863061Y-88146922D01*
X52855570Y-88142332D01*
X52848277Y-88137670D01*
X52841183Y-88132936D01*
X52834288Y-88128131D01*
X52827591Y-88123253D01*
X52821092Y-88118302D01*
X52814792Y-88113278D01*
X52808690Y-88108180D01*
X52802786Y-88103008D01*
X52798086Y-88098205D01*
X52793510Y-88093322D01*
X52789060Y-88088359D01*
X52784736Y-88083317D01*
X52780539Y-88078196D01*
X52776471Y-88072996D01*
X52772531Y-88067717D01*
X52768720Y-88062361D01*
X52765040Y-88056927D01*
X52761491Y-88051416D01*
X52758073Y-88045829D01*
X52754789Y-88040165D01*
X52751637Y-88034425D01*
X52748620Y-88028610D01*
X52745737Y-88022719D01*
X52742990Y-88016754D01*
X52740383Y-88010705D01*
X52737918Y-88004563D01*
X52735596Y-87998327D01*
X52733416Y-87991999D01*
X52731379Y-87985578D01*
X52729484Y-87979063D01*
X52727732Y-87972456D01*
X52726123Y-87965756D01*
X52724656Y-87958962D01*
X52723332Y-87952076D01*
X52722151Y-87945096D01*
X52721112Y-87938024D01*
X52720216Y-87930859D01*
X52719463Y-87923600D01*
X52718384Y-87908804D01*
X52718021Y-87899871D01*
X52717925Y-87891032D01*
X52718095Y-87882285D01*
X52718532Y-87873631D01*
X52719236Y-87865070D01*
X52720206Y-87856603D01*
X52721443Y-87848228D01*
X52722947Y-87839946D01*
X52724718Y-87831758D01*
X52726755Y-87823662D01*
X52729059Y-87815659D01*
X52731629Y-87807750D01*
X52734466Y-87799933D01*
X52737570Y-87792210D01*
X52740940Y-87784579D01*
X52744577Y-87777041D01*
X52748438Y-87769606D01*
X52752479Y-87762282D01*
X52756701Y-87755069D01*
X52761106Y-87747966D01*
X52765693Y-87740973D01*
X52770464Y-87734090D01*
X52775420Y-87727316D01*
X52780561Y-87720652D01*
X52785888Y-87714096D01*
X52791402Y-87707647D01*
X52797103Y-87701307D01*
X52802992Y-87695074D01*
X52809071Y-87688948D01*
X52815340Y-87682929D01*
X52821799Y-87677015D01*
X52828450Y-87671208D01*
X52835268Y-87665574D01*
X52842230Y-87660084D01*
X52849336Y-87654736D01*
X52856587Y-87649533D01*
X52863983Y-87644474D01*
X52871526Y-87639559D01*
X52879216Y-87634789D01*
X52887055Y-87630164D01*
X52895042Y-87625686D01*
X52903178Y-87621353D01*
X52911466Y-87617167D01*
X52919904Y-87613128D01*
X52928494Y-87609236D01*
X52937237Y-87605491D01*
X52946134Y-87601895D01*
X52955185Y-87598447D01*
X52973541Y-87592060D01*
X52992103Y-87586388D01*
X53010874Y-87581430D01*
X53029863Y-87577182D01*
X53049076Y-87573640D01*
X53068518Y-87570803D01*
X53088195Y-87568666D01*
X53108115Y-87567227D01*
X53129050Y-87566458D01*
X53149791Y-87566330D01*
X53170339Y-87566841D01*
G37*
G36*
X54116176Y-87256341D02*
G01*
X54111414Y-87524893D01*
X54329959Y-87528598D01*
X54325461Y-87781275D01*
X54106915Y-87777306D01*
X54092893Y-88584814D01*
X53812433Y-88579787D01*
X53826457Y-87772544D01*
X53626167Y-87768839D01*
X53630666Y-87516427D01*
X53830954Y-87519866D01*
X53835716Y-87251579D01*
X54116176Y-87256341D01*
G37*
G36*
X57728430Y-84034649D02*
G01*
X57744478Y-84035969D01*
X57760505Y-84037991D01*
X57776502Y-84040713D01*
X57792458Y-84044134D01*
X57808362Y-84048251D01*
X57815850Y-84050533D01*
X57823179Y-84053107D01*
X57837341Y-84059105D01*
X57850809Y-84066190D01*
X57863540Y-84074309D01*
X57875494Y-84083405D01*
X57886631Y-84093425D01*
X57896910Y-84104314D01*
X57906291Y-84116018D01*
X57914731Y-84128481D01*
X57922192Y-84141649D01*
X57928632Y-84155467D01*
X57934010Y-84169881D01*
X57938286Y-84184836D01*
X57941419Y-84200278D01*
X57943368Y-84216151D01*
X57944092Y-84232361D01*
X57946472Y-84657322D01*
X57861276Y-84668699D01*
X57859328Y-84668813D01*
X57857451Y-84668619D01*
X57855642Y-84668132D01*
X57853899Y-84667366D01*
X57852220Y-84666336D01*
X57850604Y-84665057D01*
X57849047Y-84663542D01*
X57847547Y-84661807D01*
X57844713Y-84657735D01*
X57842083Y-84652956D01*
X57839639Y-84647587D01*
X57837365Y-84641745D01*
X57835243Y-84635546D01*
X57833255Y-84629107D01*
X57829613Y-84615977D01*
X57826300Y-84603287D01*
X57823177Y-84591970D01*
X57815042Y-84600651D01*
X57806573Y-84608927D01*
X57797788Y-84616793D01*
X57788707Y-84624242D01*
X57779347Y-84631265D01*
X57769726Y-84637857D01*
X57749776Y-84649720D01*
X57729002Y-84659773D01*
X57707552Y-84667961D01*
X57685570Y-84674229D01*
X57674426Y-84676626D01*
X57663204Y-84678522D01*
X57651922Y-84679910D01*
X57640598Y-84680784D01*
X57629252Y-84681136D01*
X57617900Y-84680959D01*
X57606562Y-84680247D01*
X57595256Y-84678993D01*
X57583999Y-84677190D01*
X57572811Y-84674830D01*
X57561709Y-84671907D01*
X57550712Y-84668414D01*
X57539838Y-84664344D01*
X57529105Y-84659690D01*
X57518531Y-84654445D01*
X57508135Y-84648603D01*
X57497936Y-84642156D01*
X57487950Y-84635097D01*
X57481239Y-84629831D01*
X57474940Y-84624358D01*
X57469046Y-84618689D01*
X57463549Y-84612835D01*
X57458442Y-84606806D01*
X57453718Y-84600612D01*
X57449368Y-84594265D01*
X57445386Y-84587774D01*
X57441763Y-84581150D01*
X57438493Y-84574403D01*
X57435567Y-84567545D01*
X57432977Y-84560585D01*
X57430718Y-84553534D01*
X57428780Y-84546403D01*
X57425840Y-84531942D01*
X57424097Y-84517286D01*
X57423490Y-84502518D01*
X57423940Y-84488297D01*
X57545922Y-84488297D01*
X57546054Y-84492885D01*
X57546401Y-84497456D01*
X57546964Y-84502000D01*
X57547746Y-84506510D01*
X57548500Y-84509847D01*
X57549468Y-84513206D01*
X57550643Y-84516577D01*
X57552018Y-84519954D01*
X57555343Y-84526688D01*
X57559393Y-84533344D01*
X57564113Y-84539856D01*
X57569452Y-84546158D01*
X57575358Y-84552186D01*
X57581779Y-84557872D01*
X57588661Y-84563152D01*
X57595953Y-84567961D01*
X57603602Y-84572232D01*
X57611557Y-84575901D01*
X57615632Y-84577489D01*
X57619764Y-84578901D01*
X57623946Y-84580131D01*
X57628171Y-84581168D01*
X57632434Y-84582006D01*
X57636727Y-84582636D01*
X57641044Y-84583050D01*
X57645378Y-84583239D01*
X57656524Y-84583157D01*
X57667608Y-84582525D01*
X57678589Y-84581356D01*
X57689423Y-84579662D01*
X57700068Y-84577459D01*
X57710481Y-84574760D01*
X57720619Y-84571577D01*
X57730441Y-84567926D01*
X57739903Y-84563818D01*
X57748963Y-84559268D01*
X57757578Y-84554290D01*
X57765705Y-84548896D01*
X57773302Y-84543101D01*
X57780327Y-84536918D01*
X57783611Y-84533686D01*
X57786736Y-84530361D01*
X57789696Y-84526946D01*
X57792487Y-84523443D01*
X57792487Y-84523708D01*
X57798243Y-84515551D01*
X57803330Y-84507245D01*
X57807777Y-84498777D01*
X57811615Y-84490134D01*
X57814875Y-84481304D01*
X57817588Y-84472273D01*
X57819783Y-84463029D01*
X57821492Y-84453560D01*
X57822745Y-84443851D01*
X57823573Y-84433891D01*
X57824006Y-84423667D01*
X57824075Y-84413165D01*
X57823811Y-84402374D01*
X57823245Y-84391280D01*
X57821326Y-84368133D01*
X57761654Y-84369633D01*
X57735313Y-84370667D01*
X57710664Y-84372200D01*
X57698826Y-84373226D01*
X57687231Y-84374465D01*
X57675821Y-84375944D01*
X57664536Y-84377694D01*
X57653316Y-84379743D01*
X57642101Y-84382120D01*
X57630832Y-84384855D01*
X57619449Y-84387976D01*
X57614561Y-84389530D01*
X57609819Y-84391310D01*
X57605226Y-84393307D01*
X57600785Y-84395511D01*
X57596497Y-84397915D01*
X57592366Y-84400510D01*
X57588393Y-84403287D01*
X57584582Y-84406237D01*
X57580934Y-84409352D01*
X57577452Y-84412623D01*
X57574139Y-84416041D01*
X57570996Y-84419598D01*
X57568027Y-84423285D01*
X57565233Y-84427093D01*
X57562618Y-84431014D01*
X57560182Y-84435039D01*
X57555863Y-84443367D01*
X57552295Y-84452006D01*
X57549498Y-84460888D01*
X57547490Y-84469944D01*
X57546292Y-84479103D01*
X57546002Y-84483700D01*
X57545922Y-84488297D01*
X57423940Y-84488297D01*
X57423959Y-84487724D01*
X57425443Y-84472986D01*
X57427882Y-84458389D01*
X57431216Y-84444018D01*
X57435384Y-84429955D01*
X57440326Y-84416286D01*
X57445820Y-84403854D01*
X57452257Y-84391972D01*
X57459599Y-84380663D01*
X57467809Y-84369952D01*
X57476850Y-84359860D01*
X57486685Y-84350412D01*
X57497277Y-84341630D01*
X57508588Y-84333539D01*
X57520581Y-84326160D01*
X57533219Y-84319518D01*
X57546464Y-84313635D01*
X57560280Y-84308536D01*
X57574630Y-84304242D01*
X57589476Y-84300778D01*
X57604780Y-84298167D01*
X57620506Y-84296431D01*
X57814447Y-84280820D01*
X57816755Y-84275307D01*
X57818676Y-84269784D01*
X57820223Y-84264261D01*
X57821406Y-84258747D01*
X57822238Y-84253249D01*
X57822731Y-84247775D01*
X57822895Y-84242335D01*
X57822744Y-84236937D01*
X57822289Y-84231588D01*
X57821540Y-84226298D01*
X57820512Y-84221075D01*
X57819214Y-84215926D01*
X57817659Y-84210862D01*
X57815859Y-84205889D01*
X57813825Y-84201016D01*
X57811569Y-84196253D01*
X57809104Y-84191606D01*
X57806440Y-84187084D01*
X57803589Y-84182697D01*
X57800564Y-84178452D01*
X57797376Y-84174357D01*
X57794036Y-84170421D01*
X57790557Y-84166652D01*
X57786951Y-84163060D01*
X57783228Y-84159651D01*
X57779402Y-84156435D01*
X57775483Y-84153419D01*
X57771483Y-84150613D01*
X57767415Y-84148025D01*
X57763290Y-84145662D01*
X57759119Y-84143534D01*
X57754915Y-84141649D01*
X57744297Y-84137686D01*
X57733244Y-84134450D01*
X57721855Y-84131974D01*
X57710230Y-84130293D01*
X57698467Y-84129437D01*
X57686665Y-84129440D01*
X57680779Y-84129775D01*
X57674922Y-84130336D01*
X57669104Y-84131129D01*
X57663337Y-84132157D01*
X57657636Y-84133425D01*
X57652010Y-84134936D01*
X57646474Y-84136695D01*
X57641040Y-84138706D01*
X57635719Y-84140973D01*
X57630524Y-84143500D01*
X57625467Y-84146291D01*
X57620562Y-84149351D01*
X57615819Y-84152683D01*
X57611252Y-84156292D01*
X57606873Y-84160181D01*
X57602694Y-84164355D01*
X57598728Y-84168819D01*
X57594986Y-84173575D01*
X57591482Y-84178628D01*
X57588228Y-84183983D01*
X57586194Y-84187307D01*
X57583876Y-84190670D01*
X57578449Y-84197430D01*
X57572084Y-84204110D01*
X57564916Y-84210553D01*
X57557079Y-84216603D01*
X57548710Y-84222106D01*
X57544367Y-84224603D01*
X57539942Y-84226906D01*
X57535452Y-84228993D01*
X57530913Y-84230847D01*
X57526342Y-84232447D01*
X57521756Y-84233774D01*
X57517172Y-84234809D01*
X57512607Y-84235532D01*
X57508078Y-84235924D01*
X57503602Y-84235966D01*
X57499196Y-84235637D01*
X57494876Y-84234919D01*
X57490659Y-84233792D01*
X57486563Y-84232237D01*
X57482604Y-84230234D01*
X57478800Y-84227763D01*
X57475166Y-84224806D01*
X57471721Y-84221344D01*
X57468480Y-84217355D01*
X57465462Y-84212822D01*
X57463318Y-84208741D01*
X57461684Y-84204447D01*
X57460542Y-84199958D01*
X57459872Y-84195293D01*
X57459654Y-84190470D01*
X57459868Y-84185507D01*
X57460496Y-84180423D01*
X57461518Y-84175235D01*
X57462915Y-84169961D01*
X57464666Y-84164621D01*
X57466752Y-84159232D01*
X57469155Y-84153812D01*
X57471854Y-84148379D01*
X57474830Y-84142953D01*
X57481536Y-84132190D01*
X57489115Y-84121670D01*
X57497414Y-84111536D01*
X57506275Y-84101936D01*
X57515543Y-84093015D01*
X57525062Y-84084919D01*
X57534676Y-84077794D01*
X57539470Y-84074640D01*
X57544230Y-84071784D01*
X57548936Y-84069243D01*
X57553568Y-84067036D01*
X57569146Y-84060503D01*
X57584820Y-84054694D01*
X57600579Y-84049606D01*
X57616411Y-84045237D01*
X57632307Y-84041587D01*
X57648255Y-84038652D01*
X57664247Y-84036432D01*
X57680271Y-84034923D01*
X57696316Y-84034124D01*
X57712373Y-84034034D01*
X57728430Y-84034649D01*
G37*
G36*
X55930656Y-81695845D02*
G01*
X55944430Y-81696697D01*
X55958141Y-81698196D01*
X55971757Y-81700341D01*
X55985243Y-81703129D01*
X55998565Y-81706556D01*
X56011689Y-81710621D01*
X56024582Y-81715321D01*
X56037208Y-81720654D01*
X56049535Y-81726616D01*
X56061528Y-81733206D01*
X56073152Y-81740421D01*
X56084375Y-81748259D01*
X56095162Y-81756716D01*
X56105479Y-81765791D01*
X56115292Y-81775481D01*
X56127982Y-81789716D01*
X56139393Y-81804517D01*
X56149574Y-81819849D01*
X56158573Y-81835677D01*
X56166438Y-81851966D01*
X56173219Y-81868680D01*
X56178964Y-81885783D01*
X56183720Y-81903241D01*
X56187538Y-81921019D01*
X56190464Y-81939081D01*
X56192547Y-81957391D01*
X56193837Y-81975915D01*
X56194380Y-81994617D01*
X56194227Y-82013463D01*
X56193424Y-82032416D01*
X56192021Y-82051441D01*
X56192021Y-82051177D01*
X55772392Y-82053558D01*
X55770694Y-82061141D01*
X55769459Y-82068703D01*
X55768673Y-82076233D01*
X55768323Y-82083721D01*
X55768393Y-82091156D01*
X55768871Y-82098528D01*
X55769741Y-82105826D01*
X55770991Y-82113040D01*
X55772605Y-82120159D01*
X55774569Y-82127174D01*
X55776871Y-82134073D01*
X55779494Y-82140846D01*
X55782426Y-82147482D01*
X55785652Y-82153972D01*
X55789158Y-82160304D01*
X55792930Y-82166469D01*
X55796954Y-82172455D01*
X55801216Y-82178253D01*
X55805702Y-82183851D01*
X55810397Y-82189240D01*
X55815288Y-82194408D01*
X55820360Y-82199346D01*
X55825600Y-82204043D01*
X55830993Y-82208488D01*
X55836525Y-82212671D01*
X55842182Y-82216582D01*
X55847950Y-82220210D01*
X55853815Y-82223545D01*
X55859762Y-82226575D01*
X55865778Y-82229292D01*
X55871849Y-82231683D01*
X55877960Y-82233739D01*
X55886157Y-82236122D01*
X55894273Y-82238158D01*
X55902303Y-82239850D01*
X55910244Y-82241197D01*
X55918091Y-82242200D01*
X55925838Y-82242858D01*
X55933482Y-82243173D01*
X55941018Y-82243145D01*
X55948441Y-82242773D01*
X55955747Y-82242059D01*
X55962930Y-82241003D01*
X55969988Y-82239604D01*
X55976913Y-82237864D01*
X55983704Y-82235783D01*
X55990353Y-82233360D01*
X55996858Y-82230597D01*
X56003213Y-82227494D01*
X56009414Y-82224051D01*
X56015456Y-82220268D01*
X56021335Y-82216146D01*
X56027045Y-82211685D01*
X56032583Y-82206885D01*
X56037944Y-82201747D01*
X56043123Y-82196272D01*
X56048116Y-82190458D01*
X56052917Y-82184308D01*
X56057523Y-82177820D01*
X56061929Y-82170996D01*
X56066129Y-82163836D01*
X56070121Y-82156340D01*
X56073898Y-82148508D01*
X56077457Y-82140341D01*
X56189375Y-82144575D01*
X56186113Y-82162388D01*
X56184122Y-82170929D01*
X56181893Y-82179230D01*
X56179428Y-82187294D01*
X56176730Y-82195123D01*
X56173800Y-82202720D01*
X56170640Y-82210088D01*
X56167252Y-82217229D01*
X56163638Y-82224146D01*
X56159800Y-82230841D01*
X56155740Y-82237318D01*
X56151460Y-82243578D01*
X56146962Y-82249626D01*
X56142248Y-82255462D01*
X56137319Y-82261090D01*
X56132177Y-82266513D01*
X56126826Y-82271734D01*
X56115499Y-82281577D01*
X56103353Y-82290640D01*
X56090405Y-82298947D01*
X56076669Y-82306516D01*
X56062160Y-82313371D01*
X56046896Y-82319532D01*
X56030890Y-82325021D01*
X56009998Y-82330896D01*
X55988588Y-82335590D01*
X55966789Y-82339047D01*
X55944735Y-82341214D01*
X55922557Y-82342037D01*
X55900386Y-82341461D01*
X55878355Y-82339434D01*
X55856596Y-82335901D01*
X55835239Y-82330809D01*
X55824753Y-82327661D01*
X55814418Y-82324103D01*
X55804248Y-82320128D01*
X55794262Y-82315730D01*
X55784476Y-82310901D01*
X55774906Y-82305636D01*
X55765568Y-82299926D01*
X55756479Y-82293766D01*
X55747656Y-82287149D01*
X55739114Y-82280067D01*
X55730872Y-82272516D01*
X55722943Y-82264486D01*
X55715347Y-82255973D01*
X55708098Y-82246968D01*
X55698925Y-82234364D01*
X55690358Y-82221374D01*
X55682397Y-82208024D01*
X55675044Y-82194341D01*
X55668300Y-82180351D01*
X55662166Y-82166080D01*
X55651730Y-82136802D01*
X55643745Y-82106718D01*
X55638219Y-82076039D01*
X55635161Y-82044975D01*
X55634578Y-82013738D01*
X55636478Y-81982538D01*
X55640871Y-81951586D01*
X55642443Y-81944630D01*
X55768867Y-81944630D01*
X55769127Y-81951964D01*
X55769856Y-81959349D01*
X55771071Y-81966774D01*
X56075870Y-81962012D01*
X56074661Y-81950173D01*
X56073029Y-81938814D01*
X56070985Y-81927931D01*
X56068545Y-81917520D01*
X56065720Y-81907577D01*
X56062523Y-81898098D01*
X56058970Y-81889079D01*
X56055071Y-81880516D01*
X56050841Y-81872405D01*
X56046293Y-81864743D01*
X56041440Y-81857526D01*
X56036295Y-81850749D01*
X56030872Y-81844408D01*
X56025184Y-81838500D01*
X56019243Y-81833021D01*
X56013064Y-81827967D01*
X56006660Y-81823334D01*
X56000042Y-81819117D01*
X55993226Y-81815314D01*
X55986224Y-81811920D01*
X55979049Y-81808931D01*
X55971715Y-81806343D01*
X55964235Y-81804153D01*
X55956621Y-81802356D01*
X55948888Y-81800949D01*
X55941049Y-81799927D01*
X55933116Y-81799287D01*
X55925103Y-81799025D01*
X55917023Y-81799136D01*
X55908889Y-81799617D01*
X55900715Y-81800465D01*
X55892514Y-81801674D01*
X55886232Y-81802923D01*
X55879947Y-81804531D01*
X55873677Y-81806486D01*
X55867436Y-81808779D01*
X55861243Y-81811398D01*
X55855111Y-81814333D01*
X55843103Y-81821108D01*
X55831541Y-81829020D01*
X55820555Y-81837983D01*
X55810277Y-81847913D01*
X55805444Y-81853214D01*
X55800836Y-81858725D01*
X55796470Y-81864435D01*
X55792362Y-81870333D01*
X55788528Y-81876410D01*
X55784986Y-81882654D01*
X55781750Y-81889054D01*
X55778837Y-81895601D01*
X55776264Y-81902283D01*
X55774047Y-81909091D01*
X55772202Y-81916012D01*
X55770745Y-81923038D01*
X55769693Y-81930156D01*
X55769061Y-81937357D01*
X55768867Y-81944630D01*
X55642443Y-81944630D01*
X55647763Y-81921092D01*
X55657163Y-81891269D01*
X55662806Y-81876674D01*
X55669079Y-81862326D01*
X55675983Y-81848250D01*
X55683519Y-81834474D01*
X55691689Y-81821024D01*
X55700492Y-81807925D01*
X55709931Y-81795205D01*
X55720006Y-81782889D01*
X55729627Y-81772346D01*
X55739764Y-81762493D01*
X55750383Y-81753328D01*
X55761451Y-81744849D01*
X55772933Y-81737053D01*
X55784796Y-81729936D01*
X55797004Y-81723498D01*
X55809525Y-81717735D01*
X55822325Y-81712645D01*
X55835368Y-81708226D01*
X55848622Y-81704474D01*
X55862052Y-81701387D01*
X55875625Y-81698963D01*
X55889305Y-81697200D01*
X55903060Y-81696094D01*
X55916855Y-81695643D01*
X55930656Y-81695845D01*
G37*
G36*
X55355063Y-85439102D02*
G01*
X55363608Y-85439436D01*
X55372085Y-85439951D01*
X55380497Y-85440649D01*
X55388843Y-85441528D01*
X55397123Y-85442590D01*
X55405338Y-85443835D01*
X55413488Y-85445264D01*
X55421574Y-85446876D01*
X55429596Y-85448672D01*
X55437554Y-85450652D01*
X55445449Y-85452818D01*
X55453282Y-85455168D01*
X55461052Y-85457705D01*
X55468726Y-85460402D01*
X55476270Y-85463236D01*
X55483685Y-85466206D01*
X55490970Y-85469313D01*
X55498127Y-85472556D01*
X55505156Y-85475936D01*
X55512057Y-85479452D01*
X55518830Y-85483105D01*
X55525476Y-85486893D01*
X55531995Y-85490819D01*
X55538389Y-85494881D01*
X55544656Y-85499079D01*
X55550797Y-85503413D01*
X55556814Y-85507885D01*
X55562705Y-85512492D01*
X55568472Y-85517236D01*
X55493596Y-85726256D01*
X55486936Y-85722114D01*
X55480251Y-85718220D01*
X55473541Y-85714574D01*
X55466806Y-85711175D01*
X55460047Y-85708025D01*
X55453263Y-85705123D01*
X55446455Y-85702469D01*
X55439621Y-85700063D01*
X55436213Y-85698962D01*
X55432836Y-85697942D01*
X55429488Y-85697001D01*
X55426169Y-85696140D01*
X55422877Y-85695357D01*
X55419613Y-85694654D01*
X55416375Y-85694029D01*
X55413163Y-85693481D01*
X55409975Y-85693012D01*
X55406812Y-85692619D01*
X55403671Y-85692303D01*
X55400554Y-85692064D01*
X55397458Y-85691900D01*
X55394383Y-85691812D01*
X55391328Y-85691799D01*
X55388292Y-85691861D01*
X55383582Y-85692106D01*
X55378977Y-85692444D01*
X55374478Y-85692876D01*
X55370085Y-85693403D01*
X55365797Y-85694024D01*
X55361614Y-85694740D01*
X55357537Y-85695551D01*
X55353565Y-85696458D01*
X55349698Y-85697461D01*
X55345937Y-85698560D01*
X55342282Y-85699757D01*
X55338732Y-85701051D01*
X55335287Y-85702442D01*
X55331948Y-85703932D01*
X55328714Y-85705520D01*
X55325586Y-85707207D01*
X55322563Y-85708989D01*
X55319645Y-85710865D01*
X55316833Y-85712832D01*
X55314126Y-85714892D01*
X55311525Y-85717042D01*
X55309029Y-85719284D01*
X55306638Y-85721617D01*
X55304353Y-85724040D01*
X55302174Y-85726553D01*
X55300100Y-85729156D01*
X55298131Y-85731847D01*
X55296268Y-85734628D01*
X55294510Y-85737497D01*
X55292857Y-85740453D01*
X55291310Y-85743498D01*
X55289868Y-85746629D01*
X55289801Y-85746563D01*
X55289735Y-85746498D01*
X55289603Y-85746366D01*
X55288263Y-85749581D01*
X55287023Y-85752878D01*
X55285880Y-85756255D01*
X55284836Y-85759715D01*
X55283890Y-85763257D01*
X55283040Y-85766881D01*
X55282288Y-85770588D01*
X55281632Y-85774379D01*
X55281072Y-85778253D01*
X55280608Y-85782211D01*
X55280240Y-85786254D01*
X55279966Y-85790382D01*
X55279787Y-85794595D01*
X55279702Y-85798894D01*
X55279711Y-85803279D01*
X55279813Y-85807750D01*
X55282723Y-85891887D01*
X55511058Y-85883950D01*
X55519261Y-86122339D01*
X55290926Y-86130276D01*
X55318706Y-86925349D01*
X55178478Y-86930376D01*
X55097250Y-86933286D01*
X55036131Y-86935403D01*
X55008351Y-86140330D01*
X54848013Y-86145886D01*
X54839812Y-85907496D01*
X55000148Y-85901940D01*
X54996709Y-85799811D01*
X54996433Y-85787580D01*
X54996499Y-85775490D01*
X54996906Y-85763542D01*
X54997656Y-85751736D01*
X54998748Y-85740071D01*
X55000184Y-85728546D01*
X55001962Y-85717162D01*
X55004085Y-85705917D01*
X55006551Y-85694813D01*
X55009362Y-85683847D01*
X55012519Y-85673020D01*
X55016020Y-85662331D01*
X55019867Y-85651781D01*
X55024060Y-85641368D01*
X55028600Y-85631092D01*
X55033487Y-85620953D01*
X55038683Y-85611006D01*
X55044153Y-85601308D01*
X55049895Y-85591857D01*
X55055910Y-85582654D01*
X55062198Y-85573700D01*
X55068759Y-85564993D01*
X55075592Y-85556535D01*
X55082699Y-85548324D01*
X55090078Y-85540362D01*
X55097731Y-85532648D01*
X55105656Y-85525182D01*
X55113854Y-85517963D01*
X55122325Y-85510993D01*
X55131068Y-85504271D01*
X55140085Y-85497797D01*
X55149374Y-85491571D01*
X55158914Y-85485646D01*
X55168683Y-85480074D01*
X55178680Y-85474856D01*
X55188904Y-85469991D01*
X55199354Y-85465479D01*
X55210030Y-85461322D01*
X55220931Y-85457517D01*
X55232055Y-85454066D01*
X55243403Y-85450969D01*
X55254974Y-85448225D01*
X55266766Y-85445834D01*
X55278779Y-85443797D01*
X55291013Y-85442114D01*
X55303465Y-85440783D01*
X55316136Y-85439807D01*
X55329025Y-85439184D01*
X55337772Y-85438976D01*
X55346451Y-85438948D01*
X55355063Y-85439102D01*
G37*
G36*
X54102417Y-85835000D02*
G01*
X54121741Y-85836042D01*
X54131236Y-85836825D01*
X54140621Y-85837782D01*
X54149896Y-85838915D01*
X54159061Y-85840223D01*
X54168117Y-85841707D01*
X54177063Y-85843367D01*
X54185902Y-85845204D01*
X54194632Y-85847218D01*
X54203254Y-85849410D01*
X54211769Y-85851780D01*
X54220177Y-85854328D01*
X54228479Y-85857054D01*
X54236674Y-85859960D01*
X54244763Y-85863045D01*
X54252735Y-85866286D01*
X54260576Y-85869656D01*
X54268287Y-85873155D01*
X54275868Y-85876784D01*
X54283319Y-85880541D01*
X54290639Y-85884426D01*
X54297829Y-85888440D01*
X54304889Y-85892580D01*
X54311819Y-85896848D01*
X54318619Y-85901243D01*
X54325288Y-85905764D01*
X54331827Y-85910411D01*
X54338236Y-85915183D01*
X54344515Y-85920081D01*
X54350664Y-85925104D01*
X54356682Y-85930250D01*
X54361690Y-85934656D01*
X54366594Y-85939141D01*
X54371395Y-85943705D01*
X54376096Y-85948345D01*
X54380698Y-85953062D01*
X54385202Y-85957853D01*
X54389609Y-85962718D01*
X54393923Y-85967656D01*
X54398143Y-85972665D01*
X54402272Y-85977743D01*
X54410261Y-85988107D01*
X54417902Y-85998737D01*
X54424948Y-86009236D01*
X54429970Y-85868337D01*
X54708313Y-85878126D01*
X54671269Y-86937518D01*
X54388960Y-86927729D01*
X54393723Y-86789088D01*
X54384992Y-86798786D01*
X54375867Y-86808237D01*
X54366352Y-86817439D01*
X54356449Y-86826394D01*
X54346162Y-86835100D01*
X54335494Y-86843558D01*
X54324447Y-86851769D01*
X54313025Y-86859731D01*
X54299047Y-86868797D01*
X54284698Y-86877343D01*
X54269976Y-86885367D01*
X54254883Y-86892870D01*
X54239417Y-86899853D01*
X54223579Y-86906314D01*
X54207369Y-86912255D01*
X54190787Y-86917675D01*
X54182378Y-86920211D01*
X54173919Y-86922561D01*
X54165408Y-86924726D01*
X54156846Y-86926704D01*
X54148231Y-86928496D01*
X54139562Y-86930102D01*
X54122062Y-86932756D01*
X54104338Y-86934666D01*
X54086384Y-86935832D01*
X54068195Y-86936254D01*
X54049764Y-86935931D01*
X54033361Y-86935060D01*
X54017194Y-86933636D01*
X54001261Y-86931660D01*
X53985561Y-86929131D01*
X53970094Y-86926048D01*
X53954858Y-86922411D01*
X53939854Y-86918220D01*
X53925079Y-86913475D01*
X53910534Y-86908174D01*
X53896218Y-86902318D01*
X53882130Y-86895907D01*
X53868268Y-86888939D01*
X53854633Y-86881414D01*
X53841224Y-86873333D01*
X53828039Y-86864694D01*
X53815079Y-86855498D01*
X53802404Y-86845827D01*
X53790076Y-86835765D01*
X53778094Y-86825310D01*
X53766458Y-86814463D01*
X53755168Y-86803221D01*
X53744224Y-86791585D01*
X53733624Y-86779554D01*
X53723369Y-86767127D01*
X53713457Y-86754303D01*
X53703890Y-86741081D01*
X53694666Y-86727461D01*
X53685785Y-86713441D01*
X53677247Y-86699022D01*
X53669051Y-86684202D01*
X53661196Y-86668980D01*
X53653684Y-86653356D01*
X53646593Y-86637409D01*
X53640004Y-86621220D01*
X53633918Y-86604788D01*
X53628334Y-86588111D01*
X53623252Y-86571189D01*
X53618672Y-86554022D01*
X53614595Y-86536608D01*
X53611020Y-86518947D01*
X53607947Y-86501038D01*
X53605376Y-86482880D01*
X53603308Y-86464472D01*
X53601742Y-86445814D01*
X53600679Y-86426905D01*
X53600117Y-86407744D01*
X53600064Y-86390144D01*
X53880433Y-86390144D01*
X53880435Y-86401402D01*
X53880704Y-86412491D01*
X53881238Y-86423412D01*
X53882037Y-86434164D01*
X53883100Y-86444747D01*
X53884429Y-86455160D01*
X53886021Y-86465403D01*
X53887876Y-86475475D01*
X53889995Y-86485376D01*
X53892376Y-86495106D01*
X53895020Y-86504664D01*
X53897926Y-86514051D01*
X53901094Y-86523264D01*
X53904523Y-86532305D01*
X53908212Y-86541173D01*
X53912144Y-86549839D01*
X53916298Y-86558276D01*
X53920675Y-86566485D01*
X53925274Y-86574465D01*
X53930095Y-86582217D01*
X53935137Y-86589742D01*
X53940400Y-86597040D01*
X53945883Y-86604110D01*
X53951587Y-86610955D01*
X53957510Y-86617574D01*
X53963652Y-86623967D01*
X53970014Y-86630135D01*
X53976594Y-86636078D01*
X53983393Y-86641796D01*
X53990409Y-86647291D01*
X53997643Y-86652562D01*
X54005068Y-86657569D01*
X54012661Y-86662273D01*
X54020422Y-86666674D01*
X54028350Y-86670773D01*
X54036446Y-86674569D01*
X54044709Y-86678063D01*
X54053139Y-86681256D01*
X54061737Y-86684147D01*
X54070502Y-86686738D01*
X54079435Y-86689028D01*
X54088535Y-86691018D01*
X54097803Y-86692709D01*
X54107238Y-86694101D01*
X54116841Y-86695193D01*
X54126611Y-86695987D01*
X54136548Y-86696483D01*
X54146501Y-86696675D01*
X54156317Y-86696557D01*
X54165996Y-86696129D01*
X54175537Y-86695391D01*
X54184941Y-86694343D01*
X54194206Y-86692985D01*
X54203332Y-86691317D01*
X54212319Y-86689339D01*
X54221166Y-86687051D01*
X54229874Y-86684452D01*
X54238441Y-86681544D01*
X54246868Y-86678326D01*
X54255153Y-86674797D01*
X54263297Y-86670959D01*
X54271300Y-86666810D01*
X54279160Y-86662352D01*
X54278627Y-86662352D01*
X54286313Y-86657617D01*
X54293794Y-86652641D01*
X54301069Y-86647422D01*
X54308137Y-86641962D01*
X54314997Y-86636260D01*
X54321648Y-86630316D01*
X54328091Y-86624131D01*
X54334323Y-86617703D01*
X54340344Y-86611034D01*
X54346154Y-86604123D01*
X54351751Y-86596970D01*
X54357135Y-86589575D01*
X54362305Y-86581938D01*
X54367261Y-86574059D01*
X54372001Y-86565939D01*
X54376524Y-86557577D01*
X54380815Y-86548997D01*
X54384858Y-86540226D01*
X54388652Y-86531264D01*
X54392197Y-86522110D01*
X54395492Y-86512766D01*
X54398537Y-86503232D01*
X54401332Y-86493507D01*
X54403876Y-86483593D01*
X54406168Y-86473490D01*
X54408210Y-86463198D01*
X54409999Y-86452718D01*
X54411536Y-86442050D01*
X54412821Y-86431194D01*
X54413852Y-86420151D01*
X54414630Y-86408921D01*
X54415154Y-86397504D01*
X54415417Y-86386079D01*
X54415415Y-86374821D01*
X54415146Y-86363731D01*
X54414612Y-86352810D01*
X54413813Y-86342058D01*
X54412749Y-86331475D01*
X54411421Y-86321062D01*
X54409829Y-86310820D01*
X54407974Y-86300748D01*
X54405855Y-86290846D01*
X54403473Y-86281116D01*
X54400830Y-86271558D01*
X54397924Y-86262172D01*
X54394756Y-86252958D01*
X54391327Y-86243918D01*
X54387637Y-86235050D01*
X54383703Y-86226384D01*
X54379540Y-86217947D01*
X54375147Y-86209738D01*
X54370527Y-86201758D01*
X54365679Y-86194006D01*
X54360603Y-86186481D01*
X54355300Y-86179183D01*
X54349770Y-86172112D01*
X54344014Y-86165267D01*
X54338032Y-86158649D01*
X54331824Y-86152256D01*
X54325391Y-86146088D01*
X54318733Y-86140145D01*
X54311851Y-86134426D01*
X54304745Y-86128931D01*
X54297415Y-86123660D01*
X54289893Y-86118653D01*
X54282210Y-86113948D01*
X54274365Y-86109547D01*
X54266359Y-86105449D01*
X54258192Y-86101653D01*
X54249864Y-86098159D01*
X54241374Y-86094967D01*
X54232724Y-86092075D01*
X54223912Y-86089485D01*
X54214938Y-86087194D01*
X54205804Y-86085204D01*
X54196509Y-86083513D01*
X54187052Y-86082122D01*
X54177434Y-86081029D01*
X54167655Y-86080235D01*
X54157715Y-86079739D01*
X54147768Y-86079547D01*
X54137970Y-86079665D01*
X54128320Y-86080093D01*
X54118817Y-86080831D01*
X54109462Y-86081879D01*
X54100254Y-86083237D01*
X54091192Y-86084905D01*
X54082276Y-86086884D01*
X54073506Y-86089172D01*
X54064881Y-86091770D01*
X54056401Y-86094678D01*
X54048066Y-86097897D01*
X54039875Y-86101425D01*
X54031828Y-86105264D01*
X54023924Y-86109412D01*
X54016164Y-86113871D01*
X54008576Y-86118605D01*
X54001194Y-86123582D01*
X53994016Y-86128800D01*
X53987043Y-86134260D01*
X53980274Y-86139962D01*
X53973710Y-86145906D01*
X53967351Y-86152092D01*
X53961196Y-86158519D01*
X53955246Y-86165189D01*
X53949501Y-86172100D01*
X53943960Y-86179253D01*
X53938624Y-86186648D01*
X53933493Y-86194284D01*
X53928566Y-86202163D01*
X53923844Y-86210283D01*
X53919327Y-86218645D01*
X53915036Y-86227225D01*
X53910993Y-86235996D01*
X53907199Y-86244958D01*
X53903654Y-86254112D01*
X53900359Y-86263456D01*
X53897314Y-86272991D01*
X53894519Y-86282715D01*
X53891975Y-86292629D01*
X53889682Y-86302733D01*
X53887641Y-86313024D01*
X53885851Y-86323505D01*
X53884314Y-86334173D01*
X53883030Y-86345029D01*
X53881998Y-86356072D01*
X53881220Y-86367302D01*
X53880696Y-86378718D01*
X53880433Y-86390144D01*
X53600064Y-86390144D01*
X53600059Y-86388331D01*
X53600502Y-86368664D01*
X53601439Y-86348581D01*
X53602859Y-86328815D01*
X53604763Y-86309367D01*
X53607150Y-86290235D01*
X53610021Y-86271422D01*
X53613376Y-86252927D01*
X53617215Y-86234750D01*
X53621537Y-86216892D01*
X53626343Y-86199354D01*
X53631632Y-86182135D01*
X53637405Y-86165237D01*
X53643662Y-86148659D01*
X53650403Y-86132401D01*
X53657628Y-86116466D01*
X53665336Y-86100852D01*
X53673528Y-86085560D01*
X53682135Y-86070686D01*
X53691089Y-86056228D01*
X53700390Y-86042186D01*
X53710036Y-86028559D01*
X53720029Y-86015347D01*
X53730367Y-86002551D01*
X53741049Y-85990171D01*
X53752076Y-85978205D01*
X53763448Y-85966656D01*
X53775163Y-85955522D01*
X53787221Y-85944803D01*
X53799623Y-85934499D01*
X53812367Y-85924612D01*
X53825453Y-85915139D01*
X53838881Y-85906082D01*
X53852651Y-85897441D01*
X53866696Y-85889336D01*
X53880952Y-85881790D01*
X53895418Y-85874803D01*
X53910094Y-85868375D01*
X53924979Y-85862506D01*
X53940073Y-85857198D01*
X53955376Y-85852449D01*
X53970886Y-85848262D01*
X53986605Y-85844636D01*
X54002531Y-85841572D01*
X54018663Y-85839069D01*
X54035002Y-85837129D01*
X54051548Y-85835752D01*
X54068299Y-85834937D01*
X54085255Y-85834687D01*
X54102417Y-85835000D01*
G37*
G36*
X53479587Y-85921121D02*
G01*
X53487946Y-85921518D01*
X53496157Y-85922114D01*
X53504218Y-85922907D01*
X53512131Y-85923900D01*
X53519822Y-85925028D01*
X53527221Y-85926231D01*
X53534335Y-85927509D01*
X53541169Y-85928861D01*
X53547731Y-85930287D01*
X53554026Y-85931788D01*
X53560061Y-85933363D01*
X53565842Y-85935013D01*
X53507898Y-86246956D01*
X53501510Y-86244328D01*
X53494843Y-86241801D01*
X53487890Y-86239380D01*
X53480646Y-86237068D01*
X53473105Y-86234867D01*
X53465259Y-86232781D01*
X53457103Y-86230812D01*
X53448631Y-86228965D01*
X53439975Y-86227316D01*
X53431268Y-86225943D01*
X53422512Y-86224849D01*
X53413707Y-86224037D01*
X53404851Y-86223510D01*
X53395946Y-86223272D01*
X53386992Y-86223325D01*
X53377988Y-86223673D01*
X53372016Y-86224039D01*
X53366106Y-86224540D01*
X53360259Y-86225176D01*
X53354473Y-86225947D01*
X53348749Y-86226850D01*
X53343088Y-86227887D01*
X53337488Y-86229055D01*
X53331950Y-86230354D01*
X53326475Y-86231783D01*
X53321061Y-86233342D01*
X53315710Y-86235029D01*
X53310420Y-86236844D01*
X53305193Y-86238787D01*
X53300027Y-86240855D01*
X53294923Y-86243050D01*
X53289882Y-86245369D01*
X53284868Y-86247852D01*
X53279946Y-86250442D01*
X53275116Y-86253139D01*
X53270377Y-86255944D01*
X53265727Y-86258857D01*
X53261167Y-86261879D01*
X53256695Y-86265012D01*
X53252310Y-86268255D01*
X53248013Y-86271610D01*
X53243801Y-86275077D01*
X53239675Y-86278658D01*
X53235633Y-86282352D01*
X53231675Y-86286162D01*
X53227800Y-86290086D01*
X53224007Y-86294127D01*
X53220296Y-86298285D01*
X53216681Y-86302493D01*
X53213178Y-86306780D01*
X53209787Y-86311147D01*
X53206509Y-86315591D01*
X53203344Y-86320114D01*
X53200293Y-86324712D01*
X53197356Y-86329387D01*
X53194533Y-86334137D01*
X53191824Y-86338962D01*
X53189231Y-86343860D01*
X53186754Y-86348831D01*
X53184392Y-86353873D01*
X53182146Y-86358988D01*
X53180017Y-86364172D01*
X53178005Y-86369427D01*
X53176111Y-86374750D01*
X53174297Y-86380145D01*
X53172625Y-86385614D01*
X53171096Y-86391157D01*
X53169707Y-86396773D01*
X53168460Y-86402462D01*
X53167353Y-86408223D01*
X53166387Y-86414056D01*
X53165561Y-86419961D01*
X53164874Y-86425937D01*
X53164326Y-86431984D01*
X53163917Y-86438102D01*
X53163646Y-86444290D01*
X53163513Y-86450548D01*
X53163518Y-86456875D01*
X53163660Y-86463271D01*
X53163939Y-86469736D01*
X53192780Y-87017953D01*
X52910735Y-87032769D01*
X52855173Y-85974171D01*
X53125313Y-85959883D01*
X53139600Y-86134508D01*
X53143345Y-86127402D01*
X53147240Y-86120370D01*
X53151283Y-86113412D01*
X53155475Y-86106529D01*
X53159816Y-86099720D01*
X53164305Y-86092985D01*
X53168943Y-86086325D01*
X53173731Y-86079739D01*
X53180155Y-86071256D01*
X53186728Y-86062972D01*
X53193450Y-86054886D01*
X53200321Y-86047001D01*
X53207340Y-86039315D01*
X53214509Y-86031830D01*
X53221826Y-86024546D01*
X53229292Y-86017463D01*
X53236907Y-86010581D01*
X53244671Y-86003901D01*
X53252584Y-85997424D01*
X53260646Y-85991149D01*
X53268856Y-85985078D01*
X53277215Y-85979209D01*
X53285723Y-85973545D01*
X53294380Y-85968085D01*
X53303152Y-85962879D01*
X53312004Y-85957977D01*
X53320937Y-85953378D01*
X53329950Y-85949081D01*
X53339044Y-85945087D01*
X53348219Y-85941394D01*
X53357474Y-85938003D01*
X53366810Y-85934913D01*
X53376226Y-85932124D01*
X53385723Y-85929635D01*
X53395301Y-85927447D01*
X53404959Y-85925557D01*
X53414698Y-85923968D01*
X53424518Y-85922676D01*
X53434418Y-85921684D01*
X53444399Y-85920989D01*
X53444663Y-85921519D01*
X53453617Y-85921121D01*
X53462422Y-85920923D01*
X53471079Y-85920923D01*
X53479587Y-85921121D01*
G37*
G36*
X53211080Y-83632262D02*
G01*
X53218634Y-83632559D01*
X53226076Y-83633053D01*
X53233385Y-83633752D01*
X53240539Y-83634663D01*
X53247515Y-83635795D01*
X53254291Y-83637154D01*
X53260846Y-83638749D01*
X53267157Y-83640588D01*
X53273202Y-83642677D01*
X53278960Y-83645026D01*
X53280019Y-84234518D01*
X53280018Y-84234518D01*
X53164660Y-84237957D01*
X53164660Y-83634177D01*
X53180195Y-83632886D01*
X53195728Y-83632226D01*
X53203438Y-83632153D01*
X53211080Y-83632262D01*
G37*
G36*
X53219791Y-83387258D02*
G01*
X53226211Y-83387951D01*
X53232702Y-83389088D01*
X53239173Y-83390639D01*
X53245533Y-83392574D01*
X53251692Y-83394863D01*
X53257561Y-83397476D01*
X53263048Y-83400384D01*
X53268063Y-83403557D01*
X53272516Y-83406965D01*
X53274504Y-83408747D01*
X53276317Y-83410578D01*
X53277945Y-83412451D01*
X53279375Y-83414365D01*
X53280598Y-83416316D01*
X53281601Y-83418299D01*
X53282373Y-83420310D01*
X53282903Y-83422347D01*
X53283180Y-83424406D01*
X53283192Y-83426482D01*
X53278165Y-83504269D01*
X53277882Y-83505913D01*
X53277244Y-83507425D01*
X53276268Y-83508811D01*
X53274975Y-83510075D01*
X53273382Y-83511222D01*
X53271507Y-83512257D01*
X53269369Y-83513184D01*
X53266986Y-83514009D01*
X53264377Y-83514736D01*
X53261560Y-83515370D01*
X53255375Y-83516380D01*
X53248580Y-83517076D01*
X53241321Y-83517498D01*
X53233746Y-83517684D01*
X53226002Y-83517674D01*
X53210597Y-83517217D01*
X53196282Y-83516437D01*
X53184238Y-83515646D01*
X53184239Y-83515645D01*
X53182303Y-83515385D01*
X53180417Y-83514863D01*
X53178581Y-83514090D01*
X53176797Y-83513082D01*
X53175066Y-83511850D01*
X53173388Y-83510408D01*
X53171765Y-83508769D01*
X53170199Y-83506947D01*
X53168690Y-83504954D01*
X53167240Y-83502804D01*
X53165849Y-83500509D01*
X53164519Y-83498084D01*
X53163251Y-83495540D01*
X53162046Y-83492892D01*
X53159831Y-83487335D01*
X53157882Y-83481517D01*
X53156210Y-83475544D01*
X53154822Y-83469522D01*
X53153729Y-83463555D01*
X53152940Y-83457750D01*
X53152464Y-83452211D01*
X53152311Y-83447044D01*
X53152489Y-83442355D01*
X53152755Y-83439737D01*
X53153156Y-83437145D01*
X53153687Y-83434580D01*
X53154343Y-83432047D01*
X53155122Y-83429549D01*
X53156018Y-83427089D01*
X53157028Y-83424670D01*
X53158148Y-83422297D01*
X53159374Y-83419971D01*
X53160701Y-83417697D01*
X53162127Y-83415477D01*
X53163646Y-83413315D01*
X53165254Y-83411215D01*
X53166949Y-83409179D01*
X53168725Y-83407211D01*
X53170579Y-83405314D01*
X53174504Y-83401747D01*
X53178691Y-83398503D01*
X53180872Y-83397011D01*
X53183108Y-83395610D01*
X53185393Y-83394303D01*
X53187723Y-83393094D01*
X53190095Y-83391985D01*
X53192504Y-83390981D01*
X53194947Y-83390083D01*
X53197419Y-83389297D01*
X53199917Y-83388624D01*
X53202435Y-83388069D01*
X53204972Y-83387634D01*
X53207521Y-83387323D01*
X53213531Y-83387039D01*
X53219791Y-83387258D01*
G37*
G36*
X52402688Y-82633551D02*
G01*
X52415559Y-82634891D01*
X52428313Y-82636921D01*
X52440915Y-82639648D01*
X52453335Y-82643080D01*
X52465541Y-82647223D01*
X52477501Y-82652085D01*
X52489183Y-82657671D01*
X52500556Y-82663990D01*
X52511587Y-82671048D01*
X52522245Y-82678852D01*
X52532497Y-82687408D01*
X52542313Y-82696725D01*
X52551659Y-82706808D01*
X52560505Y-82717665D01*
X52568819Y-82729303D01*
X52568819Y-82729832D01*
X52577001Y-82742694D01*
X52584580Y-82755960D01*
X52591558Y-82769600D01*
X52597939Y-82783585D01*
X52608916Y-82812477D01*
X52617527Y-82842404D01*
X52623792Y-82873134D01*
X52627727Y-82904436D01*
X52629351Y-82936076D01*
X52628681Y-82967825D01*
X52625735Y-82999449D01*
X52620532Y-83030718D01*
X52613088Y-83061399D01*
X52603422Y-83091261D01*
X52591551Y-83120072D01*
X52577494Y-83147600D01*
X52569651Y-83160810D01*
X52561267Y-83173613D01*
X52552347Y-83185979D01*
X52542890Y-83197880D01*
X52534308Y-83207601D01*
X52525343Y-83216582D01*
X52516018Y-83224833D01*
X52506356Y-83232367D01*
X52496380Y-83239193D01*
X52486110Y-83245324D01*
X52475571Y-83250770D01*
X52464784Y-83255543D01*
X52453772Y-83259654D01*
X52442557Y-83263114D01*
X52431162Y-83265935D01*
X52419609Y-83268127D01*
X52407921Y-83269702D01*
X52396119Y-83270672D01*
X52384227Y-83271047D01*
X52372267Y-83270839D01*
X52360261Y-83270059D01*
X52348232Y-83268718D01*
X52336201Y-83266827D01*
X52324193Y-83264398D01*
X52300330Y-83257970D01*
X52276823Y-83249524D01*
X52253850Y-83239148D01*
X52231592Y-83226935D01*
X52210227Y-83212972D01*
X52189936Y-83197351D01*
X52179617Y-83430714D01*
X52178139Y-83432988D01*
X52176347Y-83435101D01*
X52174257Y-83437055D01*
X52171886Y-83438853D01*
X52169253Y-83440496D01*
X52166373Y-83441988D01*
X52163264Y-83443332D01*
X52159942Y-83444530D01*
X52152732Y-83446497D01*
X52144879Y-83447912D01*
X52136520Y-83448796D01*
X52127791Y-83449168D01*
X52118830Y-83449051D01*
X52109773Y-83448465D01*
X52100757Y-83447430D01*
X52091919Y-83445969D01*
X52083396Y-83444101D01*
X52075325Y-83441848D01*
X52067841Y-83439231D01*
X52061083Y-83436270D01*
X52061083Y-82947264D01*
X52187752Y-82947264D01*
X52188005Y-82961268D01*
X52188830Y-82975162D01*
X52190215Y-82988903D01*
X52192148Y-83002449D01*
X52194616Y-83015755D01*
X52197607Y-83028779D01*
X52201110Y-83041476D01*
X52205113Y-83053803D01*
X52209604Y-83065717D01*
X52214570Y-83077174D01*
X52219999Y-83088131D01*
X52225880Y-83098545D01*
X52232200Y-83108371D01*
X52238948Y-83117567D01*
X52246112Y-83126089D01*
X52253679Y-83133893D01*
X52261637Y-83140937D01*
X52269975Y-83147176D01*
X52278680Y-83152567D01*
X52287741Y-83157067D01*
X52297145Y-83160632D01*
X52306880Y-83163219D01*
X52316586Y-83164914D01*
X52326780Y-83166021D01*
X52337355Y-83166531D01*
X52348205Y-83166432D01*
X52359222Y-83165715D01*
X52370300Y-83164369D01*
X52381331Y-83162383D01*
X52392209Y-83159748D01*
X52402826Y-83156451D01*
X52413076Y-83152484D01*
X52418029Y-83150246D01*
X52422851Y-83147836D01*
X52427527Y-83145253D01*
X52432045Y-83142496D01*
X52436391Y-83139563D01*
X52440551Y-83136453D01*
X52444512Y-83133166D01*
X52448261Y-83129698D01*
X52451785Y-83126050D01*
X52455069Y-83122220D01*
X52458102Y-83118206D01*
X52460868Y-83114008D01*
X52460603Y-83114007D01*
X52470100Y-83097444D01*
X52478466Y-83080709D01*
X52485722Y-83063821D01*
X52491890Y-83046803D01*
X52496991Y-83029672D01*
X52501047Y-83012450D01*
X52504080Y-82995157D01*
X52506111Y-82977813D01*
X52507163Y-82960437D01*
X52507256Y-82943051D01*
X52506413Y-82925674D01*
X52504656Y-82908326D01*
X52502005Y-82891029D01*
X52498484Y-82873800D01*
X52494112Y-82856662D01*
X52488913Y-82839634D01*
X52487051Y-82834399D01*
X52484993Y-82829263D01*
X52480307Y-82819298D01*
X52474905Y-82809761D01*
X52468834Y-82800674D01*
X52462141Y-82792058D01*
X52454874Y-82783935D01*
X52447080Y-82776327D01*
X52438808Y-82769255D01*
X52430105Y-82762741D01*
X52421019Y-82756807D01*
X52411596Y-82751474D01*
X52401886Y-82746765D01*
X52391936Y-82742701D01*
X52381793Y-82739303D01*
X52371505Y-82736594D01*
X52361120Y-82734595D01*
X52356641Y-82734023D01*
X52352042Y-82733695D01*
X52347336Y-82733604D01*
X52342535Y-82733745D01*
X52337652Y-82734113D01*
X52332698Y-82734704D01*
X52327685Y-82735511D01*
X52322627Y-82736529D01*
X52312422Y-82739180D01*
X52302179Y-82742613D01*
X52291998Y-82746787D01*
X52281976Y-82751660D01*
X52272212Y-82757191D01*
X52262803Y-82763337D01*
X52253847Y-82770057D01*
X52249570Y-82773619D01*
X52245443Y-82777308D01*
X52241479Y-82781121D01*
X52237689Y-82785050D01*
X52234086Y-82789091D01*
X52230682Y-82793239D01*
X52227489Y-82797489D01*
X52224521Y-82801835D01*
X52221788Y-82806272D01*
X52219303Y-82810795D01*
X52213179Y-82823498D01*
X52207747Y-82836528D01*
X52202994Y-82849839D01*
X52198909Y-82863389D01*
X52195481Y-82877134D01*
X52192695Y-82891030D01*
X52190542Y-82905035D01*
X52189008Y-82919105D01*
X52188082Y-82933196D01*
X52187752Y-82947264D01*
X52061083Y-82947264D01*
X52061083Y-82653633D01*
X52156862Y-82645166D01*
X52158711Y-82645118D01*
X52160491Y-82645315D01*
X52162203Y-82645746D01*
X52163852Y-82646399D01*
X52165441Y-82647263D01*
X52166971Y-82648327D01*
X52168448Y-82649581D01*
X52169872Y-82651011D01*
X52171248Y-82652609D01*
X52172579Y-82654362D01*
X52175117Y-82658291D01*
X52177509Y-82662707D01*
X52179782Y-82667523D01*
X52181957Y-82672649D01*
X52184062Y-82677996D01*
X52188153Y-82688996D01*
X52192250Y-82699810D01*
X52194362Y-82704924D01*
X52196549Y-82709724D01*
X52206569Y-82700384D01*
X52217011Y-82691617D01*
X52227844Y-82683429D01*
X52239035Y-82675828D01*
X52250554Y-82668821D01*
X52262367Y-82662414D01*
X52274444Y-82656614D01*
X52286752Y-82651429D01*
X52299260Y-82646865D01*
X52311935Y-82642929D01*
X52324747Y-82639629D01*
X52337662Y-82636970D01*
X52350650Y-82634961D01*
X52363678Y-82633607D01*
X52376715Y-82632917D01*
X52389729Y-82632896D01*
X52402688Y-82633551D01*
G37*
G36*
X55469521Y-88591163D02*
G01*
X55201233Y-88600423D01*
X55190649Y-88452257D01*
X55187127Y-88457590D01*
X55183501Y-88462873D01*
X55179771Y-88468107D01*
X55175932Y-88473291D01*
X55171981Y-88478425D01*
X55167916Y-88483510D01*
X55163732Y-88488546D01*
X55159428Y-88493532D01*
X55152592Y-88501172D01*
X55145575Y-88508613D01*
X55138379Y-88515858D01*
X55131002Y-88522905D01*
X55123446Y-88529755D01*
X55115710Y-88536408D01*
X55107794Y-88542866D01*
X55099699Y-88549127D01*
X55091423Y-88555194D01*
X55082968Y-88561065D01*
X55074332Y-88566742D01*
X55065517Y-88572225D01*
X55056523Y-88577514D01*
X55047348Y-88582609D01*
X55037994Y-88587512D01*
X55028459Y-88592222D01*
X55018829Y-88596702D01*
X55009088Y-88600916D01*
X54999236Y-88604865D01*
X54989276Y-88608548D01*
X54979207Y-88611965D01*
X54969030Y-88615118D01*
X54958747Y-88618007D01*
X54948357Y-88620632D01*
X54937861Y-88622993D01*
X54927261Y-88625091D01*
X54916558Y-88626926D01*
X54905751Y-88628499D01*
X54894841Y-88629810D01*
X54883830Y-88630859D01*
X54872719Y-88631647D01*
X54861507Y-88632174D01*
X54847331Y-88632465D01*
X54833378Y-88632348D01*
X54819649Y-88631822D01*
X54806143Y-88630888D01*
X54792860Y-88629546D01*
X54779800Y-88627797D01*
X54766964Y-88625641D01*
X54754351Y-88623078D01*
X54741961Y-88620110D01*
X54729794Y-88616735D01*
X54717850Y-88612955D01*
X54706130Y-88608770D01*
X54694633Y-88604181D01*
X54683360Y-88599187D01*
X54672309Y-88593789D01*
X54661482Y-88587988D01*
X54650869Y-88581762D01*
X54640560Y-88575188D01*
X54630554Y-88568265D01*
X54620852Y-88560993D01*
X54611455Y-88553370D01*
X54602361Y-88545396D01*
X54593570Y-88537070D01*
X54585084Y-88528391D01*
X54576902Y-88519359D01*
X54569023Y-88509973D01*
X54561448Y-88500231D01*
X54554177Y-88490134D01*
X54547210Y-88479680D01*
X54540547Y-88468869D01*
X54534188Y-88457700D01*
X54528133Y-88446172D01*
X54522350Y-88434359D01*
X54516908Y-88422237D01*
X54511805Y-88409806D01*
X54507041Y-88397067D01*
X54502615Y-88384021D01*
X54498526Y-88370670D01*
X54494773Y-88357012D01*
X54491356Y-88343050D01*
X54488274Y-88328785D01*
X54485526Y-88314216D01*
X54483111Y-88299345D01*
X54481029Y-88284172D01*
X54479279Y-88268699D01*
X54477859Y-88252926D01*
X54476770Y-88236853D01*
X54476010Y-88220482D01*
X54453256Y-87565639D01*
X54733714Y-87555849D01*
X54754881Y-88162803D01*
X54755313Y-88171994D01*
X54755912Y-88181011D01*
X54756680Y-88189855D01*
X54757618Y-88198526D01*
X54758727Y-88207026D01*
X54760007Y-88215354D01*
X54761459Y-88223510D01*
X54763083Y-88231496D01*
X54764882Y-88239311D01*
X54766855Y-88246956D01*
X54769003Y-88254431D01*
X54771327Y-88261737D01*
X54773827Y-88268874D01*
X54776505Y-88275842D01*
X54779362Y-88282642D01*
X54782398Y-88289274D01*
X54785560Y-88295680D01*
X54788895Y-88301899D01*
X54792402Y-88307930D01*
X54796081Y-88313773D01*
X54799930Y-88319427D01*
X54803949Y-88324891D01*
X54808137Y-88330164D01*
X54812493Y-88335246D01*
X54817017Y-88340135D01*
X54821707Y-88344832D01*
X54826563Y-88349334D01*
X54831585Y-88353642D01*
X54836770Y-88357755D01*
X54842119Y-88361672D01*
X54847631Y-88365392D01*
X54853305Y-88368914D01*
X54859128Y-88372222D01*
X54865088Y-88375301D01*
X54871187Y-88378149D01*
X54877424Y-88380767D01*
X54883800Y-88383153D01*
X54890317Y-88385308D01*
X54896975Y-88387232D01*
X54903774Y-88388923D01*
X54910717Y-88390382D01*
X54917802Y-88391608D01*
X54925032Y-88392600D01*
X54932407Y-88393359D01*
X54939928Y-88393884D01*
X54947595Y-88394174D01*
X54955409Y-88394230D01*
X54963371Y-88394050D01*
X54969340Y-88393789D01*
X54975241Y-88393405D01*
X54981074Y-88392896D01*
X54986841Y-88392264D01*
X54992540Y-88391507D01*
X54998174Y-88390627D01*
X55003741Y-88389622D01*
X55009243Y-88388494D01*
X55014680Y-88387241D01*
X55020053Y-88385864D01*
X55025360Y-88384364D01*
X55030604Y-88382739D01*
X55035785Y-88380990D01*
X55040902Y-88379117D01*
X55045956Y-88377121D01*
X55050948Y-88375000D01*
X55055859Y-88372820D01*
X55060671Y-88370547D01*
X55065384Y-88368180D01*
X55069998Y-88365719D01*
X55074513Y-88363163D01*
X55078928Y-88360512D01*
X55083244Y-88357766D01*
X55087461Y-88354925D01*
X55091579Y-88351987D01*
X55095597Y-88348952D01*
X55099516Y-88345821D01*
X55103336Y-88342593D01*
X55107057Y-88339266D01*
X55110679Y-88335842D01*
X55114201Y-88332319D01*
X55117624Y-88328698D01*
X55120954Y-88324989D01*
X55124197Y-88321205D01*
X55127352Y-88317346D01*
X55130419Y-88313409D01*
X55133398Y-88309395D01*
X55136288Y-88305303D01*
X55139089Y-88301132D01*
X55141800Y-88296881D01*
X55144421Y-88292549D01*
X55146952Y-88288136D01*
X55149393Y-88283641D01*
X55151742Y-88279063D01*
X55154000Y-88274401D01*
X55156166Y-88269655D01*
X55158239Y-88264823D01*
X55160220Y-88259906D01*
X55162090Y-88254929D01*
X55163829Y-88249921D01*
X55165437Y-88244882D01*
X55166914Y-88239810D01*
X55168259Y-88234705D01*
X55169472Y-88229568D01*
X55170552Y-88224397D01*
X55171499Y-88219193D01*
X55172313Y-88213954D01*
X55172993Y-88208681D01*
X55173539Y-88203373D01*
X55173951Y-88198030D01*
X55174228Y-88192651D01*
X55174369Y-88187237D01*
X55174375Y-88181786D01*
X55174245Y-88176298D01*
X55174246Y-88176296D01*
X55152020Y-87541561D01*
X55432478Y-87531771D01*
X55469521Y-88591163D01*
G37*
G36*
X56037001Y-85940460D02*
G01*
X56000000Y-87000000D01*
X55719714Y-86990212D01*
X55756714Y-85930672D01*
X56037001Y-85940460D01*
G37*
G36*
X56834959Y-83396317D02*
G01*
X56845277Y-83573852D01*
X56975983Y-83580731D01*
X56976173Y-83583691D01*
X56976250Y-83587348D01*
X56976089Y-83596362D01*
X56975545Y-83606995D01*
X56974659Y-83618468D01*
X56973475Y-83630002D01*
X56972038Y-83640821D01*
X56971237Y-83645718D01*
X56970389Y-83650145D01*
X56969499Y-83654003D01*
X56968573Y-83657196D01*
X56840779Y-83665927D01*
X56841309Y-84072591D01*
X56840781Y-84072592D01*
X56855390Y-84076618D01*
X56871187Y-84080538D01*
X56887797Y-84084322D01*
X56904843Y-84087938D01*
X56938747Y-84094545D01*
X56969898Y-84100109D01*
X56970927Y-84100778D01*
X56971883Y-84101731D01*
X56972766Y-84102952D01*
X56973576Y-84104425D01*
X56974315Y-84106133D01*
X56974984Y-84108060D01*
X56976111Y-84112507D01*
X56976964Y-84117635D01*
X56977548Y-84123312D01*
X56977870Y-84129409D01*
X56977934Y-84135795D01*
X56977748Y-84142338D01*
X56977316Y-84148910D01*
X56976644Y-84155378D01*
X56975739Y-84161612D01*
X56974606Y-84167482D01*
X56973251Y-84172858D01*
X56971679Y-84177607D01*
X56970814Y-84179707D01*
X56969898Y-84181601D01*
X56952073Y-84184021D01*
X56933046Y-84185915D01*
X56913138Y-84187126D01*
X56892672Y-84187492D01*
X56871971Y-84186855D01*
X56851356Y-84185056D01*
X56831150Y-84181936D01*
X56811677Y-84177334D01*
X56802315Y-84174429D01*
X56793257Y-84171093D01*
X56784543Y-84167307D01*
X56776214Y-84163052D01*
X56768310Y-84158306D01*
X56760870Y-84153052D01*
X56753936Y-84147267D01*
X56747548Y-84140933D01*
X56741746Y-84134030D01*
X56736570Y-84126538D01*
X56732061Y-84118437D01*
X56728258Y-84109706D01*
X56725203Y-84100326D01*
X56722936Y-84090278D01*
X56721496Y-84079541D01*
X56720924Y-84068095D01*
X56716428Y-83667515D01*
X56633083Y-83654814D01*
X56631380Y-83654351D01*
X56629795Y-83653523D01*
X56628327Y-83652354D01*
X56626974Y-83650869D01*
X56625736Y-83649092D01*
X56624613Y-83647047D01*
X56623603Y-83644758D01*
X56622706Y-83642251D01*
X56621922Y-83639548D01*
X56621250Y-83636675D01*
X56620238Y-83630514D01*
X56619664Y-83623961D01*
X56619524Y-83617210D01*
X56619811Y-83610457D01*
X56620521Y-83603895D01*
X56621648Y-83597718D01*
X56623187Y-83592121D01*
X56624109Y-83589600D01*
X56625132Y-83587297D01*
X56626254Y-83585235D01*
X56627477Y-83583440D01*
X56628798Y-83581936D01*
X56630218Y-83580746D01*
X56631734Y-83579896D01*
X56633348Y-83579408D01*
X56718543Y-83570941D01*
X56749764Y-83403460D01*
X56752433Y-83402409D01*
X56755823Y-83401438D01*
X56759856Y-83400549D01*
X56764453Y-83399739D01*
X56769535Y-83399011D01*
X56775023Y-83398363D01*
X56786905Y-83397309D01*
X56799469Y-83396577D01*
X56812086Y-83396168D01*
X56824126Y-83396081D01*
X56834959Y-83396317D01*
G37*
G36*
X57231354Y-88655546D02*
G01*
X56951068Y-88665333D01*
X56914067Y-87605794D01*
X57194354Y-87596006D01*
X57231354Y-88655546D01*
G37*
G36*
X57053717Y-87076111D02*
G01*
X57063289Y-87076569D01*
X57072581Y-87077351D01*
X57081595Y-87078455D01*
X57090329Y-87079881D01*
X57098784Y-87081630D01*
X57106961Y-87083701D01*
X57114858Y-87086094D01*
X57122476Y-87088811D01*
X57129815Y-87091849D01*
X57136875Y-87095210D01*
X57143656Y-87098894D01*
X57150158Y-87102900D01*
X57156381Y-87107229D01*
X57162325Y-87111880D01*
X57162590Y-87111614D01*
X57168221Y-87116609D01*
X57173505Y-87121873D01*
X57178444Y-87127405D01*
X57183038Y-87133207D01*
X57187287Y-87139281D01*
X57191193Y-87145627D01*
X57194757Y-87152246D01*
X57197978Y-87159141D01*
X57200859Y-87166311D01*
X57203399Y-87173758D01*
X57205600Y-87181484D01*
X57207462Y-87189489D01*
X57208986Y-87197775D01*
X57210172Y-87206342D01*
X57211023Y-87215192D01*
X57211537Y-87224327D01*
X57211649Y-87232717D01*
X57211390Y-87240921D01*
X57210760Y-87248938D01*
X57209760Y-87256767D01*
X57208392Y-87264409D01*
X57206655Y-87271864D01*
X57204550Y-87279129D01*
X57202079Y-87286206D01*
X57199243Y-87293094D01*
X57196041Y-87299793D01*
X57192474Y-87306301D01*
X57188544Y-87312619D01*
X57184252Y-87318747D01*
X57179597Y-87324683D01*
X57174581Y-87330428D01*
X57169205Y-87335982D01*
X57163509Y-87341280D01*
X57157534Y-87346263D01*
X57151281Y-87350928D01*
X57144748Y-87355275D01*
X57137936Y-87359305D01*
X57130845Y-87363017D01*
X57123475Y-87366410D01*
X57115825Y-87369484D01*
X57107897Y-87372239D01*
X57099690Y-87374674D01*
X57091203Y-87376789D01*
X57082438Y-87378584D01*
X57073394Y-87380057D01*
X57064070Y-87381209D01*
X57054468Y-87382040D01*
X57044586Y-87382548D01*
X57034695Y-87382734D01*
X57025064Y-87382598D01*
X57015691Y-87382139D01*
X57006577Y-87381358D01*
X56997720Y-87380254D01*
X56989119Y-87378828D01*
X56980775Y-87377079D01*
X56972685Y-87375008D01*
X56964850Y-87372614D01*
X56957268Y-87369898D01*
X56949939Y-87366859D01*
X56942862Y-87363498D01*
X56936036Y-87359814D01*
X56929460Y-87355808D01*
X56923134Y-87351480D01*
X56917056Y-87346829D01*
X56911280Y-87341887D01*
X56905857Y-87336683D01*
X56900787Y-87331219D01*
X56896071Y-87325493D01*
X56891709Y-87319505D01*
X56887700Y-87313254D01*
X56884044Y-87306741D01*
X56880742Y-87299965D01*
X56877793Y-87292925D01*
X56875198Y-87285621D01*
X56872956Y-87278053D01*
X56871068Y-87270220D01*
X56869534Y-87262122D01*
X56868352Y-87253758D01*
X56867525Y-87245129D01*
X56867050Y-87236233D01*
X56866939Y-87227840D01*
X56867199Y-87219627D01*
X56867833Y-87211593D01*
X56868840Y-87203739D01*
X56870220Y-87196065D01*
X56871975Y-87188571D01*
X56874104Y-87181257D01*
X56876608Y-87174123D01*
X56879487Y-87167168D01*
X56882742Y-87160393D01*
X56886372Y-87153798D01*
X56890379Y-87147383D01*
X56894763Y-87141148D01*
X56899523Y-87135093D01*
X56904662Y-87129217D01*
X56910178Y-87123521D01*
X56915934Y-87118126D01*
X56921900Y-87113054D01*
X56928087Y-87108305D01*
X56934506Y-87103880D01*
X56941169Y-87099779D01*
X56948086Y-87096002D01*
X56955269Y-87092550D01*
X56962730Y-87089423D01*
X56970478Y-87086622D01*
X56978527Y-87084146D01*
X56986886Y-87081997D01*
X56995567Y-87080175D01*
X57004582Y-87078679D01*
X57013941Y-87077512D01*
X57023655Y-87076672D01*
X57033737Y-87076160D01*
X57043867Y-87075974D01*
X57053717Y-87076111D01*
G37*
G36*
X54084219Y-83491701D02*
G01*
X54084087Y-83491833D01*
X54084089Y-83491644D01*
X54084351Y-83491568D01*
X54084219Y-83491701D01*
G37*
G36*
X57492523Y-85835000D02*
G01*
X57511847Y-85836042D01*
X57521342Y-85836825D01*
X57530727Y-85837782D01*
X57540002Y-85838915D01*
X57549167Y-85840223D01*
X57558223Y-85841707D01*
X57567170Y-85843367D01*
X57576008Y-85845204D01*
X57584738Y-85847218D01*
X57593360Y-85849410D01*
X57601875Y-85851780D01*
X57610283Y-85854328D01*
X57618585Y-85857054D01*
X57626780Y-85859960D01*
X57634869Y-85863045D01*
X57642841Y-85866286D01*
X57650682Y-85869656D01*
X57658393Y-85873155D01*
X57665974Y-85876784D01*
X57673425Y-85880541D01*
X57680745Y-85884426D01*
X57687936Y-85888440D01*
X57694996Y-85892580D01*
X57701925Y-85896848D01*
X57708725Y-85901243D01*
X57715394Y-85905764D01*
X57721934Y-85910411D01*
X57728342Y-85915183D01*
X57734621Y-85920081D01*
X57740770Y-85925104D01*
X57746788Y-85930250D01*
X57751796Y-85934656D01*
X57756700Y-85939141D01*
X57761502Y-85943705D01*
X57766202Y-85948345D01*
X57770804Y-85953062D01*
X57775308Y-85957853D01*
X57779716Y-85962718D01*
X57784029Y-85967656D01*
X57788249Y-85972665D01*
X57792378Y-85977743D01*
X57800367Y-85988107D01*
X57808009Y-85998737D01*
X57815054Y-86009236D01*
X57820076Y-85868337D01*
X58098419Y-85878126D01*
X58061376Y-86937518D01*
X57779067Y-86927729D01*
X57783829Y-86789088D01*
X57775098Y-86798786D01*
X57765974Y-86808237D01*
X57756458Y-86817439D01*
X57746556Y-86826394D01*
X57736268Y-86835100D01*
X57725600Y-86843558D01*
X57714553Y-86851769D01*
X57703131Y-86859731D01*
X57689153Y-86868797D01*
X57674804Y-86877343D01*
X57660082Y-86885367D01*
X57644989Y-86892870D01*
X57629523Y-86899853D01*
X57613685Y-86906314D01*
X57597475Y-86912255D01*
X57580893Y-86917675D01*
X57572484Y-86920211D01*
X57564025Y-86922561D01*
X57555514Y-86924726D01*
X57546952Y-86926704D01*
X57538337Y-86928496D01*
X57529669Y-86930102D01*
X57512168Y-86932756D01*
X57494444Y-86934666D01*
X57476490Y-86935832D01*
X57458301Y-86936254D01*
X57439870Y-86935931D01*
X57423468Y-86935060D01*
X57407300Y-86933636D01*
X57391367Y-86931660D01*
X57375667Y-86929131D01*
X57360200Y-86926048D01*
X57344964Y-86922411D01*
X57329960Y-86918220D01*
X57315185Y-86913475D01*
X57300640Y-86908174D01*
X57286324Y-86902318D01*
X57272236Y-86895907D01*
X57258375Y-86888939D01*
X57244740Y-86881414D01*
X57231330Y-86873333D01*
X57218146Y-86864694D01*
X57205185Y-86855498D01*
X57192510Y-86845827D01*
X57180182Y-86835765D01*
X57168200Y-86825310D01*
X57156564Y-86814463D01*
X57145274Y-86803221D01*
X57134330Y-86791585D01*
X57123730Y-86779554D01*
X57113475Y-86767127D01*
X57103564Y-86754303D01*
X57093996Y-86741081D01*
X57084772Y-86727461D01*
X57075891Y-86713441D01*
X57067353Y-86699022D01*
X57059157Y-86684202D01*
X57051303Y-86668980D01*
X57043790Y-86653356D01*
X57036699Y-86637436D01*
X57030110Y-86621318D01*
X57024024Y-86604992D01*
X57018440Y-86588446D01*
X57013358Y-86571669D01*
X57008778Y-86554650D01*
X57004701Y-86537378D01*
X57001126Y-86519840D01*
X56998053Y-86502027D01*
X56995483Y-86483927D01*
X56993414Y-86465528D01*
X56991848Y-86446819D01*
X56990785Y-86427790D01*
X56990224Y-86408428D01*
X56990169Y-86390144D01*
X57270539Y-86390144D01*
X57270541Y-86401402D01*
X57270810Y-86412491D01*
X57271344Y-86423412D01*
X57272143Y-86434164D01*
X57273207Y-86444747D01*
X57274535Y-86455160D01*
X57276127Y-86465403D01*
X57277982Y-86475475D01*
X57280101Y-86485376D01*
X57282483Y-86495106D01*
X57285126Y-86504664D01*
X57288032Y-86514051D01*
X57291200Y-86523264D01*
X57294629Y-86532305D01*
X57298319Y-86541173D01*
X57302250Y-86549839D01*
X57306405Y-86558276D01*
X57310781Y-86566485D01*
X57315380Y-86574465D01*
X57320201Y-86582217D01*
X57325243Y-86589742D01*
X57330506Y-86597040D01*
X57335989Y-86604110D01*
X57341693Y-86610955D01*
X57347616Y-86617574D01*
X57353759Y-86623967D01*
X57360120Y-86630135D01*
X57366701Y-86636078D01*
X57373499Y-86641796D01*
X57380515Y-86647291D01*
X57387749Y-86652562D01*
X57395174Y-86657569D01*
X57402768Y-86662273D01*
X57410528Y-86666674D01*
X57418456Y-86670773D01*
X57426552Y-86674569D01*
X57434815Y-86678063D01*
X57443245Y-86681255D01*
X57451843Y-86684147D01*
X57460609Y-86686737D01*
X57469541Y-86689028D01*
X57478642Y-86691018D01*
X57487909Y-86692709D01*
X57497344Y-86694100D01*
X57506947Y-86695193D01*
X57516717Y-86695987D01*
X57526654Y-86696483D01*
X57536607Y-86696675D01*
X57546423Y-86696557D01*
X57556102Y-86696129D01*
X57565644Y-86695391D01*
X57575047Y-86694343D01*
X57584312Y-86692985D01*
X57593438Y-86691317D01*
X57602425Y-86689339D01*
X57611272Y-86687051D01*
X57619980Y-86684452D01*
X57628547Y-86681544D01*
X57636974Y-86678326D01*
X57645259Y-86674797D01*
X57653403Y-86670959D01*
X57661406Y-86666810D01*
X57669266Y-86662352D01*
X57668733Y-86662352D01*
X57676420Y-86657617D01*
X57683901Y-86652641D01*
X57691175Y-86647422D01*
X57698243Y-86641962D01*
X57705103Y-86636260D01*
X57711755Y-86630316D01*
X57718197Y-86624131D01*
X57724429Y-86617703D01*
X57730450Y-86611034D01*
X57736260Y-86604123D01*
X57741857Y-86596970D01*
X57747241Y-86589575D01*
X57752411Y-86581938D01*
X57757367Y-86574059D01*
X57762107Y-86565939D01*
X57766631Y-86557577D01*
X57770922Y-86548997D01*
X57774964Y-86540226D01*
X57778758Y-86531264D01*
X57782303Y-86522110D01*
X57785598Y-86512766D01*
X57788643Y-86503232D01*
X57791438Y-86493507D01*
X57793982Y-86483593D01*
X57796275Y-86473490D01*
X57798316Y-86463198D01*
X57800105Y-86452718D01*
X57801642Y-86442050D01*
X57802927Y-86431194D01*
X57803958Y-86420151D01*
X57804736Y-86408921D01*
X57805260Y-86397504D01*
X57805523Y-86386079D01*
X57805521Y-86374821D01*
X57805252Y-86363731D01*
X57804718Y-86352810D01*
X57803919Y-86342058D01*
X57802855Y-86331475D01*
X57801527Y-86321062D01*
X57799935Y-86310820D01*
X57798080Y-86300748D01*
X57795961Y-86290846D01*
X57793580Y-86281116D01*
X57790936Y-86271558D01*
X57788030Y-86262172D01*
X57784862Y-86252958D01*
X57781433Y-86243918D01*
X57777744Y-86235050D01*
X57773809Y-86226384D01*
X57769646Y-86217947D01*
X57765254Y-86209738D01*
X57760633Y-86201758D01*
X57755785Y-86194006D01*
X57750709Y-86186481D01*
X57745406Y-86179183D01*
X57739876Y-86172112D01*
X57734120Y-86165267D01*
X57728138Y-86158649D01*
X57721930Y-86152256D01*
X57715497Y-86146088D01*
X57708840Y-86140145D01*
X57701957Y-86134426D01*
X57694851Y-86128931D01*
X57687521Y-86123660D01*
X57679999Y-86118653D01*
X57672316Y-86113948D01*
X57664471Y-86109548D01*
X57656466Y-86105449D01*
X57648299Y-86101653D01*
X57639970Y-86098159D01*
X57631481Y-86094967D01*
X57622830Y-86092075D01*
X57614018Y-86089485D01*
X57605045Y-86087195D01*
X57595911Y-86085204D01*
X57586615Y-86083514D01*
X57577159Y-86082122D01*
X57567541Y-86081030D01*
X57557762Y-86080235D01*
X57547821Y-86079739D01*
X57537874Y-86079547D01*
X57528076Y-86079665D01*
X57518426Y-86080093D01*
X57508923Y-86080831D01*
X57499568Y-86081879D01*
X57490360Y-86083237D01*
X57481298Y-86084905D01*
X57472382Y-86086884D01*
X57463612Y-86089172D01*
X57454987Y-86091770D01*
X57446508Y-86094678D01*
X57438172Y-86097897D01*
X57429981Y-86101425D01*
X57421934Y-86105264D01*
X57414031Y-86109412D01*
X57406270Y-86113871D01*
X57398683Y-86118605D01*
X57391300Y-86123582D01*
X57384122Y-86128800D01*
X57377149Y-86134260D01*
X57370380Y-86139962D01*
X57363816Y-86145906D01*
X57357457Y-86152092D01*
X57351303Y-86158519D01*
X57345353Y-86165189D01*
X57339607Y-86172100D01*
X57334067Y-86179253D01*
X57328731Y-86186648D01*
X57323599Y-86194284D01*
X57318673Y-86202163D01*
X57313951Y-86210283D01*
X57309433Y-86218645D01*
X57305142Y-86227225D01*
X57301099Y-86235996D01*
X57297305Y-86244958D01*
X57293760Y-86254112D01*
X57290465Y-86263456D01*
X57287420Y-86272991D01*
X57284625Y-86282715D01*
X57282081Y-86292629D01*
X57279788Y-86302733D01*
X57277747Y-86313024D01*
X57275957Y-86323505D01*
X57274420Y-86334173D01*
X57273136Y-86345029D01*
X57272104Y-86356072D01*
X57271327Y-86367302D01*
X57270802Y-86378718D01*
X57270539Y-86390144D01*
X56990169Y-86390144D01*
X56990165Y-86388723D01*
X56990608Y-86368664D01*
X56991545Y-86348581D01*
X56992965Y-86328815D01*
X56994869Y-86309367D01*
X56997256Y-86290235D01*
X57000127Y-86271422D01*
X57003482Y-86252927D01*
X57007321Y-86234750D01*
X57011643Y-86216892D01*
X57016449Y-86199354D01*
X57021738Y-86182135D01*
X57027512Y-86165237D01*
X57033769Y-86148659D01*
X57040509Y-86132401D01*
X57047734Y-86116466D01*
X57055442Y-86100852D01*
X57063634Y-86085560D01*
X57072241Y-86070686D01*
X57081195Y-86056228D01*
X57090496Y-86042186D01*
X57100143Y-86028559D01*
X57110135Y-86015347D01*
X57120473Y-86002551D01*
X57131155Y-85990171D01*
X57142183Y-85978205D01*
X57153554Y-85966656D01*
X57165269Y-85955522D01*
X57177328Y-85944803D01*
X57189729Y-85934499D01*
X57202473Y-85924612D01*
X57215559Y-85915139D01*
X57228987Y-85906082D01*
X57242757Y-85897441D01*
X57256802Y-85889336D01*
X57271059Y-85881790D01*
X57285525Y-85874803D01*
X57300201Y-85868375D01*
X57315086Y-85862506D01*
X57330180Y-85857198D01*
X57345482Y-85852449D01*
X57360993Y-85848262D01*
X57376711Y-85844636D01*
X57392637Y-85841572D01*
X57408769Y-85839069D01*
X57425109Y-85837129D01*
X57441654Y-85835752D01*
X57458405Y-85834937D01*
X57475362Y-85834687D01*
X57492523Y-85835000D01*
G37*
G36*
X58619048Y-82989120D02*
G01*
X58634036Y-82990142D01*
X58648991Y-82991781D01*
X58663885Y-82994021D01*
X58678695Y-82996845D01*
X58693393Y-83000237D01*
X58707796Y-83004310D01*
X58721688Y-83009190D01*
X58734999Y-83014887D01*
X58747657Y-83021408D01*
X58753720Y-83024980D01*
X58759594Y-83028761D01*
X58765269Y-83032753D01*
X58770737Y-83036956D01*
X58775990Y-83041371D01*
X58781017Y-83045999D01*
X58785811Y-83050841D01*
X58790363Y-83055899D01*
X58794664Y-83061173D01*
X58798705Y-83066664D01*
X58802476Y-83072373D01*
X58805971Y-83078302D01*
X58809179Y-83084451D01*
X58812091Y-83090822D01*
X58814700Y-83097414D01*
X58816995Y-83104231D01*
X58818969Y-83111271D01*
X58820613Y-83118537D01*
X58821917Y-83126030D01*
X58822873Y-83133750D01*
X58823472Y-83141698D01*
X58823705Y-83149876D01*
X58823564Y-83158284D01*
X58823039Y-83166924D01*
X58813340Y-83167715D01*
X58801406Y-83168293D01*
X58787977Y-83168640D01*
X58773794Y-83168743D01*
X58759600Y-83168586D01*
X58746134Y-83168152D01*
X58734137Y-83167427D01*
X58724352Y-83166396D01*
X58719216Y-83157773D01*
X58713840Y-83149395D01*
X58708236Y-83141301D01*
X58702419Y-83133529D01*
X58696403Y-83126121D01*
X58690199Y-83119115D01*
X58683823Y-83112550D01*
X58677288Y-83106467D01*
X58670607Y-83100905D01*
X58663794Y-83095904D01*
X58656862Y-83091502D01*
X58649826Y-83087740D01*
X58642698Y-83084657D01*
X58639103Y-83083382D01*
X58635491Y-83082292D01*
X58631863Y-83081392D01*
X58628221Y-83080686D01*
X58624566Y-83080179D01*
X58620900Y-83079877D01*
X58610185Y-83079555D01*
X58599512Y-83079709D01*
X58588940Y-83080380D01*
X58578529Y-83081609D01*
X58568341Y-83083439D01*
X58558434Y-83085909D01*
X58548869Y-83089063D01*
X58539706Y-83092941D01*
X58535294Y-83095165D01*
X58531005Y-83097585D01*
X58526846Y-83100207D01*
X58522826Y-83103036D01*
X58518951Y-83106077D01*
X58515229Y-83109336D01*
X58511667Y-83112817D01*
X58508274Y-83116526D01*
X58505056Y-83120468D01*
X58502021Y-83124648D01*
X58499177Y-83129071D01*
X58496531Y-83133743D01*
X58494091Y-83138668D01*
X58491864Y-83143853D01*
X58489857Y-83149301D01*
X58488078Y-83155019D01*
X58485913Y-83166553D01*
X58486158Y-83176916D01*
X58488658Y-83186209D01*
X58493256Y-83194531D01*
X58499796Y-83201985D01*
X58508121Y-83208672D01*
X58518075Y-83214692D01*
X58529502Y-83220147D01*
X58556148Y-83229765D01*
X58586807Y-83238334D01*
X58655163Y-83255560D01*
X58690356Y-83265834D01*
X58724560Y-83278292D01*
X58740899Y-83285594D01*
X58756521Y-83293745D01*
X58771271Y-83302846D01*
X58784990Y-83312999D01*
X58797524Y-83324305D01*
X58808715Y-83336864D01*
X58818408Y-83350779D01*
X58826445Y-83366148D01*
X58832671Y-83383075D01*
X58836929Y-83401660D01*
X58839063Y-83422004D01*
X58838916Y-83444208D01*
X58837805Y-83456632D01*
X58835942Y-83468961D01*
X58833302Y-83481140D01*
X58829858Y-83493110D01*
X58825585Y-83504816D01*
X58820457Y-83516199D01*
X58814447Y-83527203D01*
X58807530Y-83537771D01*
X58803723Y-83542874D01*
X58799680Y-83547846D01*
X58795396Y-83552681D01*
X58790870Y-83557372D01*
X58786098Y-83561910D01*
X58781075Y-83566290D01*
X58775800Y-83570504D01*
X58770269Y-83574544D01*
X58764479Y-83578405D01*
X58758426Y-83582078D01*
X58752108Y-83585556D01*
X58745520Y-83588833D01*
X58738660Y-83591902D01*
X58731524Y-83594754D01*
X58724110Y-83597384D01*
X58716414Y-83599783D01*
X58716545Y-83599915D01*
X58716611Y-83599981D01*
X58716676Y-83600047D01*
X58691890Y-83606365D01*
X58665435Y-83611209D01*
X58637736Y-83614405D01*
X58609215Y-83615773D01*
X58580294Y-83615139D01*
X58551395Y-83612326D01*
X58522940Y-83607155D01*
X58509012Y-83603631D01*
X58495354Y-83599452D01*
X58482018Y-83594595D01*
X58469057Y-83589039D01*
X58456524Y-83582760D01*
X58444472Y-83575739D01*
X58432954Y-83567951D01*
X58422022Y-83559375D01*
X58411730Y-83549990D01*
X58402130Y-83539772D01*
X58393274Y-83528700D01*
X58385217Y-83516751D01*
X58378009Y-83503905D01*
X58371706Y-83490137D01*
X58366358Y-83475428D01*
X58362019Y-83459753D01*
X58358742Y-83443092D01*
X58356580Y-83425422D01*
X58361169Y-83424724D01*
X58366445Y-83424120D01*
X58378701Y-83423189D01*
X58392637Y-83422631D01*
X58407544Y-83422445D01*
X58422712Y-83422631D01*
X58437430Y-83423189D01*
X58450988Y-83424120D01*
X58462677Y-83425422D01*
X58466057Y-83432208D01*
X58469597Y-83438772D01*
X58473297Y-83445112D01*
X58477157Y-83451223D01*
X58481177Y-83457104D01*
X58485354Y-83462752D01*
X58489690Y-83468162D01*
X58494183Y-83473332D01*
X58498834Y-83478259D01*
X58503640Y-83482941D01*
X58508603Y-83487373D01*
X58513721Y-83491553D01*
X58518994Y-83495478D01*
X58524421Y-83499144D01*
X58530002Y-83502549D01*
X58535736Y-83505690D01*
X58541623Y-83508563D01*
X58547662Y-83511166D01*
X58553852Y-83513496D01*
X58560194Y-83515548D01*
X58566686Y-83517321D01*
X58573328Y-83518812D01*
X58580120Y-83520017D01*
X58587061Y-83520933D01*
X58594150Y-83521557D01*
X58601387Y-83521886D01*
X58608771Y-83521917D01*
X58616303Y-83521647D01*
X58623980Y-83521073D01*
X58631803Y-83520193D01*
X58639772Y-83519002D01*
X58647885Y-83517497D01*
X58652613Y-83516361D01*
X58657626Y-83514858D01*
X58662865Y-83513018D01*
X58668267Y-83510870D01*
X58673771Y-83508445D01*
X58679316Y-83505772D01*
X58684842Y-83502882D01*
X58690285Y-83499803D01*
X58695587Y-83496567D01*
X58700684Y-83493202D01*
X58705516Y-83489738D01*
X58710022Y-83486206D01*
X58714140Y-83482635D01*
X58717809Y-83479056D01*
X58720969Y-83475497D01*
X58723557Y-83471989D01*
X58724770Y-83469830D01*
X58725784Y-83467434D01*
X58726604Y-83464820D01*
X58727236Y-83462005D01*
X58727686Y-83459010D01*
X58727958Y-83455852D01*
X58727992Y-83449123D01*
X58727383Y-83441968D01*
X58726175Y-83434535D01*
X58724410Y-83426975D01*
X58722134Y-83419436D01*
X58719390Y-83412067D01*
X58716221Y-83405019D01*
X58712671Y-83398439D01*
X58708785Y-83392477D01*
X58706729Y-83389775D01*
X58704606Y-83387283D01*
X58702420Y-83385020D01*
X58700178Y-83383006D01*
X58697884Y-83381257D01*
X58695544Y-83379794D01*
X58693164Y-83378634D01*
X58690749Y-83377797D01*
X58507922Y-83327791D01*
X58495263Y-83323893D01*
X58482924Y-83319268D01*
X58470963Y-83313952D01*
X58459441Y-83307980D01*
X58448417Y-83301388D01*
X58437950Y-83294212D01*
X58428099Y-83286486D01*
X58418923Y-83278248D01*
X58410482Y-83269532D01*
X58402836Y-83260374D01*
X58396043Y-83250810D01*
X58390162Y-83240875D01*
X58387583Y-83235780D01*
X58385254Y-83230606D01*
X58383182Y-83225357D01*
X58381376Y-83220037D01*
X58379843Y-83214652D01*
X58378590Y-83209205D01*
X58377624Y-83203702D01*
X58376953Y-83198145D01*
X58376069Y-83184705D01*
X58375909Y-83171400D01*
X58376490Y-83158274D01*
X58377829Y-83145369D01*
X58379944Y-83132727D01*
X58382850Y-83120391D01*
X58386566Y-83108405D01*
X58391108Y-83096809D01*
X58396493Y-83085648D01*
X58402739Y-83074964D01*
X58409862Y-83064799D01*
X58417880Y-83055196D01*
X58426810Y-83046197D01*
X58436668Y-83037846D01*
X58441950Y-83033926D01*
X58447471Y-83030185D01*
X58453233Y-83026626D01*
X58459238Y-83023256D01*
X58472913Y-83016416D01*
X58486836Y-83010373D01*
X58500980Y-83005109D01*
X58515321Y-83000609D01*
X58529832Y-82996856D01*
X58544488Y-82993834D01*
X58559264Y-82991527D01*
X58574133Y-82989918D01*
X58589070Y-82988992D01*
X58604051Y-82988731D01*
X58619048Y-82989120D01*
G37*
G36*
X57984853Y-87502138D02*
G01*
X58004038Y-87503115D01*
X58022990Y-87504668D01*
X58041709Y-87506799D01*
X58060194Y-87509505D01*
X58078444Y-87512789D01*
X58096458Y-87516649D01*
X58114236Y-87521086D01*
X58131777Y-87526100D01*
X58149080Y-87531690D01*
X58166144Y-87537857D01*
X58182968Y-87544601D01*
X58199552Y-87551922D01*
X58215895Y-87559819D01*
X58231916Y-87568212D01*
X58247534Y-87577022D01*
X58262750Y-87586249D01*
X58277564Y-87595893D01*
X58291976Y-87605956D01*
X58305987Y-87616439D01*
X58319598Y-87627341D01*
X58332808Y-87638665D01*
X58345618Y-87650410D01*
X58358029Y-87662578D01*
X58370040Y-87675168D01*
X58381653Y-87688183D01*
X58392867Y-87701623D01*
X58403683Y-87715488D01*
X58414101Y-87729780D01*
X58424123Y-87744498D01*
X58424121Y-87744762D01*
X58433624Y-87759853D01*
X58442587Y-87775260D01*
X58451009Y-87790983D01*
X58458889Y-87807022D01*
X58466226Y-87823378D01*
X58473020Y-87840049D01*
X58479270Y-87857038D01*
X58484975Y-87874342D01*
X58490134Y-87891963D01*
X58494747Y-87909899D01*
X58498813Y-87928153D01*
X58502330Y-87946722D01*
X58505299Y-87965608D01*
X58507718Y-87984810D01*
X58509586Y-88004328D01*
X58510904Y-88024162D01*
X58511658Y-88044031D01*
X58511835Y-88063651D01*
X58511435Y-88083022D01*
X58510458Y-88102144D01*
X58508905Y-88121016D01*
X58506775Y-88139639D01*
X58504068Y-88158011D01*
X58500785Y-88176132D01*
X58496925Y-88194002D01*
X58492488Y-88211621D01*
X58487474Y-88228988D01*
X58481884Y-88246102D01*
X58475717Y-88262964D01*
X58468973Y-88279573D01*
X58461653Y-88295928D01*
X58453755Y-88312029D01*
X58445347Y-88327851D01*
X58436492Y-88343272D01*
X58427192Y-88358292D01*
X58417446Y-88372912D01*
X58407255Y-88387134D01*
X58396620Y-88400958D01*
X58385540Y-88414387D01*
X58374017Y-88427420D01*
X58362051Y-88440060D01*
X58349641Y-88452307D01*
X58336789Y-88464163D01*
X58323494Y-88475628D01*
X58309758Y-88486704D01*
X58295580Y-88497393D01*
X58280961Y-88507694D01*
X58265901Y-88517610D01*
X58250426Y-88527017D01*
X58234660Y-88535890D01*
X58218602Y-88544228D01*
X58202253Y-88552031D01*
X58185613Y-88559297D01*
X58168680Y-88566026D01*
X58151457Y-88572216D01*
X58133942Y-88577869D01*
X58116135Y-88582981D01*
X58098037Y-88587554D01*
X58079647Y-88591585D01*
X58060966Y-88595075D01*
X58041994Y-88598022D01*
X58022729Y-88600425D01*
X58003174Y-88602285D01*
X57983327Y-88603599D01*
X57963207Y-88604402D01*
X57943329Y-88604630D01*
X57923693Y-88604282D01*
X57904299Y-88603359D01*
X57885147Y-88601864D01*
X57866236Y-88599795D01*
X57847568Y-88597154D01*
X57829141Y-88593942D01*
X57810956Y-88590159D01*
X57793013Y-88585807D01*
X57775311Y-88580886D01*
X57757852Y-88575397D01*
X57740634Y-88569340D01*
X57723659Y-88562716D01*
X57706925Y-88555527D01*
X57690433Y-88547773D01*
X57674263Y-88539516D01*
X57658497Y-88530819D01*
X57643133Y-88521683D01*
X57628173Y-88512107D01*
X57613616Y-88502093D01*
X57599462Y-88491641D01*
X57585711Y-88480750D01*
X57572363Y-88469422D01*
X57559418Y-88457657D01*
X57546876Y-88445455D01*
X57534737Y-88432817D01*
X57523001Y-88419743D01*
X57511669Y-88406233D01*
X57500739Y-88392288D01*
X57490212Y-88377908D01*
X57480089Y-88363093D01*
X57470443Y-88347904D01*
X57461350Y-88332399D01*
X57452809Y-88316579D01*
X57444821Y-88300445D01*
X57437387Y-88283998D01*
X57430506Y-88267238D01*
X57424180Y-88250168D01*
X57418408Y-88232786D01*
X57413192Y-88215094D01*
X57408530Y-88197093D01*
X57404425Y-88178783D01*
X57400876Y-88160166D01*
X57397883Y-88141241D01*
X57395447Y-88122011D01*
X57393568Y-88102475D01*
X57392247Y-88082635D01*
X57391497Y-88062726D01*
X57391353Y-88045800D01*
X57675522Y-88045800D01*
X57675690Y-88056609D01*
X57676143Y-88067554D01*
X57676872Y-88078487D01*
X57677866Y-88089258D01*
X57679127Y-88099867D01*
X57680654Y-88110313D01*
X57682445Y-88120597D01*
X57684501Y-88130718D01*
X57686821Y-88140675D01*
X57689406Y-88150468D01*
X57692253Y-88160097D01*
X57695364Y-88169561D01*
X57698738Y-88178860D01*
X57702374Y-88187993D01*
X57706272Y-88196961D01*
X57710432Y-88205762D01*
X57714853Y-88214397D01*
X57719534Y-88222864D01*
X57724455Y-88231177D01*
X57729593Y-88239248D01*
X57734948Y-88247076D01*
X57740520Y-88254663D01*
X57746309Y-88262009D01*
X57752315Y-88269112D01*
X57758538Y-88275974D01*
X57764978Y-88282593D01*
X57771635Y-88288971D01*
X57778509Y-88295107D01*
X57785600Y-88301002D01*
X57792908Y-88306654D01*
X57800433Y-88312065D01*
X57808175Y-88317233D01*
X57816134Y-88322160D01*
X57824310Y-88326845D01*
X57832648Y-88331298D01*
X57841092Y-88335428D01*
X57849641Y-88339236D01*
X57858297Y-88342721D01*
X57867061Y-88345883D01*
X57875931Y-88348723D01*
X57884909Y-88351241D01*
X57893996Y-88353436D01*
X57903191Y-88355309D01*
X57912494Y-88356859D01*
X57921907Y-88358087D01*
X57931430Y-88358992D01*
X57941063Y-88359575D01*
X57950806Y-88359836D01*
X57960660Y-88359774D01*
X57970625Y-88359389D01*
X57980284Y-88358738D01*
X57989812Y-88357778D01*
X57999210Y-88356507D01*
X58008478Y-88354929D01*
X58017616Y-88353041D01*
X58026623Y-88350846D01*
X58035500Y-88348342D01*
X58044247Y-88345532D01*
X58052863Y-88342414D01*
X58061350Y-88338990D01*
X58069706Y-88335260D01*
X58077931Y-88331224D01*
X58086027Y-88326882D01*
X58093992Y-88322236D01*
X58101827Y-88317284D01*
X58109532Y-88312029D01*
X58117054Y-88306513D01*
X58124341Y-88300780D01*
X58131393Y-88294830D01*
X58138210Y-88288663D01*
X58144794Y-88282279D01*
X58151143Y-88275678D01*
X58157260Y-88268859D01*
X58163143Y-88261824D01*
X58168794Y-88254572D01*
X58174213Y-88247103D01*
X58179399Y-88239416D01*
X58184355Y-88231513D01*
X58189079Y-88223392D01*
X58193573Y-88215055D01*
X58197837Y-88206500D01*
X58201871Y-88197729D01*
X58201605Y-88197465D01*
X58205378Y-88188566D01*
X58208859Y-88179531D01*
X58212047Y-88170359D01*
X58214942Y-88161051D01*
X58217541Y-88151607D01*
X58219846Y-88142026D01*
X58221854Y-88132309D01*
X58223565Y-88122455D01*
X58224979Y-88112465D01*
X58226094Y-88102339D01*
X58226911Y-88092076D01*
X58227427Y-88081676D01*
X58227642Y-88071141D01*
X58227556Y-88060468D01*
X58227167Y-88049660D01*
X58226476Y-88038714D01*
X58225989Y-88027779D01*
X58225223Y-88016998D01*
X58224178Y-88006372D01*
X58222854Y-87995902D01*
X58221251Y-87985586D01*
X58219369Y-87975425D01*
X58217208Y-87965420D01*
X58214767Y-87955569D01*
X58212048Y-87945874D01*
X58209050Y-87936333D01*
X58205773Y-87926948D01*
X58202216Y-87917717D01*
X58198381Y-87908642D01*
X58194266Y-87899721D01*
X58189873Y-87890956D01*
X58185201Y-87882345D01*
X58180283Y-87873940D01*
X58175155Y-87865788D01*
X58169818Y-87857891D01*
X58164270Y-87850248D01*
X58158513Y-87842860D01*
X58152547Y-87835725D01*
X58146373Y-87828845D01*
X58139991Y-87822219D01*
X58133401Y-87815848D01*
X58126603Y-87809730D01*
X58119598Y-87803867D01*
X58112387Y-87798258D01*
X58104970Y-87792903D01*
X58097347Y-87787803D01*
X58089519Y-87782956D01*
X58081485Y-87778364D01*
X58073314Y-87774052D01*
X58065069Y-87770044D01*
X58056743Y-87766342D01*
X58048330Y-87762948D01*
X58039824Y-87759862D01*
X58031219Y-87757086D01*
X58022508Y-87754621D01*
X58013686Y-87752468D01*
X58004746Y-87750628D01*
X57995682Y-87749103D01*
X57986488Y-87747892D01*
X57977157Y-87746999D01*
X57967684Y-87746423D01*
X57958061Y-87746167D01*
X57948284Y-87746230D01*
X57938345Y-87746615D01*
X57928396Y-87747312D01*
X57918589Y-87748314D01*
X57908924Y-87749619D01*
X57899402Y-87751228D01*
X57890023Y-87753141D01*
X57880786Y-87755358D01*
X57871693Y-87757879D01*
X57862741Y-87760703D01*
X57853932Y-87763832D01*
X57845266Y-87767264D01*
X57836743Y-87771000D01*
X57828362Y-87775040D01*
X57820124Y-87779384D01*
X57812028Y-87784032D01*
X57804075Y-87788983D01*
X57796265Y-87794239D01*
X57788643Y-87799798D01*
X57781258Y-87805564D01*
X57774109Y-87811536D01*
X57767197Y-87817717D01*
X57760522Y-87824106D01*
X57754085Y-87830707D01*
X57747885Y-87837518D01*
X57741925Y-87844543D01*
X57736202Y-87851782D01*
X57730719Y-87859235D01*
X57725476Y-87866905D01*
X57720473Y-87874792D01*
X57715709Y-87882898D01*
X57711187Y-87891224D01*
X57706906Y-87899771D01*
X57702866Y-87908539D01*
X57699086Y-87917485D01*
X57695586Y-87926560D01*
X57692365Y-87935767D01*
X57689425Y-87945106D01*
X57686766Y-87954576D01*
X57684387Y-87964178D01*
X57682290Y-87973913D01*
X57680475Y-87983780D01*
X57678942Y-87993781D01*
X57677691Y-88003916D01*
X57676724Y-88014185D01*
X57676039Y-88024588D01*
X57675639Y-88035126D01*
X57675522Y-88045800D01*
X57391353Y-88045800D01*
X57391330Y-88043082D01*
X57391747Y-88023704D01*
X57392748Y-88004591D01*
X57394333Y-87985741D01*
X57396503Y-87967153D01*
X57399258Y-87948828D01*
X57402599Y-87930764D01*
X57406526Y-87912960D01*
X57411040Y-87895416D01*
X57416140Y-87878131D01*
X57421827Y-87861104D01*
X57428102Y-87844334D01*
X57434965Y-87827821D01*
X57442416Y-87811564D01*
X57450456Y-87795562D01*
X57459011Y-87779876D01*
X57468006Y-87764568D01*
X57477442Y-87749639D01*
X57487320Y-87735088D01*
X57497639Y-87720915D01*
X57508401Y-87707121D01*
X57519606Y-87693705D01*
X57531253Y-87680667D01*
X57543344Y-87668007D01*
X57555879Y-87655726D01*
X57568857Y-87643822D01*
X57582281Y-87632298D01*
X57596149Y-87621151D01*
X57610462Y-87610383D01*
X57625222Y-87599993D01*
X57640427Y-87589981D01*
X57656007Y-87580385D01*
X57671891Y-87571340D01*
X57688077Y-87562848D01*
X57704567Y-87554907D01*
X57721359Y-87547518D01*
X57738453Y-87540682D01*
X57755848Y-87534397D01*
X57773544Y-87528664D01*
X57791542Y-87523483D01*
X57809839Y-87518853D01*
X57828437Y-87514776D01*
X57847334Y-87511251D01*
X57866530Y-87508277D01*
X57886026Y-87505856D01*
X57905819Y-87503986D01*
X57925911Y-87502669D01*
X57945789Y-87501915D01*
X57965437Y-87501738D01*
X57984853Y-87502138D01*
G37*
G36*
X56685544Y-85854579D02*
G01*
X56903825Y-85846906D01*
X56912558Y-86099319D01*
X56694277Y-86106991D01*
X56722585Y-86913971D01*
X56442128Y-86923760D01*
X56413817Y-86116781D01*
X56213527Y-86123660D01*
X56204797Y-85871512D01*
X56405086Y-85864368D01*
X56395825Y-85596081D01*
X56676019Y-85586291D01*
X56685544Y-85854579D01*
G37*
G36*
X55217100Y-82470006D02*
G01*
X55225191Y-82470448D01*
X55233200Y-82471273D01*
X55241046Y-82472473D01*
X55248649Y-82474036D01*
X55255928Y-82475953D01*
X55262804Y-82478215D01*
X55262805Y-82478214D01*
X55263334Y-83076966D01*
X55254462Y-83080498D01*
X55245441Y-83083837D01*
X55236470Y-83086816D01*
X55232066Y-83088119D01*
X55227747Y-83089269D01*
X55223541Y-83090245D01*
X55219471Y-83091027D01*
X55215562Y-83091593D01*
X55211839Y-83091923D01*
X55208327Y-83091996D01*
X55205051Y-83091790D01*
X55202035Y-83091285D01*
X55200632Y-83090914D01*
X55199304Y-83090460D01*
X55197718Y-83089783D01*
X55196088Y-83088949D01*
X55194419Y-83087966D01*
X55192714Y-83086843D01*
X55189215Y-83084211D01*
X55185624Y-83081121D01*
X55181977Y-83077642D01*
X55178306Y-83073843D01*
X55174644Y-83069791D01*
X55171027Y-83065556D01*
X55167487Y-83061207D01*
X55164058Y-83056811D01*
X55160775Y-83052438D01*
X55157670Y-83048156D01*
X55152130Y-83040139D01*
X55147710Y-83033310D01*
X55138955Y-83041675D01*
X55129859Y-83049502D01*
X55120428Y-83056789D01*
X55110669Y-83063530D01*
X55100587Y-83069723D01*
X55090188Y-83075363D01*
X55079480Y-83080447D01*
X55068468Y-83084970D01*
X55057158Y-83088929D01*
X55045557Y-83092319D01*
X55033670Y-83095138D01*
X55021504Y-83097380D01*
X55009066Y-83099043D01*
X54996361Y-83100122D01*
X54983395Y-83100614D01*
X54970175Y-83100514D01*
X54949673Y-83099160D01*
X54929440Y-83096303D01*
X54909619Y-83091965D01*
X54890354Y-83086169D01*
X54871790Y-83078937D01*
X54854071Y-83070293D01*
X54845573Y-83065448D01*
X54837341Y-83060258D01*
X54829392Y-83054726D01*
X54821744Y-83048854D01*
X54814416Y-83042647D01*
X54807425Y-83036105D01*
X54800789Y-83029233D01*
X54794527Y-83022033D01*
X54788656Y-83014508D01*
X54783195Y-83006660D01*
X54778161Y-82998493D01*
X54773573Y-82990009D01*
X54769449Y-82981211D01*
X54765806Y-82972102D01*
X54762662Y-82962685D01*
X54760036Y-82952962D01*
X54757946Y-82942937D01*
X54756409Y-82932612D01*
X54755444Y-82921989D01*
X54755069Y-82911073D01*
X54752423Y-82476363D01*
X54869898Y-82471071D01*
X54873866Y-82888054D01*
X54874189Y-82895561D01*
X54874993Y-82902804D01*
X54876260Y-82909783D01*
X54877970Y-82916498D01*
X54880102Y-82922951D01*
X54882637Y-82929140D01*
X54885555Y-82935068D01*
X54888836Y-82940735D01*
X54892460Y-82946141D01*
X54896407Y-82951286D01*
X54900657Y-82956172D01*
X54905190Y-82960798D01*
X54909987Y-82965166D01*
X54915027Y-82969276D01*
X54920291Y-82973128D01*
X54925758Y-82976723D01*
X54931409Y-82980061D01*
X54937224Y-82983143D01*
X54943182Y-82985970D01*
X54949265Y-82988542D01*
X54955452Y-82990859D01*
X54961723Y-82992922D01*
X54968058Y-82994732D01*
X54974437Y-82996289D01*
X54980841Y-82997594D01*
X54987250Y-82998647D01*
X54993643Y-82999449D01*
X55000000Y-83000000D01*
X55006303Y-83000301D01*
X55012530Y-83000353D01*
X55018662Y-83000155D01*
X55024680Y-82999709D01*
X55031407Y-82998897D01*
X55037993Y-82997804D01*
X55044434Y-82996433D01*
X55050724Y-82994790D01*
X55056860Y-82992876D01*
X55062835Y-82990697D01*
X55068647Y-82988256D01*
X55074289Y-82985558D01*
X55079757Y-82982605D01*
X55085048Y-82979403D01*
X55090155Y-82975954D01*
X55095075Y-82972264D01*
X55099803Y-82968335D01*
X55104334Y-82964172D01*
X55108663Y-82959779D01*
X55112786Y-82955159D01*
X55116698Y-82950317D01*
X55120395Y-82945256D01*
X55123871Y-82939981D01*
X55127123Y-82934495D01*
X55130145Y-82928802D01*
X55132934Y-82922907D01*
X55135483Y-82916812D01*
X55137789Y-82910523D01*
X55139847Y-82904042D01*
X55141652Y-82897375D01*
X55143200Y-82890524D01*
X55144486Y-82883494D01*
X55145506Y-82876288D01*
X55146254Y-82868911D01*
X55146726Y-82861366D01*
X55146917Y-82853658D01*
X55149298Y-82488798D01*
X55151455Y-82486775D01*
X55153802Y-82484874D01*
X55156329Y-82483093D01*
X55159026Y-82481430D01*
X55161883Y-82479886D01*
X55164889Y-82478457D01*
X55171312Y-82475945D01*
X55178214Y-82473884D01*
X55185514Y-82472264D01*
X55193134Y-82471076D01*
X55200991Y-82470310D01*
X55209007Y-82469957D01*
X55217100Y-82470006D01*
G37*
G36*
X54250744Y-82872906D02*
G01*
X54257543Y-82873574D01*
X54264350Y-82874686D01*
X54271162Y-82876260D01*
X54277976Y-82878313D01*
X54284790Y-82880863D01*
X54291599Y-82883928D01*
X54298400Y-82887525D01*
X54300795Y-82889157D01*
X54302972Y-82891205D01*
X54304934Y-82893639D01*
X54306684Y-82896428D01*
X54308226Y-82899541D01*
X54309564Y-82902948D01*
X54310700Y-82906619D01*
X54311638Y-82910523D01*
X54312381Y-82914630D01*
X54312934Y-82918909D01*
X54313479Y-82927862D01*
X54313299Y-82937139D01*
X54312423Y-82946494D01*
X54310878Y-82955686D01*
X54308689Y-82964469D01*
X54305885Y-82972600D01*
X54304261Y-82976345D01*
X54302493Y-82979836D01*
X54300585Y-82983042D01*
X54298540Y-82985932D01*
X54296361Y-82988477D01*
X54294052Y-82990645D01*
X54291617Y-82992407D01*
X54289058Y-82993731D01*
X54286379Y-82994588D01*
X54283584Y-82994946D01*
X54265141Y-82995761D01*
X54246373Y-82997046D01*
X54227648Y-82998853D01*
X54209335Y-83001230D01*
X54191804Y-83004227D01*
X54183447Y-83005974D01*
X54175423Y-83007894D01*
X54167779Y-83009994D01*
X54160561Y-83012280D01*
X54153815Y-83014759D01*
X54147588Y-83017435D01*
X54144810Y-83018860D01*
X54142039Y-83020547D01*
X54139277Y-83022484D01*
X54136532Y-83024659D01*
X54133808Y-83027058D01*
X54131111Y-83029671D01*
X54128445Y-83032484D01*
X54125817Y-83035485D01*
X54120695Y-83042003D01*
X54115785Y-83049127D01*
X54111131Y-83056757D01*
X54106776Y-83064796D01*
X54102761Y-83073145D01*
X54099131Y-83081706D01*
X54095926Y-83090379D01*
X54093191Y-83099068D01*
X54090967Y-83107673D01*
X54089297Y-83116095D01*
X54088225Y-83124237D01*
X54087926Y-83128172D01*
X54087792Y-83132000D01*
X54084089Y-83491644D01*
X54077688Y-83493506D01*
X54070459Y-83495152D01*
X54062755Y-83496507D01*
X54054669Y-83497571D01*
X54046291Y-83498343D01*
X54037713Y-83498823D01*
X54029026Y-83499013D01*
X54020323Y-83498910D01*
X54011693Y-83498516D01*
X54003230Y-83497831D01*
X53995024Y-83496854D01*
X53987167Y-83495586D01*
X53979750Y-83494027D01*
X53972865Y-83492176D01*
X53966603Y-83490033D01*
X53961056Y-83487599D01*
X53962908Y-82895197D01*
X54058158Y-82886467D01*
X54059935Y-82886418D01*
X54061646Y-82886610D01*
X54063293Y-82887032D01*
X54064879Y-82887673D01*
X54066405Y-82888521D01*
X54067873Y-82889565D01*
X54069287Y-82890794D01*
X54070647Y-82892197D01*
X54071957Y-82893761D01*
X54073218Y-82895476D01*
X54074433Y-82897330D01*
X54075604Y-82899312D01*
X54076732Y-82901411D01*
X54077821Y-82903616D01*
X54079887Y-82908295D01*
X54081820Y-82913259D01*
X54083637Y-82918418D01*
X54086994Y-82928957D01*
X54090096Y-82939186D01*
X54091595Y-82943957D01*
X54093083Y-82948379D01*
X54104229Y-82939088D01*
X54115720Y-82929866D01*
X54127532Y-82920853D01*
X54139638Y-82912193D01*
X54152012Y-82904027D01*
X54164628Y-82896499D01*
X54177460Y-82889749D01*
X54190483Y-82883920D01*
X54197058Y-82881396D01*
X54203670Y-82879155D01*
X54210317Y-82877216D01*
X54216996Y-82875596D01*
X54223702Y-82874312D01*
X54230434Y-82873384D01*
X54237187Y-82872828D01*
X54243958Y-82872663D01*
X54250744Y-82872906D01*
G37*
G36*
X56731053Y-87130929D02*
G01*
X56653531Y-88611802D01*
X56387360Y-88597779D01*
X56387891Y-88472367D01*
X56379767Y-88480899D01*
X56371271Y-88489230D01*
X56362404Y-88497356D01*
X56353164Y-88505274D01*
X56343552Y-88512982D01*
X56333568Y-88520475D01*
X56323213Y-88527752D01*
X56312485Y-88534808D01*
X56305679Y-88539056D01*
X56298755Y-88543168D01*
X56291713Y-88547144D01*
X56284554Y-88550985D01*
X56269882Y-88558263D01*
X56254738Y-88565004D01*
X56239124Y-88571212D01*
X56223038Y-88576889D01*
X56206481Y-88582040D01*
X56189453Y-88586667D01*
X56172063Y-88590709D01*
X56154614Y-88594100D01*
X56137097Y-88596833D01*
X56119503Y-88598904D01*
X56101822Y-88600304D01*
X56084044Y-88601028D01*
X56066162Y-88601071D01*
X56048164Y-88600425D01*
X56030786Y-88599212D01*
X56013674Y-88597460D01*
X55996831Y-88595169D01*
X55980257Y-88592338D01*
X55963952Y-88588968D01*
X55947919Y-88585058D01*
X55932156Y-88580608D01*
X55916666Y-88575620D01*
X55901448Y-88570091D01*
X55886504Y-88564023D01*
X55871835Y-88557416D01*
X55857441Y-88550269D01*
X55843322Y-88542583D01*
X55829481Y-88534357D01*
X55815916Y-88525592D01*
X55802631Y-88516287D01*
X55789624Y-88506517D01*
X55776994Y-88496357D01*
X55764743Y-88485805D01*
X55752868Y-88474863D01*
X55741370Y-88463531D01*
X55730249Y-88451808D01*
X55719503Y-88439694D01*
X55709133Y-88427189D01*
X55699139Y-88414294D01*
X55689519Y-88401008D01*
X55680273Y-88387331D01*
X55671401Y-88373264D01*
X55662903Y-88358806D01*
X55654779Y-88343957D01*
X55647027Y-88328717D01*
X55639647Y-88313087D01*
X55632711Y-88297132D01*
X55626290Y-88280916D01*
X55620383Y-88264440D01*
X55614992Y-88247703D01*
X55610114Y-88230705D01*
X55605752Y-88213447D01*
X55601904Y-88195929D01*
X55598571Y-88178150D01*
X55595753Y-88160111D01*
X55593449Y-88141811D01*
X55591660Y-88123251D01*
X55590386Y-88104431D01*
X55589626Y-88085350D01*
X55589381Y-88066008D01*
X55589412Y-88063816D01*
X55870246Y-88063816D01*
X55870333Y-88074952D01*
X55870693Y-88085939D01*
X55871326Y-88096774D01*
X55872231Y-88107459D01*
X55873410Y-88117993D01*
X55874861Y-88128376D01*
X55876585Y-88138606D01*
X55878582Y-88148684D01*
X55880851Y-88158609D01*
X55883394Y-88168382D01*
X55886209Y-88178000D01*
X55889297Y-88187465D01*
X55892658Y-88196776D01*
X55896292Y-88205932D01*
X55900171Y-88214896D01*
X55904267Y-88223630D01*
X55908580Y-88232135D01*
X55913110Y-88240410D01*
X55917857Y-88248456D01*
X55922821Y-88256273D01*
X55928002Y-88263860D01*
X55933400Y-88271218D01*
X55939015Y-88278346D01*
X55944847Y-88285245D01*
X55950897Y-88291914D01*
X55957163Y-88298354D01*
X55963647Y-88304564D01*
X55970347Y-88310545D01*
X55977265Y-88316297D01*
X55984399Y-88321819D01*
X55991714Y-88327072D01*
X55999178Y-88332015D01*
X56006796Y-88336649D01*
X56014573Y-88340976D01*
X56022517Y-88344997D01*
X56030633Y-88348710D01*
X56038926Y-88352119D01*
X56047402Y-88355223D01*
X56056067Y-88358023D01*
X56064928Y-88360520D01*
X56073989Y-88362714D01*
X56083257Y-88364607D01*
X56092737Y-88366199D01*
X56102435Y-88367492D01*
X56112358Y-88368485D01*
X56122510Y-88369179D01*
X56132699Y-88369564D01*
X56142727Y-88369626D01*
X56152596Y-88369365D01*
X56162306Y-88368783D01*
X56171857Y-88367877D01*
X56181251Y-88366649D01*
X56190489Y-88365099D01*
X56199571Y-88363226D01*
X56208497Y-88361031D01*
X56217270Y-88358513D01*
X56225889Y-88355673D01*
X56234355Y-88352511D01*
X56242669Y-88349025D01*
X56250833Y-88345218D01*
X56258845Y-88341088D01*
X56266708Y-88336635D01*
X56274354Y-88331898D01*
X56281814Y-88326911D01*
X56289087Y-88321675D01*
X56296172Y-88316188D01*
X56303070Y-88310450D01*
X56309780Y-88304461D01*
X56316302Y-88298218D01*
X56322635Y-88291722D01*
X56328779Y-88284972D01*
X56334733Y-88277967D01*
X56340497Y-88270706D01*
X56346071Y-88263188D01*
X56351455Y-88255414D01*
X56356647Y-88247381D01*
X56361648Y-88239089D01*
X56366457Y-88230537D01*
X56366193Y-88230537D01*
X56370778Y-88221769D01*
X56375110Y-88212826D01*
X56379186Y-88203709D01*
X56383006Y-88194418D01*
X56386571Y-88184951D01*
X56389880Y-88175308D01*
X56392932Y-88165490D01*
X56395727Y-88155495D01*
X56398264Y-88145323D01*
X56400544Y-88134975D01*
X56402566Y-88124449D01*
X56404329Y-88113744D01*
X56405834Y-88102862D01*
X56407079Y-88091801D01*
X56408064Y-88080561D01*
X56408789Y-88069141D01*
X56409248Y-88057467D01*
X56409434Y-88045961D01*
X56409347Y-88034621D01*
X56408988Y-88023447D01*
X56408355Y-88012439D01*
X56407450Y-88001597D01*
X56406272Y-87990919D01*
X56404821Y-87980407D01*
X56403097Y-87970059D01*
X56401100Y-87959874D01*
X56398830Y-87949853D01*
X56396288Y-87939996D01*
X56393472Y-87930301D01*
X56390384Y-87920769D01*
X56387023Y-87911398D01*
X56383389Y-87902189D01*
X56379511Y-87893226D01*
X56375415Y-87884491D01*
X56371102Y-87875986D01*
X56366572Y-87867711D01*
X56361825Y-87859665D01*
X56356861Y-87851848D01*
X56351680Y-87844261D01*
X56346282Y-87836903D01*
X56340666Y-87829775D01*
X56334834Y-87822876D01*
X56328785Y-87816207D01*
X56322518Y-87809767D01*
X56316035Y-87803557D01*
X56309334Y-87797576D01*
X56302417Y-87791824D01*
X56295282Y-87786302D01*
X56287946Y-87781093D01*
X56280424Y-87776182D01*
X56272715Y-87771569D01*
X56264819Y-87767256D01*
X56256735Y-87763241D01*
X56248463Y-87759526D01*
X56240003Y-87756111D01*
X56231353Y-87752997D01*
X56222515Y-87750183D01*
X56213488Y-87747670D01*
X56204270Y-87745459D01*
X56194862Y-87743550D01*
X56185263Y-87741944D01*
X56175473Y-87740639D01*
X56165492Y-87739638D01*
X56155319Y-87738941D01*
X56145416Y-87738603D01*
X56135649Y-87738582D01*
X56126019Y-87738878D01*
X56116525Y-87739491D01*
X56107167Y-87740422D01*
X56097946Y-87741671D01*
X56088861Y-87743239D01*
X56079913Y-87745126D01*
X56071101Y-87747332D01*
X56062425Y-87749858D01*
X56053886Y-87752704D01*
X56045484Y-87755870D01*
X56037217Y-87759358D01*
X56029088Y-87763166D01*
X56021094Y-87767297D01*
X56013237Y-87771749D01*
X56005591Y-87776490D01*
X55998132Y-87781485D01*
X55990859Y-87786733D01*
X55983773Y-87792234D01*
X55976875Y-87797988D01*
X55970165Y-87803994D01*
X55963644Y-87810252D01*
X55957311Y-87816762D01*
X55951167Y-87823522D01*
X55945213Y-87830534D01*
X55939448Y-87837796D01*
X55933874Y-87845308D01*
X55928491Y-87853069D01*
X55923299Y-87861080D01*
X55918298Y-87869339D01*
X55913489Y-87877847D01*
X55908903Y-87886578D01*
X55904572Y-87895508D01*
X55900496Y-87904635D01*
X55896675Y-87913959D01*
X55893110Y-87923480D01*
X55889802Y-87933198D01*
X55886750Y-87943111D01*
X55883955Y-87953221D01*
X55881417Y-87963526D01*
X55879137Y-87974025D01*
X55877115Y-87984720D01*
X55875352Y-87995608D01*
X55873847Y-88006690D01*
X55872602Y-88017966D01*
X55871616Y-88029434D01*
X55870891Y-88041096D01*
X55870432Y-88052531D01*
X55870246Y-88063816D01*
X55589412Y-88063816D01*
X55589651Y-88046406D01*
X55590436Y-88026544D01*
X55591763Y-88006657D01*
X55593562Y-87987080D01*
X55595833Y-87967813D01*
X55598576Y-87948856D01*
X55601792Y-87930209D01*
X55605482Y-87911872D01*
X55609645Y-87893845D01*
X55614282Y-87876128D01*
X55619393Y-87858722D01*
X55624979Y-87841625D01*
X55631040Y-87824839D01*
X55637577Y-87808362D01*
X55644590Y-87792196D01*
X55652079Y-87776339D01*
X55660045Y-87760793D01*
X55668488Y-87745556D01*
X55677343Y-87730686D01*
X55686546Y-87716238D01*
X55696095Y-87702212D01*
X55705993Y-87688609D01*
X55716237Y-87675429D01*
X55726828Y-87662673D01*
X55737767Y-87650341D01*
X55749053Y-87638433D01*
X55760687Y-87626950D01*
X55772667Y-87615892D01*
X55784995Y-87605260D01*
X55797670Y-87595054D01*
X55810692Y-87585274D01*
X55824062Y-87575921D01*
X55837779Y-87566995D01*
X55851843Y-87558496D01*
X55866184Y-87550499D01*
X55880728Y-87543079D01*
X55895478Y-87536235D01*
X55910432Y-87529966D01*
X55925591Y-87524273D01*
X55940954Y-87519154D01*
X55956522Y-87514610D01*
X55972295Y-87510639D01*
X55988272Y-87507242D01*
X56004454Y-87504419D01*
X56020840Y-87502168D01*
X56037432Y-87500490D01*
X56054227Y-87499383D01*
X56071228Y-87498849D01*
X56088433Y-87498886D01*
X56105843Y-87499493D01*
X56115048Y-87500033D01*
X56124210Y-87500757D01*
X56133328Y-87501667D01*
X56142401Y-87502759D01*
X56151429Y-87504035D01*
X56160411Y-87505493D01*
X56169348Y-87507132D01*
X56178239Y-87508952D01*
X56195881Y-87513131D01*
X56213334Y-87518023D01*
X56230594Y-87523621D01*
X56247659Y-87529921D01*
X56256040Y-87533310D01*
X56264314Y-87536828D01*
X56272481Y-87540476D01*
X56280538Y-87544254D01*
X56288486Y-87548160D01*
X56296322Y-87552194D01*
X56304045Y-87556356D01*
X56311656Y-87560645D01*
X56319151Y-87565062D01*
X56326530Y-87569606D01*
X56333793Y-87574275D01*
X56340937Y-87579071D01*
X56347962Y-87583993D01*
X56354866Y-87589039D01*
X56361649Y-87594210D01*
X56368309Y-87599506D01*
X56375552Y-87605596D01*
X56382596Y-87611764D01*
X56389442Y-87618012D01*
X56396090Y-87624344D01*
X56402539Y-87630762D01*
X56408790Y-87637271D01*
X56414843Y-87643873D01*
X56420697Y-87650571D01*
X56420963Y-87650571D01*
X56449008Y-87116112D01*
X56731053Y-87130929D01*
G37*
D11*
X79092759Y-56588564D02*
X79330854Y-57255231D01*
X79330854Y-57255231D02*
X79568949Y-56588564D01*
X80378473Y-57207612D02*
X80283235Y-57255231D01*
X80283235Y-57255231D02*
X80092759Y-57255231D01*
X80092759Y-57255231D02*
X79997521Y-57207612D01*
X79997521Y-57207612D02*
X79949902Y-57159992D01*
X79949902Y-57159992D02*
X79902283Y-57064754D01*
X79902283Y-57064754D02*
X79902283Y-56779040D01*
X79902283Y-56779040D02*
X79949902Y-56683802D01*
X79949902Y-56683802D02*
X79997521Y-56636183D01*
X79997521Y-56636183D02*
X80092759Y-56588564D01*
X80092759Y-56588564D02*
X80283235Y-56588564D01*
X80283235Y-56588564D02*
X80378473Y-56636183D01*
X81235616Y-57207612D02*
X81140378Y-57255231D01*
X81140378Y-57255231D02*
X80949902Y-57255231D01*
X80949902Y-57255231D02*
X80854664Y-57207612D01*
X80854664Y-57207612D02*
X80807045Y-57159992D01*
X80807045Y-57159992D02*
X80759426Y-57064754D01*
X80759426Y-57064754D02*
X80759426Y-56779040D01*
X80759426Y-56779040D02*
X80807045Y-56683802D01*
X80807045Y-56683802D02*
X80854664Y-56636183D01*
X80854664Y-56636183D02*
X80949902Y-56588564D01*
X80949902Y-56588564D02*
X81140378Y-56588564D01*
X81140378Y-56588564D02*
X81235616Y-56636183D01*
X73190455Y-52006977D02*
X73952360Y-52006977D01*
X74857121Y-51721263D02*
X74857121Y-52530787D01*
X74857121Y-52530787D02*
X74809502Y-52626025D01*
X74809502Y-52626025D02*
X74761883Y-52673644D01*
X74761883Y-52673644D02*
X74666645Y-52721263D01*
X74666645Y-52721263D02*
X74523788Y-52721263D01*
X74523788Y-52721263D02*
X74428550Y-52673644D01*
X74857121Y-52340311D02*
X74761883Y-52387930D01*
X74761883Y-52387930D02*
X74571407Y-52387930D01*
X74571407Y-52387930D02*
X74476169Y-52340311D01*
X74476169Y-52340311D02*
X74428550Y-52292691D01*
X74428550Y-52292691D02*
X74380931Y-52197453D01*
X74380931Y-52197453D02*
X74380931Y-51911739D01*
X74380931Y-51911739D02*
X74428550Y-51816501D01*
X74428550Y-51816501D02*
X74476169Y-51768882D01*
X74476169Y-51768882D02*
X74571407Y-51721263D01*
X74571407Y-51721263D02*
X74761883Y-51721263D01*
X74761883Y-51721263D02*
X74857121Y-51768882D01*
X75761883Y-52387930D02*
X75761883Y-51864120D01*
X75761883Y-51864120D02*
X75714264Y-51768882D01*
X75714264Y-51768882D02*
X75619026Y-51721263D01*
X75619026Y-51721263D02*
X75428550Y-51721263D01*
X75428550Y-51721263D02*
X75333312Y-51768882D01*
X75761883Y-52340311D02*
X75666645Y-52387930D01*
X75666645Y-52387930D02*
X75428550Y-52387930D01*
X75428550Y-52387930D02*
X75333312Y-52340311D01*
X75333312Y-52340311D02*
X75285693Y-52245072D01*
X75285693Y-52245072D02*
X75285693Y-52149834D01*
X75285693Y-52149834D02*
X75333312Y-52054596D01*
X75333312Y-52054596D02*
X75428550Y-52006977D01*
X75428550Y-52006977D02*
X75666645Y-52006977D01*
X75666645Y-52006977D02*
X75761883Y-51959358D01*
X76238074Y-52387930D02*
X76238074Y-51721263D01*
X76238074Y-51387930D02*
X76190455Y-51435549D01*
X76190455Y-51435549D02*
X76238074Y-51483168D01*
X76238074Y-51483168D02*
X76285693Y-51435549D01*
X76285693Y-51435549D02*
X76238074Y-51387930D01*
X76238074Y-51387930D02*
X76238074Y-51483168D01*
X76714264Y-51721263D02*
X76714264Y-52387930D01*
X76714264Y-51816501D02*
X76761883Y-51768882D01*
X76761883Y-51768882D02*
X76857121Y-51721263D01*
X76857121Y-51721263D02*
X76999978Y-51721263D01*
X76999978Y-51721263D02*
X77095216Y-51768882D01*
X77095216Y-51768882D02*
X77142835Y-51864120D01*
X77142835Y-51864120D02*
X77142835Y-52387930D01*
X77619026Y-52006977D02*
X78380931Y-52006977D01*
X79867691Y-54395286D02*
X79772453Y-54347667D01*
X79772453Y-54347667D02*
X79724834Y-54300048D01*
X79724834Y-54300048D02*
X79677215Y-54204810D01*
X79677215Y-54204810D02*
X79677215Y-54157191D01*
X79677215Y-54157191D02*
X79724834Y-54061953D01*
X79724834Y-54061953D02*
X79772453Y-54014334D01*
X79772453Y-54014334D02*
X79867691Y-53966715D01*
X79867691Y-53966715D02*
X80058167Y-53966715D01*
X80058167Y-53966715D02*
X80153405Y-54014334D01*
X80153405Y-54014334D02*
X80201024Y-54061953D01*
X80201024Y-54061953D02*
X80248643Y-54157191D01*
X80248643Y-54157191D02*
X80248643Y-54204810D01*
X80248643Y-54204810D02*
X80201024Y-54300048D01*
X80201024Y-54300048D02*
X80153405Y-54347667D01*
X80153405Y-54347667D02*
X80058167Y-54395286D01*
X80058167Y-54395286D02*
X79867691Y-54395286D01*
X79867691Y-54395286D02*
X79772453Y-54442905D01*
X79772453Y-54442905D02*
X79724834Y-54490524D01*
X79724834Y-54490524D02*
X79677215Y-54585762D01*
X79677215Y-54585762D02*
X79677215Y-54776238D01*
X79677215Y-54776238D02*
X79724834Y-54871476D01*
X79724834Y-54871476D02*
X79772453Y-54919096D01*
X79772453Y-54919096D02*
X79867691Y-54966715D01*
X79867691Y-54966715D02*
X80058167Y-54966715D01*
X80058167Y-54966715D02*
X80153405Y-54919096D01*
X80153405Y-54919096D02*
X80201024Y-54871476D01*
X80201024Y-54871476D02*
X80248643Y-54776238D01*
X80248643Y-54776238D02*
X80248643Y-54585762D01*
X80248643Y-54585762D02*
X80201024Y-54490524D01*
X80201024Y-54490524D02*
X80153405Y-54442905D01*
X80153405Y-54442905D02*
X80058167Y-54395286D01*
X71594415Y-54857445D02*
X71022987Y-54857445D01*
X71308701Y-54857445D02*
X71308701Y-53857445D01*
X71308701Y-53857445D02*
X71213463Y-54000302D01*
X71213463Y-54000302D02*
X71118225Y-54095540D01*
X71118225Y-54095540D02*
X71022987Y-54143159D01*
X54903922Y-65069049D02*
X54951541Y-65021430D01*
X54951541Y-65021430D02*
X55046779Y-64973811D01*
X55046779Y-64973811D02*
X55284874Y-64973811D01*
X55284874Y-64973811D02*
X55380112Y-65021430D01*
X55380112Y-65021430D02*
X55427731Y-65069049D01*
X55427731Y-65069049D02*
X55475350Y-65164287D01*
X55475350Y-65164287D02*
X55475350Y-65259525D01*
X55475350Y-65259525D02*
X55427731Y-65402382D01*
X55427731Y-65402382D02*
X54856303Y-65973811D01*
X54856303Y-65973811D02*
X55475350Y-65973811D01*
X67829661Y-80795963D02*
X67829661Y-81605487D01*
X67829661Y-81605487D02*
X67782042Y-81700725D01*
X67782042Y-81700725D02*
X67734423Y-81748344D01*
X67734423Y-81748344D02*
X67639185Y-81795963D01*
X67639185Y-81795963D02*
X67496328Y-81795963D01*
X67496328Y-81795963D02*
X67401090Y-81748344D01*
X67829661Y-81415011D02*
X67734423Y-81462630D01*
X67734423Y-81462630D02*
X67543947Y-81462630D01*
X67543947Y-81462630D02*
X67448709Y-81415011D01*
X67448709Y-81415011D02*
X67401090Y-81367391D01*
X67401090Y-81367391D02*
X67353471Y-81272153D01*
X67353471Y-81272153D02*
X67353471Y-80986439D01*
X67353471Y-80986439D02*
X67401090Y-80891201D01*
X67401090Y-80891201D02*
X67448709Y-80843582D01*
X67448709Y-80843582D02*
X67543947Y-80795963D01*
X67543947Y-80795963D02*
X67734423Y-80795963D01*
X67734423Y-80795963D02*
X67829661Y-80843582D01*
X68305852Y-80795963D02*
X68305852Y-81462630D01*
X68305852Y-80891201D02*
X68353471Y-80843582D01*
X68353471Y-80843582D02*
X68448709Y-80795963D01*
X68448709Y-80795963D02*
X68591566Y-80795963D01*
X68591566Y-80795963D02*
X68686804Y-80843582D01*
X68686804Y-80843582D02*
X68734423Y-80938820D01*
X68734423Y-80938820D02*
X68734423Y-81462630D01*
X69639185Y-81462630D02*
X69639185Y-80462630D01*
X69639185Y-81415011D02*
X69543947Y-81462630D01*
X69543947Y-81462630D02*
X69353471Y-81462630D01*
X69353471Y-81462630D02*
X69258233Y-81415011D01*
X69258233Y-81415011D02*
X69210614Y-81367391D01*
X69210614Y-81367391D02*
X69162995Y-81272153D01*
X69162995Y-81272153D02*
X69162995Y-80986439D01*
X69162995Y-80986439D02*
X69210614Y-80891201D01*
X69210614Y-80891201D02*
X69258233Y-80843582D01*
X69258233Y-80843582D02*
X69353471Y-80795963D01*
X69353471Y-80795963D02*
X69543947Y-80795963D01*
X69543947Y-80795963D02*
X69639185Y-80843582D01*
X54892147Y-67482899D02*
X55511194Y-67482899D01*
X55511194Y-67482899D02*
X55177861Y-67863851D01*
X55177861Y-67863851D02*
X55320718Y-67863851D01*
X55320718Y-67863851D02*
X55415956Y-67911470D01*
X55415956Y-67911470D02*
X55463575Y-67959089D01*
X55463575Y-67959089D02*
X55511194Y-68054327D01*
X55511194Y-68054327D02*
X55511194Y-68292422D01*
X55511194Y-68292422D02*
X55463575Y-68387660D01*
X55463575Y-68387660D02*
X55415956Y-68435280D01*
X55415956Y-68435280D02*
X55320718Y-68482899D01*
X55320718Y-68482899D02*
X55035004Y-68482899D01*
X55035004Y-68482899D02*
X54939766Y-68435280D01*
X54939766Y-68435280D02*
X54892147Y-68387660D01*
X60765350Y-59203152D02*
X60765350Y-60012676D01*
X60765350Y-60012676D02*
X60717731Y-60107914D01*
X60717731Y-60107914D02*
X60670112Y-60155533D01*
X60670112Y-60155533D02*
X60574874Y-60203152D01*
X60574874Y-60203152D02*
X60432017Y-60203152D01*
X60432017Y-60203152D02*
X60336779Y-60155533D01*
X60765350Y-59822200D02*
X60670112Y-59869819D01*
X60670112Y-59869819D02*
X60479636Y-59869819D01*
X60479636Y-59869819D02*
X60384398Y-59822200D01*
X60384398Y-59822200D02*
X60336779Y-59774580D01*
X60336779Y-59774580D02*
X60289160Y-59679342D01*
X60289160Y-59679342D02*
X60289160Y-59393628D01*
X60289160Y-59393628D02*
X60336779Y-59298390D01*
X60336779Y-59298390D02*
X60384398Y-59250771D01*
X60384398Y-59250771D02*
X60479636Y-59203152D01*
X60479636Y-59203152D02*
X60670112Y-59203152D01*
X60670112Y-59203152D02*
X60765350Y-59250771D01*
X61241541Y-59203152D02*
X61241541Y-59869819D01*
X61241541Y-59298390D02*
X61289160Y-59250771D01*
X61289160Y-59250771D02*
X61384398Y-59203152D01*
X61384398Y-59203152D02*
X61527255Y-59203152D01*
X61527255Y-59203152D02*
X61622493Y-59250771D01*
X61622493Y-59250771D02*
X61670112Y-59346009D01*
X61670112Y-59346009D02*
X61670112Y-59869819D01*
X62574874Y-59869819D02*
X62574874Y-58869819D01*
X62574874Y-59822200D02*
X62479636Y-59869819D01*
X62479636Y-59869819D02*
X62289160Y-59869819D01*
X62289160Y-59869819D02*
X62193922Y-59822200D01*
X62193922Y-59822200D02*
X62146303Y-59774580D01*
X62146303Y-59774580D02*
X62098684Y-59679342D01*
X62098684Y-59679342D02*
X62098684Y-59393628D01*
X62098684Y-59393628D02*
X62146303Y-59298390D01*
X62146303Y-59298390D02*
X62193922Y-59250771D01*
X62193922Y-59250771D02*
X62289160Y-59203152D01*
X62289160Y-59203152D02*
X62479636Y-59203152D01*
X62479636Y-59203152D02*
X62574874Y-59250771D01*
X64717731Y-59822200D02*
X64622493Y-59869819D01*
X64622493Y-59869819D02*
X64432017Y-59869819D01*
X64432017Y-59869819D02*
X64336779Y-59822200D01*
X64336779Y-59822200D02*
X64289160Y-59726961D01*
X64289160Y-59726961D02*
X64289160Y-59346009D01*
X64289160Y-59346009D02*
X64336779Y-59250771D01*
X64336779Y-59250771D02*
X64432017Y-59203152D01*
X64432017Y-59203152D02*
X64622493Y-59203152D01*
X64622493Y-59203152D02*
X64717731Y-59250771D01*
X64717731Y-59250771D02*
X64765350Y-59346009D01*
X64765350Y-59346009D02*
X64765350Y-59441247D01*
X64765350Y-59441247D02*
X64289160Y-59536485D01*
X65193922Y-59203152D02*
X65193922Y-59869819D01*
X65193922Y-59298390D02*
X65241541Y-59250771D01*
X65241541Y-59250771D02*
X65336779Y-59203152D01*
X65336779Y-59203152D02*
X65479636Y-59203152D01*
X65479636Y-59203152D02*
X65574874Y-59250771D01*
X65574874Y-59250771D02*
X65622493Y-59346009D01*
X65622493Y-59346009D02*
X65622493Y-59869819D01*
X65955827Y-59203152D02*
X66336779Y-59203152D01*
X66098684Y-58869819D02*
X66098684Y-59726961D01*
X66098684Y-59726961D02*
X66146303Y-59822200D01*
X66146303Y-59822200D02*
X66241541Y-59869819D01*
X66241541Y-59869819D02*
X66336779Y-59869819D01*
X66670113Y-59869819D02*
X66670113Y-59203152D01*
X66670113Y-59393628D02*
X66717732Y-59298390D01*
X66717732Y-59298390D02*
X66765351Y-59250771D01*
X66765351Y-59250771D02*
X66860589Y-59203152D01*
X66860589Y-59203152D02*
X66955827Y-59203152D01*
X67717732Y-59869819D02*
X67717732Y-59346009D01*
X67717732Y-59346009D02*
X67670113Y-59250771D01*
X67670113Y-59250771D02*
X67574875Y-59203152D01*
X67574875Y-59203152D02*
X67384399Y-59203152D01*
X67384399Y-59203152D02*
X67289161Y-59250771D01*
X67717732Y-59822200D02*
X67622494Y-59869819D01*
X67622494Y-59869819D02*
X67384399Y-59869819D01*
X67384399Y-59869819D02*
X67289161Y-59822200D01*
X67289161Y-59822200D02*
X67241542Y-59726961D01*
X67241542Y-59726961D02*
X67241542Y-59631723D01*
X67241542Y-59631723D02*
X67289161Y-59536485D01*
X67289161Y-59536485D02*
X67384399Y-59488866D01*
X67384399Y-59488866D02*
X67622494Y-59488866D01*
X67622494Y-59488866D02*
X67717732Y-59441247D01*
X68622494Y-59869819D02*
X68622494Y-58869819D01*
X68622494Y-59822200D02*
X68527256Y-59869819D01*
X68527256Y-59869819D02*
X68336780Y-59869819D01*
X68336780Y-59869819D02*
X68241542Y-59822200D01*
X68241542Y-59822200D02*
X68193923Y-59774580D01*
X68193923Y-59774580D02*
X68146304Y-59679342D01*
X68146304Y-59679342D02*
X68146304Y-59393628D01*
X68146304Y-59393628D02*
X68193923Y-59298390D01*
X68193923Y-59298390D02*
X68241542Y-59250771D01*
X68241542Y-59250771D02*
X68336780Y-59203152D01*
X68336780Y-59203152D02*
X68527256Y-59203152D01*
X68527256Y-59203152D02*
X68622494Y-59250771D01*
X69527256Y-59869819D02*
X69527256Y-59346009D01*
X69527256Y-59346009D02*
X69479637Y-59250771D01*
X69479637Y-59250771D02*
X69384399Y-59203152D01*
X69384399Y-59203152D02*
X69193923Y-59203152D01*
X69193923Y-59203152D02*
X69098685Y-59250771D01*
X69527256Y-59822200D02*
X69432018Y-59869819D01*
X69432018Y-59869819D02*
X69193923Y-59869819D01*
X69193923Y-59869819D02*
X69098685Y-59822200D01*
X69098685Y-59822200D02*
X69051066Y-59726961D01*
X69051066Y-59726961D02*
X69051066Y-59631723D01*
X69051066Y-59631723D02*
X69098685Y-59536485D01*
X69098685Y-59536485D02*
X69193923Y-59488866D01*
X69193923Y-59488866D02*
X69432018Y-59488866D01*
X69432018Y-59488866D02*
X69527256Y-59441247D01*
X55516989Y-63298841D02*
X54945561Y-63298841D01*
X55231275Y-63298841D02*
X55231275Y-62298841D01*
X55231275Y-62298841D02*
X55136037Y-62441698D01*
X55136037Y-62441698D02*
X55040799Y-62536936D01*
X55040799Y-62536936D02*
X54945561Y-62584555D01*
X61477482Y-81466642D02*
X61572720Y-81514261D01*
X61572720Y-81514261D02*
X61763196Y-81514261D01*
X61763196Y-81514261D02*
X61858434Y-81466642D01*
X61858434Y-81466642D02*
X61906053Y-81371403D01*
X61906053Y-81371403D02*
X61906053Y-81323784D01*
X61906053Y-81323784D02*
X61858434Y-81228546D01*
X61858434Y-81228546D02*
X61763196Y-81180927D01*
X61763196Y-81180927D02*
X61620339Y-81180927D01*
X61620339Y-81180927D02*
X61525101Y-81133308D01*
X61525101Y-81133308D02*
X61477482Y-81038070D01*
X61477482Y-81038070D02*
X61477482Y-80990451D01*
X61477482Y-80990451D02*
X61525101Y-80895213D01*
X61525101Y-80895213D02*
X61620339Y-80847594D01*
X61620339Y-80847594D02*
X61763196Y-80847594D01*
X61763196Y-80847594D02*
X61858434Y-80895213D01*
X62763196Y-81514261D02*
X62763196Y-80990451D01*
X62763196Y-80990451D02*
X62715577Y-80895213D01*
X62715577Y-80895213D02*
X62620339Y-80847594D01*
X62620339Y-80847594D02*
X62429863Y-80847594D01*
X62429863Y-80847594D02*
X62334625Y-80895213D01*
X62763196Y-81466642D02*
X62667958Y-81514261D01*
X62667958Y-81514261D02*
X62429863Y-81514261D01*
X62429863Y-81514261D02*
X62334625Y-81466642D01*
X62334625Y-81466642D02*
X62287006Y-81371403D01*
X62287006Y-81371403D02*
X62287006Y-81276165D01*
X62287006Y-81276165D02*
X62334625Y-81180927D01*
X62334625Y-81180927D02*
X62429863Y-81133308D01*
X62429863Y-81133308D02*
X62667958Y-81133308D01*
X62667958Y-81133308D02*
X62763196Y-81085689D01*
X63382244Y-81514261D02*
X63287006Y-81466642D01*
X63287006Y-81466642D02*
X63239387Y-81371403D01*
X63239387Y-81371403D02*
X63239387Y-80514261D01*
X63763197Y-81514261D02*
X63763197Y-80847594D01*
X63763197Y-80514261D02*
X63715578Y-80561880D01*
X63715578Y-80561880D02*
X63763197Y-80609499D01*
X63763197Y-80609499D02*
X63810816Y-80561880D01*
X63810816Y-80561880D02*
X63763197Y-80514261D01*
X63763197Y-80514261D02*
X63763197Y-80609499D01*
X64667958Y-81514261D02*
X64667958Y-80514261D01*
X64667958Y-81466642D02*
X64572720Y-81514261D01*
X64572720Y-81514261D02*
X64382244Y-81514261D01*
X64382244Y-81514261D02*
X64287006Y-81466642D01*
X64287006Y-81466642D02*
X64239387Y-81419022D01*
X64239387Y-81419022D02*
X64191768Y-81323784D01*
X64191768Y-81323784D02*
X64191768Y-81038070D01*
X64191768Y-81038070D02*
X64239387Y-80942832D01*
X64239387Y-80942832D02*
X64287006Y-80895213D01*
X64287006Y-80895213D02*
X64382244Y-80847594D01*
X64382244Y-80847594D02*
X64572720Y-80847594D01*
X64572720Y-80847594D02*
X64667958Y-80895213D01*
X65572720Y-81514261D02*
X65572720Y-80990451D01*
X65572720Y-80990451D02*
X65525101Y-80895213D01*
X65525101Y-80895213D02*
X65429863Y-80847594D01*
X65429863Y-80847594D02*
X65239387Y-80847594D01*
X65239387Y-80847594D02*
X65144149Y-80895213D01*
X65572720Y-81466642D02*
X65477482Y-81514261D01*
X65477482Y-81514261D02*
X65239387Y-81514261D01*
X65239387Y-81514261D02*
X65144149Y-81466642D01*
X65144149Y-81466642D02*
X65096530Y-81371403D01*
X65096530Y-81371403D02*
X65096530Y-81276165D01*
X65096530Y-81276165D02*
X65144149Y-81180927D01*
X65144149Y-81180927D02*
X65239387Y-81133308D01*
X65239387Y-81133308D02*
X65477482Y-81133308D01*
X65477482Y-81133308D02*
X65572720Y-81085689D01*
X51078585Y-59807281D02*
X51078585Y-60807281D01*
X51078585Y-59854900D02*
X51173823Y-59807281D01*
X51173823Y-59807281D02*
X51364299Y-59807281D01*
X51364299Y-59807281D02*
X51459537Y-59854900D01*
X51459537Y-59854900D02*
X51507156Y-59902519D01*
X51507156Y-59902519D02*
X51554775Y-59997757D01*
X51554775Y-59997757D02*
X51554775Y-60283471D01*
X51554775Y-60283471D02*
X51507156Y-60378709D01*
X51507156Y-60378709D02*
X51459537Y-60426329D01*
X51459537Y-60426329D02*
X51364299Y-60473948D01*
X51364299Y-60473948D02*
X51173823Y-60473948D01*
X51173823Y-60473948D02*
X51078585Y-60426329D01*
X52126204Y-60473948D02*
X52030966Y-60426329D01*
X52030966Y-60426329D02*
X51983347Y-60378709D01*
X51983347Y-60378709D02*
X51935728Y-60283471D01*
X51935728Y-60283471D02*
X51935728Y-59997757D01*
X51935728Y-59997757D02*
X51983347Y-59902519D01*
X51983347Y-59902519D02*
X52030966Y-59854900D01*
X52030966Y-59854900D02*
X52126204Y-59807281D01*
X52126204Y-59807281D02*
X52269061Y-59807281D01*
X52269061Y-59807281D02*
X52364299Y-59854900D01*
X52364299Y-59854900D02*
X52411918Y-59902519D01*
X52411918Y-59902519D02*
X52459537Y-59997757D01*
X52459537Y-59997757D02*
X52459537Y-60283471D01*
X52459537Y-60283471D02*
X52411918Y-60378709D01*
X52411918Y-60378709D02*
X52364299Y-60426329D01*
X52364299Y-60426329D02*
X52269061Y-60473948D01*
X52269061Y-60473948D02*
X52126204Y-60473948D01*
X52745252Y-59807281D02*
X53126204Y-59807281D01*
X52888109Y-59473948D02*
X52888109Y-60331090D01*
X52888109Y-60331090D02*
X52935728Y-60426329D01*
X52935728Y-60426329D02*
X53030966Y-60473948D01*
X53030966Y-60473948D02*
X53126204Y-60473948D01*
X79465742Y-61817190D02*
X79465742Y-62626714D01*
X79465742Y-62626714D02*
X79418123Y-62721952D01*
X79418123Y-62721952D02*
X79370504Y-62769571D01*
X79370504Y-62769571D02*
X79275266Y-62817190D01*
X79275266Y-62817190D02*
X79132409Y-62817190D01*
X79132409Y-62817190D02*
X79037171Y-62769571D01*
X79465742Y-62436238D02*
X79370504Y-62483857D01*
X79370504Y-62483857D02*
X79180028Y-62483857D01*
X79180028Y-62483857D02*
X79084790Y-62436238D01*
X79084790Y-62436238D02*
X79037171Y-62388618D01*
X79037171Y-62388618D02*
X78989552Y-62293380D01*
X78989552Y-62293380D02*
X78989552Y-62007666D01*
X78989552Y-62007666D02*
X79037171Y-61912428D01*
X79037171Y-61912428D02*
X79084790Y-61864809D01*
X79084790Y-61864809D02*
X79180028Y-61817190D01*
X79180028Y-61817190D02*
X79370504Y-61817190D01*
X79370504Y-61817190D02*
X79465742Y-61864809D01*
X79941933Y-61817190D02*
X79941933Y-62483857D01*
X79941933Y-61912428D02*
X79989552Y-61864809D01*
X79989552Y-61864809D02*
X80084790Y-61817190D01*
X80084790Y-61817190D02*
X80227647Y-61817190D01*
X80227647Y-61817190D02*
X80322885Y-61864809D01*
X80322885Y-61864809D02*
X80370504Y-61960047D01*
X80370504Y-61960047D02*
X80370504Y-62483857D01*
X81275266Y-62483857D02*
X81275266Y-61483857D01*
X81275266Y-62436238D02*
X81180028Y-62483857D01*
X81180028Y-62483857D02*
X80989552Y-62483857D01*
X80989552Y-62483857D02*
X80894314Y-62436238D01*
X80894314Y-62436238D02*
X80846695Y-62388618D01*
X80846695Y-62388618D02*
X80799076Y-62293380D01*
X80799076Y-62293380D02*
X80799076Y-62007666D01*
X80799076Y-62007666D02*
X80846695Y-61912428D01*
X80846695Y-61912428D02*
X80894314Y-61864809D01*
X80894314Y-61864809D02*
X80989552Y-61817190D01*
X80989552Y-61817190D02*
X81180028Y-61817190D01*
X81180028Y-61817190D02*
X81275266Y-61864809D01*
X78639610Y-60367332D02*
X78687230Y-60414951D01*
X78687230Y-60414951D02*
X78734849Y-60557808D01*
X78734849Y-60557808D02*
X78734849Y-60653046D01*
X78734849Y-60653046D02*
X78687230Y-60795903D01*
X78687230Y-60795903D02*
X78591991Y-60891141D01*
X78591991Y-60891141D02*
X78496753Y-60938760D01*
X78496753Y-60938760D02*
X78306277Y-60986379D01*
X78306277Y-60986379D02*
X78163420Y-60986379D01*
X78163420Y-60986379D02*
X77972944Y-60938760D01*
X77972944Y-60938760D02*
X77877706Y-60891141D01*
X77877706Y-60891141D02*
X77782468Y-60795903D01*
X77782468Y-60795903D02*
X77734849Y-60653046D01*
X77734849Y-60653046D02*
X77734849Y-60557808D01*
X77734849Y-60557808D02*
X77782468Y-60414951D01*
X77782468Y-60414951D02*
X77830087Y-60367332D01*
X77830087Y-59986379D02*
X77782468Y-59938760D01*
X77782468Y-59938760D02*
X77734849Y-59843522D01*
X77734849Y-59843522D02*
X77734849Y-59605427D01*
X77734849Y-59605427D02*
X77782468Y-59510189D01*
X77782468Y-59510189D02*
X77830087Y-59462570D01*
X77830087Y-59462570D02*
X77925325Y-59414951D01*
X77925325Y-59414951D02*
X78020563Y-59414951D01*
X78020563Y-59414951D02*
X78163420Y-59462570D01*
X78163420Y-59462570D02*
X78734849Y-60033998D01*
X78734849Y-60033998D02*
X78734849Y-59414951D01*
X65709580Y-75666666D02*
X65757200Y-75714285D01*
X65757200Y-75714285D02*
X65804819Y-75857142D01*
X65804819Y-75857142D02*
X65804819Y-75952380D01*
X65804819Y-75952380D02*
X65757200Y-76095237D01*
X65757200Y-76095237D02*
X65661961Y-76190475D01*
X65661961Y-76190475D02*
X65566723Y-76238094D01*
X65566723Y-76238094D02*
X65376247Y-76285713D01*
X65376247Y-76285713D02*
X65233390Y-76285713D01*
X65233390Y-76285713D02*
X65042914Y-76238094D01*
X65042914Y-76238094D02*
X64947676Y-76190475D01*
X64947676Y-76190475D02*
X64852438Y-76095237D01*
X64852438Y-76095237D02*
X64804819Y-75952380D01*
X64804819Y-75952380D02*
X64804819Y-75857142D01*
X64804819Y-75857142D02*
X64852438Y-75714285D01*
X64852438Y-75714285D02*
X64900057Y-75666666D01*
X64804819Y-74761904D02*
X64804819Y-75238094D01*
X64804819Y-75238094D02*
X65281009Y-75285713D01*
X65281009Y-75285713D02*
X65233390Y-75238094D01*
X65233390Y-75238094D02*
X65185771Y-75142856D01*
X65185771Y-75142856D02*
X65185771Y-74904761D01*
X65185771Y-74904761D02*
X65233390Y-74809523D01*
X65233390Y-74809523D02*
X65281009Y-74761904D01*
X65281009Y-74761904D02*
X65376247Y-74714285D01*
X65376247Y-74714285D02*
X65614342Y-74714285D01*
X65614342Y-74714285D02*
X65709580Y-74761904D01*
X65709580Y-74761904D02*
X65757200Y-74809523D01*
X65757200Y-74809523D02*
X65804819Y-74904761D01*
X65804819Y-74904761D02*
X65804819Y-75142856D01*
X65804819Y-75142856D02*
X65757200Y-75238094D01*
X65757200Y-75238094D02*
X65709580Y-75285713D01*
X66718506Y-78491426D02*
X66242315Y-78824759D01*
X66718506Y-79062854D02*
X65718506Y-79062854D01*
X65718506Y-79062854D02*
X65718506Y-78681902D01*
X65718506Y-78681902D02*
X65766125Y-78586664D01*
X65766125Y-78586664D02*
X65813744Y-78539045D01*
X65813744Y-78539045D02*
X65908982Y-78491426D01*
X65908982Y-78491426D02*
X66051839Y-78491426D01*
X66051839Y-78491426D02*
X66147077Y-78539045D01*
X66147077Y-78539045D02*
X66194696Y-78586664D01*
X66194696Y-78586664D02*
X66242315Y-78681902D01*
X66242315Y-78681902D02*
X66242315Y-79062854D01*
X66718506Y-77539045D02*
X66718506Y-78110473D01*
X66718506Y-77824759D02*
X65718506Y-77824759D01*
X65718506Y-77824759D02*
X65861363Y-77919997D01*
X65861363Y-77919997D02*
X65956601Y-78015235D01*
X65956601Y-78015235D02*
X66004220Y-78110473D01*
X65260950Y-83602579D02*
X64784760Y-83602579D01*
X64784760Y-83602579D02*
X64784760Y-82602579D01*
X65546665Y-83554960D02*
X65689522Y-83602579D01*
X65689522Y-83602579D02*
X65927617Y-83602579D01*
X65927617Y-83602579D02*
X66022855Y-83554960D01*
X66022855Y-83554960D02*
X66070474Y-83507340D01*
X66070474Y-83507340D02*
X66118093Y-83412102D01*
X66118093Y-83412102D02*
X66118093Y-83316864D01*
X66118093Y-83316864D02*
X66070474Y-83221626D01*
X66070474Y-83221626D02*
X66022855Y-83174007D01*
X66022855Y-83174007D02*
X65927617Y-83126388D01*
X65927617Y-83126388D02*
X65737141Y-83078769D01*
X65737141Y-83078769D02*
X65641903Y-83031150D01*
X65641903Y-83031150D02*
X65594284Y-82983531D01*
X65594284Y-82983531D02*
X65546665Y-82888293D01*
X65546665Y-82888293D02*
X65546665Y-82793055D01*
X65546665Y-82793055D02*
X65594284Y-82697817D01*
X65594284Y-82697817D02*
X65641903Y-82650198D01*
X65641903Y-82650198D02*
X65737141Y-82602579D01*
X65737141Y-82602579D02*
X65975236Y-82602579D01*
X65975236Y-82602579D02*
X66118093Y-82650198D01*
X67070474Y-83602579D02*
X66499046Y-83602579D01*
X66784760Y-83602579D02*
X66784760Y-82602579D01*
X66784760Y-82602579D02*
X66689522Y-82745436D01*
X66689522Y-82745436D02*
X66594284Y-82840674D01*
X66594284Y-82840674D02*
X66499046Y-82888293D01*
X63638276Y-65344513D02*
X63685896Y-65392132D01*
X63685896Y-65392132D02*
X63733515Y-65534989D01*
X63733515Y-65534989D02*
X63733515Y-65630227D01*
X63733515Y-65630227D02*
X63685896Y-65773084D01*
X63685896Y-65773084D02*
X63590657Y-65868322D01*
X63590657Y-65868322D02*
X63495419Y-65915941D01*
X63495419Y-65915941D02*
X63304943Y-65963560D01*
X63304943Y-65963560D02*
X63162086Y-65963560D01*
X63162086Y-65963560D02*
X62971610Y-65915941D01*
X62971610Y-65915941D02*
X62876372Y-65868322D01*
X62876372Y-65868322D02*
X62781134Y-65773084D01*
X62781134Y-65773084D02*
X62733515Y-65630227D01*
X62733515Y-65630227D02*
X62733515Y-65534989D01*
X62733515Y-65534989D02*
X62781134Y-65392132D01*
X62781134Y-65392132D02*
X62828753Y-65344513D01*
X62733515Y-65011179D02*
X62733515Y-64392132D01*
X62733515Y-64392132D02*
X63114467Y-64725465D01*
X63114467Y-64725465D02*
X63114467Y-64582608D01*
X63114467Y-64582608D02*
X63162086Y-64487370D01*
X63162086Y-64487370D02*
X63209705Y-64439751D01*
X63209705Y-64439751D02*
X63304943Y-64392132D01*
X63304943Y-64392132D02*
X63543038Y-64392132D01*
X63543038Y-64392132D02*
X63638276Y-64439751D01*
X63638276Y-64439751D02*
X63685896Y-64487370D01*
X63685896Y-64487370D02*
X63733515Y-64582608D01*
X63733515Y-64582608D02*
X63733515Y-64868322D01*
X63733515Y-64868322D02*
X63685896Y-64963560D01*
X63685896Y-64963560D02*
X63638276Y-65011179D01*
X83578076Y-59210423D02*
X84292361Y-59210423D01*
X84292361Y-59210423D02*
X84435218Y-59258042D01*
X84435218Y-59258042D02*
X84530457Y-59353280D01*
X84530457Y-59353280D02*
X84578076Y-59496137D01*
X84578076Y-59496137D02*
X84578076Y-59591375D01*
X83673314Y-58781851D02*
X83625695Y-58734232D01*
X83625695Y-58734232D02*
X83578076Y-58638994D01*
X83578076Y-58638994D02*
X83578076Y-58400899D01*
X83578076Y-58400899D02*
X83625695Y-58305661D01*
X83625695Y-58305661D02*
X83673314Y-58258042D01*
X83673314Y-58258042D02*
X83768552Y-58210423D01*
X83768552Y-58210423D02*
X83863790Y-58210423D01*
X83863790Y-58210423D02*
X84006647Y-58258042D01*
X84006647Y-58258042D02*
X84578076Y-58829470D01*
X84578076Y-58829470D02*
X84578076Y-58210423D01*
X79462831Y-70422887D02*
X78462831Y-70422887D01*
X78462831Y-70422887D02*
X78462831Y-70184792D01*
X78462831Y-70184792D02*
X78510450Y-70041935D01*
X78510450Y-70041935D02*
X78605688Y-69946697D01*
X78605688Y-69946697D02*
X78700926Y-69899078D01*
X78700926Y-69899078D02*
X78891402Y-69851459D01*
X78891402Y-69851459D02*
X79034259Y-69851459D01*
X79034259Y-69851459D02*
X79224735Y-69899078D01*
X79224735Y-69899078D02*
X79319973Y-69946697D01*
X79319973Y-69946697D02*
X79415212Y-70041935D01*
X79415212Y-70041935D02*
X79462831Y-70184792D01*
X79462831Y-70184792D02*
X79462831Y-70422887D01*
X79462831Y-68899078D02*
X79462831Y-69470506D01*
X79462831Y-69184792D02*
X78462831Y-69184792D01*
X78462831Y-69184792D02*
X78605688Y-69280030D01*
X78605688Y-69280030D02*
X78700926Y-69375268D01*
X78700926Y-69375268D02*
X78748545Y-69470506D01*
X53489458Y-81011775D02*
X53441839Y-81059395D01*
X53441839Y-81059395D02*
X53298982Y-81107014D01*
X53298982Y-81107014D02*
X53203744Y-81107014D01*
X53203744Y-81107014D02*
X53060887Y-81059395D01*
X53060887Y-81059395D02*
X52965649Y-80964156D01*
X52965649Y-80964156D02*
X52918030Y-80868918D01*
X52918030Y-80868918D02*
X52870411Y-80678442D01*
X52870411Y-80678442D02*
X52870411Y-80535585D01*
X52870411Y-80535585D02*
X52918030Y-80345109D01*
X52918030Y-80345109D02*
X52965649Y-80249871D01*
X52965649Y-80249871D02*
X53060887Y-80154633D01*
X53060887Y-80154633D02*
X53203744Y-80107014D01*
X53203744Y-80107014D02*
X53298982Y-80107014D01*
X53298982Y-80107014D02*
X53441839Y-80154633D01*
X53441839Y-80154633D02*
X53489458Y-80202252D01*
X53822792Y-80107014D02*
X54489458Y-80107014D01*
X54489458Y-80107014D02*
X54060887Y-81107014D01*
X82709580Y-83166666D02*
X82757200Y-83214285D01*
X82757200Y-83214285D02*
X82804819Y-83357142D01*
X82804819Y-83357142D02*
X82804819Y-83452380D01*
X82804819Y-83452380D02*
X82757200Y-83595237D01*
X82757200Y-83595237D02*
X82661961Y-83690475D01*
X82661961Y-83690475D02*
X82566723Y-83738094D01*
X82566723Y-83738094D02*
X82376247Y-83785713D01*
X82376247Y-83785713D02*
X82233390Y-83785713D01*
X82233390Y-83785713D02*
X82042914Y-83738094D01*
X82042914Y-83738094D02*
X81947676Y-83690475D01*
X81947676Y-83690475D02*
X81852438Y-83595237D01*
X81852438Y-83595237D02*
X81804819Y-83452380D01*
X81804819Y-83452380D02*
X81804819Y-83357142D01*
X81804819Y-83357142D02*
X81852438Y-83214285D01*
X81852438Y-83214285D02*
X81900057Y-83166666D01*
X81804819Y-82309523D02*
X81804819Y-82499999D01*
X81804819Y-82499999D02*
X81852438Y-82595237D01*
X81852438Y-82595237D02*
X81900057Y-82642856D01*
X81900057Y-82642856D02*
X82042914Y-82738094D01*
X82042914Y-82738094D02*
X82233390Y-82785713D01*
X82233390Y-82785713D02*
X82614342Y-82785713D01*
X82614342Y-82785713D02*
X82709580Y-82738094D01*
X82709580Y-82738094D02*
X82757200Y-82690475D01*
X82757200Y-82690475D02*
X82804819Y-82595237D01*
X82804819Y-82595237D02*
X82804819Y-82404761D01*
X82804819Y-82404761D02*
X82757200Y-82309523D01*
X82757200Y-82309523D02*
X82709580Y-82261904D01*
X82709580Y-82261904D02*
X82614342Y-82214285D01*
X82614342Y-82214285D02*
X82376247Y-82214285D01*
X82376247Y-82214285D02*
X82281009Y-82261904D01*
X82281009Y-82261904D02*
X82233390Y-82309523D01*
X82233390Y-82309523D02*
X82185771Y-82404761D01*
X82185771Y-82404761D02*
X82185771Y-82595237D01*
X82185771Y-82595237D02*
X82233390Y-82690475D01*
X82233390Y-82690475D02*
X82281009Y-82738094D01*
X82281009Y-82738094D02*
X82376247Y-82785713D01*
X63666666Y-55454819D02*
X63666666Y-56169104D01*
X63666666Y-56169104D02*
X63619047Y-56311961D01*
X63619047Y-56311961D02*
X63523809Y-56407200D01*
X63523809Y-56407200D02*
X63380952Y-56454819D01*
X63380952Y-56454819D02*
X63285714Y-56454819D01*
X64666666Y-56454819D02*
X64095238Y-56454819D01*
X64380952Y-56454819D02*
X64380952Y-55454819D01*
X64380952Y-55454819D02*
X64285714Y-55597676D01*
X64285714Y-55597676D02*
X64190476Y-55692914D01*
X64190476Y-55692914D02*
X64095238Y-55740533D01*
X65679580Y-62116666D02*
X65727200Y-62164285D01*
X65727200Y-62164285D02*
X65774819Y-62307142D01*
X65774819Y-62307142D02*
X65774819Y-62402380D01*
X65774819Y-62402380D02*
X65727200Y-62545237D01*
X65727200Y-62545237D02*
X65631961Y-62640475D01*
X65631961Y-62640475D02*
X65536723Y-62688094D01*
X65536723Y-62688094D02*
X65346247Y-62735713D01*
X65346247Y-62735713D02*
X65203390Y-62735713D01*
X65203390Y-62735713D02*
X65012914Y-62688094D01*
X65012914Y-62688094D02*
X64917676Y-62640475D01*
X64917676Y-62640475D02*
X64822438Y-62545237D01*
X64822438Y-62545237D02*
X64774819Y-62402380D01*
X64774819Y-62402380D02*
X64774819Y-62307142D01*
X64774819Y-62307142D02*
X64822438Y-62164285D01*
X64822438Y-62164285D02*
X64870057Y-62116666D01*
X65774819Y-61164285D02*
X65774819Y-61735713D01*
X65774819Y-61449999D02*
X64774819Y-61449999D01*
X64774819Y-61449999D02*
X64917676Y-61545237D01*
X64917676Y-61545237D02*
X65012914Y-61640475D01*
X65012914Y-61640475D02*
X65060533Y-61735713D01*
X71302329Y-78382281D02*
X71349949Y-78429900D01*
X71349949Y-78429900D02*
X71397568Y-78572757D01*
X71397568Y-78572757D02*
X71397568Y-78667995D01*
X71397568Y-78667995D02*
X71349949Y-78810852D01*
X71349949Y-78810852D02*
X71254710Y-78906090D01*
X71254710Y-78906090D02*
X71159472Y-78953709D01*
X71159472Y-78953709D02*
X70968996Y-79001328D01*
X70968996Y-79001328D02*
X70826139Y-79001328D01*
X70826139Y-79001328D02*
X70635663Y-78953709D01*
X70635663Y-78953709D02*
X70540425Y-78906090D01*
X70540425Y-78906090D02*
X70445187Y-78810852D01*
X70445187Y-78810852D02*
X70397568Y-78667995D01*
X70397568Y-78667995D02*
X70397568Y-78572757D01*
X70397568Y-78572757D02*
X70445187Y-78429900D01*
X70445187Y-78429900D02*
X70492806Y-78382281D01*
X70730901Y-77525138D02*
X71397568Y-77525138D01*
X70349949Y-77763233D02*
X71064234Y-78001328D01*
X71064234Y-78001328D02*
X71064234Y-77382281D01*
X70238095Y-63314819D02*
X70238095Y-64124342D01*
X70238095Y-64124342D02*
X70285714Y-64219580D01*
X70285714Y-64219580D02*
X70333333Y-64267200D01*
X70333333Y-64267200D02*
X70428571Y-64314819D01*
X70428571Y-64314819D02*
X70619047Y-64314819D01*
X70619047Y-64314819D02*
X70714285Y-64267200D01*
X70714285Y-64267200D02*
X70761904Y-64219580D01*
X70761904Y-64219580D02*
X70809523Y-64124342D01*
X70809523Y-64124342D02*
X70809523Y-63314819D01*
X71809523Y-64314819D02*
X71238095Y-64314819D01*
X71523809Y-64314819D02*
X71523809Y-63314819D01*
X71523809Y-63314819D02*
X71428571Y-63457676D01*
X71428571Y-63457676D02*
X71333333Y-63552914D01*
X71333333Y-63552914D02*
X71238095Y-63600533D01*
D12*
%TO.C,H2*%
X78860366Y-53439175D02*
X78860366Y-52059175D01*
X80240366Y-53439175D02*
X78860366Y-53439175D01*
X81510366Y-50679175D02*
X81620366Y-50679175D01*
X81510366Y-53439175D02*
X81510366Y-50679175D01*
X81510366Y-53439175D02*
X81620366Y-53439175D01*
X81620366Y-53439175D02*
X81620366Y-50679175D01*
%TO.C,C2*%
X72740000Y-59004437D02*
X72740000Y-62460000D01*
X72740000Y-62460000D02*
X73940000Y-62460000D01*
X73804437Y-57940000D02*
X72740000Y-59004437D01*
X73804437Y-57940000D02*
X73940000Y-57940000D01*
X76195563Y-57940000D02*
X76060000Y-57940000D01*
X76195563Y-57940000D02*
X77260000Y-59004437D01*
X76560000Y-57200000D02*
X76560000Y-57700000D01*
X76810000Y-57450000D02*
X76310000Y-57450000D01*
X77260000Y-59004437D02*
X77260000Y-62460000D01*
X77260000Y-62460000D02*
X76060000Y-62460000D01*
%TO.C,C5*%
X57590000Y-73154437D02*
X57590000Y-78910000D01*
X57590000Y-78910000D02*
X59940000Y-78910000D01*
X58654437Y-72090000D02*
X57590000Y-73154437D01*
X58654437Y-72090000D02*
X59940000Y-72090000D01*
X62847500Y-71062500D02*
X62847500Y-71850000D01*
X63241250Y-71456250D02*
X62453750Y-71456250D01*
X63345563Y-72090000D02*
X62060000Y-72090000D01*
X63345563Y-72090000D02*
X64410000Y-73154437D01*
X64410000Y-73154437D02*
X64410000Y-78910000D01*
X64410000Y-78910000D02*
X62060000Y-78910000D01*
%TO.C,R1*%
X67178687Y-78551824D02*
X67178687Y-78097696D01*
X68648687Y-78551824D02*
X68648687Y-78097696D01*
%TO.C,LS1*%
X60823808Y-82282743D02*
X60823808Y-89902743D01*
X60823808Y-89902743D02*
X70983808Y-89902743D01*
X70983808Y-82282743D02*
X60823808Y-82282743D01*
X70983808Y-88632743D02*
X60823808Y-88632743D01*
X70983808Y-89902743D02*
X70983808Y-82282743D01*
%TO.C,C3*%
X57740000Y-63804437D02*
X57740000Y-67260000D01*
X57740000Y-67260000D02*
X58940000Y-67260000D01*
X58804437Y-62740000D02*
X57740000Y-63804437D01*
X58804437Y-62740000D02*
X58940000Y-62740000D01*
X61195563Y-62740000D02*
X61060000Y-62740000D01*
X61195563Y-62740000D02*
X62260000Y-63804437D01*
X61560000Y-62000000D02*
X61560000Y-62500000D01*
X61810000Y-62250000D02*
X61310000Y-62250000D01*
X62260000Y-63804437D02*
X62260000Y-67260000D01*
X62260000Y-67260000D02*
X61060000Y-67260000D01*
%TO.C,J2*%
X82313257Y-53797090D02*
X82313257Y-63957090D01*
X82313257Y-63957090D02*
X89933257Y-63957090D01*
X88663257Y-53797090D02*
X88663257Y-63957090D01*
X89933257Y-53797090D02*
X82313257Y-53797090D01*
X89933257Y-63957090D02*
X89933257Y-53797090D01*
%TO.C,D1*%
X78150000Y-68560000D02*
X78150000Y-65900000D01*
X78150000Y-68560000D02*
X79850000Y-68560000D01*
X79850000Y-68560000D02*
X79850000Y-65900000D01*
%TO.C,C7*%
X50958396Y-74160036D02*
X50958396Y-78615599D01*
X50958396Y-78615599D02*
X52658396Y-78615599D01*
X52022833Y-73095599D02*
X50958396Y-74160036D01*
X52022833Y-73095599D02*
X52658396Y-73095599D01*
X55403396Y-72230599D02*
X55403396Y-72855599D01*
X55413959Y-73095599D02*
X54778396Y-73095599D01*
X55413959Y-73095599D02*
X56478396Y-74160036D01*
X55715896Y-72543099D02*
X55090896Y-72543099D01*
X56478396Y-74160036D02*
X56478396Y-78615599D01*
X56478396Y-78615599D02*
X54778396Y-78615599D01*
%TO.C,C6*%
X74590000Y-80654437D02*
X74590000Y-86410000D01*
X74590000Y-86410000D02*
X76940000Y-86410000D01*
X75654437Y-79590000D02*
X74590000Y-80654437D01*
X75654437Y-79590000D02*
X76940000Y-79590000D01*
X79847500Y-78562500D02*
X79847500Y-79350000D01*
X80241250Y-78956250D02*
X79453750Y-78956250D01*
X80345563Y-79590000D02*
X79060000Y-79590000D01*
X80345563Y-79590000D02*
X81410000Y-80654437D01*
X81410000Y-80654437D02*
X81410000Y-86410000D01*
X81410000Y-86410000D02*
X79060000Y-86410000D01*
%TO.C,POT1*%
X50620000Y-61540000D02*
X52000000Y-61540000D01*
X50620000Y-62920000D02*
X50620000Y-61540000D01*
X50620000Y-64190000D02*
X50620000Y-69380000D01*
X50620000Y-64190000D02*
X53380000Y-64190000D01*
X50620000Y-69380000D02*
X53380000Y-69380000D01*
X53380000Y-64190000D02*
X53380000Y-69380000D01*
%TO.C,J1*%
X58920000Y-50190000D02*
X58920000Y-57810000D01*
X58920000Y-51460000D02*
X69080000Y-51460000D01*
X58920000Y-57810000D02*
X69080000Y-57810000D01*
X69080000Y-50190000D02*
X58920000Y-50190000D01*
X69080000Y-57810000D02*
X69080000Y-50190000D01*
%TO.C,C1*%
X66265000Y-62211252D02*
X66265000Y-61688748D01*
X67735000Y-62211252D02*
X67735000Y-61688748D01*
%TO.C,H1*%
X69922034Y-53417321D02*
X69922034Y-52037321D01*
X71302034Y-53417321D02*
X69922034Y-53417321D01*
X72572034Y-50657321D02*
X72682034Y-50657321D01*
X72572034Y-53417321D02*
X72572034Y-50657321D01*
X72572034Y-53417321D02*
X72682034Y-53417321D01*
X72682034Y-53417321D02*
X72682034Y-50657321D01*
%TO.C,C4*%
X72049667Y-77880657D02*
X72049667Y-78403161D01*
X73519667Y-77880657D02*
X73519667Y-78403161D01*
%TO.C,U1*%
X68750000Y-64860000D02*
X68750000Y-75140000D01*
X68750000Y-75140000D02*
X73250000Y-75140000D01*
X70000000Y-64860000D02*
X68750000Y-64860000D01*
X73250000Y-64860000D02*
X72000000Y-64860000D01*
X73250000Y-75140000D02*
X73250000Y-64860000D01*
X72000000Y-64860000D02*
G75*
G02*
X70000000Y-64860000I-1000000J0D01*
G01*
%TD*%
M02*
