%TF.GenerationSoftware,KiCad,Pcbnew,10.0.0*%
%TF.CreationDate,2026-10-03T00:36:13-03:00*%
%TF.ProjectId,parla-linea-v-0-rev-a,7061726c-612d-46c6-996e-65612d762d30,rev?*%
%TF.SameCoordinates,Original*%
%TF.FileFunction,Legend,Top*%
%TF.FilePolarity,Positive*%
%FSLAX46Y46*%
G04 Gerber Fmt 4.6, Leading zero omitted, Abs format (unit mm)*
G04 Created by KiCad (PCBNEW 10.0.0) date 2026-10-03 00:36:13*
%MOMM*%
%LPD*%
G01*
G04 APERTURE LIST*
%ADD10C,0.100000*%
%ADD11C,0.300000*%
%ADD12C,0.150000*%
%ADD13C,0.120000*%
%ADD14C,0.060000*%
%ADD15C,0.000000*%
%ADD16R,2.000000X2.000000*%
%ADD17C,2.000000*%
G04 APERTURE END LIST*
D10*
X51600000Y-88900000D02*
X51600000Y-88000000D01*
X51900000Y-88900000D02*
X51600000Y-88900000D01*
X55400000Y-83500000D02*
X55700000Y-83500000D01*
X55400000Y-84190000D02*
X55400000Y-83500000D01*
X56800000Y-88900000D02*
X57000000Y-88900000D01*
X57000000Y-88900000D02*
X57000000Y-88000000D01*
X58900000Y-83400000D02*
X59200000Y-83400000D01*
X59200000Y-84090000D02*
X59200000Y-83400000D01*
X68200000Y-87900000D02*
X77200000Y-87900000D01*
X77200000Y-91700000D01*
X68200000Y-91700000D01*
X68200000Y-87900000D01*
X52232455Y-61505752D02*
X52232455Y-62315276D01*
X52232455Y-62315276D02*
X52184836Y-62410514D01*
X52184836Y-62410514D02*
X52137217Y-62458133D01*
X52137217Y-62458133D02*
X52041979Y-62505752D01*
X52041979Y-62505752D02*
X51899122Y-62505752D01*
X51899122Y-62505752D02*
X51803884Y-62458133D01*
X52232455Y-62124800D02*
X52137217Y-62172419D01*
X52137217Y-62172419D02*
X51946741Y-62172419D01*
X51946741Y-62172419D02*
X51851503Y-62124800D01*
X51851503Y-62124800D02*
X51803884Y-62077180D01*
X51803884Y-62077180D02*
X51756265Y-61981942D01*
X51756265Y-61981942D02*
X51756265Y-61696228D01*
X51756265Y-61696228D02*
X51803884Y-61600990D01*
X51803884Y-61600990D02*
X51851503Y-61553371D01*
X51851503Y-61553371D02*
X51946741Y-61505752D01*
X51946741Y-61505752D02*
X52137217Y-61505752D01*
X52137217Y-61505752D02*
X52232455Y-61553371D01*
X52708646Y-61505752D02*
X52708646Y-62172419D01*
X52708646Y-61600990D02*
X52756265Y-61553371D01*
X52756265Y-61553371D02*
X52851503Y-61505752D01*
X52851503Y-61505752D02*
X52994360Y-61505752D01*
X52994360Y-61505752D02*
X53089598Y-61553371D01*
X53089598Y-61553371D02*
X53137217Y-61648609D01*
X53137217Y-61648609D02*
X53137217Y-62172419D01*
X54041979Y-62172419D02*
X54041979Y-61172419D01*
X54041979Y-62124800D02*
X53946741Y-62172419D01*
X53946741Y-62172419D02*
X53756265Y-62172419D01*
X53756265Y-62172419D02*
X53661027Y-62124800D01*
X53661027Y-62124800D02*
X53613408Y-62077180D01*
X53613408Y-62077180D02*
X53565789Y-61981942D01*
X53565789Y-61981942D02*
X53565789Y-61696228D01*
X53565789Y-61696228D02*
X53613408Y-61600990D01*
X53613408Y-61600990D02*
X53661027Y-61553371D01*
X53661027Y-61553371D02*
X53756265Y-61505752D01*
X53756265Y-61505752D02*
X53946741Y-61505752D01*
X53946741Y-61505752D02*
X54041979Y-61553371D01*
X52356265Y-89224800D02*
X52451503Y-89272419D01*
X52451503Y-89272419D02*
X52641979Y-89272419D01*
X52641979Y-89272419D02*
X52737217Y-89224800D01*
X52737217Y-89224800D02*
X52784836Y-89129561D01*
X52784836Y-89129561D02*
X52784836Y-89081942D01*
X52784836Y-89081942D02*
X52737217Y-88986704D01*
X52737217Y-88986704D02*
X52641979Y-88939085D01*
X52641979Y-88939085D02*
X52499122Y-88939085D01*
X52499122Y-88939085D02*
X52403884Y-88891466D01*
X52403884Y-88891466D02*
X52356265Y-88796228D01*
X52356265Y-88796228D02*
X52356265Y-88748609D01*
X52356265Y-88748609D02*
X52403884Y-88653371D01*
X52403884Y-88653371D02*
X52499122Y-88605752D01*
X52499122Y-88605752D02*
X52641979Y-88605752D01*
X52641979Y-88605752D02*
X52737217Y-88653371D01*
X53070551Y-88605752D02*
X53451503Y-88605752D01*
X53213408Y-88272419D02*
X53213408Y-89129561D01*
X53213408Y-89129561D02*
X53261027Y-89224800D01*
X53261027Y-89224800D02*
X53356265Y-89272419D01*
X53356265Y-89272419D02*
X53451503Y-89272419D01*
X54165789Y-89224800D02*
X54070551Y-89272419D01*
X54070551Y-89272419D02*
X53880075Y-89272419D01*
X53880075Y-89272419D02*
X53784837Y-89224800D01*
X53784837Y-89224800D02*
X53737218Y-89129561D01*
X53737218Y-89129561D02*
X53737218Y-88748609D01*
X53737218Y-88748609D02*
X53784837Y-88653371D01*
X53784837Y-88653371D02*
X53880075Y-88605752D01*
X53880075Y-88605752D02*
X54070551Y-88605752D01*
X54070551Y-88605752D02*
X54165789Y-88653371D01*
X54165789Y-88653371D02*
X54213408Y-88748609D01*
X54213408Y-88748609D02*
X54213408Y-88843847D01*
X54213408Y-88843847D02*
X53737218Y-88939085D01*
X54641980Y-89272419D02*
X54641980Y-88605752D01*
X54641980Y-88796228D02*
X54689599Y-88700990D01*
X54689599Y-88700990D02*
X54737218Y-88653371D01*
X54737218Y-88653371D02*
X54832456Y-88605752D01*
X54832456Y-88605752D02*
X54927694Y-88605752D01*
X55641980Y-89224800D02*
X55546742Y-89272419D01*
X55546742Y-89272419D02*
X55356266Y-89272419D01*
X55356266Y-89272419D02*
X55261028Y-89224800D01*
X55261028Y-89224800D02*
X55213409Y-89129561D01*
X55213409Y-89129561D02*
X55213409Y-88748609D01*
X55213409Y-88748609D02*
X55261028Y-88653371D01*
X55261028Y-88653371D02*
X55356266Y-88605752D01*
X55356266Y-88605752D02*
X55546742Y-88605752D01*
X55546742Y-88605752D02*
X55641980Y-88653371D01*
X55641980Y-88653371D02*
X55689599Y-88748609D01*
X55689599Y-88748609D02*
X55689599Y-88843847D01*
X55689599Y-88843847D02*
X55213409Y-88939085D01*
X56261028Y-89272419D02*
X56165790Y-89224800D01*
X56165790Y-89224800D02*
X56118171Y-89177180D01*
X56118171Y-89177180D02*
X56070552Y-89081942D01*
X56070552Y-89081942D02*
X56070552Y-88796228D01*
X56070552Y-88796228D02*
X56118171Y-88700990D01*
X56118171Y-88700990D02*
X56165790Y-88653371D01*
X56165790Y-88653371D02*
X56261028Y-88605752D01*
X56261028Y-88605752D02*
X56403885Y-88605752D01*
X56403885Y-88605752D02*
X56499123Y-88653371D01*
X56499123Y-88653371D02*
X56546742Y-88700990D01*
X56546742Y-88700990D02*
X56594361Y-88796228D01*
X56594361Y-88796228D02*
X56594361Y-89081942D01*
X56594361Y-89081942D02*
X56546742Y-89177180D01*
X56546742Y-89177180D02*
X56499123Y-89224800D01*
X56499123Y-89224800D02*
X56403885Y-89272419D01*
X56403885Y-89272419D02*
X56261028Y-89272419D01*
X53632455Y-76905752D02*
X53632455Y-77715276D01*
X53632455Y-77715276D02*
X53584836Y-77810514D01*
X53584836Y-77810514D02*
X53537217Y-77858133D01*
X53537217Y-77858133D02*
X53441979Y-77905752D01*
X53441979Y-77905752D02*
X53299122Y-77905752D01*
X53299122Y-77905752D02*
X53203884Y-77858133D01*
X53632455Y-77524800D02*
X53537217Y-77572419D01*
X53537217Y-77572419D02*
X53346741Y-77572419D01*
X53346741Y-77572419D02*
X53251503Y-77524800D01*
X53251503Y-77524800D02*
X53203884Y-77477180D01*
X53203884Y-77477180D02*
X53156265Y-77381942D01*
X53156265Y-77381942D02*
X53156265Y-77096228D01*
X53156265Y-77096228D02*
X53203884Y-77000990D01*
X53203884Y-77000990D02*
X53251503Y-76953371D01*
X53251503Y-76953371D02*
X53346741Y-76905752D01*
X53346741Y-76905752D02*
X53537217Y-76905752D01*
X53537217Y-76905752D02*
X53632455Y-76953371D01*
X54108646Y-76905752D02*
X54108646Y-77572419D01*
X54108646Y-77000990D02*
X54156265Y-76953371D01*
X54156265Y-76953371D02*
X54251503Y-76905752D01*
X54251503Y-76905752D02*
X54394360Y-76905752D01*
X54394360Y-76905752D02*
X54489598Y-76953371D01*
X54489598Y-76953371D02*
X54537217Y-77048609D01*
X54537217Y-77048609D02*
X54537217Y-77572419D01*
X55441979Y-77572419D02*
X55441979Y-76572419D01*
X55441979Y-77524800D02*
X55346741Y-77572419D01*
X55346741Y-77572419D02*
X55156265Y-77572419D01*
X55156265Y-77572419D02*
X55061027Y-77524800D01*
X55061027Y-77524800D02*
X55013408Y-77477180D01*
X55013408Y-77477180D02*
X54965789Y-77381942D01*
X54965789Y-77381942D02*
X54965789Y-77096228D01*
X54965789Y-77096228D02*
X55013408Y-77000990D01*
X55013408Y-77000990D02*
X55061027Y-76953371D01*
X55061027Y-76953371D02*
X55156265Y-76905752D01*
X55156265Y-76905752D02*
X55346741Y-76905752D01*
X55346741Y-76905752D02*
X55441979Y-76953371D01*
X55956265Y-82114856D02*
X56051503Y-82162475D01*
X56051503Y-82162475D02*
X56241979Y-82162475D01*
X56241979Y-82162475D02*
X56337217Y-82114856D01*
X56337217Y-82114856D02*
X56384836Y-82019617D01*
X56384836Y-82019617D02*
X56384836Y-81971998D01*
X56384836Y-81971998D02*
X56337217Y-81876760D01*
X56337217Y-81876760D02*
X56241979Y-81829141D01*
X56241979Y-81829141D02*
X56099122Y-81829141D01*
X56099122Y-81829141D02*
X56003884Y-81781522D01*
X56003884Y-81781522D02*
X55956265Y-81686284D01*
X55956265Y-81686284D02*
X55956265Y-81638665D01*
X55956265Y-81638665D02*
X56003884Y-81543427D01*
X56003884Y-81543427D02*
X56099122Y-81495808D01*
X56099122Y-81495808D02*
X56241979Y-81495808D01*
X56241979Y-81495808D02*
X56337217Y-81543427D01*
X57241979Y-81495808D02*
X57241979Y-82162475D01*
X56813408Y-81495808D02*
X56813408Y-82019617D01*
X56813408Y-82019617D02*
X56861027Y-82114856D01*
X56861027Y-82114856D02*
X56956265Y-82162475D01*
X56956265Y-82162475D02*
X57099122Y-82162475D01*
X57099122Y-82162475D02*
X57194360Y-82114856D01*
X57194360Y-82114856D02*
X57241979Y-82067236D01*
X57718170Y-82162475D02*
X57718170Y-81495808D01*
X57718170Y-81591046D02*
X57765789Y-81543427D01*
X57765789Y-81543427D02*
X57861027Y-81495808D01*
X57861027Y-81495808D02*
X58003884Y-81495808D01*
X58003884Y-81495808D02*
X58099122Y-81543427D01*
X58099122Y-81543427D02*
X58146741Y-81638665D01*
X58146741Y-81638665D02*
X58146741Y-82162475D01*
X58146741Y-81638665D02*
X58194360Y-81543427D01*
X58194360Y-81543427D02*
X58289598Y-81495808D01*
X58289598Y-81495808D02*
X58432455Y-81495808D01*
X58432455Y-81495808D02*
X58527694Y-81543427D01*
X58527694Y-81543427D02*
X58575313Y-81638665D01*
X58575313Y-81638665D02*
X58575313Y-82162475D01*
X56480074Y-83772419D02*
X56003884Y-83772419D01*
X56003884Y-83772419D02*
X56003884Y-82772419D01*
X56813408Y-83391466D02*
X57575313Y-83391466D01*
X57194360Y-83772419D02*
X57194360Y-83010514D01*
X58622931Y-83772419D02*
X58289598Y-83296228D01*
X58051503Y-83772419D02*
X58051503Y-82772419D01*
X58051503Y-82772419D02*
X58432455Y-82772419D01*
X58432455Y-82772419D02*
X58527693Y-82820038D01*
X58527693Y-82820038D02*
X58575312Y-82867657D01*
X58575312Y-82867657D02*
X58622931Y-82962895D01*
X58622931Y-82962895D02*
X58622931Y-83105752D01*
X58622931Y-83105752D02*
X58575312Y-83200990D01*
X58575312Y-83200990D02*
X58527693Y-83248609D01*
X58527693Y-83248609D02*
X58432455Y-83296228D01*
X58432455Y-83296228D02*
X58051503Y-83296228D01*
X57575312Y-71672419D02*
X57241979Y-71196228D01*
X57003884Y-71672419D02*
X57003884Y-70672419D01*
X57003884Y-70672419D02*
X57384836Y-70672419D01*
X57384836Y-70672419D02*
X57480074Y-70720038D01*
X57480074Y-70720038D02*
X57527693Y-70767657D01*
X57527693Y-70767657D02*
X57575312Y-70862895D01*
X57575312Y-70862895D02*
X57575312Y-71005752D01*
X57575312Y-71005752D02*
X57527693Y-71100990D01*
X57527693Y-71100990D02*
X57480074Y-71148609D01*
X57480074Y-71148609D02*
X57384836Y-71196228D01*
X57384836Y-71196228D02*
X57003884Y-71196228D01*
X57480074Y-79172419D02*
X57003884Y-79172419D01*
X57003884Y-79172419D02*
X57003884Y-78172419D01*
D11*
X85811653Y-90400828D02*
X85311653Y-89686542D01*
X84954510Y-90400828D02*
X84954510Y-88900828D01*
X84954510Y-88900828D02*
X85525939Y-88900828D01*
X85525939Y-88900828D02*
X85668796Y-88972257D01*
X85668796Y-88972257D02*
X85740225Y-89043685D01*
X85740225Y-89043685D02*
X85811653Y-89186542D01*
X85811653Y-89186542D02*
X85811653Y-89400828D01*
X85811653Y-89400828D02*
X85740225Y-89543685D01*
X85740225Y-89543685D02*
X85668796Y-89615114D01*
X85668796Y-89615114D02*
X85525939Y-89686542D01*
X85525939Y-89686542D02*
X84954510Y-89686542D01*
X85668796Y-95700828D02*
X84954510Y-95700828D01*
X84954510Y-95700828D02*
X84954510Y-94200828D01*
X95111653Y-64100828D02*
X94611653Y-63386542D01*
X94254510Y-64100828D02*
X94254510Y-62600828D01*
X94254510Y-62600828D02*
X94825939Y-62600828D01*
X94825939Y-62600828D02*
X94968796Y-62672257D01*
X94968796Y-62672257D02*
X95040225Y-62743685D01*
X95040225Y-62743685D02*
X95111653Y-62886542D01*
X95111653Y-62886542D02*
X95111653Y-63100828D01*
X95111653Y-63100828D02*
X95040225Y-63243685D01*
X95040225Y-63243685D02*
X94968796Y-63315114D01*
X94968796Y-63315114D02*
X94825939Y-63386542D01*
X94825939Y-63386542D02*
X94254510Y-63386542D01*
X95068796Y-87700828D02*
X94354510Y-87700828D01*
X94354510Y-87700828D02*
X94354510Y-86200828D01*
D12*
X68804317Y-69903545D02*
X68851937Y-69951164D01*
X68851937Y-69951164D02*
X68899556Y-70094021D01*
X68899556Y-70094021D02*
X68899556Y-70189259D01*
X68899556Y-70189259D02*
X68851937Y-70332116D01*
X68851937Y-70332116D02*
X68756698Y-70427354D01*
X68756698Y-70427354D02*
X68661460Y-70474973D01*
X68661460Y-70474973D02*
X68470984Y-70522592D01*
X68470984Y-70522592D02*
X68328127Y-70522592D01*
X68328127Y-70522592D02*
X68137651Y-70474973D01*
X68137651Y-70474973D02*
X68042413Y-70427354D01*
X68042413Y-70427354D02*
X67947175Y-70332116D01*
X67947175Y-70332116D02*
X67899556Y-70189259D01*
X67899556Y-70189259D02*
X67899556Y-70094021D01*
X67899556Y-70094021D02*
X67947175Y-69951164D01*
X67947175Y-69951164D02*
X67994794Y-69903545D01*
X68232889Y-69046402D02*
X68899556Y-69046402D01*
X67851937Y-69284497D02*
X68566222Y-69522592D01*
X68566222Y-69522592D02*
X68566222Y-68903545D01*
X67454819Y-82166666D02*
X66978628Y-82499999D01*
X67454819Y-82738094D02*
X66454819Y-82738094D01*
X66454819Y-82738094D02*
X66454819Y-82357142D01*
X66454819Y-82357142D02*
X66502438Y-82261904D01*
X66502438Y-82261904D02*
X66550057Y-82214285D01*
X66550057Y-82214285D02*
X66645295Y-82166666D01*
X66645295Y-82166666D02*
X66788152Y-82166666D01*
X66788152Y-82166666D02*
X66883390Y-82214285D01*
X66883390Y-82214285D02*
X66931009Y-82261904D01*
X66931009Y-82261904D02*
X66978628Y-82357142D01*
X66978628Y-82357142D02*
X66978628Y-82738094D01*
X66550057Y-81785713D02*
X66502438Y-81738094D01*
X66502438Y-81738094D02*
X66454819Y-81642856D01*
X66454819Y-81642856D02*
X66454819Y-81404761D01*
X66454819Y-81404761D02*
X66502438Y-81309523D01*
X66502438Y-81309523D02*
X66550057Y-81261904D01*
X66550057Y-81261904D02*
X66645295Y-81214285D01*
X66645295Y-81214285D02*
X66740533Y-81214285D01*
X66740533Y-81214285D02*
X66883390Y-81261904D01*
X66883390Y-81261904D02*
X67454819Y-81833332D01*
X67454819Y-81833332D02*
X67454819Y-81214285D01*
X80454819Y-75761904D02*
X81264342Y-75761904D01*
X81264342Y-75761904D02*
X81359580Y-75714285D01*
X81359580Y-75714285D02*
X81407200Y-75666666D01*
X81407200Y-75666666D02*
X81454819Y-75571428D01*
X81454819Y-75571428D02*
X81454819Y-75380952D01*
X81454819Y-75380952D02*
X81407200Y-75285714D01*
X81407200Y-75285714D02*
X81359580Y-75238095D01*
X81359580Y-75238095D02*
X81264342Y-75190476D01*
X81264342Y-75190476D02*
X80454819Y-75190476D01*
X81454819Y-74190476D02*
X81454819Y-74761904D01*
X81454819Y-74476190D02*
X80454819Y-74476190D01*
X80454819Y-74476190D02*
X80597676Y-74571428D01*
X80597676Y-74571428D02*
X80692914Y-74666666D01*
X80692914Y-74666666D02*
X80740533Y-74761904D01*
X90502819Y-56008094D02*
X89502819Y-56008094D01*
X89502819Y-56008094D02*
X89502819Y-55769999D01*
X89502819Y-55769999D02*
X89550438Y-55627142D01*
X89550438Y-55627142D02*
X89645676Y-55531904D01*
X89645676Y-55531904D02*
X89740914Y-55484285D01*
X89740914Y-55484285D02*
X89931390Y-55436666D01*
X89931390Y-55436666D02*
X90074247Y-55436666D01*
X90074247Y-55436666D02*
X90264723Y-55484285D01*
X90264723Y-55484285D02*
X90359961Y-55531904D01*
X90359961Y-55531904D02*
X90455200Y-55627142D01*
X90455200Y-55627142D02*
X90502819Y-55769999D01*
X90502819Y-55769999D02*
X90502819Y-56008094D01*
X89598057Y-55055713D02*
X89550438Y-55008094D01*
X89550438Y-55008094D02*
X89502819Y-54912856D01*
X89502819Y-54912856D02*
X89502819Y-54674761D01*
X89502819Y-54674761D02*
X89550438Y-54579523D01*
X89550438Y-54579523D02*
X89598057Y-54531904D01*
X89598057Y-54531904D02*
X89693295Y-54484285D01*
X89693295Y-54484285D02*
X89788533Y-54484285D01*
X89788533Y-54484285D02*
X89931390Y-54531904D01*
X89931390Y-54531904D02*
X90502819Y-55103332D01*
X90502819Y-55103332D02*
X90502819Y-54484285D01*
X88978819Y-58579904D02*
X87978819Y-58579904D01*
X88978819Y-58008476D02*
X88407390Y-58437047D01*
X87978819Y-58008476D02*
X88550247Y-58579904D01*
X81454819Y-65761904D02*
X82264342Y-65761904D01*
X82264342Y-65761904D02*
X82359580Y-65714285D01*
X82359580Y-65714285D02*
X82407200Y-65666666D01*
X82407200Y-65666666D02*
X82454819Y-65571428D01*
X82454819Y-65571428D02*
X82454819Y-65380952D01*
X82454819Y-65380952D02*
X82407200Y-65285714D01*
X82407200Y-65285714D02*
X82359580Y-65238095D01*
X82359580Y-65238095D02*
X82264342Y-65190476D01*
X82264342Y-65190476D02*
X81454819Y-65190476D01*
X81550057Y-64761904D02*
X81502438Y-64714285D01*
X81502438Y-64714285D02*
X81454819Y-64619047D01*
X81454819Y-64619047D02*
X81454819Y-64380952D01*
X81454819Y-64380952D02*
X81502438Y-64285714D01*
X81502438Y-64285714D02*
X81550057Y-64238095D01*
X81550057Y-64238095D02*
X81645295Y-64190476D01*
X81645295Y-64190476D02*
X81740533Y-64190476D01*
X81740533Y-64190476D02*
X81883390Y-64238095D01*
X81883390Y-64238095D02*
X82454819Y-64809523D01*
X82454819Y-64809523D02*
X82454819Y-64190476D01*
X64454819Y-82166666D02*
X63978628Y-82499999D01*
X64454819Y-82738094D02*
X63454819Y-82738094D01*
X63454819Y-82738094D02*
X63454819Y-82357142D01*
X63454819Y-82357142D02*
X63502438Y-82261904D01*
X63502438Y-82261904D02*
X63550057Y-82214285D01*
X63550057Y-82214285D02*
X63645295Y-82166666D01*
X63645295Y-82166666D02*
X63788152Y-82166666D01*
X63788152Y-82166666D02*
X63883390Y-82214285D01*
X63883390Y-82214285D02*
X63931009Y-82261904D01*
X63931009Y-82261904D02*
X63978628Y-82357142D01*
X63978628Y-82357142D02*
X63978628Y-82738094D01*
X64454819Y-81214285D02*
X64454819Y-81785713D01*
X64454819Y-81499999D02*
X63454819Y-81499999D01*
X63454819Y-81499999D02*
X63597676Y-81595237D01*
X63597676Y-81595237D02*
X63692914Y-81690475D01*
X63692914Y-81690475D02*
X63740533Y-81785713D01*
X61833333Y-89359580D02*
X61785714Y-89407200D01*
X61785714Y-89407200D02*
X61642857Y-89454819D01*
X61642857Y-89454819D02*
X61547619Y-89454819D01*
X61547619Y-89454819D02*
X61404762Y-89407200D01*
X61404762Y-89407200D02*
X61309524Y-89311961D01*
X61309524Y-89311961D02*
X61261905Y-89216723D01*
X61261905Y-89216723D02*
X61214286Y-89026247D01*
X61214286Y-89026247D02*
X61214286Y-88883390D01*
X61214286Y-88883390D02*
X61261905Y-88692914D01*
X61261905Y-88692914D02*
X61309524Y-88597676D01*
X61309524Y-88597676D02*
X61404762Y-88502438D01*
X61404762Y-88502438D02*
X61547619Y-88454819D01*
X61547619Y-88454819D02*
X61642857Y-88454819D01*
X61642857Y-88454819D02*
X61785714Y-88502438D01*
X61785714Y-88502438D02*
X61833333Y-88550057D01*
X62690476Y-88454819D02*
X62500000Y-88454819D01*
X62500000Y-88454819D02*
X62404762Y-88502438D01*
X62404762Y-88502438D02*
X62357143Y-88550057D01*
X62357143Y-88550057D02*
X62261905Y-88692914D01*
X62261905Y-88692914D02*
X62214286Y-88883390D01*
X62214286Y-88883390D02*
X62214286Y-89264342D01*
X62214286Y-89264342D02*
X62261905Y-89359580D01*
X62261905Y-89359580D02*
X62309524Y-89407200D01*
X62309524Y-89407200D02*
X62404762Y-89454819D01*
X62404762Y-89454819D02*
X62595238Y-89454819D01*
X62595238Y-89454819D02*
X62690476Y-89407200D01*
X62690476Y-89407200D02*
X62738095Y-89359580D01*
X62738095Y-89359580D02*
X62785714Y-89264342D01*
X62785714Y-89264342D02*
X62785714Y-89026247D01*
X62785714Y-89026247D02*
X62738095Y-88931009D01*
X62738095Y-88931009D02*
X62690476Y-88883390D01*
X62690476Y-88883390D02*
X62595238Y-88835771D01*
X62595238Y-88835771D02*
X62404762Y-88835771D01*
X62404762Y-88835771D02*
X62309524Y-88883390D01*
X62309524Y-88883390D02*
X62261905Y-88931009D01*
X62261905Y-88931009D02*
X62214286Y-89026247D01*
X62359580Y-86166666D02*
X62407200Y-86214285D01*
X62407200Y-86214285D02*
X62454819Y-86357142D01*
X62454819Y-86357142D02*
X62454819Y-86452380D01*
X62454819Y-86452380D02*
X62407200Y-86595237D01*
X62407200Y-86595237D02*
X62311961Y-86690475D01*
X62311961Y-86690475D02*
X62216723Y-86738094D01*
X62216723Y-86738094D02*
X62026247Y-86785713D01*
X62026247Y-86785713D02*
X61883390Y-86785713D01*
X61883390Y-86785713D02*
X61692914Y-86738094D01*
X61692914Y-86738094D02*
X61597676Y-86690475D01*
X61597676Y-86690475D02*
X61502438Y-86595237D01*
X61502438Y-86595237D02*
X61454819Y-86452380D01*
X61454819Y-86452380D02*
X61454819Y-86357142D01*
X61454819Y-86357142D02*
X61502438Y-86214285D01*
X61502438Y-86214285D02*
X61550057Y-86166666D01*
X62454819Y-85214285D02*
X62454819Y-85785713D01*
X62454819Y-85499999D02*
X61454819Y-85499999D01*
X61454819Y-85499999D02*
X61597676Y-85595237D01*
X61597676Y-85595237D02*
X61692914Y-85690475D01*
X61692914Y-85690475D02*
X61740533Y-85785713D01*
X80833333Y-84359580D02*
X80785714Y-84407200D01*
X80785714Y-84407200D02*
X80642857Y-84454819D01*
X80642857Y-84454819D02*
X80547619Y-84454819D01*
X80547619Y-84454819D02*
X80404762Y-84407200D01*
X80404762Y-84407200D02*
X80309524Y-84311961D01*
X80309524Y-84311961D02*
X80261905Y-84216723D01*
X80261905Y-84216723D02*
X80214286Y-84026247D01*
X80214286Y-84026247D02*
X80214286Y-83883390D01*
X80214286Y-83883390D02*
X80261905Y-83692914D01*
X80261905Y-83692914D02*
X80309524Y-83597676D01*
X80309524Y-83597676D02*
X80404762Y-83502438D01*
X80404762Y-83502438D02*
X80547619Y-83454819D01*
X80547619Y-83454819D02*
X80642857Y-83454819D01*
X80642857Y-83454819D02*
X80785714Y-83502438D01*
X80785714Y-83502438D02*
X80833333Y-83550057D01*
X81214286Y-83550057D02*
X81261905Y-83502438D01*
X81261905Y-83502438D02*
X81357143Y-83454819D01*
X81357143Y-83454819D02*
X81595238Y-83454819D01*
X81595238Y-83454819D02*
X81690476Y-83502438D01*
X81690476Y-83502438D02*
X81738095Y-83550057D01*
X81738095Y-83550057D02*
X81785714Y-83645295D01*
X81785714Y-83645295D02*
X81785714Y-83740533D01*
X81785714Y-83740533D02*
X81738095Y-83883390D01*
X81738095Y-83883390D02*
X81166667Y-84454819D01*
X81166667Y-84454819D02*
X81785714Y-84454819D01*
X74833333Y-84359580D02*
X74785714Y-84407200D01*
X74785714Y-84407200D02*
X74642857Y-84454819D01*
X74642857Y-84454819D02*
X74547619Y-84454819D01*
X74547619Y-84454819D02*
X74404762Y-84407200D01*
X74404762Y-84407200D02*
X74309524Y-84311961D01*
X74309524Y-84311961D02*
X74261905Y-84216723D01*
X74261905Y-84216723D02*
X74214286Y-84026247D01*
X74214286Y-84026247D02*
X74214286Y-83883390D01*
X74214286Y-83883390D02*
X74261905Y-83692914D01*
X74261905Y-83692914D02*
X74309524Y-83597676D01*
X74309524Y-83597676D02*
X74404762Y-83502438D01*
X74404762Y-83502438D02*
X74547619Y-83454819D01*
X74547619Y-83454819D02*
X74642857Y-83454819D01*
X74642857Y-83454819D02*
X74785714Y-83502438D01*
X74785714Y-83502438D02*
X74833333Y-83550057D01*
X75166667Y-83454819D02*
X75833333Y-83454819D01*
X75833333Y-83454819D02*
X75404762Y-84454819D01*
X56454819Y-61738094D02*
X55454819Y-61738094D01*
X55454819Y-61738094D02*
X55454819Y-61499999D01*
X55454819Y-61499999D02*
X55502438Y-61357142D01*
X55502438Y-61357142D02*
X55597676Y-61261904D01*
X55597676Y-61261904D02*
X55692914Y-61214285D01*
X55692914Y-61214285D02*
X55883390Y-61166666D01*
X55883390Y-61166666D02*
X56026247Y-61166666D01*
X56026247Y-61166666D02*
X56216723Y-61214285D01*
X56216723Y-61214285D02*
X56311961Y-61261904D01*
X56311961Y-61261904D02*
X56407200Y-61357142D01*
X56407200Y-61357142D02*
X56454819Y-61499999D01*
X56454819Y-61499999D02*
X56454819Y-61738094D01*
X56454819Y-60214285D02*
X56454819Y-60785713D01*
X56454819Y-60499999D02*
X55454819Y-60499999D01*
X55454819Y-60499999D02*
X55597676Y-60595237D01*
X55597676Y-60595237D02*
X55692914Y-60690475D01*
X55692914Y-60690475D02*
X55740533Y-60785713D01*
X59359580Y-65166666D02*
X59407200Y-65214285D01*
X59407200Y-65214285D02*
X59454819Y-65357142D01*
X59454819Y-65357142D02*
X59454819Y-65452380D01*
X59454819Y-65452380D02*
X59407200Y-65595237D01*
X59407200Y-65595237D02*
X59311961Y-65690475D01*
X59311961Y-65690475D02*
X59216723Y-65738094D01*
X59216723Y-65738094D02*
X59026247Y-65785713D01*
X59026247Y-65785713D02*
X58883390Y-65785713D01*
X58883390Y-65785713D02*
X58692914Y-65738094D01*
X58692914Y-65738094D02*
X58597676Y-65690475D01*
X58597676Y-65690475D02*
X58502438Y-65595237D01*
X58502438Y-65595237D02*
X58454819Y-65452380D01*
X58454819Y-65452380D02*
X58454819Y-65357142D01*
X58454819Y-65357142D02*
X58502438Y-65214285D01*
X58502438Y-65214285D02*
X58550057Y-65166666D01*
X58454819Y-64833332D02*
X58454819Y-64214285D01*
X58454819Y-64214285D02*
X58835771Y-64547618D01*
X58835771Y-64547618D02*
X58835771Y-64404761D01*
X58835771Y-64404761D02*
X58883390Y-64309523D01*
X58883390Y-64309523D02*
X58931009Y-64261904D01*
X58931009Y-64261904D02*
X59026247Y-64214285D01*
X59026247Y-64214285D02*
X59264342Y-64214285D01*
X59264342Y-64214285D02*
X59359580Y-64261904D01*
X59359580Y-64261904D02*
X59407200Y-64309523D01*
X59407200Y-64309523D02*
X59454819Y-64404761D01*
X59454819Y-64404761D02*
X59454819Y-64690475D01*
X59454819Y-64690475D02*
X59407200Y-64785713D01*
X59407200Y-64785713D02*
X59359580Y-64833332D01*
X89454819Y-61166666D02*
X88978628Y-61499999D01*
X89454819Y-61738094D02*
X88454819Y-61738094D01*
X88454819Y-61738094D02*
X88454819Y-61357142D01*
X88454819Y-61357142D02*
X88502438Y-61261904D01*
X88502438Y-61261904D02*
X88550057Y-61214285D01*
X88550057Y-61214285D02*
X88645295Y-61166666D01*
X88645295Y-61166666D02*
X88788152Y-61166666D01*
X88788152Y-61166666D02*
X88883390Y-61214285D01*
X88883390Y-61214285D02*
X88931009Y-61261904D01*
X88931009Y-61261904D02*
X88978628Y-61357142D01*
X88978628Y-61357142D02*
X88978628Y-61738094D01*
X88454819Y-60833332D02*
X88454819Y-60214285D01*
X88454819Y-60214285D02*
X88835771Y-60547618D01*
X88835771Y-60547618D02*
X88835771Y-60404761D01*
X88835771Y-60404761D02*
X88883390Y-60309523D01*
X88883390Y-60309523D02*
X88931009Y-60261904D01*
X88931009Y-60261904D02*
X89026247Y-60214285D01*
X89026247Y-60214285D02*
X89264342Y-60214285D01*
X89264342Y-60214285D02*
X89359580Y-60261904D01*
X89359580Y-60261904D02*
X89407200Y-60309523D01*
X89407200Y-60309523D02*
X89454819Y-60404761D01*
X89454819Y-60404761D02*
X89454819Y-60690475D01*
X89454819Y-60690475D02*
X89407200Y-60785713D01*
X89407200Y-60785713D02*
X89359580Y-60833332D01*
%TO.C,J2*%
D13*
X85130000Y-81730000D02*
X85130000Y-80870000D01*
X85130000Y-81730000D02*
X85930000Y-81730000D01*
X88280000Y-76000000D02*
X88280000Y-79780000D01*
X88280000Y-76000000D02*
X98780000Y-76000000D01*
X88280000Y-81220000D02*
X88280000Y-85000000D01*
X88280000Y-85000000D02*
X98780000Y-85000000D01*
X98780000Y-76000000D02*
X98780000Y-79700000D01*
X98780000Y-81300000D02*
X98780000Y-85000000D01*
X94580000Y-80500000D02*
G75*
G02*
X90980000Y-80500000I-1800000J0D01*
G01*
X90980000Y-80500000D02*
G75*
G02*
X94580000Y-80500000I1800000J0D01*
G01*
%TO.C,C4*%
D12*
X63770000Y-71380000D02*
X64710000Y-70440000D01*
X63770000Y-74900000D02*
X63770000Y-71380000D01*
X64710000Y-70480000D02*
X65390000Y-70480000D01*
X65390000Y-74900000D02*
X63770000Y-74900000D01*
X66610000Y-74900000D02*
X68230000Y-74900000D01*
X67290000Y-70440000D02*
X66610000Y-70440000D01*
X68230000Y-71380000D02*
X67290000Y-70440000D01*
X68230000Y-74900000D02*
X68230000Y-71380000D01*
D14*
X63880000Y-70370000D02*
G75*
G02*
X63820000Y-70370000I-30000J0D01*
G01*
X63820000Y-70370000D02*
G75*
G02*
X63880000Y-70370000I30000J0D01*
G01*
D15*
G36*
X65075465Y-71164550D02*
G01*
X64946484Y-71164550D01*
X64946484Y-70648549D01*
X65075465Y-70648549D01*
X65075465Y-71164550D01*
G37*
G36*
X65075465Y-74690552D02*
G01*
X64946484Y-74690552D01*
X64946484Y-74174551D01*
X65075465Y-74174551D01*
X65075465Y-74690552D01*
G37*
G36*
X65440971Y-70971052D02*
G01*
X64580978Y-70971052D01*
X64580978Y-70842046D01*
X65440971Y-70842046D01*
X65440971Y-70971052D01*
G37*
%TO.C,J5*%
D13*
X72367905Y-50981680D02*
X79687905Y-50981680D01*
X72367905Y-59021680D02*
X72367905Y-50981680D01*
X73175905Y-54401680D02*
X72367905Y-54401680D01*
X73175905Y-55401680D02*
X72367905Y-55401680D01*
X74444905Y-53101680D02*
X72367905Y-53101680D01*
X78107905Y-53101680D02*
X75530905Y-53101680D01*
X78107905Y-54401680D02*
X76799905Y-54401680D01*
X78107905Y-55401680D02*
X76799905Y-55401680D01*
X80287905Y-50981680D02*
X83107905Y-50981680D01*
X83107905Y-50981680D02*
X83107905Y-59021680D01*
X83107905Y-53101680D02*
X81867905Y-53101680D01*
X83107905Y-54401680D02*
X81867905Y-54401680D01*
X83107905Y-55401680D02*
X81867905Y-55401680D01*
X83107905Y-59021680D02*
X72367905Y-59021680D01*
X79987905Y-50981680D02*
X79547905Y-50371680D01*
X80427905Y-50371680D01*
X79987905Y-50981680D01*
G36*
X79987905Y-50981680D02*
G01*
X79547905Y-50371680D01*
X80427905Y-50371680D01*
X79987905Y-50981680D01*
G37*
%TO.C,R2*%
D12*
X66080000Y-77240000D02*
X66080000Y-78520000D01*
X66080000Y-80760000D02*
X66080000Y-79480000D01*
X67920000Y-77240000D02*
X66080000Y-77240000D01*
X67920000Y-78520000D02*
X67920000Y-77240000D01*
X67920000Y-79480000D02*
X67920000Y-80760000D01*
X67920000Y-80760000D02*
X66080000Y-80760000D01*
D14*
X67670000Y-80000000D02*
G75*
G02*
X67610000Y-80000000I-30000J0D01*
G01*
X67610000Y-80000000D02*
G75*
G02*
X67670000Y-80000000I30000J0D01*
G01*
%TO.C,J6*%
D13*
X48193172Y-72000000D02*
X49993172Y-72000000D01*
X48193172Y-77000000D02*
X51193172Y-77000000D01*
X48193172Y-78000000D02*
X48193172Y-72000000D01*
X49993172Y-70500000D02*
X51193172Y-70500000D01*
X49993172Y-72000000D02*
X49993172Y-70500000D01*
X49993172Y-78000000D02*
X48193172Y-78000000D01*
X49993172Y-79500000D02*
X49993172Y-78000000D01*
X51193172Y-69000000D02*
X62193172Y-69000000D01*
X51193172Y-70500000D02*
X51193172Y-69000000D01*
X51193172Y-73000000D02*
X48193172Y-73000000D01*
X51193172Y-77000000D02*
X51193172Y-73000000D01*
X51193172Y-79500000D02*
X49993172Y-79500000D01*
X51193172Y-81000000D02*
X51193172Y-79500000D01*
X62193172Y-69000000D02*
X62193172Y-81000000D01*
X62193172Y-81000000D02*
X51193172Y-81000000D01*
%TO.C,U1*%
D12*
X69920000Y-73230000D02*
X80080000Y-73230000D01*
X69920000Y-76770000D02*
X69920000Y-73230000D01*
X80080000Y-73230000D02*
X80080000Y-76770000D01*
X80080000Y-76770000D02*
X69920000Y-76770000D01*
D11*
X69970000Y-77870000D02*
G75*
G02*
X69670000Y-77870000I-150000J0D01*
G01*
X69670000Y-77870000D02*
G75*
G02*
X69970000Y-77870000I150000J0D01*
G01*
D14*
X70030000Y-78150000D02*
G75*
G02*
X69970000Y-78150000I-30000J0D01*
G01*
X69970000Y-78150000D02*
G75*
G02*
X70030000Y-78150000I30000J0D01*
G01*
D11*
X70710000Y-76020000D02*
G75*
G02*
X70390000Y-76020000I-160000J0D01*
G01*
X70390000Y-76020000D02*
G75*
G02*
X70710000Y-76020000I160000J0D01*
G01*
%TO.C,D2*%
D12*
X85720000Y-56739000D02*
X85900000Y-56739000D01*
X88314000Y-56739000D02*
X88114000Y-56739000D01*
X85714000Y-56739000D02*
G75*
G02*
X86030357Y-53511256I1320000J1500000D01*
G01*
X85900000Y-56290000D02*
G75*
G02*
X85900933Y-54186995I1134000J1051000D01*
G01*
X87994000Y-53489000D02*
G75*
G02*
X88340726Y-56726220I-960000J-1740000D01*
G01*
X88094000Y-54205000D02*
G75*
G02*
X88113252Y-56252889I-1060000J-1034000D01*
G01*
%TO.C,U2*%
X73200000Y-61650000D02*
X73200000Y-68350000D01*
X79160000Y-61650000D02*
X73200000Y-61650000D01*
X79160000Y-68350000D02*
X73200000Y-68350000D01*
D14*
X70650000Y-61700000D02*
G75*
G02*
X70590000Y-61700000I-30000J0D01*
G01*
X70590000Y-61700000D02*
G75*
G02*
X70650000Y-61700000I30000J0D01*
G01*
%TO.C,J1*%
D13*
X85130000Y-71030000D02*
X85130000Y-70170000D01*
X85130000Y-71030000D02*
X85930000Y-71030000D01*
X88280000Y-65300000D02*
X88280000Y-69080000D01*
X88280000Y-65300000D02*
X98780000Y-65300000D01*
X88280000Y-70520000D02*
X88280000Y-74300000D01*
X88280000Y-74300000D02*
X98780000Y-74300000D01*
X98780000Y-65300000D02*
X98780000Y-69000000D01*
X98780000Y-70600000D02*
X98780000Y-74300000D01*
X94580000Y-69800000D02*
G75*
G02*
X90980000Y-69800000I-1800000J0D01*
G01*
X90980000Y-69800000D02*
G75*
G02*
X94580000Y-69800000I1800000J0D01*
G01*
%TO.C,R1*%
D12*
X63080000Y-77240000D02*
X64920000Y-77240000D01*
X63080000Y-78520000D02*
X63080000Y-77240000D01*
X63080000Y-79480000D02*
X63080000Y-80760000D01*
X63080000Y-80760000D02*
X64920000Y-80760000D01*
X64920000Y-77240000D02*
X64920000Y-78520000D01*
X64920000Y-80760000D02*
X64920000Y-79480000D01*
D14*
X63390000Y-78000000D02*
G75*
G02*
X63330000Y-78000000I-30000J0D01*
G01*
X63330000Y-78000000D02*
G75*
G02*
X63390000Y-78000000I30000J0D01*
G01*
%TO.C,C6*%
D12*
X60040000Y-91750000D02*
X60040000Y-90250000D01*
X60190000Y-90100000D02*
X61600000Y-90100000D01*
X61600000Y-91900000D02*
X60190000Y-91900000D01*
X62400000Y-91900000D02*
X63810000Y-91900000D01*
X63810000Y-90100000D02*
X62400000Y-90100000D01*
X63960000Y-91750000D02*
X63960000Y-90250000D01*
X60040000Y-90250000D02*
G75*
G02*
X60190000Y-90100000I150000J0D01*
G01*
X60190000Y-91900000D02*
G75*
G02*
X60040000Y-91750000I0J150000D01*
G01*
X63810000Y-90100000D02*
G75*
G02*
X63960000Y-90250000I0J-150000D01*
G01*
X63960000Y-91750000D02*
G75*
G02*
X63810000Y-91900000I-150000J0D01*
G01*
D14*
X61030000Y-91630000D02*
G75*
G02*
X60970000Y-91630000I-30000J0D01*
G01*
X60970000Y-91630000D02*
G75*
G02*
X61030000Y-91630000I30000J0D01*
G01*
%TO.C,RV1*%
D13*
X65930000Y-86330000D02*
X65930000Y-98670000D01*
X71380000Y-98670000D02*
X71380000Y-103670000D01*
X71880000Y-103670000D02*
X71880000Y-113670000D01*
X78120000Y-103670000D02*
X78120000Y-113670000D01*
X78120000Y-113670000D02*
X71880000Y-113670000D01*
X78620000Y-98670000D02*
X78620000Y-103670000D01*
X78620000Y-103670000D02*
X71380000Y-103670000D01*
X84070000Y-86330000D02*
X65930000Y-86330000D01*
X84070000Y-86330000D02*
X84070000Y-98670000D01*
X84070000Y-98670000D02*
X65930000Y-98670000D01*
%TO.C,C1*%
D12*
X63100000Y-85600000D02*
X63100000Y-84190000D01*
X63100000Y-86400000D02*
X63100000Y-87810000D01*
X63250000Y-84040000D02*
X64750000Y-84040000D01*
X63250000Y-87960000D02*
X64750000Y-87960000D01*
X64900000Y-84190000D02*
X64900000Y-85600000D01*
X64900000Y-87810000D02*
X64900000Y-86400000D01*
X63100000Y-84190000D02*
G75*
G02*
X63250000Y-84040000I150000J0D01*
G01*
X63250000Y-87960000D02*
G75*
G02*
X63100000Y-87810000I0J150000D01*
G01*
X64750000Y-84040000D02*
G75*
G02*
X64900000Y-84190000I0J-150000D01*
G01*
X64900000Y-87810000D02*
G75*
G02*
X64750000Y-87960000I-150000J0D01*
G01*
D14*
X63400000Y-85000000D02*
G75*
G02*
X63340000Y-85000000I-30000J0D01*
G01*
X63340000Y-85000000D02*
G75*
G02*
X63400000Y-85000000I30000J0D01*
G01*
%TO.C,C2*%
D12*
X79040000Y-81250000D02*
X79040000Y-82750000D01*
X79190000Y-82900000D02*
X80600000Y-82900000D01*
X80600000Y-81100000D02*
X79190000Y-81100000D01*
X81400000Y-81100000D02*
X82810000Y-81100000D01*
X82810000Y-82900000D02*
X81400000Y-82900000D01*
X82960000Y-81250000D02*
X82960000Y-82750000D01*
X79040000Y-81250000D02*
G75*
G02*
X79190000Y-81100000I150000J0D01*
G01*
X79190000Y-82900000D02*
G75*
G02*
X79040000Y-82750000I0J150000D01*
G01*
X82810000Y-81100000D02*
G75*
G02*
X82960000Y-81250000I0J-150000D01*
G01*
X82960000Y-82750000D02*
G75*
G02*
X82810000Y-82900000I-150000J0D01*
G01*
D14*
X82030000Y-81370000D02*
G75*
G02*
X81970000Y-81370000I-30000J0D01*
G01*
X81970000Y-81370000D02*
G75*
G02*
X82030000Y-81370000I30000J0D01*
G01*
%TO.C,C7*%
D12*
X73040000Y-81250000D02*
X73040000Y-82750000D01*
X73190000Y-82900000D02*
X74600000Y-82900000D01*
X74600000Y-81100000D02*
X73190000Y-81100000D01*
X75400000Y-81100000D02*
X76810000Y-81100000D01*
X76810000Y-82900000D02*
X75400000Y-82900000D01*
X76960000Y-81250000D02*
X76960000Y-82750000D01*
X73040000Y-81250000D02*
G75*
G02*
X73190000Y-81100000I150000J0D01*
G01*
X73190000Y-82900000D02*
G75*
G02*
X73040000Y-82750000I0J150000D01*
G01*
X76810000Y-81100000D02*
G75*
G02*
X76960000Y-81250000I0J-150000D01*
G01*
X76960000Y-82750000D02*
G75*
G02*
X76810000Y-82900000I-150000J0D01*
G01*
D14*
X76030000Y-81370000D02*
G75*
G02*
X75970000Y-81370000I-30000J0D01*
G01*
X75970000Y-81370000D02*
G75*
G02*
X76030000Y-81370000I30000J0D01*
G01*
%TO.C,D1*%
D12*
X57270000Y-60100000D02*
X57470000Y-60100000D01*
X57270000Y-61450000D02*
X58730000Y-61450000D01*
X57270000Y-61850000D02*
X57270000Y-60100000D01*
X58730000Y-60100000D02*
X58520000Y-60100000D01*
X58730000Y-61850000D02*
X58730000Y-60100000D01*
D14*
X58680000Y-62230000D02*
G75*
G02*
X58620000Y-62230000I-30000J0D01*
G01*
X58620000Y-62230000D02*
G75*
G02*
X58680000Y-62230000I30000J0D01*
G01*
D15*
G36*
X57550115Y-62079779D02*
G01*
X57197690Y-62079779D01*
X57197690Y-61775005D01*
X57550115Y-61775005D01*
X57550115Y-62079779D01*
G37*
G36*
X58802538Y-62079779D02*
G01*
X58450139Y-62079779D01*
X58450139Y-61775005D01*
X58802538Y-61775005D01*
X58802538Y-62079779D01*
G37*
%TO.C,J3*%
D13*
X59967330Y-51148611D02*
X67287330Y-51148611D01*
X59967330Y-59188611D02*
X59967330Y-51148611D01*
X60775330Y-54568611D02*
X59967330Y-54568611D01*
X60775330Y-55568611D02*
X59967330Y-55568611D01*
X62044330Y-53268611D02*
X59967330Y-53268611D01*
X65707330Y-53268611D02*
X63130330Y-53268611D01*
X65707330Y-54568611D02*
X64399330Y-54568611D01*
X65707330Y-55568611D02*
X64399330Y-55568611D01*
X67887330Y-51148611D02*
X70707330Y-51148611D01*
X70707330Y-51148611D02*
X70707330Y-59188611D01*
X70707330Y-53268611D02*
X69467330Y-53268611D01*
X70707330Y-54568611D02*
X69467330Y-54568611D01*
X70707330Y-55568611D02*
X69467330Y-55568611D01*
X70707330Y-59188611D02*
X59967330Y-59188611D01*
X67587330Y-51148611D02*
X67147330Y-50538611D01*
X68027330Y-50538611D01*
X67587330Y-51148611D01*
G36*
X67587330Y-51148611D02*
G01*
X67147330Y-50538611D01*
X68027330Y-50538611D01*
X67587330Y-51148611D01*
G37*
%TO.C,C3*%
D12*
X60259946Y-62518321D02*
X61659946Y-61118321D01*
X60259946Y-67878321D02*
X60259946Y-62518321D01*
X61659946Y-61118321D02*
X62949946Y-61138321D01*
X62899946Y-67858321D02*
X60259946Y-67878321D01*
X64349946Y-67868321D02*
X67019946Y-67878321D01*
X65619946Y-61118321D02*
X64329946Y-61118321D01*
X67019946Y-62518321D02*
X65619946Y-61118321D01*
X67019946Y-67878321D02*
X67019946Y-62518321D01*
D14*
X60369946Y-60698321D02*
G75*
G02*
X60309946Y-60698321I-30000J0D01*
G01*
X60309946Y-60698321D02*
G75*
G02*
X60369946Y-60698321I30000J0D01*
G01*
D15*
G36*
X62220899Y-62188267D02*
G01*
X62022906Y-62188267D01*
X62022906Y-61396270D01*
X62220899Y-61396270D01*
X62220899Y-62188267D01*
G37*
G36*
X62220899Y-67600271D02*
G01*
X62022906Y-67600271D01*
X62022906Y-66808273D01*
X62220899Y-66808273D01*
X62220899Y-67600271D01*
G37*
G36*
X62781883Y-61891265D02*
G01*
X61461896Y-61891265D01*
X61461896Y-61693272D01*
X62781883Y-61693272D01*
X62781883Y-61891265D01*
G37*
%TO.C,R3*%
D12*
X86080000Y-59240000D02*
X87920000Y-59240000D01*
X86080000Y-60520000D02*
X86080000Y-59240000D01*
X86080000Y-61480000D02*
X86080000Y-62760000D01*
X86080000Y-62760000D02*
X87920000Y-62760000D01*
X87920000Y-59240000D02*
X87920000Y-60520000D01*
X87920000Y-62760000D02*
X87920000Y-61480000D01*
D14*
X86390000Y-60000000D02*
G75*
G02*
X86330000Y-60000000I-30000J0D01*
G01*
X86330000Y-60000000D02*
G75*
G02*
X86390000Y-60000000I30000J0D01*
G01*
%TO.C,J7*%
D13*
X52080000Y-87380000D02*
X52080000Y-86000000D01*
X53460000Y-87380000D02*
X52080000Y-87380000D01*
X54730000Y-84620000D02*
X59920000Y-84620000D01*
X54730000Y-87380000D02*
X54730000Y-84620000D01*
X54730000Y-87380000D02*
X59920000Y-87380000D01*
X59920000Y-87380000D02*
X59920000Y-84620000D01*
%TD*%
D16*
%TO.C,D2*%
X87000000Y-56540000D03*
D17*
X87000000Y-54000000D03*
%TD*%
M02*
