%TF.GenerationSoftware,KiCad,Pcbnew,10.0.0*%
%TF.CreationDate,2026-10-03T00:36:13-03:00*%
%TF.ProjectId,parla-linea-v-0-rev-a,7061726c-612d-46c6-996e-65612d762d30,rev?*%
%TF.SameCoordinates,Original*%
%TF.FileFunction,Legend,Bot*%
%TF.FilePolarity,Positive*%
%FSLAX46Y46*%
G04 Gerber Fmt 4.6, Leading zero omitted, Abs format (unit mm)*
G04 Created by KiCad (PCBNEW 10.0.0) date 2026-10-03 00:36:13*
%MOMM*%
%LPD*%
G01*
G04 APERTURE LIST*
%ADD10C,0.300000*%
%ADD11C,0.000000*%
G04 APERTURE END LIST*
D10*
G36*
X89808513Y-94660000D02*
G01*
X89133792Y-94660000D01*
X89102229Y-94656059D01*
X89079137Y-94644107D01*
X89059086Y-94606623D01*
X89057100Y-94583307D01*
X89057100Y-94236116D01*
X89061040Y-94204603D01*
X89072992Y-94181510D01*
X89110510Y-94161412D01*
X89133792Y-94159424D01*
X89698237Y-94159424D01*
X89694322Y-94109303D01*
X89682544Y-94063738D01*
X89664427Y-94025318D01*
X89639389Y-93990823D01*
X89599075Y-93953771D01*
X89243457Y-93682051D01*
X89195054Y-93640126D01*
X89155308Y-93594450D01*
X89126176Y-93548678D01*
X89103592Y-93498406D01*
X89076555Y-93380079D01*
X89073831Y-93351591D01*
X89072546Y-93137864D01*
X89076639Y-93006842D01*
X89084124Y-92936200D01*
X89099082Y-92874283D01*
X89118765Y-92826403D01*
X89144514Y-92785267D01*
X89174177Y-92752795D01*
X89209269Y-92726099D01*
X89296349Y-92689666D01*
X89414365Y-92675570D01*
X89422121Y-92675526D01*
X89567812Y-92675526D01*
X89635901Y-92679453D01*
X89695645Y-92691309D01*
X89741596Y-92708487D01*
X89781159Y-92732031D01*
X89812434Y-92759877D01*
X89838232Y-92793423D01*
X89873844Y-92878798D01*
X89887955Y-92997686D01*
X89888014Y-93006964D01*
X89876657Y-93408499D01*
X89701168Y-93408499D01*
X89694721Y-93337088D01*
X89680633Y-93279736D01*
X89663457Y-93243195D01*
X89640906Y-93214972D01*
X89585960Y-93183847D01*
X89525802Y-93176102D01*
X89416503Y-93176102D01*
X89366735Y-93180102D01*
X89325966Y-93192469D01*
X89299332Y-93209088D01*
X89278480Y-93231908D01*
X89254286Y-93294617D01*
X89249685Y-93351346D01*
X89253623Y-93389764D01*
X89265551Y-93426034D01*
X89312717Y-93492410D01*
X89360083Y-93532941D01*
X89721318Y-93810279D01*
X89768094Y-93851242D01*
X89806964Y-93896400D01*
X89835993Y-93942431D01*
X89858290Y-93992811D01*
X89882767Y-94107413D01*
X89885205Y-94163332D01*
X89885205Y-94583307D01*
X89881265Y-94614871D01*
X89869313Y-94637963D01*
X89831829Y-94658013D01*
X89808513Y-94660000D01*
G37*
G36*
X88541907Y-93471702D02*
G01*
X88564346Y-93483035D01*
X88579211Y-93499468D01*
X88588200Y-93521510D01*
X88590718Y-93544542D01*
X88590718Y-93807714D01*
X88586937Y-93834394D01*
X88576098Y-93856174D01*
X88559707Y-93871790D01*
X88538157Y-93881465D01*
X88514026Y-93884528D01*
X88348796Y-93884528D01*
X88320971Y-93880679D01*
X88298562Y-93869361D01*
X88283671Y-93852922D01*
X88274652Y-93830883D01*
X88272103Y-93807714D01*
X88272103Y-93544542D01*
X88275956Y-93516661D01*
X88287288Y-93494222D01*
X88303721Y-93479358D01*
X88325763Y-93470369D01*
X88348796Y-93467850D01*
X88514026Y-93467850D01*
X88541907Y-93471702D01*
G37*
G36*
X88568667Y-92679387D02*
G01*
X88621626Y-92690780D01*
X88668337Y-92708736D01*
X88710206Y-92733239D01*
X88746307Y-92763419D01*
X88777152Y-92799418D01*
X88822019Y-92888232D01*
X88842343Y-93000244D01*
X88842655Y-93006842D01*
X88853890Y-93676189D01*
X88842655Y-94345537D01*
X88836305Y-94406499D01*
X88822690Y-94462054D01*
X88802917Y-94510407D01*
X88776978Y-94553149D01*
X88745980Y-94589237D01*
X88709692Y-94619465D01*
X88622752Y-94661249D01*
X88516291Y-94676824D01*
X88511217Y-94676852D01*
X88351605Y-94676852D01*
X88294182Y-94672992D01*
X88241244Y-94661601D01*
X88194533Y-94643644D01*
X88152660Y-94619141D01*
X88116539Y-94588953D01*
X88085672Y-94552947D01*
X88040745Y-94464108D01*
X88020359Y-94352087D01*
X88020045Y-94345537D01*
X88008932Y-93676189D01*
X88173551Y-93676189D01*
X88179169Y-93967205D01*
X88185168Y-94024716D01*
X88198988Y-94073430D01*
X88217180Y-94108154D01*
X88241484Y-94136756D01*
X88305075Y-94174627D01*
X88399005Y-94192157D01*
X88430006Y-94193007D01*
X88432815Y-94193007D01*
X88497506Y-94189064D01*
X88551737Y-94177094D01*
X88589774Y-94160555D01*
X88620949Y-94137998D01*
X88661752Y-94079371D01*
X88681972Y-93993518D01*
X88683653Y-93967205D01*
X88686461Y-93676189D01*
X88683653Y-93385052D01*
X88677608Y-93327520D01*
X88663748Y-93278792D01*
X88645527Y-93244060D01*
X88621198Y-93215456D01*
X88557573Y-93177594D01*
X88463631Y-93160091D01*
X88432815Y-93159249D01*
X88430006Y-93159249D01*
X88366128Y-93163192D01*
X88312227Y-93175163D01*
X88274019Y-93191796D01*
X88242560Y-93214506D01*
X88201206Y-93273519D01*
X88180804Y-93359298D01*
X88179169Y-93385052D01*
X88173551Y-93676189D01*
X88008932Y-93676189D01*
X88020045Y-93006842D01*
X88026432Y-92945832D01*
X88040080Y-92890247D01*
X88059879Y-92841888D01*
X88085839Y-92799148D01*
X88116851Y-92763072D01*
X88153150Y-92732859D01*
X88240107Y-92691106D01*
X88346603Y-92675554D01*
X88351605Y-92675526D01*
X88511217Y-92675526D01*
X88568667Y-92679387D01*
G37*
G36*
X87725610Y-94660000D02*
G01*
X87050889Y-94660000D01*
X87019326Y-94656059D01*
X86996234Y-94644107D01*
X86976183Y-94606623D01*
X86974197Y-94583307D01*
X86974197Y-94236116D01*
X86978137Y-94204603D01*
X86990089Y-94181510D01*
X87027607Y-94161412D01*
X87050889Y-94159424D01*
X87615334Y-94159424D01*
X87611419Y-94109303D01*
X87599641Y-94063738D01*
X87581524Y-94025318D01*
X87556486Y-93990823D01*
X87516172Y-93953771D01*
X87160554Y-93682051D01*
X87112151Y-93640126D01*
X87072405Y-93594450D01*
X87043273Y-93548678D01*
X87020689Y-93498406D01*
X86993652Y-93380079D01*
X86990928Y-93351591D01*
X86989643Y-93137864D01*
X86993736Y-93006842D01*
X87001221Y-92936200D01*
X87016179Y-92874283D01*
X87035862Y-92826403D01*
X87061611Y-92785267D01*
X87091274Y-92752795D01*
X87126366Y-92726099D01*
X87213446Y-92689666D01*
X87331462Y-92675570D01*
X87339218Y-92675526D01*
X87484909Y-92675526D01*
X87552998Y-92679453D01*
X87612742Y-92691309D01*
X87658693Y-92708487D01*
X87698256Y-92732031D01*
X87729531Y-92759877D01*
X87755329Y-92793423D01*
X87790941Y-92878798D01*
X87805052Y-92997686D01*
X87805111Y-93006964D01*
X87793754Y-93408499D01*
X87618265Y-93408499D01*
X87611818Y-93337088D01*
X87597730Y-93279736D01*
X87580554Y-93243195D01*
X87558003Y-93214972D01*
X87503057Y-93183847D01*
X87442899Y-93176102D01*
X87333600Y-93176102D01*
X87283832Y-93180102D01*
X87243063Y-93192469D01*
X87216429Y-93209088D01*
X87195577Y-93231908D01*
X87171383Y-93294617D01*
X87166782Y-93351346D01*
X87170720Y-93389764D01*
X87182648Y-93426034D01*
X87229814Y-93492410D01*
X87277180Y-93532941D01*
X87638415Y-93810279D01*
X87685191Y-93851242D01*
X87724061Y-93896400D01*
X87753090Y-93942431D01*
X87775387Y-93992811D01*
X87799864Y-94107413D01*
X87802302Y-94163332D01*
X87802302Y-94583307D01*
X87798362Y-94614871D01*
X87786410Y-94637963D01*
X87748926Y-94658013D01*
X87725610Y-94660000D01*
G37*
G36*
X86500156Y-92679453D02*
G01*
X86560873Y-92691311D01*
X86607800Y-92708532D01*
X86648369Y-92732145D01*
X86680654Y-92760113D01*
X86707501Y-92793819D01*
X86745379Y-92879553D01*
X86762314Y-92998753D01*
X86762561Y-93006842D01*
X86770987Y-93678998D01*
X86762561Y-94351032D01*
X86756810Y-94422773D01*
X86743421Y-94485438D01*
X86725107Y-94533488D01*
X86700702Y-94574510D01*
X86672555Y-94606351D01*
X86639094Y-94632220D01*
X86556426Y-94666139D01*
X86456280Y-94676852D01*
X86288241Y-94676852D01*
X86225035Y-94672933D01*
X86168739Y-94661130D01*
X86123764Y-94643631D01*
X86084324Y-94619592D01*
X86024176Y-94555287D01*
X85983002Y-94464210D01*
X85962421Y-94351277D01*
X85951186Y-94101782D01*
X85954456Y-93998101D01*
X86135467Y-93998101D01*
X86135467Y-94056964D01*
X86139418Y-94089208D01*
X86151440Y-94115243D01*
X86192577Y-94146548D01*
X86268655Y-94161478D01*
X86296667Y-94162233D01*
X86431123Y-94162233D01*
X86491079Y-94158244D01*
X86536852Y-94145955D01*
X86562633Y-94130684D01*
X86580775Y-94110077D01*
X86595132Y-94056842D01*
X86596548Y-94020181D01*
X86597941Y-93984302D01*
X86591622Y-93957349D01*
X86577795Y-93935307D01*
X86531381Y-93907141D01*
X86442236Y-93895642D01*
X86291050Y-93895642D01*
X86232771Y-93899609D01*
X86188709Y-93911752D01*
X86164148Y-93926832D01*
X86147295Y-93947097D01*
X86135467Y-93998101D01*
X85954456Y-93998101D01*
X85956370Y-93937399D01*
X85956803Y-93927882D01*
X85964333Y-93857203D01*
X85979310Y-93795294D01*
X85998999Y-93747422D01*
X86024715Y-93706377D01*
X86054269Y-93674107D01*
X86089183Y-93647696D01*
X86175452Y-93612184D01*
X86291050Y-93599497D01*
X86464706Y-93599497D01*
X86501437Y-93603394D01*
X86529867Y-93615045D01*
X86547551Y-93630940D01*
X86559432Y-93652321D01*
X86566556Y-93697438D01*
X86600750Y-93697438D01*
X86592445Y-93326311D01*
X86587250Y-93278425D01*
X86574251Y-93239313D01*
X86557068Y-93213052D01*
X86534052Y-93192842D01*
X86472109Y-93170554D01*
X86431123Y-93167676D01*
X86268702Y-93167676D01*
X86226148Y-93171806D01*
X86190854Y-93185090D01*
X86168107Y-93202834D01*
X86149690Y-93227713D01*
X86125287Y-93303083D01*
X86118492Y-93374916D01*
X85945812Y-93374916D01*
X85937172Y-93172698D01*
X85937142Y-93006842D01*
X85943758Y-92934935D01*
X85957969Y-92872088D01*
X85976942Y-92823996D01*
X86002019Y-92782800D01*
X86030901Y-92750590D01*
X86065203Y-92724209D01*
X86150407Y-92688639D01*
X86268702Y-92675526D01*
X86431123Y-92675526D01*
X86500156Y-92679453D01*
G37*
G36*
X85657240Y-93845327D02*
G01*
X84985327Y-93845327D01*
X84958697Y-93841547D01*
X84936944Y-93830718D01*
X84921309Y-93814320D01*
X84911607Y-93792769D01*
X84908513Y-93768513D01*
X84908513Y-93583743D01*
X84912293Y-93557126D01*
X84923123Y-93535406D01*
X84939516Y-93519809D01*
X84961061Y-93510137D01*
X84985327Y-93507051D01*
X85657240Y-93507051D01*
X85683906Y-93510833D01*
X85705654Y-93521672D01*
X85721231Y-93538058D01*
X85730876Y-93559601D01*
X85733932Y-93583743D01*
X85733932Y-93768513D01*
X85730080Y-93796409D01*
X85718747Y-93818883D01*
X85702311Y-93833785D01*
X85680264Y-93842802D01*
X85657240Y-93845327D01*
G37*
G36*
X84615788Y-94660000D02*
G01*
X83885013Y-94660000D01*
X83853450Y-94656059D01*
X83830358Y-94644107D01*
X83810308Y-94606623D01*
X83808321Y-94583307D01*
X83808321Y-94236116D01*
X83812262Y-94204603D01*
X83824214Y-94181510D01*
X83861731Y-94161412D01*
X83885013Y-94159424D01*
X84147086Y-94159424D01*
X84147086Y-92692257D01*
X84320498Y-92692257D01*
X84649127Y-92973136D01*
X84670678Y-92996110D01*
X84684385Y-93024459D01*
X84692480Y-93090983D01*
X84692480Y-93398974D01*
X84688585Y-93443697D01*
X84676950Y-93470593D01*
X84664966Y-93478451D01*
X84649614Y-93478189D01*
X84606664Y-93450920D01*
X84596249Y-93440983D01*
X84345411Y-93192833D01*
X84320132Y-93192833D01*
X84320132Y-94159424D01*
X84615788Y-94159424D01*
X84647284Y-94163360D01*
X84670350Y-94175279D01*
X84690471Y-94212723D01*
X84692480Y-94236116D01*
X84692480Y-94583307D01*
X84688540Y-94614871D01*
X84676588Y-94637963D01*
X84639104Y-94658013D01*
X84615788Y-94660000D01*
G37*
G36*
X83348327Y-93471702D02*
G01*
X83370766Y-93483035D01*
X83385631Y-93499468D01*
X83394620Y-93521510D01*
X83397138Y-93544542D01*
X83397138Y-93807714D01*
X83393357Y-93834394D01*
X83382518Y-93856174D01*
X83366127Y-93871790D01*
X83344577Y-93881465D01*
X83320446Y-93884528D01*
X83155216Y-93884528D01*
X83127391Y-93880679D01*
X83104982Y-93869361D01*
X83090091Y-93852922D01*
X83081072Y-93830883D01*
X83078524Y-93807714D01*
X83078524Y-93544542D01*
X83082376Y-93516661D01*
X83093708Y-93494222D01*
X83110141Y-93479358D01*
X83132183Y-93470369D01*
X83155216Y-93467850D01*
X83320446Y-93467850D01*
X83348327Y-93471702D01*
G37*
G36*
X83375087Y-92679387D02*
G01*
X83428046Y-92690780D01*
X83474757Y-92708736D01*
X83516626Y-92733239D01*
X83552727Y-92763419D01*
X83583572Y-92799418D01*
X83628439Y-92888232D01*
X83648763Y-93000244D01*
X83649075Y-93006842D01*
X83660310Y-93676189D01*
X83649075Y-94345537D01*
X83642725Y-94406499D01*
X83629110Y-94462054D01*
X83609337Y-94510407D01*
X83583398Y-94553149D01*
X83552400Y-94589237D01*
X83516112Y-94619465D01*
X83429172Y-94661249D01*
X83322711Y-94676824D01*
X83317637Y-94676852D01*
X83158025Y-94676852D01*
X83100602Y-94672992D01*
X83047664Y-94661601D01*
X83000953Y-94643644D01*
X82959080Y-94619141D01*
X82922959Y-94588953D01*
X82892092Y-94552947D01*
X82847166Y-94464108D01*
X82826779Y-94352087D01*
X82826465Y-94345537D01*
X82815352Y-93676189D01*
X82979972Y-93676189D01*
X82985589Y-93967205D01*
X82991588Y-94024716D01*
X83005408Y-94073430D01*
X83023600Y-94108154D01*
X83047904Y-94136756D01*
X83111495Y-94174627D01*
X83205425Y-94192157D01*
X83236427Y-94193007D01*
X83239235Y-94193007D01*
X83303926Y-94189064D01*
X83358157Y-94177094D01*
X83396194Y-94160555D01*
X83427369Y-94137998D01*
X83468172Y-94079371D01*
X83488392Y-93993518D01*
X83490073Y-93967205D01*
X83492882Y-93676189D01*
X83490073Y-93385052D01*
X83484028Y-93327520D01*
X83470168Y-93278792D01*
X83451947Y-93244060D01*
X83427619Y-93215456D01*
X83363993Y-93177594D01*
X83270051Y-93160091D01*
X83239235Y-93159249D01*
X83236427Y-93159249D01*
X83172548Y-93163192D01*
X83118647Y-93175163D01*
X83080440Y-93191796D01*
X83048980Y-93214506D01*
X83007626Y-93273519D01*
X82987224Y-93359298D01*
X82985589Y-93385052D01*
X82979972Y-93676189D01*
X82815352Y-93676189D01*
X82826465Y-93006842D01*
X82832852Y-92945832D01*
X82846500Y-92890247D01*
X82866299Y-92841888D01*
X82892259Y-92799148D01*
X82923271Y-92763072D01*
X82959570Y-92732859D01*
X83046527Y-92691106D01*
X83153023Y-92675554D01*
X83158025Y-92675526D01*
X83317637Y-92675526D01*
X83375087Y-92679387D01*
G37*
G36*
X89839203Y-89696109D02*
G01*
X89861642Y-89707442D01*
X89876507Y-89723875D01*
X89885496Y-89745916D01*
X89888014Y-89768949D01*
X89888014Y-91660000D01*
X89712281Y-91660000D01*
X89712281Y-91094455D01*
X89634979Y-91094455D01*
X89604199Y-91098454D01*
X89581679Y-91110812D01*
X89560362Y-91152951D01*
X89524092Y-91362756D01*
X89509450Y-91431662D01*
X89488271Y-91491361D01*
X89463700Y-91537068D01*
X89433787Y-91575489D01*
X89400829Y-91604949D01*
X89363091Y-91628078D01*
X89272892Y-91655532D01*
X89209385Y-91660000D01*
X89142219Y-91660000D01*
X89115539Y-91656218D01*
X89093759Y-91645379D01*
X89078143Y-91628988D01*
X89068468Y-91607438D01*
X89065404Y-91583307D01*
X89065404Y-91252969D01*
X89069184Y-91226352D01*
X89080014Y-91204631D01*
X89096407Y-91189034D01*
X89117952Y-91179363D01*
X89142219Y-91176277D01*
X89296214Y-91176277D01*
X89326940Y-91172278D01*
X89349471Y-91159919D01*
X89370830Y-91117780D01*
X89381088Y-91063070D01*
X89325150Y-91051887D01*
X89273867Y-91033653D01*
X89228507Y-91009285D01*
X89188029Y-90978672D01*
X89122817Y-90900026D01*
X89079010Y-90797423D01*
X89059909Y-90676434D01*
X89051482Y-90351346D01*
X89051701Y-90342920D01*
X89244068Y-90342920D01*
X89244068Y-90455027D01*
X89247944Y-90502252D01*
X89259449Y-90541035D01*
X89275693Y-90568282D01*
X89297547Y-90589296D01*
X89356063Y-90612875D01*
X89396964Y-90616228D01*
X89475366Y-90616228D01*
X89712281Y-90616228D01*
X89712281Y-90190024D01*
X89396964Y-90190024D01*
X89351753Y-90193968D01*
X89314154Y-90205946D01*
X89288333Y-90222610D01*
X89268296Y-90245371D01*
X89246445Y-90307137D01*
X89244068Y-90342920D01*
X89051701Y-90342920D01*
X89059909Y-90026381D01*
X89067172Y-89964175D01*
X89081690Y-89907453D01*
X89102216Y-89858422D01*
X89128919Y-89815095D01*
X89160425Y-89778864D01*
X89197248Y-89748558D01*
X89284784Y-89707184D01*
X89391822Y-89692263D01*
X89394155Y-89692257D01*
X89811322Y-89692257D01*
X89839203Y-89696109D01*
G37*
G36*
X88801133Y-91660000D02*
G01*
X88193579Y-91660000D01*
X88165698Y-91656147D01*
X88143259Y-91644815D01*
X88128394Y-91628382D01*
X88119406Y-91606340D01*
X88116887Y-91583307D01*
X88116887Y-91238925D01*
X88120669Y-91212259D01*
X88131508Y-91190511D01*
X88147894Y-91174934D01*
X88169437Y-91165288D01*
X88193579Y-91162233D01*
X88707711Y-91162233D01*
X88707711Y-91010436D01*
X88322418Y-91010436D01*
X88295751Y-91006654D01*
X88274003Y-90995815D01*
X88258426Y-90979429D01*
X88248781Y-90957885D01*
X88245725Y-90933743D01*
X88245725Y-90592170D01*
X88249507Y-90565504D01*
X88260346Y-90543756D01*
X88276732Y-90528179D01*
X88298275Y-90518533D01*
X88322418Y-90515478D01*
X88707711Y-90515478D01*
X88707711Y-90190024D01*
X88204815Y-90190024D01*
X88176934Y-90186172D01*
X88154495Y-90174839D01*
X88139630Y-90158406D01*
X88130641Y-90136364D01*
X88128122Y-90113332D01*
X88128122Y-89768949D01*
X88131974Y-89741068D01*
X88143307Y-89718629D01*
X88159740Y-89703764D01*
X88181782Y-89694775D01*
X88204815Y-89692257D01*
X88801133Y-89692257D01*
X88829015Y-89696109D01*
X88851454Y-89707442D01*
X88866318Y-89723875D01*
X88875307Y-89745916D01*
X88877826Y-89768949D01*
X88877826Y-91583307D01*
X88874044Y-91609973D01*
X88863205Y-91631721D01*
X88846819Y-91647298D01*
X88825276Y-91656944D01*
X88801133Y-91660000D01*
G37*
G36*
X87746737Y-91660000D02*
G01*
X87368771Y-91660000D01*
X87340818Y-91656176D01*
X87318169Y-91645043D01*
X87302499Y-91628584D01*
X87292598Y-91606655D01*
X87289270Y-91586360D01*
X87112561Y-89692257D01*
X87288293Y-89692257D01*
X87414689Y-90913838D01*
X87425814Y-90976162D01*
X87443712Y-91024746D01*
X87462925Y-91053592D01*
X87486918Y-91074321D01*
X87543826Y-91091824D01*
X87556350Y-91092257D01*
X87593278Y-91088317D01*
X87624341Y-91076368D01*
X87666140Y-91034682D01*
X87693441Y-90960422D01*
X87700819Y-90913838D01*
X87824406Y-89692257D01*
X88000261Y-89692257D01*
X87826238Y-91586360D01*
X87820720Y-91613412D01*
X87808368Y-91634735D01*
X87768613Y-91657741D01*
X87746737Y-91660000D01*
G37*
G36*
X86876500Y-90845327D02*
G01*
X86204588Y-90845327D01*
X86177957Y-90841547D01*
X86156205Y-90830718D01*
X86140569Y-90814320D01*
X86130868Y-90792769D01*
X86127773Y-90768513D01*
X86127773Y-90583743D01*
X86131554Y-90557126D01*
X86142383Y-90535406D01*
X86158777Y-90519809D01*
X86180321Y-90510137D01*
X86204588Y-90507051D01*
X86876500Y-90507051D01*
X86903166Y-90510833D01*
X86924914Y-90521672D01*
X86940491Y-90538058D01*
X86950137Y-90559601D01*
X86953192Y-90583743D01*
X86953192Y-90768513D01*
X86949340Y-90796409D01*
X86938007Y-90818883D01*
X86921571Y-90833785D01*
X86899524Y-90842802D01*
X86876500Y-90845327D01*
G37*
G36*
X85647689Y-89679443D02*
G01*
X85707179Y-89691230D01*
X85753829Y-89708506D01*
X85794299Y-89732175D01*
X85826872Y-89760390D01*
X85854072Y-89794358D01*
X85892934Y-89880868D01*
X85910995Y-90000634D01*
X85911741Y-90034930D01*
X85911741Y-91660000D01*
X85741625Y-91660000D01*
X85741625Y-91094455D01*
X85259368Y-91094455D01*
X85259368Y-91660000D01*
X85086322Y-91660000D01*
X85086322Y-90398974D01*
X85259368Y-90398974D01*
X85259368Y-90599497D01*
X85741625Y-90599497D01*
X85741625Y-90398974D01*
X85737686Y-90338243D01*
X85725738Y-90286605D01*
X85708967Y-90249414D01*
X85686043Y-90218649D01*
X85626042Y-90177851D01*
X85538782Y-90158030D01*
X85499092Y-90156441D01*
X85439327Y-90160380D01*
X85388402Y-90172328D01*
X85351579Y-90189143D01*
X85321075Y-90212138D01*
X85280506Y-90272489D01*
X85260865Y-90360380D01*
X85259368Y-90398974D01*
X85086322Y-90398974D01*
X85086322Y-90034930D01*
X85090241Y-89959845D01*
X85102041Y-89893699D01*
X85119194Y-89842363D01*
X85142670Y-89797993D01*
X85170089Y-89763074D01*
X85203007Y-89734055D01*
X85284396Y-89693910D01*
X85393911Y-89676100D01*
X85420690Y-89675526D01*
X85580303Y-89675526D01*
X85647689Y-89679443D01*
G37*
G36*
X89690910Y-88660000D02*
G01*
X89312944Y-88660000D01*
X89284991Y-88656176D01*
X89262342Y-88645043D01*
X89246672Y-88628584D01*
X89236771Y-88606655D01*
X89233443Y-88586360D01*
X89056734Y-86692257D01*
X89232466Y-86692257D01*
X89358862Y-87913838D01*
X89369987Y-87976162D01*
X89387885Y-88024746D01*
X89407098Y-88053592D01*
X89431091Y-88074321D01*
X89487999Y-88091824D01*
X89500523Y-88092257D01*
X89537451Y-88088317D01*
X89568514Y-88076368D01*
X89610314Y-88034682D01*
X89637614Y-87960422D01*
X89644993Y-87913838D01*
X89768579Y-86692257D01*
X89944434Y-86692257D01*
X89770411Y-88586360D01*
X89764893Y-88613412D01*
X89752541Y-88634735D01*
X89712786Y-88657741D01*
X89690910Y-88660000D01*
G37*
G36*
X88596617Y-87471702D02*
G01*
X88619056Y-87483035D01*
X88633921Y-87499468D01*
X88642910Y-87521510D01*
X88645429Y-87544542D01*
X88645429Y-87807714D01*
X88641647Y-87834394D01*
X88630808Y-87856174D01*
X88614417Y-87871790D01*
X88592867Y-87881465D01*
X88568736Y-87884528D01*
X88403506Y-87884528D01*
X88375681Y-87880679D01*
X88353273Y-87869361D01*
X88338382Y-87852922D01*
X88329362Y-87830883D01*
X88326814Y-87807714D01*
X88326814Y-87544542D01*
X88330666Y-87516661D01*
X88341999Y-87494222D01*
X88358432Y-87479358D01*
X88380473Y-87470369D01*
X88403506Y-87467850D01*
X88568736Y-87467850D01*
X88596617Y-87471702D01*
G37*
G36*
X88623377Y-86679387D02*
G01*
X88676337Y-86690780D01*
X88723047Y-86708736D01*
X88764916Y-86733239D01*
X88801017Y-86763419D01*
X88831863Y-86799418D01*
X88876730Y-86888232D01*
X88897053Y-87000244D01*
X88897365Y-87006842D01*
X88908600Y-87676189D01*
X88897365Y-88345537D01*
X88891015Y-88406499D01*
X88877400Y-88462054D01*
X88857627Y-88510407D01*
X88831688Y-88553149D01*
X88800691Y-88589237D01*
X88764402Y-88619465D01*
X88677462Y-88661249D01*
X88571001Y-88676824D01*
X88565928Y-88676852D01*
X88406315Y-88676852D01*
X88348892Y-88672992D01*
X88295954Y-88661601D01*
X88249244Y-88643644D01*
X88207371Y-88619141D01*
X88171249Y-88588953D01*
X88140382Y-88552947D01*
X88095456Y-88464108D01*
X88075069Y-88352087D01*
X88074755Y-88345537D01*
X88063642Y-87676189D01*
X88228262Y-87676189D01*
X88233879Y-87967205D01*
X88239878Y-88024716D01*
X88253698Y-88073430D01*
X88271891Y-88108154D01*
X88296194Y-88136756D01*
X88359786Y-88174627D01*
X88453716Y-88192157D01*
X88484717Y-88193007D01*
X88487526Y-88193007D01*
X88552216Y-88189064D01*
X88606447Y-88177094D01*
X88644484Y-88160555D01*
X88675660Y-88137998D01*
X88716462Y-88079371D01*
X88736682Y-87993518D01*
X88738363Y-87967205D01*
X88741172Y-87676189D01*
X88738363Y-87385052D01*
X88732318Y-87327520D01*
X88718459Y-87278792D01*
X88700237Y-87244060D01*
X88675909Y-87215456D01*
X88612284Y-87177594D01*
X88518341Y-87160091D01*
X88487526Y-87159249D01*
X88484717Y-87159249D01*
X88420838Y-87163192D01*
X88366937Y-87175163D01*
X88328730Y-87191796D01*
X88297270Y-87214506D01*
X88255917Y-87273519D01*
X88235515Y-87359298D01*
X88233879Y-87385052D01*
X88228262Y-87676189D01*
X88063642Y-87676189D01*
X88074755Y-87006842D01*
X88081142Y-86945832D01*
X88094791Y-86890247D01*
X88114589Y-86841888D01*
X88140550Y-86799148D01*
X88171562Y-86763072D01*
X88207860Y-86732859D01*
X88294818Y-86691106D01*
X88401314Y-86675554D01*
X88406315Y-86675526D01*
X88565928Y-86675526D01*
X88623377Y-86679387D01*
G37*
G36*
X89839203Y-83696109D02*
G01*
X89861642Y-83707442D01*
X89876507Y-83723875D01*
X89885496Y-83745916D01*
X89888014Y-83768949D01*
X89888014Y-85660000D01*
X89712281Y-85660000D01*
X89712281Y-85094455D01*
X89478175Y-85094455D01*
X89408614Y-85090537D01*
X89347949Y-85078740D01*
X89301359Y-85061653D01*
X89261260Y-85038288D01*
X89229180Y-85010458D01*
X89202472Y-84976967D01*
X89163745Y-84890624D01*
X89143806Y-84760453D01*
X89138497Y-84393769D01*
X89318257Y-84393769D01*
X89322286Y-84483405D01*
X89322470Y-84485436D01*
X89331461Y-84530996D01*
X89348996Y-84564415D01*
X89367801Y-84581193D01*
X89392690Y-84592424D01*
X89450209Y-84599497D01*
X89712281Y-84599497D01*
X89712281Y-84192833D01*
X89450209Y-84192833D01*
X89404925Y-84196805D01*
X89371055Y-84208980D01*
X89351303Y-84224752D01*
X89337074Y-84246136D01*
X89322470Y-84304085D01*
X89318257Y-84393769D01*
X89138497Y-84393769D01*
X89136564Y-84260267D01*
X89143806Y-84026381D01*
X89151600Y-83950751D01*
X89167149Y-83884986D01*
X89186817Y-83836716D01*
X89212680Y-83795485D01*
X89241919Y-83763953D01*
X89276742Y-83738203D01*
X89363340Y-83704038D01*
X89478175Y-83692257D01*
X89811322Y-83692257D01*
X89839203Y-83696109D01*
G37*
G36*
X88691931Y-83679443D02*
G01*
X88751422Y-83691230D01*
X88798071Y-83708506D01*
X88838542Y-83732175D01*
X88871115Y-83760390D01*
X88898315Y-83794358D01*
X88937177Y-83880868D01*
X88955238Y-84000634D01*
X88955983Y-84034930D01*
X88955983Y-85660000D01*
X88785868Y-85660000D01*
X88785868Y-85094455D01*
X88303611Y-85094455D01*
X88303611Y-85660000D01*
X88130565Y-85660000D01*
X88130565Y-84398974D01*
X88303611Y-84398974D01*
X88303611Y-84599497D01*
X88785868Y-84599497D01*
X88785868Y-84398974D01*
X88781928Y-84338243D01*
X88769981Y-84286605D01*
X88753210Y-84249414D01*
X88730286Y-84218649D01*
X88670285Y-84177851D01*
X88583025Y-84158030D01*
X88543335Y-84156441D01*
X88483570Y-84160380D01*
X88432645Y-84172328D01*
X88395821Y-84189143D01*
X88365318Y-84212138D01*
X88324749Y-84272489D01*
X88305108Y-84360380D01*
X88303611Y-84398974D01*
X88130565Y-84398974D01*
X88130565Y-84034930D01*
X88134484Y-83959845D01*
X88146283Y-83893699D01*
X88163437Y-83842363D01*
X88186913Y-83797993D01*
X88214332Y-83763074D01*
X88247249Y-83734055D01*
X88328639Y-83693910D01*
X88438153Y-83676100D01*
X88464933Y-83675526D01*
X88624546Y-83675526D01*
X88691931Y-83679443D01*
G37*
G36*
X87865721Y-83696109D02*
G01*
X87888160Y-83707442D01*
X87903025Y-83723875D01*
X87912014Y-83745916D01*
X87914532Y-83768949D01*
X87914532Y-85660000D01*
X87738799Y-85660000D01*
X87738799Y-85094455D01*
X87661496Y-85094455D01*
X87630717Y-85098454D01*
X87608197Y-85110812D01*
X87586880Y-85152951D01*
X87550610Y-85362756D01*
X87535968Y-85431662D01*
X87514789Y-85491361D01*
X87490218Y-85537068D01*
X87460305Y-85575489D01*
X87427347Y-85604949D01*
X87389609Y-85628078D01*
X87299410Y-85655532D01*
X87235903Y-85660000D01*
X87168736Y-85660000D01*
X87142057Y-85656218D01*
X87120277Y-85645379D01*
X87104661Y-85628988D01*
X87094985Y-85607438D01*
X87091922Y-85583307D01*
X87091922Y-85252969D01*
X87095702Y-85226352D01*
X87106531Y-85204631D01*
X87122925Y-85189034D01*
X87144470Y-85179363D01*
X87168736Y-85176277D01*
X87322732Y-85176277D01*
X87353458Y-85172278D01*
X87375989Y-85159919D01*
X87397348Y-85117780D01*
X87407606Y-85063070D01*
X87351667Y-85051887D01*
X87300384Y-85033653D01*
X87255024Y-85009285D01*
X87214547Y-84978672D01*
X87149335Y-84900026D01*
X87105528Y-84797423D01*
X87086427Y-84676434D01*
X87078000Y-84351346D01*
X87078219Y-84342920D01*
X87270586Y-84342920D01*
X87270586Y-84455027D01*
X87274462Y-84502252D01*
X87285966Y-84541035D01*
X87302211Y-84568282D01*
X87324065Y-84589296D01*
X87382581Y-84612875D01*
X87423482Y-84616228D01*
X87501884Y-84616228D01*
X87738799Y-84616228D01*
X87738799Y-84190024D01*
X87423482Y-84190024D01*
X87378271Y-84193968D01*
X87340671Y-84205946D01*
X87314851Y-84222610D01*
X87294814Y-84245371D01*
X87272963Y-84307137D01*
X87270586Y-84342920D01*
X87078219Y-84342920D01*
X87086427Y-84026381D01*
X87093689Y-83964175D01*
X87108208Y-83907453D01*
X87128734Y-83858422D01*
X87155437Y-83815095D01*
X87186943Y-83778864D01*
X87223766Y-83748558D01*
X87311302Y-83707184D01*
X87418340Y-83692263D01*
X87420673Y-83692257D01*
X87837840Y-83692257D01*
X87865721Y-83696109D01*
G37*
G36*
X86827651Y-85660000D02*
G01*
X86323656Y-85660000D01*
X86296990Y-85656218D01*
X86275242Y-85645379D01*
X86259665Y-85628993D01*
X86250019Y-85607449D01*
X86246964Y-85583307D01*
X86246964Y-85236116D01*
X86250745Y-85209450D01*
X86261585Y-85187702D01*
X86277971Y-85172125D01*
X86299514Y-85162479D01*
X86323656Y-85159424D01*
X86728611Y-85159424D01*
X86728611Y-83692257D01*
X86904344Y-83692257D01*
X86904344Y-85583307D01*
X86900491Y-85611188D01*
X86889159Y-85633627D01*
X86872726Y-85648492D01*
X86850684Y-85657481D01*
X86827651Y-85660000D01*
G37*
G36*
X85823543Y-83679443D02*
G01*
X85883034Y-83691230D01*
X85929683Y-83708506D01*
X85970154Y-83732175D01*
X86002727Y-83760390D01*
X86029927Y-83794358D01*
X86068789Y-83880868D01*
X86086850Y-84000634D01*
X86087595Y-84034930D01*
X86087595Y-85660000D01*
X85917480Y-85660000D01*
X85917480Y-85094455D01*
X85435223Y-85094455D01*
X85435223Y-85660000D01*
X85262177Y-85660000D01*
X85262177Y-84398974D01*
X85435223Y-84398974D01*
X85435223Y-84599497D01*
X85917480Y-84599497D01*
X85917480Y-84398974D01*
X85913540Y-84338243D01*
X85901593Y-84286605D01*
X85884822Y-84249414D01*
X85861898Y-84218649D01*
X85801897Y-84177851D01*
X85714637Y-84158030D01*
X85674947Y-84156441D01*
X85615182Y-84160380D01*
X85564257Y-84172328D01*
X85527433Y-84189143D01*
X85496930Y-84212138D01*
X85456361Y-84272489D01*
X85436720Y-84360380D01*
X85435223Y-84398974D01*
X85262177Y-84398974D01*
X85262177Y-84034930D01*
X85266096Y-83959845D01*
X85277895Y-83893699D01*
X85295049Y-83842363D01*
X85318525Y-83797993D01*
X85345944Y-83763074D01*
X85378861Y-83734055D01*
X85460251Y-83693910D01*
X85569765Y-83676100D01*
X85596545Y-83675526D01*
X85756158Y-83675526D01*
X85823543Y-83679443D01*
G37*
G36*
X84969452Y-84845327D02*
G01*
X84297540Y-84845327D01*
X84270909Y-84841547D01*
X84249157Y-84830718D01*
X84233521Y-84814320D01*
X84223819Y-84792769D01*
X84220725Y-84768513D01*
X84220725Y-84583743D01*
X84224505Y-84557126D01*
X84235335Y-84535406D01*
X84251728Y-84519809D01*
X84273273Y-84510137D01*
X84297540Y-84507051D01*
X84969452Y-84507051D01*
X84996118Y-84510833D01*
X85017866Y-84521672D01*
X85033443Y-84538058D01*
X85043089Y-84559601D01*
X85046144Y-84583743D01*
X85046144Y-84768513D01*
X85042292Y-84796409D01*
X85030959Y-84818883D01*
X85014523Y-84833785D01*
X84992476Y-84842802D01*
X84969452Y-84845327D01*
G37*
G36*
X83928000Y-85660000D02*
G01*
X83424005Y-85660000D01*
X83397339Y-85656218D01*
X83375591Y-85645379D01*
X83360014Y-85628993D01*
X83350368Y-85607449D01*
X83347313Y-85583307D01*
X83347313Y-85236116D01*
X83351094Y-85209450D01*
X83361933Y-85187702D01*
X83378320Y-85172125D01*
X83399863Y-85162479D01*
X83424005Y-85159424D01*
X83828960Y-85159424D01*
X83828960Y-83692257D01*
X84004692Y-83692257D01*
X84004692Y-85583307D01*
X84000840Y-85611188D01*
X83989508Y-85633627D01*
X83973075Y-85648492D01*
X83951033Y-85657481D01*
X83928000Y-85660000D01*
G37*
G36*
X83153262Y-85660000D02*
G01*
X82484036Y-85660000D01*
X82455089Y-85656151D01*
X82432633Y-85644842D01*
X82409882Y-85607268D01*
X82407344Y-85583307D01*
X82407344Y-85236116D01*
X82411190Y-85207226D01*
X82422475Y-85184798D01*
X82460023Y-85161984D01*
X82484036Y-85159424D01*
X82734996Y-85159424D01*
X82734996Y-84192833D01*
X82484036Y-84192833D01*
X82455089Y-84188984D01*
X82432633Y-84177675D01*
X82409882Y-84140101D01*
X82407344Y-84116140D01*
X82407344Y-83768949D01*
X82411190Y-83740010D01*
X82422475Y-83717580D01*
X82459985Y-83694816D01*
X82484036Y-83692257D01*
X83153262Y-83692257D01*
X83182258Y-83696106D01*
X83204716Y-83707415D01*
X83227417Y-83744951D01*
X83229954Y-83768949D01*
X83229954Y-84116140D01*
X83226106Y-84145137D01*
X83214797Y-84167594D01*
X83177260Y-84190296D01*
X83153262Y-84192833D01*
X82908042Y-84192833D01*
X82908042Y-85159424D01*
X83153262Y-85159424D01*
X83182201Y-85163269D01*
X83204631Y-85174554D01*
X83227395Y-85212065D01*
X83229954Y-85236116D01*
X83229954Y-85583307D01*
X83226106Y-85612303D01*
X83214797Y-85634761D01*
X83177260Y-85657463D01*
X83153262Y-85660000D01*
G37*
G36*
X82234420Y-83768949D02*
G01*
X82234420Y-85660000D01*
X82058688Y-85660000D01*
X82055879Y-84190024D01*
X81973569Y-84190024D01*
X81803332Y-85589413D01*
X81795798Y-85618046D01*
X81781495Y-85639408D01*
X81740032Y-85658886D01*
X81723709Y-85660000D01*
X81466154Y-85660000D01*
X81438273Y-85656147D01*
X81415834Y-85644815D01*
X81400970Y-85628382D01*
X81391981Y-85606340D01*
X81389462Y-85583307D01*
X81389462Y-83692257D01*
X81565317Y-83692257D01*
X81565317Y-85037302D01*
X81569565Y-85071131D01*
X81583666Y-85088769D01*
X81600610Y-85092257D01*
X81618459Y-85088262D01*
X81630499Y-85075927D01*
X81641399Y-85036814D01*
X81809438Y-83762843D01*
X81816988Y-83734185D01*
X81831327Y-83712791D01*
X81872843Y-83693344D01*
X81888939Y-83692257D01*
X82157728Y-83692257D01*
X82185609Y-83696109D01*
X82208048Y-83707442D01*
X82222913Y-83723875D01*
X82231902Y-83745916D01*
X82234420Y-83768949D01*
G37*
G36*
X81096737Y-85660000D02*
G01*
X80489183Y-85660000D01*
X80461302Y-85656147D01*
X80438863Y-85644815D01*
X80423998Y-85628382D01*
X80415009Y-85606340D01*
X80412491Y-85583307D01*
X80412491Y-85238925D01*
X80416272Y-85212259D01*
X80427111Y-85190511D01*
X80443498Y-85174934D01*
X80465041Y-85165288D01*
X80489183Y-85162233D01*
X81003314Y-85162233D01*
X81003314Y-85010436D01*
X80618021Y-85010436D01*
X80591355Y-85006654D01*
X80569607Y-84995815D01*
X80554030Y-84979429D01*
X80544384Y-84957885D01*
X80541329Y-84933743D01*
X80541329Y-84592170D01*
X80545110Y-84565504D01*
X80555950Y-84543756D01*
X80572336Y-84528179D01*
X80593879Y-84518533D01*
X80618021Y-84515478D01*
X81003314Y-84515478D01*
X81003314Y-84190024D01*
X80500418Y-84190024D01*
X80472537Y-84186172D01*
X80450098Y-84174839D01*
X80435233Y-84158406D01*
X80426244Y-84136364D01*
X80423726Y-84113332D01*
X80423726Y-83768949D01*
X80427578Y-83741068D01*
X80438911Y-83718629D01*
X80455344Y-83703764D01*
X80477385Y-83694775D01*
X80500418Y-83692257D01*
X81096737Y-83692257D01*
X81124618Y-83696109D01*
X81147057Y-83707442D01*
X81161922Y-83723875D01*
X81170911Y-83745916D01*
X81173429Y-83768949D01*
X81173429Y-85583307D01*
X81169648Y-85609973D01*
X81158809Y-85631721D01*
X81142423Y-85647298D01*
X81120879Y-85656944D01*
X81096737Y-85660000D01*
G37*
G36*
X79975393Y-83679443D02*
G01*
X80034883Y-83691230D01*
X80081533Y-83708506D01*
X80122003Y-83732175D01*
X80154576Y-83760390D01*
X80181776Y-83794358D01*
X80220638Y-83880868D01*
X80238699Y-84000634D01*
X80239445Y-84034930D01*
X80239445Y-85660000D01*
X80069330Y-85660000D01*
X80069330Y-85094455D01*
X79587072Y-85094455D01*
X79587072Y-85660000D01*
X79414026Y-85660000D01*
X79414026Y-84398974D01*
X79587072Y-84398974D01*
X79587072Y-84599497D01*
X80069330Y-84599497D01*
X80069330Y-84398974D01*
X80065390Y-84338243D01*
X80053442Y-84286605D01*
X80036671Y-84249414D01*
X80013747Y-84218649D01*
X79953747Y-84177851D01*
X79866486Y-84158030D01*
X79826796Y-84156441D01*
X79767031Y-84160380D01*
X79716106Y-84172328D01*
X79679283Y-84189143D01*
X79648779Y-84212138D01*
X79608210Y-84272489D01*
X79588569Y-84360380D01*
X79587072Y-84398974D01*
X79414026Y-84398974D01*
X79414026Y-84034930D01*
X79417945Y-83959845D01*
X79429745Y-83893699D01*
X79446899Y-83842363D01*
X79470374Y-83797993D01*
X79497794Y-83763074D01*
X79530711Y-83734055D01*
X79612100Y-83693910D01*
X79721615Y-83676100D01*
X79748394Y-83675526D01*
X79908007Y-83675526D01*
X79975393Y-83679443D01*
G37*
D11*
G36*
X71545698Y-60602392D02*
G01*
X71555952Y-60659617D01*
X71562990Y-60717983D01*
X71566729Y-60777342D01*
X71567066Y-60837548D01*
X71563915Y-60898484D01*
X71557177Y-60960009D01*
X71546756Y-61021988D01*
X71532562Y-61084292D01*
X71514493Y-61146795D01*
X71496916Y-61198025D01*
X71477747Y-61246879D01*
X71456988Y-61293371D01*
X71434632Y-61337481D01*
X71410697Y-61379221D01*
X71385162Y-61418583D01*
X71358044Y-61455577D01*
X71329329Y-61490196D01*
X71299028Y-61522446D01*
X71267129Y-61552318D01*
X71233651Y-61579831D01*
X71198576Y-61604969D01*
X71161909Y-61627729D01*
X71123639Y-61648122D01*
X71083792Y-61666148D01*
X71042345Y-61681794D01*
X71042351Y-61681794D01*
X71005009Y-61693720D01*
X70967396Y-61704064D01*
X70929596Y-61712834D01*
X70891666Y-61720053D01*
X70853654Y-61725738D01*
X70815632Y-61729917D01*
X70777687Y-61732584D01*
X70739852Y-61733793D01*
X70702200Y-61733544D01*
X70664808Y-61731860D01*
X70627711Y-61728762D01*
X70590996Y-61724272D01*
X70554731Y-61718400D01*
X70518965Y-61711176D01*
X70483763Y-61702619D01*
X70449197Y-61692738D01*
X70415316Y-61681561D01*
X70382211Y-61669110D01*
X70349918Y-61655397D01*
X70318503Y-61640457D01*
X70288053Y-61624277D01*
X70258616Y-61606921D01*
X70230254Y-61588370D01*
X70203030Y-61568660D01*
X70177018Y-61547814D01*
X70152267Y-61525851D01*
X70128851Y-61502782D01*
X70106841Y-61478636D01*
X70086287Y-61453424D01*
X70067248Y-61427161D01*
X70049805Y-61399885D01*
X70034023Y-61371610D01*
X69936342Y-61183544D01*
X70122061Y-61183544D01*
X70147201Y-61183799D01*
X70170388Y-61184577D01*
X70181292Y-61185180D01*
X70191725Y-61185925D01*
X70201713Y-61186829D01*
X70211274Y-61187873D01*
X70220421Y-61189067D01*
X70229121Y-61190437D01*
X70237432Y-61191954D01*
X70245344Y-61193654D01*
X70252863Y-61195518D01*
X70260017Y-61197572D01*
X70266786Y-61199787D01*
X70273209Y-61202186D01*
X70279286Y-61204778D01*
X70285032Y-61207571D01*
X70290428Y-61210549D01*
X70295519Y-61213722D01*
X70300301Y-61217100D01*
X70304790Y-61220696D01*
X70308981Y-61224492D01*
X70312890Y-61228501D01*
X70316537Y-61232740D01*
X70319921Y-61237194D01*
X70323059Y-61241883D01*
X70325954Y-61246791D01*
X70328622Y-61251937D01*
X70331069Y-61257331D01*
X70333312Y-61262955D01*
X70335336Y-61268832D01*
X70338936Y-61278560D01*
X70343391Y-61288174D01*
X70348655Y-61297660D01*
X70354724Y-61307006D01*
X70369139Y-61325240D01*
X70386424Y-61342752D01*
X70406369Y-61359466D01*
X70428732Y-61375279D01*
X70453316Y-61390063D01*
X70479902Y-61403735D01*
X70508265Y-61416190D01*
X70538185Y-61427314D01*
X70569462Y-61436997D01*
X70601861Y-61445160D01*
X70635182Y-61451697D01*
X70669194Y-61456485D01*
X70703684Y-61459440D01*
X70738428Y-61460445D01*
X70756118Y-61459836D01*
X70774033Y-61458020D01*
X70792122Y-61455065D01*
X70810351Y-61450997D01*
X70828662Y-61445860D01*
X70846997Y-61439719D01*
X70865321Y-61432596D01*
X70883567Y-61424549D01*
X70901698Y-61415613D01*
X70919665Y-61405833D01*
X70954918Y-61383940D01*
X70988909Y-61359227D01*
X71021247Y-61332041D01*
X71051548Y-61302733D01*
X71079415Y-61271656D01*
X71092306Y-61255565D01*
X71104448Y-61239169D01*
X71115781Y-61222532D01*
X71126249Y-61205662D01*
X71135821Y-61188613D01*
X71144441Y-61171441D01*
X71152057Y-61154184D01*
X71158622Y-61136881D01*
X71164083Y-61119574D01*
X71168388Y-61102335D01*
X71171494Y-61085181D01*
X71173349Y-61068167D01*
X71183296Y-60929723D01*
X70560765Y-60916842D01*
X69938238Y-60903966D01*
X69938238Y-60740802D01*
X69939150Y-60702121D01*
X69941847Y-60663756D01*
X69946261Y-60625736D01*
X69952395Y-60588117D01*
X69957633Y-60563104D01*
X70314110Y-60563104D01*
X70315173Y-60599876D01*
X70317381Y-60614814D01*
X70321502Y-60627657D01*
X70328117Y-60638543D01*
X70332537Y-60643322D01*
X70337809Y-60647667D01*
X70351188Y-60655174D01*
X70368818Y-60661206D01*
X70391307Y-60665937D01*
X70419247Y-60669534D01*
X70453215Y-60672139D01*
X70493808Y-60673918D01*
X70597215Y-60675622D01*
X70734184Y-60675892D01*
X70777112Y-60675685D01*
X70819116Y-60675039D01*
X70899391Y-60672563D01*
X70937209Y-60670789D01*
X70973187Y-60668658D01*
X71007086Y-60666214D01*
X71038675Y-60663482D01*
X71067733Y-60660474D01*
X71094018Y-60657219D01*
X71117314Y-60653733D01*
X71137380Y-60650033D01*
X71154007Y-60646163D01*
X71166953Y-60642114D01*
X71171955Y-60640033D01*
X71175972Y-60637933D01*
X71178951Y-60635783D01*
X71180859Y-60633624D01*
X71183343Y-60628761D01*
X71185353Y-60622936D01*
X71186854Y-60616219D01*
X71187880Y-60608708D01*
X71188437Y-60600457D01*
X71188523Y-60591562D01*
X71188152Y-60582096D01*
X71187332Y-60572122D01*
X71186071Y-60561727D01*
X71184374Y-60550987D01*
X71182254Y-60539979D01*
X71179713Y-60528795D01*
X71176765Y-60517473D01*
X71173415Y-60506133D01*
X71169665Y-60494816D01*
X71165537Y-60483626D01*
X71153445Y-60455374D01*
X71139731Y-60428406D01*
X71124498Y-60402760D01*
X71107829Y-60378460D01*
X71089804Y-60355507D01*
X71070538Y-60333931D01*
X71050092Y-60313759D01*
X71028588Y-60295005D01*
X71006094Y-60277681D01*
X70982714Y-60261822D01*
X70958519Y-60247439D01*
X70933630Y-60234555D01*
X70908117Y-60223184D01*
X70882069Y-60213361D01*
X70855604Y-60205073D01*
X70828770Y-60198380D01*
X70801686Y-60193276D01*
X70774440Y-60189794D01*
X70747123Y-60187942D01*
X70719819Y-60187747D01*
X70692626Y-60189229D01*
X70665628Y-60192419D01*
X70638929Y-60197304D01*
X70612601Y-60203931D01*
X70586745Y-60212323D01*
X70561450Y-60222483D01*
X70536812Y-60234436D01*
X70512919Y-60248227D01*
X70489848Y-60263819D01*
X70467714Y-60281286D01*
X70446590Y-60300630D01*
X70426587Y-60321861D01*
X70415123Y-60335531D01*
X70403995Y-60349964D01*
X70393231Y-60365041D01*
X70382917Y-60380631D01*
X70373083Y-60396619D01*
X70363811Y-60412882D01*
X70355152Y-60429280D01*
X70347144Y-60445699D01*
X70339878Y-60462026D01*
X70333387Y-60478133D01*
X70327739Y-60493879D01*
X70322987Y-60509166D01*
X70319188Y-60523843D01*
X70316408Y-60537818D01*
X70314700Y-60550937D01*
X70314110Y-60563104D01*
X69957633Y-60563104D01*
X69960178Y-60550951D01*
X69969569Y-60514281D01*
X69980525Y-60478184D01*
X69993018Y-60442692D01*
X70006994Y-60407860D01*
X70022418Y-60373720D01*
X70039239Y-60340336D01*
X70057417Y-60307783D01*
X70076907Y-60276067D01*
X70097665Y-60245278D01*
X70119660Y-60215431D01*
X70142837Y-60186614D01*
X70167167Y-60158857D01*
X70192596Y-60132210D01*
X70219083Y-60106716D01*
X70246592Y-60082443D01*
X70275066Y-60059426D01*
X70304481Y-60037730D01*
X70334778Y-60017409D01*
X70365925Y-59998510D01*
X70397873Y-59981064D01*
X70430590Y-59965130D01*
X70464029Y-59950781D01*
X70498134Y-59938032D01*
X70532881Y-59926963D01*
X70568214Y-59917616D01*
X70604105Y-59910043D01*
X70640498Y-59904285D01*
X70698591Y-59898714D01*
X70755652Y-59897340D01*
X70811569Y-59900048D01*
X70866264Y-59906674D01*
X70919612Y-59917111D01*
X70971548Y-59931214D01*
X71021964Y-59948839D01*
X71070775Y-59969876D01*
X71117871Y-59994178D01*
X71163186Y-60021608D01*
X71206588Y-60052032D01*
X71248020Y-60085330D01*
X71287372Y-60121353D01*
X71324544Y-60159980D01*
X71359442Y-60201067D01*
X71391995Y-60244488D01*
X71422071Y-60290090D01*
X71449601Y-60337771D01*
X71474491Y-60387370D01*
X71496635Y-60438769D01*
X71515955Y-60491823D01*
X71532341Y-60546404D01*
X71543120Y-60591562D01*
X71545698Y-60602392D01*
G37*
G36*
X74119742Y-62798152D02*
G01*
X74119236Y-62937944D01*
X74117543Y-63063503D01*
X74114417Y-63175734D01*
X74112227Y-63227138D01*
X74109577Y-63275553D01*
X74106444Y-63321085D01*
X74102786Y-63363861D01*
X74098570Y-63403991D01*
X74093761Y-63441580D01*
X74088348Y-63476748D01*
X74082278Y-63509610D01*
X74075521Y-63540293D01*
X74068053Y-63568882D01*
X74059825Y-63595500D01*
X74050824Y-63620277D01*
X74041012Y-63643314D01*
X74030339Y-63664715D01*
X74018804Y-63684621D01*
X74006349Y-63703129D01*
X73992963Y-63720345D01*
X73978598Y-63736400D01*
X73963221Y-63751391D01*
X73946804Y-63765441D01*
X73929305Y-63778668D01*
X73910719Y-63791183D01*
X73890993Y-63803098D01*
X73870092Y-63814523D01*
X73847991Y-63825568D01*
X73824658Y-63836371D01*
X73824658Y-63836378D01*
X73785557Y-63851460D01*
X73742010Y-63864039D01*
X73694752Y-63874142D01*
X73644593Y-63881813D01*
X73592283Y-63887096D01*
X73538565Y-63890034D01*
X73484266Y-63890651D01*
X73430103Y-63889002D01*
X73376876Y-63885128D01*
X73325350Y-63879057D01*
X73276281Y-63870833D01*
X73230449Y-63860496D01*
X73188630Y-63848081D01*
X73151583Y-63833630D01*
X73135091Y-63825660D01*
X73120075Y-63817190D01*
X73106641Y-63808242D01*
X73094890Y-63798804D01*
X73075527Y-63782024D01*
X73066417Y-63774448D01*
X73057664Y-63767424D01*
X73049278Y-63760933D01*
X73041248Y-63755002D01*
X73033581Y-63749603D01*
X73026254Y-63744748D01*
X73019274Y-63740443D01*
X73012642Y-63736677D01*
X73006352Y-63733465D01*
X73000388Y-63730779D01*
X72994763Y-63728648D01*
X72989463Y-63727060D01*
X72984477Y-63726011D01*
X72979807Y-63725504D01*
X72975462Y-63725539D01*
X72971429Y-63726121D01*
X72967694Y-63727243D01*
X72964268Y-63728901D01*
X72961133Y-63731101D01*
X72958292Y-63733848D01*
X72955745Y-63737129D01*
X72953477Y-63740963D01*
X72951498Y-63745320D01*
X72949788Y-63750232D01*
X72948362Y-63755673D01*
X72947200Y-63761664D01*
X72946299Y-63768192D01*
X72945670Y-63775248D01*
X72945293Y-63782862D01*
X72945162Y-63791001D01*
X72945021Y-63795274D01*
X72944615Y-63799399D01*
X72943919Y-63803390D01*
X72942963Y-63807263D01*
X72941714Y-63810982D01*
X72940195Y-63814569D01*
X72938395Y-63818011D01*
X72936321Y-63821338D01*
X72933977Y-63824512D01*
X72931342Y-63827557D01*
X72928439Y-63830462D01*
X72925256Y-63833239D01*
X72918050Y-63838371D01*
X72909755Y-63842966D01*
X72900333Y-63847016D01*
X72889801Y-63850525D01*
X72878156Y-63853496D01*
X72865393Y-63855919D01*
X72851514Y-63857809D01*
X72836522Y-63859153D01*
X72820409Y-63859967D01*
X72803175Y-63860236D01*
X72661187Y-63860236D01*
X72673975Y-62994920D01*
X72686760Y-62129612D01*
X72827705Y-62129612D01*
X72968658Y-62129612D01*
X72992148Y-62791424D01*
X72996158Y-62902116D01*
X73000000Y-63000000D01*
X73003812Y-63085992D01*
X73007761Y-63161024D01*
X73009853Y-63194721D01*
X73012031Y-63226015D01*
X73014330Y-63255034D01*
X73016765Y-63281880D01*
X73019371Y-63306673D01*
X73022144Y-63329545D01*
X73025122Y-63350579D01*
X73028332Y-63369921D01*
X73031775Y-63387676D01*
X73035484Y-63403950D01*
X73039477Y-63418861D01*
X73043773Y-63432528D01*
X73048389Y-63445067D01*
X73053360Y-63456592D01*
X73058691Y-63467213D01*
X73064407Y-63477058D01*
X73070535Y-63486225D01*
X73077082Y-63494846D01*
X73084093Y-63503027D01*
X73091553Y-63510875D01*
X73099525Y-63518525D01*
X73107997Y-63526075D01*
X73126555Y-63541357D01*
X73140174Y-63551610D01*
X73154351Y-63561199D01*
X73169069Y-63570122D01*
X73184278Y-63578391D01*
X73216024Y-63592933D01*
X73249300Y-63604845D01*
X73283776Y-63614096D01*
X73319176Y-63620709D01*
X73355185Y-63624680D01*
X73391485Y-63626004D01*
X73427785Y-63624688D01*
X73463801Y-63620726D01*
X73499201Y-63614113D01*
X73533686Y-63604864D01*
X73566956Y-63592967D01*
X73598716Y-63578425D01*
X73613923Y-63570165D01*
X73628642Y-63561235D01*
X73642831Y-63551659D01*
X73656450Y-63541400D01*
X73691440Y-63510935D01*
X73705917Y-63494915D01*
X73718596Y-63477127D01*
X73729640Y-63456670D01*
X73739235Y-63432615D01*
X73747523Y-63404031D01*
X73754670Y-63370013D01*
X73760857Y-63329630D01*
X73766230Y-63281961D01*
X73775243Y-63161107D01*
X73783005Y-63000062D01*
X73790860Y-62791469D01*
X73814348Y-62129607D01*
X73967045Y-62115146D01*
X74119742Y-62100696D01*
X74119742Y-62798152D01*
G37*
G36*
X82002682Y-63675625D02*
G01*
X82005727Y-64087221D01*
X82005523Y-64273425D01*
X82004232Y-64440300D01*
X82001904Y-64583152D01*
X81998609Y-64697306D01*
X81994394Y-64778027D01*
X81991970Y-64804386D01*
X81989310Y-64820637D01*
X81989310Y-64820646D01*
X81985075Y-64836344D01*
X81980479Y-64850409D01*
X81975454Y-64862915D01*
X81969826Y-64873916D01*
X81966764Y-64878893D01*
X81963509Y-64883495D01*
X81960041Y-64887772D01*
X81956353Y-64891712D01*
X81952420Y-64895320D01*
X81948237Y-64898622D01*
X81943771Y-64901612D01*
X81939032Y-64904295D01*
X81934001Y-64906690D01*
X81928648Y-64908793D01*
X81922956Y-64910632D01*
X81916920Y-64912190D01*
X81910516Y-64913496D01*
X81903737Y-64914549D01*
X81888970Y-64915913D01*
X81872516Y-64916375D01*
X81854210Y-64915998D01*
X81833955Y-64914826D01*
X81811620Y-64912942D01*
X81660532Y-64898607D01*
X81646753Y-64538398D01*
X81632980Y-64178207D01*
X81482319Y-64269574D01*
X81453428Y-64286489D01*
X81425151Y-64301783D01*
X81397209Y-64315517D01*
X81369319Y-64327722D01*
X81341221Y-64338458D01*
X81312631Y-64347782D01*
X81283261Y-64355748D01*
X81252873Y-64362409D01*
X81221155Y-64367816D01*
X81187854Y-64372022D01*
X81152701Y-64375084D01*
X81115398Y-64377048D01*
X81075684Y-64377979D01*
X81033301Y-64377920D01*
X80987931Y-64376926D01*
X80939337Y-64375056D01*
X80896063Y-64370684D01*
X80853943Y-64361707D01*
X80813044Y-64348322D01*
X80773464Y-64330735D01*
X80735236Y-64309147D01*
X80698446Y-64283755D01*
X80663134Y-64254770D01*
X80629424Y-64222404D01*
X80597328Y-64186833D01*
X80566930Y-64148272D01*
X80538305Y-64106929D01*
X80511510Y-64063014D01*
X80463736Y-63968222D01*
X80424094Y-63865540D01*
X80393177Y-63756572D01*
X80371465Y-63642938D01*
X80359544Y-63526270D01*
X80359236Y-63503388D01*
X80704318Y-63503388D01*
X80707471Y-63572222D01*
X80715064Y-63639862D01*
X80727079Y-63705459D01*
X80743511Y-63768097D01*
X80764330Y-63826935D01*
X80776384Y-63854660D01*
X80789545Y-63881098D01*
X80803791Y-63906147D01*
X80819122Y-63929707D01*
X80835555Y-63951653D01*
X80853084Y-63971884D01*
X80871965Y-63991173D01*
X80891187Y-64009025D01*
X80910767Y-64025449D01*
X80930635Y-64040441D01*
X80950812Y-64054015D01*
X80971211Y-64066164D01*
X80991879Y-64076894D01*
X81012752Y-64086206D01*
X81033810Y-64094101D01*
X81055014Y-64100593D01*
X81076392Y-64105675D01*
X81097873Y-64109357D01*
X81119439Y-64111633D01*
X81141070Y-64112507D01*
X81162743Y-64111992D01*
X81184439Y-64110084D01*
X81206144Y-64106780D01*
X81227787Y-64102097D01*
X81249397Y-64096026D01*
X81270913Y-64088574D01*
X81292339Y-64079742D01*
X81313638Y-64069539D01*
X81334780Y-64057958D01*
X81355751Y-64045011D01*
X81376518Y-64030698D01*
X81397069Y-64015019D01*
X81417351Y-63997979D01*
X81437392Y-63979583D01*
X81457108Y-63959841D01*
X81476521Y-63938734D01*
X81495578Y-63916277D01*
X81514273Y-63892482D01*
X81525058Y-63876989D01*
X81535271Y-63859912D01*
X81553840Y-63821419D01*
X81569969Y-63777798D01*
X81583617Y-63729833D01*
X81594789Y-63678300D01*
X81603403Y-63623986D01*
X81609469Y-63567674D01*
X81612929Y-63510147D01*
X81613785Y-63452186D01*
X81611998Y-63394595D01*
X81607523Y-63338131D01*
X81600345Y-63283604D01*
X81590424Y-63231773D01*
X81577752Y-63183431D01*
X81562255Y-63139367D01*
X81543945Y-63100364D01*
X81529362Y-63075423D01*
X81513567Y-63051830D01*
X81496618Y-63029590D01*
X81478600Y-63008709D01*
X81459597Y-62989205D01*
X81439664Y-62971086D01*
X81418893Y-62954358D01*
X81397352Y-62939035D01*
X81375097Y-62925117D01*
X81352236Y-62912618D01*
X81328813Y-62901546D01*
X81304911Y-62891906D01*
X81280615Y-62883719D01*
X81255998Y-62876988D01*
X81231100Y-62871711D01*
X81206028Y-62867906D01*
X81180843Y-62865586D01*
X81155620Y-62864768D01*
X81130439Y-62865433D01*
X81105389Y-62867614D01*
X81080483Y-62871311D01*
X81055861Y-62876534D01*
X81031582Y-62883290D01*
X81007693Y-62891596D01*
X80984280Y-62901451D01*
X80961454Y-62912868D01*
X80939235Y-62925864D01*
X80917720Y-62940423D01*
X80896980Y-62956587D01*
X80877084Y-62974341D01*
X80858111Y-62993698D01*
X80840131Y-63014676D01*
X80823178Y-63037365D01*
X80807373Y-63061599D01*
X80792717Y-63087278D01*
X80779164Y-63114305D01*
X80766760Y-63142561D01*
X80755466Y-63171937D01*
X80736266Y-63233623D01*
X80721581Y-63298479D01*
X80711349Y-63365640D01*
X80705613Y-63434237D01*
X80704318Y-63503388D01*
X80359236Y-63503388D01*
X80357956Y-63408179D01*
X80367222Y-63290285D01*
X80376087Y-63231925D01*
X80387876Y-63174208D01*
X80402653Y-63117363D01*
X80420493Y-63061582D01*
X80441445Y-63007054D01*
X80465582Y-62954005D01*
X80483535Y-62920016D01*
X80503147Y-62887519D01*
X80524308Y-62856539D01*
X80546975Y-62827079D01*
X80571034Y-62799171D01*
X80596426Y-62772830D01*
X80623055Y-62748090D01*
X80650836Y-62724960D01*
X80679708Y-62703449D01*
X80709582Y-62683584D01*
X80740380Y-62665407D01*
X80772018Y-62648918D01*
X80804411Y-62634126D01*
X80837489Y-62621079D01*
X80871174Y-62609771D01*
X80905362Y-62600248D01*
X80939995Y-62592519D01*
X80974960Y-62586593D01*
X81010242Y-62582494D01*
X81045724Y-62580261D01*
X81081301Y-62579889D01*
X81116907Y-62581414D01*
X81152490Y-62584862D01*
X81187948Y-62590225D01*
X81223182Y-62597549D01*
X81258155Y-62606849D01*
X81292742Y-62618142D01*
X81326877Y-62631445D01*
X81360506Y-62646786D01*
X81393515Y-62664184D01*
X81425833Y-62683647D01*
X81457397Y-62705212D01*
X81510133Y-62743119D01*
X81531715Y-62758014D01*
X81550458Y-62770176D01*
X81558860Y-62775245D01*
X81566632Y-62779617D01*
X81573833Y-62783334D01*
X81580492Y-62786350D01*
X81586646Y-62788688D01*
X81592334Y-62790349D01*
X81597563Y-62791318D01*
X81602386Y-62791619D01*
X81606838Y-62791230D01*
X81610960Y-62790159D01*
X81614760Y-62788412D01*
X81618290Y-62785977D01*
X81621592Y-62782863D01*
X81624673Y-62779053D01*
X81627584Y-62774561D01*
X81630355Y-62769391D01*
X81633016Y-62763531D01*
X81635611Y-62756984D01*
X81640701Y-62741835D01*
X81645913Y-62723946D01*
X81651495Y-62703300D01*
X81655521Y-62689631D01*
X81660027Y-62677348D01*
X81665090Y-62666387D01*
X81670861Y-62656696D01*
X81674034Y-62652321D01*
X81677418Y-62648241D01*
X81681032Y-62644455D01*
X81684881Y-62640959D01*
X81688988Y-62637743D01*
X81693358Y-62634815D01*
X81698014Y-62632162D01*
X81702969Y-62629757D01*
X81708224Y-62627615D01*
X81713788Y-62625727D01*
X81725967Y-62622702D01*
X81739588Y-62620605D01*
X81754754Y-62619399D01*
X81771590Y-62619044D01*
X81790194Y-62619476D01*
X81810689Y-62620665D01*
X81833173Y-62622542D01*
X81989415Y-62637265D01*
X81999821Y-63452186D01*
X82002682Y-63675625D01*
G37*
G36*
X75642462Y-63267914D02*
G01*
X75660483Y-63269891D01*
X75679051Y-63272897D01*
X75698093Y-63276924D01*
X75717573Y-63281953D01*
X75737438Y-63287971D01*
X75757646Y-63294955D01*
X75778135Y-63302905D01*
X75798872Y-63311785D01*
X75819796Y-63321591D01*
X75840864Y-63332294D01*
X75862007Y-63343902D01*
X75883199Y-63356374D01*
X75904398Y-63369715D01*
X75934695Y-63389334D01*
X75961421Y-63406404D01*
X75984858Y-63420941D01*
X76005250Y-63433003D01*
X76014375Y-63438119D01*
X76022850Y-63442610D01*
X76030694Y-63446505D01*
X76037936Y-63449809D01*
X76044609Y-63452502D01*
X76050760Y-63454615D01*
X76056404Y-63456134D01*
X76061584Y-63457065D01*
X76066323Y-63457429D01*
X76070667Y-63457208D01*
X76074629Y-63456430D01*
X76078266Y-63455074D01*
X76081580Y-63453163D01*
X76084639Y-63450692D01*
X76087458Y-63447668D01*
X76090055Y-63444095D01*
X76092489Y-63439973D01*
X76094770Y-63435323D01*
X76096949Y-63430123D01*
X76099042Y-63424396D01*
X76103133Y-63411364D01*
X76107312Y-63396246D01*
X76109829Y-63387997D01*
X76112905Y-63380136D01*
X76116514Y-63372645D01*
X76120655Y-63365543D01*
X76125293Y-63358826D01*
X76130431Y-63352501D01*
X76136053Y-63346571D01*
X76142149Y-63341031D01*
X76148698Y-63335893D01*
X76155692Y-63331155D01*
X76163119Y-63326830D01*
X76170946Y-63322901D01*
X76179185Y-63319389D01*
X76187811Y-63316285D01*
X76206184Y-63311342D01*
X76225976Y-63308081D01*
X76247030Y-63306533D01*
X76269277Y-63306717D01*
X76292600Y-63308653D01*
X76316912Y-63312376D01*
X76342076Y-63317897D01*
X76368003Y-63325241D01*
X76394583Y-63334440D01*
X76405948Y-63340178D01*
X76416124Y-63348860D01*
X76425163Y-63361182D01*
X76433151Y-63377893D01*
X76440136Y-63399673D01*
X76446177Y-63427259D01*
X76451341Y-63461375D01*
X76455690Y-63502732D01*
X76462231Y-63610055D01*
X76466265Y-63754959D01*
X76468323Y-63943200D01*
X76468893Y-64180527D01*
X76468266Y-64345481D01*
X76466432Y-64500597D01*
X76463523Y-64642360D01*
X76459691Y-64767315D01*
X76455050Y-64871980D01*
X76449737Y-64952857D01*
X76446868Y-64983292D01*
X76443858Y-65006473D01*
X76440762Y-65021971D01*
X76439181Y-65026706D01*
X76437579Y-65029356D01*
X76433577Y-65032482D01*
X76428091Y-65035538D01*
X76421217Y-65038480D01*
X76413062Y-65041297D01*
X76403702Y-65043982D01*
X76393250Y-65046517D01*
X76381805Y-65048901D01*
X76369448Y-65051084D01*
X76342423Y-65054845D01*
X76312920Y-65057687D01*
X76281732Y-65059489D01*
X76249643Y-65060121D01*
X76093028Y-65060121D01*
X76093028Y-64509322D01*
X76092115Y-64396327D01*
X76089502Y-64286344D01*
X76085361Y-64182119D01*
X76079896Y-64086377D01*
X76073270Y-64001866D01*
X76065676Y-63931297D01*
X76061562Y-63902093D01*
X76057284Y-63877416D01*
X76052851Y-63857589D01*
X76048306Y-63842963D01*
X76037206Y-63817366D01*
X76024340Y-63793355D01*
X76009653Y-63770893D01*
X75993111Y-63749956D01*
X75974645Y-63730535D01*
X75954242Y-63712601D01*
X75931850Y-63696109D01*
X75907417Y-63681066D01*
X75880905Y-63667420D01*
X75852277Y-63655183D01*
X75821492Y-63644281D01*
X75788498Y-63634731D01*
X75753255Y-63626490D01*
X75715726Y-63619542D01*
X75675851Y-63613861D01*
X75633608Y-63609416D01*
X75604615Y-63606720D01*
X75578998Y-63603902D01*
X75556549Y-63600774D01*
X75537080Y-63597136D01*
X75528389Y-63595050D01*
X75520364Y-63592768D01*
X75512963Y-63590249D01*
X75506189Y-63587471D01*
X75499992Y-63584413D01*
X75494364Y-63581044D01*
X75489265Y-63577340D01*
X75484662Y-63573286D01*
X75480548Y-63568840D01*
X75476889Y-63563988D01*
X75473653Y-63558699D01*
X75470825Y-63552944D01*
X75468371Y-63546702D01*
X75466268Y-63539951D01*
X75464490Y-63532667D01*
X75463010Y-63524816D01*
X75461803Y-63516370D01*
X75460835Y-63507318D01*
X75459546Y-63487265D01*
X75458932Y-63464459D01*
X75458760Y-63438683D01*
X75458974Y-63414451D01*
X75459688Y-63392766D01*
X75461039Y-63373473D01*
X75461988Y-63364670D01*
X75463142Y-63356411D01*
X75464504Y-63348665D01*
X75466118Y-63341417D01*
X75467970Y-63334659D01*
X75470090Y-63328358D01*
X75472492Y-63322482D01*
X75475188Y-63317034D01*
X75478202Y-63312003D01*
X75481543Y-63307334D01*
X75485232Y-63303030D01*
X75489267Y-63299066D01*
X75493679Y-63295428D01*
X75498480Y-63292091D01*
X75503681Y-63289035D01*
X75509317Y-63286235D01*
X75515368Y-63283689D01*
X75521888Y-63281352D01*
X75528875Y-63279224D01*
X75536329Y-63277284D01*
X75552757Y-63273862D01*
X75571303Y-63270950D01*
X75592074Y-63268364D01*
X75608208Y-63267136D01*
X75625006Y-63266998D01*
X75642462Y-63267914D01*
G37*
G36*
X78607570Y-64740733D02*
G01*
X78621492Y-64741795D01*
X78636048Y-64743464D01*
X78667059Y-64748578D01*
X78700709Y-64756047D01*
X78716907Y-64760398D01*
X78731674Y-64765158D01*
X78745086Y-64770400D01*
X78757164Y-64776195D01*
X78762726Y-64779324D01*
X78767965Y-64782604D01*
X78772905Y-64786067D01*
X78777553Y-64789711D01*
X78781892Y-64793549D01*
X78785970Y-64797583D01*
X78789743Y-64801838D01*
X78793265Y-64806301D01*
X78796511Y-64810998D01*
X78799511Y-64815927D01*
X78802247Y-64821097D01*
X78804752Y-64826522D01*
X78807011Y-64832224D01*
X78809044Y-64838188D01*
X78810837Y-64844435D01*
X78812425Y-64850984D01*
X78814963Y-64864965D01*
X78816719Y-64880227D01*
X78817728Y-64896835D01*
X78818051Y-64914852D01*
X78817890Y-64928240D01*
X78817414Y-64941573D01*
X78816643Y-64954755D01*
X78815580Y-64967711D01*
X78814257Y-64980355D01*
X78812683Y-64992611D01*
X78810876Y-65004394D01*
X78808849Y-65015619D01*
X78806632Y-65026206D01*
X78804221Y-65036073D01*
X78801622Y-65045129D01*
X78798895Y-65053308D01*
X78796024Y-65060505D01*
X78793019Y-65066665D01*
X78789913Y-65071695D01*
X78788331Y-65073747D01*
X78786732Y-65075492D01*
X78786736Y-65075492D01*
X78782738Y-65078631D01*
X78777242Y-65081678D01*
X78770363Y-65084624D01*
X78762210Y-65087443D01*
X78752858Y-65090134D01*
X78742405Y-65092661D01*
X78730953Y-65095037D01*
X78718613Y-65097231D01*
X78691580Y-65100989D01*
X78662077Y-65103842D01*
X78630898Y-65105641D01*
X78598803Y-65106267D01*
X78572665Y-65106125D01*
X78549597Y-65105575D01*
X78529411Y-65104419D01*
X78511922Y-65102451D01*
X78504122Y-65101095D01*
X78496924Y-65099469D01*
X78490305Y-65097546D01*
X78484243Y-65095293D01*
X78478707Y-65092681D01*
X78473661Y-65089696D01*
X78469115Y-65086315D01*
X78465024Y-65082503D01*
X78461360Y-65078251D01*
X78458108Y-65073509D01*
X78455241Y-65068272D01*
X78452737Y-65062503D01*
X78450573Y-65056187D01*
X78448726Y-65049300D01*
X78447147Y-65041817D01*
X78445849Y-65033705D01*
X78443969Y-65015492D01*
X78442851Y-64994493D01*
X78442321Y-64970488D01*
X78442193Y-64943294D01*
X78443044Y-64910847D01*
X78445649Y-64881374D01*
X78447617Y-64867741D01*
X78450060Y-64854833D01*
X78452967Y-64842641D01*
X78456358Y-64831182D01*
X78460210Y-64820421D01*
X78464573Y-64810369D01*
X78469427Y-64801009D01*
X78474797Y-64792346D01*
X78480674Y-64784376D01*
X78487089Y-64777084D01*
X78494027Y-64770464D01*
X78501497Y-64764518D01*
X78509525Y-64759240D01*
X78518104Y-64754619D01*
X78527237Y-64750654D01*
X78536945Y-64747340D01*
X78547221Y-64744664D01*
X78558095Y-64742627D01*
X78569559Y-64741222D01*
X78581617Y-64740442D01*
X78594290Y-64740283D01*
X78607570Y-64740733D01*
G37*
G36*
X62924076Y-63594403D02*
G01*
X62978288Y-63598397D01*
X63032666Y-63605858D01*
X63087004Y-63616830D01*
X63141008Y-63631338D01*
X63194438Y-63649437D01*
X63236757Y-63665753D01*
X63275152Y-63681574D01*
X63309873Y-63697162D01*
X63341219Y-63712775D01*
X63369392Y-63728666D01*
X63394721Y-63745098D01*
X63406393Y-63753595D01*
X63417446Y-63762320D01*
X63427905Y-63771310D01*
X63437797Y-63780597D01*
X63447183Y-63790212D01*
X63456081Y-63800188D01*
X63464518Y-63810546D01*
X63472536Y-63821333D01*
X63480146Y-63832572D01*
X63487423Y-63844310D01*
X63494364Y-63856553D01*
X63501016Y-63869357D01*
X63513579Y-63896744D01*
X63525332Y-63926721D01*
X63536594Y-63959549D01*
X63547622Y-63995483D01*
X63552200Y-64012554D01*
X63556073Y-64029813D01*
X63559222Y-64047240D01*
X63561682Y-64064783D01*
X63563441Y-64082415D01*
X63564532Y-64100113D01*
X63564948Y-64117830D01*
X63564725Y-64135547D01*
X63563838Y-64153224D01*
X63562314Y-64170822D01*
X63560197Y-64188317D01*
X63557439Y-64205665D01*
X63554091Y-64222832D01*
X63550158Y-64239801D01*
X63545630Y-64256522D01*
X63540541Y-64272969D01*
X63534901Y-64289111D01*
X63528718Y-64304904D01*
X63521990Y-64320327D01*
X63514738Y-64335342D01*
X63506977Y-64349904D01*
X63498722Y-64364002D01*
X63489961Y-64377588D01*
X63480723Y-64390630D01*
X63471041Y-64403095D01*
X63460870Y-64414951D01*
X63450245Y-64426172D01*
X63439208Y-64436709D01*
X63427750Y-64446535D01*
X63415878Y-64455620D01*
X63403577Y-64463929D01*
X63390911Y-64471429D01*
X63364053Y-64484481D01*
X63326228Y-64500353D01*
X63279168Y-64518425D01*
X63224627Y-64538086D01*
X63164321Y-64558729D01*
X63100011Y-64579742D01*
X63033445Y-64600518D01*
X62966344Y-64620444D01*
X62896056Y-64641761D01*
X62863372Y-64652465D01*
X62832341Y-64663224D01*
X62802923Y-64674018D01*
X62775157Y-64684882D01*
X62748997Y-64695801D01*
X62724441Y-64706801D01*
X62701475Y-64717883D01*
X62680132Y-64729056D01*
X62660377Y-64740326D01*
X62642196Y-64751709D01*
X62625579Y-64763192D01*
X62610542Y-64774812D01*
X62597059Y-64786541D01*
X62585116Y-64798431D01*
X62574735Y-64810464D01*
X62565873Y-64822633D01*
X62558544Y-64834978D01*
X62552755Y-64847481D01*
X62548464Y-64860164D01*
X62545685Y-64873032D01*
X62544404Y-64886089D01*
X62544607Y-64899357D01*
X62546310Y-64912829D01*
X62549482Y-64926518D01*
X62554135Y-64940425D01*
X62560240Y-64954575D01*
X62567797Y-64968952D01*
X62576827Y-64983591D01*
X62587266Y-64998478D01*
X62599166Y-65013620D01*
X62611644Y-65028063D01*
X62624307Y-65041241D01*
X62637271Y-65053204D01*
X62650680Y-65064001D01*
X62664643Y-65073673D01*
X62679291Y-65082266D01*
X62694748Y-65089821D01*
X62711133Y-65096402D01*
X62728586Y-65102031D01*
X62747221Y-65106763D01*
X62767157Y-65110646D01*
X62788556Y-65113720D01*
X62811483Y-65116030D01*
X62836106Y-65117619D01*
X62862561Y-65118544D01*
X62890929Y-65118845D01*
X62921607Y-65118538D01*
X62949858Y-65117563D01*
X62975924Y-65115796D01*
X63000060Y-65113154D01*
X63022523Y-65109521D01*
X63033178Y-65107295D01*
X63043521Y-65104787D01*
X63053554Y-65101975D01*
X63063314Y-65098847D01*
X63072838Y-65095402D01*
X63082161Y-65091604D01*
X63091299Y-65087465D01*
X63100282Y-65082953D01*
X63109152Y-65078079D01*
X63117929Y-65072794D01*
X63126649Y-65067102D01*
X63135355Y-65061009D01*
X63152810Y-65047493D01*
X63170501Y-65032157D01*
X63188708Y-65014881D01*
X63207667Y-64995562D01*
X63227623Y-64974106D01*
X63241095Y-64960010D01*
X63255290Y-64946508D01*
X63270131Y-64933616D01*
X63285525Y-64921360D01*
X63301422Y-64909728D01*
X63317730Y-64898758D01*
X63334396Y-64888454D01*
X63351337Y-64878828D01*
X63368447Y-64869896D01*
X63385696Y-64861690D01*
X63402970Y-64854210D01*
X63420231Y-64847475D01*
X63437376Y-64841491D01*
X63454324Y-64836283D01*
X63471045Y-64831860D01*
X63487400Y-64828250D01*
X63503378Y-64825446D01*
X63518836Y-64823485D01*
X63533743Y-64822365D01*
X63548048Y-64822110D01*
X63561609Y-64822732D01*
X63574390Y-64824244D01*
X63586315Y-64826670D01*
X63597311Y-64830010D01*
X63607286Y-64834288D01*
X63616172Y-64839525D01*
X63623893Y-64845727D01*
X63630405Y-64852911D01*
X63635583Y-64861084D01*
X63639372Y-64870287D01*
X63641712Y-64880499D01*
X63642504Y-64891762D01*
X63641877Y-64903861D01*
X63640041Y-64916590D01*
X63637034Y-64929903D01*
X63632917Y-64943746D01*
X63627736Y-64958076D01*
X63621544Y-64972821D01*
X63606303Y-65003322D01*
X63587596Y-65034825D01*
X63565820Y-65066879D01*
X63541364Y-65099022D01*
X63514650Y-65130813D01*
X63486052Y-65161794D01*
X63455963Y-65191513D01*
X63424816Y-65219526D01*
X63392958Y-65245383D01*
X63360815Y-65268631D01*
X63328779Y-65288815D01*
X63297259Y-65305496D01*
X63281826Y-65312373D01*
X63266653Y-65318206D01*
X63266654Y-65318206D01*
X63230738Y-65330078D01*
X63194373Y-65340587D01*
X63157659Y-65349752D01*
X63120667Y-65357587D01*
X63083471Y-65364099D01*
X63046152Y-65369314D01*
X63008784Y-65373248D01*
X62971470Y-65375935D01*
X62934266Y-65377358D01*
X62897269Y-65377560D01*
X62860519Y-65376556D01*
X62824130Y-65374352D01*
X62788175Y-65370970D01*
X62752746Y-65366429D01*
X62717897Y-65360754D01*
X62683713Y-65353952D01*
X62650301Y-65346036D01*
X62617712Y-65337038D01*
X62586030Y-65326964D01*
X62555332Y-65315829D01*
X62525712Y-65303674D01*
X62497234Y-65290475D01*
X62469985Y-65276288D01*
X62444057Y-65261108D01*
X62419487Y-65244961D01*
X62396397Y-65227869D01*
X62374868Y-65209840D01*
X62354945Y-65190889D01*
X62336714Y-65171037D01*
X62320299Y-65150300D01*
X62305721Y-65128702D01*
X62293109Y-65106264D01*
X62277265Y-65072192D01*
X62263984Y-65037436D01*
X62253258Y-65002166D01*
X62245069Y-64966558D01*
X62239381Y-64930784D01*
X62236203Y-64895035D01*
X62235519Y-64859473D01*
X62237295Y-64824268D01*
X62241539Y-64789619D01*
X62248223Y-64755680D01*
X62257344Y-64722642D01*
X62268846Y-64690674D01*
X62282767Y-64659957D01*
X62290624Y-64645114D01*
X62299065Y-64630656D01*
X62308088Y-64616599D01*
X62317732Y-64602968D01*
X62327930Y-64589767D01*
X62338733Y-64577045D01*
X62353098Y-64562008D01*
X62369225Y-64547243D01*
X62387161Y-64532751D01*
X62406935Y-64518511D01*
X62428552Y-64504512D01*
X62452071Y-64490747D01*
X62477484Y-64477183D01*
X62504847Y-64463821D01*
X62534170Y-64450668D01*
X62565489Y-64437671D01*
X62598846Y-64424842D01*
X62634236Y-64412168D01*
X62711249Y-64387216D01*
X62796832Y-64362715D01*
X62878233Y-64339713D01*
X62951400Y-64316925D01*
X62984906Y-64305567D01*
X63016441Y-64294224D01*
X63045946Y-64282873D01*
X63073466Y-64271496D01*
X63099018Y-64260087D01*
X63122583Y-64248616D01*
X63144225Y-64237080D01*
X63163913Y-64225466D01*
X63181690Y-64213747D01*
X63197555Y-64201923D01*
X63211538Y-64189967D01*
X63223629Y-64177869D01*
X63233860Y-64165615D01*
X63242228Y-64153173D01*
X63248758Y-64140554D01*
X63253476Y-64127733D01*
X63256376Y-64114699D01*
X63257460Y-64101419D01*
X63256794Y-64087892D01*
X63254345Y-64074112D01*
X63250133Y-64060044D01*
X63244195Y-64045688D01*
X63236516Y-64031013D01*
X63227114Y-64016026D01*
X63216027Y-64000694D01*
X63203261Y-63985009D01*
X63188791Y-63968951D01*
X63172684Y-63952517D01*
X63161584Y-63942388D01*
X63149608Y-63932834D01*
X63136756Y-63923870D01*
X63123156Y-63915491D01*
X63108836Y-63907694D01*
X63093875Y-63900499D01*
X63078330Y-63893894D01*
X63062262Y-63887897D01*
X63028881Y-63877703D01*
X62994202Y-63869934D01*
X62958798Y-63864614D01*
X62923156Y-63861780D01*
X62887820Y-63861445D01*
X62853308Y-63863627D01*
X62820158Y-63868353D01*
X62804253Y-63871688D01*
X62788881Y-63875658D01*
X62774110Y-63880282D01*
X62759993Y-63885557D01*
X62746611Y-63891483D01*
X62734027Y-63898072D01*
X62722294Y-63905314D01*
X62711501Y-63913230D01*
X62701701Y-63921802D01*
X62692948Y-63931048D01*
X62665462Y-63962952D01*
X62640399Y-63991450D01*
X62617511Y-64016746D01*
X62596475Y-64038998D01*
X62577108Y-64058408D01*
X62559062Y-64075156D01*
X62550475Y-64082593D01*
X62542121Y-64089436D01*
X62533970Y-64095700D01*
X62525987Y-64101417D01*
X62518153Y-64106610D01*
X62510402Y-64111298D01*
X62502735Y-64115507D01*
X62495109Y-64119261D01*
X62487475Y-64122580D01*
X62479819Y-64125484D01*
X62472093Y-64128012D01*
X62464262Y-64130169D01*
X62456317Y-64131981D01*
X62448190Y-64133479D01*
X62439871Y-64134687D01*
X62431316Y-64135624D01*
X62413375Y-64136777D01*
X62394094Y-64137117D01*
X62379226Y-64136540D01*
X62365381Y-64134836D01*
X62352555Y-64132054D01*
X62340743Y-64128237D01*
X62329937Y-64123413D01*
X62320164Y-64117633D01*
X62311376Y-64110937D01*
X62303597Y-64103373D01*
X62296839Y-64094968D01*
X62291072Y-64085780D01*
X62286285Y-64075841D01*
X62282522Y-64065199D01*
X62279755Y-64053887D01*
X62277963Y-64041963D01*
X62277178Y-64029444D01*
X62277378Y-64016399D01*
X62278568Y-64002849D01*
X62280734Y-63988840D01*
X62283886Y-63974424D01*
X62288018Y-63959631D01*
X62293147Y-63944509D01*
X62299223Y-63929098D01*
X62306276Y-63913446D01*
X62314316Y-63897587D01*
X62323323Y-63881556D01*
X62333286Y-63865411D01*
X62344216Y-63849187D01*
X62356127Y-63832919D01*
X62368985Y-63816657D01*
X62382800Y-63800448D01*
X62397577Y-63784325D01*
X62413319Y-63768323D01*
X62448606Y-63736716D01*
X62486884Y-63708158D01*
X62527905Y-63682683D01*
X62571418Y-63660316D01*
X62617158Y-63641110D01*
X62664847Y-63625114D01*
X62714282Y-63612344D01*
X62765170Y-63602853D01*
X62817263Y-63596672D01*
X62870327Y-63593838D01*
X62924076Y-63594403D01*
G37*
G36*
X68215504Y-64760516D02*
G01*
X68231891Y-64761805D01*
X68246624Y-64764264D01*
X68259878Y-64768123D01*
X68266010Y-64770668D01*
X68271829Y-64773643D01*
X68277355Y-64777112D01*
X68282611Y-64781062D01*
X68287616Y-64785561D01*
X68292383Y-64790627D01*
X68296959Y-64796295D01*
X68301333Y-64802595D01*
X68309592Y-64817193D01*
X68317337Y-64834676D01*
X68324709Y-64855293D01*
X68331905Y-64879292D01*
X68339039Y-64906904D01*
X68346296Y-64938392D01*
X68361785Y-65013958D01*
X68369852Y-65054475D01*
X68377475Y-65090526D01*
X68384855Y-65122414D01*
X68392160Y-65150405D01*
X68395830Y-65163027D01*
X68399559Y-65174769D01*
X68403347Y-65185685D01*
X68407251Y-65195792D01*
X68411265Y-65205136D01*
X68415423Y-65213735D01*
X68419745Y-65221647D01*
X68424258Y-65228887D01*
X68428963Y-65235506D01*
X68433924Y-65241520D01*
X68439128Y-65246975D01*
X68444604Y-65251899D01*
X68450390Y-65256340D01*
X68456502Y-65260309D01*
X68462962Y-65263855D01*
X68469790Y-65267019D01*
X68477008Y-65269825D01*
X68484650Y-65272308D01*
X68492727Y-65274517D01*
X68501265Y-65276451D01*
X68510290Y-65278180D01*
X68519823Y-65279722D01*
X68540499Y-65282393D01*
X68558488Y-65284720D01*
X68574877Y-65287482D01*
X68589691Y-65290757D01*
X68596545Y-65292603D01*
X68603029Y-65294589D01*
X68609167Y-65296738D01*
X68614937Y-65299048D01*
X68620381Y-65301527D01*
X68625502Y-65304186D01*
X68630271Y-65307030D01*
X68634733Y-65310059D01*
X68638899Y-65313302D01*
X68642744Y-65316746D01*
X68646300Y-65320399D01*
X68649575Y-65324285D01*
X68652574Y-65328399D01*
X68655288Y-65332746D01*
X68657752Y-65337352D01*
X68659951Y-65342194D01*
X68661906Y-65347298D01*
X68663628Y-65352677D01*
X68665123Y-65358337D01*
X68666384Y-65364268D01*
X68667423Y-65370494D01*
X68668264Y-65377014D01*
X68669346Y-65390978D01*
X68669702Y-65406236D01*
X68669346Y-65421490D01*
X68668264Y-65435456D01*
X68666384Y-65448209D01*
X68665123Y-65454142D01*
X68663628Y-65459796D01*
X68661906Y-65465179D01*
X68659950Y-65470280D01*
X68657752Y-65475136D01*
X68655288Y-65479732D01*
X68652566Y-65484083D01*
X68649575Y-65488196D01*
X68646300Y-65492073D01*
X68642744Y-65495732D01*
X68638899Y-65499176D01*
X68634733Y-65502413D01*
X68630271Y-65505445D01*
X68625500Y-65508287D01*
X68620381Y-65510940D01*
X68614937Y-65513427D01*
X68609166Y-65515741D01*
X68603029Y-65517887D01*
X68589691Y-65521709D01*
X68574877Y-65524988D01*
X68558488Y-65527760D01*
X68540499Y-65530085D01*
X68411294Y-65544688D01*
X68387803Y-66200190D01*
X68381537Y-66349687D01*
X68374057Y-66483200D01*
X68369879Y-66543742D01*
X68365448Y-66600046D01*
X68360738Y-66652007D01*
X68355776Y-66699555D01*
X68350563Y-66742607D01*
X68345115Y-66781072D01*
X68339431Y-66814864D01*
X68333530Y-66843899D01*
X68327437Y-66868101D01*
X68321137Y-66887394D01*
X68314648Y-66901674D01*
X68311333Y-66906899D01*
X68307969Y-66910857D01*
X68301307Y-66916631D01*
X68293008Y-66922540D01*
X68283200Y-66928530D01*
X68272003Y-66934571D01*
X68259550Y-66940618D01*
X68245923Y-66946623D01*
X68231273Y-66952550D01*
X68215714Y-66958342D01*
X68199390Y-66963984D01*
X68182381Y-66969402D01*
X68146848Y-66979431D01*
X68128548Y-66983964D01*
X68110076Y-66988105D01*
X68091536Y-66991822D01*
X68073053Y-66995068D01*
X68073050Y-66995024D01*
X68045808Y-66999277D01*
X68019463Y-67003025D01*
X67994012Y-67006260D01*
X67969461Y-67009000D01*
X67945779Y-67011229D01*
X67923015Y-67012959D01*
X67901132Y-67014170D01*
X67880131Y-67014882D01*
X67860014Y-67015077D01*
X67840776Y-67014767D01*
X67822430Y-67013946D01*
X67804950Y-67012612D01*
X67788355Y-67010773D01*
X67772619Y-67008422D01*
X67757763Y-67005550D01*
X67743768Y-67002164D01*
X67730637Y-66998269D01*
X67718371Y-66993855D01*
X67706977Y-66988925D01*
X67696431Y-66983495D01*
X67686741Y-66977536D01*
X67677911Y-66971053D01*
X67669934Y-66964068D01*
X67662802Y-66956557D01*
X67656517Y-66948530D01*
X67651076Y-66939986D01*
X67646482Y-66930913D01*
X67642722Y-66921324D01*
X67639816Y-66911209D01*
X67637735Y-66900579D01*
X67636486Y-66889426D01*
X67636071Y-66877744D01*
X67636370Y-66861529D01*
X67637319Y-66846901D01*
X67639022Y-66833820D01*
X67640181Y-66827832D01*
X67641571Y-66822177D01*
X67643206Y-66816872D01*
X67645069Y-66811911D01*
X67647209Y-66807268D01*
X67649611Y-66802946D01*
X67652301Y-66798920D01*
X67655290Y-66795190D01*
X67658568Y-66791755D01*
X67662180Y-66788582D01*
X67666134Y-66785684D01*
X67670401Y-66783040D01*
X67675047Y-66780647D01*
X67680042Y-66778488D01*
X67685445Y-66776560D01*
X67691225Y-66774841D01*
X67697407Y-66773344D01*
X67703996Y-66772035D01*
X67718498Y-66769985D01*
X67734795Y-66768620D01*
X67752986Y-66767856D01*
X67773176Y-66767612D01*
X67867213Y-66766245D01*
X67905284Y-66763130D01*
X67937957Y-66757125D01*
X67952397Y-66752754D01*
X67965630Y-66747302D01*
X67977724Y-66740655D01*
X67988723Y-66732701D01*
X67998683Y-66723316D01*
X68007654Y-66712379D01*
X68015679Y-66699789D01*
X68022822Y-66685408D01*
X68029142Y-66669129D01*
X68034671Y-66650836D01*
X68043592Y-66607708D01*
X68050007Y-66555091D01*
X68054312Y-66492037D01*
X68056948Y-66417585D01*
X68058323Y-66330845D01*
X68058910Y-66116572D01*
X68058910Y-65521566D01*
X67906229Y-65520902D01*
X67876468Y-65520159D01*
X67848381Y-65518257D01*
X67821987Y-65515278D01*
X67797283Y-65511284D01*
X67774285Y-65506347D01*
X67753043Y-65500544D01*
X67733529Y-65493949D01*
X67715765Y-65486634D01*
X67699783Y-65478666D01*
X67685594Y-65470114D01*
X67673221Y-65461063D01*
X67662652Y-65451580D01*
X67653923Y-65441734D01*
X67647042Y-65431599D01*
X67642026Y-65421240D01*
X67638896Y-65410751D01*
X67637646Y-65400185D01*
X67638311Y-65389616D01*
X67640906Y-65379129D01*
X67645439Y-65368778D01*
X67651931Y-65358652D01*
X67660387Y-65348811D01*
X67670824Y-65339330D01*
X67683270Y-65330281D01*
X67697725Y-65321753D01*
X67714224Y-65313795D01*
X67732747Y-65306488D01*
X67753346Y-65299909D01*
X67776012Y-65294126D01*
X67800759Y-65289203D01*
X67827642Y-65285228D01*
X67856627Y-65282265D01*
X68035433Y-65267788D01*
X68058910Y-65013958D01*
X68062866Y-64972846D01*
X68066731Y-64936393D01*
X68070667Y-64904313D01*
X68074829Y-64876346D01*
X68077044Y-64863809D01*
X68079383Y-64852208D01*
X68081839Y-64841489D01*
X68084440Y-64831619D01*
X68087225Y-64822563D01*
X68090189Y-64814298D01*
X68093359Y-64806784D01*
X68096763Y-64799972D01*
X68100411Y-64793858D01*
X68104325Y-64788376D01*
X68108513Y-64783514D01*
X68113007Y-64779226D01*
X68117824Y-64775484D01*
X68122979Y-64772248D01*
X68128491Y-64769475D01*
X68134382Y-64767147D01*
X68140668Y-64765220D01*
X68147366Y-64763665D01*
X68154502Y-64762449D01*
X68162085Y-64761519D01*
X68170145Y-64760860D01*
X68178695Y-64760437D01*
X68197349Y-64760142D01*
X68215504Y-64760516D01*
G37*
G36*
X78760363Y-66317690D02*
G01*
X78773145Y-67182997D01*
X78606622Y-67182997D01*
X78440121Y-67182997D01*
X78452898Y-66317690D01*
X78465679Y-65452380D01*
X78606622Y-65452380D01*
X78747573Y-65452380D01*
X78760363Y-66317690D01*
G37*
G36*
X66365992Y-67887752D02*
G01*
X66367536Y-67919128D01*
X66367133Y-67934930D01*
X66365925Y-67950938D01*
X66363950Y-67967120D01*
X66361234Y-67983434D01*
X66357775Y-67999861D01*
X66353633Y-68016347D01*
X66348798Y-68032877D01*
X66343290Y-68049411D01*
X66337164Y-68065916D01*
X66330401Y-68082361D01*
X66315138Y-68114932D01*
X66297677Y-68146859D01*
X66278194Y-68177865D01*
X66256866Y-68207710D01*
X66233869Y-68236115D01*
X66209378Y-68262823D01*
X66183588Y-68287550D01*
X66170254Y-68299099D01*
X66156655Y-68310049D01*
X66142811Y-68320382D01*
X66128781Y-68330039D01*
X66114522Y-68339033D01*
X66100110Y-68347287D01*
X66085532Y-68354786D01*
X66070842Y-68361491D01*
X66070842Y-68361489D01*
X66025656Y-68379228D01*
X65979827Y-68394154D01*
X65933558Y-68406279D01*
X65886961Y-68415604D01*
X65840237Y-68422167D01*
X65793514Y-68425935D01*
X65746948Y-68426956D01*
X65700721Y-68425216D01*
X65654982Y-68420744D01*
X65609899Y-68413548D01*
X65565614Y-68403626D01*
X65522298Y-68391007D01*
X65480096Y-68375679D01*
X65439198Y-68357685D01*
X65399722Y-68337010D01*
X65361867Y-68313667D01*
X65292654Y-68267926D01*
X65264432Y-68249855D01*
X65240080Y-68234918D01*
X65229266Y-68228642D01*
X65219288Y-68223124D01*
X65210175Y-68218382D01*
X65201824Y-68214415D01*
X65194246Y-68211204D01*
X65187375Y-68208765D01*
X65181183Y-68207068D01*
X65175645Y-68206139D01*
X65170708Y-68205950D01*
X65166364Y-68206514D01*
X65162552Y-68207823D01*
X65159243Y-68209870D01*
X65156402Y-68212639D01*
X65153997Y-68216149D01*
X65151989Y-68220377D01*
X65150356Y-68225351D01*
X65149031Y-68231014D01*
X65148004Y-68237399D01*
X65147238Y-68244515D01*
X65146688Y-68252331D01*
X65146099Y-68270067D01*
X65145961Y-68290584D01*
X65145580Y-68303449D01*
X65144402Y-68315166D01*
X65142356Y-68325752D01*
X65140974Y-68330659D01*
X65139357Y-68335298D01*
X65137491Y-68339683D01*
X65135360Y-68343804D01*
X65132949Y-68347692D01*
X65130283Y-68351338D01*
X65127313Y-68354763D01*
X65124047Y-68357944D01*
X65120481Y-68360909D01*
X65116597Y-68363661D01*
X65112418Y-68366195D01*
X65107886Y-68368538D01*
X65103004Y-68370671D01*
X65097799Y-68372622D01*
X65086278Y-68375944D01*
X65073291Y-68378563D01*
X65058734Y-68380526D01*
X65042549Y-68381865D01*
X65024671Y-68382640D01*
X65005028Y-68382888D01*
X64864074Y-68382888D01*
X64864074Y-67688349D01*
X64864506Y-67552198D01*
X65192954Y-67552198D01*
X65192954Y-67707497D01*
X65193442Y-67723924D01*
X65194877Y-67741085D01*
X65197184Y-67758823D01*
X65200346Y-67777023D01*
X65204303Y-67795536D01*
X65209011Y-67814223D01*
X65214404Y-67832938D01*
X65220469Y-67851539D01*
X65227136Y-67869903D01*
X65234354Y-67887874D01*
X65242078Y-67905322D01*
X65250268Y-67922104D01*
X65258858Y-67938077D01*
X65267812Y-67953114D01*
X65277096Y-67967059D01*
X65286635Y-67979780D01*
X65286635Y-67979778D01*
X65309738Y-68006554D01*
X65334472Y-68031375D01*
X65360719Y-68054199D01*
X65388342Y-68074966D01*
X65417184Y-68093626D01*
X65447141Y-68110147D01*
X65478054Y-68124464D01*
X65509765Y-68136547D01*
X65542161Y-68146333D01*
X65575088Y-68153789D01*
X65608436Y-68158846D01*
X65642027Y-68161494D01*
X65675738Y-68161653D01*
X65709442Y-68159269D01*
X65742979Y-68154323D01*
X65776232Y-68146770D01*
X65805263Y-68138297D01*
X65831815Y-68129161D01*
X65855980Y-68119223D01*
X65877815Y-68108374D01*
X65887896Y-68102584D01*
X65897428Y-68096508D01*
X65906430Y-68090162D01*
X65914911Y-68083510D01*
X65922882Y-68076571D01*
X65930346Y-68069296D01*
X65937328Y-68061672D01*
X65943812Y-68053711D01*
X65949827Y-68045378D01*
X65955385Y-68036665D01*
X65960496Y-68027559D01*
X65965174Y-68018043D01*
X65969428Y-68008113D01*
X65973249Y-67997746D01*
X65976672Y-67986924D01*
X65979695Y-67975637D01*
X65984610Y-67951637D01*
X65988061Y-67925604D01*
X65990139Y-67897452D01*
X65990939Y-67867051D01*
X65990475Y-67848718D01*
X65988887Y-67830869D01*
X65986172Y-67813515D01*
X65982356Y-67796649D01*
X65977429Y-67780281D01*
X65971431Y-67764436D01*
X65964335Y-67749105D01*
X65956186Y-67734278D01*
X65946974Y-67719998D01*
X65936733Y-67706243D01*
X65925436Y-67693038D01*
X65913126Y-67680373D01*
X65899788Y-67668268D01*
X65885470Y-67656719D01*
X65853866Y-67635331D01*
X65818374Y-67616273D01*
X65779075Y-67599575D01*
X65736083Y-67585324D01*
X65689467Y-67573537D01*
X65639312Y-67564270D01*
X65585711Y-67557592D01*
X65528763Y-67553546D01*
X65468527Y-67552198D01*
X65192954Y-67552198D01*
X64864506Y-67552198D01*
X64864529Y-67544921D01*
X64866112Y-67416876D01*
X64869156Y-67303179D01*
X64873983Y-67202796D01*
X64877178Y-67157267D01*
X64880931Y-67114662D01*
X64885316Y-67074891D01*
X64890348Y-67037788D01*
X64896066Y-67003238D01*
X64902536Y-66971098D01*
X64909789Y-66941246D01*
X64917838Y-66913561D01*
X64926760Y-66887895D01*
X64936584Y-66864125D01*
X64947354Y-66842131D01*
X64959114Y-66821774D01*
X64971898Y-66802934D01*
X64985749Y-66785455D01*
X65000709Y-66769236D01*
X65016831Y-66754134D01*
X65034127Y-66740021D01*
X65052661Y-66726762D01*
X65072474Y-66714240D01*
X65093597Y-66702309D01*
X65116084Y-66690858D01*
X65139961Y-66679733D01*
X65192106Y-66657995D01*
X65229835Y-66644100D01*
X65268004Y-66631845D01*
X65306503Y-66621236D01*
X65345277Y-66612237D01*
X65384240Y-66604811D01*
X65423279Y-66598971D01*
X65462343Y-66594668D01*
X65501353Y-66591887D01*
X65540190Y-66590616D01*
X65578817Y-66590823D01*
X65617140Y-66592492D01*
X65655059Y-66595598D01*
X65692504Y-66600121D01*
X65729386Y-66606027D01*
X65765634Y-66613314D01*
X65801165Y-66621961D01*
X65835900Y-66631923D01*
X65869735Y-66643199D01*
X65902605Y-66655764D01*
X65934442Y-66669583D01*
X65965144Y-66684650D01*
X65994628Y-66700945D01*
X66022816Y-66718436D01*
X66049646Y-66737098D01*
X66075005Y-66756919D01*
X66098841Y-66777884D01*
X66121035Y-66799953D01*
X66141530Y-66823111D01*
X66160242Y-66847331D01*
X66177093Y-66872604D01*
X66191991Y-66898907D01*
X66204855Y-66926222D01*
X66234323Y-66996131D01*
X66245648Y-67024365D01*
X66254561Y-67048556D01*
X66258089Y-67059237D01*
X66260967Y-67069014D01*
X66263191Y-67077924D01*
X66264754Y-67086026D01*
X66265629Y-67093345D01*
X66265822Y-67099924D01*
X66265302Y-67105809D01*
X66264060Y-67111030D01*
X66262102Y-67115619D01*
X66259402Y-67119655D01*
X66255928Y-67123131D01*
X66251689Y-67126102D01*
X66246673Y-67128611D01*
X66240862Y-67130697D01*
X66234247Y-67132399D01*
X66226804Y-67133748D01*
X66218541Y-67134807D01*
X66209420Y-67135576D01*
X66188593Y-67136496D01*
X66136235Y-67136849D01*
X66119300Y-67136297D01*
X66102228Y-67134622D01*
X66085049Y-67131840D01*
X66067782Y-67127974D01*
X66050419Y-67123006D01*
X66032983Y-67116957D01*
X66015500Y-67109831D01*
X65997971Y-67101628D01*
X65980410Y-67092378D01*
X65962845Y-67082059D01*
X65945274Y-67070692D01*
X65927717Y-67058295D01*
X65910200Y-67044856D01*
X65892723Y-67030383D01*
X65875294Y-67014900D01*
X65857950Y-66998404D01*
X65840083Y-66981526D01*
X65821960Y-66965686D01*
X65803587Y-66950919D01*
X65785005Y-66937187D01*
X65766252Y-66924533D01*
X65747334Y-66912922D01*
X65728296Y-66902374D01*
X65709143Y-66892882D01*
X65689926Y-66884453D01*
X65670658Y-66877070D01*
X65651366Y-66870756D01*
X65632069Y-66865503D01*
X65612818Y-66861312D01*
X65593608Y-66858183D01*
X65574486Y-66856114D01*
X65555478Y-66855104D01*
X65536610Y-66855166D01*
X65517901Y-66856288D01*
X65499394Y-66858485D01*
X65481103Y-66861732D01*
X65463030Y-66866051D01*
X65445247Y-66871433D01*
X65427767Y-66877898D01*
X65410610Y-66885421D01*
X65393804Y-66894019D01*
X65377374Y-66903680D01*
X65361346Y-66914412D01*
X65345760Y-66926221D01*
X65330634Y-66939095D01*
X65315971Y-66953046D01*
X65301836Y-66968061D01*
X65288245Y-66984168D01*
X65278180Y-66997298D01*
X65268550Y-67011051D01*
X65259368Y-67025278D01*
X65250722Y-67039884D01*
X65242599Y-67054751D01*
X65235097Y-67069764D01*
X65228244Y-67084819D01*
X65222057Y-67099789D01*
X65216610Y-67114564D01*
X65211942Y-67129064D01*
X65208086Y-67143135D01*
X65205088Y-67156681D01*
X65203004Y-67169592D01*
X65201865Y-67181756D01*
X65201723Y-67193046D01*
X65202609Y-67203371D01*
X65205347Y-67218205D01*
X65209262Y-67231576D01*
X65214669Y-67243607D01*
X65221946Y-67254410D01*
X65231441Y-67264090D01*
X65243483Y-67272783D01*
X65258435Y-67280612D01*
X65276650Y-67287661D01*
X65298460Y-67294085D01*
X65324246Y-67299972D01*
X65354319Y-67305460D01*
X65389037Y-67310655D01*
X65473837Y-67320637D01*
X65581417Y-67330870D01*
X65620504Y-67334690D01*
X65659562Y-67339178D01*
X65698414Y-67344273D01*
X65736823Y-67349927D01*
X65774593Y-67356088D01*
X65811486Y-67362726D01*
X65847297Y-67369792D01*
X65881808Y-67377213D01*
X65914832Y-67384972D01*
X65946117Y-67393003D01*
X65975483Y-67401246D01*
X66002689Y-67409687D01*
X66027533Y-67418242D01*
X66049795Y-67426889D01*
X66069270Y-67435558D01*
X66085728Y-67444220D01*
X66113323Y-67461934D01*
X66140398Y-67482607D01*
X66166783Y-67505944D01*
X66192289Y-67531684D01*
X66216765Y-67559498D01*
X66240032Y-67589096D01*
X66261900Y-67620194D01*
X66282195Y-67652501D01*
X66300781Y-67685723D01*
X66317445Y-67719563D01*
X66332021Y-67753728D01*
X66344338Y-67787928D01*
X66354216Y-67821864D01*
X66361496Y-67855223D01*
X66363126Y-67867051D01*
X66365992Y-67887752D01*
G37*
M02*
