%TF.GenerationSoftware,KiCad,Pcbnew,10.0.0*%
%TF.CreationDate,2026-10-03T00:36:13-03:00*%
%TF.ProjectId,parla-linea-v-0-rev-a,7061726c-612d-46c6-996e-65612d762d30,rev?*%
%TF.SameCoordinates,Original*%
%TF.FileFunction,Soldermask,Top*%
%TF.FilePolarity,Negative*%
%FSLAX46Y46*%
G04 Gerber Fmt 4.6, Leading zero omitted, Abs format (unit mm)*
G04 Created by KiCad (PCBNEW 10.0.0) date 2026-10-03 00:36:13*
%MOMM*%
%LPD*%
G01*
G04 APERTURE LIST*
G04 Aperture macros list*
%AMRoundRect*
0 Rectangle with rounded corners*
0 $1 Rounding radius*
0 $2 $3 $4 $5 $6 $7 $8 $9 X,Y pos of 4 corners*
0 Add a 4 corners polygon primitive as box body*
4,1,4,$2,$3,$4,$5,$6,$7,$8,$9,$2,$3,0*
0 Add four circle primitives for the rounded corners*
1,1,$1+$1,$2,$3*
1,1,$1+$1,$4,$5*
1,1,$1+$1,$6,$7*
1,1,$1+$1,$8,$9*
0 Add four rect primitives between the rounded corners*
20,1,$1+$1,$2,$3,$4,$5,0*
20,1,$1+$1,$4,$5,$6,$7,0*
20,1,$1+$1,$6,$7,$8,$9,0*
20,1,$1+$1,$8,$9,$2,$3,0*%
G04 Aperture macros list end*
%ADD10R,1.830000X1.930000*%
%ADD11C,2.130000*%
%ADD12R,1.100000X2.800000*%
%ADD13RoundRect,0.250001X1.149999X1.149999X-1.149999X1.149999X-1.149999X-1.149999X1.149999X-1.149999X0*%
%ADD14C,2.800000*%
%ADD15R,1.377000X1.133000*%
%ADD16C,1.200000*%
%ADD17O,2.200000X1.200000*%
%ADD18O,2.300000X1.600000*%
%ADD19O,1.200000X2.200000*%
%ADD20O,2.500000X1.600000*%
%ADD21RoundRect,0.250000X-0.675000X-0.675000X0.675000X-0.675000X0.675000X0.675000X-0.675000X0.675000X0*%
%ADD22O,0.560000X1.745000*%
%ADD23R,2.000000X2.000000*%
%ADD24C,2.000000*%
%ADD25C,3.200000*%
%ADD26R,3.000000X1.600000*%
%ADD27R,6.200000X5.800000*%
%ADD28R,1.410000X1.350000*%
%ADD29R,3.000000X3.000000*%
%ADD30C,3.000000*%
%ADD31R,1.350000X1.410000*%
%ADD32R,0.700000X1.000000*%
%ADD33R,1.200000X3.500000*%
%ADD34R,1.700000X1.700000*%
%ADD35C,1.700000*%
G04 APERTURE END LIST*
D10*
%TO.C,J2*%
X86300000Y-80500000D03*
D11*
X97700000Y-80500000D03*
X89400000Y-80500000D03*
%TD*%
D12*
%TO.C,C4*%
X66000000Y-71000000D03*
X66000000Y-74320000D03*
%TD*%
D13*
%TO.C,J5*%
X79987905Y-54901680D03*
D14*
X74987905Y-54901680D03*
%TD*%
D15*
%TO.C,R2*%
X67000000Y-80000000D03*
X67000000Y-78000000D03*
%TD*%
D16*
%TO.C,J6*%
X54493172Y-70000000D03*
X51993172Y-70000000D03*
X59493172Y-75000000D03*
X54493172Y-80000000D03*
X51993172Y-80000000D03*
D17*
X59493172Y-70000000D03*
D18*
X59493172Y-72500000D03*
D19*
X54493172Y-75000000D03*
D17*
X59493172Y-80000000D03*
D20*
X59493172Y-77500000D03*
%TD*%
D21*
%TO.C,J4*%
X53100000Y-64500000D03*
%TD*%
D22*
%TO.C,U1*%
X70550000Y-77870000D03*
X71830000Y-77870000D03*
X73100000Y-77870000D03*
X74370000Y-77870000D03*
X75630000Y-77870000D03*
X76900000Y-77870000D03*
X78170000Y-77870000D03*
X79450000Y-77870000D03*
X79450000Y-72130000D03*
X78170000Y-72130000D03*
X76900000Y-72130000D03*
X75630000Y-72130000D03*
X74370000Y-72130000D03*
X73100000Y-72130000D03*
X71830000Y-72130000D03*
X70550000Y-72130000D03*
%TD*%
D23*
%TO.C,D2*%
X87000000Y-56540000D03*
D24*
X87000000Y-54000000D03*
%TD*%
D25*
%TO.C,H1*%
X55000000Y-55000000D03*
%TD*%
D26*
%TO.C,U2*%
X71160000Y-62710000D03*
D27*
X78000000Y-65000000D03*
D26*
X71160000Y-67290000D03*
%TD*%
D10*
%TO.C,J1*%
X86300000Y-69800000D03*
D11*
X97700000Y-69800000D03*
X89400000Y-69800000D03*
%TD*%
D15*
%TO.C,R1*%
X64000000Y-78000000D03*
X64000000Y-80000000D03*
%TD*%
D28*
%TO.C,C6*%
X61000000Y-91000000D03*
X63000000Y-91000000D03*
%TD*%
D25*
%TO.C,H4*%
X95000000Y-95000000D03*
%TD*%
D29*
%TO.C,RV1*%
X70000000Y-94750000D03*
D30*
X75000000Y-94750000D03*
X80000000Y-94750000D03*
X70000000Y-89750000D03*
X75000000Y-89750000D03*
X80000000Y-89750000D03*
%TD*%
D31*
%TO.C,C1*%
X64000000Y-85000000D03*
X64000000Y-87000000D03*
%TD*%
D28*
%TO.C,C2*%
X82000000Y-82000000D03*
X80000000Y-82000000D03*
%TD*%
%TO.C,C7*%
X76000000Y-82000000D03*
X74000000Y-82000000D03*
%TD*%
D32*
%TO.C,D1*%
X58000000Y-62170000D03*
X58000000Y-59830000D03*
%TD*%
D25*
%TO.C,H3*%
X55000000Y-95000000D03*
%TD*%
D13*
%TO.C,J3*%
X67587330Y-55068611D03*
D14*
X62587330Y-55068611D03*
%TD*%
D33*
%TO.C,C3*%
X63639946Y-61828321D03*
X63639946Y-67168321D03*
%TD*%
D15*
%TO.C,R3*%
X87000000Y-60000000D03*
X87000000Y-62000000D03*
%TD*%
D34*
%TO.C,J7*%
X53460000Y-86000000D03*
D35*
X56000000Y-86000000D03*
X58540000Y-86000000D03*
%TD*%
D25*
%TO.C,H2*%
X95000000Y-55000000D03*
%TD*%
M02*
