%TF.GenerationSoftware,KiCad,Pcbnew,10.0.0*%
%TF.CreationDate,2026-10-03T00:36:13-03:00*%
%TF.ProjectId,parla-linea-v-0-rev-a,7061726c-612d-46c6-996e-65612d762d30,rev?*%
%TF.SameCoordinates,Original*%
%TF.FileFunction,Copper,L1,Top*%
%TF.FilePolarity,Positive*%
%FSLAX46Y46*%
G04 Gerber Fmt 4.6, Leading zero omitted, Abs format (unit mm)*
G04 Created by KiCad (PCBNEW 10.0.0) date 2026-10-03 00:36:13*
%MOMM*%
%LPD*%
G01*
G04 APERTURE LIST*
G04 Aperture macros list*
%AMRoundRect*
0 Rectangle with rounded corners*
0 $1 Rounding radius*
0 $2 $3 $4 $5 $6 $7 $8 $9 X,Y pos of 4 corners*
0 Add a 4 corners polygon primitive as box body*
4,1,4,$2,$3,$4,$5,$6,$7,$8,$9,$2,$3,0*
0 Add four circle primitives for the rounded corners*
1,1,$1+$1,$2,$3*
1,1,$1+$1,$4,$5*
1,1,$1+$1,$6,$7*
1,1,$1+$1,$8,$9*
0 Add four rect primitives between the rounded corners*
20,1,$1+$1,$2,$3,$4,$5,0*
20,1,$1+$1,$4,$5,$6,$7,0*
20,1,$1+$1,$6,$7,$8,$9,0*
20,1,$1+$1,$8,$9,$2,$3,0*%
G04 Aperture macros list end*
%TA.AperFunction,ComponentPad*%
%ADD10R,1.830000X1.930000*%
%TD*%
%TA.AperFunction,ComponentPad*%
%ADD11C,2.130000*%
%TD*%
%TA.AperFunction,SMDPad,CuDef*%
%ADD12R,1.100000X2.800000*%
%TD*%
%TA.AperFunction,ComponentPad*%
%ADD13RoundRect,0.250001X1.149999X1.149999X-1.149999X1.149999X-1.149999X-1.149999X1.149999X-1.149999X0*%
%TD*%
%TA.AperFunction,ComponentPad*%
%ADD14C,2.800000*%
%TD*%
%TA.AperFunction,SMDPad,CuDef*%
%ADD15R,1.377000X1.133000*%
%TD*%
%TA.AperFunction,ComponentPad*%
%ADD16O,2.200000X1.200000*%
%TD*%
%TA.AperFunction,ComponentPad*%
%ADD17O,2.300000X1.600000*%
%TD*%
%TA.AperFunction,ComponentPad*%
%ADD18O,1.200000X2.200000*%
%TD*%
%TA.AperFunction,ComponentPad*%
%ADD19O,2.500000X1.600000*%
%TD*%
%TA.AperFunction,ComponentPad*%
%ADD20RoundRect,0.250000X-0.675000X-0.675000X0.675000X-0.675000X0.675000X0.675000X-0.675000X0.675000X0*%
%TD*%
%TA.AperFunction,SMDPad,CuDef*%
%ADD21O,0.560000X1.745000*%
%TD*%
%TA.AperFunction,ComponentPad*%
%ADD22R,2.000000X2.000000*%
%TD*%
%TA.AperFunction,ComponentPad*%
%ADD23C,2.000000*%
%TD*%
%TA.AperFunction,SMDPad,CuDef*%
%ADD24R,3.000000X1.600000*%
%TD*%
%TA.AperFunction,SMDPad,CuDef*%
%ADD25R,6.200000X5.800000*%
%TD*%
%TA.AperFunction,SMDPad,CuDef*%
%ADD26R,1.410000X1.350000*%
%TD*%
%TA.AperFunction,ComponentPad*%
%ADD27R,3.000000X3.000000*%
%TD*%
%TA.AperFunction,ComponentPad*%
%ADD28C,3.000000*%
%TD*%
%TA.AperFunction,SMDPad,CuDef*%
%ADD29R,1.350000X1.410000*%
%TD*%
%TA.AperFunction,SMDPad,CuDef*%
%ADD30R,0.700000X1.000000*%
%TD*%
%TA.AperFunction,SMDPad,CuDef*%
%ADD31R,1.200000X3.500000*%
%TD*%
%TA.AperFunction,ComponentPad*%
%ADD32R,1.700000X1.700000*%
%TD*%
%TA.AperFunction,ComponentPad*%
%ADD33C,1.700000*%
%TD*%
%TA.AperFunction,ViaPad*%
%ADD34C,0.600000*%
%TD*%
%TA.AperFunction,Conductor*%
%ADD35C,0.300000*%
%TD*%
%TA.AperFunction,Conductor*%
%ADD36C,0.500000*%
%TD*%
G04 APERTURE END LIST*
D10*
%TO.P,J2,S*%
%TO.N,Net-(U1-ROUT-)*%
X86300000Y-80500000D03*
D11*
%TO.P,J2,T*%
%TO.N,Net-(U1-ROUT+)*%
X97700000Y-80500000D03*
%TO.P,J2,TN*%
%TO.N,unconnected-(J2-PadTN)*%
X89400000Y-80500000D03*
%TD*%
D12*
%TO.P,C4,1*%
%TO.N,+5V*%
X66000000Y-71000000D03*
%TO.P,C4,2*%
%TO.N,GND*%
X66000000Y-74320000D03*
%TD*%
D13*
%TO.P,J5,1,Pin_1_1*%
%TO.N,+5V*%
X79987905Y-54901680D03*
D14*
%TO.P,J5,2,Pin_2_2*%
%TO.N,GND*%
X74987905Y-54901680D03*
%TD*%
D15*
%TO.P,R2,1*%
%TO.N,Net-(J7-Pin_2)*%
X67000000Y-80000000D03*
%TO.P,R2,2*%
%TO.N,Net-(J6-PadR)*%
X67000000Y-78000000D03*
%TD*%
D16*
%TO.P,J6,R*%
%TO.N,Net-(J6-PadR)*%
X59493172Y-70000000D03*
D17*
%TO.P,J6,RN*%
X59493172Y-72500000D03*
D18*
%TO.P,J6,S*%
%TO.N,GND*%
X54493172Y-75000000D03*
D16*
%TO.P,J6,T*%
%TO.N,Net-(J6-PadT)*%
X59493172Y-80000000D03*
D19*
%TO.P,J6,TN*%
X59493172Y-77500000D03*
%TD*%
D20*
%TO.P,J4,1,Pin_1_1*%
%TO.N,GND*%
X53100000Y-64500000D03*
%TD*%
D21*
%TO.P,U1,1,LOUT+_1*%
%TO.N,Net-(U1-LOUT+)*%
X70550000Y-77870000D03*
%TO.P,U1,2,PGND_2*%
%TO.N,GND*%
X71830000Y-77870000D03*
%TO.P,U1,3,LOUT-_3*%
%TO.N,Net-(U1-LOUT-)*%
X73100000Y-77870000D03*
%TO.P,U1,4,PVDD_4*%
%TO.N,+5V*%
X74370000Y-77870000D03*
%TO.P,U1,5,~{MUTE}_5*%
%TO.N,unconnected-(U1-~{MUTE}-Pad5)*%
X75630000Y-77870000D03*
%TO.P,U1,6,VDD_6*%
%TO.N,+5V*%
X76900000Y-77870000D03*
%TO.P,U1,7,INL_7*%
%TO.N,Net-(U1-INL)*%
X78170000Y-77870000D03*
%TO.P,U1,8,VREF_8*%
%TO.N,Net-(U1-VREF)*%
X79450000Y-77870000D03*
%TO.P,U1,9,NC_9*%
%TO.N,unconnected-(U1-NC-Pad9)*%
X79450000Y-72130000D03*
%TO.P,U1,10,INR_10*%
%TO.N,Net-(U1-INR)*%
X78170000Y-72130000D03*
%TO.P,U1,11,GND_11*%
%TO.N,GND*%
X76900000Y-72130000D03*
%TO.P,U1,12,~{SHDN}_12*%
%TO.N,unconnected-(U1-~{SHDN}-Pad12)*%
X75630000Y-72130000D03*
%TO.P,U1,13,PVDD_13*%
%TO.N,+5V*%
X74370000Y-72130000D03*
%TO.P,U1,14,ROUT-_14*%
%TO.N,Net-(U1-ROUT-)*%
X73100000Y-72130000D03*
%TO.P,U1,15,PGND_15*%
%TO.N,GND*%
X71830000Y-72130000D03*
%TO.P,U1,16,ROUT+_16*%
%TO.N,Net-(U1-ROUT+)*%
X70550000Y-72130000D03*
%TD*%
D22*
%TO.P,D2,1,K_1*%
%TO.N,Net-(D2-K)*%
X87000000Y-56540000D03*
D23*
%TO.P,D2,2,A_2*%
%TO.N,+5V*%
X87000000Y-54000000D03*
%TD*%
D24*
%TO.P,U2,1,IN_1*%
%TO.N,Net-(D1-K)*%
X71160000Y-62710000D03*
D25*
%TO.P,U2,2,GND_2*%
%TO.N,GND*%
X78000000Y-65000000D03*
D24*
%TO.P,U2,3,OUT_3*%
%TO.N,+5V*%
X71160000Y-67290000D03*
%TD*%
D10*
%TO.P,J1,S*%
%TO.N,Net-(U1-LOUT-)*%
X86300000Y-69800000D03*
D11*
%TO.P,J1,T*%
%TO.N,Net-(U1-LOUT+)*%
X97700000Y-69800000D03*
%TO.P,J1,TN*%
%TO.N,unconnected-(J1-PadTN)*%
X89400000Y-69800000D03*
%TD*%
D15*
%TO.P,R1,1*%
%TO.N,Net-(J6-PadT)*%
X64000000Y-78000000D03*
%TO.P,R1,2*%
%TO.N,Net-(J7-Pin_3)*%
X64000000Y-80000000D03*
%TD*%
D26*
%TO.P,C6,1*%
%TO.N,Net-(J7-Pin_1)*%
X61000000Y-91000000D03*
%TO.P,C6,2*%
%TO.N,Net-(C6-Pad2)*%
X63000000Y-91000000D03*
%TD*%
D27*
%TO.P,RV1,1,1_1*%
%TO.N,GND*%
X70000000Y-94750000D03*
D28*
%TO.P,RV1,2,2_2*%
%TO.N,Net-(U1-INL)*%
X75000000Y-94750000D03*
%TO.P,RV1,3,3_3*%
%TO.N,Net-(C1-Pad2)*%
X80000000Y-94750000D03*
%TO.P,RV1,4,4_4*%
%TO.N,GND*%
X70000000Y-89750000D03*
%TO.P,RV1,5,5_5*%
%TO.N,Net-(U1-INR)*%
X75000000Y-89750000D03*
%TO.P,RV1,6,6_6*%
%TO.N,Net-(C6-Pad2)*%
X80000000Y-89750000D03*
%TD*%
D29*
%TO.P,C1,1*%
%TO.N,Net-(J7-Pin_3)*%
X64000000Y-85000000D03*
%TO.P,C1,2*%
%TO.N,Net-(C1-Pad2)*%
X64000000Y-87000000D03*
%TD*%
D26*
%TO.P,C2,1*%
%TO.N,Net-(U1-VREF)*%
X82000000Y-82000000D03*
%TO.P,C2,2*%
%TO.N,GND*%
X80000000Y-82000000D03*
%TD*%
%TO.P,C7,1*%
%TO.N,+5V*%
X76000000Y-82000000D03*
%TO.P,C7,2*%
%TO.N,GND*%
X74000000Y-82000000D03*
%TD*%
D30*
%TO.P,D1,1,K_1*%
%TO.N,Net-(D1-K)*%
X58000000Y-62170000D03*
%TO.P,D1,2,A_2*%
%TO.N,+9V*%
X58000000Y-59830000D03*
%TD*%
D13*
%TO.P,J3,1,Pin_1_1*%
%TO.N,+9V*%
X67587330Y-55068611D03*
D14*
%TO.P,J3,2,Pin_2_2*%
%TO.N,GND*%
X62587330Y-55068611D03*
%TD*%
D31*
%TO.P,C3,1*%
%TO.N,Net-(D1-K)*%
X63639946Y-61828321D03*
%TO.P,C3,2*%
%TO.N,GND*%
X63639946Y-67168321D03*
%TD*%
D15*
%TO.P,R3,1*%
%TO.N,Net-(D2-K)*%
X87000000Y-60000000D03*
%TO.P,R3,2*%
%TO.N,GND*%
X87000000Y-62000000D03*
%TD*%
D32*
%TO.P,J7,1,Pin_1_1*%
%TO.N,Net-(J7-Pin_1)*%
X53460000Y-86000000D03*
D33*
%TO.P,J7,2,Pin_2_2*%
%TO.N,Net-(J7-Pin_2)*%
X56000000Y-86000000D03*
%TO.P,J7,3,Pin_3_3*%
%TO.N,Net-(J7-Pin_3)*%
X58540000Y-86000000D03*
%TD*%
D34*
%TO.N,GND*%
X76500000Y-69000000D03*
X76500000Y-70700000D03*
%TO.N,Net-(C6-Pad2)*%
X63300000Y-92700000D03*
%TO.N,Net-(J7-Pin_2)*%
X66900000Y-88200000D03*
%TO.N,Net-(U1-INR)*%
X78200000Y-70700000D03*
%TO.N,Net-(U1-ROUT+)*%
X73100000Y-74500000D03*
X81200000Y-76800000D03*
%TO.N,Net-(U1-ROUT-)*%
X73100000Y-70500000D03*
X75400000Y-73800000D03*
%TO.N,Net-(U1-LOUT-)*%
X75700000Y-79900000D03*
X82800000Y-72300000D03*
%TO.N,Net-(U1-LOUT+)*%
X79300000Y-87200000D03*
%TD*%
%TO.N,Net-(J7-Pin_3)*%
D35*
X64000000Y-80000000D02*
X64000000Y-85000000D01*
X59540000Y-85000000D02*
X58540000Y-86000000D01*
X64000000Y-85000000D02*
X59540000Y-85000000D01*
%TO.N,Net-(C1-Pad2)*%
X69000000Y-92000000D02*
X77250000Y-92000000D01*
X77250000Y-92000000D02*
X80000000Y-94750000D01*
X64000000Y-87000000D02*
X69000000Y-92000000D01*
%TO.N,GND*%
X76900000Y-72130000D02*
X76900000Y-71100000D01*
X76900000Y-71100000D02*
X76500000Y-70700000D01*
X76500000Y-66500000D02*
X78000000Y-65000000D01*
X76500000Y-69000000D02*
X76500000Y-66500000D01*
%TO.N,Net-(U1-VREF)*%
D36*
X82000000Y-80420000D02*
X79450000Y-77870000D01*
X82000000Y-82000000D02*
X82000000Y-80420000D01*
%TO.N,Net-(D1-K)*%
X63298267Y-62170000D02*
X63639946Y-61828321D01*
X58000000Y-62170000D02*
X63298267Y-62170000D01*
X64128321Y-61828321D02*
X65010000Y-62710000D01*
X63639946Y-61828321D02*
X64128321Y-61828321D01*
X65010000Y-62710000D02*
X71160000Y-62710000D01*
%TO.N,+5V*%
X76000000Y-82000000D02*
X76900000Y-81100000D01*
X74370000Y-75200000D02*
X74370000Y-72130000D01*
X74370000Y-69870000D02*
X81530000Y-69870000D01*
X71160000Y-67290000D02*
X71790000Y-67290000D01*
X76300000Y-75200000D02*
X74370000Y-75200000D01*
X81530000Y-69870000D02*
X83200000Y-68200000D01*
X84400000Y-54000000D02*
X83200000Y-55200000D01*
X71790000Y-67290000D02*
X74370000Y-69870000D01*
X83200000Y-68200000D02*
X83200000Y-58113775D01*
X83200000Y-58113775D02*
X79987905Y-54901680D01*
X87000000Y-54000000D02*
X84400000Y-54000000D01*
X66000000Y-71000000D02*
X67450000Y-71000000D01*
X74370000Y-77870000D02*
X74370000Y-75200000D01*
X83200000Y-55200000D02*
X83200000Y-58113775D01*
X76900000Y-75800000D02*
X76300000Y-75200000D01*
X74370000Y-69870000D02*
X74370000Y-72130000D01*
X76900000Y-77870000D02*
X76900000Y-75800000D01*
X67450000Y-71000000D02*
X71160000Y-67290000D01*
X76900000Y-81100000D02*
X76900000Y-77870000D01*
%TO.N,Net-(J7-Pin_1)*%
D35*
X56700000Y-91000000D02*
X53460000Y-87760000D01*
X53460000Y-87760000D02*
X53460000Y-86000000D01*
X61000000Y-91000000D02*
X56700000Y-91000000D01*
%TO.N,Net-(C6-Pad2)*%
X63300000Y-92700000D02*
X63300000Y-91300000D01*
X63300000Y-91300000D02*
X63000000Y-91000000D01*
%TO.N,+9V*%
D36*
X67587330Y-55068611D02*
X64655941Y-58000000D01*
X59830000Y-58000000D02*
X58000000Y-59830000D01*
X64655941Y-58000000D02*
X59830000Y-58000000D01*
%TO.N,Net-(D2-K)*%
X87000000Y-60000000D02*
X87000000Y-56540000D01*
%TO.N,Net-(J6-PadR)*%
D35*
X67000000Y-78000000D02*
X66500000Y-78000000D01*
X66500000Y-78000000D02*
X61000000Y-72500000D01*
X61000000Y-72500000D02*
X59493172Y-72500000D01*
D36*
X59493172Y-72500000D02*
X59493172Y-70000000D01*
%TO.N,Net-(J6-PadT)*%
X59493172Y-77500000D02*
X59493172Y-80000000D01*
X59493172Y-77500000D02*
X63500000Y-77500000D01*
X63500000Y-77500000D02*
X64000000Y-78000000D01*
%TO.N,Net-(J7-Pin_2)*%
D35*
X67000000Y-88100000D02*
X66900000Y-88200000D01*
X67000000Y-80000000D02*
X67000000Y-88100000D01*
%TO.N,Net-(U1-INR)*%
X78200000Y-72100000D02*
X78170000Y-72130000D01*
X78200000Y-70700000D02*
X78200000Y-72100000D01*
%TO.N,Net-(U1-INL)*%
X77350000Y-97100000D02*
X75000000Y-94750000D01*
X83100000Y-89100000D02*
X83100000Y-95400000D01*
X78170000Y-77870000D02*
X78170000Y-84170000D01*
X81400000Y-97100000D02*
X77350000Y-97100000D01*
X83100000Y-95400000D02*
X81400000Y-97100000D01*
X78170000Y-84170000D02*
X83100000Y-89100000D01*
%TO.N,Net-(U1-ROUT+)*%
X96600000Y-78200000D02*
X96600000Y-79400000D01*
X70550000Y-72130000D02*
X70550000Y-73350000D01*
X81200000Y-76800000D02*
X95200000Y-76800000D01*
X95200000Y-76800000D02*
X96600000Y-78200000D01*
X70550000Y-73350000D02*
X71700000Y-74500000D01*
X96600000Y-79400000D02*
X97700000Y-80500000D01*
X71700000Y-74500000D02*
X73100000Y-74500000D01*
%TO.N,Net-(U1-ROUT-)*%
X73100000Y-70500000D02*
X73100000Y-72130000D01*
X76863455Y-73800000D02*
X75400000Y-73800000D01*
X86300000Y-80500000D02*
X83563455Y-80500000D01*
X83563455Y-80500000D02*
X76863455Y-73800000D01*
%TO.N,Net-(U1-LOUT-)*%
X73100000Y-77870000D02*
X73100000Y-79200000D01*
X73800000Y-79900000D02*
X75700000Y-79900000D01*
X85300000Y-69800000D02*
X86300000Y-69800000D01*
X82800000Y-72300000D02*
X85300000Y-69800000D01*
X73100000Y-79200000D02*
X73800000Y-79900000D01*
%TO.N,Net-(U1-LOUT+)*%
X70550000Y-83850000D02*
X71200000Y-84500000D01*
X70550000Y-77870000D02*
X70550000Y-83850000D01*
X76600000Y-84500000D02*
X79300000Y-87200000D01*
X71200000Y-84500000D02*
X76600000Y-84500000D01*
%TD*%
%TA.AperFunction,Conductor*%
%TO.N,GND*%
G36*
X94998612Y-50500529D02*
G01*
X95001315Y-50500587D01*
X95004022Y-50500674D01*
X95384099Y-50517269D01*
X95389447Y-50517620D01*
X95394847Y-50518093D01*
X95400147Y-50518673D01*
X95773304Y-50567800D01*
X95778618Y-50568618D01*
X95783938Y-50569556D01*
X95789228Y-50570607D01*
X96156658Y-50652066D01*
X96161906Y-50653351D01*
X96167118Y-50654748D01*
X96172298Y-50656257D01*
X96531207Y-50769420D01*
X96536292Y-50771146D01*
X96541381Y-50772999D01*
X96546402Y-50774952D01*
X96894089Y-50918969D01*
X96899019Y-50921138D01*
X96903936Y-50923431D01*
X96908760Y-50925811D01*
X97242541Y-51099566D01*
X97247261Y-51102155D01*
X97251965Y-51104870D01*
X97256587Y-51107675D01*
X97385129Y-51189565D01*
X97573979Y-51309875D01*
X97578465Y-51312873D01*
X97582874Y-51315961D01*
X97582893Y-51315974D01*
X97587234Y-51319157D01*
X97885799Y-51548254D01*
X97889987Y-51551615D01*
X97894166Y-51555121D01*
X97898210Y-51558669D01*
X98175639Y-51812886D01*
X98179547Y-51816627D01*
X98183371Y-51820451D01*
X98187112Y-51824359D01*
X98441329Y-52101788D01*
X98444879Y-52105836D01*
X98448379Y-52110006D01*
X98451754Y-52114211D01*
X98680833Y-52412753D01*
X98684024Y-52417105D01*
X98687114Y-52421517D01*
X98690128Y-52426026D01*
X98892323Y-52743411D01*
X98895133Y-52748043D01*
X98897834Y-52752722D01*
X98900432Y-52757458D01*
X99074175Y-53091212D01*
X99076571Y-53096070D01*
X99078864Y-53100988D01*
X99081040Y-53105934D01*
X99169092Y-53318509D01*
X99223540Y-53449959D01*
X99225043Y-53453586D01*
X99226992Y-53458598D01*
X99228851Y-53463705D01*
X99230586Y-53468816D01*
X99343742Y-53827704D01*
X99345256Y-53832899D01*
X99346649Y-53838098D01*
X99347935Y-53843351D01*
X99429388Y-54210760D01*
X99430442Y-54216061D01*
X99431378Y-54221368D01*
X99432202Y-54226721D01*
X99481317Y-54599784D01*
X99481906Y-54605158D01*
X99482378Y-54610551D01*
X99482732Y-54615953D01*
X99499322Y-54995924D01*
X99499410Y-54998625D01*
X99499470Y-55001372D01*
X99499500Y-55004080D01*
X99499500Y-69560813D01*
X99492352Y-69602306D01*
X99490399Y-69607806D01*
X99486144Y-69606295D01*
X99478094Y-69633714D01*
X99425290Y-69679468D01*
X99356132Y-69689412D01*
X99292576Y-69660387D01*
X99269463Y-69633713D01*
X99269231Y-69633352D01*
X99251074Y-69585711D01*
X99249939Y-69578548D01*
X99240041Y-69516052D01*
X99238044Y-69503444D01*
X99226952Y-69433408D01*
X99203644Y-69361675D01*
X99150807Y-69199059D01*
X99131204Y-69160586D01*
X99128971Y-69156203D01*
X99128969Y-69156201D01*
X99120637Y-69139849D01*
X99064312Y-69029302D01*
X99038937Y-68979500D01*
X98980813Y-68899500D01*
X98894097Y-68780145D01*
X98719855Y-68605903D01*
X98520501Y-68461064D01*
X98467597Y-68434108D01*
X98437765Y-68418908D01*
X98300937Y-68349190D01*
X98066593Y-68273048D01*
X97884053Y-68244137D01*
X97823208Y-68234500D01*
X97823207Y-68234500D01*
X97576788Y-68234500D01*
X97515945Y-68244137D01*
X97495665Y-68247349D01*
X97343050Y-68271521D01*
X97343042Y-68271521D01*
X97343043Y-68271522D01*
X97333402Y-68273048D01*
X97099056Y-68349193D01*
X96879497Y-68461064D01*
X96765757Y-68543701D01*
X96680142Y-68605905D01*
X96680140Y-68605907D01*
X96680139Y-68605907D01*
X96505907Y-68780139D01*
X96505907Y-68780140D01*
X96505905Y-68780142D01*
X96470771Y-68828500D01*
X96361064Y-68979497D01*
X96249193Y-69199056D01*
X96173048Y-69433402D01*
X96171522Y-69443043D01*
X96171521Y-69443042D01*
X96171521Y-69443049D01*
X96163686Y-69492517D01*
X96134500Y-69676786D01*
X96134500Y-69923212D01*
X96136973Y-69938823D01*
X96145033Y-69989711D01*
X96170232Y-70148813D01*
X96171521Y-70156948D01*
X96171522Y-70156956D01*
X96173048Y-70166596D01*
X96228109Y-70336052D01*
X96246206Y-70391751D01*
X96249193Y-70400942D01*
X96275694Y-70452952D01*
X96317542Y-70535084D01*
X96361064Y-70620501D01*
X96505903Y-70819855D01*
X96680145Y-70994097D01*
X96879499Y-71138936D01*
X97023995Y-71212560D01*
X97077166Y-71239652D01*
X97099058Y-71250807D01*
X97099061Y-71250808D01*
X97330951Y-71326153D01*
X97333407Y-71326951D01*
X97333408Y-71326951D01*
X97333411Y-71326952D01*
X97576792Y-71365500D01*
X97576793Y-71365500D01*
X97823207Y-71365500D01*
X97823208Y-71365500D01*
X98066589Y-71326952D01*
X98066592Y-71326951D01*
X98066593Y-71326951D01*
X98300940Y-71250807D01*
X98300940Y-71250806D01*
X98310221Y-71247791D01*
X98310222Y-71247790D01*
X98310227Y-71247789D01*
X98318212Y-71245194D01*
X98327461Y-71237294D01*
X98520501Y-71138936D01*
X98719855Y-70994097D01*
X98894097Y-70819855D01*
X99038936Y-70620501D01*
X99150806Y-70400943D01*
X99200013Y-70249500D01*
X99226951Y-70166593D01*
X99226951Y-70166592D01*
X99226952Y-70166589D01*
X99250238Y-70019565D01*
X99263785Y-69979710D01*
X99266574Y-69974583D01*
X99270535Y-69976738D01*
X99282737Y-69950963D01*
X99342028Y-69913999D01*
X99411891Y-69914957D01*
X99470145Y-69953535D01*
X99488814Y-69983478D01*
X99488992Y-69983883D01*
X99499500Y-70033837D01*
X99499500Y-80260813D01*
X99494477Y-80295749D01*
X99492756Y-80301610D01*
X99454981Y-80360388D01*
X99391425Y-80389412D01*
X99322267Y-80379468D01*
X99269463Y-80333713D01*
X99269231Y-80333352D01*
X99251074Y-80285711D01*
X99245113Y-80248074D01*
X99235450Y-80187064D01*
X99226952Y-80133411D01*
X99226951Y-80133407D01*
X99226951Y-80133406D01*
X99150807Y-79899059D01*
X99145092Y-79887843D01*
X99129297Y-79856844D01*
X99038937Y-79679500D01*
X98979098Y-79597139D01*
X98894097Y-79480145D01*
X98719855Y-79305903D01*
X98520501Y-79161064D01*
X98419236Y-79109467D01*
X98401743Y-79100554D01*
X98300937Y-79049190D01*
X98066593Y-78973048D01*
X97861557Y-78940574D01*
X97823208Y-78934500D01*
X97823207Y-78934500D01*
X97576787Y-78934500D01*
X97411506Y-78960678D01*
X97376215Y-78961181D01*
X97362448Y-78959402D01*
X97298486Y-78931287D01*
X97259878Y-78873053D01*
X97256030Y-78860610D01*
X97250500Y-78823988D01*
X97250500Y-78135925D01*
X97225295Y-78009220D01*
X97223724Y-78005947D01*
X97223473Y-78005362D01*
X97176465Y-77891873D01*
X97176464Y-77891872D01*
X97176460Y-77891864D01*
X97152159Y-77855496D01*
X97152158Y-77855495D01*
X97148774Y-77850430D01*
X97148768Y-77850422D01*
X97131448Y-77824500D01*
X97129494Y-77821576D01*
X97105277Y-77785331D01*
X97105275Y-77785329D01*
X97105273Y-77785326D01*
X97105267Y-77785320D01*
X97105264Y-77785316D01*
X95614677Y-76294729D01*
X95614673Y-76294726D01*
X95614669Y-76294723D01*
X95508127Y-76223535D01*
X95508125Y-76223534D01*
X95508122Y-76223532D01*
X95499591Y-76219999D01*
X95499588Y-76219998D01*
X95389753Y-76174502D01*
X95389733Y-76174495D01*
X95389725Y-76174493D01*
X95264074Y-76149500D01*
X95264071Y-76149500D01*
X95264069Y-76149500D01*
X81722765Y-76149500D01*
X81687827Y-76144476D01*
X81656018Y-76135135D01*
X81622066Y-76119262D01*
X81579173Y-76090602D01*
X81579162Y-76090597D01*
X81433502Y-76030264D01*
X81433471Y-76030257D01*
X81278847Y-75999500D01*
X81278845Y-75999500D01*
X81278842Y-75999500D01*
X81121158Y-75999500D01*
X81121155Y-75999500D01*
X81121153Y-75999500D01*
X80966527Y-76030257D01*
X80966496Y-76030264D01*
X80820833Y-76090598D01*
X80820824Y-76090603D01*
X80820807Y-76090613D01*
X80689708Y-76178211D01*
X80689707Y-76178212D01*
X80689701Y-76178217D01*
X80578215Y-76289703D01*
X80578211Y-76289708D01*
X80549855Y-76332148D01*
X80526261Y-76358413D01*
X80515611Y-76367312D01*
X80451545Y-76395193D01*
X80382588Y-76384016D01*
X80372655Y-76379264D01*
X80338488Y-76355087D01*
X77454781Y-73471380D01*
X77433630Y-73443126D01*
X77426924Y-73430845D01*
X77412072Y-73362572D01*
X77436489Y-73297108D01*
X77480302Y-73260509D01*
X77480304Y-73260508D01*
X77544576Y-73247731D01*
X77546391Y-73247861D01*
X77604624Y-73267243D01*
X77608272Y-73269587D01*
X77611130Y-73271425D01*
X77631751Y-73288046D01*
X77650495Y-73306790D01*
X77672456Y-73328751D01*
X77672460Y-73328754D01*
X77798468Y-73412951D01*
X77798467Y-73412951D01*
X77801317Y-73414855D01*
X77805914Y-73416500D01*
X77831466Y-73427084D01*
X77831474Y-73427086D01*
X77831476Y-73427087D01*
X77942336Y-73473006D01*
X77942337Y-73473006D01*
X77942338Y-73473006D01*
X77942343Y-73473008D01*
X78090192Y-73502416D01*
X78092391Y-73502909D01*
X78093124Y-73503000D01*
X78246874Y-73503000D01*
X78250998Y-73503000D01*
X78258853Y-73500617D01*
X78287845Y-73494850D01*
X78302345Y-73491966D01*
X78397656Y-73473008D01*
X78397658Y-73473006D01*
X78397660Y-73473006D01*
X78397664Y-73473006D01*
X78400789Y-73471711D01*
X78408831Y-73468386D01*
X78408874Y-73468363D01*
X78534083Y-73416500D01*
X78539706Y-73414171D01*
X78667540Y-73328754D01*
X78689500Y-73306794D01*
X78709718Y-73286575D01*
X78709726Y-73286571D01*
X78737963Y-73265433D01*
X78751689Y-73257938D01*
X78769115Y-73254147D01*
X78771042Y-73253095D01*
X78773230Y-73253251D01*
X78819946Y-73243087D01*
X78821756Y-73243216D01*
X78879953Y-73262582D01*
X78886471Y-73266771D01*
X78907107Y-73283402D01*
X78952451Y-73328747D01*
X78952456Y-73328751D01*
X78952457Y-73328752D01*
X79078468Y-73412951D01*
X79078467Y-73412951D01*
X79081317Y-73414855D01*
X79085914Y-73416500D01*
X79111466Y-73427084D01*
X79111474Y-73427086D01*
X79111476Y-73427087D01*
X79222336Y-73473006D01*
X79222337Y-73473006D01*
X79222338Y-73473006D01*
X79222343Y-73473008D01*
X79370192Y-73502416D01*
X79372391Y-73502909D01*
X79373124Y-73503000D01*
X79526874Y-73503000D01*
X79530998Y-73503000D01*
X79538853Y-73500617D01*
X79567845Y-73494850D01*
X79582345Y-73491966D01*
X79677656Y-73473008D01*
X79677658Y-73473006D01*
X79677660Y-73473006D01*
X79677664Y-73473006D01*
X79680789Y-73471711D01*
X79688831Y-73468386D01*
X79688874Y-73468363D01*
X79814083Y-73416500D01*
X79819706Y-73414171D01*
X79947540Y-73328754D01*
X80056254Y-73220040D01*
X80141671Y-73092206D01*
X80200506Y-72950164D01*
X80203058Y-72937337D01*
X80203059Y-72937334D01*
X80221664Y-72843798D01*
X80227554Y-72814180D01*
X80230500Y-72799373D01*
X80230500Y-72378848D01*
X81999499Y-72378848D01*
X82030257Y-72533471D01*
X82030264Y-72533502D01*
X82090598Y-72679165D01*
X82090603Y-72679174D01*
X82090613Y-72679191D01*
X82178211Y-72810290D01*
X82178212Y-72810291D01*
X82178217Y-72810297D01*
X82289701Y-72921781D01*
X82289707Y-72921786D01*
X82289711Y-72921789D01*
X82420814Y-73009390D01*
X82420827Y-73009397D01*
X82566498Y-73069735D01*
X82566503Y-73069737D01*
X82679462Y-73092206D01*
X82713528Y-73098982D01*
X82716252Y-73099704D01*
X82721155Y-73100500D01*
X82878844Y-73100500D01*
X82882964Y-73100500D01*
X82890814Y-73098118D01*
X83033497Y-73069737D01*
X83179179Y-73009394D01*
X83310289Y-72921789D01*
X83421789Y-72810289D01*
X83509394Y-72679179D01*
X83569737Y-72533497D01*
X83579601Y-72483899D01*
X83591342Y-72450618D01*
X83606707Y-72421245D01*
X83628897Y-72391046D01*
X84864496Y-71155447D01*
X84892751Y-71134297D01*
X84894054Y-71133586D01*
X84898319Y-71131257D01*
X84906471Y-71126806D01*
X84974736Y-71111956D01*
X84977707Y-71112168D01*
X84981059Y-71112408D01*
X85046524Y-71136822D01*
X85046528Y-71136825D01*
X85087900Y-71167796D01*
X85137349Y-71204814D01*
X85142669Y-71208796D01*
X85142671Y-71208797D01*
X85277517Y-71259091D01*
X85277516Y-71259091D01*
X85284444Y-71259835D01*
X85337127Y-71265500D01*
X87262872Y-71265499D01*
X87322483Y-71259091D01*
X87457331Y-71208796D01*
X87572546Y-71122546D01*
X87658796Y-71007331D01*
X87709091Y-70872483D01*
X87715500Y-70812873D01*
X87715499Y-70476615D01*
X87726790Y-70438158D01*
X87732422Y-70409293D01*
X87744537Y-70396644D01*
X87746290Y-70394343D01*
X87746551Y-70394541D01*
X87780752Y-70358836D01*
X87848690Y-70342517D01*
X87914665Y-70365519D01*
X87940150Y-70389929D01*
X87942590Y-70393047D01*
X87955424Y-70413173D01*
X88017542Y-70535084D01*
X88061064Y-70620501D01*
X88205903Y-70819855D01*
X88380145Y-70994097D01*
X88579499Y-71138936D01*
X88723995Y-71212560D01*
X88777166Y-71239652D01*
X88799058Y-71250807D01*
X88799061Y-71250808D01*
X89030951Y-71326153D01*
X89033407Y-71326951D01*
X89033408Y-71326951D01*
X89033411Y-71326952D01*
X89276792Y-71365500D01*
X89276793Y-71365500D01*
X89523207Y-71365500D01*
X89523208Y-71365500D01*
X89766589Y-71326952D01*
X89766592Y-71326951D01*
X89766593Y-71326951D01*
X90000940Y-71250807D01*
X90000940Y-71250806D01*
X90010221Y-71247791D01*
X90010222Y-71247790D01*
X90010227Y-71247789D01*
X90018212Y-71245194D01*
X90027461Y-71237294D01*
X90220501Y-71138936D01*
X90419855Y-70994097D01*
X90594097Y-70819855D01*
X90738936Y-70620501D01*
X90850806Y-70400943D01*
X90900013Y-70249500D01*
X90926951Y-70166593D01*
X90926951Y-70166592D01*
X90926952Y-70166589D01*
X90965500Y-69923208D01*
X90965500Y-69904994D01*
X91278525Y-69904994D01*
X91278525Y-69904995D01*
X91314549Y-70140413D01*
X91315835Y-70148813D01*
X91318494Y-70156948D01*
X91392466Y-70383267D01*
X91506356Y-70602048D01*
X91506358Y-70602051D01*
X91506360Y-70602054D01*
X91535006Y-70640207D01*
X91652569Y-70796788D01*
X91654458Y-70799303D01*
X91668455Y-70812679D01*
X91832779Y-70969710D01*
X91832792Y-70969720D01*
X92036547Y-71108712D01*
X92036552Y-71108714D01*
X92260268Y-71212560D01*
X92260275Y-71212562D01*
X92260278Y-71212564D01*
X92497965Y-71278481D01*
X92743226Y-71304692D01*
X92989475Y-71290493D01*
X92989479Y-71290492D01*
X93230092Y-71236268D01*
X93230094Y-71236267D01*
X93230099Y-71236266D01*
X93458634Y-71143468D01*
X93668945Y-71014589D01*
X93855382Y-70853092D01*
X94012939Y-70663313D01*
X94013919Y-70661637D01*
X94048738Y-70602051D01*
X94137385Y-70450350D01*
X94207580Y-70266527D01*
X94225375Y-70219927D01*
X94225375Y-70219925D01*
X94225377Y-70219921D01*
X94274553Y-69978215D01*
X94283592Y-69731722D01*
X94252250Y-69487064D01*
X94191049Y-69283070D01*
X94181372Y-69250815D01*
X94181371Y-69250813D01*
X94181370Y-69250809D01*
X94072856Y-69029303D01*
X93999597Y-68926598D01*
X93929625Y-68828500D01*
X93929619Y-68828493D01*
X93755512Y-68653777D01*
X93755507Y-68653773D01*
X93555208Y-68509843D01*
X93555202Y-68509840D01*
X93334081Y-68400555D01*
X93334076Y-68400554D01*
X93250491Y-68375159D01*
X93098074Y-68328851D01*
X93098070Y-68328850D01*
X93098072Y-68328850D01*
X92853540Y-68296657D01*
X92853529Y-68296656D01*
X92853526Y-68296656D01*
X92843606Y-68296413D01*
X92780004Y-68294858D01*
X92779992Y-68294859D01*
X92534168Y-68315070D01*
X92294944Y-68375159D01*
X92294936Y-68375162D01*
X92068746Y-68473512D01*
X91861644Y-68607492D01*
X91861643Y-68607493D01*
X91679211Y-68773494D01*
X91526338Y-68967064D01*
X91526336Y-68967067D01*
X91407130Y-69183008D01*
X91407126Y-69183017D01*
X91324796Y-69415508D01*
X91324791Y-69415528D01*
X91281538Y-69658351D01*
X91278525Y-69904994D01*
X90965500Y-69904994D01*
X90965500Y-69676792D01*
X90926952Y-69433411D01*
X90926951Y-69433407D01*
X90926951Y-69433406D01*
X90850807Y-69199059D01*
X90831204Y-69160586D01*
X90828971Y-69156203D01*
X90828969Y-69156201D01*
X90820637Y-69139849D01*
X90764312Y-69029302D01*
X90738937Y-68979500D01*
X90680813Y-68899500D01*
X90594097Y-68780145D01*
X90419855Y-68605903D01*
X90220501Y-68461064D01*
X90167597Y-68434108D01*
X90137765Y-68418908D01*
X90000937Y-68349190D01*
X89766593Y-68273048D01*
X89584053Y-68244137D01*
X89523208Y-68234500D01*
X89523207Y-68234500D01*
X89276788Y-68234500D01*
X89215945Y-68244137D01*
X89195665Y-68247349D01*
X89043050Y-68271521D01*
X89043042Y-68271521D01*
X89043043Y-68271522D01*
X89033402Y-68273048D01*
X88799056Y-68349193D01*
X88579497Y-68461064D01*
X88465757Y-68543701D01*
X88380142Y-68605905D01*
X88380140Y-68605907D01*
X88380139Y-68605907D01*
X88205907Y-68780139D01*
X88205907Y-68780140D01*
X88205905Y-68780142D01*
X88170771Y-68828500D01*
X88061064Y-68979497D01*
X87958077Y-69181620D01*
X87930546Y-69210769D01*
X87912417Y-69233934D01*
X87895867Y-69239704D01*
X87893274Y-69240953D01*
X87893132Y-69240658D01*
X87846443Y-69256939D01*
X87778505Y-69240625D01*
X87730172Y-69190170D01*
X87718551Y-69156844D01*
X87717795Y-69152970D01*
X87715499Y-69129220D01*
X87715499Y-68791027D01*
X87715499Y-68787129D01*
X87715498Y-68787123D01*
X87715497Y-68787116D01*
X87709091Y-68727517D01*
X87668731Y-68619307D01*
X87658797Y-68592671D01*
X87658793Y-68592664D01*
X87572547Y-68477455D01*
X87572544Y-68477452D01*
X87572542Y-68477450D01*
X87494336Y-68418905D01*
X87457335Y-68391206D01*
X87457332Y-68391204D01*
X87457330Y-68391203D01*
X87457328Y-68391202D01*
X87322482Y-68340908D01*
X87322483Y-68340908D01*
X87262883Y-68334501D01*
X87262881Y-68334500D01*
X87262873Y-68334500D01*
X87262864Y-68334500D01*
X87261841Y-68334500D01*
X85337123Y-68334500D01*
X85335192Y-68334659D01*
X85333545Y-68334885D01*
X85277516Y-68340908D01*
X85185677Y-68375162D01*
X85142666Y-68391204D01*
X85142665Y-68391205D01*
X85027456Y-68477450D01*
X85027450Y-68477456D01*
X84941205Y-68592665D01*
X84941203Y-68592668D01*
X84890908Y-68727516D01*
X84884500Y-68787125D01*
X84884500Y-69226361D01*
X84879476Y-69261298D01*
X84872064Y-69286539D01*
X84840769Y-69339283D01*
X82709675Y-71470376D01*
X82681421Y-71491527D01*
X82652326Y-71507414D01*
X82617091Y-71520199D01*
X82566513Y-71530259D01*
X82566504Y-71530262D01*
X82566498Y-71530264D01*
X82566493Y-71530265D01*
X82566475Y-71530272D01*
X82420833Y-71590598D01*
X82420824Y-71590603D01*
X82420807Y-71590613D01*
X82289708Y-71678211D01*
X82289707Y-71678212D01*
X82289701Y-71678217D01*
X82178217Y-71789701D01*
X82178212Y-71789707D01*
X82178211Y-71789708D01*
X82090613Y-71920807D01*
X82090603Y-71920824D01*
X82090602Y-71920827D01*
X82090599Y-71920831D01*
X82030264Y-72066496D01*
X82030257Y-72066527D01*
X81999500Y-72221150D01*
X81999500Y-72221153D01*
X81999500Y-72378846D01*
X81999500Y-72378848D01*
X81999499Y-72378848D01*
X80230500Y-72378848D01*
X80230500Y-71460627D01*
X80215997Y-71387713D01*
X80200508Y-71309843D01*
X80200505Y-71309834D01*
X80141673Y-71167798D01*
X80141672Y-71167796D01*
X80141671Y-71167794D01*
X80141670Y-71167792D01*
X80125416Y-71143468D01*
X80124999Y-71142844D01*
X80056254Y-71039960D01*
X80056251Y-71039956D01*
X80056248Y-71039953D01*
X80056246Y-71039950D01*
X79947548Y-70931252D01*
X79947542Y-70931247D01*
X79947541Y-70931246D01*
X79859596Y-70872483D01*
X79837180Y-70857505D01*
X79810920Y-70833915D01*
X79803670Y-70825239D01*
X79775787Y-70761174D01*
X79786967Y-70692205D01*
X79833660Y-70640228D01*
X79833694Y-70640207D01*
X79835682Y-70638980D01*
X79900809Y-70620500D01*
X81603920Y-70620500D01*
X81701462Y-70601096D01*
X81748913Y-70591658D01*
X81885495Y-70535084D01*
X81934729Y-70502186D01*
X82008416Y-70452952D01*
X83782952Y-68678415D01*
X83822446Y-68619307D01*
X83865084Y-68555495D01*
X83909798Y-68447546D01*
X83921659Y-68418912D01*
X83950500Y-68273917D01*
X83950500Y-68126082D01*
X83950500Y-62614352D01*
X85811500Y-62614352D01*
X85817900Y-62673870D01*
X85817902Y-62673877D01*
X85835647Y-62721454D01*
X85856544Y-62777483D01*
X85868146Y-62808588D01*
X85868148Y-62808591D01*
X85954307Y-62923685D01*
X85954313Y-62923691D01*
X85960494Y-62928318D01*
X86069406Y-63009850D01*
X86069413Y-63009854D01*
X86204120Y-63060096D01*
X86204127Y-63060098D01*
X86210968Y-63060833D01*
X86263638Y-63066498D01*
X86263655Y-63066499D01*
X86263672Y-63066500D01*
X86750000Y-63066500D01*
X87250000Y-63066500D01*
X87736328Y-63066500D01*
X87736336Y-63066500D01*
X87736347Y-63066499D01*
X87772060Y-63062658D01*
X87795872Y-63060098D01*
X87795879Y-63060096D01*
X87930586Y-63009854D01*
X87930593Y-63009850D01*
X88045687Y-62923690D01*
X88045690Y-62923687D01*
X88131850Y-62808593D01*
X88131854Y-62808586D01*
X88182096Y-62673879D01*
X88182098Y-62673872D01*
X88183569Y-62660189D01*
X88188498Y-62614360D01*
X88188500Y-62614327D01*
X88188500Y-62250000D01*
X87250000Y-62250000D01*
X87250000Y-63066500D01*
X86750000Y-63066500D01*
X86750000Y-62250000D01*
X85811500Y-62250000D01*
X85811500Y-62614352D01*
X83950500Y-62614352D01*
X83950500Y-58039857D01*
X83950500Y-55580058D01*
X83955522Y-55545125D01*
X83962934Y-55519880D01*
X83994228Y-55467138D01*
X84661943Y-54799423D01*
X84690193Y-54778275D01*
X84713285Y-54765667D01*
X84772710Y-54750500D01*
X85609539Y-54750500D01*
X85644475Y-54755523D01*
X85665845Y-54761798D01*
X85716040Y-54790615D01*
X85719290Y-54793685D01*
X85734473Y-54810955D01*
X85796070Y-54895736D01*
X85812542Y-54926954D01*
X85817205Y-54940024D01*
X85821192Y-55009780D01*
X85786836Y-55070614D01*
X85774966Y-55082150D01*
X85760986Y-55093255D01*
X85761209Y-55093553D01*
X85757667Y-55096203D01*
X85757664Y-55096206D01*
X85670751Y-55161269D01*
X85642456Y-55182451D01*
X85642453Y-55182453D01*
X85642450Y-55182456D01*
X85556205Y-55297665D01*
X85556203Y-55297668D01*
X85505907Y-55432516D01*
X85501390Y-55474548D01*
X85501389Y-55474547D01*
X85499502Y-55492108D01*
X85499501Y-55492122D01*
X85499501Y-55492123D01*
X85499501Y-55492129D01*
X85499500Y-55492139D01*
X85499500Y-57587876D01*
X85499659Y-57589806D01*
X85499885Y-57591454D01*
X85505907Y-57647482D01*
X85533690Y-57721971D01*
X85556202Y-57782328D01*
X85556203Y-57782330D01*
X85556204Y-57782332D01*
X85556205Y-57782333D01*
X85642450Y-57897542D01*
X85642452Y-57897544D01*
X85642455Y-57897547D01*
X85757664Y-57983793D01*
X85757671Y-57983797D01*
X85802618Y-58000561D01*
X85892517Y-58034091D01*
X85952127Y-58040500D01*
X86107672Y-58040499D01*
X86142606Y-58045521D01*
X86157603Y-58049925D01*
X86216355Y-58087670D01*
X86217542Y-58089039D01*
X86245019Y-58143903D01*
X86246664Y-58151462D01*
X86249500Y-58177830D01*
X86249500Y-58818519D01*
X86244475Y-58853463D01*
X86240070Y-58868461D01*
X86202304Y-58927225D01*
X86193240Y-58935080D01*
X86155364Y-58957554D01*
X86069171Y-58989701D01*
X86069165Y-58989705D01*
X85953956Y-59075950D01*
X85953950Y-59075956D01*
X85867705Y-59191165D01*
X85867703Y-59191168D01*
X85817408Y-59326016D01*
X85811000Y-59385625D01*
X85811000Y-60614376D01*
X85811159Y-60616306D01*
X85811385Y-60617954D01*
X85817407Y-60673982D01*
X85867704Y-60808833D01*
X85867706Y-60808835D01*
X85867707Y-60808837D01*
X85902681Y-60855555D01*
X85944811Y-60911833D01*
X85961725Y-60942807D01*
X85967188Y-60957453D01*
X85972174Y-61027145D01*
X85972172Y-61027155D01*
X85970147Y-61036461D01*
X85948249Y-61084405D01*
X85868152Y-61191402D01*
X85868144Y-61191414D01*
X85817902Y-61326121D01*
X85817900Y-61326128D01*
X85811500Y-61385646D01*
X85811500Y-61385655D01*
X85811500Y-61750000D01*
X88188500Y-61750000D01*
X88188500Y-61385672D01*
X88188499Y-61385655D01*
X88188498Y-61385646D01*
X88188498Y-61385638D01*
X88182098Y-61326128D01*
X88182096Y-61326121D01*
X88178010Y-61315165D01*
X88131854Y-61191413D01*
X88131853Y-61191411D01*
X88055186Y-61088998D01*
X88038273Y-61058024D01*
X88032810Y-61043378D01*
X88027824Y-60973688D01*
X88029849Y-60964377D01*
X88051746Y-60916430D01*
X88132296Y-60808831D01*
X88182591Y-60673983D01*
X88189000Y-60614373D01*
X88188999Y-59385628D01*
X88182591Y-59326017D01*
X88132296Y-59191169D01*
X88132295Y-59191168D01*
X88132293Y-59191164D01*
X88132282Y-59191149D01*
X88129892Y-59187429D01*
X88129891Y-59187428D01*
X88126989Y-59184079D01*
X88046047Y-59075955D01*
X88046044Y-59075952D01*
X88046042Y-59075950D01*
X87988116Y-59032586D01*
X87930835Y-58989706D01*
X87930832Y-58989704D01*
X87930830Y-58989703D01*
X87930828Y-58989702D01*
X87847871Y-58958761D01*
X87816898Y-58941848D01*
X87804383Y-58932480D01*
X87762510Y-58876548D01*
X87762509Y-58876547D01*
X87758314Y-58865300D01*
X87750500Y-58821975D01*
X87750500Y-58182328D01*
X87755523Y-58147392D01*
X87759927Y-58132394D01*
X87797672Y-58073643D01*
X87799041Y-58072456D01*
X87853920Y-58044976D01*
X87861479Y-58043332D01*
X87887832Y-58040499D01*
X88047871Y-58040499D01*
X88047872Y-58040499D01*
X88107483Y-58034091D01*
X88242331Y-57983796D01*
X88357546Y-57897546D01*
X88443796Y-57782331D01*
X88494091Y-57647483D01*
X88500500Y-57587873D01*
X88500499Y-55492128D01*
X88494091Y-55432517D01*
X88492395Y-55427971D01*
X88473208Y-55376528D01*
X88473198Y-55376501D01*
X88443797Y-55297671D01*
X88443793Y-55297664D01*
X88357547Y-55182455D01*
X88357544Y-55182452D01*
X88357543Y-55182451D01*
X88357540Y-55182448D01*
X88274156Y-55120027D01*
X88270389Y-55117092D01*
X88236026Y-55089240D01*
X88236331Y-55088683D01*
X88223113Y-55078774D01*
X88221285Y-55077292D01*
X88202719Y-55050390D01*
X88183152Y-55024212D01*
X88182980Y-55021788D01*
X88181599Y-55019787D01*
X88180525Y-54987137D01*
X88178215Y-54954523D01*
X88179969Y-54946487D01*
X88200800Y-54900042D01*
X88216298Y-54878712D01*
X88216299Y-54878710D01*
X93149500Y-54878710D01*
X93149500Y-55121288D01*
X93175146Y-55316100D01*
X93181161Y-55361785D01*
X93216907Y-55495190D01*
X93243947Y-55596104D01*
X93305141Y-55743839D01*
X93336774Y-55820208D01*
X93336779Y-55820219D01*
X93458060Y-56030283D01*
X93458062Y-56030286D01*
X93458281Y-56030615D01*
X93459284Y-56031879D01*
X93605726Y-56222728D01*
X93605730Y-56222733D01*
X93605733Y-56222736D01*
X93605739Y-56222743D01*
X93777256Y-56394260D01*
X93777263Y-56394266D01*
X93798133Y-56410280D01*
X93798134Y-56410281D01*
X93969711Y-56541936D01*
X94179784Y-56663222D01*
X94179785Y-56663222D01*
X94179788Y-56663224D01*
X94403900Y-56756054D01*
X94638211Y-56818838D01*
X94787554Y-56838499D01*
X94878711Y-56850500D01*
X94878712Y-56850500D01*
X95121283Y-56850500D01*
X95121289Y-56850500D01*
X95169388Y-56844167D01*
X95361789Y-56818838D01*
X95596100Y-56756054D01*
X95820212Y-56663224D01*
X96030289Y-56541936D01*
X96222738Y-56394265D01*
X96394265Y-56222738D01*
X96541936Y-56030289D01*
X96663224Y-55820212D01*
X96756054Y-55596100D01*
X96818838Y-55361789D01*
X96850500Y-55121288D01*
X96850500Y-54878712D01*
X96849253Y-54869243D01*
X96829814Y-54721584D01*
X96818838Y-54638211D01*
X96756054Y-54403900D01*
X96663224Y-54179788D01*
X96541936Y-53969711D01*
X96464347Y-53868595D01*
X96394266Y-53777263D01*
X96394260Y-53777256D01*
X96222743Y-53605739D01*
X96222736Y-53605733D01*
X96222733Y-53605730D01*
X96222728Y-53605726D01*
X96031879Y-53459284D01*
X96030615Y-53458281D01*
X96030286Y-53458062D01*
X96030283Y-53458060D01*
X95820215Y-53336777D01*
X95820200Y-53336770D01*
X95776098Y-53318503D01*
X95776097Y-53318503D01*
X95596104Y-53243947D01*
X95409570Y-53193965D01*
X95409568Y-53193964D01*
X95369638Y-53183264D01*
X95361893Y-53180635D01*
X95353726Y-53180100D01*
X95121290Y-53149500D01*
X95121289Y-53149500D01*
X95121288Y-53149500D01*
X94878712Y-53149500D01*
X94878711Y-53149500D01*
X94878710Y-53149500D01*
X94638217Y-53181160D01*
X94403894Y-53243947D01*
X94179790Y-53336774D01*
X94179780Y-53336779D01*
X94179775Y-53336781D01*
X94028705Y-53424003D01*
X94028704Y-53424002D01*
X93983757Y-53449954D01*
X93983755Y-53449956D01*
X93969710Y-53458064D01*
X93969706Y-53458067D01*
X93777270Y-53605726D01*
X93777255Y-53605740D01*
X93777247Y-53605747D01*
X93605747Y-53777247D01*
X93605740Y-53777255D01*
X93605726Y-53777270D01*
X93458073Y-53969697D01*
X93458067Y-53969706D01*
X93336778Y-54179782D01*
X93336774Y-54179790D01*
X93243947Y-54403894D01*
X93181160Y-54638217D01*
X93149500Y-54878710D01*
X88216299Y-54878710D01*
X88258140Y-54821122D01*
X88272203Y-54801766D01*
X88273903Y-54799426D01*
X88283343Y-54786433D01*
X88390568Y-54575992D01*
X88463553Y-54351368D01*
X88483719Y-54224044D01*
X88484144Y-54221364D01*
X88500500Y-54118095D01*
X88500500Y-53881902D01*
X88498394Y-53868603D01*
X88463553Y-53648631D01*
X88417251Y-53506130D01*
X88390568Y-53424008D01*
X88390566Y-53424005D01*
X88390566Y-53424003D01*
X88388329Y-53419613D01*
X88388019Y-53418818D01*
X88387283Y-53417560D01*
X88318735Y-53283028D01*
X88283343Y-53213567D01*
X88144517Y-53022490D01*
X87977510Y-52855483D01*
X87786433Y-52716657D01*
X87575996Y-52609433D01*
X87351368Y-52536446D01*
X87351362Y-52536445D01*
X87118102Y-52499500D01*
X87118097Y-52499500D01*
X87118092Y-52499500D01*
X86881908Y-52499500D01*
X86881903Y-52499500D01*
X86881898Y-52499500D01*
X86648636Y-52536445D01*
X86648634Y-52536445D01*
X86648631Y-52536446D01*
X86424003Y-52609433D01*
X86352972Y-52645625D01*
X86213566Y-52716656D01*
X86167330Y-52750250D01*
X86034361Y-52846858D01*
X86026980Y-52850991D01*
X85850990Y-53026981D01*
X85846858Y-53034360D01*
X85738167Y-53183960D01*
X85713570Y-53209271D01*
X85695932Y-53222872D01*
X85643122Y-53246541D01*
X85640548Y-53247024D01*
X85638735Y-53247365D01*
X85615828Y-53249500D01*
X84326078Y-53249500D01*
X84181096Y-53278338D01*
X84181079Y-53278344D01*
X84044517Y-53334908D01*
X84044508Y-53334913D01*
X84044491Y-53334923D01*
X83921581Y-53417049D01*
X83921580Y-53417050D01*
X83921574Y-53417055D01*
X82629344Y-54709285D01*
X82629339Y-54709291D01*
X82617054Y-54721577D01*
X82617049Y-54721581D01*
X82583028Y-54772497D01*
X82583029Y-54772498D01*
X82557458Y-54810766D01*
X82557446Y-54810785D01*
X82534912Y-54844510D01*
X82478347Y-54981072D01*
X82478341Y-54981087D01*
X82478338Y-54981098D01*
X82449500Y-55126076D01*
X82449500Y-55984715D01*
X82444476Y-56019653D01*
X82441289Y-56030506D01*
X82403514Y-56089283D01*
X82339957Y-56118306D01*
X82270807Y-56108365D01*
X82263829Y-56105178D01*
X82227657Y-56080064D01*
X81937331Y-55789738D01*
X81916179Y-55761482D01*
X81903572Y-55738393D01*
X81888405Y-55678968D01*
X81888405Y-53701673D01*
X81888404Y-53701669D01*
X81888404Y-53701664D01*
X81878545Y-53605167D01*
X81878374Y-53601799D01*
X81877904Y-53598884D01*
X81877904Y-53598883D01*
X81822719Y-53432346D01*
X81798499Y-53393080D01*
X81798499Y-53393079D01*
X81730629Y-53283045D01*
X81730622Y-53283034D01*
X81730618Y-53283028D01*
X81730615Y-53283024D01*
X81730614Y-53283023D01*
X81730612Y-53283020D01*
X81606565Y-53158973D01*
X81606562Y-53158971D01*
X81606560Y-53158969D01*
X81606556Y-53158966D01*
X81520579Y-53105934D01*
X81457248Y-53066870D01*
X81457244Y-53066868D01*
X81457242Y-53066867D01*
X81457240Y-53066866D01*
X81373970Y-53039273D01*
X81373969Y-53039272D01*
X81299169Y-53014486D01*
X81296345Y-53013319D01*
X81290701Y-53011679D01*
X81187929Y-53001180D01*
X81187920Y-53001180D01*
X81187913Y-53001180D01*
X78787897Y-53001180D01*
X78787889Y-53001180D01*
X78787879Y-53001180D01*
X78683400Y-53011854D01*
X78677820Y-53014095D01*
X78518572Y-53066864D01*
X78518560Y-53066870D01*
X78369259Y-53158962D01*
X78369246Y-53158971D01*
X78369243Y-53158973D01*
X78245198Y-53283018D01*
X78245196Y-53283021D01*
X78245187Y-53283034D01*
X78153095Y-53432335D01*
X78153089Y-53432347D01*
X78100320Y-53591595D01*
X78098079Y-53597175D01*
X78087405Y-53701654D01*
X78087405Y-56101704D01*
X78097904Y-56204476D01*
X78099545Y-56210124D01*
X78100710Y-56212942D01*
X78119158Y-56268612D01*
X78119159Y-56268614D01*
X78153088Y-56371008D01*
X78153089Y-56371010D01*
X78153095Y-56371023D01*
X78216463Y-56473756D01*
X78245191Y-56520331D01*
X78245194Y-56520335D01*
X78245196Y-56520337D01*
X78245198Y-56520340D01*
X78369243Y-56644385D01*
X78369246Y-56644387D01*
X78369249Y-56644390D01*
X78369253Y-56644393D01*
X78518567Y-56736492D01*
X78518569Y-56736493D01*
X78518571Y-56736494D01*
X78685108Y-56791679D01*
X78787897Y-56802180D01*
X80757845Y-56802180D01*
X80792777Y-56807201D01*
X80818021Y-56814614D01*
X80870767Y-56845910D01*
X82400573Y-58375715D01*
X82421723Y-58403967D01*
X82434331Y-58427056D01*
X82449500Y-58486485D01*
X82449500Y-67819940D01*
X82444476Y-67854877D01*
X82437064Y-67880118D01*
X82405769Y-67932862D01*
X81268058Y-69070573D01*
X81239807Y-69091722D01*
X81216719Y-69104330D01*
X81157289Y-69119500D01*
X74750060Y-69119500D01*
X74715124Y-69114477D01*
X74689882Y-69107065D01*
X74637137Y-69075769D01*
X73509220Y-67947852D01*
X74400000Y-67947852D01*
X74406400Y-68007370D01*
X74406402Y-68007377D01*
X74456646Y-68142088D01*
X74456648Y-68142091D01*
X74542807Y-68257185D01*
X74542813Y-68257191D01*
X74571747Y-68278850D01*
X74657906Y-68343350D01*
X74657913Y-68343354D01*
X74792620Y-68393596D01*
X74792627Y-68393598D01*
X74799468Y-68394333D01*
X74852138Y-68399998D01*
X74852155Y-68399999D01*
X74852172Y-68400000D01*
X77750000Y-68400000D01*
X78250000Y-68400000D01*
X81147828Y-68400000D01*
X81147836Y-68400000D01*
X81147847Y-68399999D01*
X81183560Y-68396158D01*
X81207372Y-68393598D01*
X81207379Y-68393596D01*
X81342086Y-68343354D01*
X81342093Y-68343350D01*
X81457187Y-68257190D01*
X81457190Y-68257187D01*
X81543350Y-68142093D01*
X81543354Y-68142086D01*
X81593596Y-68007379D01*
X81593598Y-68007372D01*
X81595069Y-67993689D01*
X81599998Y-67947860D01*
X81600000Y-67947827D01*
X81600000Y-65250000D01*
X78250000Y-65250000D01*
X78250000Y-68400000D01*
X77750000Y-68400000D01*
X77750000Y-65250000D01*
X74400000Y-65250000D01*
X74400000Y-67947852D01*
X73509220Y-67947852D01*
X73209425Y-67648057D01*
X73188273Y-67619801D01*
X73175666Y-67596712D01*
X73160499Y-67537287D01*
X73160499Y-66442122D01*
X73160339Y-66440197D01*
X73160112Y-66438538D01*
X73154091Y-66382517D01*
X73154091Y-66382516D01*
X73103796Y-66247669D01*
X73103795Y-66247668D01*
X73103793Y-66247664D01*
X73103782Y-66247649D01*
X73101392Y-66243929D01*
X73101391Y-66243928D01*
X73098489Y-66240579D01*
X73017547Y-66132455D01*
X73017544Y-66132452D01*
X73017542Y-66132450D01*
X72959616Y-66089086D01*
X72902335Y-66046206D01*
X72902332Y-66046204D01*
X72902330Y-66046203D01*
X72902328Y-66046202D01*
X72767482Y-65995908D01*
X72767483Y-65995908D01*
X72707883Y-65989501D01*
X72707881Y-65989500D01*
X72707873Y-65989500D01*
X72707864Y-65989500D01*
X72706841Y-65989500D01*
X69612123Y-65989500D01*
X69610192Y-65989659D01*
X69608545Y-65989885D01*
X69552516Y-65995908D01*
X69417666Y-66046204D01*
X69417665Y-66046205D01*
X69302456Y-66132450D01*
X69302450Y-66132456D01*
X69216205Y-66247665D01*
X69216203Y-66247668D01*
X69165908Y-66382516D01*
X69159500Y-66442125D01*
X69159500Y-68137936D01*
X69159602Y-68138822D01*
X69160111Y-68143554D01*
X69158851Y-68178834D01*
X69154607Y-68202355D01*
X69133157Y-68252862D01*
X69132247Y-68254124D01*
X69119349Y-68269280D01*
X67274787Y-70113843D01*
X67246537Y-70134992D01*
X67236610Y-70140413D01*
X67168337Y-70155267D01*
X67102872Y-70130853D01*
X67060999Y-70074921D01*
X67058312Y-70067715D01*
X67050499Y-70024395D01*
X67050499Y-69553597D01*
X67050499Y-69552129D01*
X67050498Y-69552123D01*
X67050497Y-69552116D01*
X67044091Y-69492517D01*
X67031156Y-69457837D01*
X67028021Y-69449432D01*
X67028020Y-69449426D01*
X66993798Y-69357673D01*
X66993797Y-69357671D01*
X66993795Y-69357668D01*
X66993793Y-69357664D01*
X66918390Y-69256939D01*
X66907548Y-69242456D01*
X66907542Y-69242450D01*
X66834596Y-69187843D01*
X66792335Y-69156206D01*
X66792332Y-69156204D01*
X66792330Y-69156203D01*
X66792328Y-69156202D01*
X66657482Y-69105908D01*
X66657483Y-69105908D01*
X66597883Y-69099501D01*
X66597881Y-69099500D01*
X66597873Y-69099500D01*
X66597864Y-69099500D01*
X66596841Y-69099500D01*
X65402123Y-69099500D01*
X65400192Y-69099659D01*
X65398545Y-69099885D01*
X65342516Y-69105908D01*
X65216337Y-69152970D01*
X65207666Y-69156204D01*
X65207665Y-69156205D01*
X65092456Y-69242450D01*
X65092450Y-69242456D01*
X65006205Y-69357665D01*
X65006203Y-69357668D01*
X64955908Y-69492516D01*
X64949500Y-69552125D01*
X64949500Y-69552129D01*
X64949500Y-69552135D01*
X64949500Y-72447870D01*
X64949501Y-72447876D01*
X64955908Y-72507483D01*
X64992746Y-72606251D01*
X64994286Y-72612014D01*
X64994168Y-72616775D01*
X64998169Y-72635164D01*
X65000174Y-72663195D01*
X64992672Y-72715375D01*
X64956406Y-72812609D01*
X64956402Y-72812620D01*
X64956400Y-72812628D01*
X64950000Y-72872149D01*
X64950000Y-72872155D01*
X64950000Y-74070000D01*
X67050000Y-74070000D01*
X67050000Y-72872172D01*
X67049999Y-72872155D01*
X67049998Y-72872152D01*
X67049998Y-72872141D01*
X67043598Y-72812628D01*
X67043597Y-72812624D01*
X67043595Y-72812619D01*
X67009331Y-72720751D01*
X67001829Y-72686265D01*
X66999824Y-72658233D01*
X67007327Y-72606052D01*
X67044088Y-72507491D01*
X67044087Y-72507491D01*
X67044091Y-72507483D01*
X67050500Y-72447873D01*
X67050500Y-71892328D01*
X67055522Y-71857397D01*
X67056628Y-71853629D01*
X67059925Y-71842398D01*
X67097696Y-71783622D01*
X67099076Y-71782426D01*
X67153920Y-71754977D01*
X67161479Y-71753333D01*
X67187832Y-71750500D01*
X67523920Y-71750500D01*
X67621462Y-71731096D01*
X67668913Y-71721658D01*
X67805495Y-71665084D01*
X67865898Y-71624724D01*
X67928416Y-71582952D01*
X70871943Y-68639421D01*
X70900197Y-68618272D01*
X70923287Y-68605665D01*
X70982710Y-68590499D01*
X71959939Y-68590499D01*
X71994871Y-68595520D01*
X72020115Y-68602933D01*
X72072861Y-68634229D01*
X72942076Y-69503444D01*
X72963227Y-69531697D01*
X72969754Y-69543650D01*
X72984606Y-69611923D01*
X72960190Y-69677387D01*
X72911422Y-69716329D01*
X72903878Y-69719693D01*
X72877582Y-69728057D01*
X72866514Y-69730259D01*
X72866504Y-69730262D01*
X72866500Y-69730263D01*
X72866486Y-69730268D01*
X72720833Y-69790598D01*
X72720824Y-69790603D01*
X72720807Y-69790613D01*
X72589708Y-69878211D01*
X72589707Y-69878212D01*
X72589701Y-69878217D01*
X72478217Y-69989701D01*
X72478212Y-69989707D01*
X72478211Y-69989708D01*
X72390613Y-70120807D01*
X72390603Y-70120824D01*
X72390598Y-70120833D01*
X72330264Y-70266496D01*
X72330257Y-70266527D01*
X72299500Y-70421150D01*
X72299500Y-70578850D01*
X72317715Y-70670422D01*
X72319604Y-70705666D01*
X72318390Y-70719231D01*
X72292808Y-70784249D01*
X72236136Y-70825115D01*
X72173963Y-70830400D01*
X72165819Y-70829006D01*
X72139289Y-70821345D01*
X72080000Y-70796787D01*
X72080000Y-73463212D01*
X72199463Y-73413729D01*
X72199470Y-73413725D01*
X72327220Y-73328365D01*
X72327224Y-73328362D01*
X72364359Y-73291226D01*
X72392604Y-73270081D01*
X72406336Y-73262583D01*
X72474591Y-73247732D01*
X72476401Y-73247861D01*
X72534595Y-73267226D01*
X72541112Y-73271414D01*
X72561752Y-73288046D01*
X72602456Y-73328751D01*
X72602460Y-73328754D01*
X72728468Y-73412951D01*
X72728467Y-73412951D01*
X72731317Y-73414855D01*
X72735914Y-73416500D01*
X72761466Y-73427084D01*
X72761474Y-73427086D01*
X72761476Y-73427087D01*
X72872336Y-73473006D01*
X72872340Y-73473006D01*
X72872341Y-73473007D01*
X72887177Y-73475958D01*
X72923297Y-73494850D01*
X72952182Y-73508049D01*
X72971908Y-73538757D01*
X72972746Y-73539874D01*
X72973288Y-73540906D01*
X72989944Y-73566834D01*
X72989930Y-73636704D01*
X72952144Y-73695475D01*
X72922448Y-73714550D01*
X72917788Y-73716677D01*
X72890497Y-73725488D01*
X72866514Y-73730259D01*
X72866507Y-73730261D01*
X72866505Y-73730261D01*
X72866475Y-73730272D01*
X72720836Y-73790597D01*
X72720823Y-73790603D01*
X72691928Y-73809911D01*
X72691925Y-73809913D01*
X72678775Y-73818699D01*
X72646942Y-73833929D01*
X72633486Y-73838142D01*
X72615309Y-73843834D01*
X72578256Y-73849500D01*
X72038638Y-73849500D01*
X72003702Y-73844477D01*
X71978460Y-73837065D01*
X71925715Y-73805769D01*
X71628926Y-73508980D01*
X71607774Y-73480724D01*
X71595167Y-73457635D01*
X71580000Y-73398210D01*
X71580000Y-70796787D01*
X71579999Y-70796787D01*
X71579998Y-70796787D01*
X71579995Y-70796788D01*
X71460539Y-70846267D01*
X71460527Y-70846274D01*
X71332783Y-70931631D01*
X71332778Y-70931634D01*
X71332769Y-70931642D01*
X71290641Y-70973771D01*
X71262383Y-70994924D01*
X71248663Y-71002415D01*
X71180405Y-71017266D01*
X71178599Y-71017137D01*
X71120398Y-70997769D01*
X71113883Y-70993582D01*
X71093246Y-70976951D01*
X71047547Y-70931251D01*
X71047542Y-70931247D01*
X71047541Y-70931246D01*
X71004734Y-70902643D01*
X70919703Y-70845827D01*
X70919701Y-70845826D01*
X70777665Y-70786994D01*
X70777656Y-70786991D01*
X70777653Y-70786990D01*
X70652753Y-70762147D01*
X70626877Y-70757000D01*
X70626876Y-70757000D01*
X70473123Y-70757000D01*
X70473122Y-70757000D01*
X70447246Y-70762147D01*
X70322345Y-70786990D01*
X70322336Y-70786993D01*
X70292617Y-70799303D01*
X70180511Y-70845738D01*
X70180296Y-70845827D01*
X70052457Y-70931246D01*
X70052456Y-70931247D01*
X70052450Y-70931252D01*
X69943752Y-71039950D01*
X69943747Y-71039956D01*
X69943746Y-71039957D01*
X69871389Y-71148248D01*
X69858327Y-71167796D01*
X69858326Y-71167798D01*
X69841344Y-71208797D01*
X69799493Y-71309836D01*
X69799490Y-71309845D01*
X69784003Y-71387708D01*
X69769500Y-71460622D01*
X69769500Y-72799377D01*
X69771671Y-72810290D01*
X69799490Y-72950153D01*
X69799497Y-72950174D01*
X69858323Y-73092195D01*
X69858324Y-73092197D01*
X69858326Y-73092201D01*
X69858329Y-73092206D01*
X69861915Y-73097573D01*
X69868698Y-73107725D01*
X69883926Y-73139553D01*
X69893832Y-73171183D01*
X69899500Y-73208243D01*
X69899500Y-73414072D01*
X69910034Y-73467027D01*
X69910035Y-73467033D01*
X69918943Y-73511818D01*
X69918944Y-73511821D01*
X69924303Y-73538757D01*
X69924500Y-73539748D01*
X69973534Y-73658126D01*
X69997470Y-73693948D01*
X70011235Y-73714550D01*
X70021732Y-73730259D01*
X70021732Y-73730260D01*
X70044727Y-73764675D01*
X71285311Y-75005259D01*
X71285328Y-75005275D01*
X71285331Y-75005277D01*
X71391874Y-75076466D01*
X71461221Y-75105189D01*
X71504644Y-75123176D01*
X71509056Y-75125263D01*
X71635925Y-75150500D01*
X71635928Y-75150500D01*
X71635931Y-75150500D01*
X72577235Y-75150500D01*
X72612170Y-75155523D01*
X72643979Y-75164863D01*
X72677934Y-75180737D01*
X72720821Y-75209394D01*
X72720823Y-75209395D01*
X72720827Y-75209397D01*
X72818853Y-75250000D01*
X72866503Y-75269737D01*
X72866505Y-75269737D01*
X72866510Y-75269739D01*
X72992630Y-75294825D01*
X73013513Y-75298979D01*
X73016247Y-75299703D01*
X73021155Y-75300500D01*
X73178844Y-75300500D01*
X73182964Y-75300500D01*
X73190814Y-75298118D01*
X73333497Y-75269737D01*
X73427763Y-75230691D01*
X73431604Y-75229099D01*
X73431643Y-75229095D01*
X73465764Y-75220384D01*
X73479570Y-75218899D01*
X73497141Y-75222069D01*
X73501075Y-75221647D01*
X73504605Y-75223415D01*
X73548326Y-75231301D01*
X73599464Y-75278907D01*
X73602141Y-75283419D01*
X73619500Y-75346693D01*
X73619500Y-76444466D01*
X73614475Y-76479407D01*
X73610564Y-76492724D01*
X73572787Y-76551500D01*
X73509229Y-76580522D01*
X73509225Y-76580522D01*
X73504040Y-76581267D01*
X73438954Y-76573090D01*
X73396787Y-76555625D01*
X73396787Y-76555624D01*
X73396784Y-76555624D01*
X73341894Y-76532888D01*
X73331718Y-76528673D01*
X73331716Y-76528672D01*
X73327659Y-76526991D01*
X73213160Y-76504217D01*
X73176877Y-76497000D01*
X73176876Y-76497000D01*
X73023123Y-76497000D01*
X73023122Y-76497000D01*
X72986839Y-76504217D01*
X72872345Y-76526990D01*
X72872336Y-76526993D01*
X72834401Y-76542706D01*
X72732211Y-76585034D01*
X72730296Y-76585827D01*
X72602464Y-76671242D01*
X72602459Y-76671245D01*
X72602450Y-76671253D01*
X72564933Y-76708771D01*
X72536675Y-76729924D01*
X72522955Y-76737415D01*
X72454697Y-76752266D01*
X72452891Y-76752137D01*
X72394690Y-76732769D01*
X72388175Y-76728582D01*
X72367538Y-76711951D01*
X72327228Y-76671640D01*
X72327223Y-76671636D01*
X72327222Y-76671635D01*
X72199471Y-76586274D01*
X72199459Y-76586267D01*
X72080000Y-76536786D01*
X72080000Y-76536787D01*
X72080000Y-79203212D01*
X72199463Y-79153729D01*
X72199464Y-79153728D01*
X72241789Y-79125447D01*
X72273624Y-79110217D01*
X72280149Y-79108174D01*
X72286872Y-79106070D01*
X72304695Y-79105752D01*
X72308463Y-79104573D01*
X72312270Y-79105617D01*
X72356730Y-79104826D01*
X72416146Y-79141518D01*
X72417726Y-79143277D01*
X72447898Y-79206295D01*
X72449500Y-79226164D01*
X72449500Y-79264069D01*
X72449500Y-79264071D01*
X72449499Y-79264071D01*
X72472116Y-79377765D01*
X72472117Y-79377767D01*
X72474499Y-79389745D01*
X72523533Y-79508123D01*
X72523534Y-79508125D01*
X72594726Y-79614673D01*
X72594729Y-79614677D01*
X73385324Y-80405272D01*
X73447092Y-80446544D01*
X73447091Y-80446544D01*
X73485536Y-80472232D01*
X73485538Y-80472233D01*
X73491866Y-80476461D01*
X73491872Y-80476464D01*
X73491873Y-80476465D01*
X73605361Y-80523473D01*
X73605947Y-80523724D01*
X73606141Y-80523884D01*
X73609055Y-80525262D01*
X73735926Y-80550500D01*
X73735928Y-80550500D01*
X73735931Y-80550500D01*
X75177235Y-80550500D01*
X75212167Y-80555521D01*
X75243981Y-80564863D01*
X75277932Y-80580737D01*
X75288949Y-80588098D01*
X75315196Y-80611675D01*
X75322451Y-80620355D01*
X75350339Y-80684417D01*
X75339164Y-80753387D01*
X75292494Y-80805356D01*
X75288494Y-80807828D01*
X75236563Y-80825635D01*
X75187518Y-80830908D01*
X75187509Y-80830910D01*
X75074044Y-80873230D01*
X75057013Y-80878227D01*
X75037035Y-80882563D01*
X75021460Y-80885942D01*
X74960230Y-80883742D01*
X74929146Y-80874616D01*
X74920744Y-80871820D01*
X74812377Y-80831402D01*
X74812370Y-80831400D01*
X74752852Y-80825000D01*
X74752844Y-80825000D01*
X74250000Y-80825000D01*
X74250000Y-83175000D01*
X74752828Y-83175000D01*
X74752836Y-83175000D01*
X74752844Y-83174999D01*
X74752983Y-83174984D01*
X74812372Y-83168598D01*
X74812376Y-83168597D01*
X74923696Y-83127076D01*
X74940546Y-83122121D01*
X74956646Y-83118602D01*
X74956647Y-83118603D01*
X74977242Y-83114102D01*
X75038600Y-83116251D01*
X75043604Y-83117719D01*
X75043604Y-83117718D01*
X75068220Y-83124936D01*
X75076650Y-83127740D01*
X75102157Y-83137254D01*
X75137512Y-83163721D01*
X75194444Y-83169835D01*
X75194443Y-83169839D01*
X75194458Y-83169836D01*
X75247127Y-83175500D01*
X76752872Y-83175499D01*
X76812483Y-83169091D01*
X76947331Y-83118796D01*
X77062546Y-83032546D01*
X77148796Y-82917331D01*
X77199091Y-82782483D01*
X77205500Y-82722873D01*
X77205499Y-81925055D01*
X77210521Y-81890124D01*
X77217932Y-81864883D01*
X77249226Y-81812139D01*
X77295214Y-81766151D01*
X77323457Y-81745007D01*
X77333391Y-81739583D01*
X77401661Y-81724730D01*
X77467126Y-81749144D01*
X77508999Y-81805076D01*
X77510356Y-81808714D01*
X77511682Y-81812268D01*
X77519500Y-81855602D01*
X77519500Y-84182361D01*
X77514476Y-84217299D01*
X77511289Y-84228152D01*
X77473514Y-84286929D01*
X77409957Y-84315952D01*
X77340807Y-84306011D01*
X77333829Y-84302824D01*
X77297657Y-84277710D01*
X77014677Y-83994729D01*
X77014673Y-83994726D01*
X77014669Y-83994723D01*
X76908127Y-83923535D01*
X76908125Y-83923534D01*
X76789753Y-83874502D01*
X76789733Y-83874495D01*
X76789725Y-83874493D01*
X76664074Y-83849500D01*
X76664071Y-83849500D01*
X76664069Y-83849500D01*
X71538638Y-83849500D01*
X71503702Y-83844477D01*
X71478460Y-83837065D01*
X71425715Y-83805769D01*
X71249426Y-83629480D01*
X71228274Y-83601224D01*
X71215667Y-83578135D01*
X71200500Y-83518710D01*
X71200500Y-82722852D01*
X72795000Y-82722852D01*
X72801400Y-82782370D01*
X72801401Y-82782372D01*
X72801403Y-82782379D01*
X72851645Y-82917086D01*
X72851649Y-82917093D01*
X72894487Y-82974317D01*
X72937807Y-83032185D01*
X72937813Y-83032191D01*
X72938289Y-83032547D01*
X73052906Y-83118350D01*
X73052913Y-83118354D01*
X73187620Y-83168596D01*
X73187627Y-83168598D01*
X73192212Y-83169091D01*
X73247138Y-83174998D01*
X73247155Y-83174999D01*
X73247172Y-83175000D01*
X73750000Y-83175000D01*
X73750000Y-82250000D01*
X72795000Y-82250000D01*
X72795000Y-82722852D01*
X71200500Y-82722852D01*
X71200500Y-81277146D01*
X72795000Y-81277146D01*
X72795000Y-81277155D01*
X72795000Y-81750000D01*
X73750000Y-81750000D01*
X73750000Y-80825000D01*
X73247146Y-80825000D01*
X73187628Y-80831400D01*
X73187621Y-80831402D01*
X73052910Y-80881646D01*
X73052907Y-80881648D01*
X72937813Y-80967807D01*
X72937807Y-80967813D01*
X72851648Y-81082907D01*
X72851646Y-81082910D01*
X72801402Y-81217621D01*
X72801400Y-81217628D01*
X72795000Y-81277146D01*
X71200500Y-81277146D01*
X71200500Y-79229796D01*
X71205523Y-79194862D01*
X71209360Y-79181794D01*
X71247134Y-79123016D01*
X71310689Y-79093990D01*
X71372712Y-79100941D01*
X71380433Y-79103900D01*
X71404938Y-79116580D01*
X71460529Y-79153725D01*
X71460532Y-79153727D01*
X71460534Y-79153728D01*
X71460545Y-79153733D01*
X71508297Y-79173512D01*
X71579999Y-79203212D01*
X71580000Y-79203212D01*
X71580000Y-76536787D01*
X71579999Y-76536787D01*
X71579998Y-76536787D01*
X71579995Y-76536788D01*
X71460539Y-76586267D01*
X71460527Y-76586274D01*
X71332783Y-76671631D01*
X71332778Y-76671634D01*
X71332769Y-76671642D01*
X71290641Y-76713771D01*
X71262383Y-76734924D01*
X71248663Y-76742415D01*
X71180405Y-76757266D01*
X71178599Y-76757137D01*
X71120398Y-76737769D01*
X71113883Y-76733582D01*
X71093246Y-76716951D01*
X71047547Y-76671251D01*
X71047542Y-76671247D01*
X71047541Y-76671246D01*
X71004734Y-76642643D01*
X70919703Y-76585827D01*
X70919701Y-76585826D01*
X70777665Y-76526994D01*
X70777656Y-76526991D01*
X70777653Y-76526990D01*
X70663160Y-76504217D01*
X70626877Y-76497000D01*
X70626876Y-76497000D01*
X70473123Y-76497000D01*
X70473122Y-76497000D01*
X70436839Y-76504217D01*
X70322345Y-76526990D01*
X70322336Y-76526993D01*
X70284401Y-76542706D01*
X70182211Y-76585034D01*
X70180296Y-76585827D01*
X70052457Y-76671246D01*
X70052456Y-76671247D01*
X70052450Y-76671252D01*
X69943752Y-76779950D01*
X69943747Y-76779956D01*
X69943746Y-76779957D01*
X69871093Y-76888690D01*
X69858327Y-76907796D01*
X69858326Y-76907798D01*
X69849968Y-76927977D01*
X69799493Y-77049836D01*
X69799490Y-77049845D01*
X69769500Y-77200623D01*
X69769500Y-78539375D01*
X69799490Y-78690153D01*
X69799497Y-78690174D01*
X69858323Y-78832195D01*
X69858330Y-78832207D01*
X69858338Y-78832220D01*
X69868698Y-78847725D01*
X69883926Y-78879553D01*
X69893832Y-78911183D01*
X69899500Y-78948243D01*
X69899500Y-83914070D01*
X69912666Y-83980254D01*
X69912668Y-83980267D01*
X69915542Y-83994720D01*
X69924497Y-84039739D01*
X69924498Y-84039742D01*
X69929854Y-84052671D01*
X69973535Y-84158127D01*
X70038413Y-84255226D01*
X70044720Y-84264664D01*
X70044729Y-84264677D01*
X70044730Y-84264678D01*
X70416790Y-84636737D01*
X70785325Y-85005272D01*
X70785332Y-85005278D01*
X70873320Y-85064069D01*
X70873321Y-85064069D01*
X70891873Y-85076465D01*
X71006923Y-85124120D01*
X71009193Y-85125169D01*
X71009371Y-85125325D01*
X71135927Y-85150500D01*
X71135928Y-85150500D01*
X71135931Y-85150500D01*
X76261362Y-85150500D01*
X76296294Y-85155521D01*
X76321538Y-85162934D01*
X76374284Y-85194230D01*
X78470376Y-87290322D01*
X78491526Y-87318575D01*
X78507413Y-87347669D01*
X78520199Y-87382905D01*
X78530257Y-87433471D01*
X78530264Y-87433502D01*
X78590598Y-87579165D01*
X78590603Y-87579174D01*
X78590613Y-87579191D01*
X78678211Y-87710290D01*
X78678212Y-87710291D01*
X78678217Y-87710297D01*
X78789701Y-87821781D01*
X78789707Y-87821786D01*
X78789711Y-87821789D01*
X78864603Y-87871830D01*
X78890857Y-87895414D01*
X78899759Y-87906066D01*
X78927642Y-87970131D01*
X78916465Y-88039096D01*
X78913591Y-88045103D01*
X78877221Y-88089961D01*
X78678147Y-88242718D01*
X78678139Y-88242725D01*
X78492723Y-88428142D01*
X78492714Y-88428152D01*
X78333074Y-88636195D01*
X78201967Y-88863281D01*
X78201954Y-88863305D01*
X78101602Y-89105578D01*
X78033729Y-89358885D01*
X78033713Y-89359010D01*
X78030740Y-89381592D01*
X77999500Y-89618872D01*
X77999500Y-89881127D01*
X78026034Y-90082664D01*
X78033730Y-90141116D01*
X78087866Y-90343155D01*
X78101602Y-90394418D01*
X78101605Y-90394428D01*
X78168503Y-90555936D01*
X78201954Y-90636693D01*
X78201967Y-90636717D01*
X78333074Y-90863803D01*
X78492718Y-91071851D01*
X78492721Y-91071855D01*
X78678120Y-91257255D01*
X78678142Y-91257276D01*
X78678148Y-91257281D01*
X78886195Y-91416924D01*
X79113281Y-91548031D01*
X79113288Y-91548034D01*
X79113299Y-91548041D01*
X79113305Y-91548044D01*
X79300305Y-91625502D01*
X79355581Y-91648398D01*
X79608884Y-91716270D01*
X79857188Y-91748960D01*
X79865940Y-91750113D01*
X79868880Y-91750500D01*
X79868887Y-91750500D01*
X80131113Y-91750500D01*
X80131120Y-91750500D01*
X80391116Y-91716270D01*
X80644419Y-91648398D01*
X80886697Y-91548043D01*
X81113803Y-91416924D01*
X81321851Y-91257282D01*
X81321855Y-91257277D01*
X81321860Y-91257274D01*
X81408327Y-91170807D01*
X81502433Y-91076702D01*
X81503209Y-91076006D01*
X81506758Y-91072385D01*
X81507257Y-91071880D01*
X81507267Y-91071866D01*
X81507274Y-91071860D01*
X81507277Y-91071855D01*
X81507282Y-91071851D01*
X81507398Y-91071699D01*
X81507624Y-91071411D01*
X81507628Y-91071407D01*
X81511074Y-91066993D01*
X81511574Y-91066256D01*
X81666924Y-90863803D01*
X81798043Y-90636697D01*
X81898398Y-90394419D01*
X81966270Y-90141116D01*
X82000500Y-89881120D01*
X82000500Y-89618880D01*
X81966270Y-89358884D01*
X81917649Y-89177426D01*
X81917745Y-89140375D01*
X81914252Y-89122267D01*
X81917816Y-89113360D01*
X81917818Y-89112617D01*
X81920525Y-89102721D01*
X81921920Y-89103102D01*
X81940209Y-89057398D01*
X81997116Y-89016859D01*
X82058142Y-89011730D01*
X82058751Y-89011832D01*
X82110223Y-89033125D01*
X82112062Y-89034434D01*
X82127812Y-89047758D01*
X82400573Y-89320519D01*
X82421723Y-89348771D01*
X82434331Y-89371860D01*
X82449500Y-89431289D01*
X82449500Y-95061362D01*
X82444476Y-95096299D01*
X82437064Y-95121540D01*
X82405769Y-95174284D01*
X82133098Y-95446954D01*
X82104848Y-95468103D01*
X82094921Y-95473524D01*
X82026648Y-95488378D01*
X81961183Y-95463964D01*
X81919310Y-95408032D01*
X81919078Y-95407411D01*
X81911837Y-95352329D01*
X81912050Y-95350092D01*
X81915710Y-95329804D01*
X81966270Y-95141116D01*
X82000500Y-94881120D01*
X82000500Y-94618880D01*
X81966270Y-94358884D01*
X81898398Y-94105581D01*
X81830563Y-93941812D01*
X81798046Y-93863309D01*
X81798041Y-93863299D01*
X81798031Y-93863281D01*
X81666924Y-93636195D01*
X81507281Y-93428148D01*
X81507276Y-93428142D01*
X81507255Y-93428120D01*
X81321855Y-93242721D01*
X81321851Y-93242718D01*
X81113803Y-93083074D01*
X80886717Y-92951967D01*
X80886693Y-92951954D01*
X80648474Y-92853281D01*
X80648467Y-92853278D01*
X80644425Y-92851603D01*
X80452931Y-92800293D01*
X80391116Y-92783730D01*
X80333339Y-92776123D01*
X80206162Y-92759379D01*
X80131128Y-92749500D01*
X80131127Y-92749500D01*
X80131120Y-92749500D01*
X79868880Y-92749500D01*
X79868872Y-92749500D01*
X79645373Y-92778926D01*
X79608884Y-92783730D01*
X79566124Y-92795187D01*
X79523363Y-92806645D01*
X79355584Y-92851600D01*
X79355561Y-92851608D01*
X79212400Y-92910909D01*
X79178199Y-92919637D01*
X79170055Y-92920512D01*
X79162658Y-92921308D01*
X79093906Y-92908903D01*
X79081729Y-92902808D01*
X79049550Y-92879604D01*
X77664674Y-91494727D01*
X77664673Y-91494726D01*
X77664669Y-91494723D01*
X77558127Y-91423535D01*
X77542167Y-91416924D01*
X77439753Y-91374502D01*
X77439733Y-91374495D01*
X77439725Y-91374493D01*
X77314074Y-91349500D01*
X77314071Y-91349500D01*
X77314069Y-91349500D01*
X76546826Y-91349500D01*
X76511891Y-91344477D01*
X76501037Y-91341290D01*
X76442259Y-91303516D01*
X76413234Y-91239960D01*
X76423174Y-91170811D01*
X76426364Y-91163824D01*
X76451474Y-91127659D01*
X76502433Y-91076701D01*
X76503211Y-91076004D01*
X76506762Y-91072381D01*
X76507256Y-91071881D01*
X76507266Y-91071867D01*
X76507274Y-91071860D01*
X76507277Y-91071855D01*
X76507282Y-91071851D01*
X76507405Y-91071690D01*
X76507624Y-91071411D01*
X76507628Y-91071407D01*
X76511074Y-91066993D01*
X76511574Y-91066256D01*
X76666924Y-90863803D01*
X76798043Y-90636697D01*
X76898398Y-90394419D01*
X76966270Y-90141116D01*
X77000500Y-89881120D01*
X77000500Y-89618880D01*
X76966270Y-89358884D01*
X76898398Y-89105581D01*
X76871796Y-89041357D01*
X76798046Y-88863309D01*
X76798041Y-88863299D01*
X76798031Y-88863281D01*
X76666924Y-88636195D01*
X76580550Y-88523633D01*
X76511389Y-88433501D01*
X76507282Y-88428149D01*
X76507281Y-88428148D01*
X76507274Y-88428140D01*
X76506430Y-88427296D01*
X76506427Y-88427292D01*
X76321855Y-88242721D01*
X76321851Y-88242718D01*
X76113803Y-88083074D01*
X75886717Y-87951967D01*
X75886693Y-87951954D01*
X75648474Y-87853281D01*
X75648467Y-87853278D01*
X75644425Y-87851603D01*
X75452931Y-87800293D01*
X75391116Y-87783730D01*
X75333339Y-87776123D01*
X75131128Y-87749500D01*
X75131127Y-87749500D01*
X75131120Y-87749500D01*
X74868880Y-87749500D01*
X74868872Y-87749500D01*
X74868864Y-87749500D01*
X74637773Y-87779925D01*
X74637772Y-87779926D01*
X74608892Y-87783729D01*
X74608884Y-87783730D01*
X74355578Y-87851602D01*
X74113305Y-87951954D01*
X74113281Y-87951967D01*
X73886195Y-88083074D01*
X73678152Y-88242714D01*
X73678142Y-88242723D01*
X73492723Y-88428142D01*
X73492714Y-88428152D01*
X73333074Y-88636195D01*
X73201967Y-88863281D01*
X73201954Y-88863305D01*
X73101602Y-89105578D01*
X73033729Y-89358885D01*
X73033713Y-89359010D01*
X73030740Y-89381592D01*
X72999500Y-89618872D01*
X72999500Y-89881127D01*
X73026034Y-90082664D01*
X73033730Y-90141116D01*
X73087866Y-90343155D01*
X73101602Y-90394418D01*
X73101605Y-90394428D01*
X73168503Y-90555936D01*
X73201954Y-90636693D01*
X73201967Y-90636717D01*
X73333074Y-90863803D01*
X73492718Y-91071851D01*
X73492721Y-91071855D01*
X73546077Y-91125211D01*
X73567226Y-91153461D01*
X73572647Y-91163388D01*
X73587501Y-91231661D01*
X73563087Y-91297126D01*
X73507155Y-91338999D01*
X73507151Y-91339001D01*
X73499963Y-91341682D01*
X73456629Y-91349500D01*
X71315140Y-91349500D01*
X71280204Y-91344477D01*
X71254962Y-91337065D01*
X71202217Y-91305769D01*
X70872811Y-90976363D01*
X70329353Y-90432906D01*
X70295869Y-90371584D01*
X70300853Y-90301893D01*
X70342725Y-90245959D01*
X70355022Y-90237846D01*
X70368408Y-90230119D01*
X70480119Y-90118408D01*
X70487839Y-90105035D01*
X70538405Y-90056821D01*
X70607012Y-90043597D01*
X70671877Y-90069565D01*
X70682907Y-90079355D01*
X71579917Y-90976365D01*
X71579918Y-90976365D01*
X71579919Y-90976365D01*
X71666499Y-90863534D01*
X71666511Y-90863516D01*
X71797590Y-90636482D01*
X71797595Y-90636471D01*
X71897924Y-90394255D01*
X71965777Y-90141020D01*
X71965779Y-90141009D01*
X71999999Y-89881094D01*
X72000000Y-89881080D01*
X72000000Y-89618919D01*
X71999999Y-89618905D01*
X71965779Y-89358990D01*
X71965777Y-89358979D01*
X71897924Y-89105744D01*
X71897856Y-89105581D01*
X71816885Y-88910098D01*
X71797595Y-88863528D01*
X71797590Y-88863517D01*
X71666511Y-88636483D01*
X71666505Y-88636475D01*
X71666290Y-88636195D01*
X71579918Y-88523633D01*
X71579917Y-88523633D01*
X71579916Y-88523633D01*
X70682906Y-89420643D01*
X70621583Y-89454128D01*
X70551891Y-89449144D01*
X70495958Y-89407272D01*
X70487838Y-89394961D01*
X70480122Y-89381598D01*
X70480119Y-89381592D01*
X70368408Y-89269881D01*
X70355032Y-89262158D01*
X70306817Y-89211592D01*
X70293594Y-89142985D01*
X70319562Y-89078120D01*
X70329343Y-89067100D01*
X71226365Y-88170080D01*
X71226364Y-88170079D01*
X71113521Y-88083491D01*
X71113508Y-88083483D01*
X71026386Y-88033183D01*
X70886482Y-87952409D01*
X70886477Y-87952406D01*
X70644264Y-87852078D01*
X70644257Y-87852076D01*
X70644255Y-87852075D01*
X70391020Y-87784222D01*
X70391014Y-87784221D01*
X70391011Y-87784220D01*
X70390988Y-87784217D01*
X70131095Y-87750000D01*
X70131094Y-87750000D01*
X69868905Y-87750000D01*
X69868904Y-87750000D01*
X69609010Y-87784217D01*
X69608987Y-87784220D01*
X69608981Y-87784221D01*
X69608979Y-87784222D01*
X69355744Y-87852075D01*
X69355734Y-87852078D01*
X69113524Y-87952405D01*
X69113516Y-87952409D01*
X68886471Y-88083496D01*
X68886462Y-88083502D01*
X68773633Y-88170078D01*
X68773633Y-88170080D01*
X69670645Y-89067092D01*
X69704130Y-89128415D01*
X69699146Y-89198107D01*
X69657274Y-89254040D01*
X69644967Y-89262159D01*
X69631592Y-89269881D01*
X69631589Y-89269883D01*
X69519883Y-89381589D01*
X69519882Y-89381591D01*
X69519881Y-89381592D01*
X69512162Y-89394961D01*
X69512159Y-89394967D01*
X69461590Y-89443181D01*
X69392983Y-89456402D01*
X69328119Y-89430433D01*
X69317092Y-89420645D01*
X68420080Y-88523633D01*
X68420079Y-88523633D01*
X68420078Y-88523633D01*
X68333502Y-88636462D01*
X68333496Y-88636471D01*
X68202409Y-88863516D01*
X68202405Y-88863524D01*
X68102078Y-89105734D01*
X68102075Y-89105744D01*
X68034222Y-89358979D01*
X68034222Y-89358980D01*
X68034220Y-89358987D01*
X68034217Y-89359010D01*
X68000000Y-89618904D01*
X68000000Y-89762862D01*
X67994976Y-89797800D01*
X67991789Y-89808653D01*
X67954014Y-89867430D01*
X67890457Y-89896453D01*
X67821307Y-89886512D01*
X67814329Y-89883325D01*
X67778157Y-89858211D01*
X67104925Y-89184979D01*
X67083776Y-89156729D01*
X67077121Y-89144541D01*
X67062270Y-89076271D01*
X67086684Y-89010810D01*
X67089833Y-89006603D01*
X67141640Y-88966364D01*
X67204785Y-88940209D01*
X67204785Y-88940208D01*
X67204786Y-88940208D01*
X67275141Y-88911066D01*
X67277737Y-88910098D01*
X67279131Y-88909414D01*
X67279173Y-88909397D01*
X67279176Y-88909395D01*
X67279179Y-88909394D01*
X67410289Y-88821789D01*
X67521789Y-88710289D01*
X67609394Y-88579179D01*
X67669386Y-88434345D01*
X67669736Y-88433500D01*
X67669737Y-88433497D01*
X67700500Y-88278842D01*
X67700500Y-88121158D01*
X67700500Y-88121155D01*
X67700500Y-88120973D01*
X67700070Y-88119000D01*
X67669739Y-87966511D01*
X67669738Y-87966508D01*
X67669737Y-87966503D01*
X67669728Y-87966482D01*
X67669728Y-87966480D01*
X67664612Y-87954130D01*
X67657554Y-87930862D01*
X67652882Y-87907370D01*
X67650500Y-87883183D01*
X67650500Y-81205444D01*
X67655523Y-81170508D01*
X67659927Y-81155510D01*
X67697684Y-81096748D01*
X67697860Y-81096595D01*
X67701712Y-81093256D01*
X67750160Y-81067366D01*
X67751673Y-81066951D01*
X67771168Y-81063258D01*
X67795983Y-81060591D01*
X67835114Y-81045996D01*
X67930831Y-81010296D01*
X68046046Y-80924046D01*
X68132296Y-80808831D01*
X68182591Y-80673983D01*
X68189000Y-80614373D01*
X68188999Y-79385628D01*
X68182591Y-79326017D01*
X68182591Y-79326016D01*
X68182589Y-79326010D01*
X68166583Y-79283097D01*
X68166571Y-79283067D01*
X68159486Y-79264071D01*
X68133069Y-79193241D01*
X68132182Y-79190728D01*
X68129890Y-79187427D01*
X68129888Y-79187424D01*
X68126987Y-79184076D01*
X68055501Y-79088584D01*
X68038585Y-79057606D01*
X68035446Y-79049191D01*
X68033121Y-79042958D01*
X68028138Y-78973268D01*
X68030163Y-78963956D01*
X68052061Y-78916009D01*
X68068672Y-78893821D01*
X68132296Y-78808831D01*
X68182591Y-78673983D01*
X68189000Y-78614373D01*
X68188999Y-77385628D01*
X68182591Y-77326017D01*
X68133898Y-77195465D01*
X68132297Y-77191171D01*
X68132293Y-77191164D01*
X68046047Y-77075955D01*
X68046044Y-77075952D01*
X68046042Y-77075950D01*
X67988116Y-77032586D01*
X67930835Y-76989706D01*
X67930832Y-76989704D01*
X67930830Y-76989703D01*
X67930828Y-76989702D01*
X67795982Y-76939408D01*
X67795983Y-76939408D01*
X67736383Y-76933001D01*
X67736381Y-76933000D01*
X67736373Y-76933000D01*
X67736365Y-76933000D01*
X67735341Y-76933000D01*
X66422138Y-76933000D01*
X66387202Y-76927977D01*
X66361960Y-76920565D01*
X66309215Y-76889269D01*
X65795261Y-76375315D01*
X65774109Y-76347059D01*
X65766617Y-76333338D01*
X65751766Y-76265068D01*
X65753161Y-76245550D01*
X65751969Y-76243167D01*
X65750000Y-76221159D01*
X65750000Y-76220000D01*
X66250000Y-76220000D01*
X66597828Y-76220000D01*
X66597836Y-76220000D01*
X66597847Y-76219999D01*
X66633560Y-76216158D01*
X66657372Y-76213598D01*
X66657379Y-76213596D01*
X66792086Y-76163354D01*
X66792093Y-76163350D01*
X66907187Y-76077190D01*
X66907190Y-76077187D01*
X66993350Y-75962093D01*
X66993354Y-75962086D01*
X67043596Y-75827379D01*
X67043598Y-75827372D01*
X67048864Y-75778402D01*
X67049998Y-75767860D01*
X67050000Y-75767827D01*
X67050000Y-74570000D01*
X66250000Y-74570000D01*
X66250000Y-76220000D01*
X65750000Y-76220000D01*
X65750000Y-74570000D01*
X64950000Y-74570000D01*
X64950000Y-75212861D01*
X64944976Y-75247799D01*
X64941789Y-75258652D01*
X64904014Y-75317429D01*
X64840457Y-75346452D01*
X64771307Y-75336511D01*
X64764329Y-75333324D01*
X64728157Y-75308210D01*
X61414678Y-71994730D01*
X61414677Y-71994729D01*
X61414673Y-71994726D01*
X61414669Y-71994723D01*
X61308127Y-71923535D01*
X61308125Y-71923534D01*
X61308122Y-71923532D01*
X61301590Y-71920827D01*
X61301587Y-71920826D01*
X61189753Y-71874502D01*
X61189733Y-71874495D01*
X61189725Y-71874493D01*
X61064074Y-71849500D01*
X61064071Y-71849500D01*
X61064069Y-71849500D01*
X61059073Y-71849500D01*
X61024134Y-71844476D01*
X61002763Y-71838200D01*
X60952571Y-71809384D01*
X60949322Y-71806315D01*
X60934139Y-71789045D01*
X60930198Y-71783621D01*
X60835138Y-71652781D01*
X60690391Y-71508034D01*
X60690385Y-71508028D01*
X60690384Y-71508027D01*
X60690383Y-71508026D01*
X60535377Y-71395410D01*
X60535372Y-71395406D01*
X60524785Y-71387715D01*
X60524784Y-71387714D01*
X60524782Y-71387713D01*
X60518704Y-71384616D01*
X60518701Y-71384614D01*
X60466348Y-71357939D01*
X60342387Y-71294777D01*
X60337886Y-71292913D01*
X60338226Y-71292090D01*
X60314634Y-71280478D01*
X60301871Y-71271751D01*
X60257642Y-71217662D01*
X60249677Y-71148248D01*
X60252926Y-71134315D01*
X60252932Y-71134297D01*
X60253141Y-71133586D01*
X60290870Y-71074953D01*
X60298739Y-71068134D01*
X60341623Y-71043914D01*
X60415617Y-71019873D01*
X60569960Y-70941232D01*
X60710100Y-70839414D01*
X60832586Y-70716928D01*
X60934404Y-70576788D01*
X61013045Y-70422445D01*
X61066574Y-70257701D01*
X61093672Y-70086611D01*
X61093672Y-69913389D01*
X61066574Y-69742299D01*
X61013045Y-69577555D01*
X60934404Y-69423212D01*
X60832586Y-69283072D01*
X60710100Y-69160586D01*
X60569960Y-69058768D01*
X60569952Y-69058764D01*
X60415621Y-68980128D01*
X60372673Y-68966173D01*
X62539946Y-68966173D01*
X62546346Y-69025691D01*
X62546347Y-69025693D01*
X62546349Y-69025700D01*
X62596591Y-69160407D01*
X62596595Y-69160414D01*
X62618871Y-69190170D01*
X62682753Y-69275506D01*
X62682755Y-69275508D01*
X62682758Y-69275511D01*
X62797852Y-69361671D01*
X62797859Y-69361675D01*
X62932566Y-69411917D01*
X62932573Y-69411919D01*
X62939414Y-69412654D01*
X62992084Y-69418319D01*
X62992101Y-69418320D01*
X62992118Y-69418321D01*
X63389946Y-69418321D01*
X63889946Y-69418321D01*
X64287774Y-69418321D01*
X64287782Y-69418321D01*
X64287793Y-69418320D01*
X64323506Y-69414479D01*
X64347318Y-69411919D01*
X64347325Y-69411917D01*
X64482032Y-69361675D01*
X64482039Y-69361671D01*
X64597133Y-69275511D01*
X64597136Y-69275508D01*
X64683296Y-69160414D01*
X64683300Y-69160407D01*
X64733542Y-69025700D01*
X64733544Y-69025693D01*
X64735015Y-69012010D01*
X64739944Y-68966181D01*
X64739946Y-68966148D01*
X64739946Y-67418321D01*
X63889946Y-67418321D01*
X63889946Y-69418321D01*
X63389946Y-69418321D01*
X63389946Y-67418321D01*
X62539946Y-67418321D01*
X62539946Y-68966173D01*
X60372673Y-68966173D01*
X60264387Y-68930988D01*
X60264375Y-68930985D01*
X60250873Y-68926598D01*
X60250871Y-68926597D01*
X60250870Y-68926597D01*
X60236484Y-68924318D01*
X60236478Y-68924317D01*
X60146360Y-68910044D01*
X60119443Y-68905781D01*
X60103579Y-68903268D01*
X60079786Y-68899500D01*
X60079783Y-68899500D01*
X58906561Y-68899500D01*
X58906560Y-68899500D01*
X58866898Y-68905781D01*
X58866897Y-68905780D01*
X58735476Y-68926596D01*
X58570721Y-68980129D01*
X58416390Y-69058764D01*
X58416377Y-69058772D01*
X58351499Y-69105909D01*
X58296009Y-69146224D01*
X58296002Y-69146230D01*
X58276244Y-69160586D01*
X58276242Y-69160588D01*
X58276241Y-69160588D01*
X58153760Y-69283069D01*
X58153760Y-69283070D01*
X58153758Y-69283072D01*
X58144690Y-69295553D01*
X58139399Y-69302834D01*
X58139397Y-69302837D01*
X58051940Y-69423210D01*
X57973273Y-69577604D01*
X57972801Y-69578548D01*
X57971718Y-69582417D01*
X57966936Y-69597135D01*
X57966936Y-69597136D01*
X57919769Y-69742297D01*
X57919769Y-69742300D01*
X57892672Y-69913383D01*
X57892672Y-70086614D01*
X57904285Y-70159936D01*
X57918246Y-70248083D01*
X57919770Y-70257701D01*
X57973299Y-70422445D01*
X58051940Y-70576788D01*
X58153758Y-70716928D01*
X58276244Y-70839414D01*
X58416384Y-70941232D01*
X58570727Y-71019873D01*
X58570729Y-71019873D01*
X58570732Y-71019875D01*
X58640036Y-71042393D01*
X58671707Y-71057964D01*
X58684472Y-71066693D01*
X58728701Y-71120781D01*
X58736666Y-71190195D01*
X58733430Y-71204084D01*
X58733215Y-71204814D01*
X58695477Y-71263488D01*
X58687611Y-71270305D01*
X58648294Y-71292509D01*
X58648461Y-71292911D01*
X58645174Y-71294272D01*
X58644720Y-71294529D01*
X58643954Y-71294777D01*
X58643947Y-71294780D01*
X58461569Y-71387708D01*
X58461557Y-71387715D01*
X58295959Y-71508027D01*
X58295956Y-71508029D01*
X58151201Y-71652784D01*
X58151199Y-71652787D01*
X58030887Y-71818385D01*
X58030880Y-71818397D01*
X57937958Y-72000764D01*
X57937952Y-72000777D01*
X57874693Y-72195468D01*
X57842672Y-72397642D01*
X57842672Y-72602356D01*
X57873877Y-72799375D01*
X57874694Y-72804534D01*
X57877323Y-72812624D01*
X57937952Y-72999221D01*
X57937955Y-72999228D01*
X57973882Y-73069736D01*
X57973882Y-73069738D01*
X57973883Y-73069738D01*
X58006681Y-73134108D01*
X58030887Y-73181613D01*
X58151200Y-73347213D01*
X58295958Y-73491971D01*
X58450921Y-73604556D01*
X58461562Y-73612287D01*
X58520478Y-73642306D01*
X58637501Y-73701933D01*
X58639102Y-73702870D01*
X58642792Y-73704658D01*
X58644810Y-73705660D01*
X58648578Y-73706723D01*
X58672668Y-73714550D01*
X58748307Y-73739126D01*
X58748308Y-73739127D01*
X58778418Y-73748910D01*
X58838637Y-73768477D01*
X58932838Y-73783397D01*
X59040820Y-73800500D01*
X59040821Y-73800500D01*
X59945523Y-73800500D01*
X59945524Y-73800500D01*
X60147706Y-73768477D01*
X60342391Y-73705220D01*
X60524782Y-73612287D01*
X60666973Y-73508980D01*
X60690383Y-73491972D01*
X60690383Y-73491971D01*
X60690391Y-73491966D01*
X60780923Y-73401432D01*
X60809173Y-73380285D01*
X60822893Y-73372793D01*
X60891150Y-73357943D01*
X60892960Y-73358072D01*
X60951160Y-73377440D01*
X60957673Y-73381626D01*
X60978313Y-73398259D01*
X64288765Y-76708711D01*
X64309914Y-76736961D01*
X64315335Y-76746888D01*
X64330189Y-76815161D01*
X64305775Y-76880626D01*
X64249843Y-76922499D01*
X64249839Y-76922501D01*
X64242651Y-76925182D01*
X64199317Y-76933000D01*
X64057734Y-76933000D01*
X64022798Y-76927977D01*
X63990990Y-76918637D01*
X63957036Y-76902762D01*
X63899126Y-76864068D01*
X63899126Y-76864069D01*
X63855495Y-76834916D01*
X63855492Y-76834914D01*
X63855491Y-76834914D01*
X63855442Y-76834881D01*
X63855442Y-76834880D01*
X63854454Y-76834221D01*
X63849828Y-76832568D01*
X63771199Y-76799999D01*
X63718917Y-76778343D01*
X63718913Y-76778341D01*
X63718911Y-76778341D01*
X63718900Y-76778338D01*
X63573922Y-76749500D01*
X63573920Y-76749500D01*
X63573918Y-76749500D01*
X61086420Y-76749500D01*
X61051481Y-76744476D01*
X61030110Y-76738200D01*
X60979919Y-76709384D01*
X60976675Y-76706321D01*
X60961487Y-76689046D01*
X60935147Y-76652792D01*
X60935142Y-76652785D01*
X60935140Y-76652783D01*
X60862879Y-76580522D01*
X60790385Y-76508028D01*
X60769645Y-76492960D01*
X60635381Y-76395413D01*
X60635377Y-76395410D01*
X60624785Y-76387715D01*
X60624784Y-76387714D01*
X60624782Y-76387713D01*
X60590669Y-76370331D01*
X60567826Y-76358691D01*
X60567825Y-76358691D01*
X60442395Y-76294781D01*
X60247706Y-76231522D01*
X60247704Y-76231521D01*
X60247702Y-76231521D01*
X60247701Y-76231520D01*
X60073167Y-76203878D01*
X60056581Y-76201251D01*
X60045526Y-76199500D01*
X60045524Y-76199500D01*
X58940820Y-76199500D01*
X58940819Y-76199500D01*
X58916499Y-76203351D01*
X58916498Y-76203350D01*
X58738640Y-76231521D01*
X58543949Y-76294780D01*
X58543936Y-76294786D01*
X58361569Y-76387708D01*
X58361557Y-76387715D01*
X58195959Y-76508027D01*
X58195956Y-76508029D01*
X58051201Y-76652784D01*
X58051199Y-76652787D01*
X57930887Y-76818385D01*
X57930880Y-76818397D01*
X57837958Y-77000764D01*
X57837952Y-77000777D01*
X57774694Y-77195465D01*
X57742672Y-77397642D01*
X57742672Y-77602356D01*
X57771653Y-77785334D01*
X57774694Y-77804534D01*
X57789604Y-77850422D01*
X57837952Y-77999221D01*
X57837958Y-77999234D01*
X57930880Y-78181601D01*
X57930887Y-78181613D01*
X58051200Y-78347213D01*
X58195958Y-78491971D01*
X58350920Y-78604555D01*
X58350921Y-78604557D01*
X58357798Y-78609552D01*
X58361562Y-78612287D01*
X58452757Y-78658753D01*
X58543952Y-78705220D01*
X58543958Y-78705222D01*
X58600468Y-78723583D01*
X58622054Y-78738343D01*
X58636379Y-78742233D01*
X58650315Y-78757667D01*
X58658144Y-78763020D01*
X58665677Y-78774679D01*
X58683204Y-78794090D01*
X58694559Y-78863031D01*
X58666839Y-78927167D01*
X58662843Y-78931740D01*
X58660738Y-78934035D01*
X58607747Y-78968097D01*
X58605706Y-78968761D01*
X58605189Y-78968929D01*
X58597212Y-78971521D01*
X58570717Y-78980129D01*
X58416383Y-79058767D01*
X58346603Y-79109467D01*
X58346602Y-79109467D01*
X58288114Y-79151961D01*
X58280735Y-79156093D01*
X58149266Y-79287562D01*
X58145135Y-79294940D01*
X58137171Y-79305902D01*
X58137169Y-79305905D01*
X58051940Y-79423210D01*
X57973304Y-79577543D01*
X57973302Y-79577546D01*
X57973300Y-79577552D01*
X57944216Y-79667064D01*
X57919770Y-79742297D01*
X57919768Y-79742304D01*
X57908307Y-79814672D01*
X57908307Y-79814674D01*
X57892672Y-79913384D01*
X57892672Y-79913389D01*
X57892672Y-80086611D01*
X57919770Y-80257701D01*
X57973299Y-80422445D01*
X58051940Y-80576788D01*
X58153758Y-80716928D01*
X58276244Y-80839414D01*
X58416384Y-80941232D01*
X58570727Y-81019873D01*
X58735471Y-81073402D01*
X58906561Y-81100500D01*
X58906562Y-81100500D01*
X60079782Y-81100500D01*
X60079783Y-81100500D01*
X60250873Y-81073402D01*
X60415617Y-81019873D01*
X60569960Y-80941232D01*
X60710100Y-80839414D01*
X60832586Y-80716928D01*
X60934404Y-80576788D01*
X61013045Y-80422445D01*
X61066574Y-80257701D01*
X61093672Y-80086611D01*
X61093672Y-79913389D01*
X61066574Y-79742299D01*
X61013045Y-79577555D01*
X60934404Y-79423212D01*
X60832586Y-79283072D01*
X60710100Y-79160586D01*
X60569960Y-79058768D01*
X60551166Y-79049192D01*
X60551166Y-79049191D01*
X60426558Y-78985701D01*
X60426553Y-78985699D01*
X60415621Y-78980129D01*
X60415620Y-78980128D01*
X60415617Y-78980127D01*
X60383394Y-78969656D01*
X60380985Y-78968761D01*
X60378235Y-78966707D01*
X60354200Y-78954889D01*
X60344860Y-78948502D01*
X60330744Y-78931238D01*
X60325005Y-78926952D01*
X60323118Y-78921912D01*
X60300635Y-78894413D01*
X60292673Y-78824998D01*
X60323502Y-78762301D01*
X60325609Y-78760005D01*
X60378632Y-78725935D01*
X60442391Y-78705220D01*
X60624782Y-78612287D01*
X60750693Y-78520808D01*
X60790385Y-78491971D01*
X60790386Y-78491968D01*
X60790388Y-78491967D01*
X60790391Y-78491966D01*
X60790392Y-78491964D01*
X60790444Y-78491927D01*
X60791157Y-78491199D01*
X60935138Y-78347219D01*
X60952742Y-78322989D01*
X60957789Y-78316042D01*
X60982385Y-78290731D01*
X61000031Y-78277124D01*
X61052860Y-78253453D01*
X61057250Y-78252629D01*
X61080130Y-78250500D01*
X62669171Y-78250500D01*
X62704107Y-78255523D01*
X62719105Y-78259927D01*
X62777856Y-78297672D01*
X62779043Y-78299041D01*
X62806519Y-78353902D01*
X62808164Y-78361460D01*
X62811001Y-78387831D01*
X62811001Y-78614382D01*
X62817407Y-78673982D01*
X62817408Y-78673984D01*
X62836784Y-78725934D01*
X62867702Y-78808828D01*
X62867703Y-78808829D01*
X62867704Y-78808831D01*
X62867705Y-78808832D01*
X62870090Y-78812543D01*
X62870096Y-78812552D01*
X62870107Y-78812569D01*
X62873012Y-78815921D01*
X62931328Y-78893821D01*
X62944500Y-78911417D01*
X62961412Y-78942389D01*
X62966876Y-78957038D01*
X62968148Y-78974826D01*
X62968915Y-78976881D01*
X62968448Y-78979023D01*
X62971862Y-79026730D01*
X62971860Y-79026739D01*
X62969835Y-79036045D01*
X62947937Y-79083990D01*
X62873016Y-79184072D01*
X62870105Y-79187430D01*
X62867702Y-79191170D01*
X62817407Y-79326016D01*
X62811800Y-79378174D01*
X62811801Y-79378175D01*
X62811000Y-79385626D01*
X62811000Y-80614376D01*
X62811159Y-80616306D01*
X62811385Y-80617954D01*
X62817407Y-80673982D01*
X62833425Y-80716928D01*
X62867702Y-80808828D01*
X62867706Y-80808835D01*
X62901800Y-80854378D01*
X62953950Y-80924042D01*
X62953952Y-80924044D01*
X62953955Y-80924047D01*
X63069164Y-81010293D01*
X63069171Y-81010297D01*
X63094841Y-81019871D01*
X63204017Y-81060591D01*
X63233440Y-81063754D01*
X63245328Y-81067532D01*
X63247926Y-81069284D01*
X63255221Y-81071146D01*
X63269671Y-81077131D01*
X63324071Y-81120971D01*
X63324077Y-81120980D01*
X63327114Y-81125355D01*
X63347643Y-81176159D01*
X63347892Y-81177690D01*
X63349500Y-81197596D01*
X63349500Y-83657506D01*
X63344475Y-83692450D01*
X63340070Y-83707448D01*
X63302302Y-83766213D01*
X63298277Y-83769701D01*
X63249886Y-83795571D01*
X63248392Y-83795981D01*
X63228834Y-83799691D01*
X63217520Y-83800907D01*
X63217516Y-83800908D01*
X63082673Y-83851200D01*
X63082671Y-83851201D01*
X63082665Y-83851205D01*
X62967456Y-83937450D01*
X62967450Y-83937456D01*
X62881205Y-84052665D01*
X62881203Y-84052668D01*
X62830908Y-84187516D01*
X62827305Y-84221030D01*
X62818577Y-84255226D01*
X62812596Y-84269666D01*
X62768755Y-84324070D01*
X62768740Y-84324081D01*
X62764366Y-84327117D01*
X62713578Y-84347641D01*
X62712575Y-84347804D01*
X62712043Y-84347890D01*
X62692130Y-84349500D01*
X59475927Y-84349500D01*
X59350266Y-84374495D01*
X59350250Y-84374500D01*
X59350247Y-84374501D01*
X59308160Y-84391935D01*
X59308158Y-84391935D01*
X59301220Y-84394810D01*
X59231881Y-84423530D01*
X59231863Y-84423540D01*
X59125336Y-84494719D01*
X59125333Y-84494721D01*
X59124436Y-84495617D01*
X59124434Y-84495619D01*
X58983315Y-84636737D01*
X58955058Y-84657889D01*
X58937780Y-84667323D01*
X58877036Y-84682482D01*
X58862003Y-84682322D01*
X58843926Y-84680802D01*
X58756112Y-84666894D01*
X58756111Y-84666894D01*
X58646292Y-84649500D01*
X58646287Y-84649500D01*
X58433713Y-84649500D01*
X58433709Y-84649500D01*
X58394776Y-84655666D01*
X58385042Y-84657208D01*
X58347654Y-84663129D01*
X58223763Y-84682752D01*
X58021582Y-84748445D01*
X57832182Y-84844949D01*
X57660210Y-84969892D01*
X57509892Y-85120210D01*
X57384945Y-85292188D01*
X57384634Y-85292696D01*
X57383499Y-85294177D01*
X57382085Y-85296125D01*
X57382036Y-85296089D01*
X57369060Y-85313041D01*
X57359353Y-85323319D01*
X57299011Y-85358542D01*
X57229205Y-85355550D01*
X57175488Y-85319378D01*
X57169285Y-85312219D01*
X57157274Y-85295811D01*
X57155053Y-85292187D01*
X57155051Y-85292184D01*
X57155050Y-85292182D01*
X57030109Y-85120213D01*
X56879786Y-84969890D01*
X56707820Y-84844951D01*
X56604781Y-84792450D01*
X56540245Y-84759567D01*
X56540240Y-84759565D01*
X56518414Y-84748444D01*
X56518413Y-84748443D01*
X56518412Y-84748443D01*
X56421550Y-84716970D01*
X56325074Y-84685623D01*
X56320552Y-84683770D01*
X56311362Y-84681600D01*
X56306599Y-84681226D01*
X56303922Y-84680802D01*
X56154957Y-84657208D01*
X56135489Y-84654124D01*
X56106290Y-84649500D01*
X56106287Y-84649500D01*
X55893713Y-84649500D01*
X55893709Y-84649500D01*
X55854776Y-84655666D01*
X55845042Y-84657208D01*
X55807654Y-84663129D01*
X55683763Y-84682752D01*
X55481582Y-84748445D01*
X55292182Y-84844949D01*
X55120218Y-84969886D01*
X55019281Y-85070823D01*
X54991024Y-85091975D01*
X54978841Y-85098627D01*
X54910568Y-85113477D01*
X54845104Y-85089058D01*
X54845105Y-85089058D01*
X54843412Y-85087791D01*
X54841414Y-85086295D01*
X54799563Y-85030376D01*
X54790196Y-85005263D01*
X54753797Y-84907671D01*
X54753793Y-84907664D01*
X54667547Y-84792455D01*
X54667544Y-84792452D01*
X54667542Y-84792450D01*
X54598641Y-84740871D01*
X54552335Y-84706206D01*
X54552332Y-84706204D01*
X54552330Y-84706203D01*
X54552328Y-84706202D01*
X54417482Y-84655908D01*
X54417483Y-84655908D01*
X54357883Y-84649501D01*
X54357881Y-84649500D01*
X54357873Y-84649500D01*
X54357864Y-84649500D01*
X54356841Y-84649500D01*
X52562123Y-84649500D01*
X52560192Y-84649659D01*
X52558545Y-84649885D01*
X52502516Y-84655908D01*
X52367666Y-84706204D01*
X52367665Y-84706205D01*
X52252456Y-84792450D01*
X52252450Y-84792456D01*
X52166205Y-84907665D01*
X52166203Y-84907668D01*
X52115907Y-85042516D01*
X52109501Y-85102116D01*
X52109500Y-85102139D01*
X52109500Y-86897876D01*
X52109659Y-86899806D01*
X52109885Y-86901454D01*
X52115907Y-86957482D01*
X52142670Y-87029235D01*
X52166202Y-87092328D01*
X52166205Y-87092334D01*
X52252450Y-87207542D01*
X52252452Y-87207544D01*
X52252455Y-87207547D01*
X52367664Y-87293793D01*
X52367671Y-87293797D01*
X52412618Y-87310561D01*
X52502516Y-87344091D01*
X52528419Y-87346875D01*
X52562127Y-87350500D01*
X52667673Y-87350499D01*
X52702606Y-87355521D01*
X52717603Y-87359925D01*
X52776355Y-87397670D01*
X52777542Y-87399039D01*
X52805019Y-87453903D01*
X52806664Y-87461462D01*
X52809500Y-87487830D01*
X52809500Y-87824072D01*
X52823688Y-87895395D01*
X52823688Y-87895397D01*
X52834018Y-87947329D01*
X52834018Y-87947331D01*
X52834019Y-87947331D01*
X52834381Y-87949151D01*
X52834379Y-87949151D01*
X52834386Y-87949179D01*
X52834497Y-87949739D01*
X52834498Y-87949742D01*
X52834499Y-87949745D01*
X52883331Y-88067635D01*
X52883343Y-88067695D01*
X52883355Y-88067691D01*
X52883358Y-88067699D01*
X52883535Y-88068127D01*
X52937436Y-88148797D01*
X52937437Y-88148798D01*
X52937436Y-88148798D01*
X52954722Y-88174668D01*
X52954728Y-88174676D01*
X56285322Y-91505270D01*
X56285330Y-91505277D01*
X56285331Y-91505277D01*
X56349336Y-91548043D01*
X56391873Y-91576465D01*
X56510256Y-91625501D01*
X56635927Y-91650500D01*
X56635928Y-91650500D01*
X56635931Y-91650500D01*
X59657506Y-91650500D01*
X59692442Y-91655523D01*
X59707440Y-91659927D01*
X59766213Y-91697697D01*
X59769701Y-91701722D01*
X59795571Y-91750113D01*
X59795981Y-91751607D01*
X59799691Y-91771165D01*
X59800907Y-91782478D01*
X59800908Y-91782482D01*
X59851200Y-91917325D01*
X59851201Y-91917327D01*
X59851205Y-91917333D01*
X59937450Y-92032542D01*
X59937452Y-92032544D01*
X59937455Y-92032547D01*
X60052664Y-92118793D01*
X60052671Y-92118797D01*
X60187517Y-92169091D01*
X60187516Y-92169091D01*
X60194444Y-92169835D01*
X60247127Y-92175500D01*
X61752872Y-92175499D01*
X61812483Y-92169091D01*
X61924642Y-92127258D01*
X61941530Y-92122295D01*
X61956854Y-92118952D01*
X61956855Y-92118953D01*
X61977819Y-92114380D01*
X62039175Y-92116553D01*
X62043559Y-92117841D01*
X62043559Y-92117840D01*
X62070087Y-92125630D01*
X62078485Y-92128425D01*
X62115814Y-92142347D01*
X62187517Y-92169091D01*
X62247127Y-92175500D01*
X62447393Y-92175499D01*
X62482323Y-92180520D01*
X62495641Y-92184431D01*
X62554419Y-92222203D01*
X62583445Y-92285758D01*
X62583447Y-92285769D01*
X62584192Y-92290953D01*
X62576015Y-92356043D01*
X62530263Y-92466499D01*
X62530257Y-92466527D01*
X62499500Y-92621150D01*
X62499500Y-92621153D01*
X62499500Y-92778846D01*
X62499500Y-92778848D01*
X62499499Y-92778848D01*
X62530257Y-92933471D01*
X62530264Y-92933502D01*
X62590598Y-93079165D01*
X62590603Y-93079174D01*
X62590613Y-93079191D01*
X62678211Y-93210290D01*
X62678212Y-93210291D01*
X62678217Y-93210297D01*
X62789701Y-93321781D01*
X62789707Y-93321786D01*
X62789711Y-93321789D01*
X62920814Y-93409390D01*
X62920827Y-93409397D01*
X63038329Y-93458067D01*
X63066503Y-93469737D01*
X63216016Y-93499477D01*
X63218394Y-93500052D01*
X63221155Y-93500500D01*
X63378844Y-93500500D01*
X63382964Y-93500500D01*
X63390814Y-93498118D01*
X63533497Y-93469737D01*
X63679179Y-93409394D01*
X63810289Y-93321789D01*
X63921789Y-93210289D01*
X64009394Y-93079179D01*
X64069737Y-92933497D01*
X64100500Y-92778842D01*
X64100500Y-92621158D01*
X64100500Y-92621155D01*
X64100500Y-92620971D01*
X64100064Y-92618966D01*
X64091610Y-92576465D01*
X64080955Y-92522899D01*
X64069737Y-92466503D01*
X64069735Y-92466498D01*
X64009397Y-92320827D01*
X64009389Y-92320813D01*
X63981303Y-92278780D01*
X63966070Y-92246942D01*
X63958900Y-92224044D01*
X63957656Y-92154188D01*
X63958237Y-92152142D01*
X63961932Y-92139558D01*
X63990139Y-92090019D01*
X63992628Y-92087346D01*
X64009063Y-92072582D01*
X64062546Y-92032546D01*
X64148796Y-91917331D01*
X64199091Y-91782483D01*
X64205500Y-91722873D01*
X64205499Y-90277128D01*
X64199091Y-90217517D01*
X64170595Y-90141116D01*
X64148797Y-90082671D01*
X64148793Y-90082664D01*
X64062547Y-89967455D01*
X64062544Y-89967452D01*
X64062542Y-89967450D01*
X63967702Y-89896453D01*
X63947335Y-89881206D01*
X63947332Y-89881204D01*
X63947330Y-89881203D01*
X63947328Y-89881202D01*
X63812482Y-89830908D01*
X63812483Y-89830908D01*
X63752883Y-89824501D01*
X63752881Y-89824500D01*
X63752873Y-89824500D01*
X63752864Y-89824500D01*
X63751841Y-89824500D01*
X62251112Y-89824500D01*
X62247129Y-89824500D01*
X62247123Y-89824501D01*
X62187516Y-89830908D01*
X62070210Y-89874660D01*
X62065024Y-89876099D01*
X62064003Y-89876083D01*
X62058227Y-89877779D01*
X62022045Y-89885643D01*
X61960774Y-89883449D01*
X61930143Y-89874455D01*
X61921747Y-89871661D01*
X61897849Y-89862748D01*
X61862497Y-89836284D01*
X61760583Y-89825328D01*
X61755742Y-89824500D01*
X61752881Y-89824500D01*
X61752873Y-89824500D01*
X61752864Y-89824500D01*
X60247129Y-89824500D01*
X60247123Y-89824500D01*
X60245192Y-89824659D01*
X60243545Y-89824885D01*
X60187516Y-89830908D01*
X60053031Y-89881068D01*
X60052666Y-89881204D01*
X60052665Y-89881205D01*
X59937456Y-89967450D01*
X59937450Y-89967456D01*
X59851207Y-90082663D01*
X59851203Y-90082667D01*
X59800908Y-90217516D01*
X59800530Y-90221033D01*
X59791800Y-90255234D01*
X59785820Y-90269670D01*
X59741978Y-90324072D01*
X59741975Y-90324074D01*
X59737599Y-90327112D01*
X59686775Y-90347646D01*
X59685883Y-90347790D01*
X59685245Y-90347894D01*
X59665358Y-90349500D01*
X57038638Y-90349500D01*
X57003702Y-90344477D01*
X56978460Y-90337065D01*
X56925715Y-90305769D01*
X54194733Y-87574787D01*
X54173584Y-87546537D01*
X54168162Y-87536607D01*
X54153309Y-87468337D01*
X54177723Y-87402872D01*
X54233653Y-87361000D01*
X54237532Y-87359553D01*
X54240868Y-87358310D01*
X54284182Y-87350499D01*
X54357871Y-87350499D01*
X54357872Y-87350499D01*
X54417483Y-87344091D01*
X54552331Y-87293796D01*
X54667546Y-87207546D01*
X54753796Y-87092331D01*
X54796580Y-86977620D01*
X54813490Y-86946649D01*
X54821811Y-86935533D01*
X54877741Y-86893663D01*
X54947424Y-86888675D01*
X54951909Y-86889650D01*
X55013234Y-86923130D01*
X55120216Y-87030112D01*
X55292169Y-87155042D01*
X55292200Y-87155060D01*
X55292442Y-87155182D01*
X55481588Y-87251557D01*
X55683757Y-87317246D01*
X55893713Y-87350500D01*
X55893714Y-87350500D01*
X56106286Y-87350500D01*
X56106287Y-87350500D01*
X56316243Y-87317246D01*
X56518412Y-87251557D01*
X56707816Y-87155051D01*
X56794138Y-87092335D01*
X56879786Y-87030109D01*
X56879788Y-87030106D01*
X56879792Y-87030104D01*
X56879799Y-87030096D01*
X56879849Y-87030061D01*
X56880605Y-87029290D01*
X57030104Y-86879792D01*
X57030106Y-86879788D01*
X57030109Y-86879786D01*
X57155048Y-86707820D01*
X57155047Y-86707820D01*
X57155051Y-86707816D01*
X57155053Y-86707811D01*
X57163066Y-86696782D01*
X57163071Y-86696778D01*
X57173229Y-86684531D01*
X57180647Y-86676678D01*
X57215566Y-86656294D01*
X57218394Y-86654114D01*
X57219458Y-86654022D01*
X57240985Y-86641457D01*
X57310791Y-86644447D01*
X57364503Y-86680612D01*
X57370707Y-86687771D01*
X57382729Y-86704193D01*
X57384949Y-86707817D01*
X57384951Y-86707820D01*
X57509890Y-86879786D01*
X57509892Y-86879788D01*
X57660216Y-87030112D01*
X57832169Y-87155042D01*
X57832200Y-87155060D01*
X57832442Y-87155182D01*
X58021588Y-87251557D01*
X58223757Y-87317246D01*
X58433713Y-87350500D01*
X58433714Y-87350500D01*
X58646286Y-87350500D01*
X58646287Y-87350500D01*
X58856243Y-87317246D01*
X59058412Y-87251557D01*
X59247816Y-87155051D01*
X59334138Y-87092335D01*
X59419786Y-87030109D01*
X59419788Y-87030106D01*
X59419792Y-87030104D01*
X59419799Y-87030096D01*
X59419849Y-87030061D01*
X59420605Y-87029290D01*
X59570104Y-86879792D01*
X59570106Y-86879788D01*
X59570109Y-86879786D01*
X59695048Y-86707820D01*
X59695047Y-86707820D01*
X59695051Y-86707816D01*
X59695053Y-86707810D01*
X59715445Y-86679744D01*
X59723730Y-86651529D01*
X59791557Y-86518412D01*
X59857246Y-86316243D01*
X59890500Y-86106287D01*
X59890500Y-85893713D01*
X59890500Y-85893708D01*
X59877480Y-85811507D01*
X59876975Y-85776221D01*
X59878754Y-85762454D01*
X59906865Y-85698493D01*
X59965093Y-85659881D01*
X59967310Y-85659196D01*
X59977550Y-85656031D01*
X60014170Y-85650500D01*
X62684281Y-85650500D01*
X62719217Y-85655523D01*
X62734215Y-85659927D01*
X62792989Y-85697698D01*
X62796762Y-85702052D01*
X62825789Y-85765607D01*
X62826342Y-85770003D01*
X62830909Y-85812483D01*
X62879820Y-85943621D01*
X62887389Y-85979104D01*
X62887632Y-85982950D01*
X62887639Y-85987134D01*
X62888005Y-85988818D01*
X62888441Y-85995689D01*
X62886863Y-86002671D01*
X62883681Y-86038425D01*
X62874522Y-86069665D01*
X62871713Y-86078112D01*
X62830907Y-86187516D01*
X62824500Y-86247124D01*
X62824500Y-87752876D01*
X62824659Y-87754806D01*
X62824885Y-87756454D01*
X62830907Y-87812482D01*
X62853043Y-87871829D01*
X62881202Y-87947328D01*
X62881206Y-87947335D01*
X62898271Y-87970131D01*
X62967450Y-88062542D01*
X62967456Y-88062548D01*
X62974326Y-88067691D01*
X63082664Y-88148793D01*
X63082671Y-88148797D01*
X63217517Y-88199091D01*
X63217516Y-88199091D01*
X63224444Y-88199835D01*
X63277127Y-88205500D01*
X64216364Y-88205499D01*
X64251298Y-88210522D01*
X64276535Y-88217932D01*
X64329282Y-88249228D01*
X68585317Y-92505265D01*
X68585322Y-92505269D01*
X68585325Y-92505272D01*
X68585328Y-92505274D01*
X68585331Y-92505277D01*
X68596879Y-92512993D01*
X68623140Y-92536583D01*
X68630391Y-92545260D01*
X68658274Y-92609324D01*
X68647095Y-92678294D01*
X68600438Y-92730249D01*
X68598453Y-92731476D01*
X68533255Y-92750000D01*
X68452146Y-92750000D01*
X68392628Y-92756400D01*
X68392621Y-92756402D01*
X68257910Y-92806646D01*
X68257907Y-92806648D01*
X68142813Y-92892807D01*
X68142807Y-92892813D01*
X68056648Y-93007907D01*
X68056646Y-93007910D01*
X68006402Y-93142621D01*
X68006400Y-93142628D01*
X68000000Y-93202146D01*
X68000000Y-93202155D01*
X68000000Y-94500000D01*
X69284222Y-94500000D01*
X69351261Y-94519685D01*
X69397016Y-94572489D01*
X69406960Y-94641647D01*
X69403997Y-94656093D01*
X69400000Y-94671009D01*
X69400000Y-94828990D01*
X69403997Y-94843907D01*
X69402334Y-94913757D01*
X69363171Y-94971619D01*
X69298943Y-94999123D01*
X69284222Y-95000000D01*
X68000000Y-95000000D01*
X68000000Y-96297852D01*
X68006400Y-96357370D01*
X68006402Y-96357377D01*
X68024451Y-96405769D01*
X68056645Y-96492086D01*
X68056649Y-96492093D01*
X68098532Y-96548041D01*
X68142807Y-96607185D01*
X68142809Y-96607187D01*
X68142812Y-96607190D01*
X68257906Y-96693350D01*
X68257913Y-96693354D01*
X68392620Y-96743596D01*
X68392627Y-96743598D01*
X68399468Y-96744333D01*
X68452138Y-96749998D01*
X68452155Y-96749999D01*
X68452172Y-96750000D01*
X69750000Y-96750000D01*
X69750000Y-95465777D01*
X69769685Y-95398738D01*
X69822489Y-95352983D01*
X69891647Y-95343039D01*
X69906072Y-95345997D01*
X69921009Y-95350000D01*
X70078987Y-95350000D01*
X70078991Y-95350000D01*
X70093907Y-95346003D01*
X70163752Y-95347664D01*
X70221616Y-95386824D01*
X70249123Y-95451051D01*
X70250000Y-95465777D01*
X70250000Y-96750000D01*
X71547828Y-96750000D01*
X71547836Y-96750000D01*
X71547847Y-96749999D01*
X71583560Y-96746158D01*
X71607372Y-96743598D01*
X71607379Y-96743596D01*
X71742086Y-96693354D01*
X71742093Y-96693350D01*
X71857187Y-96607190D01*
X71857190Y-96607187D01*
X71943350Y-96492093D01*
X71943354Y-96492086D01*
X71993596Y-96357379D01*
X71993598Y-96357372D01*
X71996363Y-96331661D01*
X71999998Y-96297860D01*
X72000000Y-96297827D01*
X72000000Y-95000000D01*
X70715778Y-95000000D01*
X70648739Y-94980315D01*
X70602984Y-94927511D01*
X70593040Y-94858353D01*
X70596003Y-94843907D01*
X70600000Y-94828991D01*
X70600000Y-94671009D01*
X70596003Y-94656092D01*
X70597666Y-94586243D01*
X70636829Y-94528381D01*
X70701057Y-94500877D01*
X70715778Y-94500000D01*
X72000000Y-94500000D01*
X72000000Y-93202172D01*
X71999998Y-93202138D01*
X71993598Y-93142628D01*
X71993596Y-93142621D01*
X71971387Y-93083075D01*
X71943354Y-93007913D01*
X71943350Y-93007906D01*
X71857190Y-92892812D01*
X71857183Y-92892807D01*
X71846025Y-92884454D01*
X71821062Y-92859490D01*
X71814283Y-92850433D01*
X71789870Y-92784966D01*
X71804727Y-92716695D01*
X71854134Y-92667294D01*
X71857142Y-92665652D01*
X71916540Y-92650500D01*
X74199863Y-92650500D01*
X74234790Y-92655521D01*
X74243422Y-92658055D01*
X74302203Y-92695825D01*
X74331232Y-92759379D01*
X74321293Y-92828538D01*
X74281012Y-92877619D01*
X74276855Y-92880616D01*
X74251791Y-92894592D01*
X74113301Y-92951956D01*
X74113281Y-92951967D01*
X73886195Y-93083074D01*
X73678152Y-93242714D01*
X73678142Y-93242723D01*
X73492723Y-93428142D01*
X73492714Y-93428152D01*
X73333074Y-93636195D01*
X73201967Y-93863281D01*
X73201954Y-93863305D01*
X73101602Y-94105578D01*
X73033731Y-94358881D01*
X73033730Y-94358885D01*
X72999500Y-94618872D01*
X72999500Y-94881127D01*
X73015151Y-95000000D01*
X73033730Y-95141116D01*
X73057578Y-95230119D01*
X73101602Y-95394420D01*
X73101604Y-95394425D01*
X73101605Y-95394428D01*
X73103990Y-95400185D01*
X73201954Y-95636693D01*
X73201967Y-95636717D01*
X73333074Y-95863803D01*
X73492718Y-96071851D01*
X73492721Y-96071855D01*
X73678120Y-96257255D01*
X73678142Y-96257276D01*
X73678148Y-96257281D01*
X73886195Y-96416924D01*
X74113281Y-96548031D01*
X74113291Y-96548036D01*
X74113299Y-96548041D01*
X74113309Y-96548046D01*
X74256096Y-96607190D01*
X74355581Y-96648398D01*
X74608884Y-96716270D01*
X74857177Y-96748958D01*
X74857189Y-96748964D01*
X74857190Y-96748961D01*
X74865057Y-96749997D01*
X74865058Y-96749997D01*
X74866764Y-96750221D01*
X74868880Y-96750500D01*
X74868887Y-96750500D01*
X75131113Y-96750500D01*
X75131120Y-96750500D01*
X75391116Y-96716270D01*
X75644419Y-96648398D01*
X75787598Y-96589089D01*
X75821787Y-96580362D01*
X75837338Y-96578690D01*
X75906095Y-96591097D01*
X75918273Y-96597193D01*
X75950449Y-96620395D01*
X76935325Y-97605272D01*
X76935327Y-97605274D01*
X76935330Y-97605276D01*
X76935331Y-97605277D01*
X77041873Y-97676465D01*
X77160256Y-97725501D01*
X77285927Y-97750500D01*
X81464071Y-97750500D01*
X81464073Y-97750500D01*
X81548615Y-97733682D01*
X81589744Y-97725501D01*
X81708127Y-97676465D01*
X81814669Y-97605277D01*
X83605277Y-95814669D01*
X83676465Y-95708127D01*
X83725501Y-95589744D01*
X83743253Y-95500500D01*
X83750500Y-95464069D01*
X83750500Y-94878710D01*
X93149500Y-94878710D01*
X93149500Y-95121289D01*
X93163827Y-95230119D01*
X93181162Y-95361789D01*
X93181162Y-95361792D01*
X93187850Y-95386749D01*
X93187850Y-95386751D01*
X93187851Y-95386751D01*
X93243947Y-95596104D01*
X93322856Y-95786607D01*
X93336778Y-95820216D01*
X93336780Y-95820220D01*
X93458060Y-96030283D01*
X93458062Y-96030286D01*
X93458281Y-96030615D01*
X93459284Y-96031879D01*
X93605726Y-96222728D01*
X93605730Y-96222733D01*
X93605733Y-96222736D01*
X93605739Y-96222743D01*
X93605747Y-96222751D01*
X93777242Y-96394247D01*
X93777256Y-96394260D01*
X93777262Y-96394265D01*
X93969711Y-96541936D01*
X94179788Y-96663224D01*
X94373824Y-96743596D01*
X94386773Y-96748960D01*
X94403900Y-96756054D01*
X94638211Y-96818838D01*
X94818586Y-96842584D01*
X94878710Y-96850500D01*
X94878711Y-96850500D01*
X94878712Y-96850500D01*
X95121283Y-96850500D01*
X95121289Y-96850500D01*
X95169388Y-96844167D01*
X95361789Y-96818838D01*
X95596100Y-96756054D01*
X95820212Y-96663224D01*
X96030289Y-96541936D01*
X96222738Y-96394265D01*
X96394265Y-96222738D01*
X96541936Y-96030289D01*
X96663224Y-95820212D01*
X96756054Y-95596100D01*
X96818838Y-95361789D01*
X96850500Y-95121288D01*
X96850500Y-94878712D01*
X96818838Y-94638211D01*
X96756054Y-94403900D01*
X96663224Y-94179788D01*
X96541936Y-93969711D01*
X96394265Y-93777262D01*
X96394260Y-93777256D01*
X96394259Y-93777255D01*
X96394247Y-93777242D01*
X96222751Y-93605747D01*
X96222743Y-93605739D01*
X96222736Y-93605733D01*
X96222733Y-93605730D01*
X96222728Y-93605726D01*
X96031879Y-93459284D01*
X96030615Y-93458281D01*
X96030286Y-93458062D01*
X96030283Y-93458060D01*
X95820220Y-93336780D01*
X95820207Y-93336773D01*
X95820203Y-93336772D01*
X95596104Y-93243947D01*
X95470488Y-93210288D01*
X95361785Y-93181161D01*
X95361784Y-93181160D01*
X95361781Y-93181160D01*
X95121290Y-93149500D01*
X95121289Y-93149500D01*
X95121288Y-93149500D01*
X94878712Y-93149500D01*
X94878711Y-93149500D01*
X94878710Y-93149500D01*
X94638217Y-93181160D01*
X94403894Y-93243947D01*
X94179790Y-93336774D01*
X94179782Y-93336778D01*
X94054004Y-93409397D01*
X93969706Y-93458067D01*
X93969702Y-93458069D01*
X93969697Y-93458073D01*
X93777270Y-93605726D01*
X93777255Y-93605740D01*
X93777247Y-93605747D01*
X93605747Y-93777247D01*
X93605740Y-93777255D01*
X93605726Y-93777270D01*
X93458073Y-93969697D01*
X93458067Y-93969706D01*
X93336778Y-94179782D01*
X93336774Y-94179790D01*
X93243947Y-94403894D01*
X93181160Y-94638217D01*
X93149500Y-94878710D01*
X83750500Y-94878710D01*
X83750500Y-89035931D01*
X83750500Y-89035928D01*
X83750500Y-89035925D01*
X83725262Y-88909053D01*
X83723177Y-88904645D01*
X83716744Y-88889116D01*
X83676465Y-88791873D01*
X83666170Y-88776465D01*
X83605277Y-88685331D01*
X83605275Y-88685328D01*
X83605270Y-88685322D01*
X78869426Y-83949479D01*
X78848274Y-83921223D01*
X78835667Y-83898134D01*
X78820500Y-83838709D01*
X78820500Y-83209921D01*
X78825522Y-83174987D01*
X78829099Y-83162804D01*
X78866875Y-83104029D01*
X78930431Y-83075005D01*
X78995524Y-83083180D01*
X79004419Y-83086864D01*
X79031277Y-83102157D01*
X79052910Y-83118352D01*
X79052913Y-83118354D01*
X79187620Y-83168596D01*
X79187627Y-83168598D01*
X79192212Y-83169091D01*
X79247138Y-83174998D01*
X79247155Y-83174999D01*
X79247172Y-83175000D01*
X79750000Y-83175000D01*
X79750000Y-80825000D01*
X79247146Y-80825000D01*
X79187628Y-80831400D01*
X79187621Y-80831402D01*
X79052912Y-80881644D01*
X79052897Y-80881655D01*
X79033082Y-80896489D01*
X79002104Y-80913405D01*
X78990213Y-80917840D01*
X78920521Y-80922824D01*
X78859198Y-80889339D01*
X78826731Y-80832320D01*
X78826496Y-80831401D01*
X78824351Y-80822994D01*
X78820500Y-80792332D01*
X78820500Y-79230398D01*
X78825523Y-79195464D01*
X78829360Y-79182396D01*
X78867134Y-79123618D01*
X78930689Y-79094592D01*
X78992710Y-79101542D01*
X79000428Y-79104499D01*
X79024937Y-79117183D01*
X79080294Y-79154171D01*
X79080297Y-79154172D01*
X79080298Y-79154173D01*
X79136507Y-79177455D01*
X79222336Y-79213006D01*
X79222337Y-79213006D01*
X79222338Y-79213006D01*
X79222343Y-79213008D01*
X79370192Y-79242416D01*
X79372391Y-79242909D01*
X79373124Y-79243000D01*
X79526874Y-79243000D01*
X79548981Y-79243000D01*
X79561594Y-79236112D01*
X79563692Y-79235675D01*
X79640193Y-79220458D01*
X79675427Y-79218569D01*
X79696332Y-79220439D01*
X79753251Y-79240236D01*
X79758872Y-79243920D01*
X79778581Y-79259949D01*
X80478177Y-79959545D01*
X80820242Y-80301610D01*
X81156483Y-80637850D01*
X81177633Y-80666102D01*
X81182264Y-80674583D01*
X81184286Y-80678285D01*
X81199138Y-80746558D01*
X81174722Y-80812023D01*
X81174706Y-80812044D01*
X81171956Y-80815716D01*
X81116040Y-80857566D01*
X81058783Y-80878923D01*
X81024644Y-80886400D01*
X81020090Y-80886739D01*
X81016573Y-80887001D01*
X81013056Y-80887511D01*
X80960345Y-80883775D01*
X80929177Y-80874627D01*
X80920766Y-80871828D01*
X80812377Y-80831402D01*
X80812370Y-80831400D01*
X80752852Y-80825000D01*
X80752844Y-80825000D01*
X80250000Y-80825000D01*
X80250000Y-83175000D01*
X80752828Y-83175000D01*
X80752836Y-83175000D01*
X80752844Y-83174999D01*
X80752983Y-83174984D01*
X80812372Y-83168598D01*
X80812376Y-83168597D01*
X80923696Y-83127076D01*
X80940546Y-83122121D01*
X80956646Y-83118602D01*
X80956647Y-83118603D01*
X80977242Y-83114102D01*
X81038600Y-83116251D01*
X81043604Y-83117719D01*
X81043604Y-83117718D01*
X81068220Y-83124936D01*
X81076650Y-83127740D01*
X81102157Y-83137254D01*
X81137512Y-83163721D01*
X81194444Y-83169835D01*
X81194443Y-83169839D01*
X81194458Y-83169836D01*
X81247127Y-83175500D01*
X82752872Y-83175499D01*
X82812483Y-83169091D01*
X82947331Y-83118796D01*
X83062546Y-83032546D01*
X83148796Y-82917331D01*
X83199091Y-82782483D01*
X83205500Y-82722873D01*
X83205499Y-81277128D01*
X83205499Y-81262690D01*
X83206923Y-81262690D01*
X83206191Y-81235274D01*
X83206376Y-81234244D01*
X83208566Y-81222107D01*
X83239835Y-81159628D01*
X83299913Y-81123973D01*
X83301600Y-81123542D01*
X83356474Y-81122072D01*
X83362490Y-81123269D01*
X83363164Y-81123469D01*
X83372517Y-81125270D01*
X83375429Y-81125867D01*
X83406366Y-81132596D01*
X83413847Y-81133485D01*
X83499382Y-81150500D01*
X83499383Y-81150500D01*
X83499386Y-81150500D01*
X84742671Y-81150500D01*
X84777607Y-81155523D01*
X84792605Y-81159927D01*
X84851356Y-81197672D01*
X84852543Y-81199041D01*
X84880019Y-81253902D01*
X84881664Y-81261460D01*
X84884501Y-81287831D01*
X84884501Y-81512882D01*
X84890907Y-81572481D01*
X84890908Y-81572483D01*
X84941202Y-81707328D01*
X84941206Y-81707335D01*
X84973145Y-81750000D01*
X85027450Y-81822542D01*
X85027452Y-81822544D01*
X85027455Y-81822547D01*
X85142664Y-81908793D01*
X85142671Y-81908797D01*
X85277517Y-81959091D01*
X85277516Y-81959091D01*
X85284444Y-81959835D01*
X85337127Y-81965500D01*
X87262872Y-81965499D01*
X87322483Y-81959091D01*
X87457331Y-81908796D01*
X87572546Y-81822546D01*
X87658796Y-81707331D01*
X87709091Y-81572483D01*
X87715500Y-81512873D01*
X87715499Y-81176615D01*
X87726795Y-81138141D01*
X87732434Y-81109271D01*
X87744555Y-81096621D01*
X87746283Y-81094352D01*
X87746541Y-81094548D01*
X87780774Y-81058823D01*
X87848714Y-81042518D01*
X87914685Y-81065533D01*
X87940168Y-81089952D01*
X87942599Y-81093059D01*
X87955425Y-81113175D01*
X88037624Y-81274499D01*
X88061062Y-81320499D01*
X88092169Y-81363314D01*
X88205903Y-81519855D01*
X88380145Y-81694097D01*
X88579499Y-81838936D01*
X88799057Y-81950806D01*
X88799059Y-81950807D01*
X88964495Y-82004560D01*
X89033018Y-82026825D01*
X89033222Y-82026891D01*
X89033407Y-82026951D01*
X89033408Y-82026951D01*
X89033411Y-82026952D01*
X89276792Y-82065500D01*
X89276793Y-82065500D01*
X89523207Y-82065500D01*
X89523208Y-82065500D01*
X89766589Y-82026952D01*
X89766592Y-82026951D01*
X89766593Y-82026951D01*
X90000940Y-81950807D01*
X90000940Y-81950806D01*
X90010221Y-81947791D01*
X90010222Y-81947790D01*
X90010227Y-81947789D01*
X90018212Y-81945194D01*
X90027461Y-81937294D01*
X90220501Y-81838936D01*
X90419855Y-81694097D01*
X90594097Y-81519855D01*
X90738936Y-81320501D01*
X90850806Y-81100943D01*
X90877148Y-81019871D01*
X90902699Y-80941233D01*
X90926824Y-80866984D01*
X90926949Y-80866604D01*
X90926951Y-80866592D01*
X90926952Y-80866589D01*
X90965500Y-80623208D01*
X90965500Y-80604994D01*
X91278525Y-80604994D01*
X91278525Y-80604995D01*
X91315834Y-80848809D01*
X91315837Y-80848819D01*
X91392466Y-81083267D01*
X91506356Y-81302048D01*
X91506358Y-81302051D01*
X91506360Y-81302054D01*
X91552347Y-81363303D01*
X91654456Y-81499301D01*
X91832779Y-81669710D01*
X91832792Y-81669720D01*
X92036547Y-81808712D01*
X92036552Y-81808714D01*
X92260268Y-81912560D01*
X92260275Y-81912562D01*
X92260278Y-81912564D01*
X92497965Y-81978481D01*
X92743226Y-82004692D01*
X92989475Y-81990493D01*
X92989479Y-81990492D01*
X93230092Y-81936268D01*
X93230094Y-81936267D01*
X93230099Y-81936266D01*
X93458634Y-81843468D01*
X93668945Y-81714589D01*
X93855382Y-81553092D01*
X94012939Y-81363313D01*
X94137385Y-81150350D01*
X94207089Y-80967812D01*
X94225375Y-80919927D01*
X94225375Y-80919925D01*
X94225377Y-80919921D01*
X94274553Y-80678215D01*
X94283592Y-80431722D01*
X94252250Y-80187064D01*
X94198455Y-80007757D01*
X94181372Y-79950815D01*
X94181371Y-79950813D01*
X94181370Y-79950809D01*
X94072856Y-79729303D01*
X93991091Y-79614673D01*
X93929625Y-79528500D01*
X93929619Y-79528493D01*
X93755512Y-79353777D01*
X93755507Y-79353773D01*
X93555208Y-79209843D01*
X93555202Y-79209840D01*
X93334081Y-79100555D01*
X93334076Y-79100554D01*
X93279557Y-79083990D01*
X93098074Y-79028851D01*
X93098070Y-79028850D01*
X93098072Y-79028850D01*
X92853540Y-78996657D01*
X92853529Y-78996656D01*
X92853526Y-78996656D01*
X92843606Y-78996413D01*
X92780004Y-78994858D01*
X92779992Y-78994859D01*
X92534168Y-79015070D01*
X92294944Y-79075159D01*
X92294936Y-79075162D01*
X92068746Y-79173512D01*
X91861644Y-79307492D01*
X91861643Y-79307493D01*
X91679211Y-79473494D01*
X91526338Y-79667064D01*
X91526336Y-79667067D01*
X91407130Y-79883008D01*
X91407126Y-79883017D01*
X91324796Y-80115508D01*
X91324791Y-80115528D01*
X91281538Y-80358351D01*
X91278525Y-80604994D01*
X90965500Y-80604994D01*
X90965500Y-80376792D01*
X90926952Y-80133411D01*
X90926951Y-80133407D01*
X90926951Y-80133406D01*
X90850807Y-79899059D01*
X90845092Y-79887843D01*
X90829297Y-79856844D01*
X90738937Y-79679500D01*
X90679098Y-79597139D01*
X90594097Y-79480145D01*
X90419855Y-79305903D01*
X90220501Y-79161064D01*
X90119236Y-79109467D01*
X90101743Y-79100554D01*
X90000937Y-79049190D01*
X89766593Y-78973048D01*
X89561557Y-78940574D01*
X89523208Y-78934500D01*
X89523207Y-78934500D01*
X89276793Y-78934500D01*
X89276792Y-78934500D01*
X89238443Y-78940574D01*
X89043050Y-78971521D01*
X89043042Y-78971521D01*
X89043043Y-78971522D01*
X89033402Y-78973048D01*
X88799056Y-79049193D01*
X88579497Y-79161064D01*
X88380139Y-79305907D01*
X88205907Y-79480139D01*
X88205907Y-79480140D01*
X88205905Y-79480142D01*
X88154994Y-79550215D01*
X88061064Y-79679497D01*
X87958077Y-79881620D01*
X87930546Y-79910769D01*
X87912417Y-79933934D01*
X87895867Y-79939704D01*
X87893274Y-79940953D01*
X87893132Y-79940658D01*
X87846443Y-79956939D01*
X87778505Y-79940625D01*
X87730172Y-79890170D01*
X87718551Y-79856844D01*
X87717795Y-79852970D01*
X87715499Y-79829220D01*
X87715499Y-79487122D01*
X87715488Y-79486991D01*
X87715474Y-79486911D01*
X87709091Y-79427517D01*
X87707485Y-79423212D01*
X87676216Y-79339374D01*
X87658798Y-79292673D01*
X87658797Y-79292671D01*
X87658795Y-79292668D01*
X87658793Y-79292664D01*
X87572547Y-79177455D01*
X87572544Y-79177452D01*
X87572542Y-79177450D01*
X87503076Y-79125448D01*
X87457335Y-79091206D01*
X87457332Y-79091204D01*
X87457330Y-79091203D01*
X87457328Y-79091202D01*
X87322482Y-79040908D01*
X87322483Y-79040908D01*
X87262883Y-79034501D01*
X87262881Y-79034500D01*
X87262873Y-79034500D01*
X87262864Y-79034500D01*
X87261841Y-79034500D01*
X85337123Y-79034500D01*
X85335192Y-79034659D01*
X85333545Y-79034885D01*
X85277516Y-79040908D01*
X85149691Y-79088584D01*
X85142666Y-79091204D01*
X85142665Y-79091205D01*
X85027456Y-79177450D01*
X85027453Y-79177453D01*
X85027453Y-79177454D01*
X85027452Y-79177455D01*
X85000838Y-79213006D01*
X84941205Y-79292665D01*
X84941203Y-79292668D01*
X84890908Y-79427516D01*
X84884500Y-79487125D01*
X84884500Y-79707670D01*
X84879475Y-79742614D01*
X84875070Y-79757612D01*
X84837327Y-79816355D01*
X84835958Y-79817542D01*
X84781097Y-79845018D01*
X84773539Y-79846663D01*
X84747168Y-79849500D01*
X83902093Y-79849500D01*
X83867157Y-79844477D01*
X83841915Y-79837065D01*
X83789170Y-79805769D01*
X81658189Y-77674788D01*
X81637040Y-77646538D01*
X81631618Y-77636608D01*
X81616765Y-77568338D01*
X81641179Y-77502873D01*
X81697109Y-77461001D01*
X81700988Y-77459554D01*
X81704324Y-77458311D01*
X81747638Y-77450500D01*
X94861362Y-77450500D01*
X94896294Y-77455521D01*
X94921538Y-77462934D01*
X94974284Y-77494230D01*
X95900573Y-78420519D01*
X95921723Y-78448771D01*
X95934331Y-78471860D01*
X95949500Y-78531289D01*
X95949500Y-79464071D01*
X95949500Y-79464073D01*
X95949499Y-79464073D01*
X95965444Y-79544229D01*
X95965448Y-79544242D01*
X95972071Y-79577543D01*
X95974499Y-79589743D01*
X95974499Y-79589745D01*
X96023533Y-79708125D01*
X96023535Y-79708128D01*
X96093729Y-79813181D01*
X96094726Y-79814673D01*
X96165670Y-79885617D01*
X96186820Y-79913872D01*
X96190160Y-79919989D01*
X96195002Y-79928856D01*
X96210013Y-79994465D01*
X96209348Y-80007760D01*
X96203434Y-80039888D01*
X96173048Y-80133403D01*
X96173047Y-80133408D01*
X96154890Y-80248056D01*
X96153363Y-80257697D01*
X96134500Y-80376792D01*
X96134500Y-80623208D01*
X96138816Y-80650458D01*
X96141870Y-80669737D01*
X96141870Y-80669738D01*
X96152022Y-80733837D01*
X96170499Y-80850499D01*
X96171521Y-80856948D01*
X96171522Y-80856956D01*
X96173048Y-80866596D01*
X96205934Y-80967807D01*
X96247051Y-81094352D01*
X96249193Y-81100942D01*
X96337624Y-81274499D01*
X96361062Y-81320499D01*
X96392169Y-81363314D01*
X96505903Y-81519855D01*
X96680145Y-81694097D01*
X96879499Y-81838936D01*
X97099057Y-81950806D01*
X97099059Y-81950807D01*
X97264495Y-82004560D01*
X97333018Y-82026825D01*
X97333222Y-82026891D01*
X97333407Y-82026951D01*
X97333408Y-82026951D01*
X97333411Y-82026952D01*
X97576792Y-82065500D01*
X97576793Y-82065500D01*
X97823207Y-82065500D01*
X97823208Y-82065500D01*
X98066589Y-82026952D01*
X98066592Y-82026951D01*
X98066593Y-82026951D01*
X98300940Y-81950807D01*
X98300940Y-81950806D01*
X98310221Y-81947791D01*
X98310222Y-81947790D01*
X98310227Y-81947789D01*
X98318212Y-81945194D01*
X98327461Y-81937294D01*
X98520501Y-81838936D01*
X98719855Y-81694097D01*
X98894097Y-81519855D01*
X99038936Y-81320501D01*
X99150806Y-81100943D01*
X99177148Y-81019871D01*
X99202699Y-80941233D01*
X99226824Y-80866984D01*
X99226949Y-80866604D01*
X99226951Y-80866592D01*
X99226952Y-80866589D01*
X99250238Y-80719565D01*
X99263785Y-80679710D01*
X99266574Y-80674583D01*
X99270535Y-80676738D01*
X99282737Y-80650963D01*
X99342028Y-80613999D01*
X99411891Y-80614957D01*
X99470145Y-80653535D01*
X99488814Y-80683478D01*
X99488992Y-80683883D01*
X99499500Y-80733837D01*
X99499500Y-94995918D01*
X99499470Y-94998626D01*
X99499410Y-95001373D01*
X99499322Y-95004074D01*
X99482732Y-95384045D01*
X99482378Y-95389447D01*
X99481906Y-95394840D01*
X99481317Y-95400214D01*
X99432202Y-95773277D01*
X99431378Y-95778630D01*
X99430442Y-95783937D01*
X99429388Y-95789238D01*
X99347935Y-96156647D01*
X99346649Y-96161900D01*
X99345256Y-96167099D01*
X99343742Y-96172294D01*
X99230586Y-96531182D01*
X99228848Y-96536303D01*
X99227005Y-96541367D01*
X99225043Y-96546412D01*
X99081040Y-96894064D01*
X99078864Y-96899010D01*
X99076571Y-96903928D01*
X99074175Y-96908786D01*
X98900432Y-97242540D01*
X98897834Y-97247276D01*
X98895133Y-97251955D01*
X98892323Y-97256587D01*
X98690128Y-97573972D01*
X98687114Y-97578481D01*
X98684024Y-97582893D01*
X98680833Y-97587245D01*
X98451754Y-97885787D01*
X98448362Y-97890013D01*
X98444891Y-97894149D01*
X98441329Y-97898210D01*
X98187112Y-98175639D01*
X98183371Y-98179547D01*
X98179547Y-98183371D01*
X98175639Y-98187112D01*
X97898210Y-98441329D01*
X97894149Y-98444891D01*
X97890013Y-98448362D01*
X97885787Y-98451754D01*
X97587245Y-98680833D01*
X97582893Y-98684024D01*
X97578481Y-98687114D01*
X97573972Y-98690128D01*
X97256587Y-98892323D01*
X97251955Y-98895133D01*
X97247276Y-98897834D01*
X97242540Y-98900432D01*
X96908786Y-99074175D01*
X96903928Y-99076571D01*
X96899010Y-99078864D01*
X96894064Y-99081040D01*
X96546412Y-99225043D01*
X96541385Y-99226997D01*
X96536288Y-99228853D01*
X96531182Y-99230586D01*
X96172294Y-99343742D01*
X96167099Y-99345256D01*
X96161900Y-99346649D01*
X96156647Y-99347935D01*
X95789238Y-99429388D01*
X95783937Y-99430442D01*
X95778630Y-99431378D01*
X95773277Y-99432202D01*
X95400214Y-99481317D01*
X95394840Y-99481906D01*
X95389447Y-99482378D01*
X95384045Y-99482732D01*
X95004075Y-99499322D01*
X95001374Y-99499410D01*
X94998627Y-99499470D01*
X94995919Y-99499500D01*
X55004081Y-99499500D01*
X55001374Y-99499470D01*
X54998626Y-99499410D01*
X54995924Y-99499322D01*
X54615958Y-99482732D01*
X54610545Y-99482377D01*
X54605146Y-99481904D01*
X54599784Y-99481316D01*
X54540008Y-99473447D01*
X54540007Y-99473447D01*
X54226721Y-99432202D01*
X54221368Y-99431378D01*
X54216061Y-99430442D01*
X54210760Y-99429388D01*
X53843351Y-99347935D01*
X53838098Y-99346649D01*
X53832899Y-99345256D01*
X53827704Y-99343742D01*
X53468816Y-99230586D01*
X53463724Y-99228858D01*
X53458598Y-99226992D01*
X53453594Y-99225046D01*
X53336251Y-99176441D01*
X53105934Y-99081040D01*
X53100988Y-99078864D01*
X53096070Y-99076571D01*
X53091212Y-99074175D01*
X52757458Y-98900432D01*
X52752722Y-98897834D01*
X52748043Y-98895133D01*
X52743411Y-98892323D01*
X52426026Y-98690128D01*
X52421517Y-98687114D01*
X52417105Y-98684024D01*
X52412753Y-98680833D01*
X52328325Y-98616049D01*
X52114200Y-98451745D01*
X52110006Y-98448379D01*
X52105836Y-98444879D01*
X52101788Y-98441329D01*
X51824359Y-98187112D01*
X51820451Y-98183371D01*
X51816627Y-98179547D01*
X51812886Y-98175639D01*
X51558669Y-97898210D01*
X51555121Y-97894166D01*
X51551615Y-97889987D01*
X51548258Y-97885804D01*
X51319163Y-97587242D01*
X51315974Y-97582893D01*
X51312884Y-97578481D01*
X51309882Y-97573990D01*
X51107675Y-97256587D01*
X51104865Y-97251955D01*
X51102164Y-97247276D01*
X51099566Y-97242540D01*
X51027302Y-97103725D01*
X50925812Y-96908765D01*
X50923427Y-96903928D01*
X50921134Y-96899010D01*
X50918958Y-96894064D01*
X50887798Y-96818838D01*
X50774956Y-96546412D01*
X50773001Y-96541384D01*
X50771150Y-96536299D01*
X50769409Y-96531170D01*
X50757088Y-96492092D01*
X50656257Y-96172296D01*
X50656256Y-96172294D01*
X50656254Y-96172287D01*
X50654754Y-96167141D01*
X50653338Y-96161861D01*
X50652063Y-96156647D01*
X50646101Y-96129752D01*
X50570601Y-95789201D01*
X50569563Y-95783980D01*
X50568605Y-95778548D01*
X50567801Y-95773314D01*
X50518673Y-95400147D01*
X50518093Y-95394847D01*
X50517620Y-95389447D01*
X50517269Y-95384097D01*
X50500674Y-95003987D01*
X50500588Y-95001343D01*
X50500530Y-94998686D01*
X50500500Y-94995980D01*
X50500500Y-94926278D01*
X50500461Y-94925712D01*
X50500437Y-94878710D01*
X53149500Y-94878710D01*
X53149500Y-95121289D01*
X53163827Y-95230119D01*
X53181162Y-95361789D01*
X53181162Y-95361792D01*
X53187850Y-95386749D01*
X53187850Y-95386751D01*
X53187851Y-95386751D01*
X53243947Y-95596104D01*
X53322856Y-95786607D01*
X53336778Y-95820216D01*
X53336780Y-95820220D01*
X53458060Y-96030283D01*
X53458062Y-96030286D01*
X53458281Y-96030615D01*
X53459284Y-96031879D01*
X53605726Y-96222728D01*
X53605730Y-96222733D01*
X53605733Y-96222736D01*
X53605739Y-96222743D01*
X53605747Y-96222751D01*
X53777242Y-96394247D01*
X53777256Y-96394260D01*
X53777262Y-96394265D01*
X53969711Y-96541936D01*
X54179788Y-96663224D01*
X54373824Y-96743596D01*
X54386773Y-96748960D01*
X54403900Y-96756054D01*
X54638211Y-96818838D01*
X54818586Y-96842584D01*
X54878710Y-96850500D01*
X54878711Y-96850500D01*
X54878712Y-96850500D01*
X55121283Y-96850500D01*
X55121289Y-96850500D01*
X55169388Y-96844167D01*
X55361789Y-96818838D01*
X55596100Y-96756054D01*
X55820212Y-96663224D01*
X56030289Y-96541936D01*
X56222738Y-96394265D01*
X56394265Y-96222738D01*
X56541936Y-96030289D01*
X56663224Y-95820212D01*
X56756054Y-95596100D01*
X56818838Y-95361789D01*
X56850500Y-95121288D01*
X56850500Y-94878712D01*
X56818838Y-94638211D01*
X56756054Y-94403900D01*
X56663224Y-94179788D01*
X56541936Y-93969711D01*
X56394265Y-93777262D01*
X56394260Y-93777256D01*
X56394259Y-93777255D01*
X56394247Y-93777242D01*
X56222751Y-93605747D01*
X56222743Y-93605739D01*
X56222736Y-93605733D01*
X56222733Y-93605730D01*
X56222728Y-93605726D01*
X56031879Y-93459284D01*
X56030615Y-93458281D01*
X56030286Y-93458062D01*
X56030283Y-93458060D01*
X55820220Y-93336780D01*
X55820207Y-93336773D01*
X55820203Y-93336772D01*
X55596104Y-93243947D01*
X55470488Y-93210288D01*
X55361785Y-93181161D01*
X55361784Y-93181160D01*
X55361781Y-93181160D01*
X55121290Y-93149500D01*
X55121289Y-93149500D01*
X55121288Y-93149500D01*
X54878712Y-93149500D01*
X54878711Y-93149500D01*
X54878710Y-93149500D01*
X54638217Y-93181160D01*
X54403894Y-93243947D01*
X54179790Y-93336774D01*
X54179782Y-93336778D01*
X54054004Y-93409397D01*
X53969706Y-93458067D01*
X53969702Y-93458069D01*
X53969697Y-93458073D01*
X53777270Y-93605726D01*
X53777255Y-93605740D01*
X53777247Y-93605747D01*
X53605747Y-93777247D01*
X53605740Y-93777255D01*
X53605726Y-93777270D01*
X53458073Y-93969697D01*
X53458067Y-93969706D01*
X53336778Y-94179782D01*
X53336774Y-94179790D01*
X53243947Y-94403894D01*
X53181160Y-94638217D01*
X53149500Y-94878710D01*
X50500437Y-94878710D01*
X50493672Y-81499107D01*
X50493672Y-80083773D01*
X51142671Y-80083773D01*
X51175350Y-80248056D01*
X51175354Y-80248074D01*
X51175355Y-80248081D01*
X51239464Y-80402856D01*
X51332546Y-80542164D01*
X51451005Y-80660623D01*
X51451013Y-80660629D01*
X51541270Y-80720937D01*
X51541271Y-80720937D01*
X51590309Y-80753703D01*
X51745090Y-80817816D01*
X51909400Y-80850499D01*
X51909404Y-80850500D01*
X51909405Y-80850500D01*
X52076940Y-80850500D01*
X52076941Y-80850499D01*
X52241254Y-80817816D01*
X52396035Y-80753703D01*
X52535334Y-80660626D01*
X52653798Y-80542162D01*
X52746875Y-80402863D01*
X52810988Y-80248082D01*
X52843671Y-80083773D01*
X53642671Y-80083773D01*
X53675350Y-80248056D01*
X53675354Y-80248074D01*
X53675355Y-80248081D01*
X53739464Y-80402856D01*
X53832546Y-80542164D01*
X53951005Y-80660623D01*
X53951013Y-80660629D01*
X54041270Y-80720937D01*
X54041271Y-80720937D01*
X54090309Y-80753703D01*
X54245090Y-80817816D01*
X54409400Y-80850499D01*
X54409404Y-80850500D01*
X54409405Y-80850500D01*
X54576940Y-80850500D01*
X54576941Y-80850499D01*
X54741254Y-80817816D01*
X54896035Y-80753703D01*
X55035334Y-80660626D01*
X55153798Y-80542162D01*
X55246875Y-80402863D01*
X55310988Y-80248082D01*
X55343672Y-80083767D01*
X55343672Y-79916233D01*
X55310988Y-79751918D01*
X55246875Y-79597137D01*
X55173369Y-79487128D01*
X55157965Y-79464073D01*
X55153801Y-79457841D01*
X55153800Y-79457840D01*
X55153798Y-79457837D01*
X55035334Y-79339373D01*
X54987622Y-79307493D01*
X54896028Y-79246292D01*
X54741255Y-79182184D01*
X54741228Y-79182178D01*
X54576945Y-79149500D01*
X54576943Y-79149500D01*
X54576939Y-79149500D01*
X54409405Y-79149500D01*
X54409400Y-79149500D01*
X54409398Y-79149500D01*
X54245114Y-79182178D01*
X54245087Y-79182184D01*
X54090314Y-79246292D01*
X53951006Y-79339374D01*
X53832546Y-79457834D01*
X53739464Y-79597142D01*
X53675356Y-79751915D01*
X53675350Y-79751942D01*
X53642672Y-79916225D01*
X53642672Y-79916226D01*
X53642672Y-79916228D01*
X53642672Y-80083771D01*
X53642672Y-80083773D01*
X53642671Y-80083773D01*
X52843671Y-80083773D01*
X52843672Y-80083767D01*
X52843672Y-79916233D01*
X52843670Y-79916225D01*
X52823174Y-79813181D01*
X52810988Y-79751918D01*
X52746875Y-79597137D01*
X52673369Y-79487128D01*
X52657965Y-79464073D01*
X52653801Y-79457841D01*
X52653800Y-79457840D01*
X52653798Y-79457837D01*
X52535334Y-79339373D01*
X52487622Y-79307493D01*
X52396028Y-79246292D01*
X52241255Y-79182184D01*
X52241228Y-79182178D01*
X52076945Y-79149500D01*
X52076943Y-79149500D01*
X52076939Y-79149500D01*
X51909405Y-79149500D01*
X51909400Y-79149500D01*
X51909398Y-79149500D01*
X51745114Y-79182178D01*
X51745087Y-79182184D01*
X51590314Y-79246292D01*
X51451006Y-79339374D01*
X51332546Y-79457834D01*
X51239464Y-79597142D01*
X51175356Y-79751915D01*
X51175350Y-79751942D01*
X51142672Y-79916225D01*
X51142672Y-79916226D01*
X51142672Y-79916228D01*
X51142672Y-80083771D01*
X51142672Y-80083773D01*
X51142671Y-80083773D01*
X50493672Y-80083773D01*
X50493672Y-77842329D01*
X50498695Y-77807393D01*
X50500137Y-77802484D01*
X50503099Y-77792394D01*
X50540844Y-77733644D01*
X50542213Y-77732457D01*
X50597092Y-77704977D01*
X50604651Y-77703333D01*
X50631004Y-77700500D01*
X51085985Y-77700500D01*
X51093839Y-77698116D01*
X51255837Y-77665895D01*
X51419718Y-77598013D01*
X51567207Y-77499464D01*
X51692636Y-77374035D01*
X51791185Y-77226546D01*
X51859067Y-77062665D01*
X51893672Y-76888690D01*
X51893672Y-76799999D01*
X51893672Y-76734107D01*
X51893672Y-74413423D01*
X53393172Y-74413423D01*
X53393172Y-74750000D01*
X54169172Y-74750000D01*
X54236211Y-74769685D01*
X54281966Y-74822489D01*
X54293172Y-74874000D01*
X54293172Y-75126000D01*
X54273487Y-75193039D01*
X54220683Y-75238794D01*
X54169172Y-75250000D01*
X53393172Y-75250000D01*
X53393172Y-75586575D01*
X53420256Y-75757584D01*
X53452687Y-75857393D01*
X53473763Y-75922257D01*
X53552367Y-76076524D01*
X53552369Y-76076527D01*
X53654133Y-76216596D01*
X53776574Y-76339037D01*
X53907646Y-76434264D01*
X53916647Y-76440804D01*
X54070916Y-76519408D01*
X54142619Y-76542706D01*
X54172093Y-76562861D01*
X54243171Y-76574115D01*
X54243172Y-76574114D01*
X54243172Y-75798504D01*
X54262857Y-75731465D01*
X54315661Y-75685710D01*
X54384819Y-75675766D01*
X54414623Y-75683942D01*
X54453390Y-75700000D01*
X54532952Y-75700000D01*
X54532954Y-75700000D01*
X54571719Y-75683942D01*
X54641189Y-75676474D01*
X54703668Y-75707749D01*
X54739320Y-75767838D01*
X54743172Y-75798504D01*
X54743172Y-76574115D01*
X54750756Y-76572914D01*
X54915427Y-76519408D01*
X55069696Y-76440804D01*
X55154399Y-76379264D01*
X55209768Y-76339037D01*
X55209770Y-76339034D01*
X55209774Y-76339032D01*
X55332204Y-76216602D01*
X55332206Y-76216598D01*
X55332209Y-76216596D01*
X55407269Y-76113283D01*
X55433976Y-76076524D01*
X55512580Y-75922257D01*
X55566086Y-75757584D01*
X55593172Y-75586571D01*
X55593172Y-75250000D01*
X54817172Y-75250000D01*
X54750133Y-75230315D01*
X54704378Y-75177511D01*
X54693172Y-75126000D01*
X54693172Y-75083773D01*
X58642671Y-75083773D01*
X58675350Y-75248056D01*
X58675356Y-75248083D01*
X58739464Y-75402856D01*
X58832546Y-75542164D01*
X58951006Y-75660624D01*
X58951009Y-75660626D01*
X59009937Y-75700000D01*
X59090309Y-75753703D01*
X59245090Y-75817816D01*
X59409400Y-75850499D01*
X59409404Y-75850500D01*
X59409405Y-75850500D01*
X59576940Y-75850500D01*
X59576941Y-75850499D01*
X59741254Y-75817816D01*
X59896035Y-75753703D01*
X60035334Y-75660626D01*
X60153798Y-75542162D01*
X60246875Y-75402863D01*
X60310988Y-75248082D01*
X60343672Y-75083767D01*
X60343672Y-74916233D01*
X60310988Y-74751918D01*
X60246875Y-74597137D01*
X60205300Y-74534916D01*
X60153798Y-74457837D01*
X60153796Y-74457834D01*
X60035336Y-74339374D01*
X59896028Y-74246292D01*
X59741255Y-74182184D01*
X59741228Y-74182178D01*
X59576945Y-74149500D01*
X59576943Y-74149500D01*
X59576939Y-74149500D01*
X59409405Y-74149500D01*
X59409400Y-74149500D01*
X59409398Y-74149500D01*
X59245114Y-74182178D01*
X59245087Y-74182184D01*
X59090314Y-74246292D01*
X58951006Y-74339374D01*
X58832546Y-74457834D01*
X58739464Y-74597142D01*
X58675356Y-74751915D01*
X58675350Y-74751942D01*
X58642672Y-74916225D01*
X58642672Y-74916228D01*
X58642672Y-75083771D01*
X58642672Y-75083773D01*
X58642671Y-75083773D01*
X54693172Y-75083773D01*
X54693172Y-74874000D01*
X54712857Y-74806961D01*
X54765661Y-74761206D01*
X54817172Y-74750000D01*
X55593172Y-74750000D01*
X55593172Y-74413428D01*
X55577470Y-74314289D01*
X55566086Y-74242415D01*
X55512580Y-74077742D01*
X55433976Y-73923475D01*
X55427436Y-73914474D01*
X55332209Y-73783402D01*
X55209768Y-73660961D01*
X55069699Y-73559197D01*
X55069698Y-73559196D01*
X55069696Y-73559195D01*
X54915429Y-73480591D01*
X54873702Y-73467033D01*
X54750777Y-73427092D01*
X54750771Y-73427090D01*
X54750761Y-73427087D01*
X54750753Y-73427085D01*
X54743172Y-73425884D01*
X54743172Y-74201495D01*
X54723487Y-74268534D01*
X54670683Y-74314289D01*
X54601525Y-74324233D01*
X54571721Y-74316057D01*
X54532955Y-74300000D01*
X54532954Y-74300000D01*
X54453390Y-74300000D01*
X54453388Y-74300000D01*
X54414623Y-74316057D01*
X54345153Y-74323524D01*
X54282675Y-74292249D01*
X54247023Y-74232159D01*
X54243172Y-74201495D01*
X54243172Y-73425884D01*
X54243171Y-73425884D01*
X54243170Y-73425884D01*
X54235601Y-73427083D01*
X54235594Y-73427084D01*
X54235590Y-73427085D01*
X54235582Y-73427087D01*
X54235578Y-73427088D01*
X54235565Y-73427092D01*
X54070916Y-73480590D01*
X54070914Y-73480590D01*
X54070914Y-73480591D01*
X54031611Y-73500617D01*
X53916643Y-73559197D01*
X53776574Y-73660961D01*
X53776570Y-73660965D01*
X53654139Y-73783397D01*
X53654133Y-73783402D01*
X53552369Y-73923471D01*
X53552367Y-73923475D01*
X53473763Y-74077742D01*
X53463225Y-74110173D01*
X53420256Y-74242414D01*
X53393172Y-74413423D01*
X51893672Y-74413423D01*
X51893672Y-73265892D01*
X51893673Y-73265889D01*
X51893672Y-73199997D01*
X51893672Y-73160256D01*
X51893672Y-73134108D01*
X51893672Y-73124119D01*
X51893672Y-73121936D01*
X51893671Y-73121880D01*
X51893671Y-73111300D01*
X51858833Y-72936165D01*
X51856853Y-72931991D01*
X51856800Y-72931864D01*
X51791183Y-72773453D01*
X51791181Y-72773450D01*
X51791179Y-72773446D01*
X51692635Y-72625965D01*
X51692632Y-72625961D01*
X51692629Y-72625958D01*
X51692627Y-72625955D01*
X51567215Y-72500543D01*
X51567212Y-72500541D01*
X51567210Y-72500539D01*
X51567206Y-72500536D01*
X51423492Y-72404509D01*
X51419724Y-72401991D01*
X51419718Y-72401988D01*
X51419715Y-72401987D01*
X51363848Y-72378846D01*
X51255844Y-72334108D01*
X51255829Y-72334103D01*
X51255821Y-72334101D01*
X51092670Y-72301649D01*
X51092668Y-72301648D01*
X51081870Y-72299501D01*
X51081865Y-72299500D01*
X51059066Y-72299500D01*
X51059064Y-72299500D01*
X50993175Y-72299500D01*
X50991891Y-72299499D01*
X50991846Y-72299499D01*
X50919689Y-72299499D01*
X50919673Y-72299500D01*
X50635502Y-72299500D01*
X50600561Y-72294475D01*
X50585562Y-72290070D01*
X50526816Y-72252327D01*
X50525629Y-72250958D01*
X50498149Y-72196083D01*
X50496504Y-72188521D01*
X50493672Y-72162168D01*
X50493672Y-70083773D01*
X51142671Y-70083773D01*
X51175350Y-70248056D01*
X51175356Y-70248083D01*
X51239464Y-70402856D01*
X51332546Y-70542164D01*
X51451006Y-70660624D01*
X51451009Y-70660626D01*
X51541123Y-70720838D01*
X51590309Y-70753703D01*
X51590310Y-70753703D01*
X51590311Y-70753704D01*
X51604913Y-70759752D01*
X51604914Y-70759753D01*
X51610693Y-70762147D01*
X51610694Y-70762147D01*
X51745090Y-70817816D01*
X51870760Y-70842813D01*
X51888144Y-70846271D01*
X51906429Y-70849908D01*
X51908664Y-70850409D01*
X51909402Y-70850500D01*
X52076940Y-70850500D01*
X52081061Y-70850500D01*
X52088914Y-70848117D01*
X52241254Y-70817816D01*
X52396035Y-70753703D01*
X52535334Y-70660626D01*
X52653798Y-70542162D01*
X52746875Y-70402863D01*
X52810988Y-70248082D01*
X52843671Y-70083773D01*
X53642671Y-70083773D01*
X53675350Y-70248056D01*
X53675356Y-70248083D01*
X53739464Y-70402856D01*
X53832546Y-70542164D01*
X53951006Y-70660624D01*
X53951009Y-70660626D01*
X54041123Y-70720838D01*
X54090309Y-70753703D01*
X54090310Y-70753703D01*
X54090311Y-70753704D01*
X54104913Y-70759752D01*
X54104914Y-70759753D01*
X54110693Y-70762147D01*
X54110694Y-70762147D01*
X54245090Y-70817816D01*
X54370760Y-70842813D01*
X54388144Y-70846271D01*
X54406429Y-70849908D01*
X54408664Y-70850409D01*
X54409402Y-70850500D01*
X54576940Y-70850500D01*
X54581061Y-70850500D01*
X54588914Y-70848117D01*
X54741254Y-70817816D01*
X54896035Y-70753703D01*
X55035334Y-70660626D01*
X55153798Y-70542162D01*
X55246875Y-70402863D01*
X55310988Y-70248082D01*
X55343672Y-70083767D01*
X55343672Y-69916233D01*
X55310988Y-69751918D01*
X55253685Y-69613578D01*
X55246876Y-69597139D01*
X55234517Y-69578643D01*
X55222603Y-69560813D01*
X55176970Y-69492517D01*
X55176970Y-69492516D01*
X55153796Y-69457834D01*
X55035336Y-69339374D01*
X54896028Y-69246292D01*
X54741255Y-69182184D01*
X54741228Y-69182178D01*
X54576945Y-69149500D01*
X54576943Y-69149500D01*
X54576939Y-69149500D01*
X54409405Y-69149500D01*
X54409400Y-69149500D01*
X54409398Y-69149500D01*
X54245114Y-69182178D01*
X54245087Y-69182184D01*
X54090314Y-69246292D01*
X53951006Y-69339374D01*
X53832546Y-69457834D01*
X53739464Y-69597142D01*
X53675356Y-69751915D01*
X53675350Y-69751942D01*
X53642672Y-69916225D01*
X53642672Y-69916226D01*
X53642672Y-69916228D01*
X53642672Y-70083771D01*
X53642672Y-70083773D01*
X53642671Y-70083773D01*
X52843671Y-70083773D01*
X52843672Y-70083767D01*
X52843672Y-69916233D01*
X52843670Y-69916225D01*
X52818683Y-69790603D01*
X52810988Y-69751918D01*
X52753685Y-69613578D01*
X52746876Y-69597139D01*
X52734517Y-69578643D01*
X52722603Y-69560813D01*
X52676970Y-69492517D01*
X52676970Y-69492516D01*
X52653796Y-69457834D01*
X52535336Y-69339374D01*
X52396028Y-69246292D01*
X52241255Y-69182184D01*
X52241228Y-69182178D01*
X52076945Y-69149500D01*
X52076943Y-69149500D01*
X52076939Y-69149500D01*
X51909405Y-69149500D01*
X51909400Y-69149500D01*
X51909398Y-69149500D01*
X51745114Y-69182178D01*
X51745087Y-69182184D01*
X51590314Y-69246292D01*
X51451006Y-69339374D01*
X51332546Y-69457834D01*
X51239464Y-69597142D01*
X51175356Y-69751915D01*
X51175350Y-69751942D01*
X51142672Y-69916225D01*
X51142672Y-69916226D01*
X51142672Y-69916228D01*
X51142672Y-70083771D01*
X51142672Y-70083773D01*
X51142671Y-70083773D01*
X50493672Y-70083773D01*
X50493672Y-68500892D01*
X50493853Y-68142086D01*
X50494245Y-67366896D01*
X50494714Y-66440197D01*
X50496062Y-63775007D01*
X51675000Y-63775007D01*
X51675000Y-63775010D01*
X51675000Y-63775013D01*
X51675000Y-64250000D01*
X52565395Y-64250000D01*
X52632434Y-64269685D01*
X52678189Y-64322489D01*
X52688133Y-64391647D01*
X52685170Y-64406093D01*
X52675000Y-64444048D01*
X52675000Y-64555951D01*
X52685170Y-64593907D01*
X52683507Y-64663757D01*
X52644344Y-64721620D01*
X52580115Y-64749123D01*
X52565395Y-64750000D01*
X51675001Y-64750000D01*
X51675001Y-65224995D01*
X51685493Y-65327694D01*
X51685493Y-65327695D01*
X51685494Y-65327697D01*
X51740641Y-65494119D01*
X51740643Y-65494124D01*
X51832684Y-65643345D01*
X51956654Y-65767315D01*
X52105875Y-65859356D01*
X52105880Y-65859358D01*
X52272299Y-65914504D01*
X52272300Y-65914504D01*
X52272302Y-65914505D01*
X52272309Y-65914506D01*
X52375019Y-65924999D01*
X52849999Y-65924999D01*
X52850000Y-65924998D01*
X52850000Y-65034604D01*
X52869685Y-64967565D01*
X52922489Y-64921810D01*
X52991647Y-64911866D01*
X53006085Y-64914828D01*
X53044048Y-64925000D01*
X53155950Y-64925000D01*
X53155952Y-64925000D01*
X53193906Y-64914830D01*
X53263755Y-64916491D01*
X53321618Y-64955653D01*
X53349123Y-65019881D01*
X53350000Y-65034604D01*
X53350000Y-65924999D01*
X53824960Y-65924999D01*
X53824972Y-65924999D01*
X53824986Y-65924998D01*
X53927697Y-65914505D01*
X54094119Y-65859358D01*
X54094124Y-65859356D01*
X54243345Y-65767315D01*
X54367315Y-65643345D01*
X54459356Y-65494124D01*
X54459358Y-65494119D01*
X54500332Y-65370467D01*
X62539946Y-65370467D01*
X62539946Y-65370476D01*
X62539946Y-66918321D01*
X63389946Y-66918321D01*
X63889946Y-66918321D01*
X64739946Y-66918321D01*
X64739946Y-65370493D01*
X64739945Y-65370476D01*
X64739944Y-65370467D01*
X64739944Y-65370462D01*
X64733544Y-65310949D01*
X64733544Y-65310948D01*
X64733542Y-65310938D01*
X64707826Y-65241990D01*
X64707819Y-65241972D01*
X64707819Y-65241971D01*
X64707819Y-65241970D01*
X64707530Y-65241195D01*
X64707526Y-65241185D01*
X64683300Y-65176235D01*
X64683300Y-65176234D01*
X64683298Y-65176231D01*
X64683296Y-65176227D01*
X64597136Y-65061133D01*
X64597133Y-65061130D01*
X64597131Y-65061128D01*
X64539263Y-65017808D01*
X64482039Y-64974970D01*
X64482032Y-64974966D01*
X64414678Y-64949845D01*
X64347323Y-64924723D01*
X64347316Y-64924721D01*
X64287798Y-64918321D01*
X64287790Y-64918321D01*
X63889946Y-64918321D01*
X63889946Y-66918321D01*
X63389946Y-66918321D01*
X63389946Y-64918321D01*
X62992092Y-64918321D01*
X62932574Y-64924721D01*
X62932567Y-64924723D01*
X62797856Y-64974967D01*
X62797853Y-64974969D01*
X62682759Y-65061128D01*
X62682753Y-65061134D01*
X62596594Y-65176228D01*
X62596592Y-65176231D01*
X62546348Y-65310942D01*
X62546346Y-65310949D01*
X62539946Y-65370467D01*
X54500332Y-65370467D01*
X54514349Y-65328168D01*
X54514360Y-65328136D01*
X54514504Y-65327698D01*
X54514504Y-65327697D01*
X54514505Y-65327695D01*
X54514506Y-65327690D01*
X54524999Y-65224986D01*
X54525000Y-65224973D01*
X54525000Y-64750000D01*
X53634605Y-64750000D01*
X53567566Y-64730315D01*
X53521811Y-64677511D01*
X53511867Y-64608353D01*
X53514830Y-64593907D01*
X53525000Y-64555952D01*
X53525000Y-64444048D01*
X53514830Y-64406092D01*
X53516493Y-64336243D01*
X53555656Y-64278380D01*
X53619885Y-64250877D01*
X53634605Y-64250000D01*
X54524999Y-64250000D01*
X54524999Y-63775032D01*
X54524999Y-63775028D01*
X54524998Y-63775013D01*
X54514505Y-63672302D01*
X54459358Y-63505880D01*
X54459356Y-63505875D01*
X54367315Y-63356654D01*
X54243345Y-63232684D01*
X54094124Y-63140643D01*
X54094119Y-63140641D01*
X54065972Y-63131314D01*
X53927699Y-63085494D01*
X53927694Y-63085493D01*
X53824991Y-63075000D01*
X53824986Y-63075000D01*
X53350000Y-63075000D01*
X53350000Y-63965395D01*
X53330315Y-64032434D01*
X53277511Y-64078189D01*
X53208353Y-64088133D01*
X53193907Y-64085170D01*
X53155952Y-64075000D01*
X53155951Y-64075000D01*
X53044048Y-64075000D01*
X53029792Y-64078820D01*
X53006093Y-64085170D01*
X52936243Y-64083507D01*
X52878380Y-64044344D01*
X52850877Y-63980115D01*
X52850000Y-63965395D01*
X52850000Y-63075000D01*
X52375028Y-63075000D01*
X52375012Y-63075001D01*
X52375002Y-63075001D01*
X52375002Y-63075002D01*
X52272304Y-63085493D01*
X52272302Y-63085494D01*
X52105887Y-63140638D01*
X52105879Y-63140641D01*
X52105877Y-63140642D01*
X52105875Y-63140643D01*
X52006394Y-63202003D01*
X51956652Y-63232685D01*
X51832685Y-63356652D01*
X51832684Y-63356654D01*
X51768632Y-63460499D01*
X51740641Y-63505879D01*
X51740638Y-63505888D01*
X51685494Y-63672299D01*
X51685493Y-63672304D01*
X51675000Y-63775007D01*
X50496062Y-63775007D01*
X50497151Y-61622139D01*
X57149500Y-61622139D01*
X57149500Y-62717876D01*
X57149659Y-62719806D01*
X57149885Y-62721454D01*
X57155907Y-62777482D01*
X57167511Y-62808593D01*
X57206202Y-62912328D01*
X57206206Y-62912335D01*
X57227055Y-62940185D01*
X57292450Y-63027542D01*
X57292452Y-63027544D01*
X57292455Y-63027547D01*
X57407664Y-63113793D01*
X57407671Y-63113797D01*
X57542517Y-63164091D01*
X57542516Y-63164091D01*
X57549444Y-63164835D01*
X57602127Y-63170500D01*
X58397872Y-63170499D01*
X58457483Y-63164091D01*
X58592331Y-63113796D01*
X58707546Y-63027546D01*
X58707546Y-63027544D01*
X58707548Y-63027544D01*
X58734226Y-62991905D01*
X58734228Y-62991901D01*
X58739807Y-62984449D01*
X58764750Y-62959509D01*
X58782963Y-62945875D01*
X58835270Y-62923112D01*
X58837334Y-62922740D01*
X58838850Y-62922467D01*
X58860849Y-62920500D01*
X62397617Y-62920500D01*
X62432553Y-62925523D01*
X62447551Y-62929927D01*
X62506302Y-62967672D01*
X62507489Y-62969041D01*
X62534965Y-63023902D01*
X62536610Y-63031460D01*
X62539447Y-63057831D01*
X62539447Y-63626203D01*
X62545853Y-63685802D01*
X62545854Y-63685804D01*
X62596148Y-63820649D01*
X62596149Y-63820651D01*
X62596150Y-63820653D01*
X62596151Y-63820654D01*
X62682396Y-63935863D01*
X62682402Y-63935869D01*
X62706351Y-63953797D01*
X62797610Y-64022114D01*
X62797617Y-64022118D01*
X62932463Y-64072412D01*
X62932462Y-64072412D01*
X62939390Y-64073156D01*
X62992073Y-64078821D01*
X64287818Y-64078820D01*
X64347429Y-64072412D01*
X64482277Y-64022117D01*
X64597492Y-63935867D01*
X64683742Y-63820652D01*
X64734037Y-63685804D01*
X64735488Y-63672309D01*
X64740445Y-63626206D01*
X64740445Y-63626203D01*
X64740446Y-63626194D01*
X64740445Y-63590506D01*
X64745467Y-63555574D01*
X64749376Y-63542260D01*
X64787149Y-63483481D01*
X64850698Y-63454456D01*
X64861602Y-63452888D01*
X64903437Y-63454006D01*
X64928444Y-63458980D01*
X64931170Y-63459703D01*
X64936079Y-63460500D01*
X64936080Y-63460500D01*
X64936082Y-63460500D01*
X69019819Y-63460500D01*
X69054755Y-63465523D01*
X69069753Y-63469927D01*
X69128528Y-63507699D01*
X69132015Y-63511723D01*
X69157870Y-63560065D01*
X69158282Y-63561564D01*
X69162006Y-63581177D01*
X69165907Y-63617480D01*
X69165908Y-63617482D01*
X69165908Y-63617483D01*
X69216202Y-63752328D01*
X69216206Y-63752335D01*
X69233181Y-63775010D01*
X69302450Y-63867542D01*
X69302452Y-63867544D01*
X69302455Y-63867547D01*
X69417664Y-63953793D01*
X69417671Y-63953797D01*
X69552517Y-64004091D01*
X69552516Y-64004091D01*
X69559444Y-64004835D01*
X69612127Y-64010500D01*
X72707872Y-64010499D01*
X72767483Y-64004091D01*
X72902331Y-63953796D01*
X73017546Y-63867546D01*
X73103796Y-63752331D01*
X73154091Y-63617483D01*
X73160500Y-63557873D01*
X73160499Y-62052146D01*
X74400000Y-62052146D01*
X74400000Y-62052155D01*
X74400000Y-64750000D01*
X77750000Y-64750000D01*
X78250000Y-64750000D01*
X81600000Y-64750000D01*
X81600000Y-62052172D01*
X81599999Y-62052155D01*
X81599998Y-62052146D01*
X81599998Y-62052138D01*
X81593598Y-61992628D01*
X81593596Y-61992621D01*
X81580551Y-61957645D01*
X81543354Y-61857913D01*
X81543350Y-61857906D01*
X81478850Y-61771747D01*
X81457191Y-61742813D01*
X81457185Y-61742807D01*
X81356807Y-61667664D01*
X81342093Y-61656649D01*
X81342088Y-61656646D01*
X81342089Y-61656646D01*
X81207377Y-61606402D01*
X81207370Y-61606400D01*
X81147852Y-61600000D01*
X81147844Y-61600000D01*
X78250000Y-61600000D01*
X78250000Y-64750000D01*
X77750000Y-64750000D01*
X77750000Y-61600000D01*
X74852146Y-61600000D01*
X74792628Y-61606400D01*
X74792621Y-61606402D01*
X74657910Y-61656646D01*
X74657907Y-61656648D01*
X74542813Y-61742807D01*
X74542807Y-61742813D01*
X74456648Y-61857907D01*
X74456646Y-61857910D01*
X74406402Y-61992621D01*
X74406400Y-61992628D01*
X74400000Y-62052146D01*
X73160499Y-62052146D01*
X73160499Y-61862128D01*
X73154091Y-61802517D01*
X73154087Y-61802507D01*
X73147369Y-61784497D01*
X73134503Y-61750000D01*
X73103797Y-61667671D01*
X73103793Y-61667664D01*
X73039229Y-61581419D01*
X73017548Y-61552456D01*
X73017542Y-61552450D01*
X72959616Y-61509086D01*
X72902335Y-61466206D01*
X72902332Y-61466204D01*
X72902330Y-61466203D01*
X72902328Y-61466202D01*
X72767482Y-61415908D01*
X72767483Y-61415908D01*
X72707883Y-61409501D01*
X72707881Y-61409500D01*
X72707873Y-61409500D01*
X72707864Y-61409500D01*
X72706841Y-61409500D01*
X69612123Y-61409500D01*
X69610192Y-61409659D01*
X69608545Y-61409885D01*
X69552516Y-61415908D01*
X69417666Y-61466204D01*
X69417665Y-61466205D01*
X69302456Y-61552450D01*
X69302450Y-61552456D01*
X69216205Y-61667665D01*
X69216201Y-61667671D01*
X69216200Y-61667673D01*
X69165911Y-61802507D01*
X69165911Y-61802509D01*
X69165909Y-61802517D01*
X69162842Y-61831034D01*
X69154117Y-61865219D01*
X69148136Y-61879661D01*
X69104298Y-61934068D01*
X69104284Y-61934078D01*
X69099912Y-61937113D01*
X69049093Y-61957645D01*
X69048125Y-61957802D01*
X69047557Y-61957894D01*
X69027668Y-61959500D01*
X65390059Y-61959500D01*
X65355123Y-61954477D01*
X65329881Y-61947065D01*
X65277136Y-61915769D01*
X64789371Y-61428003D01*
X64768219Y-61399747D01*
X64755612Y-61376658D01*
X64740445Y-61317233D01*
X64740445Y-60030443D01*
X64740285Y-60028518D01*
X64740058Y-60026859D01*
X64734037Y-59970838D01*
X64734036Y-59970834D01*
X64683742Y-59835990D01*
X64683741Y-59835989D01*
X64683739Y-59835985D01*
X64683728Y-59835970D01*
X64681338Y-59832250D01*
X64681337Y-59832249D01*
X64678435Y-59828900D01*
X64597493Y-59720776D01*
X64597490Y-59720773D01*
X64597488Y-59720771D01*
X64539562Y-59677407D01*
X64482281Y-59634527D01*
X64482278Y-59634525D01*
X64482276Y-59634524D01*
X64482274Y-59634523D01*
X64347428Y-59584229D01*
X64347429Y-59584229D01*
X64287829Y-59577822D01*
X64287827Y-59577821D01*
X64287819Y-59577821D01*
X64287810Y-59577821D01*
X64286787Y-59577821D01*
X62992069Y-59577821D01*
X62990138Y-59577980D01*
X62988491Y-59578206D01*
X62932462Y-59584229D01*
X62797612Y-59634525D01*
X62797611Y-59634526D01*
X62682402Y-59720771D01*
X62682396Y-59720777D01*
X62596151Y-59835986D01*
X62596149Y-59835989D01*
X62545855Y-59970834D01*
X62545853Y-59970841D01*
X62540012Y-60025172D01*
X62540013Y-60025173D01*
X62539446Y-60030451D01*
X62539446Y-61277670D01*
X62534421Y-61312612D01*
X62533672Y-61315165D01*
X62530016Y-61327612D01*
X62492273Y-61386355D01*
X62490904Y-61387542D01*
X62436043Y-61415018D01*
X62428485Y-61416663D01*
X62402114Y-61419500D01*
X58867581Y-61419500D01*
X58832641Y-61414476D01*
X58810821Y-61408068D01*
X58761291Y-61379871D01*
X58758629Y-61377394D01*
X58743836Y-61360930D01*
X58709570Y-61315158D01*
X58707992Y-61312925D01*
X58707545Y-61312453D01*
X58592337Y-61226207D01*
X58592335Y-61226206D01*
X58592333Y-61226204D01*
X58548483Y-61209849D01*
X58457482Y-61175908D01*
X58457483Y-61175908D01*
X58397883Y-61169501D01*
X58397881Y-61169500D01*
X58397873Y-61169500D01*
X58397864Y-61169500D01*
X58396841Y-61169500D01*
X57602123Y-61169500D01*
X57597024Y-61169922D01*
X57596852Y-61167854D01*
X57569032Y-61164471D01*
X57557028Y-61172264D01*
X57550066Y-61174124D01*
X57542517Y-61175907D01*
X57407666Y-61226204D01*
X57407665Y-61226205D01*
X57292456Y-61312450D01*
X57292450Y-61312456D01*
X57206205Y-61427665D01*
X57206203Y-61427668D01*
X57155907Y-61562516D01*
X57149501Y-61622116D01*
X57149500Y-61622139D01*
X50497151Y-61622139D01*
X50498334Y-59282139D01*
X57149500Y-59282139D01*
X57149500Y-60377876D01*
X57149659Y-60379806D01*
X57149885Y-60381454D01*
X57155907Y-60437482D01*
X57183690Y-60511971D01*
X57206202Y-60572328D01*
X57206203Y-60572330D01*
X57206204Y-60572332D01*
X57206205Y-60572333D01*
X57292450Y-60687542D01*
X57292452Y-60687544D01*
X57292455Y-60687547D01*
X57407664Y-60773793D01*
X57407671Y-60773797D01*
X57457155Y-60792253D01*
X57492513Y-60818721D01*
X57549444Y-60824835D01*
X57549443Y-60824839D01*
X57549458Y-60824836D01*
X57602127Y-60830500D01*
X58397872Y-60830499D01*
X58457483Y-60824091D01*
X58592331Y-60773796D01*
X58707546Y-60687546D01*
X58793796Y-60572331D01*
X58844091Y-60437483D01*
X58850500Y-60377873D01*
X58850499Y-60110054D01*
X58855522Y-60075121D01*
X58862932Y-60049884D01*
X58894226Y-59997139D01*
X60091944Y-58799423D01*
X60120194Y-58778275D01*
X60143286Y-58765667D01*
X60202711Y-58750500D01*
X64729861Y-58750500D01*
X64827403Y-58731096D01*
X64874854Y-58721658D01*
X65011436Y-58665084D01*
X65060670Y-58632186D01*
X65134357Y-58582952D01*
X66699274Y-57018034D01*
X66727524Y-56996886D01*
X66750616Y-56984278D01*
X66810041Y-56969111D01*
X68787333Y-56969111D01*
X68787338Y-56969111D01*
X68890127Y-56958610D01*
X69056664Y-56903425D01*
X69205985Y-56811322D01*
X69330041Y-56687266D01*
X69422144Y-56537945D01*
X69477329Y-56371408D01*
X69487830Y-56268619D01*
X69487830Y-54777145D01*
X73087905Y-54777145D01*
X73087905Y-55026213D01*
X73120411Y-55273132D01*
X73120412Y-55273137D01*
X73120413Y-55273143D01*
X73144164Y-55361781D01*
X73184878Y-55513731D01*
X73280190Y-55743834D01*
X73404713Y-55959513D01*
X73404721Y-55959526D01*
X73404729Y-55959536D01*
X73479305Y-56056725D01*
X74270829Y-55265200D01*
X74332150Y-55231717D01*
X74401841Y-55236701D01*
X74457775Y-55278573D01*
X74461596Y-55283972D01*
X74483017Y-55316031D01*
X74483021Y-55316035D01*
X74483021Y-55316036D01*
X74573548Y-55406563D01*
X74573551Y-55406565D01*
X74573554Y-55406568D01*
X74605590Y-55427973D01*
X74650394Y-55481584D01*
X74659102Y-55550909D01*
X74628948Y-55613937D01*
X74624380Y-55618756D01*
X73832858Y-56410277D01*
X73832858Y-56410278D01*
X73899189Y-56461176D01*
X73930057Y-56484862D01*
X73930060Y-56484864D01*
X73930063Y-56484866D01*
X74145745Y-56609391D01*
X74145756Y-56609396D01*
X74375855Y-56704706D01*
X74616441Y-56769171D01*
X74863371Y-56801680D01*
X75112432Y-56801680D01*
X75112439Y-56801680D01*
X75359368Y-56769171D01*
X75599954Y-56704706D01*
X75830053Y-56609396D01*
X75830064Y-56609391D01*
X76045760Y-56484858D01*
X76142950Y-56410280D01*
X76142950Y-56410277D01*
X75692186Y-55959513D01*
X75351429Y-55618756D01*
X75317944Y-55557433D01*
X75322928Y-55487741D01*
X75364800Y-55431808D01*
X75370175Y-55428003D01*
X75402256Y-55406568D01*
X75492793Y-55316031D01*
X75514200Y-55283992D01*
X75567808Y-55239190D01*
X75637132Y-55230481D01*
X75700161Y-55260635D01*
X75704981Y-55265204D01*
X76496502Y-56056725D01*
X76496504Y-56056725D01*
X76496505Y-56056725D01*
X76571083Y-55959535D01*
X76695616Y-55743839D01*
X76695621Y-55743828D01*
X76790931Y-55513729D01*
X76855396Y-55273143D01*
X76887905Y-55026213D01*
X76887905Y-54777146D01*
X76855396Y-54530216D01*
X76790931Y-54289630D01*
X76695621Y-54059531D01*
X76695616Y-54059520D01*
X76571091Y-53843838D01*
X76571085Y-53843830D01*
X76570727Y-53843364D01*
X76547401Y-53812964D01*
X76496503Y-53746633D01*
X76496502Y-53746633D01*
X75704981Y-54538154D01*
X75643658Y-54571639D01*
X75573966Y-54566655D01*
X75518033Y-54524783D01*
X75514198Y-54519364D01*
X75492791Y-54487326D01*
X75402261Y-54396796D01*
X75402257Y-54396793D01*
X75402256Y-54396792D01*
X75370215Y-54375383D01*
X75325412Y-54321771D01*
X75316705Y-54252446D01*
X75346860Y-54189419D01*
X75351406Y-54184622D01*
X76142950Y-53393080D01*
X76142949Y-53393079D01*
X76045751Y-53318496D01*
X76045738Y-53318488D01*
X75830059Y-53193965D01*
X75599958Y-53098654D01*
X75378345Y-53039273D01*
X75359368Y-53034188D01*
X75359367Y-53034187D01*
X75359364Y-53034187D01*
X75112440Y-53001680D01*
X75112439Y-53001680D01*
X74863371Y-53001680D01*
X74863370Y-53001680D01*
X74616451Y-53034186D01*
X74616444Y-53034187D01*
X74616441Y-53034188D01*
X74597464Y-53039273D01*
X74375852Y-53098653D01*
X74230229Y-53158973D01*
X74145756Y-53193963D01*
X74145754Y-53193964D01*
X74145752Y-53193964D01*
X73930055Y-53318498D01*
X73930039Y-53318509D01*
X73832858Y-53393078D01*
X73832858Y-53393080D01*
X74624380Y-54184602D01*
X74657865Y-54245925D01*
X74652881Y-54315617D01*
X74611009Y-54371550D01*
X74605593Y-54375383D01*
X74573553Y-54396792D01*
X74573548Y-54396796D01*
X74483021Y-54487323D01*
X74483017Y-54487328D01*
X74461608Y-54519368D01*
X74407995Y-54564171D01*
X74338669Y-54572877D01*
X74275643Y-54542720D01*
X74270827Y-54538155D01*
X73479305Y-53746633D01*
X73479304Y-53746633D01*
X73479303Y-53746633D01*
X73404734Y-53843814D01*
X73404723Y-53843830D01*
X73280189Y-54059526D01*
X73184878Y-54289627D01*
X73120414Y-54530213D01*
X73120411Y-54530226D01*
X73087905Y-54777145D01*
X69487830Y-54777145D01*
X69487830Y-53868603D01*
X69477329Y-53765814D01*
X69422144Y-53599277D01*
X69422137Y-53599266D01*
X69330043Y-53449959D01*
X69330042Y-53449958D01*
X69330041Y-53449956D01*
X69205985Y-53325900D01*
X69205981Y-53325897D01*
X69136490Y-53283034D01*
X69056673Y-53233801D01*
X69056669Y-53233799D01*
X69056667Y-53233798D01*
X69056665Y-53233797D01*
X68973395Y-53206204D01*
X68973394Y-53206203D01*
X68898594Y-53181417D01*
X68895770Y-53180250D01*
X68890126Y-53178610D01*
X68787354Y-53168111D01*
X68787345Y-53168111D01*
X68787338Y-53168111D01*
X66387322Y-53168111D01*
X66387314Y-53168111D01*
X66387304Y-53168111D01*
X66282825Y-53178785D01*
X66277245Y-53181026D01*
X66117997Y-53233795D01*
X66117985Y-53233801D01*
X65968684Y-53325893D01*
X65968671Y-53325902D01*
X65968668Y-53325904D01*
X65844623Y-53449949D01*
X65844621Y-53449952D01*
X65844612Y-53449965D01*
X65752520Y-53599266D01*
X65752514Y-53599278D01*
X65699745Y-53758526D01*
X65697504Y-53764106D01*
X65686830Y-53868585D01*
X65686830Y-55838551D01*
X65681806Y-55873488D01*
X65674394Y-55898729D01*
X65643099Y-55951473D01*
X64393999Y-57200573D01*
X64365748Y-57221722D01*
X64342660Y-57234330D01*
X64283230Y-57249500D01*
X59756078Y-57249500D01*
X59611096Y-57278338D01*
X59611079Y-57278344D01*
X59474522Y-57334906D01*
X59474504Y-57334915D01*
X59474496Y-57334920D01*
X59474495Y-57334920D01*
X59435309Y-57361105D01*
X59435295Y-57361114D01*
X59351592Y-57417040D01*
X59351584Y-57417046D01*
X59351582Y-57417048D01*
X59351575Y-57417054D01*
X57988056Y-58780573D01*
X57959805Y-58801722D01*
X57936717Y-58814330D01*
X57877287Y-58829500D01*
X57602130Y-58829500D01*
X57602128Y-58829500D01*
X57601423Y-58829550D01*
X57599979Y-58829731D01*
X57542516Y-58835907D01*
X57407666Y-58886204D01*
X57407665Y-58886205D01*
X57292456Y-58972450D01*
X57292450Y-58972456D01*
X57206205Y-59087665D01*
X57206203Y-59087668D01*
X57155907Y-59222516D01*
X57149501Y-59282116D01*
X57149500Y-59282139D01*
X50498334Y-59282139D01*
X50500466Y-55066017D01*
X50500500Y-55065892D01*
X50500500Y-55003963D01*
X50500529Y-55001338D01*
X50500589Y-54998593D01*
X50500676Y-54995960D01*
X50501062Y-54987137D01*
X50505796Y-54878710D01*
X53149500Y-54878710D01*
X53149500Y-55121288D01*
X53175146Y-55316100D01*
X53181161Y-55361785D01*
X53216907Y-55495190D01*
X53243947Y-55596104D01*
X53305141Y-55743839D01*
X53336774Y-55820208D01*
X53336779Y-55820219D01*
X53458060Y-56030283D01*
X53458062Y-56030286D01*
X53458281Y-56030615D01*
X53459284Y-56031879D01*
X53605726Y-56222728D01*
X53605730Y-56222733D01*
X53605733Y-56222736D01*
X53605739Y-56222743D01*
X53777256Y-56394260D01*
X53777263Y-56394266D01*
X53798133Y-56410280D01*
X53798134Y-56410281D01*
X53969711Y-56541936D01*
X54179784Y-56663222D01*
X54179785Y-56663222D01*
X54179788Y-56663224D01*
X54403900Y-56756054D01*
X54638211Y-56818838D01*
X54787554Y-56838499D01*
X54878711Y-56850500D01*
X54878712Y-56850500D01*
X55121283Y-56850500D01*
X55121289Y-56850500D01*
X55169388Y-56844167D01*
X55361789Y-56818838D01*
X55596100Y-56756054D01*
X55820212Y-56663224D01*
X56030289Y-56541936D01*
X56222738Y-56394265D01*
X56394265Y-56222738D01*
X56541936Y-56030289D01*
X56663224Y-55820212D01*
X56756054Y-55596100D01*
X56818838Y-55361789D01*
X56850500Y-55121288D01*
X56850500Y-54944076D01*
X60687330Y-54944076D01*
X60687330Y-55193144D01*
X60719836Y-55440063D01*
X60719837Y-55440068D01*
X60719838Y-55440074D01*
X60739575Y-55513733D01*
X60784303Y-55680662D01*
X60879615Y-55910765D01*
X61004138Y-56126444D01*
X61004146Y-56126457D01*
X61004154Y-56126467D01*
X61078730Y-56223656D01*
X61870254Y-55432131D01*
X61931575Y-55398648D01*
X62001266Y-55403632D01*
X62057200Y-55445504D01*
X62061021Y-55450903D01*
X62082442Y-55482962D01*
X62082446Y-55482966D01*
X62082446Y-55482967D01*
X62172973Y-55573494D01*
X62172976Y-55573496D01*
X62172979Y-55573499D01*
X62205015Y-55594904D01*
X62249819Y-55648515D01*
X62258527Y-55717840D01*
X62228373Y-55780868D01*
X62223805Y-55785687D01*
X61432283Y-56577208D01*
X61432283Y-56577209D01*
X61474226Y-56609393D01*
X61529482Y-56651793D01*
X61529485Y-56651795D01*
X61529488Y-56651797D01*
X61745170Y-56776322D01*
X61745181Y-56776327D01*
X61975280Y-56871637D01*
X62215866Y-56936102D01*
X62462796Y-56968611D01*
X62711857Y-56968611D01*
X62711864Y-56968611D01*
X62958793Y-56936102D01*
X63199379Y-56871637D01*
X63429478Y-56776327D01*
X63429489Y-56776322D01*
X63645185Y-56651789D01*
X63742375Y-56577211D01*
X63742375Y-56577208D01*
X63290450Y-56125283D01*
X62950854Y-55785687D01*
X62917369Y-55724364D01*
X62922353Y-55654672D01*
X62964225Y-55598739D01*
X62969600Y-55594934D01*
X63001681Y-55573499D01*
X63092218Y-55482962D01*
X63113625Y-55450923D01*
X63167233Y-55406121D01*
X63236557Y-55397412D01*
X63299586Y-55427566D01*
X63304404Y-55432133D01*
X64095927Y-56223656D01*
X64095929Y-56223656D01*
X64095930Y-56223656D01*
X64170508Y-56126466D01*
X64295041Y-55910770D01*
X64295046Y-55910759D01*
X64390356Y-55680660D01*
X64454821Y-55440074D01*
X64454823Y-55440063D01*
X64465128Y-55361781D01*
X64487330Y-55193144D01*
X64487330Y-54944077D01*
X64454821Y-54697147D01*
X64390356Y-54456561D01*
X64295046Y-54226462D01*
X64295041Y-54226451D01*
X64170516Y-54010769D01*
X64170510Y-54010761D01*
X64095928Y-53913564D01*
X64095927Y-53913564D01*
X63304406Y-54705085D01*
X63243083Y-54738570D01*
X63173391Y-54733586D01*
X63117458Y-54691714D01*
X63113623Y-54686295D01*
X63092216Y-54654257D01*
X63001686Y-54563727D01*
X63001682Y-54563724D01*
X63001681Y-54563723D01*
X62969640Y-54542314D01*
X62924837Y-54488702D01*
X62916130Y-54419377D01*
X62946285Y-54356350D01*
X62950831Y-54351553D01*
X63742375Y-53560011D01*
X63742374Y-53560010D01*
X63645176Y-53485427D01*
X63645163Y-53485419D01*
X63429484Y-53360896D01*
X63199383Y-53265585D01*
X63005246Y-53213566D01*
X62958793Y-53201119D01*
X62958792Y-53201118D01*
X62958789Y-53201118D01*
X62711865Y-53168611D01*
X62711864Y-53168611D01*
X62462796Y-53168611D01*
X62462795Y-53168611D01*
X62215876Y-53201117D01*
X62215869Y-53201118D01*
X62215866Y-53201119D01*
X62169413Y-53213566D01*
X61975277Y-53265584D01*
X61745176Y-53360895D01*
X61529480Y-53485429D01*
X61529464Y-53485440D01*
X61432283Y-53560009D01*
X61432283Y-53560011D01*
X62223805Y-54351533D01*
X62257290Y-54412856D01*
X62252306Y-54482548D01*
X62210434Y-54538481D01*
X62205018Y-54542314D01*
X62172978Y-54563723D01*
X62172973Y-54563727D01*
X62082446Y-54654254D01*
X62082442Y-54654259D01*
X62061033Y-54686299D01*
X62007420Y-54731102D01*
X61938094Y-54739808D01*
X61875068Y-54709651D01*
X61870252Y-54705086D01*
X61078730Y-53913564D01*
X61078729Y-53913564D01*
X61078728Y-53913564D01*
X61004159Y-54010745D01*
X61004148Y-54010761D01*
X60879614Y-54226457D01*
X60784303Y-54456558D01*
X60719839Y-54697144D01*
X60719836Y-54697157D01*
X60687330Y-54944076D01*
X56850500Y-54944076D01*
X56850500Y-54878712D01*
X56849253Y-54869243D01*
X56829814Y-54721584D01*
X56818838Y-54638211D01*
X56756054Y-54403900D01*
X56663224Y-54179788D01*
X56541936Y-53969711D01*
X56464347Y-53868595D01*
X56394266Y-53777263D01*
X56394260Y-53777256D01*
X56222743Y-53605739D01*
X56222736Y-53605733D01*
X56222733Y-53605730D01*
X56222728Y-53605726D01*
X56031879Y-53459284D01*
X56030615Y-53458281D01*
X56030286Y-53458062D01*
X56030283Y-53458060D01*
X55820215Y-53336777D01*
X55820200Y-53336770D01*
X55776098Y-53318503D01*
X55776097Y-53318503D01*
X55596104Y-53243947D01*
X55409570Y-53193965D01*
X55409568Y-53193964D01*
X55369638Y-53183264D01*
X55361893Y-53180635D01*
X55353726Y-53180100D01*
X55121290Y-53149500D01*
X55121289Y-53149500D01*
X55121288Y-53149500D01*
X54878712Y-53149500D01*
X54878711Y-53149500D01*
X54878710Y-53149500D01*
X54638217Y-53181160D01*
X54403894Y-53243947D01*
X54179790Y-53336774D01*
X54179780Y-53336779D01*
X54179775Y-53336781D01*
X54028705Y-53424003D01*
X54028704Y-53424002D01*
X53983757Y-53449954D01*
X53983755Y-53449956D01*
X53969710Y-53458064D01*
X53969706Y-53458067D01*
X53777270Y-53605726D01*
X53777255Y-53605740D01*
X53777247Y-53605747D01*
X53605747Y-53777247D01*
X53605740Y-53777255D01*
X53605726Y-53777270D01*
X53458073Y-53969697D01*
X53458067Y-53969706D01*
X53336778Y-54179782D01*
X53336774Y-54179790D01*
X53243947Y-54403894D01*
X53181160Y-54638217D01*
X53149500Y-54878710D01*
X50505796Y-54878710D01*
X50506209Y-54869244D01*
X50506209Y-54869243D01*
X50509155Y-54801767D01*
X50517269Y-54615895D01*
X50517620Y-54610551D01*
X50518093Y-54605144D01*
X50518673Y-54599848D01*
X50567803Y-54226673D01*
X50568612Y-54221413D01*
X50569557Y-54216048D01*
X50570610Y-54210758D01*
X50604137Y-54059531D01*
X50652065Y-53843342D01*
X50653348Y-53838103D01*
X50654747Y-53832883D01*
X50656260Y-53827694D01*
X50672162Y-53777262D01*
X50728283Y-53599266D01*
X50769423Y-53468786D01*
X50771136Y-53463735D01*
X50773006Y-53458595D01*
X50774939Y-53453627D01*
X50918973Y-53105896D01*
X50921140Y-53100973D01*
X50923434Y-53096052D01*
X50925795Y-53091266D01*
X51099580Y-52757429D01*
X51102162Y-52752724D01*
X51103590Y-52750250D01*
X51104868Y-52748035D01*
X51107637Y-52743469D01*
X51309889Y-52425997D01*
X51312857Y-52421555D01*
X51315992Y-52417078D01*
X51319138Y-52412788D01*
X51548286Y-52114156D01*
X51551613Y-52110013D01*
X51555118Y-52105836D01*
X51558639Y-52101820D01*
X51812919Y-51824323D01*
X51816614Y-51820463D01*
X51820463Y-51816614D01*
X51824323Y-51812919D01*
X52101820Y-51558639D01*
X52105849Y-51555107D01*
X52110013Y-51551613D01*
X52114156Y-51548286D01*
X52412788Y-51319138D01*
X52417078Y-51315992D01*
X52421555Y-51312857D01*
X52425997Y-51309889D01*
X52743469Y-51107637D01*
X52748035Y-51104868D01*
X52752724Y-51102162D01*
X52757429Y-51099580D01*
X53091266Y-50925795D01*
X53096052Y-50923434D01*
X53100988Y-50921133D01*
X53105908Y-50918969D01*
X53453627Y-50774939D01*
X53458584Y-50773010D01*
X53463739Y-50771135D01*
X53468770Y-50769427D01*
X53827740Y-50656245D01*
X53832853Y-50654754D01*
X53838134Y-50653339D01*
X53843335Y-50652066D01*
X54210765Y-50570608D01*
X54216048Y-50569557D01*
X54221413Y-50568612D01*
X54226673Y-50567803D01*
X54599802Y-50518679D01*
X54605165Y-50518092D01*
X54607637Y-50517875D01*
X54610539Y-50517621D01*
X54615891Y-50517270D01*
X54995979Y-50500674D01*
X54998684Y-50500587D01*
X55001388Y-50500529D01*
X55004047Y-50500500D01*
X94995952Y-50500500D01*
X94998612Y-50500529D01*
G37*
%TD.AperFunction*%
%TA.AperFunction,Conductor*%
G36*
X76476749Y-70625521D02*
G01*
X76487602Y-70628707D01*
X76546383Y-70666477D01*
X76575412Y-70730031D01*
X76565473Y-70799190D01*
X76565471Y-70799194D01*
X76564502Y-70801316D01*
X76520597Y-70852910D01*
X76402775Y-70931635D01*
X76402774Y-70931637D01*
X76365642Y-70968770D01*
X76337383Y-70989924D01*
X76323663Y-70997415D01*
X76255403Y-71012266D01*
X76251092Y-71011958D01*
X76185626Y-70987546D01*
X76172247Y-70975953D01*
X76127543Y-70931248D01*
X76014476Y-70855698D01*
X75983170Y-70825646D01*
X75978305Y-70818973D01*
X75954717Y-70753206D01*
X75970430Y-70685126D01*
X76013344Y-70640423D01*
X76015648Y-70639000D01*
X76080807Y-70620500D01*
X76441822Y-70620500D01*
X76476749Y-70625521D01*
G37*
%TD.AperFunction*%
%TD*%
M02*
