%TF.GenerationSoftware,KiCad,Pcbnew,9.0.2*%
%TF.CreationDate,2026-02-04T14:32:47-03:00*%
%TF.ProjectId,parlav1,7061726c-6176-4312-9e6b-696361645f70,rev?*%
%TF.SameCoordinates,Original*%
%TF.FileFunction,Copper,L1,Top*%
%TF.FilePolarity,Positive*%
%FSLAX46Y46*%
G04 Gerber Fmt 4.6, Leading zero omitted, Abs format (unit mm)*
G04 Created by KiCad (PCBNEW 9.0.2) date 2026-02-04 14:32:47*
%MOMM*%
%LPD*%
G01*
G04 APERTURE LIST*
G04 Aperture macros list*
%AMRoundRect*
0 Rectangle with rounded corners*
0 $1 Rounding radius*
0 $2 $3 $4 $5 $6 $7 $8 $9 X,Y pos of 4 corners*
0 Add a 4 corners polygon primitive as box body*
4,1,4,$2,$3,$4,$5,$6,$7,$8,$9,$2,$3,0*
0 Add four circle primitives for the rounded corners*
1,1,$1+$1,$2,$3*
1,1,$1+$1,$4,$5*
1,1,$1+$1,$6,$7*
1,1,$1+$1,$8,$9*
0 Add four rect primitives between the rounded corners*
20,1,$1+$1,$2,$3,$4,$5,0*
20,1,$1+$1,$4,$5,$6,$7,0*
20,1,$1+$1,$6,$7,$8,$9,0*
20,1,$1+$1,$8,$9,$2,$3,0*%
G04 Aperture macros list end*
%TA.AperFunction,ComponentPad*%
%ADD10R,1.700000X1.700000*%
%TD*%
%TA.AperFunction,SMDPad,CuDef*%
%ADD11RoundRect,0.250000X-0.550000X1.050000X-0.550000X-1.050000X0.550000X-1.050000X0.550000X1.050000X0*%
%TD*%
%TA.AperFunction,SMDPad,CuDef*%
%ADD12RoundRect,0.250000X-0.550000X1.500000X-0.550000X-1.500000X0.550000X-1.500000X0.550000X1.500000X0*%
%TD*%
%TA.AperFunction,SMDPad,CuDef*%
%ADD13RoundRect,0.250000X0.450000X-0.262500X0.450000X0.262500X-0.450000X0.262500X-0.450000X-0.262500X0*%
%TD*%
%TA.AperFunction,ComponentPad*%
%ADD14R,3.000000X3.000000*%
%TD*%
%TA.AperFunction,ComponentPad*%
%ADD15C,3.000000*%
%TD*%
%TA.AperFunction,SMDPad,CuDef*%
%ADD16RoundRect,0.112500X0.112500X-0.187500X0.112500X0.187500X-0.112500X0.187500X-0.112500X-0.187500X0*%
%TD*%
%TA.AperFunction,SMDPad,CuDef*%
%ADD17RoundRect,0.250000X-0.550000X1.250000X-0.550000X-1.250000X0.550000X-1.250000X0.550000X1.250000X0*%
%TD*%
%TA.AperFunction,ComponentPad*%
%ADD18C,1.700000*%
%TD*%
%TA.AperFunction,SMDPad,CuDef*%
%ADD19RoundRect,0.250000X0.475000X-0.250000X0.475000X0.250000X-0.475000X0.250000X-0.475000X-0.250000X0*%
%TD*%
%TA.AperFunction,SMDPad,CuDef*%
%ADD20RoundRect,0.250000X-0.475000X0.250000X-0.475000X-0.250000X0.475000X-0.250000X0.475000X0.250000X0*%
%TD*%
%TA.AperFunction,ComponentPad*%
%ADD21RoundRect,0.250000X-0.950000X-0.550000X0.950000X-0.550000X0.950000X0.550000X-0.950000X0.550000X0*%
%TD*%
%TA.AperFunction,ComponentPad*%
%ADD22O,2.400000X1.600000*%
%TD*%
%TA.AperFunction,ViaPad*%
%ADD23C,0.500000*%
%TD*%
%TA.AperFunction,Conductor*%
%ADD24C,0.500000*%
%TD*%
%TA.AperFunction,Conductor*%
%ADD25C,0.300000*%
%TD*%
G04 APERTURE END LIST*
D10*
%TO.P,H2,1,1*%
%TO.N,Net-(H2-Pad1)*%
X80240366Y-52059175D03*
%TD*%
D11*
%TO.P,C2,1*%
%TO.N,Net-(U1--)*%
X75000000Y-58400000D03*
%TO.P,C2,2*%
%TO.N,GND*%
X75000000Y-62000000D03*
%TD*%
D12*
%TO.P,C5,1*%
%TO.N,Net-(C4-Pad1)*%
X61000000Y-72700000D03*
%TO.P,C5,2*%
%TO.N,Net-(C5-Pad2)*%
X61000000Y-78300000D03*
%TD*%
D13*
%TO.P,R1,1*%
%TO.N,Net-(C4-Pad2)*%
X67913687Y-79237260D03*
%TO.P,R1,2*%
%TO.N,GND*%
X67913687Y-77412260D03*
%TD*%
D14*
%TO.P,LS1,1,1*%
%TO.N,Net-(C5-Pad2)*%
X63363808Y-86092743D03*
D15*
%TO.P,LS1,2,2*%
%TO.N,GND*%
X68443808Y-86092743D03*
%TD*%
D11*
%TO.P,C3,1*%
%TO.N,Net-(C3-Pad1)*%
X60000000Y-63200000D03*
%TO.P,C3,2*%
%TO.N,Net-(U1-+)*%
X60000000Y-66800000D03*
%TD*%
D14*
%TO.P,J2,1,Pin_1*%
%TO.N,Net-(D1-A)*%
X86123257Y-61417090D03*
D15*
%TO.P,J2,2,Pin_2*%
%TO.N,GND*%
X86123257Y-56337090D03*
%TD*%
D16*
%TO.P,D1,1,K*%
%TO.N,VCC*%
X79000000Y-68000000D03*
%TO.P,D1,2,A*%
%TO.N,Net-(D1-A)*%
X79000000Y-65900000D03*
%TD*%
D17*
%TO.P,C7,1*%
%TO.N,Net-(U1-BYPASS)*%
X53718396Y-73655599D03*
%TO.P,C7,2*%
%TO.N,GND*%
X53718396Y-78055599D03*
%TD*%
D12*
%TO.P,C6,1*%
%TO.N,VCC*%
X78000000Y-80200000D03*
%TO.P,C6,2*%
%TO.N,GND*%
X78000000Y-85800000D03*
%TD*%
D10*
%TO.P,POT1,1,1*%
%TO.N,GND*%
X52000000Y-62920000D03*
D18*
%TO.P,POT1,2,2*%
%TO.N,Net-(C3-Pad1)*%
X52000000Y-65460000D03*
%TO.P,POT1,3,3*%
%TO.N,/Vin*%
X52000000Y-68000000D03*
%TD*%
D14*
%TO.P,J1,1,Pin_1*%
%TO.N,/Vin*%
X66540000Y-54000000D03*
D15*
%TO.P,J1,2,Pin_2*%
%TO.N,GND*%
X61460000Y-54000000D03*
%TD*%
D19*
%TO.P,C1,1*%
%TO.N,Net-(U1-+)*%
X67000000Y-62900000D03*
%TO.P,C1,2*%
%TO.N,GND*%
X67000000Y-61000000D03*
%TD*%
D10*
%TO.P,H1,1,1*%
%TO.N,Net-(H1-Pad1)*%
X71302034Y-52037321D03*
%TD*%
D20*
%TO.P,C4,1*%
%TO.N,Net-(C4-Pad1)*%
X72784667Y-77191909D03*
%TO.P,C4,2*%
%TO.N,Net-(C4-Pad2)*%
X72784667Y-79091909D03*
%TD*%
D21*
%TO.P,U1,1,GAIN*%
%TO.N,Net-(H1-Pad1)*%
X67190000Y-66190000D03*
D22*
%TO.P,U1,2,-*%
%TO.N,Net-(U1--)*%
X67190000Y-68730000D03*
%TO.P,U1,3,+*%
%TO.N,Net-(U1-+)*%
X67190000Y-71270000D03*
%TO.P,U1,4,GND*%
%TO.N,GND*%
X67190000Y-73810000D03*
%TO.P,U1,5*%
%TO.N,Net-(C4-Pad1)*%
X74810000Y-73810000D03*
%TO.P,U1,6,V+*%
%TO.N,VCC*%
X74810000Y-71270000D03*
%TO.P,U1,7,BYPASS*%
%TO.N,Net-(U1-BYPASS)*%
X74810000Y-68730000D03*
%TO.P,U1,8,GAIN*%
%TO.N,Net-(H2-Pad1)*%
X74810000Y-66190000D03*
%TD*%
D23*
%TO.N,Net-(U1-+)*%
X57500000Y-68000000D03*
%TD*%
D24*
%TO.N,Net-(U1-+)*%
X58700000Y-66800000D02*
X60000000Y-66800000D01*
X63900000Y-62900000D02*
X67000000Y-62900000D01*
X60000000Y-66800000D02*
X63900000Y-62900000D01*
X57500000Y-68000000D02*
X58700000Y-66800000D01*
%TO.N,Net-(U1--)*%
X75000000Y-58400000D02*
X73600000Y-58400000D01*
X68270000Y-68730000D02*
X67190000Y-68730000D01*
X73000000Y-59000000D02*
X73000000Y-64000000D01*
X73600000Y-58400000D02*
X73000000Y-59000000D01*
X73000000Y-64000000D02*
X68270000Y-68730000D01*
%TO.N,Net-(C3-Pad1)*%
X54040000Y-65460000D02*
X56000000Y-63500000D01*
X59700000Y-63500000D02*
X60000000Y-63200000D01*
X52000000Y-65460000D02*
X54040000Y-65460000D01*
X56000000Y-63500000D02*
X59700000Y-63500000D01*
%TO.N,Net-(C4-Pad2)*%
X67913687Y-79237260D02*
X72639316Y-79237260D01*
X72639316Y-79237260D02*
X72784667Y-79091909D01*
%TO.N,Net-(C4-Pad1)*%
X71092758Y-75500000D02*
X72784667Y-77191909D01*
X64100000Y-75500000D02*
X71092758Y-75500000D01*
X74810000Y-73810000D02*
X72782758Y-73810000D01*
X72782758Y-73810000D02*
X71092758Y-75500000D01*
X61000000Y-72400000D02*
X64100000Y-75500000D01*
%TO.N,Net-(C5-Pad2)*%
X61000000Y-83728935D02*
X63363808Y-86092743D01*
X61000000Y-78000000D02*
X61000000Y-83728935D01*
D25*
%TO.N,Net-(U1-BYPASS)*%
X73270000Y-68730000D02*
X74810000Y-68730000D01*
X57254995Y-70119000D02*
X71881000Y-70119000D01*
X71881000Y-70119000D02*
X73270000Y-68730000D01*
X53718396Y-73655599D02*
X57254995Y-70119000D01*
D24*
%TO.N,/Vin*%
X64500000Y-65000000D02*
X65000000Y-64500000D01*
X65000000Y-64500000D02*
X69000000Y-64500000D01*
X70000000Y-57460000D02*
X66540000Y-54000000D01*
X61500000Y-69500000D02*
X64500000Y-66500000D01*
X64500000Y-66500000D02*
X64500000Y-65000000D01*
X53500000Y-69500000D02*
X61500000Y-69500000D01*
X70000000Y-63500000D02*
X70000000Y-57460000D01*
X69000000Y-64500000D02*
X70000000Y-63500000D01*
X52000000Y-68000000D02*
X53500000Y-69500000D01*
%TO.N,VCC*%
X78000000Y-71540000D02*
X77730000Y-71270000D01*
X77730000Y-71270000D02*
X74810000Y-71270000D01*
X79000000Y-70000000D02*
X77730000Y-71270000D01*
X79000000Y-68000000D02*
X79000000Y-70000000D01*
X78000000Y-80200000D02*
X78000000Y-71540000D01*
%TO.N,Net-(D1-A)*%
X79000000Y-65000000D02*
X79000000Y-65900000D01*
X86123257Y-61417090D02*
X82582910Y-61417090D01*
X82582910Y-61417090D02*
X79000000Y-65000000D01*
%TO.N,Net-(H1-Pad1)*%
X71302034Y-63697966D02*
X68810000Y-66190000D01*
X68810000Y-66190000D02*
X67190000Y-66190000D01*
X71302034Y-52037321D02*
X71302034Y-63697966D01*
%TO.N,Net-(H2-Pad1)*%
X75810000Y-66190000D02*
X74810000Y-66190000D01*
X80240366Y-52059175D02*
X80240366Y-61759634D01*
X80240366Y-61759634D02*
X75810000Y-66190000D01*
%TD*%
%TA.AperFunction,Conductor*%
%TO.N,GND*%
G36*
X85002702Y-50500617D02*
G01*
X85386771Y-50517386D01*
X85397506Y-50518326D01*
X85775971Y-50568152D01*
X85786597Y-50570025D01*
X86159284Y-50652648D01*
X86169710Y-50655442D01*
X86533765Y-50770227D01*
X86543911Y-50773920D01*
X86896578Y-50920000D01*
X86906369Y-50924566D01*
X86987585Y-50966844D01*
X87244942Y-51100816D01*
X87254309Y-51106223D01*
X87340768Y-51161304D01*
X87576244Y-51311318D01*
X87585105Y-51317523D01*
X87887930Y-51549889D01*
X87896217Y-51556843D01*
X88177635Y-51814715D01*
X88185284Y-51822364D01*
X88443156Y-52103782D01*
X88450110Y-52112069D01*
X88682476Y-52414894D01*
X88688681Y-52423755D01*
X88893775Y-52745689D01*
X88899183Y-52755057D01*
X89075430Y-53093623D01*
X89080002Y-53103427D01*
X89226075Y-53456078D01*
X89229775Y-53466244D01*
X89344554Y-53830278D01*
X89347354Y-53840727D01*
X89429971Y-54213389D01*
X89431849Y-54224042D01*
X89481671Y-54602473D01*
X89482614Y-54613249D01*
X89499382Y-54997297D01*
X89499500Y-55002706D01*
X89499500Y-84997293D01*
X89499382Y-85002702D01*
X89482614Y-85386750D01*
X89481671Y-85397526D01*
X89431849Y-85775957D01*
X89429971Y-85786610D01*
X89347354Y-86159272D01*
X89344554Y-86169721D01*
X89229775Y-86533755D01*
X89226075Y-86543921D01*
X89080002Y-86896572D01*
X89075430Y-86906376D01*
X88899183Y-87244942D01*
X88893775Y-87254310D01*
X88688681Y-87576244D01*
X88682476Y-87585105D01*
X88450110Y-87887930D01*
X88443156Y-87896217D01*
X88185284Y-88177635D01*
X88177635Y-88185284D01*
X87896217Y-88443156D01*
X87887930Y-88450110D01*
X87585105Y-88682476D01*
X87576244Y-88688681D01*
X87254310Y-88893775D01*
X87244942Y-88899183D01*
X86906376Y-89075430D01*
X86896572Y-89080002D01*
X86543921Y-89226075D01*
X86533755Y-89229775D01*
X86169721Y-89344554D01*
X86159272Y-89347354D01*
X85786610Y-89429971D01*
X85775957Y-89431849D01*
X85397526Y-89481671D01*
X85386750Y-89482614D01*
X85002703Y-89499382D01*
X84997294Y-89499500D01*
X55002706Y-89499500D01*
X54997297Y-89499382D01*
X54613249Y-89482614D01*
X54602473Y-89481671D01*
X54224042Y-89431849D01*
X54213389Y-89429971D01*
X53840727Y-89347354D01*
X53830278Y-89344554D01*
X53466244Y-89229775D01*
X53456078Y-89226075D01*
X53103427Y-89080002D01*
X53093623Y-89075430D01*
X52755057Y-88899183D01*
X52745689Y-88893775D01*
X52423755Y-88688681D01*
X52414894Y-88682476D01*
X52112069Y-88450110D01*
X52103782Y-88443156D01*
X51822364Y-88185284D01*
X51814715Y-88177635D01*
X51556843Y-87896217D01*
X51549889Y-87887930D01*
X51317523Y-87585105D01*
X51311318Y-87576244D01*
X51106224Y-87254310D01*
X51100816Y-87244942D01*
X50924569Y-86906376D01*
X50919997Y-86896572D01*
X50773920Y-86543911D01*
X50770224Y-86533755D01*
X50754462Y-86483763D01*
X50655442Y-86169710D01*
X50652648Y-86159284D01*
X50570025Y-85786597D01*
X50568152Y-85775971D01*
X50518326Y-85397506D01*
X50517386Y-85386771D01*
X50500618Y-85002702D01*
X50500500Y-84997293D01*
X50500500Y-79355585D01*
X52418397Y-79355585D01*
X52428890Y-79458296D01*
X52484037Y-79624718D01*
X52484039Y-79624723D01*
X52576080Y-79773944D01*
X52700050Y-79897914D01*
X52849271Y-79989955D01*
X52849276Y-79989957D01*
X53015698Y-80045104D01*
X53015705Y-80045105D01*
X53118415Y-80055598D01*
X53468395Y-80055598D01*
X53968396Y-80055598D01*
X54318368Y-80055598D01*
X54318382Y-80055597D01*
X54421093Y-80045104D01*
X54587515Y-79989957D01*
X54587520Y-79989955D01*
X54736741Y-79897914D01*
X54860711Y-79773944D01*
X54952752Y-79624723D01*
X54952754Y-79624718D01*
X55007901Y-79458296D01*
X55007902Y-79458289D01*
X55018395Y-79355585D01*
X55018396Y-79355572D01*
X55018396Y-78305599D01*
X53968396Y-78305599D01*
X53968396Y-80055598D01*
X53468395Y-80055598D01*
X53468396Y-80055597D01*
X53468396Y-78305599D01*
X52418397Y-78305599D01*
X52418397Y-79355585D01*
X50500500Y-79355585D01*
X50500500Y-76755612D01*
X52418396Y-76755612D01*
X52418396Y-77805599D01*
X53468396Y-77805599D01*
X53968396Y-77805599D01*
X55018395Y-77805599D01*
X55018395Y-76755619D01*
X55017819Y-76749983D01*
X59699500Y-76749983D01*
X59699500Y-79850001D01*
X59699501Y-79850018D01*
X59710000Y-79952796D01*
X59710001Y-79952799D01*
X59756264Y-80092409D01*
X59765186Y-80119334D01*
X59857288Y-80268656D01*
X59981344Y-80392712D01*
X60130666Y-80484814D01*
X60164500Y-80496025D01*
X60221947Y-80535796D01*
X60248772Y-80600311D01*
X60249500Y-80613732D01*
X60249500Y-83802853D01*
X60249500Y-83802855D01*
X60249499Y-83802855D01*
X60278340Y-83947842D01*
X60278343Y-83947852D01*
X60334913Y-84084425D01*
X60334915Y-84084428D01*
X60344421Y-84098656D01*
X60344420Y-84098656D01*
X60417046Y-84207349D01*
X60417052Y-84207356D01*
X61326989Y-85117291D01*
X61360474Y-85178614D01*
X61363308Y-85204972D01*
X61363308Y-87640613D01*
X61363309Y-87640619D01*
X61369716Y-87700226D01*
X61420010Y-87835071D01*
X61420014Y-87835078D01*
X61506260Y-87950287D01*
X61506263Y-87950290D01*
X61621472Y-88036536D01*
X61621479Y-88036540D01*
X61756325Y-88086834D01*
X61756324Y-88086834D01*
X61763252Y-88087578D01*
X61815935Y-88093243D01*
X64911680Y-88093242D01*
X64971291Y-88086834D01*
X65106139Y-88036539D01*
X65221354Y-87950289D01*
X65307604Y-87835074D01*
X65357899Y-87700226D01*
X65364308Y-87640616D01*
X65364307Y-85961648D01*
X66443808Y-85961648D01*
X66443808Y-86223837D01*
X66478028Y-86483752D01*
X66478030Y-86483763D01*
X66545883Y-86736998D01*
X66646212Y-86979214D01*
X66646217Y-86979225D01*
X66777296Y-87206259D01*
X66777302Y-87206267D01*
X66863888Y-87319108D01*
X67758575Y-86424420D01*
X67770305Y-86452738D01*
X67853478Y-86577215D01*
X67959336Y-86683073D01*
X68083813Y-86766246D01*
X68112128Y-86777974D01*
X67217441Y-87672660D01*
X67217441Y-87672661D01*
X67330283Y-87759248D01*
X67330291Y-87759254D01*
X67557325Y-87890333D01*
X67557336Y-87890338D01*
X67799552Y-87990667D01*
X68052787Y-88058520D01*
X68052798Y-88058522D01*
X68312713Y-88092742D01*
X68312728Y-88092743D01*
X68574888Y-88092743D01*
X68574902Y-88092742D01*
X68834817Y-88058522D01*
X68834828Y-88058520D01*
X69088063Y-87990667D01*
X69330279Y-87890338D01*
X69330290Y-87890333D01*
X69557324Y-87759254D01*
X69557342Y-87759242D01*
X69670173Y-87672662D01*
X69670173Y-87672660D01*
X69347499Y-87349986D01*
X76700001Y-87349986D01*
X76710494Y-87452697D01*
X76765641Y-87619119D01*
X76765643Y-87619124D01*
X76857684Y-87768345D01*
X76981654Y-87892315D01*
X77130875Y-87984356D01*
X77130880Y-87984358D01*
X77297302Y-88039505D01*
X77297309Y-88039506D01*
X77400019Y-88049999D01*
X77749999Y-88049999D01*
X78250000Y-88049999D01*
X78599972Y-88049999D01*
X78599986Y-88049998D01*
X78702697Y-88039505D01*
X78869119Y-87984358D01*
X78869124Y-87984356D01*
X79018345Y-87892315D01*
X79142315Y-87768345D01*
X79234356Y-87619124D01*
X79234358Y-87619119D01*
X79289505Y-87452697D01*
X79289506Y-87452690D01*
X79299999Y-87349986D01*
X79300000Y-87349973D01*
X79300000Y-86050000D01*
X78250000Y-86050000D01*
X78250000Y-88049999D01*
X77749999Y-88049999D01*
X77750000Y-88049998D01*
X77750000Y-86050000D01*
X76700001Y-86050000D01*
X76700001Y-87349986D01*
X69347499Y-87349986D01*
X68775487Y-86777974D01*
X68803803Y-86766246D01*
X68928280Y-86683073D01*
X69034138Y-86577215D01*
X69117311Y-86452738D01*
X69129039Y-86424422D01*
X70023725Y-87319108D01*
X70023727Y-87319108D01*
X70110307Y-87206277D01*
X70110319Y-87206259D01*
X70241398Y-86979225D01*
X70241403Y-86979214D01*
X70341732Y-86736998D01*
X70409585Y-86483763D01*
X70409587Y-86483752D01*
X70443807Y-86223837D01*
X70443808Y-86223823D01*
X70443808Y-85961662D01*
X70443807Y-85961648D01*
X70409587Y-85701733D01*
X70409585Y-85701722D01*
X70341732Y-85448487D01*
X70241403Y-85206271D01*
X70241398Y-85206260D01*
X70110319Y-84979226D01*
X70110313Y-84979218D01*
X70023726Y-84866376D01*
X70023725Y-84866376D01*
X69129039Y-85761063D01*
X69117311Y-85732748D01*
X69034138Y-85608271D01*
X68928280Y-85502413D01*
X68803803Y-85419240D01*
X68775485Y-85407510D01*
X69670173Y-84512823D01*
X69557332Y-84426237D01*
X69557324Y-84426231D01*
X69432651Y-84354251D01*
X69330290Y-84295152D01*
X69330279Y-84295147D01*
X69221316Y-84250013D01*
X76700000Y-84250013D01*
X76700000Y-85550000D01*
X77750000Y-85550000D01*
X78250000Y-85550000D01*
X79299999Y-85550000D01*
X79299999Y-84878711D01*
X83149500Y-84878711D01*
X83149500Y-85121288D01*
X83181161Y-85361785D01*
X83243947Y-85596104D01*
X83336773Y-85820205D01*
X83336776Y-85820212D01*
X83458064Y-86030289D01*
X83458066Y-86030292D01*
X83458067Y-86030293D01*
X83605733Y-86222736D01*
X83605739Y-86222743D01*
X83777256Y-86394260D01*
X83777262Y-86394265D01*
X83969711Y-86541936D01*
X84179788Y-86663224D01*
X84403900Y-86756054D01*
X84638211Y-86818838D01*
X84818586Y-86842584D01*
X84878711Y-86850500D01*
X84878712Y-86850500D01*
X85121289Y-86850500D01*
X85169388Y-86844167D01*
X85361789Y-86818838D01*
X85596100Y-86756054D01*
X85820212Y-86663224D01*
X86030289Y-86541936D01*
X86222738Y-86394265D01*
X86394265Y-86222738D01*
X86541936Y-86030289D01*
X86663224Y-85820212D01*
X86756054Y-85596100D01*
X86818838Y-85361789D01*
X86850500Y-85121288D01*
X86850500Y-84878712D01*
X86818838Y-84638211D01*
X86756054Y-84403900D01*
X86663224Y-84179788D01*
X86541936Y-83969711D01*
X86394265Y-83777262D01*
X86394260Y-83777256D01*
X86222743Y-83605739D01*
X86222736Y-83605733D01*
X86030293Y-83458067D01*
X86030292Y-83458066D01*
X86030289Y-83458064D01*
X85820212Y-83336776D01*
X85820205Y-83336773D01*
X85596104Y-83243947D01*
X85361785Y-83181161D01*
X85121289Y-83149500D01*
X85121288Y-83149500D01*
X84878712Y-83149500D01*
X84878711Y-83149500D01*
X84638214Y-83181161D01*
X84403895Y-83243947D01*
X84179794Y-83336773D01*
X84179785Y-83336777D01*
X84038988Y-83418067D01*
X83976082Y-83454386D01*
X83969706Y-83458067D01*
X83777263Y-83605733D01*
X83777256Y-83605739D01*
X83605739Y-83777256D01*
X83605733Y-83777263D01*
X83458067Y-83969706D01*
X83458064Y-83969710D01*
X83458064Y-83969711D01*
X83451616Y-83980880D01*
X83336777Y-84179785D01*
X83336773Y-84179794D01*
X83243947Y-84403895D01*
X83181161Y-84638214D01*
X83149500Y-84878711D01*
X79299999Y-84878711D01*
X79299999Y-84250028D01*
X79299998Y-84250013D01*
X79289505Y-84147302D01*
X79234358Y-83980880D01*
X79234356Y-83980875D01*
X79142315Y-83831654D01*
X79018345Y-83707684D01*
X78869124Y-83615643D01*
X78869119Y-83615641D01*
X78702697Y-83560494D01*
X78702690Y-83560493D01*
X78599986Y-83550000D01*
X78250000Y-83550000D01*
X78250000Y-85550000D01*
X77750000Y-85550000D01*
X77750000Y-83550000D01*
X77400028Y-83550000D01*
X77400012Y-83550001D01*
X77297302Y-83560494D01*
X77130880Y-83615641D01*
X77130875Y-83615643D01*
X76981654Y-83707684D01*
X76857684Y-83831654D01*
X76765643Y-83980875D01*
X76765641Y-83980880D01*
X76710494Y-84147302D01*
X76710493Y-84147309D01*
X76700000Y-84250013D01*
X69221316Y-84250013D01*
X69088063Y-84194818D01*
X68834828Y-84126965D01*
X68834817Y-84126963D01*
X68574902Y-84092743D01*
X68312713Y-84092743D01*
X68052798Y-84126963D01*
X68052787Y-84126965D01*
X67799552Y-84194818D01*
X67557336Y-84295147D01*
X67557325Y-84295152D01*
X67330279Y-84426239D01*
X67217441Y-84512822D01*
X67217441Y-84512823D01*
X68112129Y-85407511D01*
X68083813Y-85419240D01*
X67959336Y-85502413D01*
X67853478Y-85608271D01*
X67770305Y-85732748D01*
X67758576Y-85761064D01*
X66863888Y-84866376D01*
X66863887Y-84866376D01*
X66777304Y-84979214D01*
X66646217Y-85206260D01*
X66646212Y-85206271D01*
X66545883Y-85448487D01*
X66478030Y-85701722D01*
X66478028Y-85701733D01*
X66443808Y-85961648D01*
X65364307Y-85961648D01*
X65364307Y-84544871D01*
X65357899Y-84485260D01*
X65307604Y-84350412D01*
X65307603Y-84350411D01*
X65307601Y-84350407D01*
X65221355Y-84235198D01*
X65221352Y-84235195D01*
X65106143Y-84148949D01*
X65106136Y-84148945D01*
X64971290Y-84098651D01*
X64971291Y-84098651D01*
X64911691Y-84092244D01*
X64911689Y-84092243D01*
X64911681Y-84092243D01*
X64911673Y-84092243D01*
X62476038Y-84092243D01*
X62408999Y-84072558D01*
X62388357Y-84055924D01*
X61786819Y-83454386D01*
X61753334Y-83393063D01*
X61750500Y-83366705D01*
X61750500Y-80613732D01*
X61770185Y-80546693D01*
X61822989Y-80500938D01*
X61835495Y-80496026D01*
X61869334Y-80484814D01*
X62018656Y-80392712D01*
X62142712Y-80268656D01*
X62234814Y-80119334D01*
X62289999Y-79952797D01*
X62300500Y-79850009D01*
X62300499Y-76749992D01*
X62289999Y-76647203D01*
X62234814Y-76480666D01*
X62142712Y-76331344D01*
X62018656Y-76207288D01*
X61925888Y-76150069D01*
X61869336Y-76115187D01*
X61869331Y-76115185D01*
X61867862Y-76114698D01*
X61702797Y-76060001D01*
X61702795Y-76060000D01*
X61600010Y-76049500D01*
X60399998Y-76049500D01*
X60399981Y-76049501D01*
X60297203Y-76060000D01*
X60297200Y-76060001D01*
X60130668Y-76115185D01*
X60130663Y-76115187D01*
X59981342Y-76207289D01*
X59857289Y-76331342D01*
X59765187Y-76480663D01*
X59765185Y-76480668D01*
X59739744Y-76557444D01*
X59710001Y-76647203D01*
X59710001Y-76647204D01*
X59710000Y-76647204D01*
X59699500Y-76749983D01*
X55017819Y-76749983D01*
X55007901Y-76652901D01*
X54952754Y-76486479D01*
X54952752Y-76486474D01*
X54860711Y-76337253D01*
X54736741Y-76213283D01*
X54587520Y-76121242D01*
X54587515Y-76121240D01*
X54421093Y-76066093D01*
X54421086Y-76066092D01*
X54318382Y-76055599D01*
X53968396Y-76055599D01*
X53968396Y-77805599D01*
X53468396Y-77805599D01*
X53468396Y-76055599D01*
X53118424Y-76055599D01*
X53118408Y-76055600D01*
X53015698Y-76066093D01*
X52849276Y-76121240D01*
X52849271Y-76121242D01*
X52700050Y-76213283D01*
X52576080Y-76337253D01*
X52484039Y-76486474D01*
X52484037Y-76486479D01*
X52428890Y-76652901D01*
X52428889Y-76652908D01*
X52418396Y-76755612D01*
X50500500Y-76755612D01*
X50500500Y-68538226D01*
X50520185Y-68471187D01*
X50572989Y-68425432D01*
X50642147Y-68415488D01*
X50705703Y-68444513D01*
X50742431Y-68499908D01*
X50748444Y-68518414D01*
X50844951Y-68707820D01*
X50969890Y-68879786D01*
X51120213Y-69030109D01*
X51292179Y-69155048D01*
X51292181Y-69155049D01*
X51292184Y-69155051D01*
X51481588Y-69251557D01*
X51683757Y-69317246D01*
X51893713Y-69350500D01*
X51893714Y-69350500D01*
X52106284Y-69350500D01*
X52106287Y-69350500D01*
X52201731Y-69335382D01*
X52271020Y-69344336D01*
X52308807Y-69370174D01*
X53021580Y-70082948D01*
X53021584Y-70082951D01*
X53144498Y-70165080D01*
X53144511Y-70165087D01*
X53281082Y-70221656D01*
X53281087Y-70221658D01*
X53281091Y-70221658D01*
X53281092Y-70221659D01*
X53426079Y-70250500D01*
X53426082Y-70250500D01*
X53573917Y-70250500D01*
X55904187Y-70250500D01*
X55971226Y-70270185D01*
X56016981Y-70322989D01*
X56026925Y-70392147D01*
X55997900Y-70455703D01*
X55991868Y-70462181D01*
X54747071Y-71706976D01*
X54685748Y-71740461D01*
X54616056Y-71735477D01*
X54594291Y-71724832D01*
X54587735Y-71720788D01*
X54587734Y-71720787D01*
X54587730Y-71720785D01*
X54421193Y-71665600D01*
X54421191Y-71665599D01*
X54318406Y-71655099D01*
X53118394Y-71655099D01*
X53118377Y-71655100D01*
X53015599Y-71665599D01*
X53015596Y-71665600D01*
X52849064Y-71720784D01*
X52849059Y-71720786D01*
X52699738Y-71812888D01*
X52575685Y-71936941D01*
X52483583Y-72086262D01*
X52483581Y-72086267D01*
X52473325Y-72117219D01*
X52428397Y-72252802D01*
X52428397Y-72252803D01*
X52428396Y-72252803D01*
X52417896Y-72355582D01*
X52417896Y-74955600D01*
X52417897Y-74955617D01*
X52428396Y-75058395D01*
X52428397Y-75058398D01*
X52483581Y-75224930D01*
X52483582Y-75224933D01*
X52575684Y-75374255D01*
X52699740Y-75498311D01*
X52849062Y-75590413D01*
X53015599Y-75645598D01*
X53118387Y-75656099D01*
X54318404Y-75656098D01*
X54421193Y-75645598D01*
X54587730Y-75590413D01*
X54737052Y-75498311D01*
X54861108Y-75374255D01*
X54953210Y-75224933D01*
X55008395Y-75058396D01*
X55018896Y-74955608D01*
X55018895Y-73326405D01*
X55038580Y-73259367D01*
X55055209Y-73238730D01*
X57488122Y-70805819D01*
X57549445Y-70772334D01*
X57575803Y-70769500D01*
X59630303Y-70769500D01*
X59697342Y-70789185D01*
X59743097Y-70841989D01*
X59753041Y-70911147D01*
X59748010Y-70932499D01*
X59710001Y-71047203D01*
X59710001Y-71047204D01*
X59710000Y-71047204D01*
X59699500Y-71149983D01*
X59699500Y-74250001D01*
X59699501Y-74250018D01*
X59710000Y-74352796D01*
X59710001Y-74352799D01*
X59755913Y-74491349D01*
X59765186Y-74519334D01*
X59857288Y-74668656D01*
X59981344Y-74792712D01*
X60130666Y-74884814D01*
X60297203Y-74939999D01*
X60399991Y-74950500D01*
X61600008Y-74950499D01*
X61702797Y-74939999D01*
X61869334Y-74884814D01*
X62018656Y-74792712D01*
X62087319Y-74724049D01*
X62148642Y-74690564D01*
X62218334Y-74695548D01*
X62262681Y-74724049D01*
X63621586Y-76082954D01*
X63653746Y-76104441D01*
X63669827Y-76115186D01*
X63744505Y-76165084D01*
X63744506Y-76165084D01*
X63744507Y-76165085D01*
X63846397Y-76207289D01*
X63881087Y-76221658D01*
X63881091Y-76221658D01*
X63881092Y-76221659D01*
X64026079Y-76250500D01*
X64026082Y-76250500D01*
X64026083Y-76250500D01*
X64173917Y-76250500D01*
X67055738Y-76250500D01*
X67122777Y-76270185D01*
X67168532Y-76322989D01*
X67178476Y-76392147D01*
X67149451Y-76455703D01*
X67120835Y-76480039D01*
X66995341Y-76557444D01*
X66871371Y-76681414D01*
X66779330Y-76830635D01*
X66779328Y-76830640D01*
X66724181Y-76997062D01*
X66724180Y-76997069D01*
X66713687Y-77099773D01*
X66713687Y-77162260D01*
X69113686Y-77162260D01*
X69113686Y-77099788D01*
X69113685Y-77099773D01*
X69103192Y-76997062D01*
X69048045Y-76830640D01*
X69048043Y-76830635D01*
X68956002Y-76681414D01*
X68832032Y-76557444D01*
X68706539Y-76480039D01*
X68659814Y-76428091D01*
X68648593Y-76359128D01*
X68676436Y-76295046D01*
X68734505Y-76256190D01*
X68771636Y-76250500D01*
X70730528Y-76250500D01*
X70797567Y-76270185D01*
X70818209Y-76286819D01*
X71522848Y-76991457D01*
X71556333Y-77052780D01*
X71559167Y-77079138D01*
X71559167Y-77491910D01*
X71559168Y-77491928D01*
X71569667Y-77594705D01*
X71569668Y-77594708D01*
X71624852Y-77761240D01*
X71624854Y-77761245D01*
X71716956Y-77910566D01*
X71841013Y-78034623D01*
X71843849Y-78036372D01*
X71845384Y-78038079D01*
X71846678Y-78039102D01*
X71846503Y-78039323D01*
X71890572Y-78088320D01*
X71901793Y-78157283D01*
X71873949Y-78221365D01*
X71843849Y-78247446D01*
X71841013Y-78249194D01*
X71716957Y-78373250D01*
X71716955Y-78373252D01*
X71716955Y-78373253D01*
X71683274Y-78427858D01*
X71631328Y-78474581D01*
X71577737Y-78486760D01*
X68988417Y-78486760D01*
X68958976Y-78478115D01*
X68928990Y-78471592D01*
X68923974Y-78467837D01*
X68921378Y-78467075D01*
X68900736Y-78450441D01*
X68862382Y-78412087D01*
X68828897Y-78350764D01*
X68833881Y-78281072D01*
X68862382Y-78236724D01*
X68956004Y-78143102D01*
X69048043Y-77993884D01*
X69048045Y-77993879D01*
X69103192Y-77827457D01*
X69103193Y-77827450D01*
X69113686Y-77724746D01*
X69113687Y-77724733D01*
X69113687Y-77662260D01*
X66713688Y-77662260D01*
X66713688Y-77724746D01*
X66724181Y-77827457D01*
X66779328Y-77993879D01*
X66779330Y-77993884D01*
X66871371Y-78143105D01*
X66964991Y-78236725D01*
X66998476Y-78298048D01*
X66993492Y-78367740D01*
X66964992Y-78412087D01*
X66870974Y-78506105D01*
X66778874Y-78655423D01*
X66778872Y-78655428D01*
X66751036Y-78739430D01*
X66723688Y-78821963D01*
X66723688Y-78821964D01*
X66723687Y-78821964D01*
X66713187Y-78924743D01*
X66713187Y-79549761D01*
X66713188Y-79549779D01*
X66723687Y-79652556D01*
X66723688Y-79652559D01*
X66763912Y-79773944D01*
X66778873Y-79819094D01*
X66870975Y-79968416D01*
X66995031Y-80092472D01*
X67144353Y-80184574D01*
X67310890Y-80239759D01*
X67413678Y-80250260D01*
X68413695Y-80250259D01*
X68413703Y-80250258D01*
X68413706Y-80250258D01*
X68469989Y-80244508D01*
X68516484Y-80239759D01*
X68683021Y-80184574D01*
X68832343Y-80092472D01*
X68900736Y-80024079D01*
X68962059Y-79990594D01*
X68988417Y-79987760D01*
X71891997Y-79987760D01*
X71957093Y-80006221D01*
X71972938Y-80015994D01*
X71990333Y-80026723D01*
X72156870Y-80081908D01*
X72259658Y-80092409D01*
X73309675Y-80092408D01*
X73309683Y-80092407D01*
X73309686Y-80092407D01*
X73365969Y-80086657D01*
X73412464Y-80081908D01*
X73579001Y-80026723D01*
X73728323Y-79934621D01*
X73852379Y-79810565D01*
X73944481Y-79661243D01*
X73999666Y-79494706D01*
X74010167Y-79391918D01*
X74010166Y-78791901D01*
X73999666Y-78689112D01*
X73944481Y-78522575D01*
X73852379Y-78373253D01*
X73728323Y-78249197D01*
X73725486Y-78247447D01*
X73723950Y-78245739D01*
X73722656Y-78244716D01*
X73722830Y-78244494D01*
X73678763Y-78195503D01*
X73667539Y-78126541D01*
X73695380Y-78062458D01*
X73725484Y-78036371D01*
X73728323Y-78034621D01*
X73852379Y-77910565D01*
X73944481Y-77761243D01*
X73999666Y-77594706D01*
X74010167Y-77491918D01*
X74010166Y-76891901D01*
X73999666Y-76789112D01*
X73944481Y-76622575D01*
X73852379Y-76473253D01*
X73728323Y-76349197D01*
X73627192Y-76286819D01*
X73579003Y-76257096D01*
X73578998Y-76257094D01*
X73576270Y-76256190D01*
X73412464Y-76201910D01*
X73412462Y-76201909D01*
X73309683Y-76191409D01*
X73309676Y-76191409D01*
X72896896Y-76191409D01*
X72829857Y-76171724D01*
X72809215Y-76155090D01*
X72241806Y-75587681D01*
X72208321Y-75526358D01*
X72213305Y-75456666D01*
X72241806Y-75412319D01*
X72638906Y-75015220D01*
X73057307Y-74596819D01*
X73084234Y-74582115D01*
X73110053Y-74565523D01*
X73116253Y-74564631D01*
X73118630Y-74563334D01*
X73144988Y-74560500D01*
X73284582Y-74560500D01*
X73351621Y-74580185D01*
X73384900Y-74611615D01*
X73418028Y-74657212D01*
X73418032Y-74657217D01*
X73562786Y-74801971D01*
X73676812Y-74884814D01*
X73728390Y-74922287D01*
X73844607Y-74981503D01*
X73910776Y-75015218D01*
X73910778Y-75015218D01*
X73910781Y-75015220D01*
X74015137Y-75049127D01*
X74105465Y-75078477D01*
X74206557Y-75094488D01*
X74307648Y-75110500D01*
X74307649Y-75110500D01*
X75312351Y-75110500D01*
X75312352Y-75110500D01*
X75514534Y-75078477D01*
X75709219Y-75015220D01*
X75891610Y-74922287D01*
X75984590Y-74854732D01*
X76057213Y-74801971D01*
X76057215Y-74801968D01*
X76057219Y-74801966D01*
X76201966Y-74657219D01*
X76201968Y-74657215D01*
X76201971Y-74657213D01*
X76257934Y-74580185D01*
X76322287Y-74491610D01*
X76415220Y-74309219D01*
X76478477Y-74114534D01*
X76510500Y-73912352D01*
X76510500Y-73707648D01*
X76502257Y-73655606D01*
X76478477Y-73505465D01*
X76415218Y-73310776D01*
X76347469Y-73177813D01*
X76322287Y-73128390D01*
X76272236Y-73059500D01*
X76201971Y-72962786D01*
X76057213Y-72818028D01*
X75891614Y-72697715D01*
X75847916Y-72675450D01*
X75798917Y-72650483D01*
X75748123Y-72602511D01*
X75731328Y-72534690D01*
X75753865Y-72468555D01*
X75798917Y-72429516D01*
X75891610Y-72382287D01*
X75928367Y-72355582D01*
X76057213Y-72261971D01*
X76057215Y-72261968D01*
X76057219Y-72261966D01*
X76201966Y-72117219D01*
X76224454Y-72086267D01*
X76235100Y-72071615D01*
X76290429Y-72028949D01*
X76335418Y-72020500D01*
X77125500Y-72020500D01*
X77192539Y-72040185D01*
X77238294Y-72092989D01*
X77249500Y-72144500D01*
X77249500Y-77886267D01*
X77229815Y-77953306D01*
X77177011Y-77999061D01*
X77164506Y-78003972D01*
X77130671Y-78015184D01*
X77130663Y-78015187D01*
X76981342Y-78107289D01*
X76857289Y-78231342D01*
X76765187Y-78380663D01*
X76765186Y-78380666D01*
X76710001Y-78547203D01*
X76710001Y-78547204D01*
X76710000Y-78547204D01*
X76699500Y-78649983D01*
X76699500Y-81750001D01*
X76699501Y-81750018D01*
X76710000Y-81852796D01*
X76710001Y-81852799D01*
X76765185Y-82019331D01*
X76765186Y-82019334D01*
X76857288Y-82168656D01*
X76981344Y-82292712D01*
X77130666Y-82384814D01*
X77297203Y-82439999D01*
X77399991Y-82450500D01*
X78600008Y-82450499D01*
X78702797Y-82439999D01*
X78869334Y-82384814D01*
X79018656Y-82292712D01*
X79142712Y-82168656D01*
X79234814Y-82019334D01*
X79289999Y-81852797D01*
X79300500Y-81750009D01*
X79300499Y-78649992D01*
X79289999Y-78547203D01*
X79234814Y-78380666D01*
X79142712Y-78231344D01*
X79018656Y-78107288D01*
X78900847Y-78034623D01*
X78869336Y-78015187D01*
X78869335Y-78015186D01*
X78869334Y-78015186D01*
X78869328Y-78015184D01*
X78835494Y-78003972D01*
X78778050Y-77964199D01*
X78751228Y-77899683D01*
X78750500Y-77886267D01*
X78750500Y-71466081D01*
X78744763Y-71437242D01*
X78744763Y-71437241D01*
X78737678Y-71401623D01*
X78743905Y-71332034D01*
X78771612Y-71289754D01*
X79582951Y-70478416D01*
X79665084Y-70355495D01*
X79721658Y-70218913D01*
X79743226Y-70110485D01*
X79750500Y-70073920D01*
X79750500Y-67926079D01*
X79727882Y-67812376D01*
X79725499Y-67788184D01*
X79725499Y-67750606D01*
X79725498Y-67750584D01*
X79724511Y-67738034D01*
X79722765Y-67715844D01*
X79679555Y-67567113D01*
X79600715Y-67433802D01*
X79600713Y-67433800D01*
X79600710Y-67433796D01*
X79491203Y-67324289D01*
X79491194Y-67324282D01*
X79410111Y-67276330D01*
X79357887Y-67245445D01*
X79209156Y-67202235D01*
X79209153Y-67202234D01*
X79209151Y-67202234D01*
X79178395Y-67199814D01*
X79174405Y-67199500D01*
X79174404Y-67199500D01*
X78825606Y-67199500D01*
X78825584Y-67199501D01*
X78790847Y-67202234D01*
X78768739Y-67208657D01*
X78642113Y-67245445D01*
X78642111Y-67245445D01*
X78642111Y-67245446D01*
X78508805Y-67324282D01*
X78508796Y-67324289D01*
X78399289Y-67433796D01*
X78399282Y-67433805D01*
X78320446Y-67567111D01*
X78320445Y-67567113D01*
X78297963Y-67644496D01*
X78277234Y-67715847D01*
X78277234Y-67715849D01*
X78274500Y-67750589D01*
X78274500Y-67788188D01*
X78272117Y-67812380D01*
X78249500Y-67926079D01*
X78249500Y-69637770D01*
X78229815Y-69704809D01*
X78213181Y-69725451D01*
X77455451Y-70483181D01*
X77394128Y-70516666D01*
X77367770Y-70519500D01*
X76335418Y-70519500D01*
X76268379Y-70499815D01*
X76235100Y-70468385D01*
X76201971Y-70422787D01*
X76201967Y-70422782D01*
X76057213Y-70278028D01*
X75891614Y-70157715D01*
X75885006Y-70154348D01*
X75798917Y-70110483D01*
X75748123Y-70062511D01*
X75731328Y-69994690D01*
X75753865Y-69928555D01*
X75798917Y-69889516D01*
X75891610Y-69842287D01*
X75912770Y-69826913D01*
X76057213Y-69721971D01*
X76057215Y-69721968D01*
X76057219Y-69721966D01*
X76201966Y-69577219D01*
X76201968Y-69577215D01*
X76201971Y-69577213D01*
X76283013Y-69465666D01*
X76322287Y-69411610D01*
X76415220Y-69229219D01*
X76478477Y-69034534D01*
X76510500Y-68832352D01*
X76510500Y-68627648D01*
X76493199Y-68518414D01*
X76478477Y-68425465D01*
X76415218Y-68230776D01*
X76375861Y-68153534D01*
X76322287Y-68048390D01*
X76285476Y-67997723D01*
X76201971Y-67882786D01*
X76057213Y-67738028D01*
X75891614Y-67617715D01*
X75847559Y-67595268D01*
X75798917Y-67570483D01*
X75748123Y-67522511D01*
X75731328Y-67454690D01*
X75753865Y-67388555D01*
X75798917Y-67349516D01*
X75891610Y-67302287D01*
X76020482Y-67208657D01*
X76057213Y-67181971D01*
X76057215Y-67181968D01*
X76057219Y-67181966D01*
X76201966Y-67037219D01*
X76201968Y-67037215D01*
X76201971Y-67037213D01*
X76292841Y-66912139D01*
X76322287Y-66871610D01*
X76415220Y-66689219D01*
X76426750Y-66653729D01*
X76456999Y-66604367D01*
X78037819Y-65023546D01*
X78099142Y-64990062D01*
X78168834Y-64995046D01*
X78224767Y-65036918D01*
X78249184Y-65102382D01*
X78249500Y-65111228D01*
X78249500Y-65973919D01*
X78272117Y-66087623D01*
X78274500Y-66111811D01*
X78274500Y-66149403D01*
X78277234Y-66184152D01*
X78277234Y-66184155D01*
X78277235Y-66184156D01*
X78320445Y-66332887D01*
X78324529Y-66339792D01*
X78399282Y-66466194D01*
X78399289Y-66466203D01*
X78508796Y-66575710D01*
X78508805Y-66575717D01*
X78537664Y-66592784D01*
X78642113Y-66654555D01*
X78790844Y-66697765D01*
X78825595Y-66700500D01*
X79174404Y-66700499D01*
X79209156Y-66697765D01*
X79357887Y-66654555D01*
X79491198Y-66575715D01*
X79600715Y-66466198D01*
X79679555Y-66332887D01*
X79722765Y-66184156D01*
X79725500Y-66149405D01*
X79725499Y-66111810D01*
X79727881Y-66087621D01*
X79750500Y-65973918D01*
X79750500Y-65362230D01*
X79770185Y-65295191D01*
X79786819Y-65274549D01*
X82857459Y-62203909D01*
X82918782Y-62170424D01*
X82945140Y-62167590D01*
X83998758Y-62167590D01*
X84065797Y-62187275D01*
X84111552Y-62240079D01*
X84122758Y-62291590D01*
X84122758Y-62964966D01*
X84129165Y-63024573D01*
X84179459Y-63159418D01*
X84179463Y-63159425D01*
X84265709Y-63274634D01*
X84265712Y-63274637D01*
X84380921Y-63360883D01*
X84380928Y-63360887D01*
X84515774Y-63411181D01*
X84515773Y-63411181D01*
X84522701Y-63411925D01*
X84575384Y-63417590D01*
X87671129Y-63417589D01*
X87730740Y-63411181D01*
X87865588Y-63360886D01*
X87980803Y-63274636D01*
X88067053Y-63159421D01*
X88117348Y-63024573D01*
X88123757Y-62964963D01*
X88123756Y-59869218D01*
X88117348Y-59809607D01*
X88067053Y-59674759D01*
X88067052Y-59674758D01*
X88067050Y-59674754D01*
X87980804Y-59559545D01*
X87980801Y-59559542D01*
X87865592Y-59473296D01*
X87865585Y-59473292D01*
X87730739Y-59422998D01*
X87730740Y-59422998D01*
X87671140Y-59416591D01*
X87671138Y-59416590D01*
X87671130Y-59416590D01*
X87671121Y-59416590D01*
X84575386Y-59416590D01*
X84575380Y-59416591D01*
X84515773Y-59422998D01*
X84380928Y-59473292D01*
X84380921Y-59473296D01*
X84265712Y-59559542D01*
X84265709Y-59559545D01*
X84179463Y-59674754D01*
X84179459Y-59674761D01*
X84129165Y-59809607D01*
X84122758Y-59869206D01*
X84122758Y-59869213D01*
X84122757Y-59869225D01*
X84122757Y-60542590D01*
X84103072Y-60609629D01*
X84050268Y-60655384D01*
X83998757Y-60666590D01*
X82508990Y-60666590D01*
X82364002Y-60695430D01*
X82363996Y-60695432D01*
X82227418Y-60752004D01*
X82227406Y-60752011D01*
X82178179Y-60784903D01*
X82104498Y-60834134D01*
X82104490Y-60834140D01*
X81202547Y-61736084D01*
X81141224Y-61769569D01*
X81071532Y-61764585D01*
X81015599Y-61722713D01*
X80991182Y-61657249D01*
X80990866Y-61648403D01*
X80990866Y-56205995D01*
X84123257Y-56205995D01*
X84123257Y-56468184D01*
X84157477Y-56728099D01*
X84157479Y-56728110D01*
X84225332Y-56981345D01*
X84325661Y-57223561D01*
X84325666Y-57223572D01*
X84456745Y-57450606D01*
X84456751Y-57450614D01*
X84543337Y-57563455D01*
X85438024Y-56668767D01*
X85449754Y-56697085D01*
X85532927Y-56821562D01*
X85638785Y-56927420D01*
X85763262Y-57010593D01*
X85791577Y-57022321D01*
X84896890Y-57917007D01*
X84896890Y-57917008D01*
X85009732Y-58003595D01*
X85009740Y-58003601D01*
X85236774Y-58134680D01*
X85236785Y-58134685D01*
X85479001Y-58235014D01*
X85732236Y-58302867D01*
X85732247Y-58302869D01*
X85992162Y-58337089D01*
X85992177Y-58337090D01*
X86254337Y-58337090D01*
X86254351Y-58337089D01*
X86514266Y-58302869D01*
X86514277Y-58302867D01*
X86767512Y-58235014D01*
X87009728Y-58134685D01*
X87009739Y-58134680D01*
X87236773Y-58003601D01*
X87236791Y-58003589D01*
X87349622Y-57917009D01*
X87349622Y-57917007D01*
X86454936Y-57022321D01*
X86483252Y-57010593D01*
X86607729Y-56927420D01*
X86713587Y-56821562D01*
X86796760Y-56697085D01*
X86808488Y-56668769D01*
X87703174Y-57563455D01*
X87703176Y-57563455D01*
X87789756Y-57450624D01*
X87789768Y-57450606D01*
X87920847Y-57223572D01*
X87920852Y-57223561D01*
X88021181Y-56981345D01*
X88089034Y-56728110D01*
X88089036Y-56728099D01*
X88123256Y-56468184D01*
X88123257Y-56468170D01*
X88123257Y-56206009D01*
X88123256Y-56205995D01*
X88089036Y-55946080D01*
X88089034Y-55946069D01*
X88021181Y-55692834D01*
X87920852Y-55450618D01*
X87920847Y-55450607D01*
X87789768Y-55223573D01*
X87789762Y-55223565D01*
X87703175Y-55110723D01*
X87703174Y-55110723D01*
X86808488Y-56005409D01*
X86796760Y-55977095D01*
X86713587Y-55852618D01*
X86607729Y-55746760D01*
X86483252Y-55663587D01*
X86454934Y-55651857D01*
X87349622Y-54757170D01*
X87236781Y-54670584D01*
X87236773Y-54670578D01*
X87009739Y-54539499D01*
X87009728Y-54539494D01*
X86767512Y-54439165D01*
X86514277Y-54371312D01*
X86514266Y-54371310D01*
X86254351Y-54337090D01*
X85992162Y-54337090D01*
X85732247Y-54371310D01*
X85732236Y-54371312D01*
X85479001Y-54439165D01*
X85236785Y-54539494D01*
X85236774Y-54539499D01*
X85009728Y-54670586D01*
X84896890Y-54757169D01*
X84896890Y-54757170D01*
X85791578Y-55651858D01*
X85763262Y-55663587D01*
X85638785Y-55746760D01*
X85532927Y-55852618D01*
X85449754Y-55977095D01*
X85438025Y-56005411D01*
X84543337Y-55110723D01*
X84543336Y-55110723D01*
X84456753Y-55223561D01*
X84325666Y-55450607D01*
X84325661Y-55450618D01*
X84225332Y-55692834D01*
X84157479Y-55946069D01*
X84157477Y-55946080D01*
X84123257Y-56205995D01*
X80990866Y-56205995D01*
X80990866Y-53533674D01*
X81010551Y-53466635D01*
X81063355Y-53420880D01*
X81114866Y-53409674D01*
X81138237Y-53409674D01*
X81138238Y-53409674D01*
X81197849Y-53403266D01*
X81332697Y-53352971D01*
X81447912Y-53266721D01*
X81534162Y-53151506D01*
X81584457Y-53016658D01*
X81590866Y-52957048D01*
X81590865Y-51161303D01*
X81584457Y-51101692D01*
X81584130Y-51100816D01*
X81534163Y-50966846D01*
X81534159Y-50966839D01*
X81447913Y-50851630D01*
X81447910Y-50851627D01*
X81332701Y-50765381D01*
X81332694Y-50765377D01*
X81266482Y-50740682D01*
X81210548Y-50698811D01*
X81186131Y-50633347D01*
X81200983Y-50565074D01*
X81250388Y-50515668D01*
X81309815Y-50500500D01*
X84934108Y-50500500D01*
X84997294Y-50500500D01*
X85002702Y-50500617D01*
G37*
%TD.AperFunction*%
%TA.AperFunction,Conductor*%
G36*
X65481563Y-70789185D02*
G01*
X65527318Y-70841989D01*
X65537262Y-70911147D01*
X65532455Y-70931817D01*
X65521524Y-70965457D01*
X65521523Y-70965464D01*
X65489500Y-71167648D01*
X65489500Y-71372351D01*
X65521522Y-71574534D01*
X65584781Y-71769223D01*
X65677715Y-71951613D01*
X65798028Y-72117213D01*
X65942786Y-72261971D01*
X66071633Y-72355582D01*
X66108390Y-72382287D01*
X66180424Y-72418990D01*
X66201629Y-72429795D01*
X66252425Y-72477770D01*
X66269220Y-72545591D01*
X66246682Y-72611726D01*
X66201629Y-72650765D01*
X66108650Y-72698140D01*
X65943105Y-72818417D01*
X65943104Y-72818417D01*
X65798417Y-72963104D01*
X65798417Y-72963105D01*
X65678140Y-73128650D01*
X65585244Y-73310970D01*
X65522009Y-73505586D01*
X65513391Y-73560000D01*
X66874314Y-73560000D01*
X66869920Y-73564394D01*
X66817259Y-73655606D01*
X66790000Y-73757339D01*
X66790000Y-73862661D01*
X66817259Y-73964394D01*
X66869920Y-74055606D01*
X66874314Y-74060000D01*
X65513391Y-74060000D01*
X65522009Y-74114413D01*
X65585244Y-74309029D01*
X65678140Y-74491349D01*
X65722652Y-74552614D01*
X65746132Y-74618421D01*
X65730307Y-74686475D01*
X65680201Y-74735169D01*
X65622334Y-74749500D01*
X64462230Y-74749500D01*
X64395191Y-74729815D01*
X64374549Y-74713181D01*
X62336818Y-72675450D01*
X62303333Y-72614127D01*
X62300499Y-72587769D01*
X62300499Y-71149998D01*
X62300498Y-71149981D01*
X62289999Y-71047203D01*
X62251990Y-70932502D01*
X62249589Y-70862676D01*
X62285320Y-70802634D01*
X62347841Y-70771441D01*
X62369697Y-70769500D01*
X65414524Y-70769500D01*
X65481563Y-70789185D01*
G37*
%TD.AperFunction*%
%TA.AperFunction,Conductor*%
G36*
X73423713Y-69598745D02*
G01*
X73468061Y-69627246D01*
X73562786Y-69721971D01*
X73717749Y-69834556D01*
X73728390Y-69842287D01*
X73819840Y-69888883D01*
X73821080Y-69889515D01*
X73871876Y-69937490D01*
X73888671Y-70005311D01*
X73866134Y-70071446D01*
X73821080Y-70110485D01*
X73728386Y-70157715D01*
X73562786Y-70278028D01*
X73418028Y-70422786D01*
X73297715Y-70588386D01*
X73204781Y-70770776D01*
X73141522Y-70965465D01*
X73109500Y-71167648D01*
X73109500Y-71372351D01*
X73141522Y-71574534D01*
X73204781Y-71769223D01*
X73297715Y-71951613D01*
X73418028Y-72117213D01*
X73562786Y-72261971D01*
X73691633Y-72355582D01*
X73728390Y-72382287D01*
X73819840Y-72428883D01*
X73821080Y-72429515D01*
X73871876Y-72477490D01*
X73888671Y-72545311D01*
X73866134Y-72611446D01*
X73821080Y-72650485D01*
X73728386Y-72697715D01*
X73562786Y-72818028D01*
X73418032Y-72962782D01*
X73418028Y-72962787D01*
X73384900Y-73008385D01*
X73329571Y-73051051D01*
X73284582Y-73059500D01*
X72708838Y-73059500D01*
X72563850Y-73088340D01*
X72563844Y-73088342D01*
X72427266Y-73144914D01*
X72427254Y-73144921D01*
X72378027Y-73177813D01*
X72304346Y-73227044D01*
X72304338Y-73227050D01*
X70818209Y-74713181D01*
X70756886Y-74746666D01*
X70730528Y-74749500D01*
X68757666Y-74749500D01*
X68690627Y-74729815D01*
X68644872Y-74677011D01*
X68634928Y-74607853D01*
X68657348Y-74552614D01*
X68701859Y-74491349D01*
X68794755Y-74309029D01*
X68857990Y-74114413D01*
X68866609Y-74060000D01*
X67505686Y-74060000D01*
X67510080Y-74055606D01*
X67562741Y-73964394D01*
X67590000Y-73862661D01*
X67590000Y-73757339D01*
X67562741Y-73655606D01*
X67510080Y-73564394D01*
X67505686Y-73560000D01*
X68866609Y-73560000D01*
X68857990Y-73505586D01*
X68794755Y-73310970D01*
X68701859Y-73128650D01*
X68581582Y-72963105D01*
X68581582Y-72963104D01*
X68436895Y-72818417D01*
X68271349Y-72698140D01*
X68178370Y-72650765D01*
X68127574Y-72602790D01*
X68110779Y-72534969D01*
X68133316Y-72468835D01*
X68178370Y-72429795D01*
X68178920Y-72429515D01*
X68271610Y-72382287D01*
X68308367Y-72355582D01*
X68437213Y-72261971D01*
X68437215Y-72261968D01*
X68437219Y-72261966D01*
X68581966Y-72117219D01*
X68581968Y-72117215D01*
X68581971Y-72117213D01*
X68652236Y-72020500D01*
X68702287Y-71951610D01*
X68795220Y-71769219D01*
X68858477Y-71574534D01*
X68890500Y-71372352D01*
X68890500Y-71167648D01*
X68858477Y-70965466D01*
X68858475Y-70965462D01*
X68858475Y-70965457D01*
X68847545Y-70931817D01*
X68845550Y-70861976D01*
X68881631Y-70802144D01*
X68944332Y-70771316D01*
X68965476Y-70769500D01*
X71945071Y-70769500D01*
X72029615Y-70752682D01*
X72070744Y-70744501D01*
X72189127Y-70695465D01*
X72295669Y-70624277D01*
X73292699Y-69627245D01*
X73354022Y-69593761D01*
X73423713Y-69598745D01*
G37*
%TD.AperFunction*%
%TA.AperFunction,Conductor*%
G36*
X79237956Y-50520185D02*
G01*
X79283711Y-50572989D01*
X79293655Y-50642147D01*
X79264630Y-50705703D01*
X79214250Y-50740682D01*
X79148037Y-50765377D01*
X79148030Y-50765381D01*
X79032821Y-50851627D01*
X79032818Y-50851630D01*
X78946572Y-50966839D01*
X78946568Y-50966846D01*
X78896274Y-51101692D01*
X78889867Y-51161291D01*
X78889867Y-51161298D01*
X78889866Y-51161310D01*
X78889866Y-52957045D01*
X78889867Y-52957051D01*
X78896274Y-53016658D01*
X78946568Y-53151503D01*
X78946572Y-53151510D01*
X79032818Y-53266719D01*
X79032821Y-53266722D01*
X79148030Y-53352968D01*
X79148037Y-53352972D01*
X79192984Y-53369736D01*
X79282883Y-53403266D01*
X79342493Y-53409675D01*
X79365863Y-53409674D01*
X79432902Y-53429356D01*
X79478658Y-53482158D01*
X79489866Y-53533674D01*
X79489866Y-61397403D01*
X79470181Y-61464442D01*
X79453547Y-61485084D01*
X75934982Y-65003648D01*
X75873659Y-65037133D01*
X75803967Y-65032149D01*
X75791007Y-65026452D01*
X75709226Y-64984782D01*
X75514534Y-64921522D01*
X75339995Y-64893878D01*
X75312352Y-64889500D01*
X74307648Y-64889500D01*
X74283329Y-64893351D01*
X74105465Y-64921522D01*
X73910776Y-64984781D01*
X73728386Y-65077715D01*
X73562786Y-65198028D01*
X73418028Y-65342786D01*
X73297715Y-65508386D01*
X73204781Y-65690776D01*
X73141522Y-65885465D01*
X73109500Y-66087648D01*
X73109500Y-66292351D01*
X73141522Y-66494534D01*
X73204781Y-66689223D01*
X73256140Y-66790018D01*
X73281853Y-66840484D01*
X73297715Y-66871613D01*
X73418028Y-67037213D01*
X73562786Y-67181971D01*
X73650154Y-67245446D01*
X73728390Y-67302287D01*
X73796744Y-67337115D01*
X73821080Y-67349515D01*
X73871876Y-67397490D01*
X73888671Y-67465311D01*
X73866134Y-67531446D01*
X73821080Y-67570485D01*
X73728386Y-67617715D01*
X73562786Y-67738028D01*
X73418034Y-67882780D01*
X73405517Y-67900009D01*
X73312246Y-68028386D01*
X73256918Y-68071051D01*
X73240862Y-68076077D01*
X73226597Y-68079500D01*
X73205931Y-68079500D01*
X73080256Y-68104499D01*
X73031221Y-68124810D01*
X73022201Y-68128545D01*
X73022197Y-68128547D01*
X72961881Y-68153530D01*
X72961863Y-68153540D01*
X72855332Y-68224721D01*
X72855325Y-68224727D01*
X71647873Y-69432181D01*
X71586550Y-69465666D01*
X71560192Y-69468500D01*
X68892229Y-69468500D01*
X68825190Y-69448815D01*
X68779435Y-69396011D01*
X68769491Y-69326853D01*
X68798516Y-69263297D01*
X68804548Y-69256819D01*
X73582948Y-64478419D01*
X73582951Y-64478416D01*
X73665084Y-64355495D01*
X73721658Y-64218913D01*
X73750500Y-64073918D01*
X73750500Y-63926083D01*
X73750500Y-63710523D01*
X73770185Y-63643484D01*
X73822989Y-63597729D01*
X73892147Y-63587785D01*
X73955703Y-63616810D01*
X73962181Y-63622842D01*
X73981654Y-63642315D01*
X74130875Y-63734356D01*
X74130880Y-63734358D01*
X74297302Y-63789505D01*
X74297309Y-63789506D01*
X74400019Y-63799999D01*
X74749999Y-63799999D01*
X75250000Y-63799999D01*
X75599972Y-63799999D01*
X75599986Y-63799998D01*
X75702697Y-63789505D01*
X75869119Y-63734358D01*
X75869124Y-63734356D01*
X76018345Y-63642315D01*
X76142315Y-63518345D01*
X76234356Y-63369124D01*
X76234358Y-63369119D01*
X76289505Y-63202697D01*
X76289506Y-63202690D01*
X76299999Y-63099986D01*
X76300000Y-63099973D01*
X76300000Y-62250000D01*
X75250000Y-62250000D01*
X75250000Y-63799999D01*
X74749999Y-63799999D01*
X74750000Y-63799998D01*
X74750000Y-62124000D01*
X74769685Y-62056961D01*
X74822489Y-62011206D01*
X74874000Y-62000000D01*
X75000000Y-62000000D01*
X75000000Y-61874000D01*
X75019685Y-61806961D01*
X75072489Y-61761206D01*
X75124000Y-61750000D01*
X76299999Y-61750000D01*
X76299999Y-60900028D01*
X76299998Y-60900013D01*
X76289505Y-60797302D01*
X76234358Y-60630880D01*
X76234356Y-60630875D01*
X76142315Y-60481654D01*
X76018344Y-60357683D01*
X76018340Y-60357680D01*
X75934280Y-60305831D01*
X75887555Y-60253883D01*
X75876334Y-60184921D01*
X75904177Y-60120839D01*
X75934278Y-60094756D01*
X76018656Y-60042712D01*
X76142712Y-59918656D01*
X76234814Y-59769334D01*
X76289999Y-59602797D01*
X76300500Y-59500009D01*
X76300499Y-57299992D01*
X76292691Y-57223561D01*
X76289999Y-57197203D01*
X76289998Y-57197200D01*
X76234814Y-57030666D01*
X76142712Y-56881344D01*
X76018656Y-56757288D01*
X75869334Y-56665186D01*
X75702797Y-56610001D01*
X75702795Y-56610000D01*
X75600010Y-56599500D01*
X74399998Y-56599500D01*
X74399981Y-56599501D01*
X74297203Y-56610000D01*
X74297200Y-56610001D01*
X74130668Y-56665185D01*
X74130663Y-56665187D01*
X73981342Y-56757289D01*
X73857289Y-56881342D01*
X73765187Y-57030663D01*
X73765186Y-57030666D01*
X73710001Y-57197203D01*
X73710001Y-57197204D01*
X73710000Y-57197204D01*
X73699500Y-57299983D01*
X73699500Y-57525500D01*
X73679815Y-57592539D01*
X73627011Y-57638294D01*
X73575500Y-57649500D01*
X73526080Y-57649500D01*
X73381092Y-57678340D01*
X73381082Y-57678343D01*
X73244506Y-57734914D01*
X73244502Y-57734916D01*
X73123919Y-57815487D01*
X73123920Y-57815488D01*
X73121585Y-57817048D01*
X73121576Y-57817055D01*
X72417050Y-58521580D01*
X72417044Y-58521588D01*
X72367812Y-58595268D01*
X72367813Y-58595269D01*
X72334921Y-58644496D01*
X72334914Y-58644509D01*
X72291095Y-58750298D01*
X72247254Y-58804701D01*
X72180960Y-58826766D01*
X72113260Y-58809487D01*
X72065650Y-58758349D01*
X72052534Y-58702845D01*
X72052534Y-53511820D01*
X72072219Y-53444781D01*
X72125023Y-53399026D01*
X72176534Y-53387820D01*
X72199905Y-53387820D01*
X72199906Y-53387820D01*
X72259517Y-53381412D01*
X72394365Y-53331117D01*
X72509580Y-53244867D01*
X72595830Y-53129652D01*
X72646125Y-52994804D01*
X72652534Y-52935194D01*
X72652533Y-51139449D01*
X72646125Y-51079838D01*
X72595830Y-50944990D01*
X72595829Y-50944989D01*
X72595827Y-50944985D01*
X72509581Y-50829776D01*
X72509578Y-50829773D01*
X72394369Y-50743527D01*
X72394364Y-50743524D01*
X72386743Y-50740682D01*
X72330810Y-50698810D01*
X72306393Y-50633346D01*
X72321245Y-50565073D01*
X72370650Y-50515668D01*
X72430077Y-50500500D01*
X79170917Y-50500500D01*
X79237956Y-50520185D01*
G37*
%TD.AperFunction*%
%TA.AperFunction,Conductor*%
G36*
X70241030Y-50520185D02*
G01*
X70286785Y-50572989D01*
X70296729Y-50642147D01*
X70267704Y-50705703D01*
X70217325Y-50740682D01*
X70209703Y-50743524D01*
X70209698Y-50743527D01*
X70094489Y-50829773D01*
X70094486Y-50829776D01*
X70008240Y-50944985D01*
X70008236Y-50944992D01*
X69957942Y-51079838D01*
X69951535Y-51139437D01*
X69951535Y-51139444D01*
X69951534Y-51139456D01*
X69951534Y-52935191D01*
X69951535Y-52935197D01*
X69957942Y-52994804D01*
X70008236Y-53129649D01*
X70008240Y-53129656D01*
X70094486Y-53244865D01*
X70094489Y-53244868D01*
X70209698Y-53331114D01*
X70209705Y-53331118D01*
X70224878Y-53336777D01*
X70344551Y-53381412D01*
X70404161Y-53387821D01*
X70427531Y-53387820D01*
X70494570Y-53407502D01*
X70540326Y-53460304D01*
X70551534Y-53511820D01*
X70551534Y-56650804D01*
X70531849Y-56717843D01*
X70479045Y-56763598D01*
X70409887Y-56773542D01*
X70346331Y-56744517D01*
X70339853Y-56738485D01*
X68576818Y-54975450D01*
X68543333Y-54914127D01*
X68540499Y-54887769D01*
X68540499Y-52452129D01*
X68540498Y-52452123D01*
X68540497Y-52452116D01*
X68534091Y-52392517D01*
X68483796Y-52257669D01*
X68483795Y-52257668D01*
X68483793Y-52257664D01*
X68397547Y-52142455D01*
X68397544Y-52142452D01*
X68282335Y-52056206D01*
X68282328Y-52056202D01*
X68147482Y-52005908D01*
X68147483Y-52005908D01*
X68087883Y-51999501D01*
X68087881Y-51999500D01*
X68087873Y-51999500D01*
X68087864Y-51999500D01*
X64992129Y-51999500D01*
X64992123Y-51999501D01*
X64932516Y-52005908D01*
X64797671Y-52056202D01*
X64797664Y-52056206D01*
X64682455Y-52142452D01*
X64682452Y-52142455D01*
X64596206Y-52257664D01*
X64596202Y-52257671D01*
X64545908Y-52392517D01*
X64542550Y-52423755D01*
X64539501Y-52452123D01*
X64539500Y-52452135D01*
X64539500Y-55547870D01*
X64539501Y-55547876D01*
X64545908Y-55607483D01*
X64596202Y-55742328D01*
X64596206Y-55742335D01*
X64682452Y-55857544D01*
X64682455Y-55857547D01*
X64797664Y-55943793D01*
X64797671Y-55943797D01*
X64932517Y-55994091D01*
X64932516Y-55994091D01*
X64939444Y-55994835D01*
X64992127Y-56000500D01*
X67427769Y-56000499D01*
X67494808Y-56020184D01*
X67515450Y-56036818D01*
X69213181Y-57734549D01*
X69246666Y-57795872D01*
X69249500Y-57822230D01*
X69249500Y-63137770D01*
X69229815Y-63204809D01*
X69213181Y-63225451D01*
X68725451Y-63713181D01*
X68664128Y-63746666D01*
X68637770Y-63749500D01*
X68209181Y-63749500D01*
X68142142Y-63729815D01*
X68096387Y-63677011D01*
X68086443Y-63607853D01*
X68103641Y-63560405D01*
X68159814Y-63469334D01*
X68214999Y-63302797D01*
X68225500Y-63200009D01*
X68225499Y-62599992D01*
X68214999Y-62497203D01*
X68159814Y-62330666D01*
X68067712Y-62181344D01*
X67943656Y-62057288D01*
X67940342Y-62055243D01*
X67938546Y-62053248D01*
X67937989Y-62052807D01*
X67938064Y-62052711D01*
X67893618Y-62003297D01*
X67882397Y-61934334D01*
X67910240Y-61870252D01*
X67940348Y-61844165D01*
X67943342Y-61842318D01*
X68067315Y-61718345D01*
X68159356Y-61569124D01*
X68159358Y-61569119D01*
X68214505Y-61402697D01*
X68214506Y-61402690D01*
X68224999Y-61299986D01*
X68225000Y-61299973D01*
X68225000Y-61250000D01*
X65775001Y-61250000D01*
X65775001Y-61299986D01*
X65785494Y-61402697D01*
X65840641Y-61569119D01*
X65840643Y-61569124D01*
X65932684Y-61718345D01*
X66056655Y-61842316D01*
X66056659Y-61842319D01*
X66059656Y-61844168D01*
X66061279Y-61845972D01*
X66062323Y-61846798D01*
X66062181Y-61846976D01*
X66106381Y-61896116D01*
X66117602Y-61965079D01*
X66089759Y-62029161D01*
X66078844Y-62040657D01*
X66069960Y-62048889D01*
X66056344Y-62057288D01*
X65998774Y-62114857D01*
X65997055Y-62116451D01*
X65967792Y-62131013D01*
X65939128Y-62146666D01*
X65935573Y-62147048D01*
X65934503Y-62147581D01*
X65932581Y-62147369D01*
X65912770Y-62149500D01*
X63826080Y-62149500D01*
X63681092Y-62178340D01*
X63681086Y-62178342D01*
X63544508Y-62234914D01*
X63544496Y-62234921D01*
X63495269Y-62267813D01*
X63421588Y-62317044D01*
X63421580Y-62317050D01*
X61512180Y-64226450D01*
X61450857Y-64259935D01*
X61381165Y-64254951D01*
X61325232Y-64213079D01*
X61300815Y-64147615D01*
X61300499Y-64138794D01*
X61300499Y-62099992D01*
X61289999Y-61997203D01*
X61234814Y-61830666D01*
X61142712Y-61681344D01*
X61018656Y-61557288D01*
X60869334Y-61465186D01*
X60702797Y-61410001D01*
X60702795Y-61410000D01*
X60600010Y-61399500D01*
X59399998Y-61399500D01*
X59399981Y-61399501D01*
X59297203Y-61410000D01*
X59297200Y-61410001D01*
X59130668Y-61465185D01*
X59130663Y-61465187D01*
X58981342Y-61557289D01*
X58857289Y-61681342D01*
X58765187Y-61830663D01*
X58765185Y-61830668D01*
X58743498Y-61896116D01*
X58710001Y-61997203D01*
X58710001Y-61997204D01*
X58710000Y-61997204D01*
X58699500Y-62099983D01*
X58699500Y-62625500D01*
X58679815Y-62692539D01*
X58627011Y-62738294D01*
X58575500Y-62749500D01*
X55926076Y-62749500D01*
X55897242Y-62755234D01*
X55897243Y-62755235D01*
X55781093Y-62778339D01*
X55781083Y-62778342D01*
X55701081Y-62811479D01*
X55701082Y-62811480D01*
X55644509Y-62834914D01*
X55644495Y-62834921D01*
X55630155Y-62844504D01*
X55630154Y-62844505D01*
X55521582Y-62917049D01*
X55521579Y-62917052D01*
X53765451Y-64673181D01*
X53704128Y-64706666D01*
X53677770Y-64709500D01*
X53187221Y-64709500D01*
X53120182Y-64689815D01*
X53086903Y-64658385D01*
X53030105Y-64580209D01*
X52916181Y-64466285D01*
X52882696Y-64404962D01*
X52887680Y-64335270D01*
X52929552Y-64279337D01*
X52960529Y-64262422D01*
X53092086Y-64213354D01*
X53092093Y-64213350D01*
X53207187Y-64127190D01*
X53207190Y-64127187D01*
X53293350Y-64012093D01*
X53293354Y-64012086D01*
X53343596Y-63877379D01*
X53343598Y-63877372D01*
X53349999Y-63817844D01*
X53350000Y-63817827D01*
X53350000Y-63170000D01*
X52433012Y-63170000D01*
X52465925Y-63112993D01*
X52500000Y-62985826D01*
X52500000Y-62854174D01*
X52465925Y-62727007D01*
X52433012Y-62670000D01*
X53350000Y-62670000D01*
X53350000Y-62022172D01*
X53349999Y-62022155D01*
X53343598Y-61962627D01*
X53343596Y-61962620D01*
X53293354Y-61827913D01*
X53293350Y-61827906D01*
X53207190Y-61712812D01*
X53207187Y-61712809D01*
X53092093Y-61626649D01*
X53092086Y-61626645D01*
X52957379Y-61576403D01*
X52957372Y-61576401D01*
X52897844Y-61570000D01*
X52250000Y-61570000D01*
X52250000Y-62486988D01*
X52192993Y-62454075D01*
X52065826Y-62420000D01*
X51934174Y-62420000D01*
X51807007Y-62454075D01*
X51750000Y-62486988D01*
X51750000Y-61570000D01*
X51102155Y-61570000D01*
X51042627Y-61576401D01*
X51042620Y-61576403D01*
X50907913Y-61626645D01*
X50907906Y-61626649D01*
X50792812Y-61712809D01*
X50723766Y-61805042D01*
X50667832Y-61846912D01*
X50598140Y-61851896D01*
X50536817Y-61818410D01*
X50503333Y-61757086D01*
X50500500Y-61730730D01*
X50500500Y-60700013D01*
X65775000Y-60700013D01*
X65775000Y-60750000D01*
X66750000Y-60750000D01*
X67250000Y-60750000D01*
X68224999Y-60750000D01*
X68224999Y-60700028D01*
X68224998Y-60700013D01*
X68214505Y-60597302D01*
X68159358Y-60430880D01*
X68159356Y-60430875D01*
X68067315Y-60281654D01*
X67943345Y-60157684D01*
X67794124Y-60065643D01*
X67794119Y-60065641D01*
X67627697Y-60010494D01*
X67627690Y-60010493D01*
X67524986Y-60000000D01*
X67250000Y-60000000D01*
X67250000Y-60750000D01*
X66750000Y-60750000D01*
X66750000Y-60000000D01*
X66475029Y-60000000D01*
X66475012Y-60000001D01*
X66372302Y-60010494D01*
X66205880Y-60065641D01*
X66205875Y-60065643D01*
X66056654Y-60157684D01*
X65932684Y-60281654D01*
X65840643Y-60430875D01*
X65840641Y-60430880D01*
X65785494Y-60597302D01*
X65785493Y-60597309D01*
X65775000Y-60700013D01*
X50500500Y-60700013D01*
X50500500Y-55002706D01*
X50500618Y-54997297D01*
X50505796Y-54878711D01*
X53149500Y-54878711D01*
X53149500Y-55121288D01*
X53181161Y-55361785D01*
X53243947Y-55596104D01*
X53304518Y-55742335D01*
X53336776Y-55820212D01*
X53458064Y-56030289D01*
X53458066Y-56030292D01*
X53458067Y-56030293D01*
X53605733Y-56222736D01*
X53605739Y-56222743D01*
X53777256Y-56394260D01*
X53777262Y-56394265D01*
X53969711Y-56541936D01*
X54179788Y-56663224D01*
X54403900Y-56756054D01*
X54638211Y-56818838D01*
X54818586Y-56842584D01*
X54878711Y-56850500D01*
X54878712Y-56850500D01*
X55121289Y-56850500D01*
X55169388Y-56844167D01*
X55361789Y-56818838D01*
X55596100Y-56756054D01*
X55820212Y-56663224D01*
X56030289Y-56541936D01*
X56222738Y-56394265D01*
X56394265Y-56222738D01*
X56541936Y-56030289D01*
X56663224Y-55820212D01*
X56756054Y-55596100D01*
X56818838Y-55361789D01*
X56850500Y-55121288D01*
X56850500Y-54878712D01*
X56849253Y-54869243D01*
X56836517Y-54772498D01*
X56818838Y-54638211D01*
X56756054Y-54403900D01*
X56663224Y-54179788D01*
X56541936Y-53969711D01*
X56519398Y-53940339D01*
X56519398Y-53940338D01*
X56464585Y-53868905D01*
X59460000Y-53868905D01*
X59460000Y-54131094D01*
X59494220Y-54391009D01*
X59494222Y-54391020D01*
X59562075Y-54644255D01*
X59662404Y-54886471D01*
X59662409Y-54886482D01*
X59793488Y-55113516D01*
X59793494Y-55113524D01*
X59880080Y-55226365D01*
X60774767Y-54331677D01*
X60786497Y-54359995D01*
X60869670Y-54484472D01*
X60975528Y-54590330D01*
X61100005Y-54673503D01*
X61128320Y-54685231D01*
X60233633Y-55579917D01*
X60233633Y-55579918D01*
X60346475Y-55666505D01*
X60346483Y-55666511D01*
X60573517Y-55797590D01*
X60573528Y-55797595D01*
X60815744Y-55897924D01*
X61068979Y-55965777D01*
X61068990Y-55965779D01*
X61328905Y-55999999D01*
X61328920Y-56000000D01*
X61591080Y-56000000D01*
X61591094Y-55999999D01*
X61851009Y-55965779D01*
X61851020Y-55965777D01*
X62104255Y-55897924D01*
X62346471Y-55797595D01*
X62346482Y-55797590D01*
X62573516Y-55666511D01*
X62573534Y-55666499D01*
X62686365Y-55579919D01*
X62686365Y-55579917D01*
X61791679Y-54685231D01*
X61819995Y-54673503D01*
X61944472Y-54590330D01*
X62050330Y-54484472D01*
X62133503Y-54359995D01*
X62145231Y-54331679D01*
X63039917Y-55226365D01*
X63039919Y-55226365D01*
X63126499Y-55113534D01*
X63126511Y-55113516D01*
X63257590Y-54886482D01*
X63257595Y-54886471D01*
X63357924Y-54644255D01*
X63425777Y-54391020D01*
X63425779Y-54391009D01*
X63459999Y-54131094D01*
X63460000Y-54131080D01*
X63460000Y-53868919D01*
X63459999Y-53868905D01*
X63425779Y-53608990D01*
X63425777Y-53608979D01*
X63357924Y-53355744D01*
X63257595Y-53113528D01*
X63257590Y-53113517D01*
X63126511Y-52886483D01*
X63126505Y-52886475D01*
X63039918Y-52773633D01*
X63039917Y-52773633D01*
X62145231Y-53668320D01*
X62133503Y-53640005D01*
X62050330Y-53515528D01*
X61944472Y-53409670D01*
X61819995Y-53326497D01*
X61791677Y-53314767D01*
X62686365Y-52420080D01*
X62573524Y-52333494D01*
X62573516Y-52333488D01*
X62346482Y-52202409D01*
X62346471Y-52202404D01*
X62104255Y-52102075D01*
X61851020Y-52034222D01*
X61851009Y-52034220D01*
X61591094Y-52000000D01*
X61328905Y-52000000D01*
X61068990Y-52034220D01*
X61068979Y-52034222D01*
X60815744Y-52102075D01*
X60573528Y-52202404D01*
X60573517Y-52202409D01*
X60346471Y-52333496D01*
X60233633Y-52420079D01*
X60233633Y-52420080D01*
X61128321Y-53314768D01*
X61100005Y-53326497D01*
X60975528Y-53409670D01*
X60869670Y-53515528D01*
X60786497Y-53640005D01*
X60774768Y-53668321D01*
X59880080Y-52773633D01*
X59880079Y-52773633D01*
X59793496Y-52886471D01*
X59662409Y-53113517D01*
X59662404Y-53113528D01*
X59562075Y-53355744D01*
X59494222Y-53608979D01*
X59494220Y-53608990D01*
X59460000Y-53868905D01*
X56464585Y-53868905D01*
X56394266Y-53777263D01*
X56394260Y-53777256D01*
X56222743Y-53605739D01*
X56222736Y-53605733D01*
X56030293Y-53458067D01*
X56030292Y-53458066D01*
X56030289Y-53458064D01*
X55820212Y-53336776D01*
X55820205Y-53336773D01*
X55596104Y-53243947D01*
X55361785Y-53181161D01*
X55121289Y-53149500D01*
X55121288Y-53149500D01*
X54878712Y-53149500D01*
X54878711Y-53149500D01*
X54638214Y-53181161D01*
X54403895Y-53243947D01*
X54179794Y-53336773D01*
X54179785Y-53336777D01*
X53969706Y-53458067D01*
X53777263Y-53605733D01*
X53777256Y-53605739D01*
X53605739Y-53777256D01*
X53605733Y-53777263D01*
X53458067Y-53969706D01*
X53336777Y-54179785D01*
X53336773Y-54179794D01*
X53243947Y-54403895D01*
X53181161Y-54638214D01*
X53149500Y-54878711D01*
X50505796Y-54878711D01*
X50506209Y-54869244D01*
X50506209Y-54869243D01*
X50510433Y-54772498D01*
X50517386Y-54613228D01*
X50518326Y-54602495D01*
X50568152Y-54224025D01*
X50570025Y-54213405D01*
X50652649Y-53840709D01*
X50655440Y-53830295D01*
X50770230Y-53466227D01*
X50773917Y-53456095D01*
X50920003Y-53103412D01*
X50924561Y-53093638D01*
X51100822Y-52755045D01*
X51106217Y-52745700D01*
X51311325Y-52423744D01*
X51317511Y-52414909D01*
X51549905Y-52112048D01*
X51556834Y-52103791D01*
X51814726Y-51822352D01*
X51822352Y-51814726D01*
X52103791Y-51556834D01*
X52112060Y-51549896D01*
X52414905Y-51317515D01*
X52423744Y-51311325D01*
X52745700Y-51106217D01*
X52755045Y-51100822D01*
X53093638Y-50924561D01*
X53103412Y-50920003D01*
X53456095Y-50773917D01*
X53466227Y-50770230D01*
X53830295Y-50655440D01*
X53840709Y-50652649D01*
X54213405Y-50570025D01*
X54224025Y-50568152D01*
X54602495Y-50518326D01*
X54613226Y-50517386D01*
X54997297Y-50500617D01*
X55002706Y-50500500D01*
X55065892Y-50500500D01*
X70173991Y-50500500D01*
X70241030Y-50520185D01*
G37*
%TD.AperFunction*%
%TD*%
M02*
