%TF.GenerationSoftware,KiCad,Pcbnew,10.0.0*%
%TF.CreationDate,2026-06-22T23:18:36-04:00*%
%TF.ProjectId,parla-v0-revB,7061726c-612d-4763-902d-726576422e6b,rev?*%
%TF.SameCoordinates,Original*%
%TF.FileFunction,Soldermask,Top*%
%TF.FilePolarity,Negative*%
%FSLAX46Y46*%
G04 Gerber Fmt 4.6, Leading zero omitted, Abs format (unit mm)*
G04 Created by KiCad (PCBNEW 10.0.0) date 2026-06-22 23:18:36*
%MOMM*%
%LPD*%
G01*
G04 APERTURE LIST*
G04 Aperture macros list*
%AMRoundRect*
0 Rectangle with rounded corners*
0 $1 Rounding radius*
0 $2 $3 $4 $5 $6 $7 $8 $9 X,Y pos of 4 corners*
0 Add a 4 corners polygon primitive as box body*
4,1,4,$2,$3,$4,$5,$6,$7,$8,$9,$2,$3,0*
0 Add four circle primitives for the rounded corners*
1,1,$1+$1,$2,$3*
1,1,$1+$1,$4,$5*
1,1,$1+$1,$6,$7*
1,1,$1+$1,$8,$9*
0 Add four rect primitives between the rounded corners*
20,1,$1+$1,$2,$3,$4,$5,0*
20,1,$1+$1,$4,$5,$6,$7,0*
20,1,$1+$1,$6,$7,$8,$9,0*
20,1,$1+$1,$8,$9,$2,$3,0*%
G04 Aperture macros list end*
%ADD10C,1.800000*%
%ADD11RoundRect,0.250000X-0.550000X1.075000X-0.550000X-1.075000X0.550000X-1.075000X0.550000X1.075000X0*%
%ADD12C,3.200000*%
%ADD13RoundRect,0.250000X-0.350000X-0.450000X0.350000X-0.450000X0.350000X0.450000X-0.350000X0.450000X0*%
%ADD14R,3.500000X3.500000*%
%ADD15RoundRect,0.750000X-1.000000X0.750000X-1.000000X-0.750000X1.000000X-0.750000X1.000000X0.750000X0*%
%ADD16RoundRect,0.875000X-0.875000X0.875000X-0.875000X-0.875000X0.875000X-0.875000X0.875000X0.875000X0*%
%ADD17RoundRect,0.250000X0.350000X-0.850000X0.350000X0.850000X-0.350000X0.850000X-0.350000X-0.850000X0*%
%ADD18RoundRect,0.249997X2.650003X-2.950003X2.650003X2.950003X-2.650003X2.950003X-2.650003X-2.950003X0*%
%ADD19RoundRect,0.250000X0.475000X-0.337500X0.475000X0.337500X-0.475000X0.337500X-0.475000X-0.337500X0*%
%ADD20RoundRect,0.250000X-0.550000X1.500000X-0.550000X-1.500000X0.550000X-1.500000X0.550000X1.500000X0*%
%ADD21RoundRect,0.250000X0.450000X-0.350000X0.450000X0.350000X-0.450000X0.350000X-0.450000X-0.350000X0*%
%ADD22C,4.400000*%
%ADD23RoundRect,0.250000X-0.450000X0.350000X-0.450000X-0.350000X0.450000X-0.350000X0.450000X0.350000X0*%
%ADD24RoundRect,0.250000X-0.550000X1.050000X-0.550000X-1.050000X0.550000X-1.050000X0.550000X1.050000X0*%
%ADD25R,1.800000X1.800000*%
%ADD26RoundRect,0.250000X0.250000X-0.250000X0.250000X0.250000X-0.250000X0.250000X-0.250000X-0.250000X0*%
%ADD27RoundRect,0.162500X-0.750000X-0.162500X0.750000X-0.162500X0.750000X0.162500X-0.750000X0.162500X0*%
%ADD28RoundRect,0.250000X-0.475000X0.337500X-0.475000X-0.337500X0.475000X-0.337500X0.475000X0.337500X0*%
%ADD29R,1.500000X1.500000*%
%ADD30RoundRect,0.250000X-0.550000X1.250000X-0.550000X-1.250000X0.550000X-1.250000X0.550000X1.250000X0*%
G04 APERTURE END LIST*
D10*
%TO.C,J1*%
X86300000Y-70150000D03*
X97700000Y-70150000D03*
X89400000Y-70150000D03*
%TD*%
D11*
%TO.C,C1*%
X54850000Y-86100000D03*
X54850000Y-89450000D03*
%TD*%
D12*
%TO.C,H2*%
X95000000Y-55000000D03*
%TD*%
D10*
%TO.C,J3*%
X63327500Y-70050000D03*
X51927500Y-70050000D03*
X60227500Y-70050000D03*
%TD*%
D13*
%TO.C,R3*%
X63100000Y-83200000D03*
X65100000Y-83200000D03*
%TD*%
D14*
%TO.C,J5*%
X66000000Y-61000000D03*
D15*
X66000000Y-55000000D03*
D16*
X61300000Y-58000000D03*
%TD*%
D12*
%TO.C,H4*%
X95000000Y-95000000D03*
%TD*%
D17*
%TO.C,U2*%
X84790000Y-60950000D03*
D18*
X87070000Y-54650000D03*
D17*
X89350000Y-60950000D03*
%TD*%
D19*
%TO.C,C3*%
X68300000Y-82237500D03*
X68300000Y-80162500D03*
%TD*%
D20*
%TO.C,C8*%
X79050000Y-64450000D03*
X79050000Y-69850000D03*
%TD*%
D21*
%TO.C,R5*%
X64750000Y-66650000D03*
X64750000Y-64650000D03*
%TD*%
D10*
%TO.C,RV1*%
X70100000Y-98000000D03*
X67600000Y-98000000D03*
X65100000Y-98000000D03*
D22*
X63200000Y-91000000D03*
X72000000Y-91000000D03*
%TD*%
D19*
%TO.C,C10*%
X77900000Y-60625000D03*
X77900000Y-58550000D03*
%TD*%
D10*
%TO.C,RV2*%
X85124486Y-97965964D03*
X82624486Y-97965964D03*
X80124486Y-97965964D03*
D22*
X78224486Y-90965964D03*
X87024486Y-90965964D03*
%TD*%
D10*
%TO.C,J2*%
X86300000Y-79600000D03*
X97700000Y-79600000D03*
X89400000Y-79600000D03*
%TD*%
D12*
%TO.C,H3*%
X55000000Y-95000000D03*
%TD*%
D23*
%TO.C,R4*%
X90650000Y-85600000D03*
X90650000Y-87600000D03*
%TD*%
D24*
%TO.C,C9*%
X82400000Y-79200000D03*
X82400000Y-82800000D03*
%TD*%
D25*
%TO.C,D8*%
X55250000Y-63190000D03*
D10*
X55250000Y-60650000D03*
%TD*%
D26*
%TO.C,D1*%
X74000000Y-59150000D03*
X74000000Y-56650000D03*
%TD*%
D27*
%TO.C,U1*%
X71825000Y-73380000D03*
X71825000Y-74650000D03*
X71825000Y-75920000D03*
X71825000Y-77190000D03*
X71825000Y-78460000D03*
X71825000Y-79730000D03*
X71825000Y-81000000D03*
X71825000Y-82270000D03*
X78000000Y-82270000D03*
X78000000Y-81000000D03*
X78000000Y-79730000D03*
X78000000Y-78460000D03*
X78000000Y-77190000D03*
X78000000Y-75920000D03*
X78000000Y-74650000D03*
X78000000Y-73380000D03*
%TD*%
D28*
%TO.C,C5*%
X81300000Y-73775000D03*
X81300000Y-75850000D03*
%TD*%
%TO.C,C6*%
X85100000Y-73775000D03*
X85100000Y-75850000D03*
%TD*%
D11*
%TO.C,C2*%
X95100000Y-86250000D03*
X95100000Y-89600000D03*
%TD*%
D29*
%TO.C,SW3*%
X75920000Y-53000000D03*
X78460000Y-53000000D03*
X81000000Y-53000000D03*
%TD*%
D28*
%TO.C,C4*%
X68300000Y-74800000D03*
X68300000Y-76875000D03*
%TD*%
D12*
%TO.C,H1*%
X55000000Y-55000000D03*
%TD*%
D30*
%TO.C,C7*%
X71800000Y-64950000D03*
X71800000Y-69350000D03*
%TD*%
D10*
%TO.C,J4*%
X63300000Y-79450000D03*
X51900000Y-79450000D03*
X60200000Y-79450000D03*
%TD*%
M02*
