%TF.GenerationSoftware,KiCad,Pcbnew,10.0.0*%
%TF.CreationDate,2026-06-22T22:52:14-04:00*%
%TF.ProjectId,parla-v0-revB,7061726c-612d-4763-902d-726576422e6b,rev?*%
%TF.SameCoordinates,Original*%
%TF.FileFunction,Copper,L2,Bot*%
%TF.FilePolarity,Positive*%
%FSLAX46Y46*%
G04 Gerber Fmt 4.6, Leading zero omitted, Abs format (unit mm)*
G04 Created by KiCad (PCBNEW 10.0.0) date 2026-06-22 22:52:14*
%MOMM*%
%LPD*%
G01*
G04 APERTURE LIST*
G04 Aperture macros list*
%AMRoundRect*
0 Rectangle with rounded corners*
0 $1 Rounding radius*
0 $2 $3 $4 $5 $6 $7 $8 $9 X,Y pos of 4 corners*
0 Add a 4 corners polygon primitive as box body*
4,1,4,$2,$3,$4,$5,$6,$7,$8,$9,$2,$3,0*
0 Add four circle primitives for the rounded corners*
1,1,$1+$1,$2,$3*
1,1,$1+$1,$4,$5*
1,1,$1+$1,$6,$7*
1,1,$1+$1,$8,$9*
0 Add four rect primitives between the rounded corners*
20,1,$1+$1,$2,$3,$4,$5,0*
20,1,$1+$1,$4,$5,$6,$7,0*
20,1,$1+$1,$6,$7,$8,$9,0*
20,1,$1+$1,$8,$9,$2,$3,0*%
G04 Aperture macros list end*
%TA.AperFunction,ComponentPad*%
%ADD10C,1.800000*%
%TD*%
%TA.AperFunction,ComponentPad*%
%ADD11R,3.500000X3.500000*%
%TD*%
%TA.AperFunction,ComponentPad*%
%ADD12RoundRect,0.750000X-1.000000X0.750000X-1.000000X-0.750000X1.000000X-0.750000X1.000000X0.750000X0*%
%TD*%
%TA.AperFunction,ComponentPad*%
%ADD13RoundRect,0.875000X-0.875000X0.875000X-0.875000X-0.875000X0.875000X-0.875000X0.875000X0.875000X0*%
%TD*%
%TA.AperFunction,ComponentPad*%
%ADD14C,4.400000*%
%TD*%
%TA.AperFunction,ComponentPad*%
%ADD15R,1.800000X1.800000*%
%TD*%
%TA.AperFunction,ComponentPad*%
%ADD16R,1.500000X1.500000*%
%TD*%
%TA.AperFunction,ViaPad*%
%ADD17C,0.600000*%
%TD*%
%TA.AperFunction,Conductor*%
%ADD18C,0.200000*%
%TD*%
%TA.AperFunction,Conductor*%
%ADD19C,0.300000*%
%TD*%
G04 APERTURE END LIST*
D10*
%TO.P,J1,S*%
%TO.N,GND*%
X86300000Y-70150000D03*
%TO.P,J1,T*%
%TO.N,Net-(U1-LOUT+)*%
X97700000Y-70150000D03*
%TO.P,J1,TN*%
%TO.N,unconnected-(J1-PadTN)*%
X89400000Y-70150000D03*
%TD*%
%TO.P,J3,S*%
%TO.N,GND*%
X63327500Y-70050000D03*
%TO.P,J3,T*%
%TO.N,Net-(J3-PadT)*%
X51927500Y-70050000D03*
%TO.P,J3,TN*%
%TO.N,unconnected-(J3-PadTN)*%
X60227500Y-70050000D03*
%TD*%
D11*
%TO.P,J5,1*%
%TO.N,Net-(SW3-A)*%
X66000000Y-61000000D03*
D12*
%TO.P,J5,2*%
%TO.N,GND*%
X66000000Y-55000000D03*
D13*
%TO.P,J5,3*%
%TO.N,unconnected-(J5-Pad3)*%
X61300000Y-58000000D03*
%TD*%
D10*
%TO.P,RV1,1,1_1*%
%TO.N,Net-(J3-PadT)*%
X70100000Y-98000000D03*
%TO.P,RV1,2,2_2*%
%TO.N,Net-(C1-Pad1)*%
X67600000Y-98000000D03*
%TO.P,RV1,3,3_3*%
%TO.N,GND*%
X65100000Y-98000000D03*
D14*
%TO.P,RV1,MP*%
%TO.N,N/C*%
X63200000Y-91000000D03*
X72000000Y-91000000D03*
%TD*%
D10*
%TO.P,RV2,1,1_1*%
%TO.N,Net-(J4-PadT)*%
X85124486Y-97965964D03*
%TO.P,RV2,2,2_2*%
%TO.N,Net-(C2-Pad1)*%
X82624486Y-97965964D03*
%TO.P,RV2,3,3_3*%
%TO.N,GND*%
X80124486Y-97965964D03*
D14*
%TO.P,RV2,MP*%
%TO.N,N/C*%
X78224486Y-90965964D03*
X87024486Y-90965964D03*
%TD*%
D10*
%TO.P,J2,S*%
%TO.N,GND*%
X86300000Y-79600000D03*
%TO.P,J2,T*%
%TO.N,Net-(U1-ROUT+)*%
X97700000Y-79600000D03*
%TO.P,J2,TN*%
%TO.N,unconnected-(J2-PadTN)*%
X89400000Y-79600000D03*
%TD*%
D15*
%TO.P,D8,1,K_1*%
%TO.N,Net-(D8-K)*%
X55250000Y-63190000D03*
D10*
%TO.P,D8,2,A_2*%
%TO.N,+5V*%
X55250000Y-60650000D03*
%TD*%
D16*
%TO.P,SW3,1,A_1*%
%TO.N,Net-(SW3-A)*%
X75920000Y-53000000D03*
%TO.P,SW3,2,B_2*%
%TO.N,Net-(D1-A)*%
X78460000Y-53000000D03*
%TO.P,SW3,3,C_3*%
%TO.N,unconnected-(SW3-C-Pad3)*%
X81000000Y-53000000D03*
%TD*%
D10*
%TO.P,J4,S*%
%TO.N,GND*%
X63300000Y-79450000D03*
%TO.P,J4,T*%
%TO.N,Net-(J4-PadT)*%
X51900000Y-79450000D03*
%TO.P,J4,TN*%
%TO.N,unconnected-(J4-PadTN)*%
X60200000Y-79450000D03*
%TD*%
D17*
%TO.N,Net-(U1-LOUT+)*%
X68600000Y-71850000D03*
%TO.N,Net-(C1-Pad2)*%
X58850000Y-82500000D03*
X56900000Y-82500000D03*
%TO.N,Net-(D8-K)*%
X60950000Y-64300000D03*
%TO.N,Net-(U1-ROUT+)*%
X74950000Y-73350000D03*
%TO.N,Net-(U1-INR)*%
X81500000Y-87750000D03*
X88250000Y-87500000D03*
%TD*%
%TO.N,GND*%
D18*
X65100000Y-98000000D02*
X65100000Y-96150000D01*
X65100000Y-96150000D02*
X65750000Y-95500000D01*
X65750000Y-95500000D02*
X77658522Y-95500000D01*
X77658522Y-95500000D02*
X80124486Y-97965964D01*
%TO.N,Net-(U1-LOUT+)*%
D19*
X68450000Y-68250000D02*
X68450000Y-71700000D01*
X97700000Y-70150000D02*
X94600000Y-67050000D01*
X69650000Y-67050000D02*
X68450000Y-68250000D01*
X94600000Y-67050000D02*
X69650000Y-67050000D01*
X68450000Y-71700000D02*
X68600000Y-71850000D01*
%TO.N,Net-(C1-Pad2)*%
X56900000Y-82500000D02*
X58850000Y-82500000D01*
%TO.N,Net-(D8-K)*%
X59840000Y-63190000D02*
X60950000Y-64300000D01*
X55250000Y-63190000D02*
X59840000Y-63190000D01*
%TO.N,Net-(J4-PadT)*%
X67500000Y-92200000D02*
X69300000Y-94000000D01*
X65350000Y-86750000D02*
X67500000Y-88900000D01*
X83250000Y-94000000D02*
X85124486Y-95874486D01*
X67500000Y-88900000D02*
X67500000Y-92200000D01*
X85124486Y-95874486D02*
X85124486Y-97965964D01*
X51900000Y-79450000D02*
X59200000Y-86750000D01*
X59200000Y-86750000D02*
X65350000Y-86750000D01*
X69300000Y-94000000D02*
X83250000Y-94000000D01*
%TO.N,Net-(U1-ROUT+)*%
X80650000Y-71750000D02*
X80050000Y-72350000D01*
X96400000Y-79600000D02*
X88550000Y-71750000D01*
X97700000Y-79600000D02*
X96400000Y-79600000D01*
X75650000Y-72350000D02*
X75550000Y-72250000D01*
X80050000Y-72350000D02*
X75650000Y-72350000D01*
X74950000Y-72850000D02*
X74950000Y-73350000D01*
X75550000Y-72250000D02*
X74950000Y-72850000D01*
X88550000Y-71750000D02*
X80650000Y-71750000D01*
%TO.N,Net-(U1-INR)*%
X81500000Y-87750000D02*
X88000000Y-87750000D01*
X88000000Y-87750000D02*
X88250000Y-87500000D01*
%TD*%
%TA.AperFunction,Conductor*%
%TO.N,GND*%
G36*
X50705703Y-80194346D02*
G01*
X50724814Y-80215169D01*
X50811166Y-80334022D01*
X50831758Y-80362365D01*
X50987636Y-80518243D01*
X50987641Y-80518247D01*
X51101632Y-80601065D01*
X51165978Y-80647815D01*
X51294375Y-80713237D01*
X51362393Y-80747895D01*
X51362396Y-80747896D01*
X51372153Y-80751066D01*
X51572049Y-80816015D01*
X51789778Y-80850500D01*
X51789779Y-80850500D01*
X52010221Y-80850500D01*
X52010222Y-80850500D01*
X52227951Y-80816015D01*
X52244829Y-80810531D01*
X52314670Y-80808532D01*
X52370833Y-80840779D01*
X58785325Y-87255272D01*
X58785328Y-87255275D01*
X58802142Y-87266510D01*
X58867614Y-87310256D01*
X58867615Y-87310257D01*
X58867614Y-87310257D01*
X58891871Y-87326464D01*
X58891872Y-87326464D01*
X58891873Y-87326465D01*
X59010256Y-87375501D01*
X59010260Y-87375501D01*
X59010261Y-87375502D01*
X59135928Y-87400500D01*
X59135931Y-87400500D01*
X65029192Y-87400500D01*
X65096231Y-87420185D01*
X65116873Y-87436819D01*
X66813181Y-89133126D01*
X66846666Y-89194449D01*
X66849500Y-89220807D01*
X66849500Y-92264070D01*
X66851536Y-92274305D01*
X66870347Y-92368870D01*
X66874499Y-92389744D01*
X66923535Y-92508127D01*
X66994723Y-92614669D01*
X66994726Y-92614673D01*
X68885324Y-94505271D01*
X68885331Y-94505277D01*
X68991871Y-94576464D01*
X68991870Y-94576464D01*
X69026544Y-94590826D01*
X69110256Y-94625501D01*
X69110260Y-94625501D01*
X69110261Y-94625502D01*
X69235928Y-94650500D01*
X69235931Y-94650500D01*
X82929192Y-94650500D01*
X82996231Y-94670185D01*
X83016873Y-94686819D01*
X84437667Y-96107613D01*
X84471152Y-96168936D01*
X84473986Y-96195294D01*
X84473986Y-96649605D01*
X84454301Y-96716644D01*
X84406284Y-96760087D01*
X84392240Y-96767244D01*
X84390458Y-96768152D01*
X84212127Y-96897716D01*
X84212122Y-96897720D01*
X84056242Y-97053600D01*
X84056238Y-97053605D01*
X83974804Y-97165691D01*
X83919475Y-97208357D01*
X83849861Y-97214336D01*
X83788066Y-97181731D01*
X83774168Y-97165691D01*
X83692733Y-97053605D01*
X83692729Y-97053600D01*
X83536849Y-96897720D01*
X83536844Y-96897716D01*
X83358511Y-96768151D01*
X83358510Y-96768150D01*
X83358508Y-96768149D01*
X83257425Y-96716644D01*
X83162092Y-96668068D01*
X83162089Y-96668067D01*
X82952438Y-96599949D01*
X82843572Y-96582706D01*
X82734708Y-96565464D01*
X82514264Y-96565464D01*
X82441687Y-96576959D01*
X82296533Y-96599949D01*
X82086882Y-96668067D01*
X82086879Y-96668068D01*
X81890460Y-96768151D01*
X81712127Y-96897716D01*
X81712122Y-96897720D01*
X81556242Y-97053600D01*
X81474494Y-97166117D01*
X81419164Y-97208782D01*
X81349550Y-97214761D01*
X81287755Y-97182155D01*
X81275902Y-97168477D01*
X81275551Y-97168449D01*
X80607448Y-97836553D01*
X80590411Y-97772971D01*
X80524585Y-97658957D01*
X80431493Y-97565865D01*
X80317479Y-97500039D01*
X80253893Y-97483001D01*
X80921999Y-96814896D01*
X80858242Y-96768575D01*
X80661896Y-96668531D01*
X80452321Y-96600437D01*
X80234667Y-96565964D01*
X80014305Y-96565964D01*
X79796650Y-96600437D01*
X79587075Y-96668531D01*
X79390719Y-96768580D01*
X79326971Y-96814895D01*
X79326971Y-96814896D01*
X79995076Y-97483001D01*
X79931493Y-97500039D01*
X79817479Y-97565865D01*
X79724387Y-97658957D01*
X79658561Y-97772971D01*
X79641523Y-97836554D01*
X78973418Y-97168449D01*
X78973417Y-97168449D01*
X78927102Y-97232197D01*
X78827053Y-97428553D01*
X78758959Y-97638128D01*
X78724486Y-97855782D01*
X78724486Y-98076145D01*
X78758959Y-98293799D01*
X78827053Y-98503374D01*
X78927097Y-98699720D01*
X78973418Y-98763477D01*
X79641523Y-98095372D01*
X79658561Y-98158957D01*
X79724387Y-98272971D01*
X79817479Y-98366063D01*
X79931493Y-98431889D01*
X79995076Y-98448926D01*
X79326971Y-99117029D01*
X79326971Y-99117030D01*
X79390729Y-99163352D01*
X79590250Y-99265014D01*
X79641046Y-99312989D01*
X79657841Y-99380810D01*
X79635303Y-99446945D01*
X79580588Y-99490396D01*
X79533955Y-99499499D01*
X70758433Y-99499499D01*
X70691394Y-99479814D01*
X70645639Y-99427010D01*
X70635695Y-99357852D01*
X70664720Y-99294296D01*
X70702138Y-99265014D01*
X70729086Y-99251283D01*
X70834022Y-99197815D01*
X71012365Y-99068242D01*
X71168242Y-98912365D01*
X71297815Y-98734022D01*
X71397895Y-98537606D01*
X71466015Y-98327951D01*
X71500500Y-98110222D01*
X71500500Y-97889778D01*
X71466015Y-97672049D01*
X71421185Y-97534075D01*
X71397896Y-97462396D01*
X71397895Y-97462393D01*
X71363237Y-97394375D01*
X71297815Y-97265978D01*
X71249681Y-97199727D01*
X71168247Y-97087641D01*
X71168243Y-97087636D01*
X71012363Y-96931756D01*
X71012358Y-96931752D01*
X70834025Y-96802187D01*
X70834024Y-96802186D01*
X70834022Y-96802185D01*
X70743482Y-96756052D01*
X70637606Y-96702104D01*
X70637603Y-96702103D01*
X70427952Y-96633985D01*
X70319086Y-96616742D01*
X70210222Y-96599500D01*
X69989778Y-96599500D01*
X69917201Y-96610995D01*
X69772047Y-96633985D01*
X69562396Y-96702103D01*
X69562393Y-96702104D01*
X69365974Y-96802187D01*
X69187641Y-96931752D01*
X69187636Y-96931756D01*
X69031756Y-97087636D01*
X69031752Y-97087641D01*
X68950318Y-97199727D01*
X68894989Y-97242393D01*
X68825375Y-97248372D01*
X68763580Y-97215767D01*
X68749682Y-97199727D01*
X68668247Y-97087641D01*
X68668243Y-97087636D01*
X68512363Y-96931756D01*
X68512358Y-96931752D01*
X68334025Y-96802187D01*
X68334024Y-96802186D01*
X68334022Y-96802185D01*
X68243482Y-96756052D01*
X68137606Y-96702104D01*
X68137603Y-96702103D01*
X67927952Y-96633985D01*
X67819086Y-96616742D01*
X67710222Y-96599500D01*
X67489778Y-96599500D01*
X67417201Y-96610995D01*
X67272047Y-96633985D01*
X67062396Y-96702103D01*
X67062393Y-96702104D01*
X66865974Y-96802187D01*
X66687641Y-96931752D01*
X66687636Y-96931756D01*
X66531756Y-97087636D01*
X66450008Y-97200153D01*
X66394678Y-97242818D01*
X66325064Y-97248797D01*
X66263269Y-97216191D01*
X66251416Y-97202513D01*
X66251065Y-97202485D01*
X65582962Y-97870589D01*
X65565925Y-97807007D01*
X65500099Y-97692993D01*
X65407007Y-97599901D01*
X65292993Y-97534075D01*
X65229407Y-97517037D01*
X65897513Y-96848932D01*
X65833756Y-96802611D01*
X65637410Y-96702567D01*
X65427835Y-96634473D01*
X65210181Y-96600000D01*
X64989819Y-96600000D01*
X64772164Y-96634473D01*
X64562589Y-96702567D01*
X64366233Y-96802616D01*
X64302485Y-96848931D01*
X64302485Y-96848932D01*
X64970590Y-97517037D01*
X64907007Y-97534075D01*
X64792993Y-97599901D01*
X64699901Y-97692993D01*
X64634075Y-97807007D01*
X64617037Y-97870590D01*
X63948932Y-97202485D01*
X63948931Y-97202485D01*
X63902616Y-97266233D01*
X63802567Y-97462589D01*
X63734473Y-97672164D01*
X63700000Y-97889818D01*
X63700000Y-98110181D01*
X63734473Y-98327835D01*
X63802567Y-98537410D01*
X63902611Y-98733756D01*
X63948932Y-98797513D01*
X64617037Y-98129408D01*
X64634075Y-98192993D01*
X64699901Y-98307007D01*
X64792993Y-98400099D01*
X64907007Y-98465925D01*
X64970590Y-98482962D01*
X64302485Y-99151065D01*
X64302485Y-99151066D01*
X64366243Y-99197388D01*
X64498965Y-99265014D01*
X64549761Y-99312989D01*
X64566556Y-99380810D01*
X64544018Y-99446945D01*
X64489303Y-99490396D01*
X64442670Y-99499499D01*
X54860839Y-99499499D01*
X54856667Y-99499429D01*
X54850963Y-99499236D01*
X54704672Y-99494311D01*
X54694961Y-99493601D01*
X54300946Y-99449206D01*
X54289957Y-99447466D01*
X53904935Y-99368632D01*
X53894149Y-99365914D01*
X53780452Y-99331772D01*
X53517743Y-99252884D01*
X53507242Y-99249209D01*
X53142492Y-99102898D01*
X53132361Y-99098297D01*
X52782179Y-98919870D01*
X52772502Y-98914379D01*
X52439730Y-98705285D01*
X52430584Y-98698948D01*
X52117909Y-98460876D01*
X52109368Y-98453746D01*
X51819275Y-98188591D01*
X51811407Y-98180723D01*
X51803769Y-98172367D01*
X51546251Y-97890630D01*
X51539134Y-97882106D01*
X51301039Y-97569400D01*
X51294712Y-97560266D01*
X51085619Y-97227495D01*
X51080128Y-97217818D01*
X51013796Y-97087635D01*
X50901696Y-96867628D01*
X50897107Y-96857524D01*
X50750783Y-96492741D01*
X50747120Y-96482273D01*
X50634081Y-96105838D01*
X50631369Y-96095077D01*
X50552528Y-95710022D01*
X50550794Y-95699069D01*
X50506398Y-95305037D01*
X50505688Y-95295329D01*
X50500570Y-95143340D01*
X50500500Y-95139167D01*
X50500500Y-94878711D01*
X53149500Y-94878711D01*
X53149500Y-95121288D01*
X53181161Y-95361785D01*
X53243946Y-95596100D01*
X53332717Y-95810414D01*
X53336776Y-95820212D01*
X53458064Y-96030289D01*
X53458066Y-96030292D01*
X53458067Y-96030293D01*
X53605733Y-96222736D01*
X53605739Y-96222743D01*
X53777256Y-96394260D01*
X53777262Y-96394265D01*
X53969711Y-96541936D01*
X54179788Y-96663224D01*
X54403900Y-96756054D01*
X54638211Y-96818838D01*
X54818586Y-96842584D01*
X54878711Y-96850500D01*
X54878712Y-96850500D01*
X55121289Y-96850500D01*
X55169388Y-96844167D01*
X55361789Y-96818838D01*
X55596100Y-96756054D01*
X55820212Y-96663224D01*
X56030289Y-96541936D01*
X56222738Y-96394265D01*
X56394265Y-96222738D01*
X56541936Y-96030289D01*
X56663224Y-95820212D01*
X56756054Y-95596100D01*
X56818838Y-95361789D01*
X56850500Y-95121288D01*
X56850500Y-94878712D01*
X56818838Y-94638211D01*
X56756054Y-94403900D01*
X56663224Y-94179788D01*
X56541936Y-93969711D01*
X56394265Y-93777262D01*
X56394260Y-93777256D01*
X56222743Y-93605739D01*
X56222736Y-93605733D01*
X56030293Y-93458067D01*
X56030292Y-93458066D01*
X56030289Y-93458064D01*
X55820212Y-93336776D01*
X55769627Y-93315823D01*
X55596104Y-93243947D01*
X55361785Y-93181161D01*
X55121289Y-93149500D01*
X55121288Y-93149500D01*
X54878712Y-93149500D01*
X54878711Y-93149500D01*
X54638214Y-93181161D01*
X54403895Y-93243947D01*
X54179794Y-93336773D01*
X54179785Y-93336777D01*
X53969706Y-93458067D01*
X53777263Y-93605733D01*
X53777256Y-93605739D01*
X53605739Y-93777256D01*
X53605733Y-93777263D01*
X53458067Y-93969706D01*
X53336777Y-94179785D01*
X53336773Y-94179794D01*
X53243947Y-94403895D01*
X53181161Y-94638214D01*
X53149500Y-94878711D01*
X50500500Y-94878711D01*
X50500500Y-90848336D01*
X60499500Y-90848336D01*
X60499500Y-91151663D01*
X60533457Y-91453048D01*
X60533460Y-91453062D01*
X60600953Y-91748771D01*
X60600957Y-91748783D01*
X60701133Y-92035068D01*
X60832733Y-92308338D01*
X60832735Y-92308341D01*
X60994108Y-92565164D01*
X61183221Y-92802304D01*
X61397696Y-93016779D01*
X61634836Y-93205892D01*
X61891659Y-93367265D01*
X61891661Y-93367266D01*
X61982751Y-93411132D01*
X62164935Y-93498868D01*
X62379951Y-93574105D01*
X62451216Y-93599042D01*
X62451228Y-93599046D01*
X62746937Y-93666540D01*
X62746946Y-93666541D01*
X62746951Y-93666542D01*
X62947874Y-93689180D01*
X63048337Y-93700499D01*
X63048340Y-93700500D01*
X63048343Y-93700500D01*
X63351660Y-93700500D01*
X63351661Y-93700499D01*
X63505694Y-93683144D01*
X63653048Y-93666542D01*
X63653051Y-93666541D01*
X63653063Y-93666540D01*
X63948772Y-93599046D01*
X64235065Y-93498868D01*
X64508341Y-93367265D01*
X64765164Y-93205892D01*
X65002304Y-93016779D01*
X65216779Y-92802304D01*
X65405892Y-92565164D01*
X65567265Y-92308341D01*
X65698868Y-92035065D01*
X65799046Y-91748772D01*
X65866540Y-91453063D01*
X65900500Y-91151657D01*
X65900500Y-90848343D01*
X65866540Y-90546937D01*
X65799046Y-90251228D01*
X65698868Y-89964935D01*
X65567265Y-89691659D01*
X65405892Y-89434836D01*
X65216779Y-89197696D01*
X65002304Y-88983221D01*
X64765164Y-88794108D01*
X64508341Y-88632735D01*
X64508338Y-88632733D01*
X64235068Y-88501133D01*
X63948783Y-88400957D01*
X63948771Y-88400953D01*
X63706361Y-88345625D01*
X63653063Y-88333460D01*
X63653060Y-88333459D01*
X63653048Y-88333457D01*
X63351663Y-88299500D01*
X63351657Y-88299500D01*
X63048343Y-88299500D01*
X63048336Y-88299500D01*
X62746951Y-88333457D01*
X62746937Y-88333460D01*
X62451228Y-88400953D01*
X62451216Y-88400957D01*
X62164931Y-88501133D01*
X61891661Y-88632733D01*
X61634837Y-88794107D01*
X61397696Y-88983220D01*
X61183220Y-89197696D01*
X60994107Y-89434837D01*
X60832733Y-89691661D01*
X60701133Y-89964931D01*
X60600957Y-90251216D01*
X60600953Y-90251228D01*
X60533460Y-90546937D01*
X60533457Y-90546951D01*
X60499500Y-90848336D01*
X50500500Y-90848336D01*
X50500500Y-80288059D01*
X50520185Y-80221020D01*
X50572989Y-80175265D01*
X50642147Y-80165321D01*
X50705703Y-80194346D01*
G37*
%TD.AperFunction*%
%TA.AperFunction,Conductor*%
G36*
X66251066Y-98797514D02*
G01*
X66252547Y-98797397D01*
X66304700Y-98757180D01*
X66374314Y-98751200D01*
X66436109Y-98783806D01*
X66450008Y-98799846D01*
X66531752Y-98912359D01*
X66687636Y-99068243D01*
X66687641Y-99068247D01*
X66754786Y-99117030D01*
X66865978Y-99197815D01*
X66970914Y-99251283D01*
X66997862Y-99265014D01*
X67048658Y-99312989D01*
X67065453Y-99380810D01*
X67042915Y-99446945D01*
X66988200Y-99490396D01*
X66941567Y-99499499D01*
X65757330Y-99499499D01*
X65690291Y-99479814D01*
X65644536Y-99427010D01*
X65634592Y-99357852D01*
X65663617Y-99294296D01*
X65701035Y-99265014D01*
X65833760Y-99197386D01*
X65897513Y-99151066D01*
X65897514Y-99151066D01*
X65229409Y-98482962D01*
X65292993Y-98465925D01*
X65407007Y-98400099D01*
X65500099Y-98307007D01*
X65565925Y-98192993D01*
X65582962Y-98129410D01*
X66251066Y-98797514D01*
G37*
%TD.AperFunction*%
%TA.AperFunction,Conductor*%
G36*
X81275552Y-98763478D02*
G01*
X81277033Y-98763361D01*
X81329186Y-98723144D01*
X81398800Y-98717164D01*
X81460595Y-98749770D01*
X81474494Y-98765810D01*
X81556238Y-98878323D01*
X81712122Y-99034207D01*
X81712127Y-99034211D01*
X81806668Y-99102898D01*
X81890464Y-99163779D01*
X82065341Y-99252884D01*
X82089147Y-99265014D01*
X82139943Y-99312989D01*
X82156738Y-99380810D01*
X82134200Y-99446945D01*
X82079485Y-99490396D01*
X82032852Y-99499499D01*
X80715017Y-99499499D01*
X80647978Y-99479814D01*
X80602223Y-99427010D01*
X80592279Y-99357852D01*
X80621304Y-99294296D01*
X80658722Y-99265014D01*
X80858246Y-99163350D01*
X80921999Y-99117030D01*
X80922000Y-99117030D01*
X80253895Y-98448926D01*
X80317479Y-98431889D01*
X80431493Y-98366063D01*
X80524585Y-98272971D01*
X80590411Y-98158957D01*
X80607448Y-98095374D01*
X81275552Y-98763478D01*
G37*
%TD.AperFunction*%
%TA.AperFunction,Conductor*%
G36*
X95143332Y-50500570D02*
G01*
X95295330Y-50505687D01*
X95305033Y-50506396D01*
X95699069Y-50550794D01*
X95710026Y-50552529D01*
X96095077Y-50631369D01*
X96105838Y-50634081D01*
X96482273Y-50747120D01*
X96492741Y-50750783D01*
X96857524Y-50897107D01*
X96867628Y-50901696D01*
X97119374Y-51029967D01*
X97217818Y-51080128D01*
X97227495Y-51085619D01*
X97560266Y-51294712D01*
X97569400Y-51301039D01*
X97882106Y-51539134D01*
X97890630Y-51546251D01*
X98175032Y-51806206D01*
X98180723Y-51811407D01*
X98188587Y-51819271D01*
X98229830Y-51864393D01*
X98453746Y-52109368D01*
X98460876Y-52117909D01*
X98698948Y-52430584D01*
X98705285Y-52439730D01*
X98914379Y-52772502D01*
X98919870Y-52782179D01*
X99098297Y-53132361D01*
X99102898Y-53142492D01*
X99249209Y-53507242D01*
X99252884Y-53517743D01*
X99306482Y-53696230D01*
X99354903Y-53857482D01*
X99365913Y-53894145D01*
X99368632Y-53904935D01*
X99447466Y-54289956D01*
X99449206Y-54300946D01*
X99493600Y-54694959D01*
X99494310Y-54704668D01*
X99499429Y-54856658D01*
X99499499Y-54860832D01*
X99499499Y-95139160D01*
X99499429Y-95143333D01*
X99494311Y-95295326D01*
X99493601Y-95305037D01*
X99449206Y-95699052D01*
X99447466Y-95710041D01*
X99368632Y-96095063D01*
X99365913Y-96105853D01*
X99252884Y-96482255D01*
X99249209Y-96492756D01*
X99102898Y-96857506D01*
X99098297Y-96867637D01*
X98919870Y-97217819D01*
X98914379Y-97227496D01*
X98705285Y-97560268D01*
X98698948Y-97569414D01*
X98460876Y-97882089D01*
X98453746Y-97890630D01*
X98188591Y-98180723D01*
X98180723Y-98188591D01*
X97890631Y-98453746D01*
X97882090Y-98460877D01*
X97569412Y-98698950D01*
X97560266Y-98705286D01*
X97227495Y-98914379D01*
X97217818Y-98919870D01*
X96867641Y-99098296D01*
X96857510Y-99102897D01*
X96492758Y-99249209D01*
X96482256Y-99252884D01*
X96105852Y-99365913D01*
X96095063Y-99368632D01*
X95710042Y-99447466D01*
X95699052Y-99449206D01*
X95305039Y-99493600D01*
X95295330Y-99494310D01*
X95151641Y-99499149D01*
X95143339Y-99499429D01*
X95139168Y-99499499D01*
X85716120Y-99499499D01*
X85649081Y-99479814D01*
X85603326Y-99427010D01*
X85593382Y-99357852D01*
X85622407Y-99294296D01*
X85659825Y-99265014D01*
X85683631Y-99252884D01*
X85858508Y-99163779D01*
X86036851Y-99034206D01*
X86192728Y-98878329D01*
X86322301Y-98699986D01*
X86422381Y-98503570D01*
X86490501Y-98293915D01*
X86524986Y-98076186D01*
X86524986Y-97855742D01*
X86490501Y-97638013D01*
X86433503Y-97462589D01*
X86422382Y-97428360D01*
X86422381Y-97428357D01*
X86375095Y-97335555D01*
X86322301Y-97231942D01*
X86217461Y-97087641D01*
X86192733Y-97053605D01*
X86192729Y-97053600D01*
X86036849Y-96897720D01*
X86036844Y-96897716D01*
X85858513Y-96768152D01*
X85858510Y-96768150D01*
X85858508Y-96768149D01*
X85842687Y-96760088D01*
X85791894Y-96712113D01*
X85774986Y-96649605D01*
X85774986Y-95810414D01*
X85749988Y-95684747D01*
X85749987Y-95684746D01*
X85749987Y-95684742D01*
X85713270Y-95596100D01*
X85700952Y-95566360D01*
X85629763Y-95459817D01*
X85629758Y-95459811D01*
X85048658Y-94878711D01*
X93149500Y-94878711D01*
X93149500Y-95121288D01*
X93181161Y-95361785D01*
X93243946Y-95596100D01*
X93332717Y-95810414D01*
X93336776Y-95820212D01*
X93458064Y-96030289D01*
X93458066Y-96030292D01*
X93458067Y-96030293D01*
X93605733Y-96222736D01*
X93605739Y-96222743D01*
X93777256Y-96394260D01*
X93777262Y-96394265D01*
X93969711Y-96541936D01*
X94179788Y-96663224D01*
X94403900Y-96756054D01*
X94638211Y-96818838D01*
X94818586Y-96842584D01*
X94878711Y-96850500D01*
X94878712Y-96850500D01*
X95121289Y-96850500D01*
X95169388Y-96844167D01*
X95361789Y-96818838D01*
X95596100Y-96756054D01*
X95820212Y-96663224D01*
X96030289Y-96541936D01*
X96222738Y-96394265D01*
X96394265Y-96222738D01*
X96541936Y-96030289D01*
X96663224Y-95820212D01*
X96756054Y-95596100D01*
X96818838Y-95361789D01*
X96850500Y-95121288D01*
X96850500Y-94878712D01*
X96818838Y-94638211D01*
X96756054Y-94403900D01*
X96663224Y-94179788D01*
X96541936Y-93969711D01*
X96394265Y-93777262D01*
X96394260Y-93777256D01*
X96222743Y-93605739D01*
X96222736Y-93605733D01*
X96030293Y-93458067D01*
X96030292Y-93458066D01*
X96030289Y-93458064D01*
X95820212Y-93336776D01*
X95769627Y-93315823D01*
X95596104Y-93243947D01*
X95361785Y-93181161D01*
X95121289Y-93149500D01*
X95121288Y-93149500D01*
X94878712Y-93149500D01*
X94878711Y-93149500D01*
X94638214Y-93181161D01*
X94403895Y-93243947D01*
X94179794Y-93336773D01*
X94179785Y-93336777D01*
X93969706Y-93458067D01*
X93777263Y-93605733D01*
X93777256Y-93605739D01*
X93605739Y-93777256D01*
X93605733Y-93777263D01*
X93458067Y-93969706D01*
X93336777Y-94179785D01*
X93336773Y-94179794D01*
X93243947Y-94403895D01*
X93181161Y-94638214D01*
X93149500Y-94878711D01*
X85048658Y-94878711D01*
X83664673Y-93494726D01*
X83619930Y-93464830D01*
X83558127Y-93423535D01*
X83439744Y-93374499D01*
X83439738Y-93374497D01*
X83314071Y-93349500D01*
X83314069Y-93349500D01*
X79921263Y-93349500D01*
X79854224Y-93329815D01*
X79808469Y-93277011D01*
X79798525Y-93207853D01*
X79827550Y-93144297D01*
X79843950Y-93128553D01*
X80026790Y-92982743D01*
X80241265Y-92768268D01*
X80430378Y-92531128D01*
X80591751Y-92274305D01*
X80723354Y-92001029D01*
X80823532Y-91714736D01*
X80891026Y-91419027D01*
X80924986Y-91117621D01*
X80924986Y-90814307D01*
X80913666Y-90713838D01*
X80891028Y-90512915D01*
X80891027Y-90512910D01*
X80891026Y-90512901D01*
X80823532Y-90217192D01*
X80723354Y-89930899D01*
X80591751Y-89657623D01*
X80430378Y-89400800D01*
X80241265Y-89163660D01*
X80026790Y-88949185D01*
X79789650Y-88760072D01*
X79532827Y-88598699D01*
X79532824Y-88598697D01*
X79259554Y-88467097D01*
X78973269Y-88366921D01*
X78973257Y-88366917D01*
X78745042Y-88314828D01*
X78677549Y-88299424D01*
X78677546Y-88299423D01*
X78677534Y-88299421D01*
X78376149Y-88265464D01*
X78376143Y-88265464D01*
X78072829Y-88265464D01*
X78072822Y-88265464D01*
X77771437Y-88299421D01*
X77771423Y-88299424D01*
X77475714Y-88366917D01*
X77475702Y-88366921D01*
X77189417Y-88467097D01*
X76916147Y-88598697D01*
X76659323Y-88760071D01*
X76422182Y-88949184D01*
X76207706Y-89163660D01*
X76018593Y-89400801D01*
X75857219Y-89657625D01*
X75725619Y-89930895D01*
X75625443Y-90217180D01*
X75625439Y-90217192D01*
X75557946Y-90512901D01*
X75557943Y-90512915D01*
X75523986Y-90814300D01*
X75523986Y-91117627D01*
X75557943Y-91419012D01*
X75557946Y-91419026D01*
X75625439Y-91714735D01*
X75625443Y-91714747D01*
X75725619Y-92001032D01*
X75857219Y-92274302D01*
X75857221Y-92274305D01*
X76018594Y-92531128D01*
X76045737Y-92565164D01*
X76207706Y-92768267D01*
X76422182Y-92982743D01*
X76605022Y-93128553D01*
X76645162Y-93185741D01*
X76648012Y-93255553D01*
X76612667Y-93315823D01*
X76550348Y-93347416D01*
X76527709Y-93349500D01*
X73739457Y-93349500D01*
X73672418Y-93329815D01*
X73626663Y-93277011D01*
X73616719Y-93207853D01*
X73645744Y-93144297D01*
X73662144Y-93128553D01*
X73668023Y-93123864D01*
X73802304Y-93016779D01*
X74016779Y-92802304D01*
X74205892Y-92565164D01*
X74367265Y-92308341D01*
X74498868Y-92035065D01*
X74599046Y-91748772D01*
X74666540Y-91453063D01*
X74700500Y-91151657D01*
X74700500Y-90848343D01*
X74666540Y-90546937D01*
X74599046Y-90251228D01*
X74498868Y-89964935D01*
X74367265Y-89691659D01*
X74205892Y-89434836D01*
X74016779Y-89197696D01*
X73802304Y-88983221D01*
X73565164Y-88794108D01*
X73308341Y-88632735D01*
X73308338Y-88632733D01*
X73035068Y-88501133D01*
X72748783Y-88400957D01*
X72748771Y-88400953D01*
X72506361Y-88345625D01*
X72453063Y-88333460D01*
X72453060Y-88333459D01*
X72453048Y-88333457D01*
X72151663Y-88299500D01*
X72151657Y-88299500D01*
X71848343Y-88299500D01*
X71848336Y-88299500D01*
X71546951Y-88333457D01*
X71546937Y-88333460D01*
X71251228Y-88400953D01*
X71251216Y-88400957D01*
X70964931Y-88501133D01*
X70691661Y-88632733D01*
X70434837Y-88794107D01*
X70197696Y-88983220D01*
X69983220Y-89197696D01*
X69794107Y-89434837D01*
X69632733Y-89691661D01*
X69501133Y-89964931D01*
X69400957Y-90251216D01*
X69400953Y-90251228D01*
X69333460Y-90546937D01*
X69333457Y-90546951D01*
X69299500Y-90848336D01*
X69299500Y-91151663D01*
X69333457Y-91453048D01*
X69333460Y-91453062D01*
X69400953Y-91748771D01*
X69400957Y-91748783D01*
X69501133Y-92035068D01*
X69632733Y-92308338D01*
X69632735Y-92308341D01*
X69794108Y-92565164D01*
X69935193Y-92742078D01*
X69983220Y-92802303D01*
X70197696Y-93016779D01*
X70337856Y-93128553D01*
X70377996Y-93185741D01*
X70380846Y-93255553D01*
X70345501Y-93315823D01*
X70283182Y-93347416D01*
X70260543Y-93349500D01*
X69620808Y-93349500D01*
X69553769Y-93329815D01*
X69533127Y-93313181D01*
X68186819Y-91966873D01*
X68153334Y-91905550D01*
X68150500Y-91879192D01*
X68150500Y-88835928D01*
X68125502Y-88710261D01*
X68125501Y-88710260D01*
X68125501Y-88710256D01*
X68082194Y-88605703D01*
X68076466Y-88591875D01*
X68076461Y-88591866D01*
X68005277Y-88485332D01*
X67972775Y-88452830D01*
X67914669Y-88394724D01*
X67641731Y-88121786D01*
X67272693Y-87752747D01*
X67191099Y-87671153D01*
X80699500Y-87671153D01*
X80699500Y-87828846D01*
X80730261Y-87983489D01*
X80730264Y-87983501D01*
X80790602Y-88129172D01*
X80790609Y-88129185D01*
X80878210Y-88260288D01*
X80878213Y-88260292D01*
X80989707Y-88371786D01*
X80989711Y-88371789D01*
X81120814Y-88459390D01*
X81120827Y-88459397D01*
X81266498Y-88519735D01*
X81266503Y-88519737D01*
X81379165Y-88542147D01*
X81421153Y-88550499D01*
X81421156Y-88550500D01*
X81421158Y-88550500D01*
X81578844Y-88550500D01*
X81578845Y-88550499D01*
X81733497Y-88519737D01*
X81879179Y-88459394D01*
X81936044Y-88421397D01*
X82002721Y-88400520D01*
X82004935Y-88400500D01*
X85601163Y-88400500D01*
X85668202Y-88420185D01*
X85713957Y-88472989D01*
X85723901Y-88542147D01*
X85694876Y-88605703D01*
X85667135Y-88629494D01*
X85459323Y-88760071D01*
X85222182Y-88949184D01*
X85007706Y-89163660D01*
X84818593Y-89400801D01*
X84657219Y-89657625D01*
X84525619Y-89930895D01*
X84425443Y-90217180D01*
X84425439Y-90217192D01*
X84357946Y-90512901D01*
X84357943Y-90512915D01*
X84323986Y-90814300D01*
X84323986Y-91117627D01*
X84357943Y-91419012D01*
X84357946Y-91419026D01*
X84425439Y-91714735D01*
X84425443Y-91714747D01*
X84525619Y-92001032D01*
X84657219Y-92274302D01*
X84657221Y-92274305D01*
X84818594Y-92531128D01*
X85007707Y-92768268D01*
X85222182Y-92982743D01*
X85459322Y-93171856D01*
X85716145Y-93333229D01*
X85989421Y-93464832D01*
X86086691Y-93498868D01*
X86275702Y-93565006D01*
X86275714Y-93565010D01*
X86571423Y-93632504D01*
X86571432Y-93632505D01*
X86571437Y-93632506D01*
X86772360Y-93655144D01*
X86872823Y-93666463D01*
X86872826Y-93666464D01*
X86872829Y-93666464D01*
X87176146Y-93666464D01*
X87176147Y-93666463D01*
X87330180Y-93649108D01*
X87477534Y-93632506D01*
X87477537Y-93632505D01*
X87477549Y-93632504D01*
X87773258Y-93565010D01*
X88059551Y-93464832D01*
X88332827Y-93333229D01*
X88589650Y-93171856D01*
X88826790Y-92982743D01*
X89041265Y-92768268D01*
X89230378Y-92531128D01*
X89391751Y-92274305D01*
X89523354Y-92001029D01*
X89623532Y-91714736D01*
X89691026Y-91419027D01*
X89724986Y-91117621D01*
X89724986Y-90814307D01*
X89713666Y-90713838D01*
X89691028Y-90512915D01*
X89691027Y-90512910D01*
X89691026Y-90512901D01*
X89623532Y-90217192D01*
X89523354Y-89930899D01*
X89391751Y-89657623D01*
X89230378Y-89400800D01*
X89041265Y-89163660D01*
X88826790Y-88949185D01*
X88589650Y-88760072D01*
X88332827Y-88598699D01*
X88332824Y-88598697D01*
X88267171Y-88567080D01*
X88215311Y-88520257D01*
X88196999Y-88452830D01*
X88218047Y-88386206D01*
X88263230Y-88345625D01*
X88268256Y-88342979D01*
X88308127Y-88326465D01*
X88312512Y-88323535D01*
X88339576Y-88305450D01*
X88345319Y-88302429D01*
X88354793Y-88300520D01*
X88378866Y-88290548D01*
X88483497Y-88269737D01*
X88629179Y-88209394D01*
X88760289Y-88121789D01*
X88871789Y-88010289D01*
X88959394Y-87879179D01*
X89019737Y-87733497D01*
X89050500Y-87578842D01*
X89050500Y-87421158D01*
X89050500Y-87421155D01*
X89050499Y-87421153D01*
X89019738Y-87266510D01*
X89019737Y-87266503D01*
X89015085Y-87255272D01*
X88959397Y-87120827D01*
X88959390Y-87120814D01*
X88871789Y-86989711D01*
X88871786Y-86989707D01*
X88760292Y-86878213D01*
X88760288Y-86878210D01*
X88629185Y-86790609D01*
X88629172Y-86790602D01*
X88483501Y-86730264D01*
X88483489Y-86730261D01*
X88328845Y-86699500D01*
X88328842Y-86699500D01*
X88171158Y-86699500D01*
X88171155Y-86699500D01*
X88016510Y-86730261D01*
X88016498Y-86730264D01*
X87870827Y-86790602D01*
X87870814Y-86790609D01*
X87739711Y-86878210D01*
X87739707Y-86878213D01*
X87628213Y-86989707D01*
X87628207Y-86989715D01*
X87591675Y-87044390D01*
X87538063Y-87089196D01*
X87488573Y-87099500D01*
X82004935Y-87099500D01*
X81937896Y-87079815D01*
X81936090Y-87078633D01*
X81879179Y-87040606D01*
X81879172Y-87040602D01*
X81733501Y-86980264D01*
X81733489Y-86980261D01*
X81578845Y-86949500D01*
X81578842Y-86949500D01*
X81421158Y-86949500D01*
X81421155Y-86949500D01*
X81266510Y-86980261D01*
X81266498Y-86980264D01*
X81120827Y-87040602D01*
X81120814Y-87040609D01*
X80989711Y-87128210D01*
X80989707Y-87128213D01*
X80878213Y-87239707D01*
X80878210Y-87239711D01*
X80790609Y-87370814D01*
X80790602Y-87370827D01*
X80730264Y-87516498D01*
X80730261Y-87516510D01*
X80699500Y-87671153D01*
X67191099Y-87671153D01*
X65764674Y-86244727D01*
X65764673Y-86244726D01*
X65764669Y-86244723D01*
X65658127Y-86173535D01*
X65539744Y-86124499D01*
X65539738Y-86124497D01*
X65414071Y-86099500D01*
X65414069Y-86099500D01*
X59520808Y-86099500D01*
X59453769Y-86079815D01*
X59433127Y-86063181D01*
X56882127Y-83512181D01*
X56848642Y-83450858D01*
X56853626Y-83381166D01*
X56895498Y-83325233D01*
X56960962Y-83300816D01*
X56969808Y-83300500D01*
X56978844Y-83300500D01*
X56978845Y-83300499D01*
X57133497Y-83269737D01*
X57279179Y-83209394D01*
X57336044Y-83171397D01*
X57402721Y-83150520D01*
X57404935Y-83150500D01*
X58345065Y-83150500D01*
X58412104Y-83170185D01*
X58413909Y-83171366D01*
X58470821Y-83209394D01*
X58470823Y-83209395D01*
X58470827Y-83209397D01*
X58570717Y-83250772D01*
X58616503Y-83269737D01*
X58771153Y-83300499D01*
X58771156Y-83300500D01*
X58771158Y-83300500D01*
X58928844Y-83300500D01*
X58928845Y-83300499D01*
X59083497Y-83269737D01*
X59229179Y-83209394D01*
X59360289Y-83121789D01*
X59471789Y-83010289D01*
X59559394Y-82879179D01*
X59619737Y-82733497D01*
X59650500Y-82578842D01*
X59650500Y-82421158D01*
X59650500Y-82421155D01*
X59650499Y-82421153D01*
X59619738Y-82266510D01*
X59619737Y-82266503D01*
X59619735Y-82266498D01*
X59559397Y-82120827D01*
X59559390Y-82120814D01*
X59471789Y-81989711D01*
X59471786Y-81989707D01*
X59360292Y-81878213D01*
X59360288Y-81878210D01*
X59229185Y-81790609D01*
X59229172Y-81790602D01*
X59083501Y-81730264D01*
X59083489Y-81730261D01*
X58928845Y-81699500D01*
X58928842Y-81699500D01*
X58771158Y-81699500D01*
X58771155Y-81699500D01*
X58616510Y-81730261D01*
X58616498Y-81730264D01*
X58470827Y-81790602D01*
X58470820Y-81790606D01*
X58441928Y-81809911D01*
X58413955Y-81828602D01*
X58347279Y-81849480D01*
X58345065Y-81849500D01*
X57404935Y-81849500D01*
X57337896Y-81829815D01*
X57336090Y-81828633D01*
X57279179Y-81790606D01*
X57279172Y-81790602D01*
X57133501Y-81730264D01*
X57133489Y-81730261D01*
X56978845Y-81699500D01*
X56978842Y-81699500D01*
X56821158Y-81699500D01*
X56821155Y-81699500D01*
X56666510Y-81730261D01*
X56666498Y-81730264D01*
X56520827Y-81790602D01*
X56520814Y-81790609D01*
X56389711Y-81878210D01*
X56389707Y-81878213D01*
X56278213Y-81989707D01*
X56278210Y-81989711D01*
X56190609Y-82120814D01*
X56190602Y-82120827D01*
X56130264Y-82266498D01*
X56130261Y-82266510D01*
X56099500Y-82421153D01*
X56099500Y-82430192D01*
X56079815Y-82497231D01*
X56027011Y-82542986D01*
X55957853Y-82552930D01*
X55894297Y-82523905D01*
X55887819Y-82517873D01*
X53290779Y-79920833D01*
X53257294Y-79859510D01*
X53260531Y-79794829D01*
X53266013Y-79777957D01*
X53266012Y-79777957D01*
X53266015Y-79777951D01*
X53300500Y-79560222D01*
X53300500Y-79339778D01*
X58799500Y-79339778D01*
X58799500Y-79560221D01*
X58833985Y-79777952D01*
X58902103Y-79987603D01*
X58902104Y-79987606D01*
X58944801Y-80071401D01*
X59002049Y-80183756D01*
X59002187Y-80184025D01*
X59131752Y-80362358D01*
X59131756Y-80362363D01*
X59287636Y-80518243D01*
X59287641Y-80518247D01*
X59401632Y-80601065D01*
X59465978Y-80647815D01*
X59594375Y-80713237D01*
X59662393Y-80747895D01*
X59662396Y-80747896D01*
X59672153Y-80751066D01*
X59872049Y-80816015D01*
X60089778Y-80850500D01*
X60089779Y-80850500D01*
X60310221Y-80850500D01*
X60310222Y-80850500D01*
X60527951Y-80816015D01*
X60737606Y-80747895D01*
X60934022Y-80647815D01*
X61112365Y-80518242D01*
X61268242Y-80362365D01*
X61397815Y-80184022D01*
X61497895Y-79987606D01*
X61566015Y-79777951D01*
X61600500Y-79560222D01*
X61600500Y-79339818D01*
X61900000Y-79339818D01*
X61900000Y-79560181D01*
X61934473Y-79777835D01*
X62002567Y-79987410D01*
X62102611Y-80183756D01*
X62148932Y-80247513D01*
X62584152Y-79812292D01*
X62591049Y-79828942D01*
X62678599Y-79959970D01*
X62790030Y-80071401D01*
X62921058Y-80158951D01*
X62937705Y-80165846D01*
X62502485Y-80601065D01*
X62502485Y-80601066D01*
X62566243Y-80647388D01*
X62762589Y-80747432D01*
X62972164Y-80815526D01*
X63189819Y-80850000D01*
X63410181Y-80850000D01*
X63627835Y-80815526D01*
X63837410Y-80747432D01*
X64033760Y-80647386D01*
X64094180Y-80603489D01*
X64097513Y-80601066D01*
X64097514Y-80601066D01*
X63662294Y-80165846D01*
X63678942Y-80158951D01*
X63809970Y-80071401D01*
X63921401Y-79959970D01*
X64008951Y-79828942D01*
X64015846Y-79812294D01*
X64451066Y-80247514D01*
X64451066Y-80247513D01*
X64497386Y-80183760D01*
X64597432Y-79987410D01*
X64665526Y-79777835D01*
X64700000Y-79560181D01*
X64700000Y-79489818D01*
X84900000Y-79489818D01*
X84900000Y-79710181D01*
X84934473Y-79927835D01*
X85002567Y-80137410D01*
X85102611Y-80333756D01*
X85148932Y-80397513D01*
X85584152Y-79962292D01*
X85591049Y-79978942D01*
X85678599Y-80109970D01*
X85790030Y-80221401D01*
X85921058Y-80308951D01*
X85937705Y-80315846D01*
X85502485Y-80751065D01*
X85502485Y-80751066D01*
X85566243Y-80797388D01*
X85762589Y-80897432D01*
X85972164Y-80965526D01*
X86189819Y-81000000D01*
X86410181Y-81000000D01*
X86627835Y-80965526D01*
X86837410Y-80897432D01*
X87033760Y-80797386D01*
X87097513Y-80751066D01*
X87097514Y-80751066D01*
X86662294Y-80315846D01*
X86678942Y-80308951D01*
X86809970Y-80221401D01*
X86921401Y-80109970D01*
X87008951Y-79978942D01*
X87015846Y-79962294D01*
X87451066Y-80397514D01*
X87451066Y-80397513D01*
X87497386Y-80333760D01*
X87597432Y-80137410D01*
X87665526Y-79927835D01*
X87700000Y-79710181D01*
X87700000Y-79489818D01*
X87699994Y-79489778D01*
X87999500Y-79489778D01*
X87999500Y-79710222D01*
X88014282Y-79803553D01*
X88033985Y-79927952D01*
X88102103Y-80137603D01*
X88102104Y-80137606D01*
X88159373Y-80250000D01*
X88202049Y-80333756D01*
X88202187Y-80334025D01*
X88331752Y-80512358D01*
X88331756Y-80512363D01*
X88487636Y-80668243D01*
X88487641Y-80668247D01*
X88597270Y-80747896D01*
X88665978Y-80797815D01*
X88750299Y-80840779D01*
X88862393Y-80897895D01*
X88862396Y-80897896D01*
X88967221Y-80931955D01*
X89072049Y-80966015D01*
X89289778Y-81000500D01*
X89289779Y-81000500D01*
X89510221Y-81000500D01*
X89510222Y-81000500D01*
X89727951Y-80966015D01*
X89937606Y-80897895D01*
X90134022Y-80797815D01*
X90312365Y-80668242D01*
X90468242Y-80512365D01*
X90597815Y-80334022D01*
X90697895Y-80137606D01*
X90766015Y-79927951D01*
X90800500Y-79710222D01*
X90800500Y-79489778D01*
X90766015Y-79272049D01*
X90708959Y-79096446D01*
X90697896Y-79062396D01*
X90697895Y-79062393D01*
X90655199Y-78978599D01*
X90597815Y-78865978D01*
X90570658Y-78828599D01*
X90468247Y-78687641D01*
X90468243Y-78687636D01*
X90312363Y-78531756D01*
X90312358Y-78531752D01*
X90134025Y-78402187D01*
X90134024Y-78402186D01*
X90134022Y-78402185D01*
X90071096Y-78370122D01*
X89937606Y-78302104D01*
X89937603Y-78302103D01*
X89727952Y-78233985D01*
X89619086Y-78216742D01*
X89510222Y-78199500D01*
X89289778Y-78199500D01*
X89217201Y-78210995D01*
X89072047Y-78233985D01*
X88862396Y-78302103D01*
X88862393Y-78302104D01*
X88665974Y-78402187D01*
X88487641Y-78531752D01*
X88487636Y-78531756D01*
X88331756Y-78687636D01*
X88331752Y-78687641D01*
X88202187Y-78865974D01*
X88102104Y-79062393D01*
X88102103Y-79062396D01*
X88033985Y-79272047D01*
X88024258Y-79333460D01*
X87999500Y-79489778D01*
X87699994Y-79489778D01*
X87665526Y-79272164D01*
X87597432Y-79062589D01*
X87497388Y-78866243D01*
X87451066Y-78802485D01*
X87451065Y-78802485D01*
X87015846Y-79237704D01*
X87008951Y-79221058D01*
X86921401Y-79090030D01*
X86809970Y-78978599D01*
X86678942Y-78891049D01*
X86662292Y-78884152D01*
X87097513Y-78448932D01*
X87033756Y-78402611D01*
X86837410Y-78302567D01*
X86627835Y-78234473D01*
X86410181Y-78200000D01*
X86189819Y-78200000D01*
X85972164Y-78234473D01*
X85762589Y-78302567D01*
X85566233Y-78402616D01*
X85502485Y-78448931D01*
X85502485Y-78448932D01*
X85937706Y-78884153D01*
X85921058Y-78891049D01*
X85790030Y-78978599D01*
X85678599Y-79090030D01*
X85591049Y-79221058D01*
X85584153Y-79237706D01*
X85148932Y-78802485D01*
X85148931Y-78802485D01*
X85102616Y-78866233D01*
X85002567Y-79062589D01*
X84934473Y-79272164D01*
X84900000Y-79489818D01*
X64700000Y-79489818D01*
X64700000Y-79339818D01*
X64665526Y-79122164D01*
X64597432Y-78912589D01*
X64497388Y-78716243D01*
X64451066Y-78652485D01*
X64451065Y-78652485D01*
X64015846Y-79087704D01*
X64008951Y-79071058D01*
X63921401Y-78940030D01*
X63809970Y-78828599D01*
X63678942Y-78741049D01*
X63662292Y-78734152D01*
X63987936Y-78408510D01*
X64097513Y-78298932D01*
X64033756Y-78252611D01*
X63837410Y-78152567D01*
X63627835Y-78084473D01*
X63410181Y-78050000D01*
X63189819Y-78050000D01*
X62972164Y-78084473D01*
X62762589Y-78152567D01*
X62566233Y-78252616D01*
X62502485Y-78298931D01*
X62502485Y-78298932D01*
X62937706Y-78734153D01*
X62921058Y-78741049D01*
X62790030Y-78828599D01*
X62678599Y-78940030D01*
X62591049Y-79071058D01*
X62584153Y-79087706D01*
X62148932Y-78652485D01*
X62148931Y-78652485D01*
X62102616Y-78716233D01*
X62002567Y-78912589D01*
X61934473Y-79122164D01*
X61900000Y-79339818D01*
X61600500Y-79339818D01*
X61600500Y-79339778D01*
X61566015Y-79122049D01*
X61519406Y-78978599D01*
X61497896Y-78912396D01*
X61497895Y-78912393D01*
X61441893Y-78802485D01*
X61397815Y-78715978D01*
X61351685Y-78652485D01*
X61268247Y-78537641D01*
X61268243Y-78537636D01*
X61112363Y-78381756D01*
X61112358Y-78381752D01*
X60934025Y-78252187D01*
X60934024Y-78252186D01*
X60934022Y-78252185D01*
X60871096Y-78220122D01*
X60737606Y-78152104D01*
X60737603Y-78152103D01*
X60527952Y-78083985D01*
X60419086Y-78066742D01*
X60310222Y-78049500D01*
X60089778Y-78049500D01*
X60017201Y-78060995D01*
X59872047Y-78083985D01*
X59662396Y-78152103D01*
X59662393Y-78152104D01*
X59465974Y-78252187D01*
X59287641Y-78381752D01*
X59287636Y-78381756D01*
X59131756Y-78537636D01*
X59131752Y-78537641D01*
X59002187Y-78715974D01*
X58902104Y-78912393D01*
X58902103Y-78912396D01*
X58833985Y-79122047D01*
X58799500Y-79339778D01*
X53300500Y-79339778D01*
X53266015Y-79122049D01*
X53219406Y-78978599D01*
X53197896Y-78912396D01*
X53197895Y-78912393D01*
X53141893Y-78802485D01*
X53097815Y-78715978D01*
X53051685Y-78652485D01*
X52968247Y-78537641D01*
X52968243Y-78537636D01*
X52812363Y-78381756D01*
X52812358Y-78381752D01*
X52634025Y-78252187D01*
X52634024Y-78252186D01*
X52634022Y-78252185D01*
X52571096Y-78220122D01*
X52437606Y-78152104D01*
X52437603Y-78152103D01*
X52227952Y-78083985D01*
X52119086Y-78066742D01*
X52010222Y-78049500D01*
X51789778Y-78049500D01*
X51717201Y-78060995D01*
X51572047Y-78083985D01*
X51362396Y-78152103D01*
X51362393Y-78152104D01*
X51165974Y-78252187D01*
X50987641Y-78381752D01*
X50987636Y-78381756D01*
X50831756Y-78537636D01*
X50831752Y-78537641D01*
X50724818Y-78684825D01*
X50669489Y-78727491D01*
X50599875Y-78733470D01*
X50538080Y-78700865D01*
X50503723Y-78640026D01*
X50500500Y-78611940D01*
X50500500Y-73271153D01*
X74149500Y-73271153D01*
X74149500Y-73428846D01*
X74180261Y-73583489D01*
X74180264Y-73583501D01*
X74240602Y-73729172D01*
X74240609Y-73729185D01*
X74328210Y-73860288D01*
X74328213Y-73860292D01*
X74439707Y-73971786D01*
X74439711Y-73971789D01*
X74570814Y-74059390D01*
X74570827Y-74059397D01*
X74716498Y-74119735D01*
X74716503Y-74119737D01*
X74871153Y-74150499D01*
X74871156Y-74150500D01*
X74871158Y-74150500D01*
X75028844Y-74150500D01*
X75028845Y-74150499D01*
X75183497Y-74119737D01*
X75329179Y-74059394D01*
X75460289Y-73971789D01*
X75571789Y-73860289D01*
X75659394Y-73729179D01*
X75719737Y-73583497D01*
X75750500Y-73428842D01*
X75750500Y-73271158D01*
X75750500Y-73271155D01*
X75726140Y-73148692D01*
X75732367Y-73079100D01*
X75775230Y-73023923D01*
X75841120Y-73000678D01*
X75847757Y-73000500D01*
X80114071Y-73000500D01*
X80198615Y-72983682D01*
X80239744Y-72975501D01*
X80358127Y-72926465D01*
X80376679Y-72914069D01*
X80464669Y-72855277D01*
X80883126Y-72436818D01*
X80944449Y-72403334D01*
X80970807Y-72400500D01*
X88229192Y-72400500D01*
X88296231Y-72420185D01*
X88316873Y-72436819D01*
X95985324Y-80105271D01*
X95985327Y-80105274D01*
X95985330Y-80105276D01*
X96033716Y-80137606D01*
X96091873Y-80176465D01*
X96210256Y-80225501D01*
X96210260Y-80225501D01*
X96210261Y-80225502D01*
X96335928Y-80250500D01*
X96335931Y-80250500D01*
X96383641Y-80250500D01*
X96450680Y-80270185D01*
X96494126Y-80318205D01*
X96502187Y-80334026D01*
X96631752Y-80512358D01*
X96631756Y-80512363D01*
X96787636Y-80668243D01*
X96787641Y-80668247D01*
X96897270Y-80747896D01*
X96965978Y-80797815D01*
X97050299Y-80840779D01*
X97162393Y-80897895D01*
X97162396Y-80897896D01*
X97267221Y-80931955D01*
X97372049Y-80966015D01*
X97589778Y-81000500D01*
X97589779Y-81000500D01*
X97810221Y-81000500D01*
X97810222Y-81000500D01*
X98027951Y-80966015D01*
X98237606Y-80897895D01*
X98434022Y-80797815D01*
X98612365Y-80668242D01*
X98768242Y-80512365D01*
X98897815Y-80334022D01*
X98997895Y-80137606D01*
X99066015Y-79927951D01*
X99100500Y-79710222D01*
X99100500Y-79489778D01*
X99066015Y-79272049D01*
X99008959Y-79096446D01*
X98997896Y-79062396D01*
X98997895Y-79062393D01*
X98955199Y-78978599D01*
X98897815Y-78865978D01*
X98870658Y-78828599D01*
X98768247Y-78687641D01*
X98768243Y-78687636D01*
X98612363Y-78531756D01*
X98612358Y-78531752D01*
X98434025Y-78402187D01*
X98434024Y-78402186D01*
X98434022Y-78402185D01*
X98371096Y-78370122D01*
X98237606Y-78302104D01*
X98237603Y-78302103D01*
X98027952Y-78233985D01*
X97919086Y-78216742D01*
X97810222Y-78199500D01*
X97589778Y-78199500D01*
X97517201Y-78210995D01*
X97372047Y-78233985D01*
X97162396Y-78302103D01*
X97162393Y-78302104D01*
X96965974Y-78402187D01*
X96787641Y-78531752D01*
X96787636Y-78531756D01*
X96631757Y-78687635D01*
X96622759Y-78700021D01*
X96567428Y-78742686D01*
X96497815Y-78748664D01*
X96436020Y-78716057D01*
X96434761Y-78714815D01*
X89475313Y-71755367D01*
X89441828Y-71694044D01*
X89446812Y-71624352D01*
X89488684Y-71568419D01*
X89543593Y-71545214D01*
X89727951Y-71516015D01*
X89727954Y-71516014D01*
X89937603Y-71447896D01*
X89937606Y-71447895D01*
X90134022Y-71347815D01*
X90312365Y-71218242D01*
X90468242Y-71062365D01*
X90597815Y-70884022D01*
X90697895Y-70687606D01*
X90766015Y-70477951D01*
X90800500Y-70260222D01*
X90800500Y-70039778D01*
X90766015Y-69822049D01*
X90716956Y-69671058D01*
X90697896Y-69612396D01*
X90697895Y-69612393D01*
X90610589Y-69441049D01*
X90597815Y-69415978D01*
X90551685Y-69352485D01*
X90468247Y-69237641D01*
X90468243Y-69237636D01*
X90312363Y-69081756D01*
X90312358Y-69081752D01*
X90134025Y-68952187D01*
X90134024Y-68952186D01*
X90134022Y-68952185D01*
X90071096Y-68920122D01*
X89937606Y-68852104D01*
X89937603Y-68852103D01*
X89727952Y-68783985D01*
X89571591Y-68759220D01*
X89510222Y-68749500D01*
X89289778Y-68749500D01*
X89228409Y-68759220D01*
X89072047Y-68783985D01*
X88862396Y-68852103D01*
X88862393Y-68852104D01*
X88665974Y-68952187D01*
X88487641Y-69081752D01*
X88487636Y-69081756D01*
X88331756Y-69237636D01*
X88331752Y-69237641D01*
X88202187Y-69415974D01*
X88102104Y-69612393D01*
X88102103Y-69612396D01*
X88033985Y-69822047D01*
X87999500Y-70039778D01*
X87999500Y-70260221D01*
X88033985Y-70477952D01*
X88102103Y-70687603D01*
X88102104Y-70687606D01*
X88202185Y-70884022D01*
X88215693Y-70902614D01*
X88239173Y-70968421D01*
X88223348Y-71036475D01*
X88173242Y-71085170D01*
X88115375Y-71099500D01*
X87584007Y-71099500D01*
X87516968Y-71079815D01*
X87471213Y-71027011D01*
X87461269Y-70957853D01*
X87483688Y-70902615D01*
X87497387Y-70883759D01*
X87597432Y-70687410D01*
X87665526Y-70477835D01*
X87700000Y-70260181D01*
X87700000Y-70039818D01*
X87665526Y-69822164D01*
X87597432Y-69612589D01*
X87497388Y-69416243D01*
X87451065Y-69352485D01*
X87015846Y-69787704D01*
X87008951Y-69771058D01*
X86921401Y-69640030D01*
X86809970Y-69528599D01*
X86678942Y-69441049D01*
X86662292Y-69434152D01*
X87097513Y-68998932D01*
X87033756Y-68952611D01*
X86837410Y-68852567D01*
X86627835Y-68784473D01*
X86410181Y-68750000D01*
X86189819Y-68750000D01*
X85972164Y-68784473D01*
X85762589Y-68852567D01*
X85566233Y-68952616D01*
X85502485Y-68998931D01*
X85502485Y-68998932D01*
X85937706Y-69434153D01*
X85921058Y-69441049D01*
X85790030Y-69528599D01*
X85678599Y-69640030D01*
X85591049Y-69771058D01*
X85584153Y-69787706D01*
X85148932Y-69352485D01*
X85148931Y-69352485D01*
X85102616Y-69416233D01*
X85002567Y-69612589D01*
X84934473Y-69822164D01*
X84900000Y-70039818D01*
X84900000Y-70260181D01*
X84934473Y-70477835D01*
X85002567Y-70687410D01*
X85102612Y-70883759D01*
X85116312Y-70902615D01*
X85139791Y-70968422D01*
X85123965Y-71036476D01*
X85073859Y-71085170D01*
X85015993Y-71099500D01*
X80585929Y-71099500D01*
X80465102Y-71123535D01*
X80465097Y-71123536D01*
X80460258Y-71124498D01*
X80460257Y-71124498D01*
X80341875Y-71173533D01*
X80341866Y-71173538D01*
X80235331Y-71244723D01*
X80235327Y-71244726D01*
X79816873Y-71663181D01*
X79755550Y-71696666D01*
X79729192Y-71699500D01*
X75934602Y-71699500D01*
X75867563Y-71679815D01*
X75865714Y-71678604D01*
X75858127Y-71673534D01*
X75739744Y-71624499D01*
X75739736Y-71624497D01*
X75614073Y-71599501D01*
X75614069Y-71599501D01*
X75485931Y-71599501D01*
X75485926Y-71599501D01*
X75360263Y-71624497D01*
X75360255Y-71624499D01*
X75241874Y-71673534D01*
X75232474Y-71679815D01*
X75135331Y-71744723D01*
X75044723Y-71835331D01*
X75044721Y-71835333D01*
X74444727Y-72435325D01*
X74444724Y-72435328D01*
X74374955Y-72539747D01*
X74373535Y-72541871D01*
X74373532Y-72541877D01*
X74324500Y-72660251D01*
X74324497Y-72660261D01*
X74299500Y-72785928D01*
X74299500Y-72845064D01*
X74279815Y-72912103D01*
X74278603Y-72913954D01*
X74240608Y-72970817D01*
X74240602Y-72970828D01*
X74180264Y-73116498D01*
X74180261Y-73116510D01*
X74149500Y-73271153D01*
X50500500Y-73271153D01*
X50500500Y-70849697D01*
X50520185Y-70782658D01*
X50572989Y-70736903D01*
X50642147Y-70726959D01*
X50705703Y-70755984D01*
X50726395Y-70780389D01*
X50726821Y-70780081D01*
X50859252Y-70962358D01*
X50859256Y-70962363D01*
X51015136Y-71118243D01*
X51015141Y-71118247D01*
X51118605Y-71193417D01*
X51193478Y-71247815D01*
X51321875Y-71313237D01*
X51389893Y-71347895D01*
X51389896Y-71347896D01*
X51494721Y-71381955D01*
X51599549Y-71416015D01*
X51817278Y-71450500D01*
X51817279Y-71450500D01*
X52037721Y-71450500D01*
X52037722Y-71450500D01*
X52255451Y-71416015D01*
X52465106Y-71347895D01*
X52661522Y-71247815D01*
X52839865Y-71118242D01*
X52995742Y-70962365D01*
X53125315Y-70784022D01*
X53225395Y-70587606D01*
X53293515Y-70377951D01*
X53328000Y-70160222D01*
X53328000Y-69939778D01*
X58827000Y-69939778D01*
X58827000Y-70160222D01*
X58844006Y-70267596D01*
X58861485Y-70377952D01*
X58929603Y-70587603D01*
X58929604Y-70587606D01*
X58980558Y-70687606D01*
X59029549Y-70783756D01*
X59029687Y-70784025D01*
X59159252Y-70962358D01*
X59159256Y-70962363D01*
X59315136Y-71118243D01*
X59315141Y-71118247D01*
X59418605Y-71193417D01*
X59493478Y-71247815D01*
X59621875Y-71313237D01*
X59689893Y-71347895D01*
X59689896Y-71347896D01*
X59794721Y-71381955D01*
X59899549Y-71416015D01*
X60117278Y-71450500D01*
X60117279Y-71450500D01*
X60337721Y-71450500D01*
X60337722Y-71450500D01*
X60555451Y-71416015D01*
X60765106Y-71347895D01*
X60961522Y-71247815D01*
X61139865Y-71118242D01*
X61295742Y-70962365D01*
X61425315Y-70784022D01*
X61525395Y-70587606D01*
X61593515Y-70377951D01*
X61628000Y-70160222D01*
X61628000Y-69939818D01*
X61927500Y-69939818D01*
X61927500Y-70160181D01*
X61961973Y-70377835D01*
X62030067Y-70587410D01*
X62130111Y-70783756D01*
X62176432Y-70847513D01*
X62611652Y-70412292D01*
X62618549Y-70428942D01*
X62706099Y-70559970D01*
X62817530Y-70671401D01*
X62948558Y-70758951D01*
X62965205Y-70765846D01*
X62529985Y-71201065D01*
X62529985Y-71201066D01*
X62593743Y-71247388D01*
X62790089Y-71347432D01*
X62999664Y-71415526D01*
X63217319Y-71450000D01*
X63437681Y-71450000D01*
X63655335Y-71415526D01*
X63864910Y-71347432D01*
X64061260Y-71247386D01*
X64125013Y-71201066D01*
X64125014Y-71201066D01*
X63689794Y-70765846D01*
X63706442Y-70758951D01*
X63837470Y-70671401D01*
X63948901Y-70559970D01*
X64036451Y-70428942D01*
X64043346Y-70412294D01*
X64478566Y-70847514D01*
X64478566Y-70847513D01*
X64524886Y-70783760D01*
X64624932Y-70587410D01*
X64693026Y-70377835D01*
X64727500Y-70160181D01*
X64727500Y-69939818D01*
X64693026Y-69722164D01*
X64624932Y-69512589D01*
X64524888Y-69316243D01*
X64478566Y-69252485D01*
X64478565Y-69252485D01*
X64043346Y-69687704D01*
X64036451Y-69671058D01*
X63948901Y-69540030D01*
X63837470Y-69428599D01*
X63706442Y-69341049D01*
X63689792Y-69334152D01*
X64125013Y-68898932D01*
X64061256Y-68852611D01*
X63864910Y-68752567D01*
X63655335Y-68684473D01*
X63437681Y-68650000D01*
X63217319Y-68650000D01*
X62999664Y-68684473D01*
X62790089Y-68752567D01*
X62593733Y-68852616D01*
X62529985Y-68898931D01*
X62529985Y-68898932D01*
X62965206Y-69334153D01*
X62948558Y-69341049D01*
X62817530Y-69428599D01*
X62706099Y-69540030D01*
X62618549Y-69671058D01*
X62611653Y-69687706D01*
X62176432Y-69252485D01*
X62176431Y-69252485D01*
X62130116Y-69316233D01*
X62030067Y-69512589D01*
X61961973Y-69722164D01*
X61927500Y-69939818D01*
X61628000Y-69939818D01*
X61628000Y-69939778D01*
X61593515Y-69722049D01*
X61557886Y-69612393D01*
X61525396Y-69512396D01*
X61525395Y-69512393D01*
X61476266Y-69415974D01*
X61425315Y-69315978D01*
X61377599Y-69250302D01*
X61295747Y-69137641D01*
X61295743Y-69137636D01*
X61139863Y-68981756D01*
X61139858Y-68981752D01*
X60961525Y-68852187D01*
X60961524Y-68852186D01*
X60961522Y-68852185D01*
X60842352Y-68791464D01*
X60765106Y-68752104D01*
X60765103Y-68752103D01*
X60555452Y-68683985D01*
X60446586Y-68666742D01*
X60337722Y-68649500D01*
X60117278Y-68649500D01*
X60044701Y-68660995D01*
X59899547Y-68683985D01*
X59689896Y-68752103D01*
X59689893Y-68752104D01*
X59493474Y-68852187D01*
X59315141Y-68981752D01*
X59315136Y-68981756D01*
X59159256Y-69137636D01*
X59159252Y-69137641D01*
X59029687Y-69315974D01*
X58929604Y-69512393D01*
X58929603Y-69512396D01*
X58861485Y-69722047D01*
X58845628Y-69822164D01*
X58827000Y-69939778D01*
X53328000Y-69939778D01*
X53293515Y-69722049D01*
X53257886Y-69612393D01*
X53225396Y-69512396D01*
X53225395Y-69512393D01*
X53176266Y-69415974D01*
X53125315Y-69315978D01*
X53077599Y-69250302D01*
X52995747Y-69137641D01*
X52995743Y-69137636D01*
X52839863Y-68981756D01*
X52839858Y-68981752D01*
X52661525Y-68852187D01*
X52661524Y-68852186D01*
X52661522Y-68852185D01*
X52542352Y-68791464D01*
X52465106Y-68752104D01*
X52465103Y-68752103D01*
X52255452Y-68683985D01*
X52146586Y-68666742D01*
X52037722Y-68649500D01*
X51817278Y-68649500D01*
X51744701Y-68660995D01*
X51599547Y-68683985D01*
X51389896Y-68752103D01*
X51389893Y-68752104D01*
X51193474Y-68852187D01*
X51015141Y-68981752D01*
X51015136Y-68981756D01*
X50859256Y-69137636D01*
X50859252Y-69137641D01*
X50726821Y-69319919D01*
X50725752Y-69319142D01*
X50678406Y-69361972D01*
X50609476Y-69373388D01*
X50545315Y-69345726D01*
X50506295Y-69287767D01*
X50500500Y-69250302D01*
X50500500Y-68185928D01*
X67799500Y-68185928D01*
X67799500Y-71928846D01*
X67830261Y-72083489D01*
X67830264Y-72083501D01*
X67890602Y-72229172D01*
X67890609Y-72229185D01*
X67978210Y-72360288D01*
X67978213Y-72360292D01*
X68089707Y-72471786D01*
X68089711Y-72471789D01*
X68220814Y-72559390D01*
X68220827Y-72559397D01*
X68366498Y-72619735D01*
X68366503Y-72619737D01*
X68521153Y-72650499D01*
X68521156Y-72650500D01*
X68521158Y-72650500D01*
X68678844Y-72650500D01*
X68678845Y-72650499D01*
X68833497Y-72619737D01*
X68979179Y-72559394D01*
X69110289Y-72471789D01*
X69221789Y-72360289D01*
X69309394Y-72229179D01*
X69369737Y-72083497D01*
X69400500Y-71928842D01*
X69400500Y-71771158D01*
X69400500Y-71771155D01*
X69400499Y-71771153D01*
X69386246Y-71699500D01*
X69369737Y-71616503D01*
X69328114Y-71516015D01*
X69309397Y-71470827D01*
X69309390Y-71470814D01*
X69221789Y-71339711D01*
X69221786Y-71339707D01*
X69136819Y-71254740D01*
X69103334Y-71193417D01*
X69100500Y-71167059D01*
X69100500Y-68570808D01*
X69120185Y-68503769D01*
X69136819Y-68483127D01*
X69883127Y-67736819D01*
X69944450Y-67703334D01*
X69970808Y-67700500D01*
X94279192Y-67700500D01*
X94346231Y-67720185D01*
X94366873Y-67736819D01*
X96309220Y-69679166D01*
X96342705Y-69740489D01*
X96339472Y-69805160D01*
X96333986Y-69822046D01*
X96333983Y-69822055D01*
X96299500Y-70039778D01*
X96299500Y-70260221D01*
X96333985Y-70477952D01*
X96402103Y-70687603D01*
X96402104Y-70687606D01*
X96450537Y-70782658D01*
X96484695Y-70849697D01*
X96502187Y-70884025D01*
X96631752Y-71062358D01*
X96631756Y-71062363D01*
X96787636Y-71218243D01*
X96787641Y-71218247D01*
X96837870Y-71254740D01*
X96965978Y-71347815D01*
X97094375Y-71413237D01*
X97162393Y-71447895D01*
X97162396Y-71447896D01*
X97267221Y-71481955D01*
X97372049Y-71516015D01*
X97589778Y-71550500D01*
X97589779Y-71550500D01*
X97810221Y-71550500D01*
X97810222Y-71550500D01*
X98027951Y-71516015D01*
X98237606Y-71447895D01*
X98434022Y-71347815D01*
X98612365Y-71218242D01*
X98768242Y-71062365D01*
X98897815Y-70884022D01*
X98997895Y-70687606D01*
X99066015Y-70477951D01*
X99100500Y-70260222D01*
X99100500Y-70039778D01*
X99066015Y-69822049D01*
X99016956Y-69671058D01*
X98997896Y-69612396D01*
X98997895Y-69612393D01*
X98910589Y-69441049D01*
X98897815Y-69415978D01*
X98851685Y-69352485D01*
X98768247Y-69237641D01*
X98768243Y-69237636D01*
X98612363Y-69081756D01*
X98612358Y-69081752D01*
X98434025Y-68952187D01*
X98434024Y-68952186D01*
X98434022Y-68952185D01*
X98371096Y-68920122D01*
X98237606Y-68852104D01*
X98237603Y-68852103D01*
X98027952Y-68783985D01*
X97871591Y-68759220D01*
X97810222Y-68749500D01*
X97589778Y-68749500D01*
X97573337Y-68752104D01*
X97372055Y-68783983D01*
X97372046Y-68783986D01*
X97355160Y-68789472D01*
X97285319Y-68791464D01*
X97229166Y-68759220D01*
X95014674Y-66544727D01*
X95014673Y-66544726D01*
X95014669Y-66544723D01*
X94908127Y-66473535D01*
X94789744Y-66424499D01*
X94789738Y-66424497D01*
X94664071Y-66399500D01*
X94664069Y-66399500D01*
X69585931Y-66399500D01*
X69585929Y-66399500D01*
X69460261Y-66424497D01*
X69460255Y-66424499D01*
X69341870Y-66473535D01*
X69235331Y-66544722D01*
X69235324Y-66544728D01*
X67944726Y-67835326D01*
X67873534Y-67941874D01*
X67824499Y-68060255D01*
X67824497Y-68060261D01*
X67799500Y-68185928D01*
X50500500Y-68185928D01*
X50500500Y-60539778D01*
X53849500Y-60539778D01*
X53849500Y-60760221D01*
X53883985Y-60977952D01*
X53952103Y-61187603D01*
X53952104Y-61187606D01*
X54052187Y-61384025D01*
X54181752Y-61562358D01*
X54181756Y-61562363D01*
X54231928Y-61612535D01*
X54265413Y-61673858D01*
X54260429Y-61743550D01*
X54218557Y-61799483D01*
X54187581Y-61816398D01*
X54107669Y-61846203D01*
X54107664Y-61846206D01*
X53992455Y-61932452D01*
X53992452Y-61932455D01*
X53906206Y-62047664D01*
X53906202Y-62047671D01*
X53855908Y-62182517D01*
X53849501Y-62242116D01*
X53849501Y-62242123D01*
X53849500Y-62242135D01*
X53849500Y-64137870D01*
X53849501Y-64137876D01*
X53855908Y-64197483D01*
X53906202Y-64332328D01*
X53906206Y-64332335D01*
X53992452Y-64447544D01*
X53992455Y-64447547D01*
X54107664Y-64533793D01*
X54107671Y-64533797D01*
X54242517Y-64584091D01*
X54242516Y-64584091D01*
X54249444Y-64584835D01*
X54302127Y-64590500D01*
X56197872Y-64590499D01*
X56257483Y-64584091D01*
X56392331Y-64533796D01*
X56507546Y-64447546D01*
X56593796Y-64332331D01*
X56644091Y-64197483D01*
X56650500Y-64137873D01*
X56650500Y-63964500D01*
X56670185Y-63897461D01*
X56722989Y-63851706D01*
X56774500Y-63840500D01*
X59519192Y-63840500D01*
X59586231Y-63860185D01*
X59606873Y-63876819D01*
X60132984Y-64402930D01*
X60166469Y-64464253D01*
X60166920Y-64466420D01*
X60180261Y-64533489D01*
X60180264Y-64533501D01*
X60240602Y-64679172D01*
X60240609Y-64679185D01*
X60328210Y-64810288D01*
X60328213Y-64810292D01*
X60439707Y-64921786D01*
X60439711Y-64921789D01*
X60570814Y-65009390D01*
X60570827Y-65009397D01*
X60716498Y-65069735D01*
X60716503Y-65069737D01*
X60871153Y-65100499D01*
X60871156Y-65100500D01*
X60871158Y-65100500D01*
X61028844Y-65100500D01*
X61028845Y-65100499D01*
X61183497Y-65069737D01*
X61329179Y-65009394D01*
X61460289Y-64921789D01*
X61571789Y-64810289D01*
X61659394Y-64679179D01*
X61719737Y-64533497D01*
X61750500Y-64378842D01*
X61750500Y-64221158D01*
X61750500Y-64221155D01*
X61750499Y-64221153D01*
X61745791Y-64197483D01*
X61719737Y-64066503D01*
X61719735Y-64066498D01*
X61659397Y-63920827D01*
X61659390Y-63920814D01*
X61571789Y-63789711D01*
X61571786Y-63789707D01*
X61460292Y-63678213D01*
X61460288Y-63678210D01*
X61329185Y-63590609D01*
X61329172Y-63590602D01*
X61183501Y-63530264D01*
X61183489Y-63530261D01*
X61116420Y-63516920D01*
X61054509Y-63484535D01*
X61052930Y-63482984D01*
X60254674Y-62684727D01*
X60254673Y-62684726D01*
X60254669Y-62684723D01*
X60148127Y-62613535D01*
X60029744Y-62564499D01*
X60029738Y-62564497D01*
X59904071Y-62539500D01*
X59904069Y-62539500D01*
X56774499Y-62539500D01*
X56707460Y-62519815D01*
X56661705Y-62467011D01*
X56650499Y-62415500D01*
X56650499Y-62242129D01*
X56650498Y-62242123D01*
X56650497Y-62242116D01*
X56644091Y-62182517D01*
X56593796Y-62047669D01*
X56593795Y-62047668D01*
X56593793Y-62047664D01*
X56507547Y-61932455D01*
X56507544Y-61932452D01*
X56392335Y-61846206D01*
X56392328Y-61846202D01*
X56312419Y-61816398D01*
X56256485Y-61774527D01*
X56232068Y-61709062D01*
X56246920Y-61640789D01*
X56268069Y-61612537D01*
X56318242Y-61562365D01*
X56447815Y-61384022D01*
X56547895Y-61187606D01*
X56616015Y-60977951D01*
X56650500Y-60760222D01*
X56650500Y-60539778D01*
X56616015Y-60322049D01*
X56547895Y-60112394D01*
X56547895Y-60112393D01*
X56513237Y-60044375D01*
X56447815Y-59915978D01*
X56400709Y-59851142D01*
X56318247Y-59737641D01*
X56318243Y-59737636D01*
X56162363Y-59581756D01*
X56162358Y-59581752D01*
X55984025Y-59452187D01*
X55984024Y-59452186D01*
X55984022Y-59452185D01*
X55921096Y-59420122D01*
X55787606Y-59352104D01*
X55787603Y-59352103D01*
X55577952Y-59283985D01*
X55428549Y-59260322D01*
X55360222Y-59249500D01*
X55139778Y-59249500D01*
X55071451Y-59260322D01*
X54922047Y-59283985D01*
X54712396Y-59352103D01*
X54712393Y-59352104D01*
X54515974Y-59452187D01*
X54337641Y-59581752D01*
X54337636Y-59581756D01*
X54181756Y-59737636D01*
X54181752Y-59737641D01*
X54052187Y-59915974D01*
X53952104Y-60112393D01*
X53952103Y-60112396D01*
X53883985Y-60322047D01*
X53849500Y-60539778D01*
X50500500Y-60539778D01*
X50500500Y-57031386D01*
X59049500Y-57031386D01*
X59049500Y-58968613D01*
X59049501Y-58968652D01*
X59052295Y-59021243D01*
X59052295Y-59021244D01*
X59096754Y-59251120D01*
X59096755Y-59251126D01*
X59134863Y-59352105D01*
X59179425Y-59470189D01*
X59297929Y-59672131D01*
X59297934Y-59672138D01*
X59448856Y-59851141D01*
X59448858Y-59851143D01*
X59627861Y-60002065D01*
X59627868Y-60002070D01*
X59829810Y-60120574D01*
X60048874Y-60203245D01*
X60278759Y-60247705D01*
X60331378Y-60250500D01*
X60331386Y-60250500D01*
X62268614Y-60250500D01*
X62268622Y-60250500D01*
X62321241Y-60247705D01*
X62551126Y-60203245D01*
X62770190Y-60120574D01*
X62972132Y-60002070D01*
X62972138Y-60002065D01*
X63151141Y-59851143D01*
X63151143Y-59851141D01*
X63302065Y-59672138D01*
X63302065Y-59672137D01*
X63302070Y-59672132D01*
X63420574Y-59470190D01*
X63503245Y-59251126D01*
X63503456Y-59250031D01*
X63503756Y-59248485D01*
X63504281Y-59247467D01*
X63504683Y-59246050D01*
X63504971Y-59246131D01*
X63535812Y-59186403D01*
X63596343Y-59151507D01*
X63666131Y-59154876D01*
X63723019Y-59195440D01*
X63748946Y-59260322D01*
X63749500Y-59272030D01*
X63749500Y-62797870D01*
X63749501Y-62797876D01*
X63755908Y-62857483D01*
X63806202Y-62992328D01*
X63806206Y-62992335D01*
X63892452Y-63107544D01*
X63892455Y-63107547D01*
X64007664Y-63193793D01*
X64007671Y-63193797D01*
X64142517Y-63244091D01*
X64142516Y-63244091D01*
X64149444Y-63244835D01*
X64202127Y-63250500D01*
X67797872Y-63250499D01*
X67857483Y-63244091D01*
X67992331Y-63193796D01*
X68107546Y-63107546D01*
X68193796Y-62992331D01*
X68244091Y-62857483D01*
X68250500Y-62797873D01*
X68250499Y-59202128D01*
X68244091Y-59142517D01*
X68232288Y-59110872D01*
X68193797Y-59007671D01*
X68193793Y-59007664D01*
X68107547Y-58892455D01*
X68107544Y-58892452D01*
X67992335Y-58806206D01*
X67992328Y-58806202D01*
X67857482Y-58755908D01*
X67857483Y-58755908D01*
X67797883Y-58749501D01*
X67797881Y-58749500D01*
X67797873Y-58749500D01*
X67797864Y-58749500D01*
X64202129Y-58749500D01*
X64202123Y-58749501D01*
X64142516Y-58755908D01*
X64007671Y-58806202D01*
X64007664Y-58806206D01*
X63892455Y-58892452D01*
X63892452Y-58892455D01*
X63806206Y-59007664D01*
X63806203Y-59007669D01*
X63788573Y-59054939D01*
X63746701Y-59110872D01*
X63681237Y-59135289D01*
X63612964Y-59120437D01*
X63563559Y-59071032D01*
X63548566Y-59005025D01*
X63550499Y-58968650D01*
X63550500Y-58968613D01*
X63550500Y-57031386D01*
X63550498Y-57031347D01*
X63548833Y-56999998D01*
X63547705Y-56978759D01*
X63503245Y-56748874D01*
X63420574Y-56529810D01*
X63302070Y-56327868D01*
X63302065Y-56327861D01*
X63151143Y-56148858D01*
X63151141Y-56148856D01*
X62972138Y-55997934D01*
X62972131Y-55997929D01*
X62770189Y-55879425D01*
X62679832Y-55845326D01*
X62551126Y-55796755D01*
X62551121Y-55796754D01*
X62321243Y-55752295D01*
X62268652Y-55749501D01*
X62268629Y-55749500D01*
X62268622Y-55749500D01*
X60331378Y-55749500D01*
X60331370Y-55749500D01*
X60331347Y-55749501D01*
X60278756Y-55752295D01*
X60278755Y-55752295D01*
X60048878Y-55796754D01*
X60048876Y-55796754D01*
X60048874Y-55796755D01*
X60002656Y-55814197D01*
X59829810Y-55879425D01*
X59627868Y-55997929D01*
X59627861Y-55997934D01*
X59448858Y-56148856D01*
X59448856Y-56148858D01*
X59297934Y-56327861D01*
X59297929Y-56327868D01*
X59179425Y-56529810D01*
X59129079Y-56663222D01*
X59096755Y-56748874D01*
X59096754Y-56748876D01*
X59096754Y-56748878D01*
X59052295Y-56978755D01*
X59052295Y-56978756D01*
X59049501Y-57031347D01*
X59049500Y-57031386D01*
X50500500Y-57031386D01*
X50500500Y-54878711D01*
X53149500Y-54878711D01*
X53149500Y-55121288D01*
X53181161Y-55361785D01*
X53243947Y-55596104D01*
X53336773Y-55820205D01*
X53336776Y-55820212D01*
X53458064Y-56030289D01*
X53458066Y-56030292D01*
X53458067Y-56030293D01*
X53605733Y-56222736D01*
X53605739Y-56222743D01*
X53777256Y-56394260D01*
X53777262Y-56394265D01*
X53969711Y-56541936D01*
X54179788Y-56663224D01*
X54375269Y-56744195D01*
X54386575Y-56748878D01*
X54403900Y-56756054D01*
X54638211Y-56818838D01*
X54810866Y-56841568D01*
X54878711Y-56850500D01*
X54878712Y-56850500D01*
X55121289Y-56850500D01*
X55169388Y-56844167D01*
X55361789Y-56818838D01*
X55596100Y-56756054D01*
X55820212Y-56663224D01*
X56030289Y-56541936D01*
X56222738Y-56394265D01*
X56394265Y-56222738D01*
X56541936Y-56030289D01*
X56663224Y-55820212D01*
X56756054Y-55596100D01*
X56818838Y-55361789D01*
X56850500Y-55121288D01*
X56850500Y-54878712D01*
X56847871Y-54858746D01*
X56833555Y-54750000D01*
X56818838Y-54638211D01*
X56756054Y-54403900D01*
X56669027Y-54193797D01*
X56665716Y-54185803D01*
X63750000Y-54185803D01*
X63750000Y-54750000D01*
X64566988Y-54750000D01*
X64534075Y-54807007D01*
X64500000Y-54934174D01*
X64500000Y-55065826D01*
X64534075Y-55192993D01*
X64566988Y-55250000D01*
X63750001Y-55250000D01*
X63750001Y-55814197D01*
X63760400Y-55946332D01*
X63815377Y-56164519D01*
X63908428Y-56369374D01*
X63908431Y-56369380D01*
X64036559Y-56554323D01*
X64036569Y-56554335D01*
X64195664Y-56713430D01*
X64195676Y-56713440D01*
X64380619Y-56841568D01*
X64380625Y-56841571D01*
X64585480Y-56934622D01*
X64803667Y-56989599D01*
X64935810Y-56999999D01*
X65749999Y-56999999D01*
X65750000Y-56999998D01*
X65750000Y-55500000D01*
X66250000Y-55500000D01*
X66250000Y-56999999D01*
X67064182Y-56999999D01*
X67064197Y-56999998D01*
X67196332Y-56989599D01*
X67414519Y-56934622D01*
X67619374Y-56841571D01*
X67619380Y-56841568D01*
X67804323Y-56713440D01*
X67804335Y-56713430D01*
X67963430Y-56554335D01*
X67963440Y-56554323D01*
X68091568Y-56369380D01*
X68091571Y-56369374D01*
X68184622Y-56164519D01*
X68239599Y-55946332D01*
X68249999Y-55814196D01*
X68250000Y-55814184D01*
X68250000Y-55250000D01*
X67433012Y-55250000D01*
X67465925Y-55192993D01*
X67500000Y-55065826D01*
X67500000Y-54934174D01*
X67485138Y-54878711D01*
X93149500Y-54878711D01*
X93149500Y-55121288D01*
X93181161Y-55361785D01*
X93243947Y-55596104D01*
X93336773Y-55820205D01*
X93336776Y-55820212D01*
X93458064Y-56030289D01*
X93458066Y-56030292D01*
X93458067Y-56030293D01*
X93605733Y-56222736D01*
X93605739Y-56222743D01*
X93777256Y-56394260D01*
X93777262Y-56394265D01*
X93969711Y-56541936D01*
X94179788Y-56663224D01*
X94375269Y-56744195D01*
X94386575Y-56748878D01*
X94403900Y-56756054D01*
X94638211Y-56818838D01*
X94810866Y-56841568D01*
X94878711Y-56850500D01*
X94878712Y-56850500D01*
X95121289Y-56850500D01*
X95169388Y-56844167D01*
X95361789Y-56818838D01*
X95596100Y-56756054D01*
X95820212Y-56663224D01*
X96030289Y-56541936D01*
X96222738Y-56394265D01*
X96394265Y-56222738D01*
X96541936Y-56030289D01*
X96663224Y-55820212D01*
X96756054Y-55596100D01*
X96818838Y-55361789D01*
X96850500Y-55121288D01*
X96850500Y-54878712D01*
X96847871Y-54858746D01*
X96833555Y-54750000D01*
X96818838Y-54638211D01*
X96756054Y-54403900D01*
X96663224Y-54179788D01*
X96541936Y-53969711D01*
X96410083Y-53797876D01*
X96394266Y-53777263D01*
X96394260Y-53777256D01*
X96222743Y-53605739D01*
X96222736Y-53605733D01*
X96030293Y-53458067D01*
X96030292Y-53458066D01*
X96030289Y-53458064D01*
X95820212Y-53336776D01*
X95820205Y-53336773D01*
X95596104Y-53243947D01*
X95361785Y-53181161D01*
X95121289Y-53149500D01*
X95121288Y-53149500D01*
X94878712Y-53149500D01*
X94878711Y-53149500D01*
X94638214Y-53181161D01*
X94403895Y-53243947D01*
X94179794Y-53336773D01*
X94179785Y-53336777D01*
X93969706Y-53458067D01*
X93777263Y-53605733D01*
X93777256Y-53605739D01*
X93605739Y-53777256D01*
X93605733Y-53777263D01*
X93458067Y-53969706D01*
X93336777Y-54179785D01*
X93336773Y-54179794D01*
X93243947Y-54403895D01*
X93181161Y-54638214D01*
X93149500Y-54878711D01*
X67485138Y-54878711D01*
X67465925Y-54807007D01*
X67433012Y-54750000D01*
X68249999Y-54750000D01*
X68249999Y-54185817D01*
X68249998Y-54185802D01*
X68239599Y-54053667D01*
X68184622Y-53835480D01*
X68091571Y-53630625D01*
X68091568Y-53630619D01*
X67963440Y-53445676D01*
X67963430Y-53445664D01*
X67804335Y-53286569D01*
X67804323Y-53286559D01*
X67619380Y-53158431D01*
X67619374Y-53158428D01*
X67414519Y-53065377D01*
X67196332Y-53010400D01*
X67064196Y-53000000D01*
X66250000Y-53000000D01*
X66250000Y-54500000D01*
X65750000Y-54500000D01*
X65750000Y-53000000D01*
X64935817Y-53000000D01*
X64935802Y-53000001D01*
X64803667Y-53010400D01*
X64585480Y-53065377D01*
X64380625Y-53158428D01*
X64380619Y-53158431D01*
X64195676Y-53286559D01*
X64195664Y-53286569D01*
X64036569Y-53445664D01*
X64036559Y-53445676D01*
X63908431Y-53630619D01*
X63908428Y-53630625D01*
X63815377Y-53835480D01*
X63760400Y-54053667D01*
X63750000Y-54185803D01*
X56665716Y-54185803D01*
X56663229Y-54179799D01*
X56663226Y-54179793D01*
X56663224Y-54179788D01*
X56541936Y-53969711D01*
X56410083Y-53797876D01*
X56394266Y-53777263D01*
X56394260Y-53777256D01*
X56222743Y-53605739D01*
X56222736Y-53605733D01*
X56030293Y-53458067D01*
X56030292Y-53458066D01*
X56030289Y-53458064D01*
X55820212Y-53336776D01*
X55820205Y-53336773D01*
X55596104Y-53243947D01*
X55361785Y-53181161D01*
X55121289Y-53149500D01*
X55121288Y-53149500D01*
X54878712Y-53149500D01*
X54878711Y-53149500D01*
X54638214Y-53181161D01*
X54403895Y-53243947D01*
X54179794Y-53336773D01*
X54179785Y-53336777D01*
X53969706Y-53458067D01*
X53777263Y-53605733D01*
X53777256Y-53605739D01*
X53605739Y-53777256D01*
X53605733Y-53777263D01*
X53458067Y-53969706D01*
X53336777Y-54179785D01*
X53336773Y-54179794D01*
X53243947Y-54403895D01*
X53181161Y-54638214D01*
X53149500Y-54878711D01*
X50500500Y-54878711D01*
X50500500Y-54860838D01*
X50500570Y-54856666D01*
X50505687Y-54704673D01*
X50506397Y-54694961D01*
X50506681Y-54692440D01*
X50550795Y-54300926D01*
X50552528Y-54289976D01*
X50631370Y-53904916D01*
X50634080Y-53894165D01*
X50747122Y-53517718D01*
X50750780Y-53507263D01*
X50897110Y-53142465D01*
X50901691Y-53132379D01*
X51080130Y-52782176D01*
X51085619Y-52772503D01*
X51085620Y-52772502D01*
X51294717Y-52439723D01*
X51301032Y-52430608D01*
X51474991Y-52202135D01*
X74669500Y-52202135D01*
X74669500Y-53797870D01*
X74669501Y-53797876D01*
X74675908Y-53857483D01*
X74726202Y-53992328D01*
X74726206Y-53992335D01*
X74812452Y-54107544D01*
X74812455Y-54107547D01*
X74927664Y-54193793D01*
X74927671Y-54193797D01*
X75062517Y-54244091D01*
X75062516Y-54244091D01*
X75069444Y-54244835D01*
X75122127Y-54250500D01*
X76717872Y-54250499D01*
X76777483Y-54244091D01*
X76912331Y-54193796D01*
X77027546Y-54107546D01*
X77090734Y-54023136D01*
X77146667Y-53981267D01*
X77216359Y-53976283D01*
X77277682Y-54009768D01*
X77289260Y-54023130D01*
X77352454Y-54107546D01*
X77394016Y-54138659D01*
X77467664Y-54193793D01*
X77467671Y-54193797D01*
X77602517Y-54244091D01*
X77602516Y-54244091D01*
X77609444Y-54244835D01*
X77662127Y-54250500D01*
X79257872Y-54250499D01*
X79317483Y-54244091D01*
X79452331Y-54193796D01*
X79567546Y-54107546D01*
X79630734Y-54023136D01*
X79686667Y-53981267D01*
X79756359Y-53976283D01*
X79817682Y-54009768D01*
X79829260Y-54023130D01*
X79892454Y-54107546D01*
X79934016Y-54138659D01*
X80007664Y-54193793D01*
X80007671Y-54193797D01*
X80142517Y-54244091D01*
X80142516Y-54244091D01*
X80149444Y-54244835D01*
X80202127Y-54250500D01*
X81797872Y-54250499D01*
X81857483Y-54244091D01*
X81992331Y-54193796D01*
X82107546Y-54107546D01*
X82193796Y-53992331D01*
X82244091Y-53857483D01*
X82250500Y-53797873D01*
X82250499Y-52202128D01*
X82244091Y-52142517D01*
X82237068Y-52123688D01*
X82193797Y-52007671D01*
X82193793Y-52007664D01*
X82107547Y-51892455D01*
X82107544Y-51892452D01*
X81992335Y-51806206D01*
X81992328Y-51806202D01*
X81857482Y-51755908D01*
X81857483Y-51755908D01*
X81797883Y-51749501D01*
X81797881Y-51749500D01*
X81797873Y-51749500D01*
X81797864Y-51749500D01*
X80202129Y-51749500D01*
X80202123Y-51749501D01*
X80142516Y-51755908D01*
X80007671Y-51806202D01*
X80007664Y-51806206D01*
X79892455Y-51892452D01*
X79892452Y-51892455D01*
X79829266Y-51976861D01*
X79773332Y-52018732D01*
X79703641Y-52023716D01*
X79642318Y-51990230D01*
X79630734Y-51976861D01*
X79567547Y-51892455D01*
X79567544Y-51892452D01*
X79452335Y-51806206D01*
X79452328Y-51806202D01*
X79317482Y-51755908D01*
X79317483Y-51755908D01*
X79257883Y-51749501D01*
X79257881Y-51749500D01*
X79257873Y-51749500D01*
X79257864Y-51749500D01*
X77662129Y-51749500D01*
X77662123Y-51749501D01*
X77602516Y-51755908D01*
X77467671Y-51806202D01*
X77467664Y-51806206D01*
X77352455Y-51892452D01*
X77352452Y-51892455D01*
X77289266Y-51976861D01*
X77233332Y-52018732D01*
X77163641Y-52023716D01*
X77102318Y-51990230D01*
X77090734Y-51976861D01*
X77027547Y-51892455D01*
X77027544Y-51892452D01*
X76912335Y-51806206D01*
X76912328Y-51806202D01*
X76777482Y-51755908D01*
X76777483Y-51755908D01*
X76717883Y-51749501D01*
X76717881Y-51749500D01*
X76717873Y-51749500D01*
X76717864Y-51749500D01*
X75122129Y-51749500D01*
X75122123Y-51749501D01*
X75062516Y-51755908D01*
X74927671Y-51806202D01*
X74927664Y-51806206D01*
X74812455Y-51892452D01*
X74812452Y-51892455D01*
X74726206Y-52007664D01*
X74726202Y-52007671D01*
X74675908Y-52142517D01*
X74669501Y-52202116D01*
X74669501Y-52202123D01*
X74669500Y-52202135D01*
X51474991Y-52202135D01*
X51539141Y-52117883D01*
X51546241Y-52109379D01*
X51811422Y-51819259D01*
X51819259Y-51811422D01*
X52109379Y-51546242D01*
X52117896Y-51539132D01*
X52430592Y-51301044D01*
X52439722Y-51294718D01*
X52772506Y-51085616D01*
X52782179Y-51080128D01*
X52817063Y-51062354D01*
X53132364Y-50901699D01*
X53142492Y-50897100D01*
X53340694Y-50817596D01*
X53507246Y-50750787D01*
X53517733Y-50747117D01*
X53894170Y-50634078D01*
X53904916Y-50631370D01*
X54289979Y-50552528D01*
X54300926Y-50550795D01*
X54694962Y-50506397D01*
X54704662Y-50505688D01*
X54856659Y-50500569D01*
X54860832Y-50500500D01*
X95139160Y-50500500D01*
X95143332Y-50500570D01*
G37*
%TD.AperFunction*%
%TD*%
M02*
