%TF.GenerationSoftware,KiCad,Pcbnew,10.0.0*%
%TF.CreationDate,2026-06-22T23:18:36-04:00*%
%TF.ProjectId,parla-v0-revB,7061726c-612d-4763-902d-726576422e6b,rev?*%
%TF.SameCoordinates,Original*%
%TF.FileFunction,Copper,L1,Top*%
%TF.FilePolarity,Positive*%
%FSLAX46Y46*%
G04 Gerber Fmt 4.6, Leading zero omitted, Abs format (unit mm)*
G04 Created by KiCad (PCBNEW 10.0.0) date 2026-06-22 23:18:36*
%MOMM*%
%LPD*%
G01*
G04 APERTURE LIST*
G04 Aperture macros list*
%AMRoundRect*
0 Rectangle with rounded corners*
0 $1 Rounding radius*
0 $2 $3 $4 $5 $6 $7 $8 $9 X,Y pos of 4 corners*
0 Add a 4 corners polygon primitive as box body*
4,1,4,$2,$3,$4,$5,$6,$7,$8,$9,$2,$3,0*
0 Add four circle primitives for the rounded corners*
1,1,$1+$1,$2,$3*
1,1,$1+$1,$4,$5*
1,1,$1+$1,$6,$7*
1,1,$1+$1,$8,$9*
0 Add four rect primitives between the rounded corners*
20,1,$1+$1,$2,$3,$4,$5,0*
20,1,$1+$1,$4,$5,$6,$7,0*
20,1,$1+$1,$6,$7,$8,$9,0*
20,1,$1+$1,$8,$9,$2,$3,0*%
G04 Aperture macros list end*
%TA.AperFunction,ComponentPad*%
%ADD10C,1.800000*%
%TD*%
%TA.AperFunction,SMDPad,CuDef*%
%ADD11RoundRect,0.250000X-0.550000X1.075000X-0.550000X-1.075000X0.550000X-1.075000X0.550000X1.075000X0*%
%TD*%
%TA.AperFunction,SMDPad,CuDef*%
%ADD12RoundRect,0.250000X-0.350000X-0.450000X0.350000X-0.450000X0.350000X0.450000X-0.350000X0.450000X0*%
%TD*%
%TA.AperFunction,ComponentPad*%
%ADD13R,3.500000X3.500000*%
%TD*%
%TA.AperFunction,ComponentPad*%
%ADD14RoundRect,0.750000X-1.000000X0.750000X-1.000000X-0.750000X1.000000X-0.750000X1.000000X0.750000X0*%
%TD*%
%TA.AperFunction,ComponentPad*%
%ADD15RoundRect,0.875000X-0.875000X0.875000X-0.875000X-0.875000X0.875000X-0.875000X0.875000X0.875000X0*%
%TD*%
%TA.AperFunction,SMDPad,CuDef*%
%ADD16RoundRect,0.250000X0.350000X-0.850000X0.350000X0.850000X-0.350000X0.850000X-0.350000X-0.850000X0*%
%TD*%
%TA.AperFunction,SMDPad,CuDef*%
%ADD17RoundRect,0.249997X2.650003X-2.950003X2.650003X2.950003X-2.650003X2.950003X-2.650003X-2.950003X0*%
%TD*%
%TA.AperFunction,SMDPad,CuDef*%
%ADD18RoundRect,0.250000X0.475000X-0.337500X0.475000X0.337500X-0.475000X0.337500X-0.475000X-0.337500X0*%
%TD*%
%TA.AperFunction,SMDPad,CuDef*%
%ADD19RoundRect,0.250000X-0.550000X1.500000X-0.550000X-1.500000X0.550000X-1.500000X0.550000X1.500000X0*%
%TD*%
%TA.AperFunction,SMDPad,CuDef*%
%ADD20RoundRect,0.250000X0.450000X-0.350000X0.450000X0.350000X-0.450000X0.350000X-0.450000X-0.350000X0*%
%TD*%
%TA.AperFunction,ComponentPad*%
%ADD21C,4.400000*%
%TD*%
%TA.AperFunction,SMDPad,CuDef*%
%ADD22RoundRect,0.250000X-0.450000X0.350000X-0.450000X-0.350000X0.450000X-0.350000X0.450000X0.350000X0*%
%TD*%
%TA.AperFunction,SMDPad,CuDef*%
%ADD23RoundRect,0.250000X-0.550000X1.050000X-0.550000X-1.050000X0.550000X-1.050000X0.550000X1.050000X0*%
%TD*%
%TA.AperFunction,ComponentPad*%
%ADD24R,1.800000X1.800000*%
%TD*%
%TA.AperFunction,SMDPad,CuDef*%
%ADD25RoundRect,0.250000X0.250000X-0.250000X0.250000X0.250000X-0.250000X0.250000X-0.250000X-0.250000X0*%
%TD*%
%TA.AperFunction,SMDPad,CuDef*%
%ADD26RoundRect,0.162500X-0.750000X-0.162500X0.750000X-0.162500X0.750000X0.162500X-0.750000X0.162500X0*%
%TD*%
%TA.AperFunction,SMDPad,CuDef*%
%ADD27RoundRect,0.250000X-0.475000X0.337500X-0.475000X-0.337500X0.475000X-0.337500X0.475000X0.337500X0*%
%TD*%
%TA.AperFunction,ComponentPad*%
%ADD28R,1.500000X1.500000*%
%TD*%
%TA.AperFunction,SMDPad,CuDef*%
%ADD29RoundRect,0.250000X-0.550000X1.250000X-0.550000X-1.250000X0.550000X-1.250000X0.550000X1.250000X0*%
%TD*%
%TA.AperFunction,ViaPad*%
%ADD30C,0.600000*%
%TD*%
%TA.AperFunction,Conductor*%
%ADD31C,0.300000*%
%TD*%
%TA.AperFunction,Conductor*%
%ADD32C,0.500000*%
%TD*%
%TA.AperFunction,Conductor*%
%ADD33C,0.200000*%
%TD*%
G04 APERTURE END LIST*
D10*
%TO.P,J1,S*%
%TO.N,GND*%
X86300000Y-70150000D03*
%TO.P,J1,T*%
%TO.N,Net-(U1-LOUT+)*%
X97700000Y-70150000D03*
%TO.P,J1,TN*%
%TO.N,unconnected-(J1-PadTN)*%
X89400000Y-70150000D03*
%TD*%
D11*
%TO.P,C1,1*%
%TO.N,Net-(C1-Pad1)*%
X54850000Y-86100000D03*
%TO.P,C1,2*%
%TO.N,Net-(C1-Pad2)*%
X54850000Y-89450000D03*
%TD*%
D10*
%TO.P,J3,S*%
%TO.N,GND*%
X63327500Y-70050000D03*
%TO.P,J3,T*%
%TO.N,Net-(J3-PadT)*%
X51927500Y-70050000D03*
%TO.P,J3,TN*%
%TO.N,unconnected-(J3-PadTN)*%
X60227500Y-70050000D03*
%TD*%
D12*
%TO.P,R3,1*%
%TO.N,Net-(C1-Pad2)*%
X63100000Y-83200000D03*
%TO.P,R3,2*%
%TO.N,Net-(U1-INL)*%
X65100000Y-83200000D03*
%TD*%
D13*
%TO.P,J5,1*%
%TO.N,Net-(SW3-A)*%
X66000000Y-61000000D03*
D14*
%TO.P,J5,2*%
%TO.N,GND*%
X66000000Y-55000000D03*
D15*
%TO.P,J5,3*%
%TO.N,unconnected-(J5-Pad3)*%
X61300000Y-58000000D03*
%TD*%
D16*
%TO.P,U2,1,IN_1*%
%TO.N,+12V*%
X84790000Y-60950000D03*
D17*
%TO.P,U2,2,GND_2*%
%TO.N,GND*%
X87070000Y-54650000D03*
D16*
%TO.P,U2,3,OUT_3*%
%TO.N,+5V*%
X89350000Y-60950000D03*
%TD*%
D18*
%TO.P,C3,1*%
%TO.N,Net-(U1-VREF)*%
X68300000Y-82237500D03*
%TO.P,C3,2*%
%TO.N,GND*%
X68300000Y-80162500D03*
%TD*%
D19*
%TO.P,C8,1*%
%TO.N,+5V*%
X79050000Y-64450000D03*
%TO.P,C8,2*%
%TO.N,GND*%
X79050000Y-69850000D03*
%TD*%
D20*
%TO.P,R5,1*%
%TO.N,GND*%
X64750000Y-66650000D03*
%TO.P,R5,2*%
%TO.N,Net-(D8-K)*%
X64750000Y-64650000D03*
%TD*%
D10*
%TO.P,RV1,1,1_1*%
%TO.N,Net-(J3-PadT)*%
X70100000Y-98000000D03*
%TO.P,RV1,2,2_2*%
%TO.N,Net-(C1-Pad1)*%
X67600000Y-98000000D03*
%TO.P,RV1,3,3_3*%
%TO.N,GND*%
X65100000Y-98000000D03*
D21*
%TO.P,RV1,MP*%
%TO.N,N/C*%
X63200000Y-91000000D03*
X72000000Y-91000000D03*
%TD*%
D18*
%TO.P,C10,1*%
%TO.N,+5V*%
X77900000Y-60625000D03*
%TO.P,C10,2*%
%TO.N,GND*%
X77900000Y-58550000D03*
%TD*%
D10*
%TO.P,RV2,1,1_1*%
%TO.N,Net-(J4-PadT)*%
X85124486Y-97965964D03*
%TO.P,RV2,2,2_2*%
%TO.N,Net-(C2-Pad1)*%
X82624486Y-97965964D03*
%TO.P,RV2,3,3_3*%
%TO.N,GND*%
X80124486Y-97965964D03*
D21*
%TO.P,RV2,MP*%
%TO.N,N/C*%
X78224486Y-90965964D03*
X87024486Y-90965964D03*
%TD*%
D10*
%TO.P,J2,S*%
%TO.N,GND*%
X86300000Y-79600000D03*
%TO.P,J2,T*%
%TO.N,Net-(U1-ROUT+)*%
X97700000Y-79600000D03*
%TO.P,J2,TN*%
%TO.N,unconnected-(J2-PadTN)*%
X89400000Y-79600000D03*
%TD*%
D22*
%TO.P,R4,1*%
%TO.N,Net-(C2-Pad2)*%
X90650000Y-85600000D03*
%TO.P,R4,2*%
%TO.N,Net-(U1-INR)*%
X90650000Y-87600000D03*
%TD*%
D23*
%TO.P,C9,1*%
%TO.N,+5V*%
X82400000Y-79200000D03*
%TO.P,C9,2*%
%TO.N,GND*%
X82400000Y-82800000D03*
%TD*%
D24*
%TO.P,D8,1,K_1*%
%TO.N,Net-(D8-K)*%
X55250000Y-63190000D03*
D10*
%TO.P,D8,2,A_2*%
%TO.N,+5V*%
X55250000Y-60650000D03*
%TD*%
D25*
%TO.P,D1,1,K_1*%
%TO.N,+12V*%
X74000000Y-59150000D03*
%TO.P,D1,2,A_2*%
%TO.N,Net-(D1-A)*%
X74000000Y-56650000D03*
%TD*%
D26*
%TO.P,U1,1,LOUT+_1*%
%TO.N,Net-(U1-LOUT+)*%
X71825000Y-73380000D03*
%TO.P,U1,2,PGND_2*%
%TO.N,GND*%
X71825000Y-74650000D03*
%TO.P,U1,3,LOUT-_3*%
X71825000Y-75920000D03*
%TO.P,U1,4,PVDD_4*%
%TO.N,+5V*%
X71825000Y-77190000D03*
%TO.P,U1,5,~{MUTE}_5*%
%TO.N,unconnected-(U1-~{MUTE}-Pad5)*%
X71825000Y-78460000D03*
%TO.P,U1,6,VDD_6*%
%TO.N,+5V*%
X71825000Y-79730000D03*
%TO.P,U1,7,INL_7*%
%TO.N,Net-(U1-INL)*%
X71825000Y-81000000D03*
%TO.P,U1,8,VREF_8*%
%TO.N,Net-(U1-VREF)*%
X71825000Y-82270000D03*
%TO.P,U1,9,NC_9*%
%TO.N,unconnected-(U1-NC-Pad9)*%
X78000000Y-82270000D03*
%TO.P,U1,10,INR_10*%
%TO.N,Net-(U1-INR)*%
X78000000Y-81000000D03*
%TO.P,U1,11,GND_11*%
%TO.N,GND*%
X78000000Y-79730000D03*
%TO.P,U1,12,~{SHDN}_12*%
%TO.N,unconnected-(U1-~{SHDN}-Pad12)*%
X78000000Y-78460000D03*
%TO.P,U1,13,PVDD_13*%
%TO.N,+5V*%
X78000000Y-77190000D03*
%TO.P,U1,14,ROUT-_14*%
%TO.N,GND*%
X78000000Y-75920000D03*
%TO.P,U1,15,PGND_15*%
X78000000Y-74650000D03*
%TO.P,U1,16,ROUT+_16*%
%TO.N,Net-(U1-ROUT+)*%
X78000000Y-73380000D03*
%TD*%
D27*
%TO.P,C5,1*%
%TO.N,GND*%
X81300000Y-73775000D03*
%TO.P,C5,2*%
%TO.N,+5V*%
X81300000Y-75850000D03*
%TD*%
%TO.P,C6,1*%
%TO.N,GND*%
X85100000Y-73775000D03*
%TO.P,C6,2*%
%TO.N,+5V*%
X85100000Y-75850000D03*
%TD*%
D11*
%TO.P,C2,1*%
%TO.N,Net-(C2-Pad1)*%
X95100000Y-86250000D03*
%TO.P,C2,2*%
%TO.N,Net-(C2-Pad2)*%
X95100000Y-89600000D03*
%TD*%
D28*
%TO.P,SW3,1,A_1*%
%TO.N,Net-(SW3-A)*%
X75920000Y-53000000D03*
%TO.P,SW3,2,B_2*%
%TO.N,Net-(D1-A)*%
X78460000Y-53000000D03*
%TO.P,SW3,3,C_3*%
%TO.N,unconnected-(SW3-C-Pad3)*%
X81000000Y-53000000D03*
%TD*%
D27*
%TO.P,C4,1*%
%TO.N,GND*%
X68300000Y-74800000D03*
%TO.P,C4,2*%
%TO.N,+5V*%
X68300000Y-76875000D03*
%TD*%
D29*
%TO.P,C7,1*%
%TO.N,+12V*%
X71800000Y-64950000D03*
%TO.P,C7,2*%
%TO.N,GND*%
X71800000Y-69350000D03*
%TD*%
D10*
%TO.P,J4,S*%
%TO.N,GND*%
X63300000Y-79450000D03*
%TO.P,J4,T*%
%TO.N,Net-(J4-PadT)*%
X51900000Y-79450000D03*
%TO.P,J4,TN*%
%TO.N,unconnected-(J4-PadTN)*%
X60200000Y-79450000D03*
%TD*%
D30*
%TO.N,Net-(U1-LOUT+)*%
X68600000Y-71850000D03*
%TO.N,Net-(C1-Pad2)*%
X58850000Y-82500000D03*
X56900000Y-82500000D03*
%TO.N,Net-(D8-K)*%
X60950000Y-64300000D03*
%TO.N,Net-(U1-ROUT+)*%
X74950000Y-73350000D03*
%TO.N,Net-(U1-INR)*%
X81500000Y-87750000D03*
X88250000Y-87500000D03*
%TD*%
%TO.N,Net-(U1-LOUT+)*%
D31*
X70130000Y-73380000D02*
X71825000Y-73380000D01*
X68600000Y-71850000D02*
X70130000Y-73380000D01*
%TO.N,Net-(C1-Pad1)*%
X62100000Y-96100000D02*
X65700000Y-96100000D01*
X56450000Y-86400000D02*
X56450000Y-90950000D01*
X65700000Y-96100000D02*
X67600000Y-98000000D01*
X56150000Y-86100000D02*
X56450000Y-86400000D01*
X61600000Y-96100000D02*
X62100000Y-96100000D01*
X54850000Y-86100000D02*
X56150000Y-86100000D01*
X56450000Y-90950000D02*
X61600000Y-96100000D01*
%TO.N,Net-(C1-Pad2)*%
X58850000Y-82500000D02*
X59350000Y-82500000D01*
X54850000Y-89450000D02*
X53350000Y-89450000D01*
X52750000Y-88850000D02*
X52750000Y-83750000D01*
X53350000Y-89450000D02*
X52750000Y-88850000D01*
X59350000Y-82500000D02*
X60050000Y-83200000D01*
X52750000Y-83750000D02*
X54000000Y-82500000D01*
X60050000Y-83200000D02*
X63100000Y-83200000D01*
X54000000Y-82500000D02*
X56900000Y-82500000D01*
%TO.N,Net-(J3-PadT)*%
X57850000Y-75972500D02*
X57850000Y-90850000D01*
X61500000Y-94500000D02*
X68000000Y-94500000D01*
X70100000Y-96600000D02*
X70100000Y-98000000D01*
X68000000Y-94500000D02*
X70100000Y-96600000D01*
X57850000Y-90850000D02*
X61500000Y-94500000D01*
X51927500Y-70050000D02*
X57850000Y-75972500D01*
%TO.N,Net-(U1-INL)*%
X67100000Y-84550000D02*
X73200000Y-84550000D01*
X74250000Y-83500000D02*
X74250000Y-81900000D01*
X65100000Y-83200000D02*
X65750000Y-83200000D01*
X73200000Y-84550000D02*
X74250000Y-83500000D01*
X73350000Y-81000000D02*
X71825000Y-81000000D01*
X74250000Y-81900000D02*
X73350000Y-81000000D01*
X65750000Y-83200000D02*
X67100000Y-84550000D01*
%TO.N,Net-(SW3-A)*%
D32*
X75920000Y-53000000D02*
X72100000Y-53000000D01*
X70000000Y-55100000D02*
X70000000Y-57000000D01*
X72100000Y-53000000D02*
X70000000Y-55100000D01*
X70000000Y-57000000D02*
X66000000Y-61000000D01*
%TO.N,+12V*%
X80800000Y-56700000D02*
X83300000Y-59200000D01*
X71800000Y-61350000D02*
X74000000Y-59150000D01*
X83300000Y-60250000D02*
X84000000Y-60950000D01*
X76550000Y-56700000D02*
X80800000Y-56700000D01*
X75850000Y-57400000D02*
X76550000Y-56700000D01*
X83300000Y-59200000D02*
X83300000Y-60250000D01*
X84000000Y-60950000D02*
X84790000Y-60950000D01*
X71800000Y-64950000D02*
X71800000Y-61350000D01*
X75750000Y-57400000D02*
X75850000Y-57400000D01*
X74000000Y-59150000D02*
X75750000Y-57400000D01*
%TO.N,+5V*%
X75000000Y-79100000D02*
X75000000Y-77190000D01*
X85100000Y-75850000D02*
X89900000Y-75850000D01*
X57800000Y-61550000D02*
X57800000Y-71400000D01*
X82400000Y-79200000D02*
X80390000Y-77190000D01*
X71825000Y-79730000D02*
X74370000Y-79730000D01*
X70040000Y-77190000D02*
X71825000Y-77190000D01*
X74370000Y-79730000D02*
X75000000Y-79100000D01*
X55250000Y-60650000D02*
X56900000Y-60650000D01*
X78000000Y-77190000D02*
X75000000Y-77190000D01*
X56900000Y-60650000D02*
X57800000Y-61550000D01*
X57800000Y-71400000D02*
X63275000Y-76875000D01*
X85850000Y-64450000D02*
X89350000Y-60950000D01*
X75000000Y-77190000D02*
X71825000Y-77190000D01*
X85100000Y-75850000D02*
X81300000Y-75850000D01*
X79050000Y-64450000D02*
X79050000Y-61775000D01*
X92900000Y-72850000D02*
X92900000Y-64500000D01*
X79050000Y-64450000D02*
X85850000Y-64450000D01*
X81300000Y-75850000D02*
X79960000Y-77190000D01*
X79050000Y-61775000D02*
X77900000Y-60625000D01*
X80390000Y-77190000D02*
X79960000Y-77190000D01*
X79960000Y-77190000D02*
X78000000Y-77190000D01*
X92900000Y-64500000D02*
X89350000Y-60950000D01*
X89900000Y-75850000D02*
X92900000Y-72850000D01*
X69725000Y-76875000D02*
X70040000Y-77190000D01*
X63275000Y-76875000D02*
X68300000Y-76875000D01*
X68300000Y-76875000D02*
X69725000Y-76875000D01*
%TO.N,Net-(U1-VREF)*%
D31*
X71792500Y-82237500D02*
X71825000Y-82270000D01*
X68300000Y-82237500D02*
X71792500Y-82237500D01*
%TO.N,Net-(D8-K)*%
X61300000Y-64650000D02*
X64750000Y-64650000D01*
X60950000Y-64300000D02*
X61300000Y-64650000D01*
%TO.N,Net-(C2-Pad1)*%
X94000000Y-86250000D02*
X95100000Y-86250000D01*
D33*
X82624486Y-97965964D02*
X86090450Y-94500000D01*
X88500000Y-94500000D02*
X92700000Y-90300000D01*
D31*
X92700000Y-89850000D02*
X92700000Y-87550000D01*
X92700000Y-87550000D02*
X94000000Y-86250000D01*
D33*
X86090450Y-94500000D02*
X88500000Y-94500000D01*
X92700000Y-90300000D02*
X92700000Y-89850000D01*
%TO.N,Net-(U1-ROUT+)*%
D31*
X74980000Y-73380000D02*
X78000000Y-73380000D01*
X74950000Y-73350000D02*
X74980000Y-73380000D01*
%TO.N,Net-(C2-Pad2)*%
X97350000Y-87350000D02*
X95100000Y-89600000D01*
X96700000Y-83700000D02*
X97350000Y-84350000D01*
X90650000Y-85600000D02*
X92550000Y-83700000D01*
X97350000Y-84350000D02*
X97350000Y-87350000D01*
X92550000Y-83700000D02*
X96700000Y-83700000D01*
%TO.N,Net-(U1-INR)*%
X76650000Y-81000000D02*
X78000000Y-81000000D01*
X75750000Y-81900000D02*
X76650000Y-81000000D01*
X78800000Y-87600000D02*
X75750000Y-84550000D01*
X88250000Y-87500000D02*
X90550000Y-87500000D01*
X90550000Y-87500000D02*
X90650000Y-87600000D01*
X75750000Y-84550000D02*
X75750000Y-81900000D01*
X78800000Y-87600000D02*
X81350000Y-87600000D01*
X81350000Y-87600000D02*
X81500000Y-87750000D01*
%TO.N,Net-(D1-A)*%
D32*
X74500000Y-54850000D02*
X77950000Y-54850000D01*
X77950000Y-54850000D02*
X78460000Y-54340000D01*
X74000000Y-55350000D02*
X74500000Y-54850000D01*
X74000000Y-56650000D02*
X74000000Y-55350000D01*
X78460000Y-54340000D02*
X78460000Y-53000000D01*
%TD*%
%TA.AperFunction,Conductor*%
%TO.N,GND*%
G36*
X50705703Y-70755984D02*
G01*
X50726395Y-70780389D01*
X50726821Y-70780081D01*
X50859252Y-70962358D01*
X50859256Y-70962363D01*
X51015136Y-71118243D01*
X51015141Y-71118247D01*
X51117088Y-71192315D01*
X51193478Y-71247815D01*
X51297986Y-71301065D01*
X51389893Y-71347895D01*
X51389896Y-71347896D01*
X51494721Y-71381955D01*
X51599549Y-71416015D01*
X51817278Y-71450500D01*
X51817279Y-71450500D01*
X52037721Y-71450500D01*
X52037722Y-71450500D01*
X52255451Y-71416015D01*
X52272329Y-71410531D01*
X52342170Y-71408532D01*
X52398333Y-71440779D01*
X57163181Y-76205627D01*
X57196666Y-76266950D01*
X57199500Y-76293308D01*
X57199500Y-81592297D01*
X57179815Y-81659336D01*
X57127011Y-81705091D01*
X57057853Y-81715035D01*
X57051309Y-81713914D01*
X56978845Y-81699500D01*
X56978842Y-81699500D01*
X56821158Y-81699500D01*
X56821155Y-81699500D01*
X56666510Y-81730261D01*
X56666498Y-81730264D01*
X56520827Y-81790602D01*
X56520820Y-81790606D01*
X56491928Y-81809911D01*
X56463955Y-81828602D01*
X56397279Y-81849480D01*
X56395065Y-81849500D01*
X53935929Y-81849500D01*
X53810261Y-81874497D01*
X53810255Y-81874499D01*
X53691874Y-81923534D01*
X53585326Y-81994726D01*
X52244724Y-83335328D01*
X52177503Y-83435933D01*
X52173536Y-83441871D01*
X52124499Y-83560255D01*
X52124497Y-83560261D01*
X52099500Y-83685928D01*
X52099500Y-83685931D01*
X52099500Y-88914069D01*
X52113256Y-88983221D01*
X52124499Y-89039744D01*
X52173535Y-89158127D01*
X52244723Y-89264669D01*
X52244726Y-89264673D01*
X52244727Y-89264674D01*
X52844724Y-89864669D01*
X52894124Y-89914069D01*
X52935332Y-89955277D01*
X53041866Y-90026461D01*
X53041872Y-90026464D01*
X53041873Y-90026465D01*
X53160256Y-90075501D01*
X53160260Y-90075501D01*
X53160261Y-90075502D01*
X53285928Y-90100500D01*
X53285931Y-90100500D01*
X53425501Y-90100500D01*
X53492540Y-90120185D01*
X53538295Y-90172989D01*
X53549501Y-90224500D01*
X53549501Y-90575007D01*
X53560000Y-90677796D01*
X53560001Y-90677799D01*
X53609706Y-90827796D01*
X53615186Y-90844334D01*
X53707288Y-90993656D01*
X53831344Y-91117712D01*
X53980666Y-91209814D01*
X54147203Y-91264999D01*
X54249991Y-91275500D01*
X55450008Y-91275499D01*
X55552797Y-91264999D01*
X55719334Y-91209814D01*
X55719335Y-91209812D01*
X55726189Y-91207542D01*
X55726920Y-91209750D01*
X55784936Y-91200928D01*
X55848725Y-91229436D01*
X55871388Y-91254915D01*
X55944721Y-91364667D01*
X55944727Y-91364674D01*
X61185326Y-96605273D01*
X61185329Y-96605275D01*
X61185331Y-96605277D01*
X61279307Y-96668069D01*
X61291873Y-96676465D01*
X61410256Y-96725501D01*
X61410260Y-96725501D01*
X61410261Y-96725502D01*
X61535928Y-96750500D01*
X61535931Y-96750500D01*
X62035931Y-96750500D01*
X64176089Y-96750500D01*
X64243128Y-96770185D01*
X64288883Y-96822989D01*
X64291532Y-96837979D01*
X64970591Y-97517037D01*
X64907007Y-97534075D01*
X64792993Y-97599901D01*
X64699901Y-97692993D01*
X64634075Y-97807007D01*
X64617037Y-97870590D01*
X63948932Y-97202485D01*
X63948931Y-97202485D01*
X63902616Y-97266233D01*
X63802567Y-97462589D01*
X63734473Y-97672164D01*
X63700000Y-97889818D01*
X63700000Y-98110181D01*
X63734473Y-98327835D01*
X63802567Y-98537410D01*
X63902611Y-98733756D01*
X63948932Y-98797513D01*
X64617037Y-98129408D01*
X64634075Y-98192993D01*
X64699901Y-98307007D01*
X64792993Y-98400099D01*
X64907007Y-98465925D01*
X64970590Y-98482962D01*
X64302485Y-99151065D01*
X64302485Y-99151066D01*
X64366243Y-99197388D01*
X64498965Y-99265014D01*
X64549761Y-99312989D01*
X64566556Y-99380810D01*
X64544018Y-99446945D01*
X64489303Y-99490396D01*
X64442670Y-99499499D01*
X54860839Y-99499499D01*
X54856667Y-99499429D01*
X54850963Y-99499236D01*
X54704672Y-99494311D01*
X54694961Y-99493601D01*
X54300946Y-99449206D01*
X54289957Y-99447466D01*
X53904935Y-99368632D01*
X53894149Y-99365914D01*
X53780452Y-99331772D01*
X53517743Y-99252884D01*
X53507242Y-99249209D01*
X53142492Y-99102898D01*
X53132361Y-99098297D01*
X52782179Y-98919870D01*
X52772502Y-98914379D01*
X52439730Y-98705285D01*
X52430584Y-98698948D01*
X52117909Y-98460876D01*
X52109368Y-98453746D01*
X51819275Y-98188591D01*
X51811407Y-98180723D01*
X51803769Y-98172367D01*
X51546251Y-97890630D01*
X51539134Y-97882106D01*
X51301039Y-97569400D01*
X51294712Y-97560266D01*
X51085619Y-97227495D01*
X51080128Y-97217818D01*
X51013796Y-97087635D01*
X50901696Y-96867628D01*
X50897107Y-96857524D01*
X50750783Y-96492741D01*
X50747120Y-96482273D01*
X50634081Y-96105838D01*
X50631369Y-96095077D01*
X50552528Y-95710022D01*
X50550794Y-95699069D01*
X50506398Y-95305037D01*
X50505688Y-95295329D01*
X50503527Y-95231166D01*
X50500570Y-95143333D01*
X50500500Y-95139167D01*
X50500500Y-94878711D01*
X53149500Y-94878711D01*
X53149500Y-95121288D01*
X53181161Y-95361785D01*
X53243947Y-95596104D01*
X53291142Y-95710042D01*
X53336776Y-95820212D01*
X53458064Y-96030289D01*
X53458066Y-96030292D01*
X53458067Y-96030293D01*
X53605733Y-96222736D01*
X53605739Y-96222743D01*
X53777256Y-96394260D01*
X53777263Y-96394266D01*
X53798102Y-96410256D01*
X53969711Y-96541936D01*
X54179788Y-96663224D01*
X54403900Y-96756054D01*
X54638211Y-96818838D01*
X54783604Y-96837979D01*
X54878711Y-96850500D01*
X54878712Y-96850500D01*
X55121289Y-96850500D01*
X55169388Y-96844167D01*
X55361789Y-96818838D01*
X55596100Y-96756054D01*
X55820212Y-96663224D01*
X56030289Y-96541936D01*
X56222738Y-96394265D01*
X56394265Y-96222738D01*
X56541936Y-96030289D01*
X56663224Y-95820212D01*
X56756054Y-95596100D01*
X56818838Y-95361789D01*
X56850500Y-95121288D01*
X56850500Y-94878712D01*
X56818838Y-94638211D01*
X56756054Y-94403900D01*
X56663224Y-94179788D01*
X56541936Y-93969711D01*
X56421827Y-93813181D01*
X56394266Y-93777263D01*
X56394260Y-93777256D01*
X56222743Y-93605739D01*
X56222736Y-93605733D01*
X56030293Y-93458067D01*
X56030292Y-93458066D01*
X56030289Y-93458064D01*
X55820212Y-93336776D01*
X55811649Y-93333229D01*
X55596104Y-93243947D01*
X55361785Y-93181161D01*
X55121289Y-93149500D01*
X55121288Y-93149500D01*
X54878712Y-93149500D01*
X54878711Y-93149500D01*
X54638214Y-93181161D01*
X54403895Y-93243947D01*
X54179794Y-93336773D01*
X54179785Y-93336777D01*
X53969706Y-93458067D01*
X53777263Y-93605733D01*
X53777256Y-93605739D01*
X53605739Y-93777256D01*
X53605733Y-93777263D01*
X53458067Y-93969706D01*
X53336777Y-94179785D01*
X53336773Y-94179794D01*
X53243947Y-94403895D01*
X53181161Y-94638214D01*
X53149500Y-94878711D01*
X50500500Y-94878711D01*
X50500500Y-80288059D01*
X50520185Y-80221020D01*
X50572989Y-80175265D01*
X50642147Y-80165321D01*
X50705703Y-80194346D01*
X50724814Y-80215169D01*
X50811166Y-80334022D01*
X50831758Y-80362365D01*
X50987636Y-80518243D01*
X50987641Y-80518247D01*
X51057960Y-80569336D01*
X51165978Y-80647815D01*
X51294375Y-80713237D01*
X51362393Y-80747895D01*
X51362396Y-80747896D01*
X51372153Y-80751066D01*
X51572049Y-80816015D01*
X51789778Y-80850500D01*
X51789779Y-80850500D01*
X52010221Y-80850500D01*
X52010222Y-80850500D01*
X52227951Y-80816015D01*
X52437606Y-80747895D01*
X52634022Y-80647815D01*
X52812365Y-80518242D01*
X52968242Y-80362365D01*
X53097815Y-80184022D01*
X53197895Y-79987606D01*
X53266015Y-79777951D01*
X53300500Y-79560222D01*
X53300500Y-79339778D01*
X53266015Y-79122049D01*
X53207898Y-78943181D01*
X53197896Y-78912396D01*
X53197895Y-78912393D01*
X53141893Y-78802485D01*
X53097815Y-78715978D01*
X53051685Y-78652485D01*
X52968247Y-78537641D01*
X52968243Y-78537636D01*
X52812363Y-78381756D01*
X52812358Y-78381752D01*
X52634025Y-78252187D01*
X52634024Y-78252186D01*
X52634022Y-78252185D01*
X52571096Y-78220122D01*
X52437606Y-78152104D01*
X52437603Y-78152103D01*
X52227952Y-78083985D01*
X52104928Y-78064500D01*
X52010222Y-78049500D01*
X51789778Y-78049500D01*
X51717201Y-78060995D01*
X51572047Y-78083985D01*
X51362396Y-78152103D01*
X51362393Y-78152104D01*
X51165974Y-78252187D01*
X50987641Y-78381752D01*
X50987636Y-78381756D01*
X50831756Y-78537636D01*
X50831752Y-78537641D01*
X50724818Y-78684825D01*
X50669489Y-78727491D01*
X50599875Y-78733470D01*
X50538080Y-78700865D01*
X50503723Y-78640026D01*
X50500500Y-78611940D01*
X50500500Y-70849697D01*
X50520185Y-70782658D01*
X50572989Y-70736903D01*
X50642147Y-70726959D01*
X50705703Y-70755984D01*
G37*
%TD.AperFunction*%
%TA.AperFunction,Conductor*%
G36*
X66251066Y-98797514D02*
G01*
X66252547Y-98797397D01*
X66304700Y-98757180D01*
X66374314Y-98751200D01*
X66436109Y-98783806D01*
X66450008Y-98799846D01*
X66531752Y-98912359D01*
X66687636Y-99068243D01*
X66687641Y-99068247D01*
X66754786Y-99117030D01*
X66865978Y-99197815D01*
X66970914Y-99251283D01*
X66997862Y-99265014D01*
X67048658Y-99312989D01*
X67065453Y-99380810D01*
X67042915Y-99446945D01*
X66988200Y-99490396D01*
X66941567Y-99499499D01*
X65757330Y-99499499D01*
X65690291Y-99479814D01*
X65644536Y-99427010D01*
X65634592Y-99357852D01*
X65663617Y-99294296D01*
X65701035Y-99265014D01*
X65833760Y-99197386D01*
X65897513Y-99151066D01*
X65897514Y-99151066D01*
X65229409Y-98482962D01*
X65292993Y-98465925D01*
X65407007Y-98400099D01*
X65500099Y-98307007D01*
X65565925Y-98192993D01*
X65582962Y-98129409D01*
X66251066Y-98797514D01*
G37*
%TD.AperFunction*%
%TA.AperFunction,Conductor*%
G36*
X95143332Y-50500570D02*
G01*
X95295330Y-50505687D01*
X95305033Y-50506396D01*
X95699069Y-50550794D01*
X95710026Y-50552529D01*
X96095077Y-50631369D01*
X96105838Y-50634081D01*
X96482273Y-50747120D01*
X96492741Y-50750783D01*
X96857524Y-50897107D01*
X96867628Y-50901696D01*
X97091258Y-51015642D01*
X97217818Y-51080128D01*
X97227495Y-51085619D01*
X97560266Y-51294712D01*
X97569400Y-51301039D01*
X97882106Y-51539134D01*
X97890630Y-51546251D01*
X98175032Y-51806206D01*
X98180723Y-51811407D01*
X98188587Y-51819271D01*
X98229830Y-51864393D01*
X98453746Y-52109368D01*
X98460876Y-52117909D01*
X98698948Y-52430584D01*
X98705285Y-52439730D01*
X98914379Y-52772502D01*
X98919870Y-52782179D01*
X99098297Y-53132361D01*
X99102898Y-53142492D01*
X99249209Y-53507242D01*
X99252884Y-53517743D01*
X99306482Y-53696230D01*
X99354903Y-53857482D01*
X99365913Y-53894145D01*
X99368632Y-53904935D01*
X99442775Y-54267048D01*
X99447466Y-54289956D01*
X99449206Y-54300946D01*
X99493600Y-54694959D01*
X99494310Y-54704668D01*
X99499429Y-54856658D01*
X99499499Y-54860832D01*
X99499499Y-95139160D01*
X99499429Y-95143333D01*
X99494311Y-95295326D01*
X99493601Y-95305037D01*
X99449206Y-95699052D01*
X99447466Y-95710041D01*
X99368632Y-96095063D01*
X99365913Y-96105853D01*
X99252884Y-96482255D01*
X99249209Y-96492756D01*
X99102898Y-96857506D01*
X99098297Y-96867637D01*
X98919870Y-97217819D01*
X98914379Y-97227496D01*
X98705285Y-97560268D01*
X98698948Y-97569414D01*
X98460876Y-97882089D01*
X98453746Y-97890630D01*
X98188591Y-98180723D01*
X98180723Y-98188591D01*
X97890631Y-98453746D01*
X97882090Y-98460877D01*
X97569412Y-98698950D01*
X97560266Y-98705286D01*
X97227495Y-98914379D01*
X97217818Y-98919870D01*
X96867641Y-99098296D01*
X96857510Y-99102897D01*
X96492758Y-99249209D01*
X96482256Y-99252884D01*
X96105852Y-99365913D01*
X96095063Y-99368632D01*
X95710042Y-99447466D01*
X95699052Y-99449206D01*
X95305039Y-99493600D01*
X95295330Y-99494310D01*
X95151641Y-99499149D01*
X95143339Y-99499429D01*
X95139168Y-99499499D01*
X85716120Y-99499499D01*
X85649081Y-99479814D01*
X85603326Y-99427010D01*
X85593382Y-99357852D01*
X85622407Y-99294296D01*
X85659825Y-99265014D01*
X85683631Y-99252884D01*
X85858508Y-99163779D01*
X86036851Y-99034206D01*
X86192728Y-98878329D01*
X86322301Y-98699986D01*
X86422381Y-98503570D01*
X86490501Y-98293915D01*
X86524986Y-98076186D01*
X86524986Y-97855742D01*
X86490501Y-97638013D01*
X86433503Y-97462589D01*
X86422382Y-97428360D01*
X86422381Y-97428357D01*
X86375095Y-97335555D01*
X86322301Y-97231942D01*
X86217461Y-97087641D01*
X86192733Y-97053605D01*
X86192729Y-97053600D01*
X86036849Y-96897720D01*
X86036844Y-96897716D01*
X85858511Y-96768151D01*
X85858510Y-96768150D01*
X85858508Y-96768149D01*
X85795582Y-96736086D01*
X85662092Y-96668068D01*
X85662089Y-96668067D01*
X85452438Y-96599949D01*
X85343572Y-96582706D01*
X85234708Y-96565464D01*
X85173582Y-96565464D01*
X85106543Y-96545779D01*
X85060788Y-96492975D01*
X85050844Y-96423817D01*
X85079869Y-96360261D01*
X85085901Y-96353783D01*
X85619471Y-95820214D01*
X86302866Y-95136819D01*
X86364189Y-95103334D01*
X86390547Y-95100500D01*
X88413331Y-95100500D01*
X88413347Y-95100501D01*
X88420943Y-95100501D01*
X88579054Y-95100501D01*
X88579057Y-95100501D01*
X88731785Y-95059577D01*
X88781904Y-95030639D01*
X88868716Y-94980520D01*
X88970525Y-94878711D01*
X93149500Y-94878711D01*
X93149500Y-95121288D01*
X93181161Y-95361785D01*
X93243947Y-95596104D01*
X93291142Y-95710042D01*
X93336776Y-95820212D01*
X93458064Y-96030289D01*
X93458066Y-96030292D01*
X93458067Y-96030293D01*
X93605733Y-96222736D01*
X93605739Y-96222743D01*
X93777256Y-96394260D01*
X93777263Y-96394266D01*
X93798102Y-96410256D01*
X93969711Y-96541936D01*
X94179788Y-96663224D01*
X94403900Y-96756054D01*
X94638211Y-96818838D01*
X94783604Y-96837979D01*
X94878711Y-96850500D01*
X94878712Y-96850500D01*
X95121289Y-96850500D01*
X95169388Y-96844167D01*
X95361789Y-96818838D01*
X95596100Y-96756054D01*
X95820212Y-96663224D01*
X96030289Y-96541936D01*
X96222738Y-96394265D01*
X96394265Y-96222738D01*
X96541936Y-96030289D01*
X96663224Y-95820212D01*
X96756054Y-95596100D01*
X96818838Y-95361789D01*
X96850500Y-95121288D01*
X96850500Y-94878712D01*
X96818838Y-94638211D01*
X96756054Y-94403900D01*
X96663224Y-94179788D01*
X96541936Y-93969711D01*
X96421827Y-93813181D01*
X96394266Y-93777263D01*
X96394260Y-93777256D01*
X96222743Y-93605739D01*
X96222736Y-93605733D01*
X96030293Y-93458067D01*
X96030292Y-93458066D01*
X96030289Y-93458064D01*
X95820212Y-93336776D01*
X95811649Y-93333229D01*
X95596104Y-93243947D01*
X95361785Y-93181161D01*
X95121289Y-93149500D01*
X95121288Y-93149500D01*
X94878712Y-93149500D01*
X94878711Y-93149500D01*
X94638214Y-93181161D01*
X94403895Y-93243947D01*
X94179794Y-93336773D01*
X94179785Y-93336777D01*
X93969706Y-93458067D01*
X93777263Y-93605733D01*
X93777256Y-93605739D01*
X93605739Y-93777256D01*
X93605733Y-93777263D01*
X93458067Y-93969706D01*
X93336777Y-94179785D01*
X93336773Y-94179794D01*
X93243947Y-94403895D01*
X93181161Y-94638214D01*
X93149500Y-94878711D01*
X88970525Y-94878711D01*
X88980520Y-94868716D01*
X88980520Y-94868714D01*
X88990728Y-94858507D01*
X88990730Y-94858504D01*
X93058506Y-90790728D01*
X93058511Y-90790724D01*
X93068714Y-90780520D01*
X93068716Y-90780520D01*
X93180520Y-90668716D01*
X93184145Y-90662435D01*
X93234622Y-90575009D01*
X93234623Y-90575007D01*
X93259574Y-90531790D01*
X93259575Y-90531789D01*
X93259575Y-90531787D01*
X93259577Y-90531785D01*
X93300501Y-90379057D01*
X93300501Y-90220943D01*
X93300501Y-90213348D01*
X93300500Y-90213330D01*
X93300500Y-90124766D01*
X93309939Y-90077313D01*
X93314804Y-90065568D01*
X93325501Y-90039744D01*
X93342303Y-89955276D01*
X93350500Y-89914071D01*
X93350500Y-87870807D01*
X93370185Y-87803768D01*
X93386815Y-87783130D01*
X93638516Y-87531428D01*
X93699839Y-87497944D01*
X93769531Y-87502928D01*
X93825464Y-87544800D01*
X93843901Y-87580102D01*
X93865186Y-87644334D01*
X93950276Y-87782288D01*
X93957289Y-87793657D01*
X94000951Y-87837320D01*
X94034435Y-87898643D01*
X94029450Y-87968335D01*
X94000951Y-88012680D01*
X93957289Y-88056342D01*
X93865187Y-88205663D01*
X93865185Y-88205668D01*
X93837349Y-88289670D01*
X93810001Y-88372203D01*
X93810001Y-88372204D01*
X93810000Y-88372204D01*
X93799500Y-88474983D01*
X93799500Y-90725001D01*
X93799501Y-90725018D01*
X93810000Y-90827796D01*
X93810001Y-90827799D01*
X93816808Y-90848340D01*
X93865186Y-90994334D01*
X93957288Y-91143656D01*
X94081344Y-91267712D01*
X94230666Y-91359814D01*
X94397203Y-91414999D01*
X94499991Y-91425500D01*
X95700008Y-91425499D01*
X95802797Y-91414999D01*
X95969334Y-91359814D01*
X96118656Y-91267712D01*
X96242712Y-91143656D01*
X96334814Y-90994334D01*
X96389999Y-90827797D01*
X96400500Y-90725009D01*
X96400499Y-89270807D01*
X96420184Y-89203769D01*
X96436818Y-89183127D01*
X97130549Y-88489397D01*
X97855277Y-87764669D01*
X97926466Y-87658126D01*
X97965425Y-87564069D01*
X97975501Y-87539744D01*
X97984534Y-87494334D01*
X98000500Y-87414071D01*
X98000500Y-84285928D01*
X97975502Y-84160261D01*
X97975501Y-84160260D01*
X97975501Y-84160256D01*
X97926465Y-84041873D01*
X97902012Y-84005276D01*
X97902012Y-84005275D01*
X97855275Y-83935328D01*
X97114673Y-83194726D01*
X97114669Y-83194723D01*
X97008127Y-83123535D01*
X97003902Y-83121785D01*
X96889744Y-83074499D01*
X96889738Y-83074497D01*
X96764071Y-83049500D01*
X96764069Y-83049500D01*
X92485931Y-83049500D01*
X92485929Y-83049500D01*
X92360261Y-83074497D01*
X92360251Y-83074500D01*
X92246095Y-83121784D01*
X92246096Y-83121785D01*
X92241878Y-83123532D01*
X92241865Y-83123539D01*
X92135328Y-83194724D01*
X90866871Y-84463181D01*
X90805548Y-84496666D01*
X90779190Y-84499500D01*
X90149998Y-84499500D01*
X90149980Y-84499501D01*
X90047203Y-84510000D01*
X90047200Y-84510001D01*
X89880668Y-84565185D01*
X89880663Y-84565187D01*
X89731342Y-84657289D01*
X89607289Y-84781342D01*
X89515187Y-84930663D01*
X89515185Y-84930668D01*
X89460001Y-85097203D01*
X89449500Y-85199983D01*
X89449500Y-86000001D01*
X89449501Y-86000019D01*
X89460000Y-86102796D01*
X89460001Y-86102799D01*
X89515185Y-86269331D01*
X89515187Y-86269336D01*
X89607289Y-86418657D01*
X89700951Y-86512319D01*
X89734436Y-86573642D01*
X89729452Y-86643334D01*
X89703887Y-86684644D01*
X89702455Y-86686176D01*
X89607288Y-86781344D01*
X89595093Y-86801114D01*
X89586659Y-86810144D01*
X89566791Y-86821887D01*
X89549632Y-86837322D01*
X89535092Y-86840626D01*
X89526512Y-86845698D01*
X89514712Y-86845257D01*
X89496042Y-86849500D01*
X88754935Y-86849500D01*
X88687896Y-86829815D01*
X88686090Y-86828633D01*
X88629179Y-86790606D01*
X88629172Y-86790602D01*
X88483501Y-86730264D01*
X88483489Y-86730261D01*
X88328845Y-86699500D01*
X88328842Y-86699500D01*
X88171158Y-86699500D01*
X88171155Y-86699500D01*
X88016510Y-86730261D01*
X88016498Y-86730264D01*
X87870827Y-86790602D01*
X87870814Y-86790609D01*
X87739711Y-86878210D01*
X87739707Y-86878213D01*
X87628213Y-86989707D01*
X87628210Y-86989711D01*
X87540609Y-87120814D01*
X87540602Y-87120827D01*
X87480264Y-87266498D01*
X87480261Y-87266510D01*
X87449500Y-87421153D01*
X87449500Y-87578846D01*
X87480261Y-87733489D01*
X87480264Y-87733501D01*
X87540602Y-87879172D01*
X87540609Y-87879185D01*
X87628210Y-88010288D01*
X87628213Y-88010292D01*
X87743064Y-88125143D01*
X87776549Y-88186466D01*
X87771565Y-88256158D01*
X87729693Y-88312091D01*
X87664229Y-88336508D01*
X87627791Y-88333715D01*
X87477552Y-88299424D01*
X87477534Y-88299421D01*
X87176149Y-88265464D01*
X87176143Y-88265464D01*
X86872829Y-88265464D01*
X86872822Y-88265464D01*
X86571437Y-88299421D01*
X86571423Y-88299424D01*
X86275714Y-88366917D01*
X86275702Y-88366921D01*
X85989417Y-88467097D01*
X85716147Y-88598697D01*
X85459323Y-88760071D01*
X85222182Y-88949184D01*
X85007706Y-89163660D01*
X84818593Y-89400801D01*
X84657219Y-89657625D01*
X84525619Y-89930895D01*
X84425443Y-90217180D01*
X84425439Y-90217192D01*
X84357946Y-90512901D01*
X84357943Y-90512915D01*
X84323986Y-90814300D01*
X84323986Y-91117627D01*
X84357943Y-91419012D01*
X84357945Y-91419024D01*
X84357946Y-91419027D01*
X84365711Y-91453048D01*
X84425439Y-91714735D01*
X84425443Y-91714747D01*
X84525619Y-92001032D01*
X84657219Y-92274302D01*
X84657221Y-92274305D01*
X84818594Y-92531128D01*
X85007707Y-92768268D01*
X85222182Y-92982743D01*
X85459322Y-93171856D01*
X85716145Y-93333229D01*
X85989421Y-93464832D01*
X86086691Y-93498868D01*
X86275702Y-93565006D01*
X86275714Y-93565010D01*
X86571423Y-93632504D01*
X86571432Y-93632505D01*
X86571437Y-93632506D01*
X86746937Y-93652280D01*
X86811351Y-93679346D01*
X86850907Y-93736941D01*
X86853044Y-93806778D01*
X86817086Y-93866685D01*
X86754448Y-93897640D01*
X86733054Y-93899500D01*
X86169507Y-93899500D01*
X86011392Y-93899500D01*
X85858665Y-93940423D01*
X85858664Y-93940423D01*
X85858662Y-93940424D01*
X85858659Y-93940425D01*
X85808546Y-93969359D01*
X85808545Y-93969360D01*
X85765139Y-93994420D01*
X85721735Y-94019479D01*
X85721732Y-94019481D01*
X85609928Y-94131286D01*
X83148688Y-96592525D01*
X83087365Y-96626010D01*
X83022689Y-96622775D01*
X82980971Y-96609220D01*
X82952438Y-96599949D01*
X82843572Y-96582706D01*
X82734708Y-96565464D01*
X82514264Y-96565464D01*
X82441687Y-96576959D01*
X82296533Y-96599949D01*
X82086882Y-96668067D01*
X82086879Y-96668068D01*
X81890460Y-96768151D01*
X81712127Y-96897716D01*
X81712122Y-96897720D01*
X81556242Y-97053600D01*
X81474494Y-97166117D01*
X81419164Y-97208782D01*
X81349550Y-97214761D01*
X81287755Y-97182155D01*
X81275902Y-97168477D01*
X81275551Y-97168449D01*
X80607448Y-97836553D01*
X80590411Y-97772971D01*
X80524585Y-97658957D01*
X80431493Y-97565865D01*
X80317479Y-97500039D01*
X80253893Y-97483001D01*
X80921999Y-96814896D01*
X80858242Y-96768575D01*
X80661896Y-96668531D01*
X80452321Y-96600437D01*
X80234667Y-96565964D01*
X80014305Y-96565964D01*
X79796650Y-96600437D01*
X79587075Y-96668531D01*
X79390719Y-96768580D01*
X79326971Y-96814895D01*
X79326971Y-96814896D01*
X79995076Y-97483001D01*
X79931493Y-97500039D01*
X79817479Y-97565865D01*
X79724387Y-97658957D01*
X79658561Y-97772971D01*
X79641523Y-97836554D01*
X78973418Y-97168449D01*
X78973417Y-97168449D01*
X78927102Y-97232197D01*
X78827053Y-97428553D01*
X78758959Y-97638128D01*
X78724486Y-97855782D01*
X78724486Y-98076145D01*
X78758959Y-98293799D01*
X78827053Y-98503374D01*
X78927097Y-98699720D01*
X78973418Y-98763477D01*
X79641523Y-98095372D01*
X79658561Y-98158957D01*
X79724387Y-98272971D01*
X79817479Y-98366063D01*
X79931493Y-98431889D01*
X79995076Y-98448926D01*
X79326971Y-99117029D01*
X79326971Y-99117030D01*
X79390729Y-99163352D01*
X79590250Y-99265014D01*
X79641046Y-99312989D01*
X79657841Y-99380810D01*
X79635303Y-99446945D01*
X79580588Y-99490396D01*
X79533955Y-99499499D01*
X70758433Y-99499499D01*
X70691394Y-99479814D01*
X70645639Y-99427010D01*
X70635695Y-99357852D01*
X70664720Y-99294296D01*
X70702138Y-99265014D01*
X70729086Y-99251283D01*
X70834022Y-99197815D01*
X71012365Y-99068242D01*
X71168242Y-98912365D01*
X71297815Y-98734022D01*
X71397895Y-98537606D01*
X71466015Y-98327951D01*
X71500500Y-98110222D01*
X71500500Y-97889778D01*
X71466015Y-97672049D01*
X71421185Y-97534075D01*
X71397896Y-97462396D01*
X71397895Y-97462393D01*
X71363237Y-97394375D01*
X71297815Y-97265978D01*
X71249681Y-97199727D01*
X71168247Y-97087641D01*
X71168243Y-97087636D01*
X71012363Y-96931756D01*
X71012358Y-96931752D01*
X70834027Y-96802188D01*
X70834024Y-96802186D01*
X70834022Y-96802185D01*
X70818201Y-96794124D01*
X70767408Y-96746149D01*
X70750500Y-96683641D01*
X70750500Y-96535928D01*
X70725502Y-96410261D01*
X70725501Y-96410260D01*
X70725501Y-96410256D01*
X70676465Y-96291873D01*
X70673671Y-96287692D01*
X70605276Y-96185330D01*
X70605274Y-96185328D01*
X70605272Y-96185325D01*
X68414673Y-93994726D01*
X68377235Y-93969711D01*
X68308127Y-93923535D01*
X68189744Y-93874499D01*
X68189738Y-93874497D01*
X68064071Y-93849500D01*
X68064069Y-93849500D01*
X63951993Y-93849500D01*
X63884954Y-93829815D01*
X63839199Y-93777011D01*
X63829255Y-93707853D01*
X63858280Y-93644297D01*
X63917058Y-93606523D01*
X63924400Y-93604609D01*
X63936393Y-93601871D01*
X63948772Y-93599046D01*
X64235065Y-93498868D01*
X64508341Y-93367265D01*
X64765164Y-93205892D01*
X65002304Y-93016779D01*
X65216779Y-92802304D01*
X65405892Y-92565164D01*
X65567265Y-92308341D01*
X65698868Y-92035065D01*
X65799046Y-91748772D01*
X65866540Y-91453063D01*
X65900500Y-91151657D01*
X65900500Y-90848343D01*
X65900499Y-90848336D01*
X69299500Y-90848336D01*
X69299500Y-91151663D01*
X69333457Y-91453048D01*
X69333460Y-91453062D01*
X69400953Y-91748771D01*
X69400957Y-91748783D01*
X69501133Y-92035068D01*
X69632733Y-92308338D01*
X69632735Y-92308341D01*
X69794108Y-92565164D01*
X69983221Y-92802304D01*
X70197696Y-93016779D01*
X70434836Y-93205892D01*
X70691659Y-93367265D01*
X70964935Y-93498868D01*
X71179951Y-93574105D01*
X71251216Y-93599042D01*
X71251228Y-93599046D01*
X71546937Y-93666540D01*
X71546946Y-93666541D01*
X71546951Y-93666542D01*
X71747874Y-93689180D01*
X71848337Y-93700499D01*
X71848340Y-93700500D01*
X71848343Y-93700500D01*
X72151660Y-93700500D01*
X72151661Y-93700499D01*
X72339406Y-93679346D01*
X72453048Y-93666542D01*
X72453051Y-93666541D01*
X72453063Y-93666540D01*
X72748772Y-93599046D01*
X73035065Y-93498868D01*
X73308341Y-93367265D01*
X73565164Y-93205892D01*
X73802304Y-93016779D01*
X74016779Y-92802304D01*
X74205892Y-92565164D01*
X74367265Y-92308341D01*
X74498868Y-92035065D01*
X74599046Y-91748772D01*
X74666540Y-91453063D01*
X74700500Y-91151657D01*
X74700500Y-90848343D01*
X74681595Y-90680554D01*
X74666542Y-90546951D01*
X74666541Y-90546946D01*
X74666540Y-90546937D01*
X74599046Y-90251228D01*
X74589693Y-90224500D01*
X74546304Y-90100500D01*
X74498868Y-89964935D01*
X74367265Y-89691659D01*
X74205892Y-89434836D01*
X74016779Y-89197696D01*
X73802304Y-88983221D01*
X73565164Y-88794108D01*
X73308341Y-88632735D01*
X73308338Y-88632733D01*
X73035068Y-88501133D01*
X72748783Y-88400957D01*
X72748771Y-88400953D01*
X72520556Y-88348864D01*
X72453063Y-88333460D01*
X72453060Y-88333459D01*
X72453048Y-88333457D01*
X72151663Y-88299500D01*
X72151657Y-88299500D01*
X71848343Y-88299500D01*
X71848336Y-88299500D01*
X71546951Y-88333457D01*
X71546937Y-88333460D01*
X71251228Y-88400953D01*
X71251216Y-88400957D01*
X70964931Y-88501133D01*
X70691661Y-88632733D01*
X70434837Y-88794107D01*
X70197696Y-88983220D01*
X69983220Y-89197696D01*
X69794107Y-89434837D01*
X69632733Y-89691661D01*
X69501133Y-89964931D01*
X69400957Y-90251216D01*
X69400953Y-90251228D01*
X69333460Y-90546937D01*
X69333457Y-90546951D01*
X69299500Y-90848336D01*
X65900499Y-90848336D01*
X65881595Y-90680554D01*
X65866542Y-90546951D01*
X65866541Y-90546946D01*
X65866540Y-90546937D01*
X65799046Y-90251228D01*
X65789693Y-90224500D01*
X65746304Y-90100500D01*
X65698868Y-89964935D01*
X65567265Y-89691659D01*
X65405892Y-89434836D01*
X65216779Y-89197696D01*
X65002304Y-88983221D01*
X64765164Y-88794108D01*
X64508341Y-88632735D01*
X64508338Y-88632733D01*
X64235068Y-88501133D01*
X63948783Y-88400957D01*
X63948771Y-88400953D01*
X63720556Y-88348864D01*
X63653063Y-88333460D01*
X63653060Y-88333459D01*
X63653048Y-88333457D01*
X63351663Y-88299500D01*
X63351657Y-88299500D01*
X63048343Y-88299500D01*
X63048336Y-88299500D01*
X62746951Y-88333457D01*
X62746937Y-88333460D01*
X62451228Y-88400953D01*
X62451216Y-88400957D01*
X62164931Y-88501133D01*
X61891661Y-88632733D01*
X61634837Y-88794107D01*
X61397696Y-88983220D01*
X61183220Y-89197696D01*
X60994107Y-89434837D01*
X60832733Y-89691661D01*
X60701133Y-89964931D01*
X60600957Y-90251216D01*
X60600953Y-90251228D01*
X60533460Y-90546937D01*
X60533457Y-90546951D01*
X60499500Y-90848336D01*
X60499500Y-91151663D01*
X60533457Y-91453048D01*
X60533460Y-91453062D01*
X60600953Y-91748771D01*
X60600957Y-91748783D01*
X60701133Y-92035068D01*
X60832733Y-92308338D01*
X60832735Y-92308341D01*
X60994108Y-92565164D01*
X61183221Y-92802304D01*
X61397696Y-93016779D01*
X61634836Y-93205892D01*
X61891659Y-93367265D01*
X62164935Y-93498868D01*
X62379951Y-93574105D01*
X62451216Y-93599042D01*
X62451228Y-93599046D01*
X62475600Y-93604609D01*
X62536578Y-93638718D01*
X62569436Y-93700379D01*
X62563741Y-93770017D01*
X62521301Y-93825520D01*
X62455591Y-93849268D01*
X62448007Y-93849500D01*
X61820808Y-93849500D01*
X61753769Y-93829815D01*
X61733127Y-93813181D01*
X58536819Y-90616873D01*
X58503334Y-90555550D01*
X58500500Y-90529192D01*
X58500500Y-83397757D01*
X58520185Y-83330718D01*
X58572989Y-83284963D01*
X58642147Y-83275019D01*
X58648692Y-83276140D01*
X58771155Y-83300500D01*
X58771158Y-83300500D01*
X58928844Y-83300500D01*
X58928845Y-83300499D01*
X59083497Y-83269737D01*
X59089174Y-83267385D01*
X59158638Y-83259910D01*
X59221120Y-83291178D01*
X59224315Y-83294261D01*
X59635332Y-83705278D01*
X59652648Y-83716847D01*
X59664100Y-83724499D01*
X59741873Y-83776465D01*
X59860256Y-83825501D01*
X59860260Y-83825501D01*
X59860261Y-83825502D01*
X59985928Y-83850500D01*
X59985931Y-83850500D01*
X61936267Y-83850500D01*
X62003306Y-83870185D01*
X62049061Y-83922989D01*
X62053972Y-83935494D01*
X62065184Y-83969328D01*
X62065187Y-83969336D01*
X62087354Y-84005275D01*
X62157288Y-84118656D01*
X62281344Y-84242712D01*
X62430666Y-84334814D01*
X62597203Y-84389999D01*
X62699991Y-84400500D01*
X63500008Y-84400499D01*
X63500016Y-84400498D01*
X63500019Y-84400498D01*
X63556302Y-84394748D01*
X63602797Y-84389999D01*
X63769334Y-84334814D01*
X63918656Y-84242712D01*
X64012319Y-84149049D01*
X64073642Y-84115564D01*
X64143334Y-84120548D01*
X64187681Y-84149049D01*
X64281344Y-84242712D01*
X64430666Y-84334814D01*
X64597203Y-84389999D01*
X64699991Y-84400500D01*
X65500008Y-84400499D01*
X65500016Y-84400498D01*
X65500019Y-84400498D01*
X65556302Y-84394748D01*
X65602797Y-84389999D01*
X65769334Y-84334814D01*
X65806822Y-84311690D01*
X65874213Y-84293249D01*
X65940877Y-84314170D01*
X65959601Y-84329547D01*
X66685324Y-85055271D01*
X66685327Y-85055274D01*
X66685330Y-85055276D01*
X66748079Y-85097203D01*
X66791873Y-85126465D01*
X66910256Y-85175501D01*
X66910260Y-85175501D01*
X66910261Y-85175502D01*
X67035928Y-85200500D01*
X67035931Y-85200500D01*
X73264071Y-85200500D01*
X73348615Y-85183682D01*
X73389744Y-85175501D01*
X73508127Y-85126465D01*
X73551921Y-85097203D01*
X73614669Y-85055277D01*
X74755276Y-83914670D01*
X74826465Y-83808127D01*
X74860939Y-83724900D01*
X74904780Y-83670496D01*
X74971074Y-83648431D01*
X75038773Y-83665710D01*
X75086384Y-83716847D01*
X75099500Y-83772352D01*
X75099500Y-84614071D01*
X75117855Y-84706344D01*
X75117855Y-84706345D01*
X75124497Y-84739737D01*
X75124498Y-84739742D01*
X75172516Y-84855666D01*
X75173535Y-84858127D01*
X75222005Y-84930668D01*
X75244726Y-84964673D01*
X78333836Y-88053783D01*
X78367321Y-88115106D01*
X78362337Y-88184798D01*
X78320465Y-88240731D01*
X78255001Y-88265148D01*
X78246155Y-88265464D01*
X78072822Y-88265464D01*
X77771437Y-88299421D01*
X77771423Y-88299424D01*
X77475714Y-88366917D01*
X77475702Y-88366921D01*
X77189417Y-88467097D01*
X76916147Y-88598697D01*
X76659323Y-88760071D01*
X76422182Y-88949184D01*
X76207706Y-89163660D01*
X76018593Y-89400801D01*
X75857219Y-89657625D01*
X75725619Y-89930895D01*
X75625443Y-90217180D01*
X75625439Y-90217192D01*
X75557946Y-90512901D01*
X75557943Y-90512915D01*
X75523986Y-90814300D01*
X75523986Y-91117627D01*
X75557943Y-91419012D01*
X75557945Y-91419024D01*
X75557946Y-91419027D01*
X75565711Y-91453048D01*
X75625439Y-91714735D01*
X75625443Y-91714747D01*
X75725619Y-92001032D01*
X75857219Y-92274302D01*
X75857221Y-92274305D01*
X76018594Y-92531128D01*
X76207707Y-92768268D01*
X76422182Y-92982743D01*
X76659322Y-93171856D01*
X76916145Y-93333229D01*
X77189421Y-93464832D01*
X77286691Y-93498868D01*
X77475702Y-93565006D01*
X77475714Y-93565010D01*
X77771423Y-93632504D01*
X77771432Y-93632505D01*
X77771437Y-93632506D01*
X77946941Y-93652280D01*
X78072823Y-93666463D01*
X78072826Y-93666464D01*
X78072829Y-93666464D01*
X78376146Y-93666464D01*
X78376147Y-93666463D01*
X78530180Y-93649108D01*
X78677534Y-93632506D01*
X78677537Y-93632505D01*
X78677549Y-93632504D01*
X78973258Y-93565010D01*
X79259551Y-93464832D01*
X79532827Y-93333229D01*
X79789650Y-93171856D01*
X80026790Y-92982743D01*
X80241265Y-92768268D01*
X80430378Y-92531128D01*
X80591751Y-92274305D01*
X80723354Y-92001029D01*
X80823532Y-91714736D01*
X80891026Y-91419027D01*
X80924986Y-91117621D01*
X80924986Y-90814307D01*
X80898024Y-90575007D01*
X80891028Y-90512915D01*
X80891027Y-90512910D01*
X80891026Y-90512901D01*
X80823532Y-90217192D01*
X80723354Y-89930899D01*
X80591751Y-89657623D01*
X80430378Y-89400800D01*
X80241265Y-89163660D01*
X80026790Y-88949185D01*
X79789650Y-88760072D01*
X79532827Y-88598699D01*
X79532824Y-88598697D01*
X79299263Y-88486220D01*
X79247404Y-88439398D01*
X79229091Y-88371970D01*
X79250139Y-88305347D01*
X79303865Y-88260678D01*
X79353065Y-88250500D01*
X80817060Y-88250500D01*
X80884099Y-88270185D01*
X80904736Y-88286814D01*
X80951379Y-88333457D01*
X80989712Y-88371790D01*
X81120814Y-88459390D01*
X81120827Y-88459397D01*
X81266498Y-88519735D01*
X81266503Y-88519737D01*
X81421153Y-88550499D01*
X81421156Y-88550500D01*
X81421158Y-88550500D01*
X81578844Y-88550500D01*
X81578845Y-88550499D01*
X81733497Y-88519737D01*
X81879179Y-88459394D01*
X82010289Y-88371789D01*
X82121789Y-88260289D01*
X82209394Y-88129179D01*
X82269737Y-87983497D01*
X82300500Y-87828842D01*
X82300500Y-87671158D01*
X82300500Y-87671155D01*
X82300499Y-87671153D01*
X82295029Y-87643655D01*
X82269737Y-87516503D01*
X82262050Y-87497944D01*
X82209397Y-87370827D01*
X82209390Y-87370814D01*
X82121789Y-87239711D01*
X82121786Y-87239707D01*
X82010292Y-87128213D01*
X82010288Y-87128210D01*
X81879185Y-87040609D01*
X81879172Y-87040602D01*
X81733501Y-86980264D01*
X81733489Y-86980261D01*
X81578845Y-86949500D01*
X81578842Y-86949500D01*
X81421158Y-86949500D01*
X81414069Y-86949500D01*
X79120808Y-86949500D01*
X79053769Y-86929815D01*
X79033127Y-86913181D01*
X76436819Y-84316873D01*
X76403334Y-84255550D01*
X76400500Y-84229192D01*
X76400500Y-83899986D01*
X81100001Y-83899986D01*
X81110494Y-84002697D01*
X81165641Y-84169119D01*
X81165643Y-84169124D01*
X81257684Y-84318345D01*
X81381654Y-84442315D01*
X81530875Y-84534356D01*
X81530880Y-84534358D01*
X81697302Y-84589505D01*
X81697309Y-84589506D01*
X81800019Y-84599999D01*
X82149999Y-84599999D01*
X82650000Y-84599999D01*
X82999972Y-84599999D01*
X82999986Y-84599998D01*
X83102697Y-84589505D01*
X83269119Y-84534358D01*
X83269124Y-84534356D01*
X83418345Y-84442315D01*
X83542315Y-84318345D01*
X83634356Y-84169124D01*
X83634358Y-84169119D01*
X83689505Y-84002697D01*
X83689506Y-84002690D01*
X83699999Y-83899986D01*
X83700000Y-83899973D01*
X83700000Y-83050000D01*
X82650000Y-83050000D01*
X82650000Y-84599999D01*
X82149999Y-84599999D01*
X82150000Y-84599998D01*
X82150000Y-83050000D01*
X81100001Y-83050000D01*
X81100001Y-83899986D01*
X76400500Y-83899986D01*
X76400500Y-82749642D01*
X76420185Y-82682603D01*
X76472989Y-82636848D01*
X76542147Y-82626904D01*
X76605703Y-82655929D01*
X76635181Y-82700980D01*
X76637890Y-82699761D01*
X76640967Y-82706598D01*
X76640968Y-82706600D01*
X76640969Y-82706602D01*
X76724264Y-82844388D01*
X76724266Y-82844391D01*
X76838108Y-82958233D01*
X76838110Y-82958234D01*
X76838112Y-82958236D01*
X76975898Y-83041531D01*
X77129613Y-83089430D01*
X77196409Y-83095500D01*
X78803590Y-83095499D01*
X78803597Y-83095499D01*
X78870382Y-83089431D01*
X78870385Y-83089430D01*
X78870387Y-83089430D01*
X79024102Y-83041531D01*
X79161888Y-82958236D01*
X79173221Y-82946903D01*
X79209168Y-82910957D01*
X79275732Y-82844392D01*
X79275733Y-82844391D01*
X79275736Y-82844388D01*
X79359031Y-82706602D01*
X79406930Y-82552887D01*
X79413000Y-82486091D01*
X79412999Y-82053910D01*
X79412999Y-82053909D01*
X79412999Y-82053901D01*
X79406931Y-81987117D01*
X79406928Y-81987106D01*
X79359032Y-81833401D01*
X79359031Y-81833400D01*
X79359031Y-81833398D01*
X79277873Y-81699147D01*
X79260038Y-81631596D01*
X79277873Y-81570852D01*
X79359031Y-81436602D01*
X79406930Y-81282887D01*
X79413000Y-81216091D01*
X79412999Y-80783910D01*
X79412999Y-80783909D01*
X79412999Y-80783901D01*
X79406931Y-80717117D01*
X79406928Y-80717106D01*
X79359032Y-80563400D01*
X79359031Y-80563398D01*
X79331736Y-80518247D01*
X79277581Y-80428664D01*
X79259745Y-80361112D01*
X79277582Y-80300365D01*
X79358571Y-80166394D01*
X79358572Y-80166393D01*
X79406432Y-80012802D01*
X79406435Y-80012792D01*
X79409414Y-79980000D01*
X76590585Y-79980000D01*
X76593564Y-80012792D01*
X76593567Y-80012802D01*
X76641427Y-80166393D01*
X76641430Y-80166399D01*
X76642829Y-80168713D01*
X76643335Y-80170632D01*
X76644507Y-80173235D01*
X76644074Y-80173429D01*
X76660664Y-80236268D01*
X76639145Y-80302741D01*
X76585103Y-80347027D01*
X76560904Y-80354477D01*
X76460260Y-80374497D01*
X76460255Y-80374499D01*
X76341875Y-80423533D01*
X76341866Y-80423538D01*
X76235331Y-80494723D01*
X76235327Y-80494726D01*
X75244727Y-81485325D01*
X75244721Y-81485332D01*
X75185217Y-81574386D01*
X75185218Y-81574387D01*
X75173535Y-81591871D01*
X75124499Y-81710255D01*
X75124497Y-81710260D01*
X75121617Y-81724743D01*
X75089231Y-81786653D01*
X75028515Y-81821227D01*
X74958746Y-81817486D01*
X74902074Y-81776619D01*
X74878383Y-81724743D01*
X74875502Y-81710260D01*
X74875501Y-81710258D01*
X74875501Y-81710256D01*
X74826465Y-81591873D01*
X74826464Y-81591871D01*
X74826461Y-81591866D01*
X74755277Y-81485332D01*
X74755270Y-81485325D01*
X74664669Y-81394724D01*
X74323828Y-81053883D01*
X73962127Y-80692181D01*
X73928642Y-80630858D01*
X73933626Y-80561166D01*
X73975498Y-80505233D01*
X74040962Y-80480816D01*
X74049808Y-80480500D01*
X74443920Y-80480500D01*
X74541462Y-80461096D01*
X74588913Y-80451658D01*
X74725495Y-80395084D01*
X74793715Y-80349501D01*
X74848416Y-80312952D01*
X75582952Y-79578415D01*
X75627938Y-79511088D01*
X75665084Y-79455495D01*
X75709756Y-79347648D01*
X75721659Y-79318912D01*
X75750500Y-79173917D01*
X75750500Y-79026082D01*
X75750500Y-78064500D01*
X75770185Y-77997461D01*
X75822989Y-77951706D01*
X75874500Y-77940500D01*
X76498281Y-77940500D01*
X76565320Y-77960185D01*
X76611075Y-78012989D01*
X76621019Y-78082147D01*
X76616666Y-78101390D01*
X76593070Y-78177111D01*
X76591036Y-78199500D01*
X76587858Y-78234473D01*
X76587000Y-78243911D01*
X76587000Y-78676098D01*
X76593068Y-78742882D01*
X76593071Y-78742893D01*
X76640967Y-78896598D01*
X76640968Y-78896599D01*
X76640969Y-78896602D01*
X76722418Y-79031335D01*
X76740254Y-79098887D01*
X76722418Y-79159633D01*
X76641427Y-79293607D01*
X76593567Y-79447197D01*
X76593564Y-79447207D01*
X76590585Y-79479999D01*
X76590585Y-79480000D01*
X79409415Y-79480000D01*
X79409414Y-79479999D01*
X79406435Y-79447207D01*
X79406432Y-79447197D01*
X79358572Y-79293606D01*
X79358571Y-79293604D01*
X79277582Y-79159634D01*
X79259745Y-79092079D01*
X79277580Y-79031336D01*
X79359031Y-78896602D01*
X79406930Y-78742887D01*
X79413000Y-78676091D01*
X79412999Y-78243910D01*
X79412999Y-78243909D01*
X79412999Y-78243901D01*
X79406931Y-78177117D01*
X79406928Y-78177106D01*
X79383335Y-78101390D01*
X79382183Y-78031530D01*
X79418984Y-77972138D01*
X79482053Y-77942070D01*
X79501720Y-77940500D01*
X79886082Y-77940500D01*
X79886083Y-77940500D01*
X80027770Y-77940500D01*
X80094809Y-77960185D01*
X80115451Y-77976819D01*
X81063181Y-78924548D01*
X81096666Y-78985871D01*
X81099500Y-79012229D01*
X81099500Y-80300001D01*
X81099501Y-80300018D01*
X81110000Y-80402796D01*
X81110001Y-80402799D01*
X81146308Y-80512365D01*
X81165186Y-80569334D01*
X81257287Y-80718655D01*
X81257289Y-80718657D01*
X81381344Y-80842712D01*
X81465718Y-80894754D01*
X81512443Y-80946702D01*
X81523666Y-81015664D01*
X81495822Y-81079747D01*
X81465720Y-81105831D01*
X81381656Y-81157682D01*
X81257684Y-81281654D01*
X81165643Y-81430875D01*
X81165641Y-81430880D01*
X81110494Y-81597302D01*
X81110493Y-81597309D01*
X81100000Y-81700013D01*
X81100000Y-82550000D01*
X83699999Y-82550000D01*
X83699999Y-81700028D01*
X83699998Y-81700013D01*
X83689505Y-81597302D01*
X83634358Y-81430880D01*
X83634356Y-81430875D01*
X83542315Y-81281654D01*
X83418344Y-81157683D01*
X83418340Y-81157680D01*
X83334280Y-81105831D01*
X83287555Y-81053883D01*
X83276334Y-80984921D01*
X83304177Y-80920839D01*
X83334278Y-80894756D01*
X83418656Y-80842712D01*
X83542712Y-80718656D01*
X83634814Y-80569334D01*
X83689999Y-80402797D01*
X83700500Y-80300009D01*
X83700499Y-79489818D01*
X84900000Y-79489818D01*
X84900000Y-79710181D01*
X84934473Y-79927835D01*
X85002567Y-80137410D01*
X85102611Y-80333756D01*
X85148932Y-80397513D01*
X85584152Y-79962292D01*
X85591049Y-79978942D01*
X85678599Y-80109970D01*
X85790030Y-80221401D01*
X85921058Y-80308951D01*
X85937705Y-80315846D01*
X85502485Y-80751065D01*
X85502485Y-80751066D01*
X85566243Y-80797388D01*
X85762589Y-80897432D01*
X85972164Y-80965526D01*
X86189819Y-81000000D01*
X86410181Y-81000000D01*
X86627835Y-80965526D01*
X86837410Y-80897432D01*
X87033760Y-80797386D01*
X87097513Y-80751066D01*
X87097514Y-80751066D01*
X86662294Y-80315846D01*
X86678942Y-80308951D01*
X86809970Y-80221401D01*
X86921401Y-80109970D01*
X87008951Y-79978942D01*
X87015846Y-79962294D01*
X87451066Y-80397514D01*
X87451066Y-80397513D01*
X87497386Y-80333760D01*
X87597432Y-80137410D01*
X87665526Y-79927835D01*
X87700000Y-79710181D01*
X87700000Y-79489818D01*
X87699994Y-79489778D01*
X87999500Y-79489778D01*
X87999500Y-79710221D01*
X88033985Y-79927952D01*
X88102103Y-80137603D01*
X88102104Y-80137606D01*
X88159373Y-80250000D01*
X88202049Y-80333756D01*
X88202187Y-80334025D01*
X88331752Y-80512358D01*
X88331756Y-80512363D01*
X88487636Y-80668243D01*
X88487641Y-80668247D01*
X88597270Y-80747896D01*
X88665978Y-80797815D01*
X88768396Y-80850000D01*
X88862393Y-80897895D01*
X88862396Y-80897896D01*
X88933009Y-80920839D01*
X89072049Y-80966015D01*
X89289778Y-81000500D01*
X89289779Y-81000500D01*
X89510221Y-81000500D01*
X89510222Y-81000500D01*
X89727951Y-80966015D01*
X89937606Y-80897895D01*
X90134022Y-80797815D01*
X90312365Y-80668242D01*
X90468242Y-80512365D01*
X90597815Y-80334022D01*
X90697895Y-80137606D01*
X90766015Y-79927951D01*
X90800500Y-79710222D01*
X90800500Y-79489778D01*
X96299500Y-79489778D01*
X96299500Y-79710221D01*
X96333985Y-79927952D01*
X96402103Y-80137603D01*
X96402104Y-80137606D01*
X96459373Y-80250000D01*
X96502049Y-80333756D01*
X96502187Y-80334025D01*
X96631752Y-80512358D01*
X96631756Y-80512363D01*
X96787636Y-80668243D01*
X96787641Y-80668247D01*
X96897270Y-80747896D01*
X96965978Y-80797815D01*
X97068396Y-80850000D01*
X97162393Y-80897895D01*
X97162396Y-80897896D01*
X97233009Y-80920839D01*
X97372049Y-80966015D01*
X97589778Y-81000500D01*
X97589779Y-81000500D01*
X97810221Y-81000500D01*
X97810222Y-81000500D01*
X98027951Y-80966015D01*
X98237606Y-80897895D01*
X98434022Y-80797815D01*
X98612365Y-80668242D01*
X98768242Y-80512365D01*
X98897815Y-80334022D01*
X98997895Y-80137606D01*
X99066015Y-79927951D01*
X99100500Y-79710222D01*
X99100500Y-79489778D01*
X99066015Y-79272049D01*
X99007540Y-79092079D01*
X98997896Y-79062396D01*
X98997895Y-79062393D01*
X98937152Y-78943181D01*
X98897815Y-78865978D01*
X98863400Y-78818610D01*
X98768247Y-78687641D01*
X98768243Y-78687636D01*
X98612363Y-78531756D01*
X98612358Y-78531752D01*
X98434025Y-78402187D01*
X98434024Y-78402186D01*
X98434022Y-78402185D01*
X98371096Y-78370122D01*
X98237606Y-78302104D01*
X98237603Y-78302103D01*
X98027952Y-78233985D01*
X97919086Y-78216742D01*
X97810222Y-78199500D01*
X97589778Y-78199500D01*
X97517201Y-78210995D01*
X97372047Y-78233985D01*
X97162396Y-78302103D01*
X97162393Y-78302104D01*
X96965974Y-78402187D01*
X96787641Y-78531752D01*
X96787636Y-78531756D01*
X96631756Y-78687636D01*
X96631752Y-78687641D01*
X96502187Y-78865974D01*
X96402104Y-79062393D01*
X96402103Y-79062396D01*
X96333985Y-79272047D01*
X96299500Y-79489778D01*
X90800500Y-79489778D01*
X90766015Y-79272049D01*
X90707540Y-79092079D01*
X90697896Y-79062396D01*
X90697895Y-79062393D01*
X90637152Y-78943181D01*
X90597815Y-78865978D01*
X90563400Y-78818610D01*
X90468247Y-78687641D01*
X90468243Y-78687636D01*
X90312363Y-78531756D01*
X90312358Y-78531752D01*
X90134025Y-78402187D01*
X90134024Y-78402186D01*
X90134022Y-78402185D01*
X90071096Y-78370122D01*
X89937606Y-78302104D01*
X89937603Y-78302103D01*
X89727952Y-78233985D01*
X89619086Y-78216742D01*
X89510222Y-78199500D01*
X89289778Y-78199500D01*
X89217201Y-78210995D01*
X89072047Y-78233985D01*
X88862396Y-78302103D01*
X88862393Y-78302104D01*
X88665974Y-78402187D01*
X88487641Y-78531752D01*
X88487636Y-78531756D01*
X88331756Y-78687636D01*
X88331752Y-78687641D01*
X88202187Y-78865974D01*
X88102104Y-79062393D01*
X88102103Y-79062396D01*
X88033985Y-79272047D01*
X87999500Y-79489778D01*
X87699994Y-79489778D01*
X87665526Y-79272164D01*
X87597432Y-79062589D01*
X87497388Y-78866243D01*
X87451066Y-78802485D01*
X87451065Y-78802485D01*
X87015846Y-79237704D01*
X87008951Y-79221058D01*
X86921401Y-79090030D01*
X86809970Y-78978599D01*
X86678942Y-78891049D01*
X86662292Y-78884152D01*
X87097513Y-78448932D01*
X87033756Y-78402611D01*
X86837410Y-78302567D01*
X86627835Y-78234473D01*
X86410181Y-78200000D01*
X86189819Y-78200000D01*
X85972164Y-78234473D01*
X85762589Y-78302567D01*
X85566233Y-78402616D01*
X85502485Y-78448931D01*
X85502485Y-78448932D01*
X85937706Y-78884153D01*
X85921058Y-78891049D01*
X85790030Y-78978599D01*
X85678599Y-79090030D01*
X85591049Y-79221058D01*
X85584153Y-79237706D01*
X85148932Y-78802485D01*
X85148931Y-78802485D01*
X85102616Y-78866233D01*
X85002567Y-79062589D01*
X84934473Y-79272164D01*
X84900000Y-79489818D01*
X83700499Y-79489818D01*
X83700499Y-79173921D01*
X83700499Y-78496191D01*
X83700499Y-78099998D01*
X83700498Y-78099981D01*
X83689999Y-77997203D01*
X83689998Y-77997200D01*
X83678665Y-77962999D01*
X83634814Y-77830666D01*
X83542712Y-77681344D01*
X83418656Y-77557288D01*
X83269334Y-77465186D01*
X83102797Y-77410001D01*
X83102795Y-77410000D01*
X83000010Y-77399500D01*
X81799998Y-77399500D01*
X81799978Y-77399502D01*
X81732379Y-77406407D01*
X81663687Y-77393637D01*
X81632098Y-77370730D01*
X81411048Y-77149680D01*
X81377563Y-77088357D01*
X81382547Y-77018665D01*
X81424419Y-76962732D01*
X81489883Y-76938315D01*
X81498729Y-76937999D01*
X81825002Y-76937999D01*
X81825008Y-76937999D01*
X81927797Y-76927499D01*
X82094334Y-76872314D01*
X82243656Y-76780212D01*
X82367712Y-76656156D01*
X82367715Y-76656150D01*
X82372193Y-76650489D01*
X82374015Y-76651930D01*
X82417665Y-76612675D01*
X82471248Y-76600500D01*
X83928752Y-76600500D01*
X83995791Y-76620185D01*
X84026531Y-76651497D01*
X84027807Y-76650489D01*
X84032288Y-76656156D01*
X84156344Y-76780212D01*
X84305666Y-76872314D01*
X84472203Y-76927499D01*
X84574991Y-76938000D01*
X85625008Y-76937999D01*
X85625016Y-76937998D01*
X85625019Y-76937998D01*
X85681302Y-76932248D01*
X85727797Y-76927499D01*
X85894334Y-76872314D01*
X86043656Y-76780212D01*
X86167712Y-76656156D01*
X86167715Y-76656150D01*
X86172193Y-76650489D01*
X86174015Y-76651930D01*
X86217665Y-76612675D01*
X86271248Y-76600500D01*
X89973920Y-76600500D01*
X90071462Y-76581096D01*
X90118913Y-76571658D01*
X90255495Y-76515084D01*
X90325450Y-76468342D01*
X90378416Y-76432952D01*
X93482952Y-73328415D01*
X93510205Y-73287627D01*
X93565084Y-73205495D01*
X93601946Y-73116503D01*
X93621659Y-73068912D01*
X93650500Y-72923917D01*
X93650500Y-72776082D01*
X93650500Y-70039778D01*
X96299500Y-70039778D01*
X96299500Y-70260221D01*
X96333985Y-70477952D01*
X96402103Y-70687603D01*
X96402104Y-70687606D01*
X96450537Y-70782658D01*
X96502049Y-70883756D01*
X96502187Y-70884025D01*
X96631752Y-71062358D01*
X96631756Y-71062363D01*
X96787636Y-71218243D01*
X96787641Y-71218247D01*
X96878636Y-71284358D01*
X96965978Y-71347815D01*
X97085141Y-71408532D01*
X97162393Y-71447895D01*
X97162396Y-71447896D01*
X97242486Y-71473918D01*
X97372049Y-71516015D01*
X97589778Y-71550500D01*
X97589779Y-71550500D01*
X97810221Y-71550500D01*
X97810222Y-71550500D01*
X98027951Y-71516015D01*
X98237606Y-71447895D01*
X98434022Y-71347815D01*
X98612365Y-71218242D01*
X98768242Y-71062365D01*
X98897815Y-70884022D01*
X98997895Y-70687606D01*
X99066015Y-70477951D01*
X99100500Y-70260222D01*
X99100500Y-70039778D01*
X99066015Y-69822049D01*
X99016956Y-69671058D01*
X98997896Y-69612396D01*
X98997895Y-69612393D01*
X98910589Y-69441049D01*
X98897815Y-69415978D01*
X98851685Y-69352485D01*
X98768247Y-69237641D01*
X98768243Y-69237636D01*
X98612363Y-69081756D01*
X98612358Y-69081752D01*
X98434025Y-68952187D01*
X98434024Y-68952186D01*
X98434022Y-68952185D01*
X98371096Y-68920122D01*
X98237606Y-68852104D01*
X98237603Y-68852103D01*
X98027952Y-68783985D01*
X97919086Y-68766742D01*
X97810222Y-68749500D01*
X97589778Y-68749500D01*
X97517201Y-68760995D01*
X97372047Y-68783985D01*
X97162396Y-68852103D01*
X97162393Y-68852104D01*
X96965974Y-68952187D01*
X96787641Y-69081752D01*
X96787636Y-69081756D01*
X96631756Y-69237636D01*
X96631752Y-69237641D01*
X96502187Y-69415974D01*
X96402104Y-69612393D01*
X96402103Y-69612396D01*
X96333985Y-69822047D01*
X96299500Y-70039778D01*
X93650500Y-70039778D01*
X93650500Y-64426082D01*
X93650500Y-64426079D01*
X93621659Y-64281092D01*
X93621658Y-64281091D01*
X93621658Y-64281087D01*
X93596833Y-64221153D01*
X93565087Y-64144511D01*
X93565080Y-64144498D01*
X93482952Y-64021585D01*
X93441182Y-63979815D01*
X93378416Y-63917049D01*
X90486818Y-61025450D01*
X90453333Y-60964127D01*
X90450499Y-60937769D01*
X90450499Y-60049998D01*
X90450498Y-60049981D01*
X90439999Y-59947203D01*
X90439998Y-59947200D01*
X90411841Y-59862229D01*
X90384814Y-59780666D01*
X90292712Y-59631344D01*
X90168656Y-59507288D01*
X90019334Y-59415186D01*
X89852797Y-59360001D01*
X89852795Y-59360000D01*
X89750010Y-59349500D01*
X88949998Y-59349500D01*
X88949980Y-59349501D01*
X88847203Y-59360000D01*
X88847200Y-59360001D01*
X88680668Y-59415185D01*
X88680663Y-59415187D01*
X88531342Y-59507289D01*
X88407289Y-59631342D01*
X88315187Y-59780663D01*
X88315185Y-59780668D01*
X88291832Y-59851143D01*
X88260001Y-59947203D01*
X88260001Y-59947204D01*
X88260000Y-59947204D01*
X88249500Y-60049983D01*
X88249500Y-60937770D01*
X88229815Y-61004809D01*
X88213181Y-61025451D01*
X85575451Y-63663181D01*
X85514128Y-63696666D01*
X85487770Y-63699500D01*
X80474499Y-63699500D01*
X80407460Y-63679815D01*
X80361705Y-63627011D01*
X80350499Y-63575500D01*
X80350499Y-62899998D01*
X80350498Y-62899981D01*
X80339999Y-62797203D01*
X80339998Y-62797200D01*
X80284814Y-62630666D01*
X80192712Y-62481344D01*
X80068656Y-62357288D01*
X79975888Y-62300069D01*
X79919336Y-62265187D01*
X79919335Y-62265186D01*
X79919334Y-62265186D01*
X79919328Y-62265184D01*
X79885494Y-62253972D01*
X79828050Y-62214199D01*
X79801228Y-62149683D01*
X79800500Y-62136267D01*
X79800500Y-61701079D01*
X79780493Y-61600501D01*
X79780493Y-61600500D01*
X79771659Y-61556088D01*
X79718775Y-61428416D01*
X79715084Y-61419505D01*
X79638905Y-61305495D01*
X79632952Y-61296585D01*
X79632951Y-61296584D01*
X79632949Y-61296581D01*
X79161818Y-60825450D01*
X79128333Y-60764127D01*
X79125499Y-60737769D01*
X79125499Y-60237498D01*
X79125498Y-60237481D01*
X79114999Y-60134703D01*
X79114998Y-60134700D01*
X79107607Y-60112396D01*
X79059814Y-59968166D01*
X78967712Y-59818844D01*
X78843656Y-59694788D01*
X78840342Y-59692743D01*
X78838546Y-59690748D01*
X78837989Y-59690307D01*
X78838064Y-59690211D01*
X78793618Y-59640797D01*
X78782397Y-59571834D01*
X78810240Y-59507752D01*
X78840348Y-59481665D01*
X78843342Y-59479818D01*
X78967315Y-59355845D01*
X79059356Y-59206624D01*
X79059358Y-59206619D01*
X79114505Y-59040197D01*
X79114506Y-59040190D01*
X79124999Y-58937486D01*
X79125000Y-58937473D01*
X79125000Y-58800000D01*
X76675001Y-58800000D01*
X76675001Y-58937486D01*
X76685494Y-59040197D01*
X76740641Y-59206619D01*
X76740643Y-59206624D01*
X76832684Y-59355845D01*
X76956655Y-59479816D01*
X76956659Y-59479819D01*
X76959656Y-59481668D01*
X76961279Y-59483472D01*
X76962323Y-59484298D01*
X76962181Y-59484476D01*
X77006381Y-59533616D01*
X77017602Y-59602579D01*
X76989759Y-59666661D01*
X76959661Y-59692741D01*
X76956349Y-59694783D01*
X76956343Y-59694788D01*
X76832289Y-59818842D01*
X76740187Y-59968163D01*
X76740185Y-59968168D01*
X76713075Y-60049981D01*
X76685001Y-60134703D01*
X76685001Y-60134704D01*
X76685000Y-60134704D01*
X76674500Y-60237483D01*
X76674500Y-61012501D01*
X76674501Y-61012519D01*
X76685000Y-61115296D01*
X76685001Y-61115299D01*
X76711248Y-61194505D01*
X76740186Y-61281834D01*
X76832288Y-61431156D01*
X76956344Y-61555212D01*
X77105666Y-61647314D01*
X77272203Y-61702499D01*
X77374991Y-61713000D01*
X77875269Y-61712999D01*
X77942308Y-61732683D01*
X77962950Y-61749318D01*
X78262458Y-62048825D01*
X78295943Y-62110148D01*
X78290959Y-62179839D01*
X78249088Y-62235773D01*
X78213784Y-62254211D01*
X78180670Y-62265184D01*
X78180663Y-62265187D01*
X78031342Y-62357289D01*
X77907289Y-62481342D01*
X77815187Y-62630663D01*
X77815186Y-62630666D01*
X77760001Y-62797203D01*
X77760001Y-62797204D01*
X77760000Y-62797204D01*
X77749500Y-62899983D01*
X77749500Y-66000001D01*
X77749501Y-66000018D01*
X77760000Y-66102796D01*
X77760001Y-66102799D01*
X77808780Y-66250001D01*
X77815186Y-66269334D01*
X77907288Y-66418656D01*
X78031344Y-66542712D01*
X78180666Y-66634814D01*
X78347203Y-66689999D01*
X78449991Y-66700500D01*
X79650008Y-66700499D01*
X79752797Y-66689999D01*
X79919334Y-66634814D01*
X80068656Y-66542712D01*
X80192712Y-66418656D01*
X80284814Y-66269334D01*
X80339999Y-66102797D01*
X80350500Y-66000009D01*
X80350500Y-65324500D01*
X80370185Y-65257461D01*
X80422989Y-65211706D01*
X80474500Y-65200500D01*
X85923920Y-65200500D01*
X86021462Y-65181096D01*
X86068913Y-65171658D01*
X86205495Y-65115084D01*
X86273362Y-65069737D01*
X86273365Y-65069734D01*
X86273367Y-65069734D01*
X86302888Y-65050009D01*
X86328416Y-65032952D01*
X88782098Y-62579267D01*
X88843419Y-62545784D01*
X88882375Y-62543592D01*
X88949991Y-62550500D01*
X89750008Y-62550499D01*
X89817619Y-62543592D01*
X89886311Y-62556361D01*
X89917901Y-62579269D01*
X92113181Y-64774548D01*
X92146666Y-64835871D01*
X92149500Y-64862229D01*
X92149500Y-72487770D01*
X92129815Y-72554809D01*
X92113181Y-72575451D01*
X89625451Y-75063181D01*
X89564128Y-75096666D01*
X89537770Y-75099500D01*
X86271248Y-75099500D01*
X86213598Y-75082572D01*
X86211252Y-75082089D01*
X86210870Y-75081771D01*
X86204209Y-75079815D01*
X86184239Y-75063848D01*
X86173569Y-75053339D01*
X86167712Y-75043844D01*
X86043656Y-74919788D01*
X86028416Y-74910388D01*
X86018431Y-74900554D01*
X86007990Y-74881776D01*
X85993618Y-74865797D01*
X85991347Y-74851842D01*
X85984479Y-74839489D01*
X85985848Y-74818041D01*
X85982397Y-74796834D01*
X85988030Y-74783868D01*
X85988931Y-74769761D01*
X86001677Y-74752459D01*
X86010240Y-74732752D01*
X86026708Y-74718482D01*
X86030373Y-74713509D01*
X86034083Y-74712092D01*
X86040348Y-74706665D01*
X86043342Y-74704818D01*
X86167315Y-74580845D01*
X86259356Y-74431624D01*
X86259358Y-74431619D01*
X86314505Y-74265197D01*
X86314506Y-74265190D01*
X86324999Y-74162486D01*
X86325000Y-74162473D01*
X86325000Y-74025000D01*
X83875001Y-74025000D01*
X83875001Y-74162486D01*
X83885494Y-74265197D01*
X83940641Y-74431619D01*
X83940643Y-74431624D01*
X84032684Y-74580845D01*
X84156655Y-74704816D01*
X84156659Y-74704819D01*
X84159656Y-74706668D01*
X84161279Y-74708472D01*
X84162323Y-74709298D01*
X84162181Y-74709476D01*
X84206381Y-74758616D01*
X84217602Y-74827579D01*
X84189759Y-74891661D01*
X84181568Y-74900554D01*
X84171580Y-74910390D01*
X84156344Y-74919788D01*
X84032288Y-75043844D01*
X84026430Y-75053339D01*
X84015761Y-75063848D01*
X83997631Y-75073568D01*
X83982335Y-75087325D01*
X83964355Y-75091410D01*
X83954184Y-75096864D01*
X83943928Y-75096051D01*
X83928752Y-75099500D01*
X82471248Y-75099500D01*
X82404209Y-75079815D01*
X82373468Y-75048502D01*
X82372193Y-75049511D01*
X82367711Y-75043843D01*
X82243657Y-74919789D01*
X82243656Y-74919788D01*
X82240342Y-74917743D01*
X82238546Y-74915748D01*
X82237989Y-74915307D01*
X82238064Y-74915211D01*
X82193618Y-74865797D01*
X82182397Y-74796834D01*
X82210240Y-74732752D01*
X82240348Y-74706665D01*
X82243342Y-74704818D01*
X82367315Y-74580845D01*
X82459356Y-74431624D01*
X82459358Y-74431619D01*
X82514505Y-74265197D01*
X82514506Y-74265190D01*
X82524999Y-74162486D01*
X82525000Y-74162473D01*
X82525000Y-74025000D01*
X80075001Y-74025000D01*
X80075001Y-74162486D01*
X80085494Y-74265197D01*
X80140641Y-74431619D01*
X80140643Y-74431624D01*
X80232684Y-74580845D01*
X80356655Y-74704816D01*
X80356659Y-74704819D01*
X80359656Y-74706668D01*
X80361279Y-74708472D01*
X80362323Y-74709298D01*
X80362181Y-74709476D01*
X80406381Y-74758616D01*
X80417602Y-74827579D01*
X80389759Y-74891661D01*
X80359661Y-74917741D01*
X80356349Y-74919783D01*
X80356343Y-74919788D01*
X80232289Y-75043842D01*
X80140187Y-75193163D01*
X80140186Y-75193166D01*
X80085001Y-75359703D01*
X80085001Y-75359704D01*
X80085000Y-75359704D01*
X80074500Y-75462483D01*
X80074500Y-75962769D01*
X80054815Y-76029808D01*
X80038181Y-76050450D01*
X79685451Y-76403181D01*
X79624128Y-76436666D01*
X79597770Y-76439500D01*
X79501196Y-76439500D01*
X79434157Y-76419815D01*
X79388402Y-76367011D01*
X79378458Y-76297853D01*
X79382810Y-76278610D01*
X79406434Y-76202794D01*
X79406435Y-76202792D01*
X79409414Y-76170000D01*
X76590585Y-76170000D01*
X76593564Y-76202792D01*
X76593565Y-76202794D01*
X76617190Y-76278610D01*
X76618340Y-76348471D01*
X76581539Y-76407863D01*
X76518470Y-76437931D01*
X76498804Y-76439500D01*
X73326196Y-76439500D01*
X73259157Y-76419815D01*
X73213402Y-76367011D01*
X73203458Y-76297853D01*
X73207810Y-76278610D01*
X73231434Y-76202794D01*
X73231435Y-76202792D01*
X73234414Y-76170000D01*
X70415585Y-76170000D01*
X70417998Y-76196557D01*
X70404461Y-76265102D01*
X70356013Y-76315448D01*
X70288038Y-76331608D01*
X70248829Y-76318016D01*
X70248526Y-76318008D01*
X70248042Y-76317743D01*
X70222946Y-76309044D01*
X70214307Y-76302939D01*
X70203416Y-76292048D01*
X70121789Y-76237508D01*
X70120440Y-76236606D01*
X70120425Y-76236596D01*
X70080492Y-76209914D01*
X70080490Y-76209913D01*
X69943917Y-76153343D01*
X69943907Y-76153340D01*
X69798920Y-76124500D01*
X69798918Y-76124500D01*
X69471248Y-76124500D01*
X69413598Y-76107572D01*
X69411252Y-76107089D01*
X69410870Y-76106771D01*
X69404209Y-76104815D01*
X69384239Y-76088848D01*
X69373569Y-76078339D01*
X69367712Y-76068844D01*
X69243656Y-75944788D01*
X69228416Y-75935388D01*
X69218431Y-75925554D01*
X69207990Y-75906776D01*
X69193618Y-75890797D01*
X69191347Y-75876842D01*
X69184479Y-75864489D01*
X69185848Y-75843041D01*
X69182397Y-75821834D01*
X69188030Y-75808868D01*
X69188931Y-75794761D01*
X69201677Y-75777459D01*
X69210240Y-75757752D01*
X69226708Y-75743482D01*
X69230373Y-75738509D01*
X69234083Y-75737092D01*
X69240348Y-75731665D01*
X69243342Y-75729818D01*
X69303161Y-75669999D01*
X70415585Y-75669999D01*
X70415585Y-75670000D01*
X71575000Y-75670000D01*
X72075000Y-75670000D01*
X73234415Y-75670000D01*
X73234414Y-75669999D01*
X76590585Y-75669999D01*
X76590585Y-75670000D01*
X77750000Y-75670000D01*
X78250000Y-75670000D01*
X79409415Y-75670000D01*
X79409414Y-75669999D01*
X79406435Y-75637207D01*
X79406432Y-75637197D01*
X79358572Y-75483606D01*
X79358571Y-75483604D01*
X79277290Y-75349151D01*
X79259453Y-75281596D01*
X79277290Y-75220849D01*
X79358571Y-75086395D01*
X79358572Y-75086393D01*
X79406432Y-74932802D01*
X79406435Y-74932792D01*
X79409414Y-74900000D01*
X78250000Y-74900000D01*
X78250000Y-75670000D01*
X77750000Y-75670000D01*
X77750000Y-74900000D01*
X76590585Y-74900000D01*
X76593564Y-74932792D01*
X76593567Y-74932802D01*
X76641427Y-75086392D01*
X76722710Y-75220850D01*
X76740546Y-75288405D01*
X76722710Y-75349150D01*
X76641427Y-75483607D01*
X76593567Y-75637197D01*
X76593564Y-75637207D01*
X76590585Y-75669999D01*
X73234414Y-75669999D01*
X73231435Y-75637207D01*
X73231432Y-75637197D01*
X73183572Y-75483606D01*
X73183571Y-75483604D01*
X73102290Y-75349151D01*
X73084453Y-75281596D01*
X73102290Y-75220849D01*
X73183571Y-75086395D01*
X73183572Y-75086393D01*
X73231432Y-74932802D01*
X73231435Y-74932792D01*
X73234414Y-74900000D01*
X72075000Y-74900000D01*
X72075000Y-75670000D01*
X71575000Y-75670000D01*
X71575000Y-74900000D01*
X70415585Y-74900000D01*
X70418564Y-74932792D01*
X70418567Y-74932802D01*
X70466427Y-75086392D01*
X70547710Y-75220850D01*
X70565546Y-75288405D01*
X70547710Y-75349150D01*
X70466427Y-75483607D01*
X70418567Y-75637197D01*
X70418564Y-75637207D01*
X70415585Y-75669999D01*
X69303161Y-75669999D01*
X69367315Y-75605845D01*
X69459356Y-75456624D01*
X69459358Y-75456619D01*
X69514505Y-75290197D01*
X69514506Y-75290190D01*
X69524999Y-75187486D01*
X69525000Y-75187473D01*
X69525000Y-75050000D01*
X67075001Y-75050000D01*
X67075001Y-75187486D01*
X67085494Y-75290197D01*
X67140641Y-75456619D01*
X67140643Y-75456624D01*
X67232684Y-75605845D01*
X67356655Y-75729816D01*
X67356659Y-75729819D01*
X67359656Y-75731668D01*
X67361279Y-75733472D01*
X67362323Y-75734298D01*
X67362181Y-75734476D01*
X67406381Y-75783616D01*
X67417602Y-75852579D01*
X67389759Y-75916661D01*
X67381568Y-75925554D01*
X67371580Y-75935390D01*
X67356344Y-75944788D01*
X67232288Y-76068844D01*
X67226430Y-76078339D01*
X67215761Y-76088848D01*
X67197631Y-76098568D01*
X67182335Y-76112325D01*
X67164355Y-76116410D01*
X67154184Y-76121864D01*
X67143928Y-76121051D01*
X67128752Y-76124500D01*
X63637229Y-76124500D01*
X63570190Y-76104815D01*
X63549548Y-76088181D01*
X61958412Y-74497045D01*
X61873880Y-74412513D01*
X67075000Y-74412513D01*
X67075000Y-74550000D01*
X68050000Y-74550000D01*
X68550000Y-74550000D01*
X69524999Y-74550000D01*
X69524999Y-74412528D01*
X69524998Y-74412513D01*
X69514505Y-74309802D01*
X69459358Y-74143380D01*
X69459356Y-74143375D01*
X69367315Y-73994154D01*
X69243345Y-73870184D01*
X69094124Y-73778143D01*
X69094119Y-73778141D01*
X68927697Y-73722994D01*
X68927690Y-73722993D01*
X68824986Y-73712500D01*
X68550000Y-73712500D01*
X68550000Y-74550000D01*
X68050000Y-74550000D01*
X68050000Y-73712500D01*
X67775029Y-73712500D01*
X67775012Y-73712501D01*
X67672302Y-73722994D01*
X67505880Y-73778141D01*
X67505875Y-73778143D01*
X67356654Y-73870184D01*
X67232684Y-73994154D01*
X67140643Y-74143375D01*
X67140641Y-74143380D01*
X67085494Y-74309802D01*
X67085493Y-74309809D01*
X67075000Y-74412513D01*
X61873880Y-74412513D01*
X61057458Y-73596091D01*
X59232521Y-71771153D01*
X67799500Y-71771153D01*
X67799500Y-71928846D01*
X67830261Y-72083489D01*
X67830264Y-72083501D01*
X67890602Y-72229172D01*
X67890609Y-72229185D01*
X67978210Y-72360288D01*
X67978213Y-72360292D01*
X68089707Y-72471786D01*
X68089711Y-72471789D01*
X68220814Y-72559390D01*
X68220827Y-72559397D01*
X68308230Y-72595599D01*
X68366503Y-72619737D01*
X68433580Y-72633079D01*
X68495488Y-72665461D01*
X68497068Y-72667014D01*
X69715325Y-73885272D01*
X69715328Y-73885274D01*
X69715331Y-73885277D01*
X69818757Y-73954383D01*
X69818759Y-73954385D01*
X69821114Y-73955958D01*
X69821873Y-73956465D01*
X69940256Y-74005501D01*
X69940260Y-74005501D01*
X69940261Y-74005502D01*
X70065928Y-74030500D01*
X70065931Y-74030500D01*
X70194069Y-74030500D01*
X70357262Y-74030500D01*
X70424301Y-74050185D01*
X70470056Y-74102989D01*
X70480000Y-74172147D01*
X70467887Y-74206035D01*
X70469507Y-74206765D01*
X70466427Y-74213606D01*
X70418567Y-74367197D01*
X70418564Y-74367207D01*
X70415585Y-74399999D01*
X70415585Y-74400000D01*
X73234415Y-74400000D01*
X73234414Y-74399999D01*
X73231435Y-74367207D01*
X73231432Y-74367197D01*
X73183572Y-74213606D01*
X73183571Y-74213604D01*
X73102582Y-74079634D01*
X73084745Y-74012079D01*
X73102580Y-73951336D01*
X73184031Y-73816602D01*
X73231930Y-73662887D01*
X73238000Y-73596091D01*
X73237999Y-73271153D01*
X74149500Y-73271153D01*
X74149500Y-73428846D01*
X74180261Y-73583489D01*
X74180264Y-73583501D01*
X74240602Y-73729172D01*
X74240609Y-73729185D01*
X74328210Y-73860288D01*
X74328213Y-73860292D01*
X74439707Y-73971786D01*
X74439711Y-73971789D01*
X74570814Y-74059390D01*
X74570827Y-74059397D01*
X74676069Y-74102989D01*
X74716503Y-74119737D01*
X74835364Y-74143380D01*
X74871153Y-74150499D01*
X74871156Y-74150500D01*
X74871158Y-74150500D01*
X75028844Y-74150500D01*
X75028845Y-74150499D01*
X75183497Y-74119737D01*
X75280618Y-74079508D01*
X75329177Y-74059395D01*
X75329181Y-74059393D01*
X75341147Y-74051398D01*
X75407824Y-74030520D01*
X75410037Y-74030500D01*
X76532262Y-74030500D01*
X76599301Y-74050185D01*
X76645056Y-74102989D01*
X76655000Y-74172147D01*
X76642887Y-74206035D01*
X76644507Y-74206765D01*
X76641427Y-74213606D01*
X76593567Y-74367197D01*
X76593564Y-74367207D01*
X76590585Y-74399999D01*
X76590585Y-74400000D01*
X79409415Y-74400000D01*
X79409414Y-74399999D01*
X79406435Y-74367207D01*
X79406432Y-74367197D01*
X79358572Y-74213606D01*
X79358571Y-74213604D01*
X79277582Y-74079634D01*
X79259745Y-74012079D01*
X79277580Y-73951336D01*
X79359031Y-73816602D01*
X79406930Y-73662887D01*
X79413000Y-73596091D01*
X79412999Y-73387513D01*
X80075000Y-73387513D01*
X80075000Y-73525000D01*
X81050000Y-73525000D01*
X81550000Y-73525000D01*
X82524999Y-73525000D01*
X82524999Y-73387529D01*
X82524998Y-73387513D01*
X83875000Y-73387513D01*
X83875000Y-73525000D01*
X84850000Y-73525000D01*
X85350000Y-73525000D01*
X86324999Y-73525000D01*
X86324999Y-73387528D01*
X86324998Y-73387513D01*
X86314505Y-73284802D01*
X86259358Y-73118380D01*
X86259356Y-73118375D01*
X86167315Y-72969154D01*
X86043345Y-72845184D01*
X85894124Y-72753143D01*
X85894119Y-72753141D01*
X85727697Y-72697994D01*
X85727690Y-72697993D01*
X85624986Y-72687500D01*
X85350000Y-72687500D01*
X85350000Y-73525000D01*
X84850000Y-73525000D01*
X84850000Y-72687500D01*
X84575029Y-72687500D01*
X84575012Y-72687501D01*
X84472302Y-72697994D01*
X84305880Y-72753141D01*
X84305875Y-72753143D01*
X84156654Y-72845184D01*
X84032684Y-72969154D01*
X83940643Y-73118375D01*
X83940641Y-73118380D01*
X83885494Y-73284802D01*
X83885493Y-73284809D01*
X83875000Y-73387513D01*
X82524998Y-73387513D01*
X82524998Y-73387512D01*
X82514505Y-73284802D01*
X82459358Y-73118380D01*
X82459356Y-73118375D01*
X82367315Y-72969154D01*
X82243345Y-72845184D01*
X82094124Y-72753143D01*
X82094119Y-72753141D01*
X81927697Y-72697994D01*
X81927690Y-72697993D01*
X81824986Y-72687500D01*
X81550000Y-72687500D01*
X81550000Y-73525000D01*
X81050000Y-73525000D01*
X81050000Y-72687500D01*
X80775029Y-72687500D01*
X80775012Y-72687501D01*
X80672302Y-72697994D01*
X80505880Y-72753141D01*
X80505875Y-72753143D01*
X80356654Y-72845184D01*
X80232684Y-72969154D01*
X80140643Y-73118375D01*
X80140641Y-73118380D01*
X80085494Y-73284802D01*
X80085493Y-73284809D01*
X80075000Y-73387513D01*
X79412999Y-73387513D01*
X79412999Y-73328417D01*
X79412999Y-73163901D01*
X79406931Y-73097117D01*
X79406928Y-73097106D01*
X79359032Y-72943401D01*
X79359031Y-72943400D01*
X79359031Y-72943398D01*
X79275736Y-72805612D01*
X79275734Y-72805610D01*
X79275733Y-72805608D01*
X79161891Y-72691766D01*
X79154834Y-72687500D01*
X79024102Y-72608469D01*
X78870387Y-72560570D01*
X78870385Y-72560569D01*
X78870383Y-72560569D01*
X78823617Y-72556319D01*
X78803591Y-72554500D01*
X78803588Y-72554500D01*
X77196401Y-72554500D01*
X77129617Y-72560568D01*
X77129606Y-72560571D01*
X76975901Y-72608467D01*
X76838108Y-72691766D01*
X76838107Y-72691767D01*
X76836694Y-72693181D01*
X76835403Y-72693885D01*
X76832203Y-72696393D01*
X76831786Y-72695860D01*
X76775371Y-72726666D01*
X76749013Y-72729500D01*
X75499834Y-72729500D01*
X75432795Y-72709815D01*
X75430943Y-72708602D01*
X75329185Y-72640609D01*
X75329172Y-72640602D01*
X75183501Y-72580264D01*
X75183489Y-72580261D01*
X75028845Y-72549500D01*
X75028842Y-72549500D01*
X74871158Y-72549500D01*
X74871155Y-72549500D01*
X74716510Y-72580261D01*
X74716498Y-72580264D01*
X74570827Y-72640602D01*
X74570814Y-72640609D01*
X74439711Y-72728210D01*
X74439707Y-72728213D01*
X74328213Y-72839707D01*
X74328210Y-72839711D01*
X74240609Y-72970814D01*
X74240602Y-72970827D01*
X74180264Y-73116498D01*
X74180261Y-73116510D01*
X74149500Y-73271153D01*
X73237999Y-73271153D01*
X73237999Y-73163910D01*
X73237999Y-73163901D01*
X73231931Y-73097117D01*
X73231928Y-73097106D01*
X73184032Y-72943401D01*
X73184031Y-72943400D01*
X73184031Y-72943398D01*
X73100736Y-72805612D01*
X73100734Y-72805610D01*
X73100733Y-72805608D01*
X72986891Y-72691766D01*
X72979834Y-72687500D01*
X72849102Y-72608469D01*
X72695387Y-72560570D01*
X72695385Y-72560569D01*
X72695383Y-72560569D01*
X72648617Y-72556319D01*
X72628591Y-72554500D01*
X72628588Y-72554500D01*
X71021401Y-72554500D01*
X70954617Y-72560568D01*
X70954606Y-72560571D01*
X70800901Y-72608467D01*
X70663108Y-72691766D01*
X70663107Y-72691767D01*
X70661694Y-72693181D01*
X70660403Y-72693885D01*
X70657203Y-72696393D01*
X70656786Y-72695860D01*
X70600371Y-72726666D01*
X70574013Y-72729500D01*
X70450808Y-72729500D01*
X70383769Y-72709815D01*
X70363127Y-72693181D01*
X69417015Y-71747069D01*
X69383530Y-71685746D01*
X69383093Y-71683652D01*
X69369737Y-71616503D01*
X69328114Y-71516015D01*
X69309397Y-71470827D01*
X69309390Y-71470814D01*
X69262064Y-71399986D01*
X77750001Y-71399986D01*
X77760494Y-71502697D01*
X77815641Y-71669119D01*
X77815643Y-71669124D01*
X77907684Y-71818345D01*
X78031654Y-71942315D01*
X78180875Y-72034356D01*
X78180880Y-72034358D01*
X78347302Y-72089505D01*
X78347309Y-72089506D01*
X78450019Y-72099999D01*
X78799999Y-72099999D01*
X79300000Y-72099999D01*
X79649972Y-72099999D01*
X79649986Y-72099998D01*
X79752697Y-72089505D01*
X79919119Y-72034358D01*
X79919124Y-72034356D01*
X80068345Y-71942315D01*
X80192315Y-71818345D01*
X80284356Y-71669124D01*
X80284358Y-71669119D01*
X80339505Y-71502697D01*
X80339506Y-71502690D01*
X80349999Y-71399986D01*
X80350000Y-71399973D01*
X80350000Y-70100000D01*
X79300000Y-70100000D01*
X79300000Y-72099999D01*
X78799999Y-72099999D01*
X78800000Y-72099998D01*
X78800000Y-70100000D01*
X77750001Y-70100000D01*
X77750001Y-71399986D01*
X69262064Y-71399986D01*
X69221789Y-71339711D01*
X69221786Y-71339707D01*
X69110292Y-71228213D01*
X69110288Y-71228210D01*
X68979185Y-71140609D01*
X68979172Y-71140602D01*
X68833501Y-71080264D01*
X68833489Y-71080261D01*
X68678845Y-71049500D01*
X68678842Y-71049500D01*
X68521158Y-71049500D01*
X68521155Y-71049500D01*
X68366510Y-71080261D01*
X68366498Y-71080264D01*
X68220827Y-71140602D01*
X68220814Y-71140609D01*
X68089711Y-71228210D01*
X68089707Y-71228213D01*
X67978213Y-71339707D01*
X67978210Y-71339711D01*
X67890609Y-71470814D01*
X67890602Y-71470827D01*
X67830264Y-71616498D01*
X67830261Y-71616510D01*
X67799500Y-71771153D01*
X59232521Y-71771153D01*
X58586819Y-71125451D01*
X58553334Y-71064128D01*
X58550500Y-71037770D01*
X58550500Y-69939778D01*
X58827000Y-69939778D01*
X58827000Y-70160222D01*
X58844242Y-70269086D01*
X58861485Y-70377952D01*
X58929603Y-70587603D01*
X58929604Y-70587606D01*
X58980558Y-70687606D01*
X59029549Y-70783756D01*
X59029687Y-70784025D01*
X59159252Y-70962358D01*
X59159256Y-70962363D01*
X59315136Y-71118243D01*
X59315141Y-71118247D01*
X59417088Y-71192315D01*
X59493478Y-71247815D01*
X59597986Y-71301065D01*
X59689893Y-71347895D01*
X59689896Y-71347896D01*
X59794721Y-71381955D01*
X59899549Y-71416015D01*
X60117278Y-71450500D01*
X60117279Y-71450500D01*
X60337721Y-71450500D01*
X60337722Y-71450500D01*
X60555451Y-71416015D01*
X60765106Y-71347895D01*
X60961522Y-71247815D01*
X61139865Y-71118242D01*
X61295742Y-70962365D01*
X61425315Y-70784022D01*
X61525395Y-70587606D01*
X61593515Y-70377951D01*
X61628000Y-70160222D01*
X61628000Y-69939818D01*
X61927500Y-69939818D01*
X61927500Y-70160181D01*
X61961973Y-70377835D01*
X62030067Y-70587410D01*
X62130111Y-70783756D01*
X62176432Y-70847513D01*
X62611652Y-70412292D01*
X62618549Y-70428942D01*
X62706099Y-70559970D01*
X62817530Y-70671401D01*
X62948558Y-70758951D01*
X62965205Y-70765846D01*
X62529985Y-71201065D01*
X62529985Y-71201066D01*
X62593743Y-71247388D01*
X62790089Y-71347432D01*
X62999664Y-71415526D01*
X63217319Y-71450000D01*
X63437681Y-71450000D01*
X63655335Y-71415526D01*
X63864910Y-71347432D01*
X64061260Y-71247386D01*
X64125013Y-71201066D01*
X64125014Y-71201066D01*
X63689794Y-70765846D01*
X63706442Y-70758951D01*
X63837470Y-70671401D01*
X63948901Y-70559970D01*
X64036451Y-70428942D01*
X64043346Y-70412294D01*
X64478566Y-70847514D01*
X64478566Y-70847513D01*
X64524886Y-70783760D01*
X64593048Y-70649986D01*
X70500001Y-70649986D01*
X70510494Y-70752697D01*
X70565641Y-70919119D01*
X70565643Y-70919124D01*
X70657684Y-71068345D01*
X70781654Y-71192315D01*
X70930875Y-71284356D01*
X70930880Y-71284358D01*
X71097302Y-71339505D01*
X71097309Y-71339506D01*
X71200019Y-71349999D01*
X71549999Y-71349999D01*
X72050000Y-71349999D01*
X72399972Y-71349999D01*
X72399986Y-71349998D01*
X72502697Y-71339505D01*
X72669119Y-71284358D01*
X72669124Y-71284356D01*
X72818345Y-71192315D01*
X72942315Y-71068345D01*
X73034356Y-70919124D01*
X73034358Y-70919119D01*
X73089505Y-70752697D01*
X73089506Y-70752690D01*
X73099999Y-70649986D01*
X73100000Y-70649973D01*
X73100000Y-70039818D01*
X84900000Y-70039818D01*
X84900000Y-70260181D01*
X84934473Y-70477835D01*
X85002567Y-70687410D01*
X85102611Y-70883756D01*
X85148932Y-70947513D01*
X85584152Y-70512292D01*
X85591049Y-70528942D01*
X85678599Y-70659970D01*
X85790030Y-70771401D01*
X85921058Y-70858951D01*
X85937705Y-70865846D01*
X85502485Y-71301065D01*
X85502485Y-71301066D01*
X85566243Y-71347388D01*
X85762589Y-71447432D01*
X85972164Y-71515526D01*
X86189819Y-71550000D01*
X86410181Y-71550000D01*
X86627835Y-71515526D01*
X86837410Y-71447432D01*
X87033760Y-71347386D01*
X87097513Y-71301066D01*
X87097514Y-71301066D01*
X86662294Y-70865846D01*
X86678942Y-70858951D01*
X86809970Y-70771401D01*
X86921401Y-70659970D01*
X87008951Y-70528942D01*
X87015846Y-70512294D01*
X87451066Y-70947514D01*
X87451066Y-70947513D01*
X87497386Y-70883760D01*
X87597432Y-70687410D01*
X87665526Y-70477835D01*
X87700000Y-70260181D01*
X87700000Y-70039818D01*
X87699994Y-70039778D01*
X87999500Y-70039778D01*
X87999500Y-70260221D01*
X88033985Y-70477952D01*
X88102103Y-70687603D01*
X88102104Y-70687606D01*
X88150537Y-70782658D01*
X88202049Y-70883756D01*
X88202187Y-70884025D01*
X88331752Y-71062358D01*
X88331756Y-71062363D01*
X88487636Y-71218243D01*
X88487641Y-71218247D01*
X88578636Y-71284358D01*
X88665978Y-71347815D01*
X88785141Y-71408532D01*
X88862393Y-71447895D01*
X88862396Y-71447896D01*
X88942486Y-71473918D01*
X89072049Y-71516015D01*
X89289778Y-71550500D01*
X89289779Y-71550500D01*
X89510221Y-71550500D01*
X89510222Y-71550500D01*
X89727951Y-71516015D01*
X89937606Y-71447895D01*
X90134022Y-71347815D01*
X90312365Y-71218242D01*
X90468242Y-71062365D01*
X90597815Y-70884022D01*
X90697895Y-70687606D01*
X90766015Y-70477951D01*
X90800500Y-70260222D01*
X90800500Y-70039778D01*
X90766015Y-69822049D01*
X90716956Y-69671058D01*
X90697896Y-69612396D01*
X90697895Y-69612393D01*
X90610589Y-69441049D01*
X90597815Y-69415978D01*
X90551685Y-69352485D01*
X90468247Y-69237641D01*
X90468243Y-69237636D01*
X90312363Y-69081756D01*
X90312358Y-69081752D01*
X90134025Y-68952187D01*
X90134024Y-68952186D01*
X90134022Y-68952185D01*
X90071096Y-68920122D01*
X89937606Y-68852104D01*
X89937603Y-68852103D01*
X89727952Y-68783985D01*
X89619086Y-68766742D01*
X89510222Y-68749500D01*
X89289778Y-68749500D01*
X89217201Y-68760995D01*
X89072047Y-68783985D01*
X88862396Y-68852103D01*
X88862393Y-68852104D01*
X88665974Y-68952187D01*
X88487641Y-69081752D01*
X88487636Y-69081756D01*
X88331756Y-69237636D01*
X88331752Y-69237641D01*
X88202187Y-69415974D01*
X88102104Y-69612393D01*
X88102103Y-69612396D01*
X88033985Y-69822047D01*
X87999500Y-70039778D01*
X87699994Y-70039778D01*
X87665526Y-69822164D01*
X87597432Y-69612589D01*
X87497388Y-69416243D01*
X87451066Y-69352485D01*
X87451065Y-69352485D01*
X87015846Y-69787704D01*
X87008951Y-69771058D01*
X86921401Y-69640030D01*
X86809970Y-69528599D01*
X86678942Y-69441049D01*
X86662292Y-69434152D01*
X87097513Y-68998932D01*
X87033756Y-68952611D01*
X86837410Y-68852567D01*
X86627835Y-68784473D01*
X86410181Y-68750000D01*
X86189819Y-68750000D01*
X85972164Y-68784473D01*
X85762589Y-68852567D01*
X85566233Y-68952616D01*
X85502485Y-68998931D01*
X85502485Y-68998932D01*
X85937706Y-69434153D01*
X85921058Y-69441049D01*
X85790030Y-69528599D01*
X85678599Y-69640030D01*
X85591049Y-69771058D01*
X85584153Y-69787706D01*
X85148932Y-69352485D01*
X85148931Y-69352485D01*
X85102616Y-69416233D01*
X85002567Y-69612589D01*
X84934473Y-69822164D01*
X84900000Y-70039818D01*
X73100000Y-70039818D01*
X73100000Y-69600000D01*
X72050000Y-69600000D01*
X72050000Y-71349999D01*
X71549999Y-71349999D01*
X71550000Y-71349998D01*
X71550000Y-69600000D01*
X70500001Y-69600000D01*
X70500001Y-70649986D01*
X64593048Y-70649986D01*
X64624932Y-70587410D01*
X64693026Y-70377835D01*
X64727500Y-70160181D01*
X64727500Y-69939818D01*
X64693026Y-69722164D01*
X64649095Y-69586956D01*
X64649094Y-69586954D01*
X64624933Y-69512591D01*
X64524888Y-69316243D01*
X64478566Y-69252485D01*
X64478565Y-69252485D01*
X64043346Y-69687704D01*
X64036451Y-69671058D01*
X63948901Y-69540030D01*
X63837470Y-69428599D01*
X63706442Y-69341049D01*
X63689792Y-69334152D01*
X64125013Y-68898932D01*
X64061256Y-68852611D01*
X63864910Y-68752567D01*
X63655335Y-68684473D01*
X63437681Y-68650000D01*
X63217319Y-68650000D01*
X62999664Y-68684473D01*
X62790089Y-68752567D01*
X62593733Y-68852616D01*
X62529985Y-68898931D01*
X62529985Y-68898932D01*
X62965206Y-69334153D01*
X62948558Y-69341049D01*
X62817530Y-69428599D01*
X62706099Y-69540030D01*
X62618549Y-69671058D01*
X62611653Y-69687706D01*
X62176432Y-69252485D01*
X62176431Y-69252485D01*
X62130116Y-69316233D01*
X62030067Y-69512589D01*
X61961973Y-69722164D01*
X61927500Y-69939818D01*
X61628000Y-69939818D01*
X61628000Y-69939778D01*
X61593515Y-69722049D01*
X61557886Y-69612393D01*
X61525396Y-69512396D01*
X61525395Y-69512393D01*
X61476266Y-69415974D01*
X61425315Y-69315978D01*
X61377599Y-69250302D01*
X61295747Y-69137641D01*
X61295743Y-69137636D01*
X61139863Y-68981756D01*
X61139858Y-68981752D01*
X60961525Y-68852187D01*
X60961524Y-68852186D01*
X60961522Y-68852185D01*
X60898596Y-68820122D01*
X60765106Y-68752104D01*
X60765103Y-68752103D01*
X60555452Y-68683985D01*
X60446586Y-68666742D01*
X60337722Y-68649500D01*
X60117278Y-68649500D01*
X60044701Y-68660995D01*
X59899547Y-68683985D01*
X59689896Y-68752103D01*
X59689893Y-68752104D01*
X59493474Y-68852187D01*
X59315141Y-68981752D01*
X59315136Y-68981756D01*
X59159256Y-69137636D01*
X59159252Y-69137641D01*
X59029687Y-69315974D01*
X58929604Y-69512393D01*
X58929603Y-69512396D01*
X58861485Y-69722047D01*
X58845628Y-69822164D01*
X58827000Y-69939778D01*
X58550500Y-69939778D01*
X58550500Y-68050013D01*
X70500000Y-68050013D01*
X70500000Y-69100000D01*
X71550000Y-69100000D01*
X72050000Y-69100000D01*
X73099999Y-69100000D01*
X73099999Y-68300013D01*
X77750000Y-68300013D01*
X77750000Y-69600000D01*
X78800000Y-69600000D01*
X79300000Y-69600000D01*
X80349999Y-69600000D01*
X80349999Y-68300028D01*
X80349998Y-68300013D01*
X80339505Y-68197302D01*
X80284358Y-68030880D01*
X80284356Y-68030875D01*
X80192315Y-67881654D01*
X80068345Y-67757684D01*
X79919124Y-67665643D01*
X79919119Y-67665641D01*
X79752697Y-67610494D01*
X79752690Y-67610493D01*
X79649986Y-67600000D01*
X79300000Y-67600000D01*
X79300000Y-69600000D01*
X78800000Y-69600000D01*
X78800000Y-67600000D01*
X78450028Y-67600000D01*
X78450012Y-67600001D01*
X78347302Y-67610494D01*
X78180880Y-67665641D01*
X78180875Y-67665643D01*
X78031654Y-67757684D01*
X77907684Y-67881654D01*
X77815643Y-68030875D01*
X77815641Y-68030880D01*
X77760494Y-68197302D01*
X77760493Y-68197309D01*
X77750000Y-68300013D01*
X73099999Y-68300013D01*
X73099999Y-68050028D01*
X73099998Y-68050013D01*
X73089505Y-67947302D01*
X73034358Y-67780880D01*
X73034356Y-67780875D01*
X72942315Y-67631654D01*
X72818345Y-67507684D01*
X72669124Y-67415643D01*
X72669119Y-67415641D01*
X72502697Y-67360494D01*
X72502690Y-67360493D01*
X72399986Y-67350000D01*
X72050000Y-67350000D01*
X72050000Y-69100000D01*
X71550000Y-69100000D01*
X71550000Y-67350000D01*
X71200028Y-67350000D01*
X71200012Y-67350001D01*
X71097302Y-67360494D01*
X70930880Y-67415641D01*
X70930875Y-67415643D01*
X70781654Y-67507684D01*
X70657684Y-67631654D01*
X70565643Y-67780875D01*
X70565641Y-67780880D01*
X70510494Y-67947302D01*
X70510493Y-67947309D01*
X70500000Y-68050013D01*
X58550500Y-68050013D01*
X58550500Y-67049986D01*
X63550001Y-67049986D01*
X63560494Y-67152697D01*
X63615641Y-67319119D01*
X63615643Y-67319124D01*
X63707684Y-67468345D01*
X63831654Y-67592315D01*
X63980875Y-67684356D01*
X63980880Y-67684358D01*
X64147302Y-67739505D01*
X64147309Y-67739506D01*
X64250019Y-67749999D01*
X64499999Y-67749999D01*
X65000000Y-67749999D01*
X65249972Y-67749999D01*
X65249986Y-67749998D01*
X65352697Y-67739505D01*
X65519119Y-67684358D01*
X65519124Y-67684356D01*
X65668345Y-67592315D01*
X65792315Y-67468345D01*
X65884356Y-67319124D01*
X65884358Y-67319119D01*
X65939505Y-67152697D01*
X65939506Y-67152690D01*
X65949999Y-67049986D01*
X65950000Y-67049973D01*
X65950000Y-66900000D01*
X65000000Y-66900000D01*
X65000000Y-67749999D01*
X64499999Y-67749999D01*
X64500000Y-67749998D01*
X64500000Y-66900000D01*
X63550001Y-66900000D01*
X63550001Y-67049986D01*
X58550500Y-67049986D01*
X58550500Y-64221153D01*
X60149500Y-64221153D01*
X60149500Y-64378846D01*
X60180261Y-64533489D01*
X60180264Y-64533501D01*
X60240602Y-64679172D01*
X60240609Y-64679185D01*
X60328210Y-64810288D01*
X60328213Y-64810292D01*
X60439707Y-64921786D01*
X60439711Y-64921789D01*
X60570814Y-65009390D01*
X60570827Y-65009397D01*
X60658230Y-65045599D01*
X60716503Y-65069737D01*
X60783581Y-65083079D01*
X60834895Y-65106335D01*
X60841325Y-65111271D01*
X60885331Y-65155277D01*
X60984679Y-65221658D01*
X60991873Y-65226465D01*
X61110256Y-65275501D01*
X61110260Y-65275501D01*
X61110261Y-65275502D01*
X61235928Y-65300500D01*
X61235931Y-65300500D01*
X61364069Y-65300500D01*
X63534362Y-65300500D01*
X63601401Y-65320185D01*
X63639901Y-65359403D01*
X63707289Y-65468657D01*
X63801304Y-65562672D01*
X63834789Y-65623995D01*
X63829805Y-65693687D01*
X63801305Y-65738034D01*
X63707682Y-65831657D01*
X63615643Y-65980875D01*
X63615641Y-65980880D01*
X63560494Y-66147302D01*
X63560493Y-66147309D01*
X63550000Y-66250013D01*
X63550000Y-66400000D01*
X65949999Y-66400000D01*
X65949999Y-66250028D01*
X65949998Y-66250013D01*
X65939505Y-66147302D01*
X65884358Y-65980880D01*
X65884356Y-65980875D01*
X65792315Y-65831654D01*
X65698695Y-65738034D01*
X65665210Y-65676711D01*
X65670194Y-65607019D01*
X65698691Y-65562676D01*
X65792712Y-65468656D01*
X65884814Y-65319334D01*
X65939999Y-65152797D01*
X65950500Y-65050009D01*
X65950499Y-64249992D01*
X65939999Y-64147203D01*
X65884814Y-63980666D01*
X65792712Y-63831344D01*
X65668656Y-63707288D01*
X65575746Y-63649981D01*
X65519336Y-63615187D01*
X65519331Y-63615185D01*
X65517862Y-63614698D01*
X65352797Y-63560001D01*
X65352795Y-63560000D01*
X65250010Y-63549500D01*
X64249998Y-63549500D01*
X64249980Y-63549501D01*
X64147203Y-63560000D01*
X64147200Y-63560001D01*
X63980668Y-63615185D01*
X63980663Y-63615187D01*
X63831342Y-63707289D01*
X63707289Y-63831342D01*
X63707288Y-63831344D01*
X63648281Y-63927011D01*
X63639901Y-63940597D01*
X63587953Y-63987321D01*
X63534362Y-63999500D01*
X61774838Y-63999500D01*
X61707799Y-63979815D01*
X61662044Y-63927011D01*
X61660275Y-63922949D01*
X61659394Y-63920821D01*
X61659391Y-63920816D01*
X61659390Y-63920814D01*
X61571789Y-63789711D01*
X61571786Y-63789707D01*
X61460292Y-63678213D01*
X61460288Y-63678210D01*
X61329185Y-63590609D01*
X61329172Y-63590602D01*
X61183501Y-63530264D01*
X61183489Y-63530261D01*
X61028845Y-63499500D01*
X61028842Y-63499500D01*
X60871158Y-63499500D01*
X60871155Y-63499500D01*
X60716510Y-63530261D01*
X60716498Y-63530264D01*
X60570827Y-63590602D01*
X60570814Y-63590609D01*
X60439711Y-63678210D01*
X60439707Y-63678213D01*
X60328213Y-63789707D01*
X60328210Y-63789711D01*
X60240609Y-63920814D01*
X60240602Y-63920827D01*
X60180264Y-64066498D01*
X60180261Y-64066510D01*
X60149500Y-64221153D01*
X58550500Y-64221153D01*
X58550500Y-61476079D01*
X58521659Y-61331092D01*
X58521658Y-61331091D01*
X58521658Y-61331087D01*
X58521656Y-61331082D01*
X58465087Y-61194511D01*
X58465080Y-61194498D01*
X58382952Y-61071585D01*
X58336817Y-61025450D01*
X58278416Y-60967049D01*
X58071588Y-60760221D01*
X57378421Y-60067052D01*
X57378414Y-60067046D01*
X57304729Y-60017812D01*
X57304729Y-60017813D01*
X57255491Y-59984913D01*
X57118917Y-59928343D01*
X57118907Y-59928340D01*
X56973920Y-59899500D01*
X56973918Y-59899500D01*
X56499024Y-59899500D01*
X56431985Y-59879815D01*
X56398705Y-59848384D01*
X56318245Y-59737638D01*
X56162363Y-59581756D01*
X56162358Y-59581752D01*
X55984025Y-59452187D01*
X55984024Y-59452186D01*
X55984022Y-59452185D01*
X55911406Y-59415185D01*
X55787606Y-59352104D01*
X55787603Y-59352103D01*
X55577952Y-59283985D01*
X55428549Y-59260322D01*
X55360222Y-59249500D01*
X55139778Y-59249500D01*
X55071451Y-59260322D01*
X54922047Y-59283985D01*
X54712396Y-59352103D01*
X54712393Y-59352104D01*
X54515974Y-59452187D01*
X54337641Y-59581752D01*
X54337636Y-59581756D01*
X54181756Y-59737636D01*
X54181752Y-59737641D01*
X54052187Y-59915974D01*
X53952104Y-60112393D01*
X53952103Y-60112396D01*
X53883985Y-60322047D01*
X53860725Y-60468907D01*
X53849500Y-60539778D01*
X53849500Y-60760222D01*
X53854079Y-60789132D01*
X53883985Y-60977952D01*
X53952103Y-61187603D01*
X53952104Y-61187606D01*
X54000117Y-61281834D01*
X54025210Y-61331082D01*
X54052187Y-61384025D01*
X54181752Y-61562358D01*
X54181756Y-61562363D01*
X54231928Y-61612535D01*
X54265413Y-61673858D01*
X54260429Y-61743550D01*
X54218557Y-61799483D01*
X54187581Y-61816398D01*
X54107669Y-61846203D01*
X54107664Y-61846206D01*
X53992455Y-61932452D01*
X53992452Y-61932455D01*
X53906206Y-62047664D01*
X53906202Y-62047671D01*
X53855908Y-62182517D01*
X53850183Y-62235773D01*
X53849501Y-62242123D01*
X53849500Y-62242135D01*
X53849500Y-64137870D01*
X53849501Y-64137876D01*
X53855908Y-64197483D01*
X53906202Y-64332328D01*
X53906206Y-64332335D01*
X53992452Y-64447544D01*
X53992455Y-64447547D01*
X54107664Y-64533793D01*
X54107671Y-64533797D01*
X54242517Y-64584091D01*
X54242516Y-64584091D01*
X54249444Y-64584835D01*
X54302127Y-64590500D01*
X56197872Y-64590499D01*
X56257483Y-64584091D01*
X56392331Y-64533796D01*
X56507546Y-64447546D01*
X56593796Y-64332331D01*
X56644091Y-64197483D01*
X56650500Y-64137873D01*
X56650499Y-62242128D01*
X56644091Y-62182517D01*
X56643092Y-62179839D01*
X56593797Y-62047671D01*
X56593793Y-62047664D01*
X56507547Y-61932455D01*
X56507544Y-61932452D01*
X56392335Y-61846206D01*
X56392328Y-61846202D01*
X56312419Y-61816398D01*
X56256485Y-61774527D01*
X56232068Y-61709062D01*
X56246920Y-61640789D01*
X56259649Y-61621857D01*
X56263618Y-61616988D01*
X56318242Y-61562365D01*
X56400737Y-61448819D01*
X56402921Y-61446141D01*
X56428992Y-61428259D01*
X56454035Y-61408949D01*
X56458323Y-61408143D01*
X56460541Y-61406623D01*
X56467536Y-61406413D01*
X56499024Y-61400500D01*
X56537770Y-61400500D01*
X56604809Y-61420185D01*
X56625451Y-61436819D01*
X57013181Y-61824548D01*
X57046666Y-61885871D01*
X57049500Y-61912229D01*
X57049500Y-71473918D01*
X57049500Y-71473920D01*
X57049499Y-71473920D01*
X57078340Y-71618907D01*
X57078343Y-71618917D01*
X57134913Y-71755490D01*
X57134916Y-71755495D01*
X57145379Y-71771153D01*
X57145380Y-71771158D01*
X57145382Y-71771158D01*
X57217051Y-71878420D01*
X57217052Y-71878421D01*
X62692049Y-77353416D01*
X62745040Y-77406407D01*
X62796585Y-77457952D01*
X62919498Y-77540080D01*
X62919511Y-77540087D01*
X63056082Y-77596656D01*
X63056087Y-77596658D01*
X63056091Y-77596658D01*
X63056092Y-77596659D01*
X63201079Y-77625500D01*
X63201082Y-77625500D01*
X67128752Y-77625500D01*
X67195791Y-77645185D01*
X67226531Y-77676497D01*
X67227807Y-77675489D01*
X67232288Y-77681156D01*
X67356344Y-77805212D01*
X67505666Y-77897314D01*
X67672203Y-77952499D01*
X67774991Y-77963000D01*
X68825008Y-77962999D01*
X68825016Y-77962998D01*
X68825019Y-77962998D01*
X68881302Y-77957248D01*
X68927797Y-77952499D01*
X69094334Y-77897314D01*
X69243656Y-77805212D01*
X69331072Y-77717795D01*
X69392391Y-77684313D01*
X69462083Y-77689297D01*
X69506429Y-77717796D01*
X69561584Y-77772951D01*
X69561585Y-77772952D01*
X69684498Y-77855080D01*
X69684511Y-77855087D01*
X69786457Y-77897314D01*
X69821087Y-77911658D01*
X69821091Y-77911658D01*
X69821092Y-77911659D01*
X69966079Y-77940500D01*
X69966082Y-77940500D01*
X70113917Y-77940500D01*
X70323281Y-77940500D01*
X70390320Y-77960185D01*
X70436075Y-78012989D01*
X70446019Y-78082147D01*
X70441666Y-78101390D01*
X70418070Y-78177111D01*
X70416036Y-78199500D01*
X70412858Y-78234473D01*
X70412000Y-78243911D01*
X70412000Y-78676098D01*
X70418068Y-78742882D01*
X70418071Y-78742893D01*
X70465967Y-78896599D01*
X70547125Y-79030850D01*
X70564961Y-79098405D01*
X70547125Y-79159150D01*
X70465969Y-79293397D01*
X70418069Y-79447116D01*
X70412000Y-79513911D01*
X70412000Y-79946098D01*
X70418068Y-80012882D01*
X70418071Y-80012893D01*
X70465967Y-80166599D01*
X70547125Y-80300850D01*
X70564961Y-80368405D01*
X70547125Y-80429150D01*
X70465969Y-80563397D01*
X70418069Y-80717116D01*
X70412000Y-80783911D01*
X70412000Y-81216098D01*
X70418068Y-81282882D01*
X70418071Y-81282893D01*
X70462699Y-81426110D01*
X70463851Y-81495970D01*
X70427050Y-81555362D01*
X70363981Y-81585430D01*
X70344314Y-81587000D01*
X69532928Y-81587000D01*
X69465889Y-81567315D01*
X69427389Y-81528097D01*
X69407573Y-81495970D01*
X69367712Y-81431344D01*
X69243656Y-81307288D01*
X69240342Y-81305243D01*
X69238546Y-81303248D01*
X69237989Y-81302807D01*
X69238064Y-81302711D01*
X69193618Y-81253297D01*
X69182397Y-81184334D01*
X69210240Y-81120252D01*
X69240348Y-81094165D01*
X69243342Y-81092318D01*
X69367315Y-80968345D01*
X69459356Y-80819124D01*
X69459358Y-80819119D01*
X69514505Y-80652697D01*
X69514506Y-80652690D01*
X69524999Y-80549986D01*
X69525000Y-80549973D01*
X69525000Y-80412500D01*
X67075001Y-80412500D01*
X67075001Y-80549986D01*
X67085494Y-80652697D01*
X67140641Y-80819119D01*
X67140643Y-80819124D01*
X67232684Y-80968345D01*
X67356655Y-81092316D01*
X67356659Y-81092319D01*
X67359656Y-81094168D01*
X67361279Y-81095972D01*
X67362323Y-81096798D01*
X67362181Y-81096976D01*
X67406381Y-81146116D01*
X67417602Y-81215079D01*
X67389759Y-81279161D01*
X67359661Y-81305241D01*
X67356349Y-81307283D01*
X67356343Y-81307288D01*
X67232289Y-81431342D01*
X67140187Y-81580663D01*
X67140185Y-81580668D01*
X67136332Y-81592297D01*
X67085001Y-81747203D01*
X67085001Y-81747204D01*
X67085000Y-81747204D01*
X67074500Y-81849983D01*
X67074500Y-82625001D01*
X67074501Y-82625019D01*
X67085000Y-82727796D01*
X67085001Y-82727799D01*
X67123636Y-82844391D01*
X67140186Y-82894334D01*
X67232288Y-83043656D01*
X67356344Y-83167712D01*
X67505666Y-83259814D01*
X67672203Y-83314999D01*
X67774991Y-83325500D01*
X68825008Y-83325499D01*
X68825016Y-83325498D01*
X68825019Y-83325498D01*
X68881302Y-83319748D01*
X68927797Y-83314999D01*
X69094334Y-83259814D01*
X69243656Y-83167712D01*
X69367712Y-83043656D01*
X69427389Y-82946902D01*
X69479337Y-82900179D01*
X69532928Y-82888000D01*
X70541514Y-82888000D01*
X70608553Y-82907685D01*
X70629196Y-82924320D01*
X70663108Y-82958232D01*
X70663108Y-82958233D01*
X70663110Y-82958234D01*
X70663112Y-82958236D01*
X70800898Y-83041531D01*
X70954613Y-83089430D01*
X71021409Y-83095500D01*
X72628590Y-83095499D01*
X72628597Y-83095499D01*
X72695382Y-83089431D01*
X72695385Y-83089430D01*
X72695387Y-83089430D01*
X72849102Y-83041531D01*
X72986888Y-82958236D01*
X73100736Y-82844388D01*
X73184031Y-82706602D01*
X73231930Y-82552887D01*
X73238000Y-82486091D01*
X73237999Y-82107305D01*
X73257683Y-82040267D01*
X73310487Y-81994512D01*
X73379646Y-81984568D01*
X73443201Y-82013593D01*
X73449680Y-82019625D01*
X73563181Y-82133126D01*
X73596666Y-82194449D01*
X73599500Y-82220807D01*
X73599500Y-83179192D01*
X73579815Y-83246231D01*
X73563181Y-83266873D01*
X72966873Y-83863181D01*
X72905550Y-83896666D01*
X72879192Y-83899500D01*
X67420808Y-83899500D01*
X67353769Y-83879815D01*
X67333127Y-83863181D01*
X66235170Y-82765224D01*
X66201685Y-82703901D01*
X66199493Y-82690144D01*
X66189999Y-82597203D01*
X66189998Y-82597200D01*
X66174192Y-82549500D01*
X66134814Y-82430666D01*
X66042712Y-82281344D01*
X65918656Y-82157288D01*
X65769334Y-82065186D01*
X65602797Y-82010001D01*
X65602795Y-82010000D01*
X65500010Y-81999500D01*
X64699998Y-81999500D01*
X64699980Y-81999501D01*
X64597203Y-82010000D01*
X64597200Y-82010001D01*
X64430668Y-82065185D01*
X64430663Y-82065187D01*
X64281342Y-82157289D01*
X64187681Y-82250951D01*
X64126358Y-82284436D01*
X64056666Y-82279452D01*
X64012319Y-82250951D01*
X63918657Y-82157289D01*
X63918656Y-82157288D01*
X63769334Y-82065186D01*
X63602797Y-82010001D01*
X63602795Y-82010000D01*
X63500010Y-81999500D01*
X62699998Y-81999500D01*
X62699980Y-81999501D01*
X62597203Y-82010000D01*
X62597200Y-82010001D01*
X62430668Y-82065185D01*
X62430663Y-82065187D01*
X62281342Y-82157289D01*
X62157289Y-82281342D01*
X62065187Y-82430663D01*
X62065184Y-82430671D01*
X62053972Y-82464506D01*
X62014199Y-82521950D01*
X61949683Y-82548772D01*
X61936267Y-82549500D01*
X60370808Y-82549500D01*
X60303769Y-82529815D01*
X60283127Y-82513181D01*
X59764674Y-81994727D01*
X59764673Y-81994726D01*
X59764353Y-81994512D01*
X59658127Y-81923535D01*
X59539744Y-81874499D01*
X59539738Y-81874497D01*
X59414071Y-81849500D01*
X59414069Y-81849500D01*
X59354935Y-81849500D01*
X59287896Y-81829815D01*
X59286090Y-81828633D01*
X59229179Y-81790606D01*
X59229172Y-81790602D01*
X59083501Y-81730264D01*
X59083489Y-81730261D01*
X58928845Y-81699500D01*
X58928842Y-81699500D01*
X58771158Y-81699500D01*
X58771153Y-81699500D01*
X58648691Y-81723859D01*
X58579099Y-81717632D01*
X58523922Y-81674768D01*
X58500678Y-81608879D01*
X58500500Y-81602242D01*
X58500500Y-79339778D01*
X58799500Y-79339778D01*
X58799500Y-79560222D01*
X58802382Y-79578417D01*
X58833985Y-79777952D01*
X58902103Y-79987603D01*
X58902104Y-79987606D01*
X58944801Y-80071401D01*
X59002049Y-80183756D01*
X59002187Y-80184025D01*
X59131752Y-80362358D01*
X59131756Y-80362363D01*
X59287636Y-80518243D01*
X59287641Y-80518247D01*
X59357960Y-80569336D01*
X59465978Y-80647815D01*
X59594375Y-80713237D01*
X59662393Y-80747895D01*
X59662396Y-80747896D01*
X59672153Y-80751066D01*
X59872049Y-80816015D01*
X60089778Y-80850500D01*
X60089779Y-80850500D01*
X60310221Y-80850500D01*
X60310222Y-80850500D01*
X60527951Y-80816015D01*
X60737606Y-80747895D01*
X60934022Y-80647815D01*
X61112365Y-80518242D01*
X61268242Y-80362365D01*
X61397815Y-80184022D01*
X61497895Y-79987606D01*
X61566015Y-79777951D01*
X61600500Y-79560222D01*
X61600500Y-79339818D01*
X61900000Y-79339818D01*
X61900000Y-79560181D01*
X61934473Y-79777835D01*
X62002567Y-79987410D01*
X62102611Y-80183756D01*
X62148932Y-80247513D01*
X62584152Y-79812292D01*
X62591049Y-79828942D01*
X62678599Y-79959970D01*
X62790030Y-80071401D01*
X62921058Y-80158951D01*
X62937705Y-80165846D01*
X62502485Y-80601065D01*
X62502485Y-80601066D01*
X62566243Y-80647388D01*
X62762589Y-80747432D01*
X62972164Y-80815526D01*
X63189819Y-80850000D01*
X63410181Y-80850000D01*
X63627835Y-80815526D01*
X63837410Y-80747432D01*
X64033760Y-80647386D01*
X64097513Y-80601066D01*
X64097514Y-80601066D01*
X63662294Y-80165846D01*
X63678942Y-80158951D01*
X63809970Y-80071401D01*
X63921401Y-79959970D01*
X64008951Y-79828942D01*
X64015846Y-79812294D01*
X64451066Y-80247514D01*
X64451066Y-80247513D01*
X64497386Y-80183760D01*
X64597432Y-79987410D01*
X64665526Y-79777835D01*
X64665973Y-79775013D01*
X67075000Y-79775013D01*
X67075000Y-79912500D01*
X68050000Y-79912500D01*
X68550000Y-79912500D01*
X69524999Y-79912500D01*
X69524999Y-79775028D01*
X69524998Y-79775013D01*
X69514505Y-79672302D01*
X69459358Y-79505880D01*
X69459356Y-79505875D01*
X69367315Y-79356654D01*
X69243345Y-79232684D01*
X69094124Y-79140643D01*
X69094119Y-79140641D01*
X68927697Y-79085494D01*
X68927690Y-79085493D01*
X68824986Y-79075000D01*
X68550000Y-79075000D01*
X68550000Y-79912500D01*
X68050000Y-79912500D01*
X68050000Y-79075000D01*
X67775029Y-79075000D01*
X67775012Y-79075001D01*
X67672302Y-79085494D01*
X67505880Y-79140641D01*
X67505875Y-79140643D01*
X67356654Y-79232684D01*
X67232684Y-79356654D01*
X67140643Y-79505875D01*
X67140641Y-79505880D01*
X67085494Y-79672302D01*
X67085493Y-79672309D01*
X67075000Y-79775013D01*
X64665973Y-79775013D01*
X64669545Y-79752466D01*
X64700000Y-79560181D01*
X64700000Y-79339818D01*
X64665526Y-79122164D01*
X64597432Y-78912589D01*
X64497388Y-78716243D01*
X64451066Y-78652485D01*
X64451065Y-78652485D01*
X64015846Y-79087704D01*
X64008951Y-79071058D01*
X63921401Y-78940030D01*
X63809970Y-78828599D01*
X63678942Y-78741049D01*
X63662292Y-78734152D01*
X64097513Y-78298932D01*
X64033756Y-78252611D01*
X63837410Y-78152567D01*
X63627835Y-78084473D01*
X63410181Y-78050000D01*
X63189819Y-78050000D01*
X62972164Y-78084473D01*
X62762589Y-78152567D01*
X62566233Y-78252616D01*
X62502485Y-78298931D01*
X62502485Y-78298932D01*
X62937706Y-78734153D01*
X62921058Y-78741049D01*
X62790030Y-78828599D01*
X62678599Y-78940030D01*
X62591049Y-79071058D01*
X62584153Y-79087706D01*
X62148932Y-78652485D01*
X62148931Y-78652485D01*
X62102616Y-78716233D01*
X62002567Y-78912589D01*
X61934473Y-79122164D01*
X61900000Y-79339818D01*
X61600500Y-79339818D01*
X61600500Y-79339778D01*
X61566015Y-79122049D01*
X61507898Y-78943181D01*
X61497896Y-78912396D01*
X61497895Y-78912393D01*
X61441893Y-78802485D01*
X61397815Y-78715978D01*
X61351685Y-78652485D01*
X61268247Y-78537641D01*
X61268243Y-78537636D01*
X61112363Y-78381756D01*
X61112358Y-78381752D01*
X60934025Y-78252187D01*
X60934024Y-78252186D01*
X60934022Y-78252185D01*
X60871096Y-78220122D01*
X60737606Y-78152104D01*
X60737603Y-78152103D01*
X60527952Y-78083985D01*
X60404928Y-78064500D01*
X60310222Y-78049500D01*
X60089778Y-78049500D01*
X60017201Y-78060995D01*
X59872047Y-78083985D01*
X59662396Y-78152103D01*
X59662393Y-78152104D01*
X59465974Y-78252187D01*
X59287641Y-78381752D01*
X59287636Y-78381756D01*
X59131756Y-78537636D01*
X59131752Y-78537641D01*
X59002187Y-78715974D01*
X58902104Y-78912393D01*
X58902103Y-78912396D01*
X58833985Y-79122047D01*
X58810227Y-79272049D01*
X58799500Y-79339778D01*
X58500500Y-79339778D01*
X58500500Y-75908428D01*
X58475502Y-75782761D01*
X58475501Y-75782760D01*
X58475501Y-75782756D01*
X58428796Y-75670000D01*
X58426466Y-75664375D01*
X58426460Y-75664364D01*
X58404225Y-75631088D01*
X58404223Y-75631086D01*
X58387358Y-75605845D01*
X58355277Y-75557831D01*
X58355275Y-75557829D01*
X58355273Y-75557826D01*
X58355272Y-75557825D01*
X53318279Y-70520833D01*
X53284794Y-70459510D01*
X53288031Y-70394829D01*
X53293513Y-70377957D01*
X53293512Y-70377957D01*
X53293515Y-70377951D01*
X53328000Y-70160222D01*
X53328000Y-69939778D01*
X53293515Y-69722049D01*
X53257886Y-69612393D01*
X53225396Y-69512396D01*
X53225395Y-69512393D01*
X53176266Y-69415974D01*
X53125315Y-69315978D01*
X53077599Y-69250302D01*
X52995747Y-69137641D01*
X52995743Y-69137636D01*
X52839863Y-68981756D01*
X52839858Y-68981752D01*
X52661525Y-68852187D01*
X52661524Y-68852186D01*
X52661522Y-68852185D01*
X52598596Y-68820122D01*
X52465106Y-68752104D01*
X52465103Y-68752103D01*
X52255452Y-68683985D01*
X52146586Y-68666742D01*
X52037722Y-68649500D01*
X51817278Y-68649500D01*
X51744701Y-68660995D01*
X51599547Y-68683985D01*
X51389896Y-68752103D01*
X51389893Y-68752104D01*
X51193474Y-68852187D01*
X51015141Y-68981752D01*
X51015136Y-68981756D01*
X50859256Y-69137636D01*
X50859252Y-69137641D01*
X50726821Y-69319919D01*
X50725752Y-69319142D01*
X50678406Y-69361972D01*
X50609476Y-69373388D01*
X50545315Y-69345726D01*
X50506295Y-69287767D01*
X50500500Y-69250302D01*
X50500500Y-57031386D01*
X59049500Y-57031386D01*
X59049500Y-58968613D01*
X59049501Y-58968652D01*
X59052295Y-59021243D01*
X59052295Y-59021244D01*
X59096754Y-59251120D01*
X59096755Y-59251126D01*
X59134863Y-59352105D01*
X59179425Y-59470189D01*
X59297929Y-59672131D01*
X59297934Y-59672138D01*
X59448856Y-59851141D01*
X59448858Y-59851143D01*
X59627861Y-60002065D01*
X59627868Y-60002070D01*
X59829810Y-60120574D01*
X60048874Y-60203245D01*
X60278759Y-60247705D01*
X60331378Y-60250500D01*
X60331386Y-60250500D01*
X62268614Y-60250500D01*
X62268622Y-60250500D01*
X62321241Y-60247705D01*
X62551126Y-60203245D01*
X62770190Y-60120574D01*
X62972132Y-60002070D01*
X63012348Y-59968163D01*
X63151141Y-59851143D01*
X63151143Y-59851141D01*
X63302065Y-59672138D01*
X63302065Y-59672137D01*
X63302070Y-59672132D01*
X63420574Y-59470190D01*
X63503245Y-59251126D01*
X63503456Y-59250031D01*
X63503756Y-59248485D01*
X63504281Y-59247467D01*
X63504683Y-59246050D01*
X63504971Y-59246131D01*
X63535812Y-59186403D01*
X63596343Y-59151507D01*
X63666131Y-59154876D01*
X63723019Y-59195440D01*
X63748946Y-59260322D01*
X63749500Y-59272030D01*
X63749500Y-62797870D01*
X63749501Y-62797876D01*
X63755908Y-62857483D01*
X63806202Y-62992328D01*
X63806206Y-62992335D01*
X63892452Y-63107544D01*
X63892455Y-63107547D01*
X64007664Y-63193793D01*
X64007671Y-63193797D01*
X64142517Y-63244091D01*
X64142516Y-63244091D01*
X64149444Y-63244835D01*
X64202127Y-63250500D01*
X67797872Y-63250499D01*
X67857483Y-63244091D01*
X67992331Y-63193796D01*
X68107546Y-63107546D01*
X68193796Y-62992331D01*
X68244091Y-62857483D01*
X68250500Y-62797873D01*
X68250499Y-59862228D01*
X68270184Y-59795190D01*
X68286813Y-59774553D01*
X70582951Y-57478416D01*
X70665084Y-57355495D01*
X70721658Y-57218913D01*
X70731096Y-57171462D01*
X70750500Y-57073920D01*
X70750500Y-55462229D01*
X70770185Y-55395190D01*
X70786819Y-55374548D01*
X72374548Y-53786819D01*
X72435871Y-53753334D01*
X72462229Y-53750500D01*
X74553023Y-53750500D01*
X74594597Y-53762707D01*
X74598958Y-53763102D01*
X74600786Y-53764524D01*
X74620062Y-53770185D01*
X74644930Y-53798884D01*
X74654095Y-53806018D01*
X74657410Y-53813287D01*
X74665817Y-53822989D01*
X74670345Y-53834356D01*
X74674832Y-53847471D01*
X74675909Y-53857483D01*
X74704351Y-53933742D01*
X74704904Y-53935356D01*
X74706371Y-53968633D01*
X74708748Y-54001859D01*
X74707905Y-54003401D01*
X74707983Y-54005158D01*
X74691224Y-54033950D01*
X74675263Y-54063182D01*
X74673720Y-54064024D01*
X74672836Y-54065544D01*
X74643157Y-54080711D01*
X74613939Y-54096666D01*
X74611409Y-54096937D01*
X74610621Y-54097341D01*
X74609080Y-54097188D01*
X74587582Y-54099500D01*
X74426080Y-54099500D01*
X74281092Y-54128340D01*
X74281086Y-54128342D01*
X74144508Y-54184914D01*
X74144496Y-54184921D01*
X74095269Y-54217813D01*
X74021588Y-54267044D01*
X74021580Y-54267050D01*
X73417048Y-54871583D01*
X73410698Y-54881087D01*
X73375999Y-54933020D01*
X73334919Y-54994499D01*
X73334912Y-54994511D01*
X73278343Y-55131082D01*
X73278340Y-55131092D01*
X73249500Y-55276079D01*
X73249500Y-55787770D01*
X73229815Y-55854809D01*
X73213181Y-55875451D01*
X73157289Y-55931342D01*
X73065187Y-56080663D01*
X73065186Y-56080666D01*
X73010001Y-56247203D01*
X73010001Y-56247204D01*
X73010000Y-56247204D01*
X72999500Y-56349983D01*
X72999500Y-56950001D01*
X72999501Y-56950019D01*
X73010000Y-57052796D01*
X73010001Y-57052799D01*
X73065046Y-57218913D01*
X73065186Y-57219334D01*
X73157288Y-57368656D01*
X73281344Y-57492712D01*
X73430666Y-57584814D01*
X73597203Y-57639999D01*
X73699991Y-57650500D01*
X74138769Y-57650499D01*
X74205808Y-57670183D01*
X74251563Y-57722987D01*
X74261507Y-57792146D01*
X74232482Y-57855702D01*
X74226450Y-57862180D01*
X73975449Y-58113181D01*
X73914126Y-58146666D01*
X73887769Y-58149500D01*
X73699999Y-58149500D01*
X73699980Y-58149501D01*
X73597203Y-58160000D01*
X73597200Y-58160001D01*
X73430668Y-58215185D01*
X73430663Y-58215187D01*
X73281342Y-58307289D01*
X73157289Y-58431342D01*
X73065187Y-58580663D01*
X73065186Y-58580666D01*
X73010001Y-58747203D01*
X73010001Y-58747204D01*
X73010000Y-58747204D01*
X72999500Y-58849983D01*
X72999500Y-59037769D01*
X72979815Y-59104808D01*
X72963181Y-59125450D01*
X71217050Y-60871580D01*
X71217044Y-60871588D01*
X71167812Y-60945268D01*
X71167813Y-60945269D01*
X71134921Y-60994496D01*
X71134914Y-60994508D01*
X71078342Y-61131086D01*
X71078340Y-61131092D01*
X71049500Y-61276079D01*
X71049500Y-62886267D01*
X71029815Y-62953306D01*
X70977011Y-62999061D01*
X70964506Y-63003972D01*
X70930671Y-63015184D01*
X70930663Y-63015187D01*
X70781342Y-63107289D01*
X70657289Y-63231342D01*
X70565187Y-63380663D01*
X70565186Y-63380666D01*
X70510001Y-63547203D01*
X70510001Y-63547204D01*
X70510000Y-63547204D01*
X70499500Y-63649983D01*
X70499500Y-66250001D01*
X70499501Y-66250018D01*
X70510000Y-66352796D01*
X70510001Y-66352799D01*
X70565185Y-66519331D01*
X70565187Y-66519336D01*
X70600069Y-66575888D01*
X70657288Y-66668656D01*
X70781344Y-66792712D01*
X70930666Y-66884814D01*
X71097203Y-66939999D01*
X71199991Y-66950500D01*
X72400008Y-66950499D01*
X72502797Y-66939999D01*
X72669334Y-66884814D01*
X72818656Y-66792712D01*
X72942712Y-66668656D01*
X73034814Y-66519334D01*
X73089999Y-66352797D01*
X73100500Y-66250009D01*
X73100499Y-63649992D01*
X73098151Y-63627011D01*
X73089999Y-63547203D01*
X73089998Y-63547200D01*
X73074192Y-63499500D01*
X73034814Y-63380666D01*
X72942712Y-63231344D01*
X72818656Y-63107288D01*
X72669334Y-63015186D01*
X72669328Y-63015184D01*
X72635494Y-63003972D01*
X72578050Y-62964199D01*
X72551228Y-62899683D01*
X72550500Y-62886267D01*
X72550500Y-61712229D01*
X72570185Y-61645190D01*
X72586814Y-61624553D01*
X74024549Y-60186817D01*
X74085872Y-60153333D01*
X74112230Y-60150499D01*
X74300002Y-60150499D01*
X74300008Y-60150499D01*
X74402797Y-60139999D01*
X74569334Y-60084814D01*
X74718656Y-59992712D01*
X74842712Y-59868656D01*
X74934814Y-59719334D01*
X74989999Y-59552797D01*
X75000500Y-59450009D01*
X75000499Y-59262229D01*
X75020183Y-59195190D01*
X75036813Y-59174553D01*
X76086976Y-58124390D01*
X76117840Y-58101855D01*
X76122419Y-58099494D01*
X76205495Y-58065084D01*
X76254729Y-58032186D01*
X76260574Y-58028280D01*
X76260579Y-58028278D01*
X76294679Y-58005492D01*
X76328416Y-57982952D01*
X76530588Y-57780779D01*
X76591910Y-57747295D01*
X76661601Y-57752279D01*
X76717535Y-57794150D01*
X76741952Y-57859615D01*
X76735974Y-57907465D01*
X76685494Y-58059802D01*
X76685493Y-58059809D01*
X76675000Y-58162513D01*
X76675000Y-58300000D01*
X79124999Y-58300000D01*
X79124999Y-58162528D01*
X79124998Y-58162513D01*
X79114505Y-58059802D01*
X79059358Y-57893380D01*
X79059356Y-57893375D01*
X78967315Y-57744154D01*
X78885342Y-57662181D01*
X78851857Y-57600858D01*
X78856841Y-57531166D01*
X78898713Y-57475233D01*
X78964177Y-57450816D01*
X78973023Y-57450500D01*
X80437770Y-57450500D01*
X80504809Y-57470185D01*
X80525451Y-57486819D01*
X82513181Y-59474549D01*
X82546666Y-59535872D01*
X82549500Y-59562230D01*
X82549500Y-60323918D01*
X82549500Y-60323920D01*
X82549499Y-60323920D01*
X82578340Y-60468907D01*
X82578343Y-60468917D01*
X82634913Y-60605490D01*
X82634914Y-60605491D01*
X82634916Y-60605495D01*
X82650181Y-60628340D01*
X82650182Y-60628342D01*
X82717051Y-60728420D01*
X82717052Y-60728421D01*
X83264712Y-61276079D01*
X83417048Y-61428415D01*
X83417049Y-61428416D01*
X83521584Y-61532951D01*
X83521587Y-61532953D01*
X83521588Y-61532954D01*
X83634390Y-61608326D01*
X83679196Y-61661938D01*
X83689500Y-61711427D01*
X83689500Y-61850000D01*
X83689501Y-61850019D01*
X83700000Y-61952796D01*
X83700001Y-61952799D01*
X83744096Y-62085867D01*
X83755186Y-62119334D01*
X83847288Y-62268656D01*
X83971344Y-62392712D01*
X84120666Y-62484814D01*
X84287203Y-62539999D01*
X84389991Y-62550500D01*
X85190008Y-62550499D01*
X85190016Y-62550498D01*
X85190019Y-62550498D01*
X85246302Y-62544748D01*
X85292797Y-62539999D01*
X85459334Y-62484814D01*
X85608656Y-62392712D01*
X85732712Y-62268656D01*
X85824814Y-62119334D01*
X85879999Y-61952797D01*
X85890500Y-61850009D01*
X85890499Y-60049992D01*
X85879999Y-59947203D01*
X85824814Y-59780666D01*
X85732712Y-59631344D01*
X85608656Y-59507288D01*
X85459334Y-59415186D01*
X85292797Y-59360001D01*
X85292795Y-59360000D01*
X85190010Y-59349500D01*
X84389998Y-59349500D01*
X84389980Y-59349501D01*
X84287203Y-59360000D01*
X84287200Y-59360001D01*
X84213504Y-59384422D01*
X84143675Y-59386824D01*
X84083634Y-59351092D01*
X84052441Y-59288571D01*
X84050500Y-59266716D01*
X84050500Y-59126079D01*
X84021659Y-58981092D01*
X84021658Y-58981091D01*
X84021658Y-58981087D01*
X84016507Y-58968652D01*
X83965087Y-58844511D01*
X83965083Y-58844504D01*
X83939493Y-58806206D01*
X83931675Y-58794505D01*
X83905886Y-58755908D01*
X83882956Y-58721589D01*
X83882952Y-58721584D01*
X82811356Y-57649988D01*
X83670001Y-57649988D01*
X83680494Y-57752699D01*
X83735640Y-57919120D01*
X83735642Y-57919125D01*
X83827683Y-58068346D01*
X83951653Y-58192316D01*
X84100874Y-58284357D01*
X84100879Y-58284359D01*
X84267301Y-58339505D01*
X84370017Y-58349999D01*
X86819999Y-58349999D01*
X87320000Y-58349999D01*
X89769974Y-58349999D01*
X89769988Y-58349998D01*
X89872699Y-58339505D01*
X90039120Y-58284359D01*
X90039125Y-58284357D01*
X90188346Y-58192316D01*
X90312316Y-58068346D01*
X90404357Y-57919125D01*
X90404359Y-57919120D01*
X90459505Y-57752698D01*
X90469999Y-57649988D01*
X90470000Y-57649975D01*
X90470000Y-54900000D01*
X87320000Y-54900000D01*
X87320000Y-58349999D01*
X86819999Y-58349999D01*
X86820000Y-58349998D01*
X86820000Y-54900000D01*
X83670001Y-54900000D01*
X83670001Y-57649988D01*
X82811356Y-57649988D01*
X81278421Y-56117052D01*
X81278414Y-56117046D01*
X81204729Y-56067812D01*
X81204729Y-56067813D01*
X81155491Y-56034913D01*
X81018917Y-55978343D01*
X81018907Y-55978340D01*
X80873920Y-55949500D01*
X80873918Y-55949500D01*
X76476082Y-55949500D01*
X76476080Y-55949500D01*
X76331092Y-55978340D01*
X76331082Y-55978343D01*
X76194511Y-56034912D01*
X76194498Y-56034919D01*
X76071584Y-56117048D01*
X76071580Y-56117051D01*
X75513024Y-56675606D01*
X75472803Y-56702483D01*
X75459095Y-56708162D01*
X75459087Y-56708165D01*
X75394509Y-56734913D01*
X75362870Y-56756054D01*
X75271584Y-56817048D01*
X75212180Y-56876452D01*
X75150856Y-56909936D01*
X75081165Y-56904951D01*
X75025231Y-56863080D01*
X75000815Y-56797615D01*
X75000499Y-56788790D01*
X75000499Y-56349992D01*
X74989999Y-56247203D01*
X74934814Y-56080666D01*
X74842712Y-55931344D01*
X74786819Y-55875451D01*
X74753334Y-55814128D01*
X74750500Y-55787770D01*
X74750500Y-55724500D01*
X74770185Y-55657461D01*
X74822989Y-55611706D01*
X74874500Y-55600500D01*
X78023920Y-55600500D01*
X78121462Y-55581096D01*
X78168913Y-55571658D01*
X78305495Y-55515084D01*
X78354729Y-55482186D01*
X78428416Y-55432952D01*
X78982657Y-54878711D01*
X93149500Y-54878711D01*
X93149500Y-55121288D01*
X93181161Y-55361785D01*
X93243947Y-55596104D01*
X93336773Y-55820205D01*
X93336776Y-55820212D01*
X93458064Y-56030289D01*
X93458066Y-56030292D01*
X93458067Y-56030293D01*
X93605733Y-56222736D01*
X93605739Y-56222743D01*
X93777256Y-56394260D01*
X93777262Y-56394265D01*
X93969711Y-56541936D01*
X94179788Y-56663224D01*
X94330018Y-56725451D01*
X94386575Y-56748878D01*
X94403900Y-56756054D01*
X94638211Y-56818838D01*
X94810866Y-56841568D01*
X94878711Y-56850500D01*
X94878712Y-56850500D01*
X95121289Y-56850500D01*
X95169388Y-56844167D01*
X95361789Y-56818838D01*
X95596100Y-56756054D01*
X95820212Y-56663224D01*
X96030289Y-56541936D01*
X96222738Y-56394265D01*
X96394265Y-56222738D01*
X96541936Y-56030289D01*
X96663224Y-55820212D01*
X96756054Y-55596100D01*
X96818838Y-55361789D01*
X96850500Y-55121288D01*
X96850500Y-54878712D01*
X96849561Y-54871583D01*
X96832832Y-54744507D01*
X96818838Y-54638211D01*
X96756054Y-54403900D01*
X96663224Y-54179788D01*
X96541936Y-53969711D01*
X96438075Y-53834356D01*
X96394266Y-53777263D01*
X96394260Y-53777256D01*
X96222743Y-53605739D01*
X96222736Y-53605733D01*
X96030293Y-53458067D01*
X96030292Y-53458066D01*
X96030289Y-53458064D01*
X95820212Y-53336776D01*
X95820205Y-53336773D01*
X95596104Y-53243947D01*
X95361785Y-53181161D01*
X95121289Y-53149500D01*
X95121288Y-53149500D01*
X94878712Y-53149500D01*
X94878711Y-53149500D01*
X94638214Y-53181161D01*
X94403895Y-53243947D01*
X94179794Y-53336773D01*
X94179785Y-53336777D01*
X93969706Y-53458067D01*
X93777263Y-53605733D01*
X93777256Y-53605739D01*
X93605739Y-53777256D01*
X93605733Y-53777263D01*
X93458067Y-53969706D01*
X93336777Y-54179785D01*
X93336773Y-54179794D01*
X93243947Y-54403895D01*
X93181161Y-54638214D01*
X93149500Y-54878711D01*
X78982657Y-54878711D01*
X79042952Y-54818416D01*
X79113586Y-54712703D01*
X79125084Y-54695495D01*
X79126350Y-54692440D01*
X79137902Y-54664547D01*
X79181658Y-54558913D01*
X79210500Y-54413918D01*
X79210500Y-54366976D01*
X79230185Y-54299937D01*
X79282989Y-54254182D01*
X79310135Y-54246736D01*
X79309932Y-54245876D01*
X79317479Y-54244092D01*
X79317481Y-54244091D01*
X79317483Y-54244091D01*
X79452331Y-54193796D01*
X79567546Y-54107546D01*
X79630734Y-54023136D01*
X79686667Y-53981267D01*
X79756359Y-53976283D01*
X79817682Y-54009768D01*
X79829260Y-54023130D01*
X79892454Y-54107546D01*
X79920231Y-54128340D01*
X80007664Y-54193793D01*
X80007671Y-54193797D01*
X80142517Y-54244091D01*
X80142516Y-54244091D01*
X80149444Y-54244835D01*
X80202127Y-54250500D01*
X81797872Y-54250499D01*
X81857483Y-54244091D01*
X81992331Y-54193796D01*
X82107546Y-54107546D01*
X82193796Y-53992331D01*
X82244091Y-53857483D01*
X82250500Y-53797873D01*
X82250499Y-52202128D01*
X82244091Y-52142517D01*
X82234912Y-52117908D01*
X82193797Y-52007671D01*
X82193793Y-52007664D01*
X82107547Y-51892455D01*
X82107544Y-51892452D01*
X81992335Y-51806206D01*
X81992328Y-51806202D01*
X81876614Y-51763044D01*
X81876613Y-51763043D01*
X81857485Y-51755909D01*
X81857483Y-51755908D01*
X81797883Y-51749501D01*
X81797881Y-51749500D01*
X81797873Y-51749500D01*
X81797864Y-51749500D01*
X80202129Y-51749500D01*
X80202123Y-51749501D01*
X80142516Y-51755908D01*
X80007671Y-51806202D01*
X80007664Y-51806206D01*
X79892455Y-51892452D01*
X79892452Y-51892455D01*
X79829266Y-51976861D01*
X79773332Y-52018732D01*
X79703641Y-52023716D01*
X79642318Y-51990230D01*
X79630734Y-51976861D01*
X79567547Y-51892455D01*
X79567544Y-51892452D01*
X79452335Y-51806206D01*
X79452328Y-51806202D01*
X79317482Y-51755908D01*
X79317483Y-51755908D01*
X79257883Y-51749501D01*
X79257881Y-51749500D01*
X79257873Y-51749500D01*
X79257864Y-51749500D01*
X77662129Y-51749500D01*
X77662123Y-51749501D01*
X77602516Y-51755908D01*
X77467671Y-51806202D01*
X77467664Y-51806206D01*
X77352455Y-51892452D01*
X77352452Y-51892455D01*
X77289266Y-51976861D01*
X77233332Y-52018732D01*
X77163641Y-52023716D01*
X77102318Y-51990230D01*
X77090734Y-51976861D01*
X77027547Y-51892455D01*
X77027544Y-51892452D01*
X76912335Y-51806206D01*
X76912328Y-51806202D01*
X76777482Y-51755908D01*
X76777483Y-51755908D01*
X76717883Y-51749501D01*
X76717881Y-51749500D01*
X76717873Y-51749500D01*
X76717864Y-51749500D01*
X75122129Y-51749500D01*
X75122123Y-51749501D01*
X75062516Y-51755908D01*
X74927671Y-51806202D01*
X74927664Y-51806206D01*
X74812455Y-51892452D01*
X74812452Y-51892455D01*
X74726206Y-52007664D01*
X74726202Y-52007671D01*
X74675908Y-52142517D01*
X74674126Y-52150062D01*
X74671853Y-52149525D01*
X74649571Y-52203312D01*
X74592177Y-52243157D01*
X74553024Y-52249500D01*
X72026080Y-52249500D01*
X71881092Y-52278340D01*
X71881082Y-52278343D01*
X71744511Y-52334912D01*
X71744498Y-52334919D01*
X71621584Y-52417048D01*
X71621580Y-52417051D01*
X69417048Y-54621583D01*
X69399896Y-54647254D01*
X69382857Y-54672756D01*
X69334914Y-54744507D01*
X69278343Y-54881082D01*
X69278340Y-54881092D01*
X69249500Y-55026079D01*
X69249500Y-56637770D01*
X69229815Y-56704809D01*
X69213181Y-56725451D01*
X67225450Y-58713181D01*
X67164127Y-58746666D01*
X67137769Y-58749500D01*
X64202129Y-58749500D01*
X64202123Y-58749501D01*
X64142516Y-58755908D01*
X64007671Y-58806202D01*
X64007664Y-58806206D01*
X63892455Y-58892452D01*
X63892452Y-58892455D01*
X63806206Y-59007664D01*
X63806203Y-59007669D01*
X63788573Y-59054939D01*
X63746701Y-59110872D01*
X63681237Y-59135289D01*
X63612964Y-59120437D01*
X63563559Y-59071032D01*
X63548566Y-59005025D01*
X63550499Y-58968650D01*
X63550500Y-58968613D01*
X63550500Y-57031386D01*
X63550498Y-57031347D01*
X63548833Y-56999998D01*
X63547705Y-56978759D01*
X63503245Y-56748874D01*
X63420574Y-56529810D01*
X63302070Y-56327868D01*
X63302065Y-56327861D01*
X63151143Y-56148858D01*
X63151141Y-56148856D01*
X62972138Y-55997934D01*
X62972131Y-55997929D01*
X62770189Y-55879425D01*
X62679832Y-55845326D01*
X62551126Y-55796755D01*
X62551121Y-55796754D01*
X62321243Y-55752295D01*
X62268652Y-55749501D01*
X62268629Y-55749500D01*
X62268622Y-55749500D01*
X60331378Y-55749500D01*
X60331370Y-55749500D01*
X60331347Y-55749501D01*
X60278756Y-55752295D01*
X60278755Y-55752295D01*
X60048878Y-55796754D01*
X60048876Y-55796754D01*
X60048874Y-55796755D01*
X60002656Y-55814197D01*
X59829810Y-55879425D01*
X59627868Y-55997929D01*
X59627861Y-55997934D01*
X59448858Y-56148856D01*
X59448856Y-56148858D01*
X59297934Y-56327861D01*
X59297929Y-56327868D01*
X59179425Y-56529810D01*
X59129079Y-56663222D01*
X59096755Y-56748874D01*
X59096754Y-56748876D01*
X59096754Y-56748878D01*
X59052295Y-56978755D01*
X59052295Y-56978756D01*
X59049501Y-57031347D01*
X59049500Y-57031386D01*
X50500500Y-57031386D01*
X50500500Y-54878711D01*
X53149500Y-54878711D01*
X53149500Y-55121288D01*
X53181161Y-55361785D01*
X53243947Y-55596104D01*
X53336773Y-55820205D01*
X53336776Y-55820212D01*
X53458064Y-56030289D01*
X53458066Y-56030292D01*
X53458067Y-56030293D01*
X53605733Y-56222736D01*
X53605739Y-56222743D01*
X53777256Y-56394260D01*
X53777262Y-56394265D01*
X53969711Y-56541936D01*
X54179788Y-56663224D01*
X54330018Y-56725451D01*
X54386575Y-56748878D01*
X54403900Y-56756054D01*
X54638211Y-56818838D01*
X54810866Y-56841568D01*
X54878711Y-56850500D01*
X54878712Y-56850500D01*
X55121289Y-56850500D01*
X55169388Y-56844167D01*
X55361789Y-56818838D01*
X55596100Y-56756054D01*
X55820212Y-56663224D01*
X56030289Y-56541936D01*
X56222738Y-56394265D01*
X56394265Y-56222738D01*
X56541936Y-56030289D01*
X56663224Y-55820212D01*
X56756054Y-55596100D01*
X56818838Y-55361789D01*
X56850500Y-55121288D01*
X56850500Y-54878712D01*
X56849561Y-54871583D01*
X56832832Y-54744507D01*
X56818838Y-54638211D01*
X56756054Y-54403900D01*
X56669027Y-54193797D01*
X56665716Y-54185803D01*
X63750000Y-54185803D01*
X63750000Y-54750000D01*
X64566988Y-54750000D01*
X64534075Y-54807007D01*
X64500000Y-54934174D01*
X64500000Y-55065826D01*
X64534075Y-55192993D01*
X64566988Y-55250000D01*
X63750001Y-55250000D01*
X63750001Y-55814197D01*
X63760400Y-55946332D01*
X63815377Y-56164519D01*
X63908428Y-56369374D01*
X63908431Y-56369380D01*
X64036559Y-56554323D01*
X64036569Y-56554335D01*
X64195664Y-56713430D01*
X64195676Y-56713440D01*
X64380619Y-56841568D01*
X64380625Y-56841571D01*
X64585480Y-56934622D01*
X64803667Y-56989599D01*
X64935810Y-56999999D01*
X65749999Y-56999999D01*
X65750000Y-56999998D01*
X65750000Y-55500000D01*
X66250000Y-55500000D01*
X66250000Y-56999999D01*
X67064182Y-56999999D01*
X67064197Y-56999998D01*
X67196332Y-56989599D01*
X67414519Y-56934622D01*
X67619374Y-56841571D01*
X67619380Y-56841568D01*
X67804323Y-56713440D01*
X67804335Y-56713430D01*
X67963430Y-56554335D01*
X67963440Y-56554323D01*
X68091568Y-56369380D01*
X68091571Y-56369374D01*
X68184622Y-56164519D01*
X68239599Y-55946332D01*
X68249999Y-55814196D01*
X68250000Y-55814184D01*
X68250000Y-55250000D01*
X67433012Y-55250000D01*
X67465925Y-55192993D01*
X67500000Y-55065826D01*
X67500000Y-54934174D01*
X67465925Y-54807007D01*
X67433012Y-54750000D01*
X68249999Y-54750000D01*
X68249999Y-54185817D01*
X68249998Y-54185802D01*
X68239599Y-54053667D01*
X68184622Y-53835480D01*
X68091571Y-53630625D01*
X68091568Y-53630619D01*
X67963440Y-53445676D01*
X67963430Y-53445664D01*
X67804335Y-53286569D01*
X67804323Y-53286559D01*
X67619380Y-53158431D01*
X67619374Y-53158428D01*
X67414519Y-53065377D01*
X67196332Y-53010400D01*
X67064196Y-53000000D01*
X66250000Y-53000000D01*
X66250000Y-54500000D01*
X65750000Y-54500000D01*
X65750000Y-53000000D01*
X64935817Y-53000000D01*
X64935802Y-53000001D01*
X64803667Y-53010400D01*
X64585480Y-53065377D01*
X64380625Y-53158428D01*
X64380619Y-53158431D01*
X64195676Y-53286559D01*
X64195664Y-53286569D01*
X64036569Y-53445664D01*
X64036559Y-53445676D01*
X63908431Y-53630619D01*
X63908428Y-53630625D01*
X63815377Y-53835480D01*
X63760400Y-54053667D01*
X63750000Y-54185803D01*
X56665716Y-54185803D01*
X56663229Y-54179799D01*
X56663226Y-54179793D01*
X56663224Y-54179788D01*
X56541936Y-53969711D01*
X56438075Y-53834356D01*
X56394266Y-53777263D01*
X56394260Y-53777256D01*
X56222743Y-53605739D01*
X56222736Y-53605733D01*
X56030293Y-53458067D01*
X56030292Y-53458066D01*
X56030289Y-53458064D01*
X55820212Y-53336776D01*
X55820205Y-53336773D01*
X55596104Y-53243947D01*
X55361785Y-53181161D01*
X55121289Y-53149500D01*
X55121288Y-53149500D01*
X54878712Y-53149500D01*
X54878711Y-53149500D01*
X54638214Y-53181161D01*
X54403895Y-53243947D01*
X54179794Y-53336773D01*
X54179785Y-53336777D01*
X53969706Y-53458067D01*
X53777263Y-53605733D01*
X53777256Y-53605739D01*
X53605739Y-53777256D01*
X53605733Y-53777263D01*
X53458067Y-53969706D01*
X53336777Y-54179785D01*
X53336773Y-54179794D01*
X53243947Y-54403895D01*
X53181161Y-54638214D01*
X53149500Y-54878711D01*
X50500500Y-54878711D01*
X50500500Y-54860838D01*
X50500570Y-54856666D01*
X50505687Y-54704673D01*
X50506397Y-54694961D01*
X50506681Y-54692440D01*
X50550795Y-54300926D01*
X50552528Y-54289976D01*
X50631370Y-53904916D01*
X50634080Y-53894165D01*
X50747122Y-53517718D01*
X50750780Y-53507263D01*
X50897110Y-53142465D01*
X50901691Y-53132379D01*
X51080130Y-52782176D01*
X51085619Y-52772503D01*
X51085620Y-52772502D01*
X51294717Y-52439723D01*
X51301032Y-52430608D01*
X51539143Y-52117881D01*
X51546241Y-52109379D01*
X51811422Y-51819259D01*
X51819259Y-51811422D01*
X51995851Y-51650011D01*
X83670000Y-51650011D01*
X83670000Y-54400000D01*
X86820000Y-54400000D01*
X87320000Y-54400000D01*
X90469999Y-54400000D01*
X90469999Y-51650026D01*
X90469998Y-51650011D01*
X90459505Y-51547300D01*
X90404359Y-51380879D01*
X90404357Y-51380874D01*
X90312316Y-51231653D01*
X90188346Y-51107683D01*
X90039125Y-51015642D01*
X90039120Y-51015640D01*
X89872698Y-50960494D01*
X89769988Y-50950000D01*
X87320000Y-50950000D01*
X87320000Y-54400000D01*
X86820000Y-54400000D01*
X86820000Y-50950000D01*
X84370026Y-50950000D01*
X84370010Y-50950001D01*
X84267300Y-50960494D01*
X84100879Y-51015640D01*
X84100874Y-51015642D01*
X83951653Y-51107683D01*
X83827683Y-51231653D01*
X83735642Y-51380874D01*
X83735640Y-51380879D01*
X83680494Y-51547301D01*
X83670000Y-51650011D01*
X51995851Y-51650011D01*
X52109379Y-51546242D01*
X52117896Y-51539132D01*
X52430592Y-51301044D01*
X52439722Y-51294718D01*
X52772506Y-51085616D01*
X52782179Y-51080128D01*
X52817063Y-51062354D01*
X53132364Y-50901699D01*
X53142492Y-50897100D01*
X53340694Y-50817596D01*
X53507246Y-50750787D01*
X53517733Y-50747117D01*
X53894170Y-50634078D01*
X53904916Y-50631370D01*
X54289979Y-50552528D01*
X54300926Y-50550795D01*
X54694962Y-50506397D01*
X54704662Y-50505688D01*
X54856659Y-50500569D01*
X54860832Y-50500500D01*
X95139160Y-50500500D01*
X95143332Y-50500570D01*
G37*
%TD.AperFunction*%
%TA.AperFunction,Conductor*%
G36*
X81275552Y-98763478D02*
G01*
X81277033Y-98763361D01*
X81329186Y-98723144D01*
X81398800Y-98717164D01*
X81460595Y-98749770D01*
X81474494Y-98765810D01*
X81556238Y-98878323D01*
X81712122Y-99034207D01*
X81712127Y-99034211D01*
X81806668Y-99102898D01*
X81890464Y-99163779D01*
X82065341Y-99252884D01*
X82089147Y-99265014D01*
X82139943Y-99312989D01*
X82156738Y-99380810D01*
X82134200Y-99446945D01*
X82079485Y-99490396D01*
X82032852Y-99499499D01*
X80715017Y-99499499D01*
X80647978Y-99479814D01*
X80602223Y-99427010D01*
X80592279Y-99357852D01*
X80621304Y-99294296D01*
X80658722Y-99265014D01*
X80858246Y-99163350D01*
X80921999Y-99117030D01*
X80922000Y-99117030D01*
X80253895Y-98448926D01*
X80317479Y-98431889D01*
X80431493Y-98366063D01*
X80524585Y-98272971D01*
X80590411Y-98158957D01*
X80607448Y-98095374D01*
X81275552Y-98763478D01*
G37*
%TD.AperFunction*%
%TD*%
M02*
