%TF.GenerationSoftware,KiCad,Pcbnew,9.0.2*%
%TF.CreationDate,2026-02-04T14:32:47-03:00*%
%TF.ProjectId,parlav1,7061726c-6176-4312-9e6b-696361645f70,rev?*%
%TF.SameCoordinates,Original*%
%TF.FileFunction,Soldermask,Top*%
%TF.FilePolarity,Negative*%
%FSLAX46Y46*%
G04 Gerber Fmt 4.6, Leading zero omitted, Abs format (unit mm)*
G04 Created by KiCad (PCBNEW 9.0.2) date 2026-02-04 14:32:47*
%MOMM*%
%LPD*%
G01*
G04 APERTURE LIST*
G04 Aperture macros list*
%AMRoundRect*
0 Rectangle with rounded corners*
0 $1 Rounding radius*
0 $2 $3 $4 $5 $6 $7 $8 $9 X,Y pos of 4 corners*
0 Add a 4 corners polygon primitive as box body*
4,1,4,$2,$3,$4,$5,$6,$7,$8,$9,$2,$3,0*
0 Add four circle primitives for the rounded corners*
1,1,$1+$1,$2,$3*
1,1,$1+$1,$4,$5*
1,1,$1+$1,$6,$7*
1,1,$1+$1,$8,$9*
0 Add four rect primitives between the rounded corners*
20,1,$1+$1,$2,$3,$4,$5,0*
20,1,$1+$1,$4,$5,$6,$7,0*
20,1,$1+$1,$6,$7,$8,$9,0*
20,1,$1+$1,$8,$9,$2,$3,0*%
G04 Aperture macros list end*
%ADD10C,0.000000*%
%ADD11R,1.700000X1.700000*%
%ADD12RoundRect,0.250000X-0.550000X1.050000X-0.550000X-1.050000X0.550000X-1.050000X0.550000X1.050000X0*%
%ADD13RoundRect,0.250000X-0.550000X1.500000X-0.550000X-1.500000X0.550000X-1.500000X0.550000X1.500000X0*%
%ADD14C,3.200000*%
%ADD15RoundRect,0.250000X0.450000X-0.262500X0.450000X0.262500X-0.450000X0.262500X-0.450000X-0.262500X0*%
%ADD16R,3.000000X3.000000*%
%ADD17C,3.000000*%
%ADD18RoundRect,0.112500X0.112500X-0.187500X0.112500X0.187500X-0.112500X0.187500X-0.112500X-0.187500X0*%
%ADD19RoundRect,0.250000X-0.550000X1.250000X-0.550000X-1.250000X0.550000X-1.250000X0.550000X1.250000X0*%
%ADD20C,1.700000*%
%ADD21RoundRect,0.250000X0.475000X-0.250000X0.475000X0.250000X-0.475000X0.250000X-0.475000X-0.250000X0*%
%ADD22RoundRect,0.250000X-0.475000X0.250000X-0.475000X-0.250000X0.475000X-0.250000X0.475000X0.250000X0*%
%ADD23RoundRect,0.250000X-0.950000X-0.550000X0.950000X-0.550000X0.950000X0.550000X-0.950000X0.550000X0*%
%ADD24O,2.400000X1.600000*%
G04 APERTURE END LIST*
D10*
G36*
X88458520Y-67937010D02*
G01*
X88457873Y-67949842D01*
X88456800Y-67962294D01*
X88455305Y-67974362D01*
X88453391Y-67986043D01*
X88451062Y-67997332D01*
X88448323Y-68008226D01*
X88445176Y-68018721D01*
X88441627Y-68028813D01*
X88437678Y-68038498D01*
X88433334Y-68047772D01*
X88428598Y-68056631D01*
X88423475Y-68065071D01*
X88417968Y-68073090D01*
X88412082Y-68080682D01*
X88405819Y-68087843D01*
X88399061Y-68094665D01*
X88391686Y-68101238D01*
X88383699Y-68107563D01*
X88375103Y-68113640D01*
X88365903Y-68119469D01*
X88356101Y-68125050D01*
X88345704Y-68130383D01*
X88334713Y-68135468D01*
X88323133Y-68140305D01*
X88310967Y-68144894D01*
X88298221Y-68149235D01*
X88284896Y-68153328D01*
X88270999Y-68157172D01*
X88256531Y-68160769D01*
X88241498Y-68164118D01*
X88225903Y-68167219D01*
X88192173Y-68172800D01*
X88154507Y-68177636D01*
X88112933Y-68181729D01*
X88067483Y-68185078D01*
X88018189Y-68187682D01*
X87965081Y-68189543D01*
X87908191Y-68190659D01*
X87847549Y-68191031D01*
X87786906Y-68190659D01*
X87730016Y-68189543D01*
X87676908Y-68187682D01*
X87627614Y-68185078D01*
X87582164Y-68181729D01*
X87540591Y-68177636D01*
X87502924Y-68172800D01*
X87469194Y-68167219D01*
X87453599Y-68164118D01*
X87438566Y-68160769D01*
X87424098Y-68157173D01*
X87410201Y-68153328D01*
X87396876Y-68149235D01*
X87384130Y-68144894D01*
X87371965Y-68140305D01*
X87360384Y-68135468D01*
X87349394Y-68130383D01*
X87338996Y-68125050D01*
X87329195Y-68119469D01*
X87319994Y-68113640D01*
X87311398Y-68107563D01*
X87303411Y-68101238D01*
X87296036Y-68094665D01*
X87289278Y-68087843D01*
X87283015Y-68080682D01*
X87277129Y-68073090D01*
X87271622Y-68065071D01*
X87266499Y-68056631D01*
X87261763Y-68047772D01*
X87257419Y-68038498D01*
X87253471Y-68028813D01*
X87249921Y-68018721D01*
X87246775Y-68008226D01*
X87244035Y-67997332D01*
X87241706Y-67986043D01*
X87239792Y-67974362D01*
X87238297Y-67962294D01*
X87237224Y-67949842D01*
X87236577Y-67937010D01*
X87236534Y-67934387D01*
X87339549Y-67934387D01*
X87339672Y-67940743D01*
X87340039Y-67946913D01*
X87340647Y-67952897D01*
X87341492Y-67958695D01*
X87342568Y-67964307D01*
X87343874Y-67969733D01*
X87345404Y-67974973D01*
X87347155Y-67980027D01*
X87349124Y-67984895D01*
X87351305Y-67989577D01*
X87353696Y-67994073D01*
X87356292Y-67998383D01*
X87359089Y-68002507D01*
X87362085Y-68006444D01*
X87365274Y-68010196D01*
X87368653Y-68013762D01*
X87372435Y-68017172D01*
X87376833Y-68020459D01*
X87381844Y-68023622D01*
X87387463Y-68026660D01*
X87393687Y-68029575D01*
X87400511Y-68032365D01*
X87407933Y-68035032D01*
X87415947Y-68037574D01*
X87424550Y-68039993D01*
X87433739Y-68042287D01*
X87443509Y-68044458D01*
X87453857Y-68046504D01*
X87476269Y-68050225D01*
X87500944Y-68053449D01*
X87528715Y-68056296D01*
X87560393Y-68058865D01*
X87595915Y-68061123D01*
X87635220Y-68063040D01*
X87724931Y-68065727D01*
X87829028Y-68066678D01*
X87886575Y-68066435D01*
X87940153Y-68065727D01*
X87989762Y-68064585D01*
X88035403Y-68063040D01*
X88077075Y-68061123D01*
X88114778Y-68058865D01*
X88148512Y-68056296D01*
X88178278Y-68053449D01*
X88191888Y-68051899D01*
X88204932Y-68050224D01*
X88217403Y-68048426D01*
X88229293Y-68046504D01*
X88240593Y-68044457D01*
X88251296Y-68042287D01*
X88261395Y-68039992D01*
X88270882Y-68037574D01*
X88279748Y-68035032D01*
X88287987Y-68032365D01*
X88295590Y-68029575D01*
X88302549Y-68026660D01*
X88308858Y-68023621D01*
X88314507Y-68020459D01*
X88319490Y-68017172D01*
X88323799Y-68013762D01*
X88328109Y-68010166D01*
X88332113Y-68006331D01*
X88335815Y-68002262D01*
X88339219Y-67997969D01*
X88342328Y-67993459D01*
X88345146Y-67988740D01*
X88347678Y-67983819D01*
X88349926Y-67978704D01*
X88351896Y-67973403D01*
X88353590Y-67967924D01*
X88355013Y-67962275D01*
X88356169Y-67956462D01*
X88357061Y-67950495D01*
X88357693Y-67944380D01*
X88358070Y-67938126D01*
X88358194Y-67931740D01*
X88358041Y-67924452D01*
X88357585Y-67917467D01*
X88356834Y-67910776D01*
X88355797Y-67904372D01*
X88354480Y-67898247D01*
X88352892Y-67892393D01*
X88351041Y-67886803D01*
X88348934Y-67881469D01*
X88346579Y-67876383D01*
X88343983Y-67871537D01*
X88341155Y-67866924D01*
X88338103Y-67862535D01*
X88334833Y-67858364D01*
X88331354Y-67854401D01*
X88327673Y-67850641D01*
X88323799Y-67847074D01*
X88319054Y-67843663D01*
X88313747Y-67840376D01*
X88307875Y-67837214D01*
X88301433Y-67834175D01*
X88294417Y-67831261D01*
X88286824Y-67828470D01*
X88278649Y-67825803D01*
X88269890Y-67823261D01*
X88260541Y-67820842D01*
X88250599Y-67818548D01*
X88228921Y-67814331D01*
X88204824Y-67810610D01*
X88178278Y-67807386D01*
X88178278Y-67812678D01*
X88148512Y-67809830D01*
X88114778Y-67807262D01*
X88035403Y-67803086D01*
X87940153Y-67800399D01*
X87829028Y-67799448D01*
X87774452Y-67799691D01*
X87723815Y-67800399D01*
X87677084Y-67801541D01*
X87634228Y-67803086D01*
X87595218Y-67805004D01*
X87560021Y-67807262D01*
X87528607Y-67809830D01*
X87500944Y-67812678D01*
X87488326Y-67814228D01*
X87476269Y-67815903D01*
X87464778Y-67817701D01*
X87453857Y-67819623D01*
X87443509Y-67821670D01*
X87433739Y-67823840D01*
X87424551Y-67826135D01*
X87415947Y-67828553D01*
X87407933Y-67831096D01*
X87400511Y-67833762D01*
X87393687Y-67836553D01*
X87387463Y-67839467D01*
X87381844Y-67842506D01*
X87376833Y-67845668D01*
X87372435Y-67848955D01*
X87368653Y-67852366D01*
X87365274Y-67855961D01*
X87362085Y-67859797D01*
X87359089Y-67863865D01*
X87356292Y-67868158D01*
X87353696Y-67872668D01*
X87351305Y-67877387D01*
X87349124Y-67882308D01*
X87347155Y-67887423D01*
X87345404Y-67892723D01*
X87343874Y-67898202D01*
X87342568Y-67903852D01*
X87341492Y-67909664D01*
X87340647Y-67915632D01*
X87340039Y-67921746D01*
X87339672Y-67928001D01*
X87339549Y-67934387D01*
X87236534Y-67934387D01*
X87236361Y-67923802D01*
X87236577Y-67911089D01*
X87237224Y-67898749D01*
X87238297Y-67886781D01*
X87239792Y-67875185D01*
X87241706Y-67863961D01*
X87244035Y-67853109D01*
X87246774Y-67842629D01*
X87249921Y-67832521D01*
X87253470Y-67822785D01*
X87257419Y-67813421D01*
X87261763Y-67804430D01*
X87266499Y-67795810D01*
X87271622Y-67787562D01*
X87277129Y-67779687D01*
X87283015Y-67772184D01*
X87289278Y-67765052D01*
X87296036Y-67758261D01*
X87303411Y-67751771D01*
X87311399Y-67745577D01*
X87319994Y-67739669D01*
X87329195Y-67734040D01*
X87338996Y-67728682D01*
X87349394Y-67723588D01*
X87360385Y-67718750D01*
X87371965Y-67714160D01*
X87384130Y-67709810D01*
X87396876Y-67705693D01*
X87410201Y-67701800D01*
X87424098Y-67698125D01*
X87438566Y-67694659D01*
X87453599Y-67691394D01*
X87469194Y-67688323D01*
X87502924Y-67682742D01*
X87540591Y-67677905D01*
X87582164Y-67673812D01*
X87627614Y-67670463D01*
X87676908Y-67667859D01*
X87730016Y-67665998D01*
X87786906Y-67664882D01*
X87847549Y-67664510D01*
X87908191Y-67664882D01*
X87965081Y-67665998D01*
X88018189Y-67667859D01*
X88067483Y-67670463D01*
X88112933Y-67673812D01*
X88154507Y-67677905D01*
X88192173Y-67682742D01*
X88225903Y-67688323D01*
X88241498Y-67690958D01*
X88256531Y-67693899D01*
X88270999Y-67697142D01*
X88284896Y-67700684D01*
X88298221Y-67704520D01*
X88310967Y-67708647D01*
X88323133Y-67713061D01*
X88334713Y-67717758D01*
X88345704Y-67722734D01*
X88356101Y-67727985D01*
X88365903Y-67733507D01*
X88375103Y-67739297D01*
X88383699Y-67745350D01*
X88391686Y-67751663D01*
X88399061Y-67758232D01*
X88405819Y-67765052D01*
X88412082Y-67772154D01*
X88417968Y-67779578D01*
X88423475Y-67787336D01*
X88428598Y-67795438D01*
X88433334Y-67803897D01*
X88437678Y-67812724D01*
X88441627Y-67821930D01*
X88445176Y-67831529D01*
X88448323Y-67841530D01*
X88451062Y-67851946D01*
X88453391Y-67862788D01*
X88455305Y-67874069D01*
X88456800Y-67885799D01*
X88457873Y-67897990D01*
X88458520Y-67910653D01*
X88458736Y-67923802D01*
X88458606Y-67931740D01*
X88458520Y-67937010D01*
G37*
G36*
X83733238Y-67154004D02*
G01*
X83743539Y-67154420D01*
X83753605Y-67155113D01*
X83763441Y-67156081D01*
X83773055Y-67157322D01*
X83782453Y-67158835D01*
X83791640Y-67160618D01*
X83800623Y-67162670D01*
X83809408Y-67164989D01*
X83818002Y-67167575D01*
X83826411Y-67170424D01*
X83834641Y-67173537D01*
X83842699Y-67176912D01*
X83850591Y-67180547D01*
X83858322Y-67184440D01*
X83865900Y-67188591D01*
X83873331Y-67192997D01*
X83880621Y-67197658D01*
X83887776Y-67202572D01*
X83894803Y-67207737D01*
X83908497Y-67218815D01*
X83921752Y-67230883D01*
X83934621Y-67243926D01*
X83947151Y-67257935D01*
X83959396Y-67272897D01*
X83971403Y-67288802D01*
X84235986Y-67688322D01*
X84508507Y-67288802D01*
X84520544Y-67272898D01*
X84532868Y-67257935D01*
X84545517Y-67243927D01*
X84558530Y-67230883D01*
X84571946Y-67218816D01*
X84585805Y-67207737D01*
X84600144Y-67197658D01*
X84615002Y-67188591D01*
X84630418Y-67180547D01*
X84646431Y-67173538D01*
X84663080Y-67167575D01*
X84680404Y-67162670D01*
X84698440Y-67158835D01*
X84717228Y-67156081D01*
X84736807Y-67154420D01*
X84757215Y-67153864D01*
X85172611Y-67153864D01*
X85187911Y-67154217D01*
X85202553Y-67155264D01*
X85216529Y-67156984D01*
X85229832Y-67159357D01*
X85242455Y-67162365D01*
X85254391Y-67165986D01*
X85265632Y-67170201D01*
X85276171Y-67174990D01*
X85286000Y-67180333D01*
X85295113Y-67186211D01*
X85303502Y-67192603D01*
X85311161Y-67199490D01*
X85318080Y-67206851D01*
X85324255Y-67214668D01*
X85329676Y-67222919D01*
X85334337Y-67231586D01*
X85338231Y-67240648D01*
X85341351Y-67250086D01*
X85343688Y-67259879D01*
X85345236Y-67270008D01*
X85345988Y-67280452D01*
X85345936Y-67291193D01*
X85345073Y-67302210D01*
X85343391Y-67313483D01*
X85340884Y-67324993D01*
X85337545Y-67336719D01*
X85333365Y-67348642D01*
X85328338Y-67360741D01*
X85322456Y-67372998D01*
X85315713Y-67385391D01*
X85308100Y-67397902D01*
X85299611Y-67410510D01*
X84884215Y-67987302D01*
X84884215Y-68074616D01*
X85622403Y-68074616D01*
X85622403Y-68556157D01*
X84884215Y-68556157D01*
X84884215Y-68643470D01*
X85299611Y-69220262D01*
X85308340Y-69233103D01*
X85316178Y-69245817D01*
X85323131Y-69258386D01*
X85329206Y-69270791D01*
X85334411Y-69283014D01*
X85338754Y-69295037D01*
X85342241Y-69306840D01*
X85344880Y-69318406D01*
X85346677Y-69329716D01*
X85347641Y-69340752D01*
X85347778Y-69351496D01*
X85347097Y-69361928D01*
X85345603Y-69372031D01*
X85343304Y-69381786D01*
X85340208Y-69391175D01*
X85336322Y-69400179D01*
X85331653Y-69408780D01*
X85326208Y-69416960D01*
X85319995Y-69424699D01*
X85313021Y-69431981D01*
X85305293Y-69438785D01*
X85296819Y-69445095D01*
X85287605Y-69450891D01*
X85277659Y-69456155D01*
X85266988Y-69460868D01*
X85255600Y-69465013D01*
X85243502Y-69468571D01*
X85230701Y-69471523D01*
X85217204Y-69473852D01*
X85203018Y-69475537D01*
X85188152Y-69476562D01*
X85172611Y-69476908D01*
X84757215Y-69476908D01*
X84746672Y-69476769D01*
X84736371Y-69476352D01*
X84726305Y-69475659D01*
X84716469Y-69474691D01*
X84706855Y-69473450D01*
X84697457Y-69471937D01*
X84688270Y-69470154D01*
X84679287Y-69468102D01*
X84670502Y-69465783D01*
X84661908Y-69463198D01*
X84653499Y-69460348D01*
X84645269Y-69457235D01*
X84637211Y-69453860D01*
X84629320Y-69450226D01*
X84621588Y-69446332D01*
X84614010Y-69442182D01*
X84606579Y-69437775D01*
X84599289Y-69433114D01*
X84592134Y-69428201D01*
X84585107Y-69423036D01*
X84571414Y-69411957D01*
X84558158Y-69399890D01*
X84545290Y-69386846D01*
X84532759Y-69372837D01*
X84520515Y-69357875D01*
X84508507Y-69341971D01*
X84235986Y-68942451D01*
X83971403Y-69341971D01*
X83959366Y-69357875D01*
X83947043Y-69372837D01*
X83934394Y-69386846D01*
X83921380Y-69399889D01*
X83907964Y-69411956D01*
X83894106Y-69423035D01*
X83879767Y-69433114D01*
X83864908Y-69442181D01*
X83849492Y-69450225D01*
X83833479Y-69457235D01*
X83816830Y-69463198D01*
X83799507Y-69468102D01*
X83781470Y-69471937D01*
X83762682Y-69474691D01*
X83743103Y-69476352D01*
X83722694Y-69476908D01*
X83307299Y-69476908D01*
X83291999Y-69476555D01*
X83277357Y-69475508D01*
X83263381Y-69473788D01*
X83250078Y-69471415D01*
X83237455Y-69468408D01*
X83225519Y-69464787D01*
X83214278Y-69460572D01*
X83203739Y-69455783D01*
X83193910Y-69450439D01*
X83184797Y-69444562D01*
X83176407Y-69438170D01*
X83168749Y-69431283D01*
X83161829Y-69423921D01*
X83155655Y-69416105D01*
X83150234Y-69407853D01*
X83145572Y-69399186D01*
X83141678Y-69390124D01*
X83138559Y-69380687D01*
X83136222Y-69370894D01*
X83134674Y-69360765D01*
X83133922Y-69350320D01*
X83133974Y-69339580D01*
X83134837Y-69328563D01*
X83136519Y-69317290D01*
X83139025Y-69305780D01*
X83142365Y-69294054D01*
X83146545Y-69282131D01*
X83151572Y-69270031D01*
X83157454Y-69257775D01*
X83164197Y-69245381D01*
X83171810Y-69232870D01*
X83180299Y-69220262D01*
X83595695Y-68643470D01*
X83595695Y-68556157D01*
X82849570Y-68556157D01*
X82849570Y-68074616D01*
X83595695Y-68074616D01*
X83595695Y-67987302D01*
X83180299Y-67410510D01*
X83171570Y-67397669D01*
X83163732Y-67384955D01*
X83156779Y-67372386D01*
X83150704Y-67359981D01*
X83145499Y-67347758D01*
X83141156Y-67335736D01*
X83137669Y-67323933D01*
X83135030Y-67312367D01*
X83133233Y-67301056D01*
X83132269Y-67290020D01*
X83132132Y-67279277D01*
X83132814Y-67268845D01*
X83134307Y-67258742D01*
X83136606Y-67248987D01*
X83139702Y-67239598D01*
X83143588Y-67230594D01*
X83148257Y-67221993D01*
X83153702Y-67213813D01*
X83159915Y-67206073D01*
X83166889Y-67198792D01*
X83174617Y-67191987D01*
X83183091Y-67185678D01*
X83192305Y-67179882D01*
X83202251Y-67174618D01*
X83212922Y-67169904D01*
X83224310Y-67165759D01*
X83236408Y-67162201D01*
X83249209Y-67159249D01*
X83262706Y-67156921D01*
X83276892Y-67155235D01*
X83291758Y-67154210D01*
X83307299Y-67153864D01*
X83722694Y-67153864D01*
X83733238Y-67154004D01*
G37*
G36*
X88440215Y-68400051D02*
G01*
X88220611Y-68400051D01*
X88220611Y-68270405D01*
X88440215Y-68270405D01*
X88440215Y-68400051D01*
G37*
G36*
X88261721Y-69866083D02*
G01*
X88273428Y-69866796D01*
X88284829Y-69867976D01*
X88295919Y-69869616D01*
X88306694Y-69871710D01*
X88317147Y-69874251D01*
X88327274Y-69877231D01*
X88337069Y-69880644D01*
X88346527Y-69884484D01*
X88355642Y-69888743D01*
X88364410Y-69893415D01*
X88372824Y-69898493D01*
X88380880Y-69903970D01*
X88388572Y-69909840D01*
X88395894Y-69916095D01*
X88402843Y-69922729D01*
X88409411Y-69929736D01*
X88415595Y-69937107D01*
X88421387Y-69944837D01*
X88426784Y-69952919D01*
X88431780Y-69961345D01*
X88436370Y-69970110D01*
X88440547Y-69979206D01*
X88444308Y-69988627D01*
X88447646Y-69998366D01*
X88450556Y-70008415D01*
X88453033Y-70018769D01*
X88455072Y-70029420D01*
X88456667Y-70040362D01*
X88457813Y-70051588D01*
X88458504Y-70063091D01*
X88458736Y-70074865D01*
X88458736Y-72575177D01*
X88458497Y-72587183D01*
X88457784Y-72598889D01*
X88456604Y-72610290D01*
X88454964Y-72621381D01*
X88452870Y-72632155D01*
X88450330Y-72642609D01*
X88447349Y-72652736D01*
X88443936Y-72662531D01*
X88440096Y-72671988D01*
X88435837Y-72681104D01*
X88431165Y-72689871D01*
X88426087Y-72698286D01*
X88420610Y-72706341D01*
X88414740Y-72714033D01*
X88408485Y-72721356D01*
X88401851Y-72728304D01*
X88394844Y-72734873D01*
X88387473Y-72741056D01*
X88379743Y-72746849D01*
X88371661Y-72752246D01*
X88363235Y-72757242D01*
X88354470Y-72761831D01*
X88345374Y-72766009D01*
X88335953Y-72769770D01*
X88326214Y-72773108D01*
X88316165Y-72776018D01*
X88305811Y-72778495D01*
X88295159Y-72780534D01*
X88284217Y-72782129D01*
X88272992Y-72783275D01*
X88261489Y-72783966D01*
X88249715Y-72784198D01*
X82849569Y-72784198D01*
X82849569Y-72302656D01*
X87048507Y-72302656D01*
X87048507Y-70074865D01*
X87045861Y-70074865D01*
X87046100Y-70062859D01*
X87046813Y-70051152D01*
X87047993Y-70039751D01*
X87049633Y-70028661D01*
X87051727Y-70017886D01*
X87054268Y-70007433D01*
X87057248Y-69997306D01*
X87060661Y-69987511D01*
X87064501Y-69978053D01*
X87068760Y-69968938D01*
X87073432Y-69960170D01*
X87078510Y-69951756D01*
X87083987Y-69943700D01*
X87089857Y-69936008D01*
X87096112Y-69928685D01*
X87102746Y-69921737D01*
X87109753Y-69915169D01*
X87117124Y-69908985D01*
X87124854Y-69903192D01*
X87132936Y-69897795D01*
X87141362Y-69892800D01*
X87150127Y-69888210D01*
X87159223Y-69884033D01*
X87168644Y-69880272D01*
X87178383Y-69876934D01*
X87188432Y-69874024D01*
X87198786Y-69871547D01*
X87209438Y-69869508D01*
X87220380Y-69867913D01*
X87231605Y-69866767D01*
X87243108Y-69866076D01*
X87254882Y-69865844D01*
X88249715Y-69865844D01*
X88261721Y-69866083D01*
G37*
G36*
X85852590Y-71416302D02*
G01*
X86630465Y-71416302D01*
X86630465Y-71881968D01*
X83738569Y-71881968D01*
X83622534Y-71878484D01*
X83567517Y-71874115D01*
X83514490Y-71867984D01*
X83463444Y-71860082D01*
X83414369Y-71850400D01*
X83367257Y-71838929D01*
X83322099Y-71825661D01*
X83278887Y-71810587D01*
X83237612Y-71793698D01*
X83198265Y-71774986D01*
X83160838Y-71754441D01*
X83125321Y-71732055D01*
X83091706Y-71707820D01*
X83059985Y-71681726D01*
X83030148Y-71653765D01*
X83002187Y-71623928D01*
X82976093Y-71592207D01*
X82951858Y-71558592D01*
X82929472Y-71523076D01*
X82908927Y-71485648D01*
X82890215Y-71446301D01*
X82873326Y-71405026D01*
X82858251Y-71361814D01*
X82844983Y-71316657D01*
X82833513Y-71269545D01*
X82823831Y-71220470D01*
X82815928Y-71169423D01*
X82809798Y-71116395D01*
X82805429Y-71061379D01*
X82801945Y-70945343D01*
X82801945Y-70876552D01*
X84077236Y-70876552D01*
X84079317Y-70943280D01*
X84081921Y-70974976D01*
X84085572Y-71005562D01*
X84090270Y-71035042D01*
X84096020Y-71063419D01*
X84102823Y-71090693D01*
X84110681Y-71116868D01*
X84119598Y-71141947D01*
X84129575Y-71165931D01*
X84140615Y-71188822D01*
X84152720Y-71210625D01*
X84165893Y-71231340D01*
X84180136Y-71250971D01*
X84195452Y-71269519D01*
X84211843Y-71286987D01*
X84229311Y-71303378D01*
X84247860Y-71318694D01*
X84267490Y-71332937D01*
X84288205Y-71346110D01*
X84310008Y-71358215D01*
X84332900Y-71369255D01*
X84356883Y-71379232D01*
X84381962Y-71388149D01*
X84408137Y-71396007D01*
X84435411Y-71402810D01*
X84463787Y-71408560D01*
X84493268Y-71413259D01*
X84523854Y-71416909D01*
X84555550Y-71419513D01*
X84622278Y-71421594D01*
X85294319Y-71421594D01*
X85294319Y-70339448D01*
X84622278Y-70339448D01*
X84555550Y-70341440D01*
X84523854Y-70343937D01*
X84493268Y-70347443D01*
X84463787Y-70351962D01*
X84435411Y-70357499D01*
X84408137Y-70364061D01*
X84381962Y-70371653D01*
X84356883Y-70380279D01*
X84332900Y-70389946D01*
X84310008Y-70400658D01*
X84288205Y-70412420D01*
X84267490Y-70425239D01*
X84247860Y-70439120D01*
X84229311Y-70454067D01*
X84211843Y-70470086D01*
X84195452Y-70487183D01*
X84180136Y-70505362D01*
X84165893Y-70524630D01*
X84152720Y-70544991D01*
X84140615Y-70566451D01*
X84129575Y-70589015D01*
X84119598Y-70612688D01*
X84110681Y-70637476D01*
X84102823Y-70663384D01*
X84096020Y-70690418D01*
X84090270Y-70718582D01*
X84085572Y-70747883D01*
X84081921Y-70778325D01*
X84079317Y-70809913D01*
X84077756Y-70842654D01*
X84077236Y-70876552D01*
X82801945Y-70876552D01*
X82801945Y-70810406D01*
X82801944Y-70805114D01*
X82805429Y-70688989D01*
X82809797Y-70633866D01*
X82815928Y-70580694D01*
X82823830Y-70529467D01*
X82833512Y-70480181D01*
X82844983Y-70432828D01*
X82858251Y-70387403D01*
X82873325Y-70343901D01*
X82890214Y-70302316D01*
X82908927Y-70262641D01*
X82929472Y-70224871D01*
X82951857Y-70189000D01*
X82976093Y-70155022D01*
X83002187Y-70122932D01*
X83030148Y-70092724D01*
X83059984Y-70064391D01*
X83091706Y-70037929D01*
X83125321Y-70013331D01*
X83160837Y-69990591D01*
X83198265Y-69969703D01*
X83237612Y-69950663D01*
X83278887Y-69933463D01*
X83322099Y-69918099D01*
X83367256Y-69904564D01*
X83414368Y-69892852D01*
X83463443Y-69882959D01*
X83514490Y-69874877D01*
X83567517Y-69868601D01*
X83622534Y-69864126D01*
X83738569Y-69860552D01*
X86630465Y-69860552D01*
X86630465Y-70334156D01*
X85852590Y-70334156D01*
X85852590Y-70339448D01*
X85852590Y-71416302D01*
G37*
G36*
X88300255Y-74021311D02*
G01*
X88276643Y-74050783D01*
X88251369Y-74079003D01*
X88224428Y-74105975D01*
X88195816Y-74131703D01*
X88165529Y-74156192D01*
X88133562Y-74179446D01*
X88099911Y-74201470D01*
X88064572Y-74222267D01*
X88027540Y-74241843D01*
X87988811Y-74260201D01*
X87948381Y-74277346D01*
X87906245Y-74293282D01*
X87816837Y-74321546D01*
X87720554Y-74345027D01*
X87617361Y-74363761D01*
X87016757Y-74466948D01*
X86994709Y-74472003D01*
X86974196Y-74478239D01*
X86964510Y-74481802D01*
X86955203Y-74485662D01*
X86946271Y-74489819D01*
X86937713Y-74494275D01*
X86929527Y-74499028D01*
X86921711Y-74504081D01*
X86914264Y-74509433D01*
X86907182Y-74515085D01*
X86900465Y-74521037D01*
X86894111Y-74527290D01*
X86888117Y-74533844D01*
X86882481Y-74540701D01*
X86877202Y-74547859D01*
X86872277Y-74555321D01*
X86867706Y-74563085D01*
X86863485Y-74571154D01*
X86859612Y-74579526D01*
X86856087Y-74588204D01*
X86852907Y-74597186D01*
X86850069Y-74606474D01*
X86845416Y-74625970D01*
X86842111Y-74646694D01*
X86840140Y-74668651D01*
X86839486Y-74691844D01*
X86839486Y-74924677D01*
X88458736Y-74924677D01*
X88458736Y-75406218D01*
X83058590Y-75406218D01*
X83045886Y-75405979D01*
X83033570Y-75405266D01*
X83021644Y-75404086D01*
X83010108Y-75402446D01*
X82998963Y-75400352D01*
X82988211Y-75397812D01*
X82977852Y-75394832D01*
X82967888Y-75391418D01*
X82958319Y-75387578D01*
X82949146Y-75383319D01*
X82940371Y-75378647D01*
X82931993Y-75373569D01*
X82924015Y-75368092D01*
X82916438Y-75362222D01*
X82909261Y-75355967D01*
X82902486Y-75349333D01*
X82896115Y-75342327D01*
X82890147Y-75334955D01*
X82884585Y-75327225D01*
X82879428Y-75319143D01*
X82874679Y-75310717D01*
X82870337Y-75301952D01*
X82866404Y-75292856D01*
X82862881Y-75283435D01*
X82859769Y-75273696D01*
X82857069Y-75263647D01*
X82854781Y-75253293D01*
X82852908Y-75242641D01*
X82851449Y-75231700D01*
X82850405Y-75220474D01*
X82849779Y-75208971D01*
X82849569Y-75197197D01*
X82849569Y-74011865D01*
X84254507Y-74011865D01*
X84254507Y-74924677D01*
X85495403Y-74924677D01*
X85495403Y-74011865D01*
X85493601Y-73959287D01*
X85491346Y-73934131D01*
X85488184Y-73909737D01*
X85484113Y-73886112D01*
X85479131Y-73863264D01*
X85473235Y-73841197D01*
X85466423Y-73819918D01*
X85458692Y-73799434D01*
X85450041Y-73779751D01*
X85440466Y-73760874D01*
X85429965Y-73742812D01*
X85418536Y-73725568D01*
X85406176Y-73709151D01*
X85392884Y-73693567D01*
X85378655Y-73678821D01*
X85363489Y-73664919D01*
X85347383Y-73651869D01*
X85330334Y-73639677D01*
X85312339Y-73628348D01*
X85293397Y-73617890D01*
X85273505Y-73608307D01*
X85252660Y-73599608D01*
X85230861Y-73591797D01*
X85208104Y-73584882D01*
X85184388Y-73578869D01*
X85159709Y-73573763D01*
X85134066Y-73569571D01*
X85107456Y-73566300D01*
X85079876Y-73563956D01*
X85051324Y-73562545D01*
X85021799Y-73562073D01*
X84704299Y-73562073D01*
X84676238Y-73562545D01*
X84649105Y-73563956D01*
X84622898Y-73566300D01*
X84597613Y-73569571D01*
X84573249Y-73573763D01*
X84549803Y-73578869D01*
X84527272Y-73584882D01*
X84505655Y-73591797D01*
X84484948Y-73599608D01*
X84465150Y-73608307D01*
X84446258Y-73617890D01*
X84428269Y-73628348D01*
X84411182Y-73639677D01*
X84394993Y-73651869D01*
X84379700Y-73664919D01*
X84365302Y-73678821D01*
X84351794Y-73693567D01*
X84339176Y-73709151D01*
X84327444Y-73725568D01*
X84316596Y-73742812D01*
X84306631Y-73760874D01*
X84297544Y-73779751D01*
X84289334Y-73799434D01*
X84281999Y-73819918D01*
X84275536Y-73841197D01*
X84269942Y-73863264D01*
X84265216Y-73886112D01*
X84261354Y-73909737D01*
X84258355Y-73934131D01*
X84256216Y-73959287D01*
X84254507Y-74011865D01*
X82849569Y-74011865D01*
X82849569Y-74003927D01*
X82849570Y-74003928D01*
X82850620Y-73951957D01*
X82853754Y-73901232D01*
X82858946Y-73851773D01*
X82866173Y-73803599D01*
X82875410Y-73756731D01*
X82886632Y-73711190D01*
X82899813Y-73666995D01*
X82914930Y-73624168D01*
X82931958Y-73582728D01*
X82950872Y-73542696D01*
X82971647Y-73504092D01*
X82994259Y-73466937D01*
X83018682Y-73431251D01*
X83044893Y-73397054D01*
X83072867Y-73364366D01*
X83102578Y-73333209D01*
X83134002Y-73303602D01*
X83167114Y-73275565D01*
X83201891Y-73249120D01*
X83238306Y-73224285D01*
X83276335Y-73201083D01*
X83315954Y-73179532D01*
X83357138Y-73159654D01*
X83399862Y-73141469D01*
X83444101Y-73124996D01*
X83489831Y-73110257D01*
X83537027Y-73097272D01*
X83585664Y-73086061D01*
X83635718Y-73076645D01*
X83687164Y-73069043D01*
X83739977Y-73063276D01*
X83794132Y-73059365D01*
X84023700Y-73048947D01*
X84255499Y-73041506D01*
X84488787Y-73037041D01*
X84722820Y-73035553D01*
X84955736Y-73037041D01*
X85187163Y-73041506D01*
X85418591Y-73048947D01*
X85651507Y-73059365D01*
X85709392Y-73063230D01*
X85765954Y-73068863D01*
X85821175Y-73076246D01*
X85875033Y-73085363D01*
X85927510Y-73096200D01*
X85978586Y-73108740D01*
X86028240Y-73122966D01*
X86076453Y-73138864D01*
X86123204Y-73156416D01*
X86168475Y-73175608D01*
X86212244Y-73196422D01*
X86254493Y-73218844D01*
X86295202Y-73242856D01*
X86334350Y-73268443D01*
X86371917Y-73295590D01*
X86407885Y-73324279D01*
X86442232Y-73354495D01*
X86474939Y-73386223D01*
X86505987Y-73419445D01*
X86535355Y-73454147D01*
X86563023Y-73490312D01*
X86588972Y-73527924D01*
X86613182Y-73566967D01*
X86635633Y-73607425D01*
X86656305Y-73649282D01*
X86675178Y-73692522D01*
X86692232Y-73737130D01*
X86707448Y-73783088D01*
X86720805Y-73830382D01*
X86732284Y-73878995D01*
X86741865Y-73928912D01*
X86749528Y-73980115D01*
X86918861Y-73948365D01*
X86940909Y-73943310D01*
X86961422Y-73937074D01*
X86971108Y-73933511D01*
X86980416Y-73929651D01*
X86989348Y-73925494D01*
X86997905Y-73921038D01*
X87006091Y-73916285D01*
X87013907Y-73911232D01*
X87021355Y-73905880D01*
X87028436Y-73900228D01*
X87035153Y-73894276D01*
X87041507Y-73888023D01*
X87047502Y-73881468D01*
X87053137Y-73874612D01*
X87058416Y-73867454D01*
X87063341Y-73859992D01*
X87067912Y-73852228D01*
X87072133Y-73844159D01*
X87076006Y-73835787D01*
X87079531Y-73827109D01*
X87082711Y-73818127D01*
X87085549Y-73808838D01*
X87090202Y-73789343D01*
X87093507Y-73768619D01*
X87095478Y-73746662D01*
X87096132Y-73723469D01*
X87096132Y-73281615D01*
X87096371Y-73269608D01*
X87097084Y-73257902D01*
X87098264Y-73246501D01*
X87099904Y-73235411D01*
X87101998Y-73224636D01*
X87104538Y-73214182D01*
X87107519Y-73204056D01*
X87110932Y-73194261D01*
X87114772Y-73184803D01*
X87119031Y-73175687D01*
X87123703Y-73166920D01*
X87128781Y-73158506D01*
X87134258Y-73150450D01*
X87140128Y-73142758D01*
X87146383Y-73135435D01*
X87153017Y-73128487D01*
X87160024Y-73121918D01*
X87167395Y-73115735D01*
X87175125Y-73109942D01*
X87183207Y-73104545D01*
X87191633Y-73099549D01*
X87200398Y-73094960D01*
X87209494Y-73090782D01*
X87218915Y-73087022D01*
X87228654Y-73083684D01*
X87238703Y-73080773D01*
X87249057Y-73078296D01*
X87259709Y-73076257D01*
X87270651Y-73074662D01*
X87281876Y-73073517D01*
X87293379Y-73072825D01*
X87305153Y-73072594D01*
X88249715Y-73072594D01*
X88261721Y-73072833D01*
X88273428Y-73073546D01*
X88284829Y-73074726D01*
X88295919Y-73076366D01*
X88306694Y-73078460D01*
X88317147Y-73081000D01*
X88327274Y-73083980D01*
X88337069Y-73087394D01*
X88346527Y-73091233D01*
X88355642Y-73095493D01*
X88364410Y-73100165D01*
X88372824Y-73105243D01*
X88380880Y-73110720D01*
X88388572Y-73116590D01*
X88395895Y-73122845D01*
X88402843Y-73129479D01*
X88409411Y-73136485D01*
X88415595Y-73143857D01*
X88421387Y-73151587D01*
X88426785Y-73159669D01*
X88431780Y-73168095D01*
X88436370Y-73176860D01*
X88440547Y-73185956D01*
X88444308Y-73195377D01*
X88447646Y-73205116D01*
X88450556Y-73215165D01*
X88453033Y-73225519D01*
X88455072Y-73236170D01*
X88456667Y-73247112D01*
X88457813Y-73258338D01*
X88458504Y-73269841D01*
X88458736Y-73281615D01*
X88458736Y-73474760D01*
X88455537Y-73568373D01*
X88451531Y-73613213D01*
X88445915Y-73656749D01*
X88438685Y-73698985D01*
X88429837Y-73739925D01*
X88419365Y-73779573D01*
X88407266Y-73817933D01*
X88393536Y-73855011D01*
X88378169Y-73890811D01*
X88361162Y-73925336D01*
X88342511Y-73958591D01*
X88322210Y-73990582D01*
X88307004Y-74011865D01*
X88300255Y-74021311D01*
G37*
G36*
X88458520Y-68749281D02*
G01*
X88457873Y-68762113D01*
X88456800Y-68774565D01*
X88455305Y-68786633D01*
X88453391Y-68798314D01*
X88451062Y-68809603D01*
X88448323Y-68820497D01*
X88445176Y-68830992D01*
X88441627Y-68841084D01*
X88437678Y-68850769D01*
X88433334Y-68860043D01*
X88428598Y-68868902D01*
X88423475Y-68877343D01*
X88417968Y-68885361D01*
X88412082Y-68892953D01*
X88405819Y-68900114D01*
X88399061Y-68906936D01*
X88391686Y-68913509D01*
X88383699Y-68919834D01*
X88375103Y-68925911D01*
X88365903Y-68931740D01*
X88356101Y-68937321D01*
X88345704Y-68942654D01*
X88334713Y-68947739D01*
X88323133Y-68952576D01*
X88310967Y-68957165D01*
X88298221Y-68961506D01*
X88284896Y-68965598D01*
X88270999Y-68969443D01*
X88256531Y-68973040D01*
X88241498Y-68976388D01*
X88225903Y-68979489D01*
X88192173Y-68985070D01*
X88154507Y-68989907D01*
X88112933Y-68994000D01*
X88067483Y-68997348D01*
X88018189Y-68999953D01*
X87965081Y-69001813D01*
X87908191Y-69002929D01*
X87847549Y-69003301D01*
X87786906Y-69002929D01*
X87730016Y-69001813D01*
X87676908Y-68999953D01*
X87627614Y-68997348D01*
X87582164Y-68994000D01*
X87540591Y-68989907D01*
X87502924Y-68985070D01*
X87469194Y-68979489D01*
X87453599Y-68976388D01*
X87438566Y-68973040D01*
X87424098Y-68969443D01*
X87410201Y-68965599D01*
X87396876Y-68961506D01*
X87384130Y-68957165D01*
X87371965Y-68952576D01*
X87360384Y-68947739D01*
X87349394Y-68942654D01*
X87338996Y-68937321D01*
X87329195Y-68931740D01*
X87319994Y-68925911D01*
X87311398Y-68919834D01*
X87303411Y-68913509D01*
X87296036Y-68906936D01*
X87289278Y-68900114D01*
X87283015Y-68892953D01*
X87277129Y-68885361D01*
X87271622Y-68877343D01*
X87266499Y-68868902D01*
X87261763Y-68860043D01*
X87257419Y-68850769D01*
X87253471Y-68841084D01*
X87249921Y-68830992D01*
X87246775Y-68820497D01*
X87244035Y-68809603D01*
X87241706Y-68798314D01*
X87239792Y-68786633D01*
X87238297Y-68774565D01*
X87237224Y-68762113D01*
X87236577Y-68749281D01*
X87236534Y-68746658D01*
X87339549Y-68746658D01*
X87339672Y-68753014D01*
X87340039Y-68759184D01*
X87340647Y-68765168D01*
X87341492Y-68770966D01*
X87342568Y-68776578D01*
X87343874Y-68782004D01*
X87345404Y-68787244D01*
X87347155Y-68792298D01*
X87349124Y-68797166D01*
X87351305Y-68801848D01*
X87353696Y-68806344D01*
X87356292Y-68810653D01*
X87359089Y-68814777D01*
X87362085Y-68818715D01*
X87365274Y-68822466D01*
X87368653Y-68826032D01*
X87372435Y-68829443D01*
X87376833Y-68832729D01*
X87381844Y-68835892D01*
X87387463Y-68838931D01*
X87393687Y-68841845D01*
X87400511Y-68844636D01*
X87407933Y-68847302D01*
X87415947Y-68849845D01*
X87424550Y-68852263D01*
X87433739Y-68854558D01*
X87443509Y-68856728D01*
X87453857Y-68858775D01*
X87476269Y-68862496D01*
X87500944Y-68865720D01*
X87528715Y-68868567D01*
X87560393Y-68871136D01*
X87595915Y-68873394D01*
X87635220Y-68875311D01*
X87724931Y-68877998D01*
X87829028Y-68878949D01*
X87886575Y-68878706D01*
X87940153Y-68877998D01*
X87989762Y-68876856D01*
X88035403Y-68875311D01*
X88077075Y-68873394D01*
X88114778Y-68871136D01*
X88148512Y-68868567D01*
X88178278Y-68865720D01*
X88191888Y-68864170D01*
X88204932Y-68862495D01*
X88217403Y-68860697D01*
X88229293Y-68858774D01*
X88240593Y-68856728D01*
X88251296Y-68854558D01*
X88261395Y-68852263D01*
X88270882Y-68849845D01*
X88279748Y-68847302D01*
X88287987Y-68844636D01*
X88295590Y-68841845D01*
X88302549Y-68838931D01*
X88308858Y-68835892D01*
X88314507Y-68832729D01*
X88319490Y-68829443D01*
X88323799Y-68826032D01*
X88328109Y-68822437D01*
X88332113Y-68818601D01*
X88335815Y-68814533D01*
X88339219Y-68810240D01*
X88342328Y-68805730D01*
X88345146Y-68801011D01*
X88347678Y-68796090D01*
X88349926Y-68790975D01*
X88351896Y-68785674D01*
X88353590Y-68780195D01*
X88355013Y-68774546D01*
X88356169Y-68768733D01*
X88357061Y-68762766D01*
X88357693Y-68756651D01*
X88358070Y-68750397D01*
X88358194Y-68744011D01*
X88358041Y-68736723D01*
X88357585Y-68729738D01*
X88356834Y-68723047D01*
X88355797Y-68716643D01*
X88354480Y-68710518D01*
X88352892Y-68704664D01*
X88351041Y-68699074D01*
X88348934Y-68693740D01*
X88346579Y-68688654D01*
X88343983Y-68683808D01*
X88341155Y-68679194D01*
X88338103Y-68674806D01*
X88334833Y-68670634D01*
X88331354Y-68666672D01*
X88327673Y-68662911D01*
X88323799Y-68659344D01*
X88319054Y-68655933D01*
X88313747Y-68652647D01*
X88307875Y-68649484D01*
X88301433Y-68646446D01*
X88294417Y-68643531D01*
X88286824Y-68640741D01*
X88278649Y-68638074D01*
X88269890Y-68635532D01*
X88260541Y-68633113D01*
X88250599Y-68630819D01*
X88228921Y-68626602D01*
X88204824Y-68622881D01*
X88178278Y-68619657D01*
X88178278Y-68624948D01*
X88148512Y-68622101D01*
X88114778Y-68619533D01*
X88035403Y-68615357D01*
X87940153Y-68612670D01*
X87829028Y-68611719D01*
X87774452Y-68611962D01*
X87723815Y-68612670D01*
X87677084Y-68613812D01*
X87634228Y-68615357D01*
X87595218Y-68617275D01*
X87560021Y-68619533D01*
X87528607Y-68622101D01*
X87500944Y-68624948D01*
X87488326Y-68626498D01*
X87476269Y-68628173D01*
X87464778Y-68629971D01*
X87453857Y-68631894D01*
X87443509Y-68633940D01*
X87433739Y-68636111D01*
X87424551Y-68638405D01*
X87415947Y-68640824D01*
X87407933Y-68643366D01*
X87400511Y-68646033D01*
X87393687Y-68648823D01*
X87387463Y-68651738D01*
X87381844Y-68654776D01*
X87376833Y-68657939D01*
X87372435Y-68661225D01*
X87368653Y-68664636D01*
X87365274Y-68668231D01*
X87362085Y-68672067D01*
X87359089Y-68676135D01*
X87356292Y-68680429D01*
X87353696Y-68684939D01*
X87351305Y-68689658D01*
X87349124Y-68694579D01*
X87347155Y-68699694D01*
X87345404Y-68704995D01*
X87343874Y-68710474D01*
X87342568Y-68716123D01*
X87341492Y-68721935D01*
X87340647Y-68727903D01*
X87340039Y-68734018D01*
X87339672Y-68740272D01*
X87339549Y-68746658D01*
X87236534Y-68746658D01*
X87236361Y-68736073D01*
X87236577Y-68723361D01*
X87237224Y-68711020D01*
X87238297Y-68699052D01*
X87239792Y-68687456D01*
X87241706Y-68676232D01*
X87244035Y-68665380D01*
X87246774Y-68654900D01*
X87249921Y-68644792D01*
X87253470Y-68635056D01*
X87257419Y-68625692D01*
X87261763Y-68616701D01*
X87266499Y-68608081D01*
X87271622Y-68599834D01*
X87277129Y-68591958D01*
X87283015Y-68584455D01*
X87289278Y-68577323D01*
X87296036Y-68570532D01*
X87303411Y-68564042D01*
X87311399Y-68557848D01*
X87319994Y-68551940D01*
X87329195Y-68546311D01*
X87338996Y-68540953D01*
X87349394Y-68535859D01*
X87360385Y-68531021D01*
X87371965Y-68526431D01*
X87384130Y-68522081D01*
X87396876Y-68517964D01*
X87410201Y-68514071D01*
X87424098Y-68510396D01*
X87438566Y-68506929D01*
X87453599Y-68503665D01*
X87469194Y-68500594D01*
X87502924Y-68495012D01*
X87540591Y-68490176D01*
X87582164Y-68486083D01*
X87627614Y-68482734D01*
X87676908Y-68480130D01*
X87730016Y-68478269D01*
X87786906Y-68477153D01*
X87847549Y-68476781D01*
X87908191Y-68477153D01*
X87965081Y-68478269D01*
X88018189Y-68480130D01*
X88067483Y-68482734D01*
X88112933Y-68486083D01*
X88154507Y-68490176D01*
X88192173Y-68495012D01*
X88225903Y-68500594D01*
X88241498Y-68503228D01*
X88256531Y-68506169D01*
X88270999Y-68509413D01*
X88284896Y-68512955D01*
X88298221Y-68516791D01*
X88310967Y-68520918D01*
X88323133Y-68525332D01*
X88334713Y-68530029D01*
X88345704Y-68535005D01*
X88356101Y-68540256D01*
X88365903Y-68545778D01*
X88375103Y-68551568D01*
X88383699Y-68557621D01*
X88391686Y-68563934D01*
X88399061Y-68570503D01*
X88405819Y-68577323D01*
X88412082Y-68584426D01*
X88417968Y-68591849D01*
X88423475Y-68599607D01*
X88428598Y-68607709D01*
X88433334Y-68616168D01*
X88437678Y-68624995D01*
X88441627Y-68634201D01*
X88445176Y-68643800D01*
X88448323Y-68653801D01*
X88451062Y-68664217D01*
X88453391Y-68675059D01*
X88455305Y-68686339D01*
X88456800Y-68698069D01*
X88457873Y-68710260D01*
X88458520Y-68722924D01*
X88458736Y-68736073D01*
X88458606Y-68744011D01*
X88458520Y-68749281D01*
G37*
G36*
X86839486Y-77528177D02*
G01*
X88458736Y-77689573D01*
X88458736Y-78171114D01*
X83050653Y-77676343D01*
X83038670Y-77675383D01*
X83027030Y-77673994D01*
X83015736Y-77672181D01*
X83004790Y-77669951D01*
X82994195Y-77667308D01*
X82983954Y-77664257D01*
X82974067Y-77660804D01*
X82964539Y-77656954D01*
X82955372Y-77652713D01*
X82946567Y-77648086D01*
X82938127Y-77643078D01*
X82930056Y-77637695D01*
X82922354Y-77631941D01*
X82915025Y-77625823D01*
X82908071Y-77619345D01*
X82901494Y-77612513D01*
X82895297Y-77605332D01*
X82889482Y-77597807D01*
X82884052Y-77589945D01*
X82879010Y-77581750D01*
X82874356Y-77573227D01*
X82870095Y-77564382D01*
X82866228Y-77555220D01*
X82862757Y-77545747D01*
X82859686Y-77535967D01*
X82857017Y-77525887D01*
X82854751Y-77515511D01*
X82852892Y-77504845D01*
X82851442Y-77493894D01*
X82850403Y-77482663D01*
X82849778Y-77471159D01*
X82849569Y-77459385D01*
X82849569Y-76570385D01*
X84251861Y-76570385D01*
X84251861Y-77266239D01*
X85445132Y-77385302D01*
X85445132Y-76451323D01*
X84251861Y-76570385D01*
X82849569Y-76570385D01*
X82849569Y-76377239D01*
X82849569Y-76374593D01*
X82849786Y-76362587D01*
X82850432Y-76350879D01*
X82851505Y-76339473D01*
X82853001Y-76328374D01*
X82854915Y-76317585D01*
X82857243Y-76307109D01*
X82859983Y-76296952D01*
X82863129Y-76287116D01*
X82866679Y-76277605D01*
X82870628Y-76268424D01*
X82874972Y-76259577D01*
X82879707Y-76251066D01*
X82884830Y-76242897D01*
X82890337Y-76235072D01*
X82896224Y-76227597D01*
X82902486Y-76220474D01*
X82909121Y-76213707D01*
X82916124Y-76207301D01*
X82923491Y-76201260D01*
X82931218Y-76195586D01*
X82939302Y-76190285D01*
X82947739Y-76185359D01*
X82956525Y-76180814D01*
X82965655Y-76176652D01*
X82975127Y-76172878D01*
X82984936Y-76169495D01*
X82995078Y-76166507D01*
X83005550Y-76163919D01*
X83016347Y-76161734D01*
X83027466Y-76159955D01*
X83038902Y-76158588D01*
X83050653Y-76157635D01*
X88458736Y-75652281D01*
X88458736Y-76133823D01*
X86839486Y-76303156D01*
X86839486Y-76451323D01*
X86839486Y-77528177D01*
G37*
G36*
X88440215Y-67587781D02*
G01*
X88220611Y-67587781D01*
X88220611Y-67458135D01*
X88440215Y-67458135D01*
X88440215Y-67587781D01*
G37*
G36*
X88440215Y-69201740D02*
G01*
X88440215Y-69257303D01*
X88440215Y-69344614D01*
X88440215Y-69397531D01*
X87606778Y-69569511D01*
X87606778Y-69434573D01*
X88355549Y-69307573D01*
X88355549Y-69294343D01*
X87606778Y-69164697D01*
X87606778Y-69029761D01*
X88440215Y-69201740D01*
G37*
G36*
X88440215Y-67280864D02*
G01*
X87490361Y-67280864D01*
X87445382Y-67251760D01*
X87434799Y-67262344D01*
X87443667Y-67267863D01*
X87452415Y-67273511D01*
X87461047Y-67279290D01*
X87469566Y-67285205D01*
X87477977Y-67291260D01*
X87486284Y-67297458D01*
X87494489Y-67303803D01*
X87502598Y-67310300D01*
X87510614Y-67316951D01*
X87518540Y-67323762D01*
X87526381Y-67330735D01*
X87534141Y-67337874D01*
X87541824Y-67345185D01*
X87549432Y-67352670D01*
X87556971Y-67360333D01*
X87564444Y-67368178D01*
X87578950Y-67383055D01*
X87592680Y-67397901D01*
X87605605Y-67412686D01*
X87617692Y-67427377D01*
X87623412Y-67434679D01*
X87628911Y-67441945D01*
X87634185Y-67449173D01*
X87639230Y-67456358D01*
X87644043Y-67463496D01*
X87648620Y-67470584D01*
X87652956Y-67477618D01*
X87657048Y-67484594D01*
X87540632Y-67484594D01*
X87537562Y-67478641D01*
X87534307Y-67472688D01*
X87530865Y-67466734D01*
X87527237Y-67460781D01*
X87523424Y-67454828D01*
X87519424Y-67448875D01*
X87515238Y-67442922D01*
X87510866Y-67436969D01*
X87506308Y-67431015D01*
X87501564Y-67425062D01*
X87496634Y-67419109D01*
X87491519Y-67413156D01*
X87486217Y-67407203D01*
X87480728Y-67401250D01*
X87475054Y-67395297D01*
X87469194Y-67389344D01*
X87457164Y-67377680D01*
X87444886Y-67366482D01*
X87432359Y-67355717D01*
X87419585Y-67345356D01*
X87406563Y-67335367D01*
X87393292Y-67325719D01*
X87379774Y-67316382D01*
X87366007Y-67307323D01*
X87351248Y-67298760D01*
X87336737Y-67290910D01*
X87322475Y-67283743D01*
X87308460Y-67277226D01*
X87294693Y-67271330D01*
X87281175Y-67266023D01*
X87267904Y-67261274D01*
X87254882Y-67257052D01*
X87254882Y-67156510D01*
X88440215Y-67156510D01*
X88440215Y-67280864D01*
G37*
G36*
X86838594Y-79077890D02*
G01*
X86839486Y-79136843D01*
X86839486Y-79816822D01*
X88458736Y-79816822D01*
X88458736Y-80298364D01*
X83058591Y-80298364D01*
X83045886Y-80298125D01*
X83033571Y-80297412D01*
X83021644Y-80296232D01*
X83010108Y-80294592D01*
X82998964Y-80292498D01*
X82988212Y-80289958D01*
X82977853Y-80286977D01*
X82967888Y-80283564D01*
X82958319Y-80279724D01*
X82949147Y-80275465D01*
X82940371Y-80270793D01*
X82931994Y-80265715D01*
X82924016Y-80260238D01*
X82916438Y-80254368D01*
X82909261Y-80248113D01*
X82902487Y-80241479D01*
X82896115Y-80234472D01*
X82890148Y-80227101D01*
X82884585Y-80219371D01*
X82879429Y-80211289D01*
X82874679Y-80202863D01*
X82870337Y-80194098D01*
X82866405Y-80185002D01*
X82862882Y-80175581D01*
X82859770Y-80165842D01*
X82857069Y-80155793D01*
X82854782Y-80145439D01*
X82852908Y-80134787D01*
X82851449Y-80123845D01*
X82850406Y-80112620D01*
X82849779Y-80101117D01*
X82849570Y-80089343D01*
X82849570Y-79134198D01*
X82852020Y-79054822D01*
X84259799Y-79054822D01*
X84259799Y-79816822D01*
X85445132Y-79816822D01*
X85445132Y-79054822D01*
X85443916Y-79008571D01*
X85442390Y-78986822D01*
X85440243Y-78965970D01*
X85437473Y-78945998D01*
X85434075Y-78926888D01*
X85430042Y-78908626D01*
X85425371Y-78891194D01*
X85420057Y-78874576D01*
X85414094Y-78858756D01*
X85407478Y-78843716D01*
X85400205Y-78829441D01*
X85392268Y-78815914D01*
X85383664Y-78803118D01*
X85374388Y-78791038D01*
X85364434Y-78779656D01*
X85353798Y-78768956D01*
X85342476Y-78758922D01*
X85330461Y-78749537D01*
X85317750Y-78740785D01*
X85304337Y-78732649D01*
X85290218Y-78725113D01*
X85275387Y-78718160D01*
X85259841Y-78711774D01*
X85243574Y-78705938D01*
X85226581Y-78700636D01*
X85190398Y-78691568D01*
X85151255Y-78684438D01*
X85109111Y-78679114D01*
X85043090Y-78673905D01*
X84977812Y-78670184D01*
X84913030Y-78667952D01*
X84848497Y-78667208D01*
X84783963Y-78667952D01*
X84719182Y-78670184D01*
X84653904Y-78673905D01*
X84587882Y-78679114D01*
X84547136Y-78684438D01*
X84509215Y-78691568D01*
X84474093Y-78700636D01*
X84457572Y-78705938D01*
X84441741Y-78711773D01*
X84426596Y-78718160D01*
X84412134Y-78725112D01*
X84398351Y-78732649D01*
X84385244Y-78740785D01*
X84372809Y-78749537D01*
X84361043Y-78758922D01*
X84349943Y-78768956D01*
X84339505Y-78779656D01*
X84329726Y-78791038D01*
X84320602Y-78803118D01*
X84312131Y-78815914D01*
X84304308Y-78829441D01*
X84297131Y-78843716D01*
X84290595Y-78858756D01*
X84284698Y-78874576D01*
X84279436Y-78891194D01*
X84274806Y-78908626D01*
X84270804Y-78926888D01*
X84267427Y-78945997D01*
X84264672Y-78965970D01*
X84261013Y-79008571D01*
X84259799Y-79054822D01*
X82852020Y-79054822D01*
X82853143Y-79018422D01*
X82857619Y-78963708D01*
X82863895Y-78911079D01*
X82871976Y-78860513D01*
X82881870Y-78811985D01*
X82893582Y-78765472D01*
X82907117Y-78720951D01*
X82922481Y-78678400D01*
X82939681Y-78637794D01*
X82958721Y-78599110D01*
X82979608Y-78562325D01*
X83002348Y-78527417D01*
X83026947Y-78494361D01*
X83053409Y-78463134D01*
X83081742Y-78433713D01*
X83111950Y-78406075D01*
X83144040Y-78380197D01*
X83178018Y-78356055D01*
X83213889Y-78333626D01*
X83251659Y-78312887D01*
X83291334Y-78293815D01*
X83332919Y-78276386D01*
X83376421Y-78260576D01*
X83421846Y-78246364D01*
X83469199Y-78233725D01*
X83569712Y-78213076D01*
X83678008Y-78198441D01*
X83794132Y-78189635D01*
X83794132Y-78192281D01*
X84056406Y-78181863D01*
X84319206Y-78174421D01*
X84582317Y-78169957D01*
X84845520Y-78168468D01*
X85108600Y-78169957D01*
X85371338Y-78174421D01*
X85633519Y-78181863D01*
X85894924Y-78192281D01*
X86011048Y-78201087D01*
X86119344Y-78215721D01*
X86170571Y-78225283D01*
X86219857Y-78236371D01*
X86267210Y-78249010D01*
X86312635Y-78263222D01*
X86356137Y-78279031D01*
X86397722Y-78296460D01*
X86437397Y-78315533D01*
X86475167Y-78336272D01*
X86511038Y-78358701D01*
X86545016Y-78382843D01*
X86577106Y-78408721D01*
X86607314Y-78436359D01*
X86635647Y-78465780D01*
X86662109Y-78497006D01*
X86686708Y-78530062D01*
X86709448Y-78564971D01*
X86730335Y-78601756D01*
X86749375Y-78640439D01*
X86766575Y-78681046D01*
X86781939Y-78723597D01*
X86795474Y-78768118D01*
X86807186Y-78814630D01*
X86817079Y-78863158D01*
X86825161Y-78913725D01*
X86831437Y-78966354D01*
X86835913Y-79021067D01*
X86837505Y-79054822D01*
X86838594Y-79077890D01*
G37*
D11*
%TO.C,H2*%
X80240366Y-52059175D03*
%TD*%
D12*
%TO.C,C2*%
X75000000Y-58400000D03*
X75000000Y-62000000D03*
%TD*%
D13*
%TO.C,C5*%
X61000000Y-72700000D03*
X61000000Y-78300000D03*
%TD*%
D14*
%TO.C,H4*%
X85000000Y-85000000D03*
%TD*%
D15*
%TO.C,R1*%
X67913687Y-79237260D03*
X67913687Y-77412260D03*
%TD*%
D14*
%TO.C,H3*%
X55000000Y-55000000D03*
%TD*%
D16*
%TO.C,LS1*%
X63363808Y-86092743D03*
D17*
X68443808Y-86092743D03*
%TD*%
D12*
%TO.C,C3*%
X60000000Y-63200000D03*
X60000000Y-66800000D03*
%TD*%
D16*
%TO.C,J2*%
X86123257Y-61417090D03*
D17*
X86123257Y-56337090D03*
%TD*%
D18*
%TO.C,D1*%
X79000000Y-68000000D03*
X79000000Y-65900000D03*
%TD*%
D19*
%TO.C,C7*%
X53718396Y-73655599D03*
X53718396Y-78055599D03*
%TD*%
D13*
%TO.C,C6*%
X78000000Y-80200000D03*
X78000000Y-85800000D03*
%TD*%
D11*
%TO.C,POT1*%
X52000000Y-62920000D03*
D20*
X52000000Y-65460000D03*
X52000000Y-68000000D03*
%TD*%
D16*
%TO.C,J1*%
X66540000Y-54000000D03*
D17*
X61460000Y-54000000D03*
%TD*%
D21*
%TO.C,C1*%
X67000000Y-62900000D03*
X67000000Y-61000000D03*
%TD*%
D11*
%TO.C,H1*%
X71302034Y-52037321D03*
%TD*%
D22*
%TO.C,C4*%
X72784667Y-77191909D03*
X72784667Y-79091909D03*
%TD*%
D23*
%TO.C,U1*%
X67190000Y-66190000D03*
D24*
X67190000Y-68730000D03*
X67190000Y-71270000D03*
X67190000Y-73810000D03*
X74810000Y-73810000D03*
X74810000Y-71270000D03*
X74810000Y-68730000D03*
X74810000Y-66190000D03*
%TD*%
M02*
