M48
; DRILL file KiCad 10.0.0 date 2026-06-22T23:18:41
; FORMAT={-:-/ absolute / metric / decimal}
; #@! TF.CreationDate,2026-06-22T23:18:41-04:00
; #@! TF.GenerationSoftware,Kicad,Pcbnew,10.0.0
; #@! TF.FileFunction,Plated,1,2,PTH
FMAT,2
METRIC
; #@! TA.AperFunction,Plated,PTH,ViaDrill
T1C0.300
; #@! TA.AperFunction,Plated,PTH,ComponentDrill
T2C0.700
; #@! TA.AperFunction,Plated,PTH,ComponentDrill
T3C0.900
; #@! TA.AperFunction,Plated,PTH,ComponentDrill
T4C1.000
; #@! TA.AperFunction,Plated,PTH,ComponentDrill
T5C1.600
; #@! TA.AperFunction,Plated,PTH,ComponentDrill
T6C2.200
%
G90
G05
T1
X56.9Y-82.5
X58.85Y-82.5
X60.95Y-64.3
X68.6Y-71.85
X74.95Y-73.35
X81.5Y-87.75
X88.25Y-87.5
T2
X75.92Y-53.0
X78.46Y-53.0
X81.0Y-53.0
T3
X55.25Y-60.65
X55.25Y-63.19
T4
X65.1Y-98.0
X67.6Y-98.0
X70.1Y-98.0
X80.124Y-97.966
X82.624Y-97.966
X85.124Y-97.966
T5
X51.9Y-79.45
X51.927Y-70.05
X60.2Y-79.45
X60.227Y-70.05
X63.3Y-79.45
X63.328Y-70.05
X86.3Y-70.15
X86.3Y-79.6
X89.4Y-70.15
X89.4Y-79.6
X97.7Y-70.15
X97.7Y-79.6
T6
X63.2Y-91.0
X72.0Y-91.0
X78.224Y-90.966
X87.024Y-90.966
T4
G00X61.3Y-57.0
M15
G01X61.3Y-59.0
M16
G05
G00X67.0Y-55.0
M15
G01X65.0Y-55.0
M16
G05
G00X67.0Y-61.0
M15
G01X65.0Y-61.0
M16
G05
M30
